<?xml version="1.0" encoding="UTF-8"?>
<svg version="1.1" xmlns="http://www.w3.org/2000/svg" width="220" height="220">
<path d="M0 0 C72.6 0 145.2 0 220 0 C220 72.6 220 145.2 220 220 C147.4 220 74.8 220 0 220 C0 147.4 0 74.8 0 0 Z " fill="#030303" transform="translate(0,0)"/>
<path d="M0 0 C44.22 0 88.44 0 134 0 C134 55.11 134 110.22 134 167 C133.67 167 133.34 167 133 167 C132.93941406 166.09636719 132.87882813 165.19273437 132.81640625 164.26171875 C132.73261719 163.08222656 132.64882812 161.90273437 132.5625 160.6875 C132.48128906 159.51574219 132.40007812 158.34398437 132.31640625 157.13671875 C132.02310878 153.22279296 132.02310878 153.22279296 130 150 C129.4225 149.38125 128.845 148.7625 128.25 148.125 C126.11578922 145.89444171 126.11578922 145.89444171 123.40625 144.75 C121 143 121 143 120.328125 140.1171875 C120.28945313 138.51230469 120.28945313 138.51230469 120.25 136.875 C120.46783274 133.1232456 120.46783274 133.1232456 119 130 C119 134.62 119 139.24 119 144 C116.43923903 144.67404284 113.87673417 145.339414 111.3125 146 C110.59126953 146.19078125 109.87003906 146.3815625 109.12695312 146.578125 C105.33149039 147.54865428 101.95384561 148.24955239 98 148 C98 146.68 98 145.36 98 144 C97.360625 144.165 96.72125 144.33 96.0625 144.5 C92.02413348 145.15932515 88.08192742 145.08003779 84 145 C83.67 145.66 83.34 146.32 83 147 C84.65 146.67 86.3 146.34 88 146 C88 147.65 88 149.3 88 151 C87.01 151 86.02 151 85 151 C85 151.66 85 152.32 85 153 C83.700625 152.979375 82.40125 152.95875 81.0625 152.9375 C79.70834367 152.91600546 78.35243917 152.92851801 77 153 C76.67 153.33 76.34 153.66 76 154 C77.65 154 79.3 154 81 154 C79.68 155.32 78.36 156.64 77 158 C74.06055265 156.04036843 73.5231689 155.45895159 72.0625 152.5 C70.41145081 149.42015825 69.20916625 148.43859177 66 147 C65.67 145.68 65.34 144.36 65 143 C69.95 142.01 69.95 142.01 75 141 C75 143.64 75 146.28 75 149 C75.66 149 76.32 149 77 149 C76.95875 147.80375 76.9175 146.6075 76.875 145.375 C76.86148292 141.57670047 77.57990247 138.55024382 79 135 C78.34 134.67 77.68 134.34 77 134 C76.731875 134.969375 76.46375 135.93875 76.1875 136.9375 C75.795625 137.948125 75.40375 138.95875 75 140 C61.68759576 144.43746808 45.41054671 139.48336949 33.3125 133.5625 C28.72612306 131.23966985 25.52231154 128.7356003 22 125 C21.195625 124.38125 20.39125 123.7625 19.5625 123.125 C16.28667821 120.40846486 13.21150968 117.67268572 11 114 C11.125 110.5625 11.125 110.5625 12 108 C15.75 106.875 15.75 106.875 18 108 C16.94570314 106.73527935 16.94570314 106.73527935 14.5625 106.75 C13.716875 106.8325 12.87125 106.915 12 107 C11.34 107.99 10.68 108.98 10 110 C8.07421875 109.37109375 8.07421875 109.37109375 6 108 C5.20703125 105.28515625 5.20703125 105.28515625 4.8125 102.0625 C4.39614591 98.86007554 4.02278851 96.06836554 3 93 C2.91554119 89.78747989 3.14254632 86.58316679 3.3125 83.375 C3.34794922 82.51003906 3.38339844 81.64507812 3.41992188 80.75390625 C3.67536191 75.66798087 4.31351655 70.92831262 5.58666992 65.99462891 C6.13527384 63.68670255 6.13527384 63.68670255 6 60 C4.7082362 63.44470347 3.84449818 66.66920984 3.4375 70.3125 C3 74 3 74 2 75 C1.92674832 77.86267567 1.90761795 80.700719 1.9375 83.5625 C1.94201172 84.36880859 1.94652344 85.17511719 1.95117188 86.00585938 C1.96299482 88.00393756 1.98093086 90.00197783 2 92 C1.34 92 0.68 92 0 92 C-1.70926812 89.99294997 -3.30189023 87.9847099 -4.875 85.875 C-5.30941406 85.30523437 -5.74382812 84.73546875 -6.19140625 84.1484375 C-14.82822888 72.73641961 -14.82822888 72.73641961 -15.3828125 66.96875 C-14.71812308 63.55034726 -12.26334637 62.01569126 -9.56640625 60.03125 C-9.04949219 59.6909375 -8.53257813 59.350625 -8 59 C-11.42346555 62.14958831 -14.44262737 62.56179109 -19 63 C-19.33 61.68 -19.66 60.36 -20 59 C-20.65226562 59.28875 -21.30453125 59.5775 -21.9765625 59.875 C-31.56874382 63.9495549 -31.56874382 63.9495549 -36 63 C-38.62768525 60.76407873 -39.87310722 58.9811427 -40.31982422 55.52709961 C-40.39383517 52.57100021 -40.3483216 49.64282038 -40.25 46.6875 C-40.23195312 45.66076172 -40.21390625 44.63402344 -40.1953125 43.57617188 C-40.14831063 41.04982115 -40.08262272 38.52539531 -40 36 C-39.34 36 -38.68 36 -38 36 C-37.95875 35.443125 -37.9175 34.88625 -37.875 34.3125 C-36.52835048 30.7534977 -34.31982133 28.69364869 -31 27 C-24.00192971 25.78879553 -14.37071969 26.81464016 -8 30 C-7.5859375 32.06640625 -7.5859375 32.06640625 -7.375 34.5625 C-7.30023438 35.38878906 -7.22546875 36.21507812 -7.1484375 37.06640625 C-7.09945312 37.70449219 -7.05046875 38.34257813 -7 39 C-6.525625 38.525625 -6.05125 38.05125 -5.5625 37.5625 C-4.70833333 36.70833333 -3.85416667 35.85416667 -3 35 C-3.99 35.33 -4.98 35.66 -6 36 C-6.495 32.535 -6.495 32.535 -7 29 C-12.94 28.01 -12.94 28.01 -19 27 C-19 26.01 -19 25.02 -19 24 C-17.390625 22.578125 -17.390625 22.578125 -15.25 21.25 C-14.55390625 20.80140625 -13.8578125 20.3528125 -13.140625 19.890625 C-10.57316714 18.8224126 -9.56128746 19.03418119 -7 20 C-5.6520257 20.63654342 -4.31403276 21.29605388 -3 22 C-3 22.66 -3 23.32 -3 24 C-2.50072998 23.75765625 -2.00145996 23.5153125 -1.48706055 23.265625 C0.77659084 22.17103128 3.04444564 21.08543911 5.3125 20 C6.09818359 19.6184375 6.88386719 19.236875 7.69335938 18.84375 C8.45068359 18.4828125 9.20800781 18.121875 9.98828125 17.75 C10.68477783 17.41484375 11.38127441 17.0796875 12.09887695 16.734375 C14 16 14 16 17 16 C17.33 15.34 17.66 14.68 18 14 C18.66 14.33 19.32 14.66 20 15 C20 14.01 20 13.02 20 12 C18.48212891 11.87238281 18.48212891 11.87238281 16.93359375 11.7421875 C12.78282337 11.14608291 9.5566322 9.36349112 6.0625 7.125 C5.47404297 6.77308594 4.88558594 6.42117187 4.27929688 6.05859375 C2.59765625 5.0078125 2.59765625 5.0078125 0 3 C0 2.01 0 1.02 0 0 Z " fill="#FBFBFA" transform="translate(86,0)"/>
<path d="M0 0 C17.16 0 34.32 0 52 0 C61 21.6 61 21.6 61 25 C60.01 25.185625 59.02 25.37125 58 25.5625 C51.09588715 27.5231 46.17093195 33.4387574 42 39 C40.375 40.8125 40.375 40.8125 39 42 C38.34 42 37.68 42 37 42 C36.72027344 42.71542969 36.44054688 43.43085937 36.15234375 44.16796875 C35.41516791 45.97967208 34.63967509 47.77654181 33.81640625 49.55078125 C23.38349838 72.52917958 24.26209929 100.01501511 33 123.3125 C33.51899749 124.65616417 34.04102724 125.99866192 34.56640625 127.33984375 C36.20798569 131.53101524 37.7339279 135.68045991 39 140 C38.67 140.66 38.34 141.32 38 142 C38.5775 142.04125 39.155 142.0825 39.75 142.125 C43.10750387 143.43069595 44.45994364 145.88492131 46 149 C47.07590225 152.45287877 47.79012585 155.9560689 48.5 159.5 C49.82735459 165.79014877 51.20527047 171.93895823 53.1875 178.0625 C55.20853141 184.78303817 55.81038005 191.48497655 56.31713867 198.45532227 C56.68620315 203.4185543 57.34272828 208.07868969 58.59326172 212.90112305 C59 215 59 215 59 220 C39.53 220 20.06 220 0 220 C0 147.4 0 74.8 0 0 Z " fill="#FDFDFC" transform="translate(0,0)"/>
<path d="M0 0 C0.66 0.33 1.32 0.66 2 1 C2.2734375 2.92578125 2.2734375 2.92578125 2.375 5.3125 C2.68876232 9.08767338 2.68876232 9.08767338 4.8125 12.1875 C5.534375 12.785625 6.25625 13.38375 7 14 C8.33333333 16 9.66666667 18 11 20 C11.66 20.33 12.32 20.66 13 21 C13.185625 19.5459375 13.185625 19.5459375 13.375 18.0625 C13.58125 17.051875 13.7875 16.04125 14 15 C14.66 14.67 15.32 14.34 16 14 C15.34 16.31 14.68 18.62 14 21 C14.66 21 15.32 21 16 21 C16.495 19.515 16.495 19.515 17 18 C17 18.66 17 19.32 17 20 C17.59167969 19.90460937 18.18335938 19.80921875 18.79296875 19.7109375 C23.44380225 19.05845515 26.72314374 18.65462721 31 21 C31.66 19.35 32.32 17.7 33 16 C33.33 16 33.66 16 34 16 C34 18.64 34 21.28 34 24 C34.66 24 35.32 24 36 24 C36.99 28.95 36.99 28.95 38 34 C37.34 34 36.68 34 36 34 C36.33 34.99 36.66 35.98 37 37 C37.66 36.67 38.32 36.34 39 36 C39.495 38.97 39.495 38.97 40 42 C40.66 42 41.32 42 42 42 C42.19335938 41.33613281 42.38671875 40.67226562 42.5859375 39.98828125 C44.80979553 32.4469805 44.80979553 32.4469805 46.25 29.0625 C47.29578163 26.85168704 47.29578163 26.85168704 46 24 C45.96045766 21.66700175 45.95598268 19.33291811 46 17 C48.81736172 16.21739952 50.45969238 15.80488891 53.25 16.8125 C55 18 55 18 56 20 C56.33333333 22 56.66666667 24 57 26 C57.495 26.99 57.495 26.99 58 28 C58.45112782 33.30075188 58.45112782 33.30075188 56.75 35.9375 C55 37 55 37 52.8125 36.6875 C52.214375 36.460625 51.61625 36.23375 51 36 C50.67 37.98 50.34 39.96 50 42 C50.66 42.33 51.32 42.66 52 43 C52 45.31 52 47.62 52 50 C51.67 50 51.34 50 51 50 C51 52.64 51 55.28 51 58 C52.32 58 53.64 58 55 58 C55.33 57.01 55.66 56.02 56 55 C56.66 55.33 57.32 55.66 58 56 C59.35991287 55.83324536 60.71404695 55.61757886 62.0625 55.375 C68.4666421 54.6281911 73.28753696 55.97743673 78.47265625 59.84375 C80.15511752 61.23756644 81.82839506 62.6425447 83.4921875 64.05859375 C87.03712289 66.80288174 90.81335975 68.46287604 95 70 C95.495 68.515 95.495 68.515 96 67 C99.0625 65.8125 99.0625 65.8125 102 65 C101.34 63.35 100.68 61.7 100 60 C99.67 60.66 99.34 61.32 99 62 C98.34 62 97.68 62 97 62 C97 60.02 97 58.04 97 56 C95.515 55.505 95.515 55.505 94 55 C94.66 54.67 95.32 54.34 96 54 C93.86820332 41.62870834 91.52680263 29.35289878 88.57543945 17.14794922 C88.37007568 16.28314941 88.16471191 15.41834961 87.953125 14.52734375 C87.76911133 13.77187256 87.58509766 13.01640137 87.39550781 12.23803711 C86.96226182 9.78645313 86.93324058 7.48459952 87 5 C88.92868588 8.41511862 89.77821044 11.7902631 90.65625 15.6015625 C90.80404907 16.23806732 90.95184814 16.87457214 91.10412598 17.53036499 C91.41569753 18.87630555 91.72485166 20.22280773 92.03173828 21.56982422 C92.4939693 23.59853159 92.96306104 25.62554756 93.43359375 27.65234375 C98.30637085 48.72798715 98.30637085 48.72798715 98 57 C98.61875 57.268125 99.2375 57.53625 99.875 57.8125 C102 59 102 59 104 62 C103.72604615 64.00899487 103.38290462 66.00889599 103 68 C102.96237049 70.33302989 102.95334266 72.66713319 103 75 C102.34 75 101.68 75 101 75 C100.690625 74.195625 100.38125 73.39125 100.0625 72.5625 C99.23664655 70.10919595 99.23664655 70.10919595 98 69 C98.33 70.98 98.66 72.96 99 75 C94.71 72.69 90.42 70.38 86 68 C87.485 69.98 87.485 69.98 89 72 C89.66 72 90.32 72 91 72 C91.09796875 72.70125 91.1959375 73.4025 91.296875 74.125 C92.30382873 80.5139478 93.90999719 85.33499485 97 91 C97 91.66 97 92.32 97 93 C97.66 93 98.32 93 99 93 C99.99 96.465 99.99 96.465 101 100 C102.65 100 104.3 100 106 100 C105.67 100.99 105.34 101.98 105 103 C103.0625 103.75 103.0625 103.75 101 104 C98.20496166 102.60248083 98.07256502 101.01589791 97 98.125 C95.85696556 95.06202491 94.82887727 92.7433159 93 90 C91.515 90.495 91.515 90.495 90 91 C89.67 92.98 89.34 94.96 89 97 C89.598125 97.226875 90.19625 97.45375 90.8125 97.6875 C93.56351888 99.33811133 94.52484637 101.1972081 96 104 C93.04335481 105.4783226 90.25770263 105.06032783 87 105 C86.731875 105.969375 86.46375 106.93875 86.1875 107.9375 C85.795625 108.948125 85.40375 109.95875 85 111 C71.68759576 115.43746808 55.41054671 110.48336949 43.3125 104.5625 C38.72612306 102.23966985 35.52231154 99.7356003 32 96 C31.195625 95.38125 30.39125 94.7625 29.5625 94.125 C26.28667821 91.40846486 23.21150968 88.67268572 21 85 C21.125 81.5625 21.125 81.5625 22 79 C25.75 77.875 25.75 77.875 28 79 C26.94570314 77.73527935 26.94570314 77.73527935 24.5625 77.75 C23.716875 77.8325 22.87125 77.915 22 78 C21.34 78.99 20.68 79.98 20 81 C18.07421875 80.37109375 18.07421875 80.37109375 16 79 C15.20703125 76.28515625 15.20703125 76.28515625 14.8125 73.0625 C14.39614591 69.86007554 14.02278851 67.06836554 13 64 C12.91554119 60.78747989 13.14254632 57.58316679 13.3125 54.375 C13.34794922 53.51003906 13.38339844 52.64507812 13.41992188 51.75390625 C13.67536191 46.66798087 14.31351655 41.92831262 15.58666992 36.99462891 C16.13527384 34.68670255 16.13527384 34.68670255 16 31 C14.7082362 34.44470347 13.84449818 37.66920984 13.4375 41.3125 C13 45 13 45 12 46 C11.92674832 48.86267567 11.90761795 51.700719 11.9375 54.5625 C11.94201172 55.36880859 11.94652344 56.17511719 11.95117188 57.00585938 C11.96299482 59.00393756 11.98093086 61.00197783 12 63 C11.34 63 10.68 63 10 63 C8.29073188 60.99294997 6.69810977 58.9847099 5.125 56.875 C4.69058594 56.30523437 4.25617188 55.73546875 3.80859375 55.1484375 C-4.82822888 43.73641961 -4.82822888 43.73641961 -5.3828125 37.96875 C-4.71812308 34.55034726 -2.26334637 33.01569126 0.43359375 31.03125 C0.95050781 30.6909375 1.46742187 30.350625 2 30 C-1.42346555 33.14958831 -4.44262737 33.56179109 -9 34 C-9.33 32.68 -9.66 31.36 -10 30 C-10.65226562 30.28875 -11.30453125 30.5775 -11.9765625 30.875 C-21.56874382 34.9495549 -21.56874382 34.9495549 -26 34 C-28.62768525 31.76407873 -29.87310722 29.9811427 -30.31982422 26.52709961 C-30.39383517 23.57100021 -30.3483216 20.64282038 -30.25 17.6875 C-30.23195312 16.66076172 -30.21390625 15.63402344 -30.1953125 14.57617188 C-30.14831063 12.04982115 -30.08262272 9.52539531 -30 7 C-29.34 7 -28.68 7 -28 7 C-27.95875 6.443125 -27.9175 5.88625 -27.875 5.3125 C-23.48596853 -6.28708316 -9.27877819 -2.20693162 0 0 Z " fill="#F3F3F1" transform="translate(76,29)"/>
<path d="M0 0 C1.875 0.3125 1.875 0.3125 4 1 C6.31204505 4.46806757 6.16231924 5.86325344 6.1875 9.9375 C6.31745449 14.21951195 6.31745449 14.21951195 8.58203125 17.60546875 C10.71645679 18.78680006 10.71645679 18.78680006 14 20 C14.495 20.99 14.495 20.99 15 22 C15.66 21.34 16.32 20.68 17 20 C17.68707555 22.49064888 18 24.37886292 18 27 C18.15734958 28.96177937 18.32315836 30.92288542 18.49389648 32.88354492 C19.01727438 39.55682949 19.12941408 46.17238115 19.09765625 52.86328125 C19.09664917 53.89207397 19.09564209 54.9208667 19.09460449 55.98083496 C19.08944338 59.75806827 19.07548328 63.53528547 19.0625 67.3125 C19.041875 75.789375 19.02125 84.26625 19 93 C-13.01 93 -45.02 93 -78 93 C-71.5163431 81.65360043 -63.87533068 72.47715289 -54.47119141 63.49389648 C-52.94824387 62.02903641 -51.4696349 60.51834038 -50 59 C-50 58.34 -50 57.68 -50 57 C-51.485 56.505 -51.485 56.505 -53 56 C-51.70941816 53.31227451 -50.27994951 50.85215372 -48.625 48.375 C-46.133914 44.4656851 -44.47590909 40.44866924 -42.89453125 36.1015625 C-42 34 -42 34 -40 32 C-39.67 31.34 -39.34 30.68 -39 30 C-36.9375 28.875 -36.9375 28.875 -35 28 C-36.32 27.67 -37.64 27.34 -39 27 C-38.505 25.515 -38.505 25.515 -38 24 C-38 24.66 -38 25.32 -38 26 C-35.36 26 -32.72 26 -30 26 C-30 25.34 -30 24.68 -30 24 C-29.01 24 -28.02 24 -27 24 C-27.495 22.02 -27.495 22.02 -28 20 C-29.32 20 -30.64 20 -32 20 C-31.505 18.515 -31.505 18.515 -31 17 C-26.38 17 -21.76 17 -17 17 C-17 18.32 -17 19.64 -17 21 C-10.07 19.68 -3.14 18.36 4 17 C3.505 15.02 3.505 15.02 3 13 C3.00809237 10.43876629 3.12704392 7.89752335 3.2578125 5.33984375 C3.20824909 2.91126038 3.20824909 2.91126038 1.4921875 1.19140625 C0.99976563 0.79824219 0.50734375 0.40507813 0 0 Z " fill="#020202" transform="translate(201,127)"/>
<path d="M0 0 C1.92868588 3.41511862 2.77821044 6.7902631 3.65625 10.6015625 C3.80404907 11.23806732 3.95184814 11.87457214 4.10412598 12.53036499 C4.41569753 13.87630555 4.72485166 15.22280773 5.03173828 16.56982422 C5.4939693 18.59853159 5.96306104 20.62554756 6.43359375 22.65234375 C11.30637085 43.72798715 11.30637085 43.72798715 11 52 C11.61875 52.268125 12.2375 52.53625 12.875 52.8125 C15 54 15 54 17 57 C16.72604615 59.00899487 16.38290462 61.00889599 16 63 C15.96237049 65.33302989 15.95334266 67.66713319 16 70 C15.34 70 14.68 70 14 70 C13.690625 69.195625 13.38125 68.39125 13.0625 67.5625 C12.23664655 65.10919595 12.23664655 65.10919595 11 64 C11.33 65.98 11.66 67.96 12 70 C5.565 66.535 5.565 66.535 -1 63 C-0.01 64.32 0.98 65.64 2 67 C2.66 67 3.32 67 4 67 C4.14695312 68.051875 4.14695312 68.051875 4.296875 69.125 C5.30382873 75.5139478 6.90999719 80.33499485 10 86 C10 86.66 10 87.32 10 88 C10.66 88 11.32 88 12 88 C12.66 90.31 13.32 92.62 14 95 C15.65 95 17.3 95 19 95 C18.505 96.485 18.505 96.485 18 98 C16.0625 98.75 16.0625 98.75 14 99 C11.20496166 97.60248083 11.07256502 96.01589791 10 93.125 C8.85696556 90.06202491 7.82887727 87.7433159 6 85 C5.01 85.33 4.02 85.66 3 86 C2.67 87.98 2.34 89.96 2 92 C2.598125 92.226875 3.19625 92.45375 3.8125 92.6875 C6.56351888 94.33811133 7.52484637 96.1972081 9 99 C6.03 99.495 6.03 99.495 3 100 C3.99 99.67 4.98 99.34 6 99 C3.45395403 95.47618313 3.45395403 95.47618313 0 93 C-0.495 94.98 -0.495 94.98 -1 97 C-1.28875 96.05125 -1.5775 95.1025 -1.875 94.125 C-2.76825109 90.94788422 -2.76825109 90.94788422 -5 89 C-5.625 86.375 -5.625 86.375 -6 84 C-6.721875 84.763125 -7.44375 85.52625 -8.1875 86.3125 C-11.86936016 89.83072193 -14.30635214 91.71772536 -19.375 92.5625 C-24.2143014 91.81157392 -26.74360418 89.55075928 -30 86 C-31.45147903 83.09704195 -31.37239025 81.22738221 -31 78 C-29.55129084 75.61071101 -28.00695109 74.00695109 -26 72 C-25.34 72 -24.68 72 -24 72 C-24 71.34 -24 70.68 -24 70 C-25.65 69.67 -27.3 69.34 -29 69 C-29 68.34 -29 67.68 -29 67 C-30.65 67 -32.3 67 -34 67 C-34 66.01 -34 65.02 -34 64 C-35.93897879 61.32601524 -35.93897879 61.32601524 -38 59 C-39.32 59.99 -40.64 60.98 -42 62 C-40.125 58.125 -40.125 58.125 -39 57 C-38.92442151 54.90099649 -38.9169246 52.79948171 -38.9375 50.69921875 C-38.94523437 49.41208984 -38.95296875 48.12496094 -38.9609375 46.79882812 C-38.9795765 44.74485954 -38.99996586 42.69091323 -39.02050781 40.63696289 C-39.03863729 38.65774838 -39.05064221 36.67848077 -39.0625 34.69921875 C-39.07410156 33.51158936 -39.08570312 32.32395996 -39.09765625 31.1003418 C-39.01626905 28.51650167 -38.76835677 26.44913719 -38 24 C-37.34 24 -36.68 24 -36 24 C-35.731875 24.969375 -35.46375 25.93875 -35.1875 26.9375 C-34.795625 27.948125 -34.40375 28.95875 -34 30 C-33.01 30.33 -32.02 30.66 -31 31 C-32.9375 31.5625 -32.9375 31.5625 -35 32 C-35.33 31.67 -35.66 31.34 -36 31 C-36.33 32.98 -36.66 34.96 -37 37 C-36.34 37.33 -35.68 37.66 -35 38 C-35 40.31 -35 42.62 -35 45 C-35.33 45 -35.66 45 -36 45 C-36 47.64 -36 50.28 -36 53 C-34.68 53 -33.36 53 -32 53 C-31.67 52.01 -31.34 51.02 -31 50 C-30.34 50.33 -29.68 50.66 -29 51 C-27.64008713 50.83324536 -26.28595305 50.61757886 -24.9375 50.375 C-18.5333579 49.6281911 -13.71246304 50.97743673 -8.52734375 54.84375 C-6.84488248 56.23756644 -5.17160494 57.6425447 -3.5078125 59.05859375 C0.03712289 61.80288174 3.81335975 63.46287604 8 65 C8.495 63.515 8.495 63.515 9 62 C12.0625 60.8125 12.0625 60.8125 15 60 C14.34 58.35 13.68 56.7 13 55 C12.505 55.99 12.505 55.99 12 57 C11.34 57 10.68 57 10 57 C10 55.02 10 53.04 10 51 C9.01 50.67 8.02 50.34 7 50 C7.66 49.67 8.32 49.34 9 49 C6.86820332 36.62870834 4.52680263 24.35289878 1.57543945 12.14794922 C1.37007568 11.28314941 1.16471191 10.41834961 0.953125 9.52734375 C0.67710449 8.39413696 0.67710449 8.39413696 0.39550781 7.23803711 C-0.03773818 4.78645313 -0.06675942 2.48459952 0 0 Z " fill="#F5F5F4" transform="translate(163,34)"/>
<path d="M0 0 C0.66 0.33 1.32 0.66 2 1 C2.061875 2.27875 2.12375 3.5575 2.1875 4.875 C2.63364528 10.45181601 5.30463992 14.05858242 8.50390625 18.51953125 C10.37049794 21.61427204 10.27612738 23.77017115 9.4921875 27.26171875 C9.28851563 28.06222656 9.08484375 28.86273438 8.875 29.6875 C7.79936456 34.80055581 8.10403035 39.11261158 10 44 C10.66 44.66 11.32 45.32 12 46 C12.14517744 48.9093558 12.18630796 51.719946 12.125 54.625 C12.11597656 55.42679688 12.10695312 56.22859375 12.09765625 57.0546875 C12.07406223 59.03658523 12.03819065 61.01832981 12 63 C11.34 63 10.68 63 10 63 C8.29073188 60.99294997 6.69810977 58.9847099 5.125 56.875 C4.69058594 56.30523437 4.25617188 55.73546875 3.80859375 55.1484375 C-4.82822888 43.73641961 -4.82822888 43.73641961 -5.3828125 37.96875 C-4.71812308 34.55034726 -2.26334637 33.01569126 0.43359375 31.03125 C0.95050781 30.6909375 1.46742187 30.350625 2 30 C-1.42346555 33.14958831 -4.44262737 33.56179109 -9 34 C-9.33 32.68 -9.66 31.36 -10 30 C-10.65226562 30.28875 -11.30453125 30.5775 -11.9765625 30.875 C-21.56874382 34.9495549 -21.56874382 34.9495549 -26 34 C-28.62768525 31.76407873 -29.87310722 29.9811427 -30.31982422 26.52709961 C-30.39383517 23.57100021 -30.3483216 20.64282038 -30.25 17.6875 C-30.23195312 16.66076172 -30.21390625 15.63402344 -30.1953125 14.57617188 C-30.14831063 12.04982115 -30.08262272 9.52539531 -30 7 C-29.34 7 -28.68 7 -28 7 C-27.95875 6.443125 -27.9175 5.88625 -27.875 5.3125 C-23.48596853 -6.28708316 -9.27877819 -2.20693162 0 0 Z " fill="#F4F4F2" transform="translate(76,29)"/>
<path d="M0 0 C3.875 3.75 3.875 3.75 5 6 C5.99 6.66 6.98 7.32 8 8 C8.495 9.485 8.495 9.485 9 11 C11.475 11.495 11.475 11.495 14 12 C14 12.66 14 13.32 14 14 C12.34997172 15.35386936 10.6825613 16.68678142 9 18 C7.54852097 20.90295805 7.62760975 22.77261779 8 26 C9.81310142 28.92937654 11.87295899 31.43647949 15 33 C20.04505838 33.38075912 22.95504076 33.08694258 27 30 C28.7041054 28.37163262 30.38025441 26.71230248 32 25 C32.433125 26.093125 32.86625 27.18625 33.3125 28.3125 C34.90831466 32.0112106 36.30673208 34.23033276 40.0625 35.9375 C42.45578707 37.24994775 43.00405747 38.51014367 44 41 C42.02 41.33 40.04 41.66 38 42 C37.731875 42.969375 37.46375 43.93875 37.1875 44.9375 C36.5996875 46.4534375 36.5996875 46.4534375 36 48 C22.68759576 52.43746808 6.41054671 47.48336949 -5.6875 41.5625 C-10.27387694 39.23966985 -13.47768846 36.7356003 -17 33 C-17.804375 32.38125 -18.60875 31.7625 -19.4375 31.125 C-22.71332179 28.40846486 -25.78849032 25.67268572 -28 22 C-27.875 18.5625 -27.875 18.5625 -27 16 C-25.375 15.1875 -25.375 15.1875 -23 15 C-21.47653831 16.19932091 -19.95705971 17.40908652 -18.52734375 18.71875 C-16.53561765 20.38955859 -14.45739212 21.20496137 -12 22 C-11.67 24.31 -11.34 26.62 -11 29 C-10.67 27.02 -10.34 25.04 -10 23 C-5.20731707 25.45778612 -5.20731707 25.45778612 -4.1875 28.125 C-4 30 -4 30 -4 31 C-3.34 30.01 -2.68 29.02 -2 28 C-4.64 25.69 -7.28 23.38 -10 21 C-8.68065422 12.36428215 -6.39795254 6.09950578 0 0 Z " fill="#FBFBF9" transform="translate(125,92)"/>
<path d="M0 0 C22.44 0 44.88 0 68 0 C65 9 65 9 63 12 C58.125 11.125 58.125 11.125 57 10 C36.78872446 8.50073277 19.47010889 16.95006375 2 26 C1.23558594 26.35320313 0.47117187 26.70640625 -0.31640625 27.0703125 C-2.53520847 28.29554435 -3.07680239 29.69200598 -4 32 C-4.99 32 -5.98 32 -7 32 C-7 31.01 -7 30.02 -7 29 C-12.94 28.01 -12.94 28.01 -19 27 C-19 26.01 -19 25.02 -19 24 C-17.390625 22.578125 -17.390625 22.578125 -15.25 21.25 C-14.55390625 20.80140625 -13.8578125 20.3528125 -13.140625 19.890625 C-10.57316714 18.8224126 -9.56128746 19.03418119 -7 20 C-5.6520257 20.63654342 -4.31403276 21.29605388 -3 22 C-3 22.66 -3 23.32 -3 24 C-2.50072998 23.75765625 -2.00145996 23.5153125 -1.48706055 23.265625 C0.77659084 22.17103128 3.04444564 21.08543911 5.3125 20 C6.09818359 19.6184375 6.88386719 19.236875 7.69335938 18.84375 C8.45068359 18.4828125 9.20800781 18.121875 9.98828125 17.75 C11.03302612 17.24726562 11.03302612 17.24726562 12.09887695 16.734375 C14 16 14 16 17 16 C17.33 15.34 17.66 14.68 18 14 C18.66 14.33 19.32 14.66 20 15 C20 14.01 20 13.02 20 12 C18.48212891 11.87238281 18.48212891 11.87238281 16.93359375 11.7421875 C12.78282337 11.14608291 9.5566322 9.36349112 6.0625 7.125 C5.47404297 6.77308594 4.88558594 6.42117187 4.27929688 6.05859375 C2.59765625 5.0078125 2.59765625 5.0078125 0 3 C0 2.01 0 1.02 0 0 Z " fill="#F6F6F4" transform="translate(86,0)"/>
<path d="M0 0 C10.07017347 -0.0872416 17.99421928 0.87899598 27.08203125 5.33447266 C33.84773087 8.59409491 40.59390408 9.88270105 48 11 C46.625 12.5 46.625 12.5 45 14 C44.34 14 43.68 14 43 14 C43 14.66 43 15.32 43 16 C27.79804606 26.20265365 6.77938851 26.88040988 -11 26 C-8.89181039 20.43940815 -6.30746297 14.93327979 -1.6875 11.0625 C1.01575991 7.75851567 0.31575351 4.10479569 0 0 Z " fill="#F9F9F7" transform="translate(98,131)"/>
<path d="M0 0 C11.22 0 22.44 0 34 0 C34.495 1.485 34.495 1.485 35 3 C37.23114874 4.5010608 39.4052618 5.82922363 41.75 7.125 C42.37132812 7.48464844 42.99265625 7.84429688 43.6328125 8.21484375 C47.05758264 10.14398642 50.08745155 11.5071981 54 12 C54 12.99 54 13.98 54 15 C52.741875 15.37125 51.48375 15.7425 50.1875 16.125 C45.21986717 17.75463549 40.88319506 20.15812939 36.3828125 22.79296875 C34 24 34 24 31 24 C30.67 23.34 30.34 22.68 30 22 C27.7554808 20.52166241 26.51772281 19.95091358 23.81640625 20.20703125 C23.07261719 20.40683594 22.32882813 20.60664063 21.5625 20.8125 C20.77746094 21.00972656 19.99242188 21.20695312 19.18359375 21.41015625 C18.46300781 21.60480469 17.74242188 21.79945312 17 22 C14.125 22.75 14.125 22.75 12 23 C11.01 22.34 10.02 21.68 9 21 C9 20.34 9 19.68 9 19 C8.34 19 7.68 19 7 19 C5.83061634 16.02189259 4.66495037 13.04234409 3.5 10.0625 C2.99919922 8.78729492 2.99919922 8.78729492 2.48828125 7.48632812 C2.17246094 6.67744141 1.85664062 5.86855469 1.53125 5.03515625 C1.23798828 4.2862915 0.94472656 3.53742676 0.64257812 2.76586914 C0 1 0 1 0 0 Z " fill="#DC2A50" transform="translate(52,0)"/>
<path d="M0 0 C0.66 0 1.32 0 2 0 C2.268125 0.969375 2.53625 1.93875 2.8125 2.9375 C3.204375 3.948125 3.59625 4.95875 4 6 C4.99 6.33 5.98 6.66 7 7 C5.0625 7.5625 5.0625 7.5625 3 8 C2.67 7.67 2.34 7.34 2 7 C1.67 8.98 1.34 10.96 1 13 C1.66 13.33 2.32 13.66 3 14 C3 16.31 3 18.62 3 21 C2.67 21 2.34 21 2 21 C1.62655558 27.97096259 2.85415179 32.70830358 6 39 C6.66 38.34 7.32 37.68 8 37 C8.33 37.99 8.66 38.98 9 40 C9.804375 40.04125 10.60875 40.0825 11.4375 40.125 C16.39363741 41.34229691 19.89811347 44.05445481 24 47 C24.99 47.66 25.98 48.32 27 49 C27 49.66 27 50.32 27 51 C30.153368 51.70074844 32.72724974 52 36 52 C39.33537489 53.11179163 40.63707344 54.47411298 43 57 C42.505 54.03 42.505 54.03 42 51 C43.56073255 53.34109882 44.86373867 55.56333403 46.125 58.0625 C46.47820312 58.75472656 46.83140625 59.44695312 47.1953125 60.16015625 C48 62 48 62 48 64 C48.66 64 49.32 64 50 64 C50.66 66.31 51.32 68.62 52 71 C53.65 71 55.3 71 57 71 C56.505 72.485 56.505 72.485 56 74 C54.0625 74.75 54.0625 74.75 52 75 C49.20496166 73.60248083 49.07256502 72.01589791 48 69.125 C46.85696556 66.06202491 45.82887727 63.7433159 44 61 C43.01 61.33 42.02 61.66 41 62 C40.67 63.98 40.34 65.96 40 68 C40.598125 68.226875 41.19625 68.45375 41.8125 68.6875 C44.56351888 70.33811133 45.52484637 72.1972081 47 75 C44.03 75.495 44.03 75.495 41 76 C41.99 75.67 42.98 75.34 44 75 C41.45395403 71.47618313 41.45395403 71.47618313 38 69 C37.505 70.98 37.505 70.98 37 73 C36.71125 72.05125 36.4225 71.1025 36.125 70.125 C35.23174891 66.94788422 35.23174891 66.94788422 33 65 C32.375 62.375 32.375 62.375 32 60 C31.278125 60.763125 30.55625 61.52625 29.8125 62.3125 C26.13063984 65.83072193 23.69364786 67.71772536 18.625 68.5625 C13.7856986 67.81157392 11.25639582 65.55075928 8 62 C6.54852097 59.09704195 6.62760975 57.22738221 7 54 C8.44870916 51.61071101 9.99304891 50.00695109 12 48 C12.66 48 13.32 48 14 48 C14 47.34 14 46.68 14 46 C12.35 45.67 10.7 45.34 9 45 C9 44.34 9 43.68 9 43 C7.35 43 5.7 43 4 43 C4 42.01 4 41.02 4 40 C2.06102121 37.32601524 2.06102121 37.32601524 0 35 C-1.32 35.99 -2.64 36.98 -4 38 C-2.125 34.125 -2.125 34.125 -1 33 C-0.92442151 30.90099649 -0.9169246 28.79948171 -0.9375 26.69921875 C-0.94523437 25.41208984 -0.95296875 24.12496094 -0.9609375 22.79882812 C-0.9795765 20.74485954 -0.99996586 18.69091323 -1.02050781 16.63696289 C-1.03863729 14.65774838 -1.05064221 12.67848077 -1.0625 10.69921875 C-1.07410156 9.51158936 -1.08570312 8.32395996 -1.09765625 7.1003418 C-1.01626905 4.51650167 -0.76835677 2.44913719 0 0 Z " fill="#252525" transform="translate(125,58)"/>
<path d="M0 0 C1.875 0.3125 1.875 0.3125 4 1 C6.31204505 4.46806757 6.16231924 5.86325344 6.1875 9.9375 C6.31745449 14.21951195 6.31745449 14.21951195 8.58203125 17.60546875 C10.71645679 18.78680006 10.71645679 18.78680006 14 20 C14.495 20.99 14.495 20.99 15 22 C15.66 21.34 16.32 20.68 17 20 C18.60781022 25.82831203 18 31.98554164 18 38 C17.34008057 37.97389648 16.68016113 37.94779297 16.00024414 37.92089844 C8.84565028 37.76242453 2.39657694 38.65160892 -4.5625 40.25 C-5.52607422 40.45496094 -6.48964844 40.65992188 -7.48242188 40.87109375 C-13.22429596 42.14878657 -18.4862469 43.84790744 -23.8605957 46.24609375 C-26.81535045 47.28732194 -29.05202313 46.93094006 -32 46 C-31.22095672 35.44191344 -31.22095672 35.44191344 -29 31 C-27.87241911 34.38274266 -28.18249738 35.76778223 -28.9375 39.1875 C-29.13214844 40.08855469 -29.32679688 40.98960937 -29.52734375 41.91796875 C-29.68332031 42.60503906 -29.83929688 43.29210937 -30 44 C-29.29875 43.80664062 -28.5975 43.61328125 -27.875 43.4140625 C-22.26507866 41.874383 -16.64989553 40.38582343 -11 39 C-11.01160156 37.94039062 -11.02320313 36.88078125 -11.03515625 35.7890625 C-11.04453476 34.40104342 -11.05363489 33.01302245 -11.0625 31.625 C-11.07087891 30.92632812 -11.07925781 30.22765625 -11.08789062 29.5078125 C-11.11328125 24.2265625 -11.11328125 24.2265625 -10 22 C-10.66 21.34 -11.32 20.68 -12 20 C-4.08 18.515 -4.08 18.515 4 17 C3.505 15.02 3.505 15.02 3 13 C3.00809237 10.43876629 3.12704392 7.89752335 3.2578125 5.33984375 C3.20824909 2.91126038 3.20824909 2.91126038 1.4921875 1.19140625 C0.99976563 0.79824219 0.50734375 0.40507813 0 0 Z " fill="#0F0F0F" transform="translate(201,127)"/>
<path d="M0 0 C2.11384707 1.90246236 3.47509615 3.71984265 5.0625 6.125 C6.69145453 9.05064042 6.69145453 9.05064042 9 10 C9.12375 9.030625 9.2475 8.06125 9.375 7.0625 C9.58125 6.051875 9.7875 5.04125 10 4 C10.66 3.67 11.32 3.34 12 3 C11.34 5.31 10.68 7.62 10 10 C10.66 10 11.32 10 12 10 C12.33 9.01 12.66 8.02 13 7 C13 7.66 13 8.32 13 9 C13.59167969 8.90460937 14.18335937 8.80921875 14.79296875 8.7109375 C19.44380225 8.05845515 22.72314374 7.65462721 27 10 C27.66 8.35 28.32 6.7 29 5 C29.33 5 29.66 5 30 5 C30 7.64 30 10.28 30 13 C30.66 13 31.32 13 32 13 C32.66 16.3 33.32 19.6 34 23 C33.34 23 32.68 23 32 23 C32.495 24.485 32.495 24.485 33 26 C33.66 25.67 34.32 25.34 35 25 C35.495 27.97 35.495 27.97 36 31 C36.66 31 37.32 31 38 31 C38.18175781 30.30132812 38.36351562 29.60265625 38.55078125 28.8828125 C38.80214844 27.97273438 39.05351563 27.06265625 39.3125 26.125 C39.55613281 25.22007813 39.79976562 24.31515625 40.05078125 23.3828125 C41 21 41 21 44 19 C43.69320312 19.82757813 43.38640625 20.65515625 43.0703125 21.5078125 C41.91530952 25.27632587 41.33583986 28.97674804 40.875 32.875 C40.78863281 33.56335938 40.70226562 34.25171875 40.61328125 34.9609375 C40.40340434 36.63995275 40.20092913 38.31989048 40 40 C38 37 38 37 37 35 C36.34 36.32 35.68 37.64 35 39 C35 38.34 35 37.68 35 37 C34.34 37 33.68 37 33 37 C33 39.64 33 42.28 33 45 C32.34 45 31.68 45 31 45 C30.67 44.34 30.34 43.68 30 43 C29.01 43.66 28.02 44.32 27 45 C24.4375 44.8125 24.4375 44.8125 22 44 C19.49326002 40.23989004 19.87222493 38.58947828 20.4453125 34.27734375 C21.24206255 31.00617981 23.03771 28.69814875 25 26 C25.78215588 23.2717496 25.78215588 23.2717496 26 21 C25.071875 21.33 24.14375 21.66 23.1875 22 C20 23 20 23 17 23 C15.68 19.7 14.36 16.4 13 13 C10.93268472 12.76465568 10.93268472 12.76465568 9.7109375 14.28515625 C5.40727675 20.01078679 5.60288479 23.87271776 6.5 30.9375 C6.665 31.948125 6.83 32.95875 7 34 C6.34 33.67 5.68 33.34 5 33 C3.07035694 26.20336835 2.52487579 20.60033124 5 14 C5 9.85024768 4.7098253 9.10380031 2.5 5.875 C0 2.19444444 0 2.19444444 0 0 Z " fill="#515151" transform="translate(80,40)"/>
<path d="M0 0 C0.70125 0.61875 1.4025 1.2375 2.125 1.875 C5.05777181 4.0427009 7.51182406 5.02655555 11 6 C10.34 6.66 9.68 7.32 9 8 C24.85062179 20.11348332 41.70297302 22.37837308 61 22 C61.2165625 21.071875 61.2165625 21.071875 61.4375 20.125 C62 18 62 18 63 16 C64.485 16.495 64.485 16.495 66 17 C65.5359375 18.2375 65.5359375 18.2375 65.0625 19.5 C63.88122417 23.39126155 63.41775832 26.96166953 63 31 C62.34 31 61.68 31 61 31 C60.505 27.535 60.505 27.535 60 24 C59.37351562 24.0721875 58.74703125 24.144375 58.1015625 24.21875 C57.28429687 24.3115625 56.46703125 24.404375 55.625 24.5 C54.40683594 24.63921875 54.40683594 24.63921875 53.1640625 24.78125 C51 25 51 25 49 25 C49 25.66 49 26.32 49 27 C43.58461538 30.07692308 43.58461538 30.07692308 40.625 29.6875 C40.08875 29.460625 39.5525 29.23375 39 29 C39.66 29 40.32 29 41 29 C41 28.34 41 27.68 41 27 C42.32 26.34 43.64 25.68 45 25 C44.175 24.86464844 43.35 24.72929687 42.5 24.58984375 C35.47243581 23.28001873 29.59280918 21.52713845 23.1875 18.4375 C14.97940566 14.51797274 7.00682204 13.54620579 -2 13 C-1.84660156 13.58007812 -1.69320312 14.16015625 -1.53515625 14.7578125 C-1.02634441 17.30607677 -0.75808802 19.40687338 -1 22 C-2.91418499 24.60715403 -5.31815234 26.23204769 -8 28 C-10.86678805 29.99082365 -10.86678805 29.99082365 -13 32 C-13 33.32 -13 34.64 -13 36 C-15.475 36.495 -15.475 36.495 -18 37 C-17.45157737 27.05274817 -16.16016231 18.07193682 -10 10 C-10.66 9.67 -11.32 9.34 -12 9 C-10.67708855 5.03126566 -9.08850262 4.70094963 -5.4375 2.8125 C-4.42558594 2.28269531 -3.41367188 1.75289063 -2.37109375 1.20703125 C-1.58863281 0.80871094 -0.80617188 0.41039063 0 0 Z " fill="#454545" transform="translate(100,118)"/>
<path d="M0 0 C0.33 0 0.66 0 1 0 C1.020625 1.258125 1.04125 2.51625 1.0625 3.8125 C1.62563146 9.37342317 4.30338965 13.05683909 7.50390625 17.51953125 C9.37049794 20.61427204 9.27612738 22.77017115 8.4921875 26.26171875 C8.28851563 27.06222656 8.08484375 27.86273438 7.875 28.6875 C6.79936456 33.80055581 7.10403035 38.11261158 9 43 C9.66 43.66 10.32 44.32 11 45 C11.14517744 47.9093558 11.18630796 50.719946 11.125 53.625 C11.11597656 54.42679688 11.10695313 55.22859375 11.09765625 56.0546875 C11.07406223 58.03658523 11.03819065 60.01832981 11 62 C10.34 62 9.68 62 9 62 C7.29073188 59.99294997 5.69810977 57.9847099 4.125 55.875 C3.69058594 55.30523437 3.25617188 54.73546875 2.80859375 54.1484375 C-5.82822888 42.73641961 -5.82822888 42.73641961 -6.3828125 36.96875 C-5.71812308 33.55034726 -3.26334637 32.01569126 -0.56640625 30.03125 C0.20896484 29.52078125 0.20896484 29.52078125 1 29 C-2.42346555 32.14958831 -5.44262737 32.56179109 -10 33 C-12 27.25 -12 27.25 -12 25 C-11.0925 24.71125 -10.185 24.4225 -9.25 24.125 C-5.44341772 22.9054261 -5.44341772 22.9054261 -2 21 C-0.79387082 16.65463048 -0.68176067 12.16828172 -0.4375 7.6875 C-0.39431641 6.94693359 -0.35113281 6.20636719 -0.30664062 5.44335938 C-0.20129568 3.62908536 -0.10021684 1.8145645 0 0 Z " fill="#F0F0EF" transform="translate(77,30)"/>
<path d="M0 0 C3.04311974 0.49347888 6.01697727 1.22662374 9 2 C8.95875 2.9075 8.9175 3.815 8.875 4.75 C8.77190338 7.88756305 8.77190338 7.88756305 10 10 C11.35729199 12.71458398 11.13587738 15.01069757 11 18 C9.35 18.66 7.7 19.32 6 20 C4 17 4 17 4 13 C3.34 13 2.68 13 2 13 C2.02094727 13.97348389 2.04189453 14.94696777 2.06347656 15.94995117 C2.13608186 19.57463776 2.18187335 23.19926055 2.21972656 26.82446289 C2.23979558 28.39097923 2.26705751 29.95742109 2.30175781 31.52368164 C2.35048754 33.78029794 2.3730147 36.03592083 2.390625 38.29296875 C2.41127014 38.98899704 2.43191528 39.68502533 2.45318604 40.40214539 C2.45483757 44.01165934 2.05921457 45.90704531 0.10058594 48.98168945 C-2 51 -2 51 -4 51 C-5.01405257 49.67732273 -6.01268258 48.34275169 -7 47 C-7.99 46.34 -8.98 45.68 -10 45 C-9.690625 44.030625 -9.38125 43.06125 -9.0625 42.0625 C-7.82032903 37.76335509 -7.38315147 33.44657366 -7 29 C-6.01 29.99 -5.02 30.98 -4 32 C-3.79503906 30.96359375 -3.59007813 29.9271875 -3.37890625 28.859375 C-3.10682231 27.48957311 -2.83468404 26.11978201 -2.5625 24.75 C-2.42779297 24.06808594 -2.29308594 23.38617188 -2.15429688 22.68359375 C-1.61832714 19.99067262 -1.08377846 17.31364562 -0.375 14.66015625 C0.16137773 12.28556736 -0.50336625 10.37280571 -1 8 C-1.0777346 5.66796188 -1.08967728 3.33160941 -1 1 C-0.67 0.67 -0.34 0.34 0 0 Z " fill="#F6F6F4" transform="translate(123,45)"/>
<path d="M0 0 C0.66 0 1.32 0 2 0 C2 0.99 2 1.98 2 3 C4.64 3 7.28 3 10 3 C9.67 3.99 9.34 4.98 9 6 C8.77281504 8.56634861 8.58391816 11.11678107 8.4375 13.6875 C8.39431641 14.38939453 8.35113281 15.09128906 8.30664062 15.81445312 C8.2008264 17.54275206 8.09993419 19.2713511 8 21 C8.66 21.33 9.32 21.66 10 22 C6.87569239 22.66993993 3.75044614 23.33539364 0.625 24 C-0.26445312 24.19078125 -1.15390625 24.3815625 -2.0703125 24.578125 C-3.34648437 24.84882813 -3.34648437 24.84882813 -4.6484375 25.125 C-5.43395996 25.29257813 -6.21948242 25.46015625 -7.02880859 25.6328125 C-9 26 -9 26 -11 26 C-11.47258223 20.44715885 -10.37544066 16.98177798 -7.875 12.015625 C-6.80089699 9.90757783 -6.80089699 9.90757783 -7 7 C-5.5459375 6.38125 -5.5459375 6.38125 -4.0625 5.75 C-0.87739901 4.35100832 -0.87739901 4.35100832 -0.125 1.8125 C-0.08375 1.214375 -0.0425 0.61625 0 0 Z " fill="#040404" transform="translate(182,145)"/>
<path d="M0 0 C0.515625 0.515625 1.03125 1.03125 1.5625 1.5625 C4.9710271 3.57265701 7.23106857 2.79727396 11 2 C9.68 3.65 8.36 5.3 7 7 C7.69867188 7.13277344 8.39734375 7.26554687 9.1171875 7.40234375 C10.02726562 7.57894531 10.93734375 7.75554688 11.875 7.9375 C12.77992187 8.11152344 13.68484375 8.28554688 14.6171875 8.46484375 C17 9 17 9 19 10 C19.72693904 11.97888961 20.39816251 13.97954558 21 16 C22.65 15.34 24.3 14.68 26 14 C24.71034824 15.37562854 23.37310707 16.70766393 22 18 C21.34 18 20.68 18 20 18 C19.505 19.485 19.505 19.485 19 21 C18 20 18 20 17.90234375 17.93359375 C17.91394531 17.10988281 17.92554688 16.28617188 17.9375 15.4375 C17.94652344 14.61121094 17.95554688 13.78492188 17.96484375 12.93359375 C17.97644531 12.29550781 17.98804688 11.65742188 18 11 C5.37478521 8.00643919 5.37478521 8.00643919 -6.9140625 10.015625 C-9.59582586 12.1254483 -10.91720629 13.75161887 -12 17 C-12.66 17 -13.32 17 -14 17 C-13.83628906 17.57218262 -13.67257813 18.14436523 -13.50390625 18.73388672 C-12.99872374 21.00573946 -12.90011402 22.93624671 -12.9375 25.2578125 C-12.94523437 26.04800781 -12.95296875 26.83820312 -12.9609375 27.65234375 C-12.97382812 28.46832031 -12.98671875 29.28429687 -13 30.125 C-13.37069529 35.72837362 -13.37069529 35.72837362 -12 41 C-12.99 41 -13.98 41 -15 41 C-14.34 42.32 -13.68 43.64 -13 45 C-18.42131405 42.61790746 -21.89003219 38.37129487 -24.375 33.0625 C-24.58125 32.381875 -24.7875 31.70125 -25 31 C-25.66 31.33 -26.32 31.66 -27 32 C-25.80100302 28.9168649 -24.52299523 25.93720508 -23 23 C-22.34 23 -21.68 23 -21 23 C-20.67 22.01 -20.34 21.02 -20 20 C-18.38161281 18.28641357 -16.70328319 16.6292274 -15 15 C-13.21354892 13.18612533 -11.43041843 11.36904686 -9.6484375 9.55078125 C-6.99121724 7.05097925 -5.50822561 6.01993042 -1.8125 5.875 C-0.884375 5.91625 0.04375 5.9575 1 6 C0.67 4.02 0.34 2.04 0 0 Z " fill="#201F1F" transform="translate(60,19)"/>
<path d="M0 0 C4.62 0 9.24 0 14 0 C13.34 0.33 12.68 0.66 12 1 C11.814375 2.2065625 11.814375 2.2065625 11.625 3.4375 C11 6 11 6 8.9375 7.3125 C8.298125 7.539375 7.65875 7.76625 7 8 C7.66 8.66 8.32 9.32 9 10 C8.01 10.33 7.02 10.66 6 11 C4.33289654 12.49985609 4.33289654 12.49985609 3 14 C3 13.34 3 12.68 3 12 C2.34 11.67 1.68 11.34 1 11 C1 11.66 1 12.32 1 13 C0.06929687 13.53109375 -0.86140625 14.0621875 -1.8203125 14.609375 C-5.95944102 17.72134878 -6.62107568 20.38889612 -7.875 25.25 C-8.08640625 25.99507812 -8.2978125 26.74015625 -8.515625 27.5078125 C-9.030426 29.33301605 -9.51800511 31.16586015 -10 33 C-9.01 33.33 -8.02 33.66 -7 34 C-9.56766024 36.99560362 -12.33991513 38.5646726 -16 40 C-19.375 39.6875 -19.375 39.6875 -22 39 C-20.70941816 36.31227451 -19.27994951 33.85215372 -17.625 31.375 C-15.133914 27.4656851 -13.47590909 23.44866924 -11.89453125 19.1015625 C-11 17 -11 17 -9 15 C-8.67 14.34 -8.34 13.68 -8 13 C-5.9375 11.875 -5.9375 11.875 -4 11 C-5.32 10.67 -6.64 10.34 -8 10 C-7.67 9.01 -7.34 8.02 -7 7 C-7 7.66 -7 8.32 -7 9 C-4.36 9 -1.72 9 1 9 C1 8.34 1 7.68 1 7 C1.99 7 2.98 7 4 7 C3.67 5.68 3.34 4.36 3 3 C1.68 3 0.36 3 -1 3 C-0.67 2.01 -0.34 1.02 0 0 Z " fill="#515150" transform="translate(170,144)"/>
<path d="M0 0 C1.875 0.3125 1.875 0.3125 4 1 C6.31204505 4.46806757 6.16231924 5.86325344 6.1875 9.9375 C6.31745449 14.21951195 6.31745449 14.21951195 8.58203125 17.60546875 C10.71645679 18.78680006 10.71645679 18.78680006 14 20 C14.33 20.66 14.66 21.32 15 22 C15.66 21.34 16.32 20.68 17 20 C18.60787418 25.8285439 18 31.98544327 18 38 C14.7 37.67 11.4 37.34 8 37 C7.67 35.68 7.34 34.36 7 33 C6.505 31.906875 6.01 30.81375 5.5 29.6875 C4.0153904 26.03783472 3.45783083 22.89156204 3 19 C2.67 18.34 2.34 17.68 2 17 C2.66 17 3.32 17 4 17 C3.83242187 16.44441406 3.66484375 15.88882813 3.4921875 15.31640625 C2.7799575 11.96440315 3.08365329 8.74619304 3.2578125 5.33984375 C3.20824909 2.91126038 3.20824909 2.91126038 1.4921875 1.19140625 C0.99976563 0.79824219 0.50734375 0.40507813 0 0 Z " fill="#0B0B0B" transform="translate(201,127)"/>
<path d="M0 0 C3.89582156 0.41740945 6.02931093 2.60895758 9 5 C11.6794645 6.24016669 11.6794645 6.24016669 14 7 C14.33 9.31 14.66 11.62 15 14 C15.33 12.02 15.66 10.04 16 8 C20.74381055 10.43272336 20.74381055 10.43272336 21.875 12.9375 C22.01564317 15.25811225 21.89140353 16.8457748 21 19 C20.01 19.33 19.02 19.66 18 20 C18.33 21.65 18.66 23.3 19 25 C14.51884905 23.59163827 12.20839787 21.36881776 9 18 C8.195625 17.38125 7.39125 16.7625 6.5625 16.125 C3.2834894 13.40582048 0.22248894 10.66987497 -2 7 C-1.90566038 1.90566038 -1.90566038 1.90566038 0 0 Z " fill="#F9F9F8" transform="translate(99,107)"/>
<path d="M0 0 C0 0.66 0 1.32 0 2 C0.763125 2.144375 1.52625 2.28875 2.3125 2.4375 C7.71171171 3.56756757 7.71171171 3.56756757 10 7 C10.41467826 10.80121737 10.52577308 13.10847173 8.5625 16.4375 C4.76334259 18.7540594 1.33604885 18.78837252 -3 18 C-5.87029869 16.20606332 -7.49131638 15.01736724 -9 12 C-9.4020782 9.05142655 -9.51676809 6.91364599 -8.0234375 4.2734375 C-5.30523274 0.7547798 -4.58733055 0 0 0 Z " fill="#F9F9F7" transform="translate(143,106)"/>
<path d="M0 0 C1.92868588 3.41511862 2.77821044 6.7902631 3.65625 10.6015625 C3.80404907 11.23806732 3.95184814 11.87457214 4.10412598 12.53036499 C4.41569753 13.87630555 4.72485166 15.22280773 5.03173828 16.56982422 C5.4939693 18.59853159 5.96306104 20.62554756 6.43359375 22.65234375 C11.30637085 43.72798715 11.30637085 43.72798715 11 52 C11.61875 52.268125 12.2375 52.53625 12.875 52.8125 C15 54 15 54 17 57 C16.72604615 59.00899487 16.38290462 61.00889599 16 63 C15.96237049 65.33302989 15.95334266 67.66713319 16 70 C15.34 70 14.68 70 14 70 C13.690625 69.195625 13.38125 68.39125 13.0625 67.5625 C12.23664655 65.10919595 12.23664655 65.10919595 11 64 C11.33 65.98 11.66 67.96 12 70 C5.565 66.535 5.565 66.535 -1 63 C-0.01 64.32 0.98 65.64 2 67 C2.66 67 3.32 67 4 67 C4 69.31 4 71.62 4 74 C2.515 74.495 2.515 74.495 1 75 C0.34 73.35 -0.32 71.7 -1 70 C-1.66 70 -2.32 70 -3 70 C-3.33 67.36 -3.66 64.72 -4 62 C-4.66 62 -5.32 62 -6 62 C-7.49524178 59.7272325 -8.78399715 57.4320057 -10 55 C-7.60169065 56.06591527 -5.81757848 57.1563613 -3.8125 58.875 C-0.15021495 61.64205981 3.77151452 63.26807131 8 65 C8.33 64.01 8.66 63.02 9 62 C12.0625 60.8125 12.0625 60.8125 15 60 C14.34 58.35 13.68 56.7 13 55 C12.67 55.66 12.34 56.32 12 57 C11.34 57 10.68 57 10 57 C10 55.02 10 53.04 10 51 C8.515 50.505 8.515 50.505 7 50 C7.99 49.505 7.99 49.505 9 49 C6.86820332 36.62870834 4.52680263 24.35289878 1.57543945 12.14794922 C1.37007568 11.28314941 1.16471191 10.41834961 0.953125 9.52734375 C0.67710449 8.39413696 0.67710449 8.39413696 0.39550781 7.23803711 C-0.03773818 4.78645313 -0.06675942 2.48459952 0 0 Z " fill="#A7A7A6" transform="translate(163,34)"/>
<path d="M0 0 C2.475 0.495 2.475 0.495 5 1 C2.96742772 3.03257228 1.65048451 3.70855693 -0.95703125 4.8046875 C-1.74013672 5.14113281 -2.52324219 5.47757813 -3.33007812 5.82421875 C-4.97228526 6.51934655 -6.61550209 7.21209425 -8.25976562 7.90234375 C-12.73287852 9.82933587 -16.25558455 11.81902992 -20 15 C-20.66 15 -21.32 15 -22 15 C-22.66 16.32 -23.32 17.64 -24 19 C-24.99 19 -25.98 19 -27 19 C-27 18.01 -27 17.02 -27 16 C-32.94 15.01 -32.94 15.01 -39 14 C-39 13.01 -39 12.02 -39 11 C-37.390625 9.578125 -37.390625 9.578125 -35.25 8.25 C-34.55390625 7.80140625 -33.8578125 7.3528125 -33.140625 6.890625 C-30.57316714 5.8224126 -29.56128746 6.03418119 -27 7 C-25.6520257 7.63654342 -24.31403276 8.29605388 -23 9 C-23 9.66 -23 10.32 -23 11 C-22.50072998 10.75765625 -22.00145996 10.5153125 -21.48706055 10.265625 C-19.22340916 9.17103128 -16.95555436 8.08543911 -14.6875 7 C-13.90181641 6.6184375 -13.11613281 6.236875 -12.30664062 5.84375 C-11.54931641 5.4828125 -10.79199219 5.121875 -10.01171875 4.75 C-9.31522217 4.41484375 -8.61872559 4.0796875 -7.90112305 3.734375 C-6 3 -6 3 -3 3 C-2.67 2.34 -2.34 1.68 -2 1 C-1.34 1.33 -0.68 1.66 0 2 C0 1.34 0 0.68 0 0 Z " fill="#EDEDEC" transform="translate(106,13)"/>
<path d="M0 0 C0.33 0 0.66 0 1 0 C1 12.21 1 24.42 1 37 C-3.29 37 -7.58 37 -12 37 C-10.65074548 32.95223644 -9.60360789 30.07913783 -7.625 26.5 C-3.38068816 18.19973334 -1.17054241 9.21216875 0 0 Z " fill="#F8F8F6" transform="translate(219,183)"/>
<path d="M0 0 C0.33 0.99 0.66 1.98 1 3 C1.66 3 2.32 3 3 3 C3 10.26 3 17.52 3 25 C1.02 24.01 -0.96 23.02 -3 22 C-3 21.34 -3 20.68 -3 20 C-5.31 19.67 -7.62 19.34 -10 19 C-10 14.68751059 -9.27144032 13.08764534 -7.25 9.375 C-6.48429688 7.93253906 -6.48429688 7.93253906 -5.703125 6.4609375 C-3.9485356 3.9256363 -2.84839775 3.05266873 0 2 C0 1.34 0 0.68 0 0 Z " fill="#D62E51" transform="translate(217,72)"/>
<path d="M0 0 C2.11384707 1.90246236 3.47509615 3.71984265 5.0625 6.125 C6.69145453 9.05064042 6.69145453 9.05064042 9 10 C9.12375 9.030625 9.2475 8.06125 9.375 7.0625 C9.58125 6.051875 9.7875 5.04125 10 4 C10.66 3.67 11.32 3.34 12 3 C11.34 5.31 10.68 7.62 10 10 C10.66 10 11.32 10 12 10 C12.33 9.01 12.66 8.02 13 7 C13 7.66 13 8.32 13 9 C13.60328125 8.90460937 14.2065625 8.80921875 14.828125 8.7109375 C16.02695313 8.54464844 16.02695313 8.54464844 17.25 8.375 C18.03890625 8.25898437 18.8278125 8.14296875 19.640625 8.0234375 C22.32152459 7.99680605 23.72694089 8.63407916 26 10 C25.67 11.32 25.34 12.64 25 14 C24.67 13.67 24.34 13.34 24 13 C23.01 15.64 22.02 18.28 21 21 C20.01 20.67 19.02 20.34 18 20 C16.8125 17.4375 16.8125 17.4375 16 15 C15.34 15 14.68 15 14 15 C13.67 14.34 13.34 13.68 13 13 C10.93268472 12.76465568 10.93268472 12.76465568 9.7109375 14.28515625 C5.40727675 20.01078679 5.60288479 23.87271776 6.5 30.9375 C6.665 31.948125 6.83 32.95875 7 34 C6.34 33.67 5.68 33.34 5 33 C3.07035694 26.20336835 2.52487579 20.60033124 5 14 C5 9.85024768 4.7098253 9.10380031 2.5 5.875 C0 2.19444444 0 2.19444444 0 0 Z " fill="#616161" transform="translate(80,40)"/>
<path d="M0 0 C0.66 0 1.32 0 2 0 C2.268125 0.969375 2.53625 1.93875 2.8125 2.9375 C3.204375 3.948125 3.59625 4.95875 4 6 C4.99 6.33 5.98 6.66 7 7 C5.0625 7.5625 5.0625 7.5625 3 8 C2.67 7.67 2.34 7.34 2 7 C1.67 8.98 1.34 10.96 1 13 C1.66 13.33 2.32 13.66 3 14 C3 16.31 3 18.62 3 21 C2.67 21 2.34 21 2 21 C1.62655558 27.97096259 2.85415179 32.70830358 6 39 C6.66 38.34 7.32 37.68 8 37 C8.33 37.99 8.66 38.98 9 40 C9.804375 40.04125 10.60875 40.0825 11.4375 40.125 C17.0929892 41.51406752 21.89325435 44.89325435 26 49 C25.01 49 24.02 49 23 49 C22.67 49.66 22.34 50.32 22 51 C20.68 50.67 19.36 50.34 18 50 C18 49.34 18 48.68 18 48 C16.68 48 15.36 48 14 48 C14 47.34 14 46.68 14 46 C12.35 45.67 10.7 45.34 9 45 C9 44.34 9 43.68 9 43 C7.35 43 5.7 43 4 43 C4 42.01 4 41.02 4 40 C2.06102121 37.32601524 2.06102121 37.32601524 0 35 C-1.32 35.99 -2.64 36.98 -4 38 C-2.125 34.125 -2.125 34.125 -1 33 C-0.92442151 30.90099649 -0.9169246 28.79948171 -0.9375 26.69921875 C-0.94523437 25.41208984 -0.95296875 24.12496094 -0.9609375 22.79882812 C-0.9795765 20.74485954 -0.99996586 18.69091323 -1.02050781 16.63696289 C-1.03863729 14.65774838 -1.05064221 12.67848077 -1.0625 10.69921875 C-1.07410156 9.51158936 -1.08570312 8.32395996 -1.09765625 7.1003418 C-1.01626905 4.51650167 -0.76835677 2.44913719 0 0 Z " fill="#242424" transform="translate(125,58)"/>
<path d="M0 0 C4.875 0.875 4.875 0.875 6 2 C5.46158903 8.1917261 3.71258545 14.04364935 2 20 C-2.53457586 18.73453697 -5.45020257 17.07009508 -9 14 C-9.99 13.34 -10.98 12.68 -12 12 C-11.46890625 11.63648437 -10.9378125 11.27296875 -10.390625 10.8984375 C-5.84855246 7.66594062 -2.76940714 4.8464625 0 0 Z " fill="#FCFCFA" transform="translate(112,93)"/>
<path d="M0 0 C0.66 0.33 1.32 0.66 2 1 C2.13933712 4.48342812 2.24189024 7.33627679 1.0390625 10.63671875 C-0.30932446 15.00123442 -0.54593037 19.14258383 -0.75 23.6875 C-0.79310303 24.57147461 -0.83620605 25.45544922 -0.88061523 26.36621094 C-1.12158395 32.78811563 -0.72763022 38.77482003 1 45 C-2.62691783 43.77682805 -4.6263709 42.76862835 -6.75 39.5625 C-7.15734375 38.96566406 -7.5646875 38.36882812 -7.984375 37.75390625 C-10.24692405 33.84665809 -10.08319586 30.40938084 -10 26 C-8.29115995 27.62339805 -6.62553283 29.29319053 -5 31 C-5 31.66 -5 32.32 -5 33 C-4.34 33 -3.68 33 -3 33 C-3.33 27.06 -3.66 21.12 -4 15 C-3.34 15 -2.68 15 -2 15 C-2.04125 13.824375 -2.0825 12.64875 -2.125 11.4375 C-2.13983635 7.27590326 -1.31170778 3.93512333 0 0 Z " fill="#5A5A59" transform="translate(91,59)"/>
<path d="M0 0 C0.99 0.33 1.98 0.66 3 1 C2.54625 1.94875 2.0925 2.8975 1.625 3.875 C-0.34585006 8.42383401 -1.16796155 13.13502224 -2 18 C-0.68 18.33 0.64 18.66 2 19 C-1.32566148 21.21710766 -4.12077116 22.09946473 -8 23 C-8.99 22.67 -9.98 22.34 -11 22 C-10.28189249 15.24978944 -9.38115761 8.38115761 -4.4375 3.4375 C-2 2 -2 2 0 2 C0 1.34 0 0.68 0 0 Z " fill="#030303" transform="translate(171,155)"/>
<path d="M0 0 C0.66 0 1.32 0 2 0 C2.12117188 0.62648438 2.24234375 1.25296875 2.3671875 1.8984375 C2.53476563 2.71570313 2.70234375 3.53296875 2.875 4.375 C3.03742188 5.18710938 3.19984375 5.99921875 3.3671875 6.8359375 C3.86658932 9.18673923 3.86658932 9.18673923 6 11 C6.14517744 13.9093558 6.18630796 16.719946 6.125 19.625 C6.11597656 20.42679688 6.10695313 21.22859375 6.09765625 22.0546875 C6.07406223 24.03658523 6.03819065 26.01832981 6 28 C4 28 4 28 2.23828125 26.48828125 C-0.85401446 22.99455161 -2.8642071 20.46238507 -3.3046875 15.71875 C-2.90919196 10.15629662 -1.88201159 5.25230849 0 0 Z " fill="#E8E8E6" transform="translate(82,64)"/>
<path d="M0 0 C0.33 0 0.66 0 1 0 C1 2.64 1 5.28 1 8 C1.66 8 2.32 8 3 8 C3.66 11.3 4.32 14.6 5 18 C4.34 18 3.68 18 3 18 C3 20.31 3 22.62 3 25 C0.87491756 21.81237635 0.4979837 19.73487777 0 16 C-0.99 16.33 -1.98 16.66 -3 17 C-3.99 17 -4.98 17 -6 17 C-7.68236471 17.62599617 -9.3523962 18.28752268 -11 19 C-15 12.25 -15 12.25 -15 10 C-14.34 10 -13.68 10 -13 10 C-12.34 11.65 -11.68 13.3 -11 15 C-10.34 15 -9.68 15 -9 15 C-8.01 12.36 -7.02 9.72 -6 7 C-5.34 7.33 -4.68 7.66 -4 8 C-4 7.01 -4 6.02 -4 5 C-3.34 5 -2.68 5 -2 5 C-1.34 3.35 -0.68 1.7 0 0 Z " fill="#141414" transform="translate(109,45)"/>
<path d="M0 0 C3.04311974 0.49347888 6.01697727 1.22662374 9 2 C8.95875 2.9075 8.9175 3.815 8.875 4.75 C8.77190338 7.88756305 8.77190338 7.88756305 10 10 C11.35729199 12.71458398 11.13587738 15.01069757 11 18 C9.35 18.66 7.7 19.32 6 20 C4 17 4 17 4 13 C3.01 13 2.02 13 1 13 C-0.99544337 8.88439805 -1.26247139 5.54950416 -1 1 C-0.67 0.67 -0.34 0.34 0 0 Z " fill="#B4B4B3" transform="translate(123,45)"/>
<path d="M0 0 C2.62655933 0.35494045 4.57968261 0.72461964 6.8125 2.1875 C8.51995571 4.79361661 8.20267097 6.9599355 8 10 C8.66 10 9.32 10 10 10 C10.33 9.01 10.66 8.02 11 7 C11.99 8.32 12.98 9.64 14 11 C13.34 12.32 12.68 13.64 12 15 C9.3125 15.3125 9.3125 15.3125 6 15 C3.0728873 12.53856432 1.11917214 10.17875822 -1 7 C-0.625 3.3125 -0.625 3.3125 0 0 Z " fill="#ECECEB" transform="translate(165,81)"/>
<path d="M0 0 C1.12894876 0.93274109 2.25300876 1.87140122 3.375 2.8125 C4.00148438 3.33457031 4.62796875 3.85664062 5.2734375 4.39453125 C7 6 7 6 9 9 C8.34 9 7.68 9 7 9 C7 9.66 7 10.32 7 11 C4.37440156 10.6919856 1.74960194 10.37879818 -0.875 10.0625 C-1.99455078 9.93198242 -1.99455078 9.93198242 -3.13671875 9.79882812 C-8.7734375 9.11328125 -8.7734375 9.11328125 -11 8 C-10 5 -10 5 -7.71484375 3.61328125 C-6.79832031 3.18402344 -5.88179688 2.75476563 -4.9375 2.3125 C-4.01839844 1.87550781 -3.09929687 1.43851562 -2.15234375 0.98828125 C-1.08693359 0.49908203 -1.08693359 0.49908203 0 0 Z " fill="#F3F3F2" transform="translate(99,119)"/>
<path d="M0 0 C0.52207031 0.18175781 1.04414062 0.36351562 1.58203125 0.55078125 C9.90112243 3.39180188 18.23770475 6.02641164 27 7 C25.625 8.5 25.625 8.5 24 10 C23.34 10 22.68 10 22 10 C22 10.66 22 11.32 22 12 C17.94087374 13.35304209 16.22850409 12.15216503 12.3125 10.5625 C11.13300781 10.08941406 9.95351562 9.61632812 8.73828125 9.12890625 C7.83464844 8.75636719 6.93101563 8.38382813 6 8 C6 7.34 6 6.68 6 6 C5.38125 5.7525 4.7625 5.505 4.125 5.25 C1.62519797 3.77952822 1.16683978 2.58596924 0 0 Z " fill="#E2E2E1" transform="translate(119,135)"/>
<path d="M0 0 C2.39830935 1.06591527 4.18242152 2.1563613 6.1875 3.875 C9.84978505 6.64205981 13.77151452 8.26807131 18 10 C18.33 9.01 18.66 8.02 19 7 C20.65 7 22.3 7 24 7 C24.66 9.64 25.32 12.28 26 15 C25.34 15 24.68 15 24 15 C23.5359375 13.7934375 23.5359375 13.7934375 23.0625 12.5625 C22.23664655 10.10919595 22.23664655 10.10919595 21 9 C21.33 10.98 21.66 12.96 22 15 C17.71 12.69 13.42 10.38 9 8 C9.99 9.32 10.98 10.64 12 12 C12.66 12 13.32 12 14 12 C14 14.31 14 16.62 14 19 C13.01 19.33 12.02 19.66 11 20 C10.34 18.35 9.68 16.7 9 15 C8.34 15 7.68 15 7 15 C6.67 12.36 6.34 9.72 6 7 C5.34 7 4.68 7 4 7 C2.50475822 4.7272325 1.21600285 2.4320057 0 0 Z " fill="#4D4D4D" transform="translate(153,89)"/>
<path d="M0 0 C2.90179685 2.90179685 3.187466 5.55155792 3.3125 9.5 C3.26486375 13.67837973 3.26486375 13.67837973 1.25 16.125 C-1.38156251 17.14838542 -2.36695131 16.78548932 -5 16 C-5.51257038 9.59287031 -5.13597047 6.01329753 -1 1 C-0.67 0.67 -0.34 0.34 0 0 Z " fill="#F4F4F3" transform="translate(107,66)"/>
<path d="M0 0 C0.66 0 1.32 0 2 0 C2.33 3.3 2.66 6.6 3 10 C2.01 10.495 2.01 10.495 1 11 C1 10.01 1 9.02 1 8 C-3.28881772 10.14440886 -5.81726916 12.90397167 -8.765625 16.57421875 C-9.37664062 17.27998047 -9.37664062 17.27998047 -10 18 C-10.33 18 -10.66 18 -11 18 C-10.88512252 16.41590006 -10.75765492 14.83271037 -10.625 13.25 C-10.55539063 12.36828125 -10.48578125 11.4865625 -10.4140625 10.578125 C-9.98827045 7.92696697 -9.55420379 6.19182586 -8 4 C-5.32209537 3.16113831 -2.8262059 3.18233586 0 3 C0 2.01 0 1.02 0 0 Z " fill="#0A0A0A" transform="translate(96,130)"/>
<path d="M0 0 C2 3 2 3 1.5 6.375 C-0.39510392 10.95483448 -1.86707803 12.32575637 -6 15 C-8.875 15.3125 -8.875 15.3125 -11 15 C-11.33 13.68 -11.66 12.36 -12 11 C-10.71372289 9.82739389 -9.42080217 8.6620717 -8.125 7.5 C-7.40570313 6.8503125 -6.68640625 6.200625 -5.9453125 5.53125 C-4 4 -4 4 -2 4 C-1.34 2.68 -0.68 1.36 0 0 Z " fill="#F3F3F2" transform="translate(78,48)"/>
<path d="M0 0 C2 0 2 0 4.625 2.375 C7 5 7 5 7 7 C7.66 7 8.32 7 9 7 C8.67 5.68 8.34 4.36 8 3 C12.05860537 4.35286846 12.71215756 6.43365737 15 10 C15.90214204 11.09545819 16.81867633 12.17924087 17.75 13.25 C20 16 20 16 20 18 C19.34 18 18.68 18 18 18 C17.67 18.99 17.34 19.98 17 21 C16.51080078 20.13375 16.51080078 20.13375 16.01171875 19.25 C15.57472656 18.5075 15.13773438 17.765 14.6875 17 C14.04361328 15.88625 14.04361328 15.88625 13.38671875 14.75 C12.70029297 13.88375 12.70029297 13.88375 12 13 C11.01 13 10.02 13 9 13 C7.24609375 11.171875 7.24609375 11.171875 5.4375 8.75 C4.83808594 7.96109375 4.23867187 7.1721875 3.62109375 6.359375 C2.19806938 4.28827447 1.04989811 2.27739092 0 0 Z " fill="#4F4F4F" transform="translate(182,21)"/>
<path d="M0 0 C0.515625 0.515625 1.03125 1.03125 1.5625 1.5625 C4.9710271 3.57265701 7.23106857 2.79727396 11 2 C9.68 3.65 8.36 5.3 7 7 C7.69867188 7.13277344 8.39734375 7.26554687 9.1171875 7.40234375 C10.02726562 7.57894531 10.93734375 7.75554688 11.875 7.9375 C12.77992187 8.11152344 13.68484375 8.28554688 14.6171875 8.46484375 C17 9 17 9 19 10 C19.72693904 11.97888961 20.39816251 13.97954558 21 16 C22.65 15.34 24.3 14.68 26 14 C24.71034824 15.37562854 23.37310707 16.70766393 22 18 C21.34 18 20.68 18 20 18 C19.67 18.99 19.34 19.98 19 21 C18 20 18 20 17.90234375 17.93359375 C17.91394531 17.10988281 17.92554687 16.28617188 17.9375 15.4375 C17.94652344 14.61121094 17.95554687 13.78492188 17.96484375 12.93359375 C17.97644531 12.29550781 17.98804687 11.65742188 18 11 C9.92437827 9.56205146 2.2056037 8.70400628 -6 9 C-5.67 8.01 -5.34 7.02 -5 6 C-3.02 6 -1.04 6 1 6 C0.67 4.02 0.34 2.04 0 0 Z " fill="#3F1C21" transform="translate(60,19)"/>
<path d="M0 0 C0 2.64 0 5.28 0 8 C0.99 7.67 1.98 7.34 3 7 C2.34 8.98 1.68 10.96 1 13 C2.65 13 4.3 13 6 13 C4.68 14.32 3.36 15.64 2 17 C-0.93944735 15.04036843 -1.4768311 14.45895159 -2.9375 11.5 C-4.58854919 8.42015825 -5.79083375 7.43859177 -9 6 C-9.61328125 3.94921875 -9.61328125 3.94921875 -10 2 C-8.52112267 1.66538533 -7.04188942 1.33234333 -5.5625 1 C-4.32693359 0.7215625 -4.32693359 0.7215625 -3.06640625 0.4375 C-1 0 -1 0 0 0 Z " fill="#EDEDEC" transform="translate(161,141)"/>
<path d="M0 0 C4.875 4.625 4.875 4.625 6 8 C6.66 8.33 7.32 8.66 8 9 C7.72285156 9.56847656 7.44570312 10.13695313 7.16015625 10.72265625 C3.79248648 17.57910964 3.79248648 17.57910964 3 25 C5.38192919 27.736799 8.06203271 29.8849207 11 32 C10.01 32.495 10.01 32.495 9 33 C8.34786708 35.02463255 8.34786708 35.02463255 8 37 C7.34 36.67 6.68 36.34 6 36 C6.33 34.35 6.66 32.7 7 31 C5.68 30.01 4.36 29.02 3 28 C2.67 30.64 2.34 33.28 2 36 C-0.4294516 32.3558226 -0.16179575 30.28758728 0 26 C-0.969375 25.71125 -1.93875 25.4225 -2.9375 25.125 C-6 24 -6 24 -7 22 C-1.25 23.875 -1.25 23.875 1 25 C1.04898438 24.39671875 1.09796875 23.7934375 1.1484375 23.171875 C1.22320312 22.37265625 1.29796875 21.5734375 1.375 20.75 C1.44460937 19.96109375 1.51421875 19.1721875 1.5859375 18.359375 C2.01732257 15.90129401 2.83811759 14.19058462 4 12 C4.58350505 9.45709375 4.58350505 9.45709375 4 7 C1.59141286 5.1375562 1.59141286 5.1375562 -1 4 C-0.67 2.68 -0.34 1.36 0 0 Z " fill="#8F8E8D" transform="translate(113,88)"/>
<path d="M0 0 C0.33 1.32 0.66 2.64 1 4 C1.99 4 2.98 4 4 4 C4 5.32 4 6.64 4 8 C4.99 8.33 5.98 8.66 7 9 C4.43233976 11.99560362 1.66008487 13.5646726 -2 15 C-5.375 14.6875 -5.375 14.6875 -8 14 C-6.63665522 11.17185223 -5.12363871 8.52248944 -3.4375 5.875 C-2.20368855 3.93458437 -1.02847987 2.05695975 0 0 Z " fill="#D0D1CF" transform="translate(156,169)"/>
<path d="M0 0 C3.33727786 1.17255709 5.77437487 2.18868404 8 5 C8 5.66 8 6.32 8 7 C6.02 7.33 4.04 7.66 2 8 C1.34 9.98 0.68 11.96 0 14 C-4.455 14.495 -4.455 14.495 -9 15 C-8.60167969 14.50371094 -8.20335937 14.00742188 -7.79296875 13.49609375 C-4.40115025 9.14697367 -1.93684016 5.1649071 0 0 Z " fill="#D7D7D6" transform="translate(161,126)"/>
<path d="M0 0 C0.66 0.66 1.32 1.32 2 2 C1.360625 2.886875 0.72125 3.77375 0.0625 4.6875 C-1.80829757 7.69211428 -2.59423966 9.5510371 -3 13 C-2.01 13 -1.02 13 0 13 C0.66 11.68 1.32 10.36 2 9 C3.32 9 4.64 9 6 9 C5.95117188 12.02734375 5.95117188 12.02734375 5.90234375 15.0546875 C5.87350758 17.08185404 5.87350758 17.08185404 7 19 C6.01 19 5.02 19 4 19 C4.66 20.32 5.32 21.64 6 23 C1.49224177 20.99546543 -1.33446951 18.12620819 -4 14 C-4.73519266 11.55251992 -4.89470519 9.57972292 -5 7 C-4.01 6.67 -3.02 6.34 -2 6 C-0.77479736 2.99152582 -0.77479736 2.99152582 0 0 Z " fill="#3C3C3C" transform="translate(41,41)"/>
<path d="M0 0 C0.99 0.33 1.98 0.66 3 1 C2.690625 1.825 2.38125 2.65 2.0625 3.5 C0.88122417 7.39126155 0.41775832 10.96166953 0 15 C-0.66 15 -1.32 15 -2 15 C-2.33 12.69 -2.66 10.38 -3 8 C-3.62648437 8.0721875 -4.25296875 8.144375 -4.8984375 8.21875 C-6.12433594 8.35796875 -6.12433594 8.35796875 -7.375 8.5 C-8.18710938 8.5928125 -8.99921875 8.685625 -9.8359375 8.78125 C-12 9 -12 9 -14 9 C-14 9.66 -14 10.32 -14 11 C-19.41538462 14.07692308 -19.41538462 14.07692308 -22.375 13.6875 C-22.91125 13.460625 -23.4475 13.23375 -24 13 C-23.34 13 -22.68 13 -22 13 C-22 12.34 -22 11.68 -22 11 C-20.68 10.34 -19.36 9.68 -18 9 C-20.97 8.505 -20.97 8.505 -24 8 C-24 7.67 -24 7.34 -24 7 C-16.74 6.67 -9.48 6.34 -2 6 C-1.67 4.68 -1.34 3.36 -1 2 C-0.67 1.34 -0.34 0.68 0 0 Z " fill="#555555" transform="translate(163,134)"/>
<path d="M0 0 C0.66 0 1.32 0 2 0 C2.268125 0.969375 2.53625 1.93875 2.8125 2.9375 C3.204375 3.948125 3.59625 4.95875 4 6 C4.99 6.33 5.98 6.66 7 7 C5.0625 7.5625 5.0625 7.5625 3 8 C2.67 7.67 2.34 7.34 2 7 C1.67 8.98 1.34 10.96 1 13 C1.66 13.33 2.32 13.66 3 14 C3 16.31 3 18.62 3 21 C2.67 21 2.34 21 2 21 C1.92345464 25.51617599 1.89771304 29.59085217 3 34 C-1.75 36.875 -1.75 36.875 -4 38 C-2.125 34.125 -2.125 34.125 -1 33 C-0.92442151 30.90099649 -0.9169246 28.79948171 -0.9375 26.69921875 C-0.94523437 25.41208984 -0.95296875 24.12496094 -0.9609375 22.79882812 C-0.9795765 20.74485954 -0.99996586 18.69091323 -1.02050781 16.63696289 C-1.03863729 14.65774838 -1.05064221 12.67848077 -1.0625 10.69921875 C-1.07410156 9.51158936 -1.08570312 8.32395996 -1.09765625 7.1003418 C-1.01626905 4.51650167 -0.76835677 2.44913719 0 0 Z " fill="#898988" transform="translate(125,58)"/>
<path d="M0 0 C4.13782924 4.27575688 5.05944297 8.31953056 6 14 C4.68 14 3.36 14 2 14 C-0.125 11.5625 -0.125 11.5625 -2 9 C-2.66 8.67 -3.32 8.34 -4 8 C-4 5.69 -4 3.38 -4 1 C-2.68 0.67 -1.36 0.34 0 0 Z " fill="#EBEBEA" transform="translate(169,118)"/>
<path d="M0 0 C5.043972 0.48837248 8.537608 2.24943427 12.6875 5 C17.12880103 7.91060353 17.12880103 7.91060353 22 10 C23.6875 12.0625 23.6875 12.0625 25 14 C24.34 14.66 23.68 15.32 23 16 C19.39716095 14.31867511 16.77102266 12.79859503 14 10 C9.28875596 6.47329732 4.76315592 3.47773229 -1 2 C-0.67 1.34 -0.34 0.68 0 0 Z " fill="#999998" transform="translate(135,96)"/>
<path d="M0 0 C0.66 0.33 1.32 0.66 2 1 C2.25290192 7.32254788 2.25290192 7.32254788 1.02734375 10.60546875 C-0.34553205 15.14170094 -0.42251831 19.47250709 -0.5625 24.1875 C-0.62247754 25.97278884 -0.68612108 27.75795931 -0.75390625 29.54296875 C-0.77783447 30.32696045 -0.8017627 31.11095215 -0.82641602 31.91870117 C-1 34 -1 34 -2 37 C-2 36.34 -2 35.68 -2 35 C-2.99 34.67 -3.98 34.34 -5 34 C-4.01 33.505 -4.01 33.505 -3 33 C-3.33 27.06 -3.66 21.12 -4 15 C-3.34 15 -2.68 15 -2 15 C-2.04125 13.824375 -2.0825 12.64875 -2.125 11.4375 C-2.13983635 7.27590326 -1.31170778 3.93512333 0 0 Z " fill="#434343" transform="translate(91,59)"/>
<path d="M0 0 C2.97 0.495 2.97 0.495 6 1 C6 1.99 6 2.98 6 4 C4.741875 4.37125 3.48375 4.7425 2.1875 5.125 C-2.78013283 6.75463549 -7.11680494 9.15812939 -11.6171875 11.79296875 C-14 13 -14 13 -17 13 C-17.33 12.34 -17.66 11.68 -18 11 C-20.85839454 8.91117322 -22.13064181 9.01306418 -25.75 9.375 C-26.8225 9.58125 -27.895 9.7875 -29 10 C-28.01 8.68 -27.02 7.36 -26 6 C-22.26512223 6.4979837 -20.18762365 6.87491756 -17 9 C-12.42369643 9.63230447 -9.26235381 7.9756867 -5.1875 6 C-3.44533203 5.1646875 -3.44533203 5.1646875 -1.66796875 4.3125 C-0.34732422 3.6628125 -0.34732422 3.6628125 1 3 C0.67 2.01 0.34 1.02 0 0 Z " fill="#673E42" transform="translate(100,11)"/>
<path d="M0 0 C1.12758089 3.38274266 0.81750262 4.76778223 0.0625 8.1875 C-0.13214844 9.08855469 -0.32679688 9.98960937 -0.52734375 10.91796875 C-0.68332031 11.60503906 -0.83929688 12.29210937 -1 13 C-0.33355469 12.79503906 0.33289063 12.59007812 1.01953125 12.37890625 C7.69421053 10.42784615 14.06116975 9.38921872 21 9 C17.85492941 11.09671373 15.23174751 11.97717438 11.625 13.0625 C10.50351563 13.40410156 9.38203125 13.74570313 8.2265625 14.09765625 C0.64976959 16.21658986 0.64976959 16.21658986 -3 15 C-2.22095672 4.44191344 -2.22095672 4.44191344 0 0 Z " fill="#4D4D4D" transform="translate(172,158)"/>
<path d="M0 0 C2.71906545 1.35953272 3.34525747 3.28667865 4.4609375 6.01953125 C5.33255258 9.22176925 4.80685493 11.83464603 4 15 C3.34 15.66 2.68 16.32 2 17 C2.020625 16.05125 2.04125 15.1025 2.0625 14.125 C2.22551826 11.09333717 2.22551826 11.09333717 1 9 C0.29875 9.721875 -0.4025 10.44375 -1.125 11.1875 C-3.92770745 13.99823813 -6.92262792 16.49516226 -10 19 C-10.66 17.68 -11.32 16.36 -12 15 C-11.0925 14.71125 -10.185 14.4225 -9.25 14.125 C-7.64125 13.568125 -7.64125 13.568125 -6 13 C-5.29875 12.7628125 -4.5975 12.525625 -3.875 12.28125 C-1.73911092 11.10393646 -1.73911092 11.10393646 -1.171875 8.3984375 C-1.03265625 7.40070312 -0.8934375 6.40296875 -0.75 5.375 C-0.60046875 4.37210938 -0.4509375 3.36921875 -0.296875 2.3359375 C-0.19890625 1.56507812 -0.1009375 0.79421875 0 0 Z " fill="#353535" transform="translate(77,40)"/>
<path d="M0 0 C2.05078125 0.03255208 4.1015625 0.06510417 6.15234375 0.09765625 C4.40234375 7.72265625 4.40234375 7.72265625 2.15234375 11.09765625 C-0.6240983 8.76902744 -1.75110571 7.47643144 -2.66015625 3.91015625 C-2.72203125 2.98203125 -2.78390625 2.05390625 -2.84765625 1.09765625 C-1.84765625 0.09765625 -1.84765625 0.09765625 0 0 Z " fill="#F5F5F4" transform="translate(97.84765625,49.90234375)"/>
<path d="M0 0 C0.66 0.33 1.32 0.66 2 1 C1.34 1.66 0.68 2.32 0 3 C-2.67905902 7.01858853 -2.32182663 9.25305716 -2 14 C-1.01 14.33 -0.02 14.66 1 15 C1 15.66 1 16.32 1 17 C2.79133978 17.05391993 4.58313899 17.09275571 6.375 17.125 C7.37273437 17.14820312 8.37046875 17.17140625 9.3984375 17.1953125 C12.16262173 17.27216848 12.16262173 17.27216848 14 15 C13.6875 16.9375 13.6875 16.9375 13 19 C9.29397865 20.23534045 6.90246386 20.45528745 3 20 C-0.27269513 17.89797249 -3.2442035 15.511593 -5 12 C-5.41081422 8.98736238 -5.57293414 6.88544367 -3.8828125 4.2734375 C-2.64587643 2.79889789 -1.32734487 1.39371212 0 0 Z " fill="#50504F" transform="translate(137,106)"/>
<path d="M0 0 C0.99 0 1.98 0 3 0 C5.09350689 3.4019487 5.17942163 6.05272412 5 10 C3.35 10.66 1.7 11.32 0 12 C-2 9 -2 9 -1.6875 5.4375 C-1 2 -1 2 0 0 Z " fill="#D4D4D3" transform="translate(129,53)"/>
<path d="M0 0 C2.475 0.495 2.475 0.495 5 1 C1.91480224 4.08519776 -1.97853048 5.38120486 -5.9375 7.125 C-6.76185547 7.49753906 -7.58621094 7.87007812 -8.43554688 8.25390625 C-9.22896484 8.60582031 -10.02238281 8.95773438 -10.83984375 9.3203125 C-11.56550537 9.64273926 -12.29116699 9.96516602 -13.03881836 10.29736328 C-15 11 -15 11 -18 11 C-17 8 -17 8 -14.6015625 6.61328125 C-13.61929688 6.18402344 -12.63703125 5.75476563 -11.625 5.3125 C-10.15933594 4.65701172 -10.15933594 4.65701172 -8.6640625 3.98828125 C-6 3 -6 3 -3 3 C-2.67 2.34 -2.34 1.68 -2 1 C-1.34 1.33 -0.68 1.66 0 2 C0 1.34 0 0.68 0 0 Z " fill="#DEDEDD" transform="translate(106,13)"/>
<path d="M0 0 C4.62 0 9.24 0 14 0 C13.01 0.495 13.01 0.495 12 1 C11.34444881 3.52733235 11.34444881 3.52733235 11 6 C9.02 6.33 7.04 6.66 5 7 C4.34 5.68 3.68 4.36 3 3 C1.68 3 0.36 3 -1 3 C-0.67 2.01 -0.34 1.02 0 0 Z " fill="#373737" transform="translate(170,144)"/>
<path d="M0 0 C0.33 0.99 0.66 1.98 1 3 C0.34 3 -0.32 3 -1 3 C-3.10687759 7.86202522 -4.52085957 12.92161787 -6 18 C-5.01 18.33 -4.02 18.66 -3 19 C-6.62326739 20.2077558 -7.64146369 19.54311128 -11 18 C-9.63784946 14.37628852 -8.02523511 11.08615026 -6.0625 7.75 C-5.30646484 6.44289063 -5.30646484 6.44289063 -4.53515625 5.109375 C-3 3 -3 3 0 2 C0 1.34 0 0.68 0 0 Z " fill="#4A3739" transform="translate(217,72)"/>
<path d="M0 0 C2.475 0.99 2.475 0.99 5 2 C3.6415798 5.04332765 2.11536976 7.12309151 -0.2578125 9.453125 C-0.88300781 10.071875 -1.50820312 10.690625 -2.15234375 11.328125 C-2.80332031 11.96234375 -3.45429688 12.5965625 -4.125 13.25 C-4.78371094 13.8996875 -5.44242188 14.549375 -6.12109375 15.21875 C-7.74296643 16.81711727 -9.3693281 18.41061897 -11 20 C-11 16.10619553 -9.86441562 15.53764833 -7.1875 12.8125 C-3.37448703 8.69579573 -1.55872953 5.35813276 0 0 Z " fill="#2A2A2A" transform="translate(147,182)"/>
<path d="M0 0 C0.99 0 1.98 0 3 0 C2.50854701 4.54594017 2.50854701 4.54594017 0.25 6.5625 C-0.4925 7.036875 -1.235 7.51125 -2 8 C-4.4510635 9.9258356 -6.79555489 11.79555489 -9 14 C-9.33 12.02 -9.66 10.04 -10 8 C-9.01 8 -8.02 8 -7 8 C-5.19986075 6.22929393 -5.19986075 6.22929393 -3.5 4 C-1.71875 1.75 -1.71875 1.75 0 0 Z " fill="#414141" transform="translate(94,138)"/>
<path d="M0 0 C1.875 0.3125 1.875 0.3125 4 1 C6.7053346 5.0580019 6.42431991 8.50159813 6.65625 13.28515625 C6.73671388 16.14516856 6.73671388 16.14516856 9 18 C8 19 8 19 5.4375 19.0625 C4.633125 19.041875 3.82875 19.02125 3 19 C2.67 18.34 2.34 17.68 2 17 C2.66 17 3.32 17 4 17 C3.83242187 16.44441406 3.66484375 15.88882813 3.4921875 15.31640625 C2.7799575 11.96440315 3.08365329 8.74619304 3.2578125 5.33984375 C3.20824909 2.91126038 3.20824909 2.91126038 1.4921875 1.19140625 C0.99976563 0.79824219 0.50734375 0.40507813 0 0 Z " fill="#3E3E3E" transform="translate(201,127)"/>
<path d="M0 0 C0.33 0 0.66 0 1 0 C1 1.65 1 3.3 1 5 C1.66 5 2.32 5 3 5 C3 6.65 3 8.3 3 10 C2.360625 10.12375 1.72125 10.2475 1.0625 10.375 C0.381875 10.58125 -0.29875 10.7875 -1 11 C-1.33 11.66 -1.66 12.32 -2 13 C-2.99 13 -3.98 13 -5 13 C-5.74813575 8.21193122 -3.69491132 5.43289751 -1.19140625 1.57421875 C-0.79824219 1.05472656 -0.40507813 0.53523438 0 0 Z " fill="#0B0B0B" transform="translate(43,41)"/>
<path d="M0 0 C1.56073255 2.34109882 2.86373867 4.56333403 4.125 7.0625 C4.47820312 7.75472656 4.83140625 8.44695312 5.1953125 9.16015625 C6 11 6 11 6 13 C6.66 13 7.32 13 8 13 C8.66 15.31 9.32 17.62 10 20 C11.65 20 13.3 20 15 20 C14.67 20.99 14.34 21.98 14 23 C12.0625 23.75 12.0625 23.75 10 24 C6.68743308 22.34371654 6.30571982 18.80050119 5.09765625 15.4453125 C4.17614733 12.97503832 4.17614733 12.97503832 2.4140625 11.50390625 C0.41915885 9.38225458 0.49836033 7.67474911 0.3125 4.8125 C0.24675781 3.91144531 0.18101562 3.01039062 0.11328125 2.08203125 C0.07589844 1.39496094 0.03851563 0.70789063 0 0 Z " fill="#515150" transform="translate(167,109)"/>
<path d="M0 0 C0.99 0.33 1.98 0.66 3 1 C2.34 3.97 1.68 6.94 1 10 C-0.65 10.33 -2.3 10.66 -4 11 C-3.91291331 9.54054712 -3.80473093 8.08234132 -3.6875 6.625 C-3.62949219 5.81289062 -3.57148438 5.00078125 -3.51171875 4.1640625 C-3 2 -3 2 0 0 Z " fill="#3B3B3B" transform="translate(160,163)"/>
<path d="M0 0 C1.97194115 1.97194115 2.832365 3.50904533 4 6 C4.83333333 8.16666667 4.83333333 8.16666667 7 9 C7.40729228 11.32156597 7.74438677 13.6568787 8 16 C6.0625 15.1875 6.0625 15.1875 4 14 C3.67 13.01 3.34 12.02 3 11 C2.01 10.67 1.02 10.34 0 10 C-0.74926071 6.33694766 -1.2380014 3.57644848 0 0 Z " fill="#A9A9A8" transform="translate(161,100)"/>
<path d="M0 0 C0.99 0.33 1.98 0.66 3 1 C4.38135626 0.83911915 5.75697471 0.62506914 7.125 0.375 C12.18954395 -0.28089995 16.44781829 0.69342579 21 3 C21.33 3.66 21.66 4.32 22 5 C21.05125 4.67 20.1025 4.34 19.125 4 C14.44552744 2.6355542 9.83176241 2.82500659 5 3 C5.33 3.99 5.66 4.98 6 6 C5.2575 5.649375 4.515 5.29875 3.75 4.9375 C0.8677274 3.95490707 -0.21176345 3.9673198 -3 5 C-2.67 4.34 -2.34 3.68 -2 3 C-1.34 3 -0.68 3 0 3 C0 2.01 0 1.02 0 0 Z " fill="#6F6F6E" transform="translate(131,84)"/>
<path d="M0 0 C1.95903745 0.47627975 3.91721097 0.95611423 5.875 1.4375 C6.96554688 1.70433594 8.05609375 1.97117187 9.1796875 2.24609375 C12 3 12 3 14 4 C14.72693904 5.97888961 15.39816251 7.97954558 16 10 C17.65 9.34 19.3 8.68 21 8 C19.71034824 9.37562854 18.37310707 10.70766393 17 12 C16.34 12 15.68 12 15 12 C14.67 12.99 14.34 13.98 14 15 C13 14 13 14 12.90234375 11.93359375 C12.95117188 8.46679688 12.95117188 8.46679688 13 5 C8.71 4.34 4.42 3.68 0 3 C0 2.01 0 1.02 0 0 Z " fill="#555554" transform="translate(65,25)"/>
<path d="M0 0 C4.31659574 2.21499571 6.56022316 4.7223554 9.3125 8.6875 C10.00988281 9.68136719 10.70726562 10.67523438 11.42578125 11.69921875 C11.94527344 12.45847656 12.46476563 13.21773437 13 14 C12.67 14.66 12.34 15.32 12 16 C11.34 15.01 10.68 14.02 10 13 C9.01 13 8.02 13 7 13 C5.17578125 10.6640625 5.17578125 10.6640625 3.3125 7.625 C2.68988281 6.62726562 2.06726563 5.62953125 1.42578125 4.6015625 C0 2 0 2 0 0 Z " fill="#A2A2A1" transform="translate(204,41)"/>
<path d="M0 0 C0.66 0 1.32 0 2 0 C2.33 2.31 2.66 4.62 3 7 C2.34 7 1.68 7 1 7 C1 9.31 1 11.62 1 14 C-1.12508244 10.81237635 -1.5020163 8.73487777 -2 5 C-2.99 5.33 -3.98 5.66 -5 6 C-5.66 5.34 -6.32 4.68 -7 4 C-6.34 3.34 -5.68 2.68 -5 2 C-4.01 2 -3.02 2 -2 2 C-1.67 2.66 -1.34 3.32 -1 4 C-0.67 2.68 -0.34 1.36 0 0 Z " fill="#121212" transform="translate(111,56)"/>
<path d="M0 0 C1.32 0 2.64 0 4 0 C3.54738642 1.43931117 3.08767021 2.87638999 2.625 4.3125 C2.36976563 5.11300781 2.11453125 5.91351563 1.8515625 6.73828125 C1 9 1 9 -1 12 C-1.66 12 -2.32 12 -3 12 C-2.49202991 7.6822542 -1.80317221 3.96697886 0 0 Z " fill="#A9A8A7" transform="translate(150,0)"/>
<path d="M0 0 C4.73101266 2.42616034 4.73101266 2.42616034 5.9375 5 C6 7 6 7 4 10 C3.01 10 2.02 10 1 10 C-0.1577506 6.52674819 -0.06866652 3.63932552 0 0 Z " fill="#FBFBFA" transform="translate(115,115)"/>
<path d="M0 0 C1.42464667 2.84929335 0.44894375 4.25591885 -0.5 7.25 C-1.97671561 12.37151824 -2.44914141 16.10171719 0 21 C-1.65 21.33 -3.3 21.66 -5 22 C-4.00804829 4.00804829 -4.00804829 4.00804829 0 0 Z " fill="#989897" transform="translate(87,133)"/>
<path d="M0 0 C-0.33 1.32 -0.66 2.64 -1 4 C-3.31 4.66 -5.62 5.32 -8 6 C-8.66 5.01 -9.32 4.02 -10 3 C-7.00991906 -1.48512141 -4.87831759 -1.18661779 0 0 Z " fill="#353535" transform="translate(97,129)"/>
<path d="M0 0 C0.66 0 1.32 0 2 0 C2.268125 0.969375 2.53625 1.93875 2.8125 2.9375 C3.204375 3.948125 3.59625 4.95875 4 6 C4.99 6.33 5.98 6.66 7 7 C5.0625 7.5625 5.0625 7.5625 3 8 C2.67 7.67 2.34 7.34 2 7 C1.67 8.98 1.34 10.96 1 13 C1.66 13.33 2.32 13.66 3 14 C2.67 15.32 2.34 16.64 2 18 C1.34 18 0.68 18 0 18 C-0.1954625 15.75067773 -0.38108226 13.50049858 -0.5625 11.25 C-0.66691406 9.99703125 -0.77132812 8.7440625 -0.87890625 7.453125 C-0.97876723 4.60547636 -0.90584295 2.65713933 0 0 Z " fill="#676766" transform="translate(125,58)"/>
<path d="M0 0 C-3.32566148 2.21710766 -6.12077116 3.09946473 -10 4 C-10.99 3.67 -11.98 3.34 -13 3 C-13 2.34 -13 1.68 -13 1 C-4.738041 -2.81321185 -4.738041 -2.81321185 0 0 Z " fill="#202020" transform="translate(173,174)"/>
<path d="M0 0 C0.80824219 0.10183594 1.61648437 0.20367187 2.44921875 0.30859375 C3.06410156 0.39238281 3.67898437 0.47617188 4.3125 0.5625 C3.3225 1.2225 2.3325 1.8825 1.3125 2.5625 C1.6425 4.2125 1.9725 5.8625 2.3125 7.5625 C-2.12208973 6.1687718 -4.56128374 3.95667765 -7.6875 0.5625 C-4.59271121 -0.46909626 -3.16118607 -0.41232862 0 0 Z " fill="#C9C9C8" transform="translate(115.6875,124.4375)"/>
<path d="M0 0 C1.32 0.33 2.64 0.66 4 1 C4 1.66 4 2.32 4 3 C4.61875 3.268125 5.2375 3.53625 5.875 3.8125 C8 5 8 5 10 8 C9.9765625 10.69921875 9.9765625 10.69921875 9.625 13.6875 C9.45871094 15.17830078 9.45871094 15.17830078 9.2890625 16.69921875 C9.14597656 17.83810547 9.14597656 17.83810547 9 19 C8.87625 18.360625 8.7525 17.72125 8.625 17.0625 C8.41875 16.381875 8.2125 15.70125 8 15 C7.34 14.67 6.68 14.34 6 14 C6.37125 13.236875 6.7425 12.47375 7.125 11.6875 C7.558125 10.3571875 7.558125 10.3571875 8 9 C7.34 8.01 6.68 7.02 6 6 C5.67 6.66 5.34 7.32 5 8 C4.34 8 3.68 8 3 8 C3 6.02 3 4.04 3 2 C2.01 1.67 1.02 1.34 0 1 C0 0.67 0 0.34 0 0 Z " fill="#8B8B8A" transform="translate(170,83)"/>
<path d="M0 0 C0.33 0.66 0.66 1.32 1 2 C1.66 2 2.32 2 3 2 C5.1519437 5.22791555 5.20086443 6.28400809 5 10 C3.02 10.99 3.02 10.99 1 12 C-0.26237731 9.47524538 -0.09856404 7.68799534 -0.0625 4.875 C-0.05347656 3.96492188 -0.04445313 3.05484375 -0.03515625 2.1171875 C-0.02355469 1.41851562 -0.01195313 0.71984375 0 0 Z " fill="#E3E3E2" transform="translate(126,77)"/>
<path d="M0 0 C3.79379058 1.49041773 5.68343758 3.69062512 8 7 C8 7.66 8 8.32 8 9 C7.34 9 6.68 9 6 9 C5.67 9.99 5.34 10.98 5 12 C2.03162219 7.97832683 0.47610659 4.99911924 0 0 Z " fill="#7D7E7D" transform="translate(194,30)"/>
<path d="M0 0 C2 3 2 3 2.875 6.5625 C3.63369325 10.06861674 3.63369325 10.06861674 6.125 11.4375 C6.74375 11.623125 7.3625 11.80875 8 12 C8 12.66 8 13.32 8 14 C9.32 14 10.64 14 12 14 C12 14.66 12 15.32 12 16 C9.36 16 6.72 16 4 16 C3.896875 15.484375 3.79375 14.96875 3.6875 14.4375 C3.00382947 11.77857174 3.00382947 11.77857174 1.4375 8.5625 C0.12160279 5.30136344 -0.31240269 3.43642959 0 0 Z " fill="#969695" transform="translate(205,148)"/>
<path d="M0 0 C8.03501094 -0.63019694 8.03501094 -0.63019694 12.0625 2 C12.701875 2.66 13.34125 3.32 14 4 C13.01 4 12.02 4 11 4 C10.67 4.66 10.34 5.32 10 6 C8.68 5.67 7.36 5.34 6 5 C6 4.34 6 3.68 6 3 C4.68 3 3.36 3 2 3 C2 2.34 2 1.68 2 1 C1.34 0.67 0.68 0.34 0 0 Z " fill="#424242" transform="translate(137,103)"/>
<path d="M0 0 C5.875 3.75 5.875 3.75 7 6 C7.039992 7.99960012 7.04346799 10.00047242 7 12 C4.35247996 9.42215154 2.05567935 7.08351902 0 4 C0 2.68 0 1.36 0 0 Z " fill="#040404" transform="translate(83,90)"/>
<path d="M0 0 C0.33 0 0.66 0 1 0 C1 2.64 1 5.28 1 8 C1.66 8 2.32 8 3 8 C2.67 10.64 2.34 13.28 2 16 C-0.88250984 13.61879622 -1.61038985 11.70129644 -2 8 C-1.67 7.67 -1.34 7.34 -1 7 C-1 6.01 -1 5.02 -1 4 C-1 1 -1 1 0 0 Z " fill="#767675" transform="translate(109,45)"/>
<path d="M0 0 C2.31 0.33 4.62 0.66 7 1 C5.35 3.64 3.7 6.28 2 9 C0 7 0 7 -0.125 3.375 C-0.08375 2.26125 -0.0425 1.1475 0 0 Z " fill="#DDDDDC" transform="translate(98,131)"/>
<path d="M0 0 C0.66 0.66 1.32 1.32 2 2 C1.360625 2.886875 0.72125 3.77375 0.0625 4.6875 C-1.80829757 7.69211428 -2.59423966 9.5510371 -3 13 C-2.01 13 -1.02 13 0 13 C0.66 11.68 1.32 10.36 2 9 C1.6875 11.375 1.6875 11.375 1 14 C0.01 14.66 -0.98 15.32 -2 16 C-4.76223278 13.23776722 -4.57856291 10.79293383 -5 7 C-4.01 6.67 -3.02 6.34 -2 6 C-0.77479736 2.99152582 -0.77479736 2.99152582 0 0 Z " fill="#A7A7A6" transform="translate(41,41)"/>
<path d="M0 0 C0.99 0.33 1.98 0.66 3 1 C2.690625 1.825 2.38125 2.65 2.0625 3.5 C0.88122417 7.39126155 0.41775832 10.96166953 0 15 C-0.66 15 -1.32 15 -2 15 C-3.09644404 9.05542387 -3.41029848 5.32006564 0 0 Z " fill="#343434" transform="translate(163,134)"/>
<path d="M0 0 C1.65 0.33 3.3 0.66 5 1 C5 1.99 5 2.98 5 4 C-0.21979128 4.1799928 -4.07262981 3.97094808 -9 2 C-9 1.67 -9 1.34 -9 1 C-6.03 1.33 -3.06 1.66 0 2 C0 1.34 0 0.68 0 0 Z " fill="#606060" transform="translate(106,128)"/>
<path d="M0 0 C3.54470259 0.29539188 4.78215295 0.77626519 7.3125 3.375 C9 6 9 6 9 9 C8.01 9 7.02 9 6 9 C6 8.34 6 7.68 6 7 C4.65810043 6.32905022 3.30331311 5.68332414 1.9375 5.0625 C0 4 0 4 -1 2 C-0.67 1.34 -0.34 0.68 0 0 Z " fill="#080808" transform="translate(159,110)"/>
<path d="M0 0 C0.66 0 1.32 0 2 0 C2.33 1.98 2.66 3.96 3 6 C2.401875 6.061875 1.80375 6.12375 1.1875 6.1875 C-1.18209397 6.8529021 -1.18209397 6.8529021 -2.6875 9.125 C-4.1979489 12.43360235 -4.64657491 15.3950641 -5 19 C-5.33 19 -5.66 19 -6 19 C-6.43034975 12.75992861 -5.87215007 10.1249045 -2 5 C-1.28426473 3.35380887 -0.5974304 1.69271945 0 0 Z " fill="#7B7B7A" transform="translate(107,61)"/>
<path d="M0 0 C3.31149808 1.40684559 5.07479365 3.0193725 7.3125 5.8125 C10.53416704 9.6408446 13.81990562 12.27014244 18 15 C17.01 15.33 16.02 15.66 15 16 C9.23732334 11.06535843 4.09623802 6.41743957 0 0 Z " fill="#494949" transform="translate(164,0)"/>
<path d="M0 0 C0.33 0 0.66 0 1 0 C1 7.92 1 15.84 1 24 C0.67 24 0.34 24 0 24 C-0.06058594 23.09636719 -0.12117187 22.19273437 -0.18359375 21.26171875 C-0.26738281 20.08222656 -0.35117188 18.90273437 -0.4375 17.6875 C-0.51871094 16.51574219 -0.59992188 15.34398437 -0.68359375 14.13671875 C-0.8867371 10.97409042 -0.8867371 10.97409042 -2 8 C-2 4.23312136 -1.76462683 3.08809695 0 0 Z " fill="#BBBBBA" transform="translate(219,143)"/>
<path d="M0 0 C0.103125 0.639375 0.20625 1.27875 0.3125 1.9375 C0.539375 2.618125 0.76625 3.29875 1 4 C1.99 4.33 2.98 4.66 4 5 C2.75 6.5625 2.75 6.5625 1 8 C-1.1875 7.6875 -1.1875 7.6875 -3 7 C-3.33 5.68 -3.66 4.36 -4 3 C-3.34 3 -2.68 3 -2 3 C-2 2.34 -2 1.68 -2 1 C-1.34 0.67 -0.68 0.34 0 0 Z " fill="#8D8D8C" transform="translate(159,173)"/>
<path d="M0 0 C0.66 0 1.32 0 2 0 C2.66 1.65 3.32 3.3 4 5 C4.66 5 5.32 5 6 5 C7.63676257 3.0399719 7.63676257 3.0399719 9 1 C10 4 10 4 9 7 C6.4375 8.1875 6.4375 8.1875 4 9 C0 2.25 0 2.25 0 0 Z " fill="#464645" transform="translate(94,55)"/>
<path d="M0 0 C2.62187494 1.04874998 3.79371361 1.64931313 5.25 4.125 C5.4975 4.74375 5.745 5.3625 6 6 C4.02 6.33 2.04 6.66 0 7 C-1.04449911 3.86650268 -0.93423645 3.01031744 0 0 Z " fill="#E0E0DF" transform="translate(163,127)"/>
<path d="M0 0 C1.32 0 2.64 0 4 0 C4 0.66 4 1.32 4 2 C5.65 2.33 7.3 2.66 9 3 C9.33 3.99 9.66 4.98 10 6 C9.01 6 8.02 6 7 6 C7 5.34 7 4.68 7 4 C6.34 4 5.68 4 5 4 C4.67 4.66 4.34 5.32 4 6 C3.67 5.01 3.34 4.02 3 3 C2.01 3 1.02 3 0 3 C0 2.01 0 1.02 0 0 Z " fill="#222222" transform="translate(148,107)"/>
<path d="M0 0 C0.66 0.99 1.32 1.98 2 3 C-1.49359465 6.59634744 -5.11098131 9.83451967 -9 13 C-9.66 11.68 -10.32 10.36 -11 9 C-10.0925 8.71125 -9.185 8.4225 -8.25 8.125 C-4.44341772 6.9054261 -4.44341772 6.9054261 -1 5 C-0.18828772 2.44480079 -0.18828772 2.44480079 0 0 Z " fill="#434343" transform="translate(76,46)"/>
<path d="M0 0 C1.65 0.33 3.3 0.66 5 1 C2.90202645 3.09797355 1.24390344 3.96787972 -1.4375 5.1875 C-2.21996094 5.55230469 -3.00242187 5.91710937 -3.80859375 6.29296875 C-6 7 -6 7 -9 6 C-7.6875 4.5 -7.6875 4.5 -6 3 C-5.01 3 -4.02 3 -3 3 C-2.67 2.34 -2.34 1.68 -2 1 C-1.34 1.33 -0.68 1.66 0 2 C0 1.34 0 0.68 0 0 Z " fill="#C6C5C4" transform="translate(106,13)"/>
<path d="M0 0 C0.75 1.625 0.75 1.625 1 4 C-0.9375 7.25 -0.9375 7.25 -3 10 C-3.66 9.34 -4.32 8.68 -5 8 C-4.74739753 4.21096292 -2.72150557 2.45813407 0 0 Z " fill="#101010" transform="translate(91,145)"/>
<path d="M0 0 C0.99 0.99 1.98 1.98 3 3 C2.39816251 5.02045442 1.72693904 7.02111039 1 9 C0.01 9.495 0.01 9.495 -1 10 C-1.33 7.69 -1.66 5.38 -2 3 C-1.34 3 -0.68 3 0 3 C0 2.01 0 1.02 0 0 Z " fill="#FCFCFB" transform="translate(126,47)"/>
<path d="M0 0 C0.66 0.33 1.32 0.66 2 1 C2.36923077 7.52307692 2.36923077 7.52307692 0.5 9.9375 C0.005 10.288125 -0.49 10.63875 -1 11 C-2.60080151 6.99799622 -1.29279692 3.95443764 0 0 Z " fill="#929291" transform="translate(91,59)"/>
<path d="M0 0 C0.66 0 1.32 0 2 0 C2 0.99 2 1.98 2 3 C2.66 3.33 3.32 3.66 4 4 C0.25 7 0.25 7 -2 7 C-2.125 4.625 -2.125 4.625 -2 2 C-1.34 1.34 -0.68 0.68 0 0 Z " fill="#B0B0AF" transform="translate(154,177)"/>
<path d="M0 0 C0.66 0 1.32 0 2 0 C2.84098656 4.01804691 3.05404945 7.01803543 2 11 C1.34 11 0.68 11 0 11 C0 7.37 0 3.74 0 0 Z " fill="#CECECD" transform="translate(113,77)"/>
<path d="M0 0 C2.475 0.99 2.475 0.99 5 2 C1.375 6.875 1.375 6.875 -2 8 C-1.34 5.36 -0.68 2.72 0 0 Z " fill="#555555" transform="translate(147,182)"/>
<path d="M0 0 C1 2 2 4 3 6 C4.98 5.67 6.96 5.34 9 5 C9 5.99 9 6.98 9 8 C7.02 8.33 5.04 8.66 3 9 C0.90250005 6.64031256 0.03094296 5.45383006 -0.1875 2.25 C-0.125625 1.5075 -0.06375 0.765 0 0 Z " fill="#585857" transform="translate(100,76)"/>
<path d="M0 0 C0.33 0 0.66 0 1 0 C1 3.63 1 7.26 1 11 C-1.8290723 8.1709277 -2.37611108 7.61855575 -3 4 C-2.34 3.67 -1.68 3.34 -1 3 C-0.67 2.01 -0.34 1.02 0 0 Z " fill="#2E2E2E" transform="translate(218,154)"/>
<path d="M0 0 C1.65 0.33 3.3 0.66 5 1 C4.505 1.37125 4.01 1.7425 3.5 2.125 C1.40244486 4.74694393 1.78256165 6.73842472 2 10 C0.4375 8.9375 0.4375 8.9375 -1 7 C-0.6875 3.3125 -0.6875 3.3125 0 0 Z " fill="#6C6C6B" transform="translate(165,81)"/>
<path d="M0 0 C0.99 0.33 1.98 0.66 3 1 C4.4158649 3.91038896 5.29922267 6.846502 6 10 C5.01 9.67 4.02 9.34 3 9 C0 2.88888889 0 2.88888889 0 0 Z " fill="#252424" transform="translate(190,24)"/>
<path d="M0 0 C4.7517398 0.43197635 6.92000054 1.32769295 10 5 C9.09507813 4.76603516 9.09507813 4.76603516 8.171875 4.52734375 C7.37265625 4.33269531 6.5734375 4.13804688 5.75 3.9375 C4.56664063 3.64166016 4.56664063 3.64166016 3.359375 3.33984375 C0.89605178 2.98502733 -0.65604132 3.23122456 -3 4 C-2.01 2.68 -1.02 1.36 0 0 Z " fill="#38181B" transform="translate(74,17)"/>
<path d="M0 0 C1.65 1.65 3.3 3.3 5 5 C4.67 5.66 4.34 6.32 4 7 C3.67 6.67 3.34 6.34 3 6 C3 7.32 3 8.64 3 10 C2.34 10 1.68 10 1 10 C-0.1577506 6.52674819 -0.06866652 3.63932552 0 0 Z " fill="#545453" transform="translate(81,85)"/>
<path d="M0 0 C0.61875 0.474375 1.2375 0.94875 1.875 1.4375 C3.90705546 3.02417441 3.90705546 3.02417441 6 4 C6 6.31 6 8.62 6 11 C2.90407165 7.4912812 1.25805377 4.50802601 0 0 Z " fill="#A0A09F" transform="translate(214,57)"/>
<path d="M0 0 C0.33 0.99 0.66 1.98 1 3 C-0.375 4.5 -0.375 4.5 -2 6 C-2.66 6 -3.32 6 -4 6 C-4.66 6.66 -5.32 7.32 -6 8 C-5.67 6.35 -5.34 4.7 -5 3 C-3.35 2.67 -1.7 2.34 0 2 C0 1.34 0 0.68 0 0 Z " fill="#919190" transform="translate(164,158)"/>
<path d="M0 0 C3.35915158 1.43963639 5.71624938 3.12416589 8 6 C7.75 8.25 7.75 8.25 7 10 C6.67 9.01 6.34 8.02 6 7 C5.34 7 4.68 7 4 7 C2.50475822 4.7272325 1.21600285 2.4320057 0 0 Z " fill="#4A4B4A" transform="translate(153,89)"/>
<path d="M0 0 C1.67542976 0.28604898 3.34385343 0.61781233 5 1 C5 1.99 5 2.98 5 4 C3.68 4 2.36 4 1 4 C0.34 4.99 -0.32 5.98 -1 7 C-1.04254356 5.00045254 -1.04080783 2.99958364 -1 1 C-0.67 0.67 -0.34 0.34 0 0 Z " fill="#727272" transform="translate(123,45)"/>
<path d="M0 0 C1.35015859 4.05047576 0.62084998 6.7920168 0 11 C-0.99 11.33 -1.98 11.66 -3 12 C-2.49202991 7.6822542 -1.80317221 3.96697886 0 0 Z " fill="#5E5E5D" transform="translate(150,0)"/>
<path d="M0 0 C1.65 0.33 3.3 0.66 5 1 C5 1.66 5 2.32 5 3 C5.99 3 6.98 3 8 3 C7.67 3.99 7.34 4.98 7 6 C6.4225 5.505 5.845 5.01 5.25 4.5 C2.89599371 2.63019987 2.89599371 2.63019987 -1 3 C-0.67 2.01 -0.34 1.02 0 0 Z " fill="#949493" transform="translate(170,144)"/>
<path d="M0 0 C0.33 0.99 0.66 1.98 1 3 C0.34 3 -0.32 3 -1 3 C-1.28875 3.78375 -1.5775 4.5675 -1.875 5.375 C-3 8 -3 8 -5 10 C-5 5.77471908 -4.74375671 4.95481492 -2 2 C-1.34 2 -0.68 2 0 2 C0 1.34 0 0.68 0 0 Z " fill="#726364" transform="translate(217,72)"/>
<path d="M0 0 C1.32 1.65 2.64 3.3 4 5 C1 7 1 7 -1 7 C-0.67 4.69 -0.34 2.38 0 0 Z " fill="#ADADAD" transform="translate(83,148)"/>
<path d="M0 0 C0.33 0.99 0.66 1.98 1 3 C-1.64 3.33 -4.28 3.66 -7 4 C-6.67 3.01 -6.34 2.02 -6 1 C-4.02 0.67 -2.04 0.34 0 0 Z " fill="#616160" transform="translate(61,24)"/>
<path d="M0 0 C0.33 0.66 0.66 1.32 1 2 C1.99 2.33 2.98 2.66 4 3 C0.7 3.33 -2.6 3.66 -6 4 C-2 1 -2 1 0 0 Z " fill="#30302F" transform="translate(181,149)"/>
<path d="M0 0 C1.2065625 0.0309375 1.2065625 0.0309375 2.4375 0.0625 C1.4475 0.5575 1.4475 0.5575 0.4375 1.0625 C-0.21805119 3.58983235 -0.21805119 3.58983235 -0.5625 6.0625 C-1.2225 6.0625 -1.8825 6.0625 -2.5625 6.0625 C-2.94468767 4.40635343 -3.27645102 2.73792976 -3.5625 1.0625 C-2.5625 0.0625 -2.5625 0.0625 0 0 Z " fill="#8B8B8A" transform="translate(181.5625,143.9375)"/>
<path d="M0 0 C2.31 0.33 4.62 0.66 7 1 C7 1.66 7 2.32 7 3 C4.36 3 1.72 3 -1 3 C-0.67 2.01 -0.34 1.02 0 0 Z " fill="#7B7B7A" transform="translate(210,161)"/>
<path d="M0 0 C0.66 0 1.32 0 2 0 C2.33 2.31 2.66 4.62 3 7 C1.68 6.34 0.36 5.68 -1 5 C-0.67 3.35 -0.34 1.7 0 0 Z " fill="#4A4A49" transform="translate(111,56)"/>
<path d="M0 0 C0.66 0.33 1.32 0.66 2 1 C0.19587357 4.26460973 -0.83394693 5.88929795 -4 8 C-2.87548273 5.0280615 -1.77706209 2.66559313 0 0 Z " fill="#1A1A1A" transform="translate(37,43)"/>
<path d="M0 0 C0.99 0.33 1.98 0.66 3 1 C1.68221547 3.63556905 -0.14219898 5.72269553 -2 8 C-2.33 6.35 -2.66 4.7 -3 3 C-2.34 3 -1.68 3 -1 3 C-0.67 2.01 -0.34 1.02 0 0 Z " fill="#343434" transform="translate(40,39)"/>
<path d="M0 0 C0 0.66 0 1.32 0 2 C-0.99 2.33 -1.98 2.66 -3 3 C-3.33 3.99 -3.66 4.98 -4 6 C-5.32 5.34 -6.64 4.68 -8 4 C-2.25 0 -2.25 0 0 0 Z " fill="#6D6D6D" transform="translate(94,28)"/>
</svg>
