<?xml version="1.0" encoding="UTF-8"?>
<svg version="1.1" xmlns="http://www.w3.org/2000/svg" width="220" height="220">
<path d="M0 0 C72.6 0 145.2 0 220 0 C220 72.6 220 145.2 220 220 C147.4 220 74.8 220 0 220 C0 147.4 0 74.8 0 0 Z " fill="#FBFBF9" transform="translate(0,0)"/>
<path d="M0 0 C0.66 0 1.32 0 2 0 C1.71640113 1.4391134 1.42278601 2.87625518 1.125 4.3125 C0.96257812 5.11300781 0.80015625 5.91351563 0.6328125 6.73828125 C0 9 0 9 -2 12 C-3.40180168 20.27062993 -3.09233523 28.63853159 -3 37 C-2.34 37 -1.68 37 -1 37 C-0.814375 37.99966797 -0.814375 37.99966797 -0.625 39.01953125 C2.49352251 52.95542873 11.46861559 61.3124104 23 69 C27.2475253 69.30891093 30.3586453 69.33046701 34 67 C33 70 33 70 31 72 C31.33 72.66 31.66 73.32 32 74 C27.61110675 73.33501617 24.0188515 71.81242323 20 70 C20.495 73.465 20.495 73.465 21 77 C20.01 77 19.02 77 18 77 C18 77.66 18 78.32 18 79 C21.3 79.33 24.6 79.66 28 80 C27.34 80.99 26.68 81.98 26 83 C23.9765625 83.328125 23.9765625 83.328125 21.625 83.25 C20.85414062 83.23453125 20.08328125 83.2190625 19.2890625 83.203125 C17.0913041 83.00810207 15.12882485 82.55865559 13 82 C11.38840248 84.34936448 9.78572495 86.70406234 8.1875 89.0625 C7.73568359 89.71927734 7.28386719 90.37605469 6.81835938 91.05273438 C1.76068476 98.43427519 1.76068476 98.43427519 0 107 C11.06744477 106.29773163 11.06744477 106.29773163 20.6015625 101.515625 C21.99916098 99.40570213 22.99546741 97.32646958 24 95 C24.53625 93.79988281 25.0725 92.59976563 25.625 91.36328125 C27.13697786 87.92989499 28.58070345 84.4726431 30 81 C31.485 81.495 31.485 81.495 33 82 C32.34 82.66 31.68 83.32 31 84 C30.57511737 86.36590469 30.57511737 86.36590469 30.4375 89 C30.09491525 93.81016949 30.09491525 93.81016949 29 96 C28.01 96 27.02 96 26 96 C25.731875 96.5775 25.46375 97.155 25.1875 97.75 C24 100 24 100 22.4375 101.8125 C20.66538442 104.50919762 20.68653167 106.05880219 20.8125 109.25 C20.83957031 110.14203125 20.86664063 111.0340625 20.89453125 111.953125 C20.94673828 112.96632812 20.94673828 112.96632812 21 114 C26.15839106 112.03542128 31.10108664 109.98300754 35.9375 107.3125 C40.53968351 104.91704171 44.45179638 104.54419847 49.578125 104.3125 C52.91750705 103.88161199 54.66203504 102.33796496 57 100 C57.66 100 58.32 100 59 100 C59 99.34 59 98.68 59 98 C59.66 97.67 60.32 97.34 61 97 C60.67 94.36 60.34 91.72 60 89 C62.37339853 90.85744232 62.9940468 91.97847688 63.8125 94.9375 C64.00613718 98.10024068 63.70401547 99.39385869 62 102 C63.98 102 65.96 102 68 102 C68 102.33 68 102.66 68 103 C66.35 103 64.7 103 63 103 C63 103.99 63 104.98 63 106 C61.68 106.33 60.36 106.66 59 107 C59 107.66 59 108.32 59 109 C60.0828125 109.2784375 60.0828125 109.2784375 61.1875 109.5625 C65.04350775 111.53334841 66.73669876 114.39798015 69 118 C68.01 118.495 68.01 118.495 67 119 C70.27914137 124.13964711 74.01636951 128.64825426 78.02148438 133.23242188 C85 141.3244283 85 141.3244283 85 145 C48.37 145 11.74 145 -26 145 C-26 139.30415857 -25.66672133 136.06222992 -24.125 130.8125 C-22.26179984 124.26583242 -20.95474203 117.74600621 -20 111 C-21.98 111 -23.96 111 -26 111 C-25.67 110.34 -25.34 109.68 -25 109 C-23.68 109 -22.36 109 -21 109 C-21 108.01 -21 107.02 -21 106 C-21.66386719 106.32226562 -22.32773438 106.64453125 -23.01171875 106.9765625 C-26.64822799 108.22200749 -30.01372066 108.36785272 -33.8125 108.375 C-34.48603516 108.39949219 -35.15957031 108.42398438 -35.85351562 108.44921875 C-43.69960074 108.49426804 -48.8293796 105.29702575 -54.46484375 100.03125 C-55.96618318 98.53122408 -57.45695789 97.02055677 -58.9375 95.5 C-59.70384766 94.74074219 -60.47019531 93.98148437 -61.25976562 93.19921875 C-66.02102075 88.38313961 -67.79566471 86.06502941 -68.25 79.25 C-68.20174618 72.07224392 -66.4432825 65.00163833 -65 58 C-62.525 57.505 -62.525 57.505 -60 57 C-60.66 57 -61.32 57 -62 57 C-62.08131463 55.56344146 -62.13933559 54.1255517 -62.1875 52.6875 C-62.22230469 51.88699219 -62.25710937 51.08648437 -62.29296875 50.26171875 C-61.93801608 47.52148416 -61.10633718 46.70828921 -59 45 C-59 46.32 -59 47.64 -59 49 C-58.51789062 48.00097656 -58.03578125 47.00195312 -57.5390625 45.97265625 C-56.90135911 44.66911549 -56.26332089 43.36573849 -55.625 42.0625 C-55.30789062 41.40314453 -54.99078125 40.74378906 -54.6640625 40.06445312 C-52.2265625 35.11328125 -52.2265625 35.11328125 -50 34 C-49.34 36.31 -48.68 38.62 -48 41 C-46.35 41.33 -44.7 41.66 -43 42 C-43 42.66 -43 43.32 -43 44 C-36.4 44 -29.8 44 -23 44 C-22.34 42.35 -21.68 40.7 -21 39 C-20.34 38.05125 -19.68 37.1025 -19 36.125 C-16.78828296 32.66919213 -15.94910799 29.95461663 -15 26 C-14.34 26 -13.68 26 -13 26 C-11.56293264 30.5806522 -11.97538296 35.15837145 -12.0625 39.90625 C-12.00998196 42.50589314 -11.77208392 44.53898251 -11 47 C-11.99 47.33 -12.98 47.66 -14 48 C-14.495 48.99 -14.495 48.99 -15 50 C-12.03 49.01 -9.06 48.02 -6 47 C-6.99 45.35 -7.98 43.7 -9 42 C-7.02 42.66 -5.04 43.32 -3 44 C-3.50712033 40.28111761 -4.11608215 37.26545761 -6 34 C-6.66 34 -7.32 34 -8 34 C-7.81824219 33.17822266 -7.81824219 33.17822266 -7.6328125 32.33984375 C-6.51107444 27.03315984 -5.70420665 21.76210038 -5.0625 16.375 C-3.40893271 3.40893271 -3.40893271 3.40893271 0 0 Z " fill="#030304" transform="translate(95,75)"/>
<path d="M0 0 C1 3 1 3 1.578125 5.84765625 C1.79984375 6.90855469 2.0215625 7.96945313 2.25 9.0625 C2.46140625 10.12597656 2.6728125 11.18945312 2.890625 12.28515625 C3.73658023 15.20042412 3.73658023 15.20042412 6.4375 16.23828125 C7.283125 16.48964844 8.12875 16.74101563 9 17 C11.7352611 19.11361085 13.66427496 20.67915476 14.53515625 24.10546875 C14.78089967 26.0610326 14.89991182 28.03159908 15 30 C15.639375 28.948125 16.27875 27.89625 16.9375 26.8125 C20.07342693 22.35332066 24.15680109 20.28970406 29 18 C28.01 17.67 27.02 17.34 26 17 C26 16.34 26 15.68 26 15 C29.71766909 15.64890224 33.09318736 16.67678645 36.625 18 C41.26755195 19.72982757 45.33808834 21.07468394 50.29492188 21.54541016 C58.91418149 22.39317302 66.05441602 24.43537157 74 28 C73.67 28.66 73.34 29.32 73 30 C72.39414063 29.72285156 71.78828125 29.44570312 71.1640625 29.16015625 C65.00315425 26.49674822 59.66048384 25.39983947 53 25 C51.29062935 24.82220513 49.58218276 24.63520192 47.875 24.4375 C46.59625 24.293125 45.3175 24.14875 44 24 C43.67 25.32 43.34 26.64 43 28 C43.66 28 44.32 28 45 28 C48.66606201 38.14713593 51.60565413 48.63727821 47 59 C48.65 59.33 50.3 59.66 52 60 C52.33 60.99 52.66 61.98 53 63 C53.66 63 54.32 63 55 63 C55.226875 62.443125 55.45375 61.88625 55.6875 61.3125 C58.97953061 55.5122556 64.52872278 51.46505679 70.8359375 49.3984375 C73.60537631 48.88854082 76.24747203 48.86802347 79.0625 48.875 C80.10535156 48.87242188 81.14820313 48.86984375 82.22265625 48.8671875 C85 49 85 49 88 50 C88.99 50 89.98 50 91 50 C93.1875 51 93.1875 51 95 52 C92.83266126 44.88086009 92.83266126 44.88086009 87.88671875 39.82421875 C85.46174548 39.20449725 85.46174548 39.20449725 82 39 C82.99 41.97 82.99 41.97 84 45 C82.68 43.68 81.36 42.36 80 41 C80.66 39.68 81.32 38.36 82 37 C83.65 37 85.3 37 87 37 C83.04 33.535 83.04 33.535 79 30 C79.33 29.34 79.66 28.68 80 28 C84.49118485 31.86709961 88.80802008 35.80802008 93 40 C93.886875 40.680625 94.77375 41.36125 95.6875 42.0625 C98.01987421 44.01665136 99.12348882 45.10751309 100 48 C99.625 50.75 99.625 50.75 99 53 C98.34 53 97.68 53 97 53 C97 53.66 97 54.32 97 55 C95.35 55 93.7 55 92 55 C92.40992188 55.51949219 92.81984375 56.03898437 93.2421875 56.57421875 C97.3881021 61.94010343 100.4016502 65.97112143 100 73 C98.33282023 70.49923035 97.30216755 68.43385112 96.1875 65.6875 C94.16326185 61.04009182 91.71023338 56.35511669 87 54 C85.0870598 53.76565288 85.0870598 53.76565288 83 53.75 C81.948125 53.71132812 81.948125 53.71132812 80.875 53.671875 C80.25625 53.78015625 79.6375 53.8884375 79 54 C76.74164923 56.72122908 76.74164923 56.72122908 77.171875 59.3046875 C78.41897427 65.90962338 78.41897427 65.90962338 81 72 C82.66321482 72.35015049 84.33034549 72.68197057 86 73 C88.0625 75.3125 88.0625 75.3125 90 78 C90.70125 78.66 91.4025 79.32 92.125 80 C94.20802434 82.22189263 94.95657732 84.16785272 96 87 C98.22189824 89.22189824 100.08482708 89.92598892 103 91 C102.01 91.33 101.02 91.66 100 92 C100 92.99 100 93.98 100 95 C101.32 95.33 102.64 95.66 104 96 C104.33 97.32 104.66 98.64 105 100 C106.11375 100.103125 107.2275 100.20625 108.375 100.3125 C109.57125 100.539375 110.7675 100.76625 112 101 C114 104 114 104 113.75 106.375 C112.78859227 109.73992705 111.56426574 112.87146852 110 116 C109.67 115.67 109.34 115.34 109 115 C105.99941366 114.54151404 102.99311089 114.16358611 99.98046875 113.79296875 C96.51555128 112.87110997 95.37077411 111.61136006 93 109 C91.13188842 107.92790654 91.13188842 107.92790654 89.25 107.25 C88.1775 106.8375 87.105 106.425 86 106 C86.87247183 110.17672683 87.72062486 114.23539436 89.1875 118.25 C90.08509062 121.28799902 89.88394099 122.99460063 89 126 C88.34 126 87.68 126 87 126 C87 126.66 87 127.32 87 128 C82.89747151 131.73785929 80.2526427 133.23913394 74.6875 133.5 C69.47204945 133.74937264 66.03515427 135.15610085 61.5 137.65625 C51.55813953 143 51.55813953 143 48 143 C47.27341369 135.68031564 47.69369173 131.15517982 52.39453125 125.36328125 C54 124 54 124 57 124 C57.07347656 122.73542969 57.07347656 122.73542969 57.1484375 121.4453125 C57.22320312 120.34960938 57.29796875 119.25390625 57.375 118.125 C57.44460937 117.03445312 57.51421875 115.94390625 57.5859375 114.8203125 C58 112 58 112 60 110 C59.34 109.67 58.68 109.34 58 109 C57.86464844 109.58265625 57.72929688 110.1653125 57.58984375 110.765625 C55.40659245 119.08028263 52.14686923 128.38900826 44.625 133.125 C43.42875 133.41375 42.2325 133.7025 41 134 C40.25234375 134.20882812 39.5046875 134.41765625 38.734375 134.6328125 C34.53977146 135.73007634 31.23966196 136.36763289 27 135 C28.69245537 124.91652905 34.91194502 116.94619584 41 109 C41.56332031 109.16242188 42.12664062 109.32484375 42.70703125 109.4921875 C45.10446869 110.02313617 47.23522125 110.13310671 49.6875 110.125 C50.47511719 110.12757813 51.26273437 110.13015625 52.07421875 110.1328125 C54.00764914 110.21127778 54.00764914 110.21127778 55 109 C52.03 108.34 49.06 107.68 46 107 C46 106.34 46 105.68 46 105 C46.66 104.67 47.32 104.34 48 104 C48 102.02 48 100.04 48 98 C51.63 98.99 55.26 99.98 59 101 C58.34 100.34 57.68 99.68 57 99 C57.33 98.67 57.66 98.34 58 98 C56.97132812 98.08507812 55.94265625 98.17015625 54.8828125 98.2578125 C50.2274848 97.94870623 48.49833365 96.74150156 44.875 93.875 C44.09080688 93.2564917 44.09080688 93.2564917 43.29077148 92.62548828 C39.63857675 89.68374564 36.72425721 86.79744945 34 83 C33.56171875 82.49339844 33.1234375 81.98679687 32.671875 81.46484375 C28.56613088 76.47424099 27.7648547 71.31290522 27 65 C26.34 65 25.68 65 25 65 C21.96245499 54.85074248 23.48194698 42.34218229 28.0625 32.9453125 C29.11500082 30.86664946 29.11500082 30.86664946 30 28 C29.01 28.66 28.02 29.32 27 30 C26.26393501 33.56769552 26.26393501 33.56769552 26 37 C25.34 37 24.68 37 24 37 C23.9498877 37.65073486 23.89977539 38.30146973 23.84814453 38.97192383 C23.61607955 41.91957011 23.37069779 44.86596009 23.125 47.8125 C23.04636719 48.83666016 22.96773437 49.86082031 22.88671875 50.91601562 C22.80292969 51.89892578 22.71914062 52.88183594 22.6328125 53.89453125 C22.55949707 54.80050049 22.48618164 55.70646973 22.41064453 56.63989258 C22 59 22 59 20 62 C20.66 62 21.32 62 22 62 C22.495 61.01 22.495 61.01 23 60 C23.53394179 61.4117783 24.05165104 62.82970244 24.5625 64.25 C24.85253906 65.03890625 25.14257812 65.8278125 25.44140625 66.640625 C26.04522837 69.19103452 25.8473932 70.55322229 25 73 C23.68 72.67 22.36 72.34 21 72 C21.99 72.99 22.98 73.98 24 75 C22.73160474 75.50615298 21.46016898 76.00469099 20.1875 76.5 C19.47980469 76.7784375 18.77210937 77.056875 18.04296875 77.34375 C16 78 16 78 13 78 C13.495 76.515 13.495 76.515 14 75 C14.66 75 15.32 75 16 75 C15.75443359 73.75863281 15.75443359 73.75863281 15.50390625 72.4921875 C14.9535453 68.67805811 14.88910945 64.96646499 14.9375 61.125 C14.94201172 60.43664062 14.94652344 59.74828125 14.95117188 59.0390625 C14.96283664 57.35933665 14.98076729 55.67965625 15 54 C14.34 54 13.68 54 13 54 C12.979375 54.928125 12.95875 55.85625 12.9375 56.8125 C12.15478289 62.5880035 8.42144648 67.43280355 5 72 C-0.6095468 74.8047734 -8.99271777 72.88996774 -15 72 C-15 71.34 -15 70.68 -15 70 C-16.65 70 -18.3 70 -20 70 C-20.99 67.69 -21.98 65.38 -23 63 C-23.72316406 64.46373047 -23.72316406 64.46373047 -24.4609375 65.95703125 C-25.09885158 67.24224049 -25.73687831 68.52739382 -26.375 69.8125 C-26.69210938 70.45509766 -27.00921875 71.09769531 -27.3359375 71.75976562 C-28.76458611 74.63194461 -30.21785473 77.3267821 -32 80 C-33.00864343 71.35448489 -29.91501612 66.00942342 -25 59 C-24.46375 58.48566406 -23.9275 57.97132812 -23.375 57.44140625 C-21.57973773 55.55944097 -21.06551371 53.78668792 -20.3125 51.3125 C-20.06113281 50.50425781 -19.80976562 49.69601563 -19.55078125 48.86328125 C-19.36902344 48.24839844 -19.18726563 47.63351563 -19 47 C-18.34 47 -17.68 47 -17 47 C-17.474375 46.071875 -17.94875 45.14375 -18.4375 44.1875 C-20.50260924 39.31265078 -21.29685974 34.28575254 -21 29 C-19.1875 26.3125 -19.1875 26.3125 -17 24 C-16.35204546 22.01936304 -16.35204546 22.01936304 -15.9375 19.875 C-14.70154753 14.76639646 -14.70154753 14.76639646 -12 13 C-9.8125 12.3125 -9.8125 12.3125 -8 12 C-8.350625 11.443125 -8.70125 10.88625 -9.0625 10.3125 C-10.21845993 7.46113217 -9.80967438 5.91482778 -9 3 C-7.88625 2.87625 -6.7725 2.7525 -5.625 2.625 C-1.96896323 2.3534187 -1.96896323 2.3534187 0 0 Z " fill="#F6F6F5" transform="translate(67,47)"/>
<path d="M0 0 C0.33 0 0.66 0 1 0 C1 32.01 1 64.02 1 97 C-12.2 97 -25.4 97 -39 97 C-41.31 93.37 -43.62 89.74 -46 86 C-48.51598216 83.06293296 -51.14738713 80.3546357 -53.86328125 77.60546875 C-56.16167123 74.80286159 -57.08053265 72.47975211 -58 69 C-57.505 68.505 -57.505 68.505 -57 68 C-59.38957269 64.75700849 -61.2047869 62.49097658 -65 61 C-65 60.34 -65 59.68 -65 59 C-63.02 58.505 -63.02 58.505 -61 58 C-61 57.01 -61 56.02 -61 55 C-59.33710938 54.60167969 -59.33710938 54.60167969 -57.640625 54.1953125 C-56.17702189 53.83879379 -54.71348359 53.48200897 -53.25 53.125 C-52.52039063 52.95097656 -51.79078125 52.77695313 -51.0390625 52.59765625 C-46.7982818 51.57281498 -46.7982818 51.57281498 -42.828125 49.81640625 C-40.16402007 48.62666708 -38.3155423 49.21303701 -35.5 49.8125 C-34.09234375 50.10060547 -34.09234375 50.10060547 -32.65625 50.39453125 C-30.42925543 50.90215501 -28.21208842 51.43132633 -26 52 C-25.98582031 51.3709375 -25.97164062 50.741875 -25.95703125 50.09375 C-25.58839741 43.47826706 -23.99062213 39.27174436 -20 34 C-21.65 35.65 -23.3 37.3 -25 39 C-24.8125 35.6875 -24.8125 35.6875 -24 32 C-21.875 30.5 -21.875 30.5 -19 29 C-9.79297802 21.45901057 -4.52310517 10.77624596 0 0 Z " fill="#FDFDFC" transform="translate(219,123)"/>
<path d="M0 0 C1 3 1 3 1.578125 5.84765625 C1.79984375 6.90855469 2.0215625 7.96945313 2.25 9.0625 C2.46140625 10.12597656 2.6728125 11.18945312 2.890625 12.28515625 C3.71553075 15.18559972 3.71553075 15.18559972 6.296875 16.05859375 C7.18890625 16.36925781 8.0809375 16.67992188 9 17 C12.56933943 19.75334739 13.85977151 21.09586945 14.55859375 25.6015625 C14.54662616 26.94326225 14.50507628 28.28494967 14.4375 29.625 C14.42009766 30.32560547 14.40269531 31.02621094 14.38476562 31.74804688 C14.17575124 37.60580903 13.3537668 43.29483993 12 49 C11.34 49 10.68 49 10 49 C9.896875 50.155 9.79375 51.31 9.6875 52.5 C9.30669908 55.65280761 8.59941263 58.35839195 7.4375 61.3125 C5.8183959 64.80622316 5.8183959 64.80622316 6 68 C5.625 70.125 5.625 70.125 5 72 C-0.6095468 74.8047734 -8.99271777 72.88996774 -15 72 C-15 71.34 -15 70.68 -15 70 C-16.65 70 -18.3 70 -20 70 C-20.99 67.69 -21.98 65.38 -23 63 C-23.72316406 64.46373047 -23.72316406 64.46373047 -24.4609375 65.95703125 C-25.09885158 67.24224049 -25.73687831 68.52739382 -26.375 69.8125 C-26.69210938 70.45509766 -27.00921875 71.09769531 -27.3359375 71.75976562 C-28.76458611 74.63194461 -30.21785473 77.3267821 -32 80 C-33.00864343 71.35448489 -29.91501612 66.00942342 -25 59 C-24.46375 58.48566406 -23.9275 57.97132812 -23.375 57.44140625 C-21.57973773 55.55944097 -21.06551371 53.78668792 -20.3125 51.3125 C-20.06113281 50.50425781 -19.80976562 49.69601563 -19.55078125 48.86328125 C-19.36902344 48.24839844 -19.18726563 47.63351563 -19 47 C-18.34 47 -17.68 47 -17 47 C-17.474375 46.071875 -17.94875 45.14375 -18.4375 44.1875 C-20.50260924 39.31265078 -21.29685974 34.28575254 -21 29 C-19.1875 26.3125 -19.1875 26.3125 -17 24 C-16.35204546 22.01936304 -16.35204546 22.01936304 -15.9375 19.875 C-14.70154753 14.76639646 -14.70154753 14.76639646 -12 13 C-9.8125 12.3125 -9.8125 12.3125 -8 12 C-8.350625 11.443125 -8.70125 10.88625 -9.0625 10.3125 C-10.21845993 7.46113217 -9.80967438 5.91482778 -9 3 C-7.88625 2.87625 -6.7725 2.7525 -5.625 2.625 C-1.96896323 2.3534187 -1.96896323 2.3534187 0 0 Z " fill="#4B4B4A" transform="translate(67,47)"/>
<path d="M0 0 C0.99 0.33 1.98 0.66 3 1 C3 1.66 3 2.32 3 3 C3.886875 3.391875 4.77375 3.78375 5.6875 4.1875 C9.12129608 6.06636955 11.36541769 8.13295455 14 11 C13.34 11.33 12.68 11.66 12 12 C15.27914137 17.13964711 19.01636951 21.64825426 23.02148438 26.23242188 C30 34.3244283 30 34.3244283 30 38 C9.54 38 -10.92 38 -32 38 C-30 33 -30 33 -28 30 C-29.65 30.33 -31.3 30.66 -33 31 C-34.81601151 26.45997123 -36.46462952 21.809878 -35 17 C-32.35526609 13.57834225 -29.41027103 10.65927272 -26 8 C-25.34 8 -24.68 8 -24 8 C-22.85185003 10.29629994 -22.69230191 12.07698086 -22.4375 14.625 C-22.35371094 15.44226563 -22.26992187 16.25953125 -22.18359375 17.1015625 C-22.12300781 17.72804687 -22.06242187 18.35453125 -22 19 C-21.34 19 -20.68 19 -20 19 C-20 19.99 -20 20.98 -20 22 C-19.34 22 -18.68 22 -18 22 C-18 21.34 -18 20.68 -18 20 C-13.32724794 15.05314796 -7.60174183 11.19446849 -2.00390625 7.3828125 C-0.09293673 6.15306432 -0.09293673 6.15306432 1 5 C-0.32 4.67 -1.64 4.34 -3 4 C-2.01 2.68 -1.02 1.36 0 0 Z " fill="#030303" transform="translate(150,182)"/>
<path d="M0 0 C-0.66 0.66 -1.32 1.32 -2 2 C-2.14292693 7.74089849 -0.49845268 13.50567352 1 19 C-2.3 17.02 -5.6 15.04 -9 13 C-8.01 12.67 -7.02 12.34 -6 12 C-8.31 11.67 -10.62 11.34 -13 11 C-12.67 11.66 -12.34 12.32 -12 13 C-13.32 13 -14.64 13 -16 13 C-14.824375 13.61875 -14.824375 13.61875 -13.625 14.25 C-10.79869664 16.13420224 -10.14946613 16.89318825 -9 20 C-8.94231735 22.83881042 -9.1281848 25.60944391 -9.3203125 28.44140625 C-9.24488568 31.1071441 -9.24488568 31.1071441 -7.25390625 32.82421875 C-3.66508202 34.69637836 -1.00723781 34.26276969 3 34 C3.33 33.67 3.66 33.34 4 33 C3.39671875 33.04640625 2.7934375 33.0928125 2.171875 33.140625 C-4.29072561 33.43248438 -4.29072561 33.43248438 -7.5625 31.4375 C-9.52577308 28.10847173 -9.41467826 25.80121737 -9 22 C-7 19 -7 19 -4 18 C1.07713566 20.1070113 3.50620991 24.0642184 6.5 28.4375 C10.14876751 33.76825664 10.14876751 33.76825664 14.78125 38.22265625 C17 40 17 40 17.77954102 41.84765625 C18.15754517 45.53811543 16.29030766 47.53775683 14.05419922 50.31982422 C10.16031563 53.50471926 5.86288448 52.87271805 1.0625 52.5625 C0.09892578 52.53478516 -0.86464844 52.50707031 -1.85742188 52.47851562 C-15.76794013 51.99359667 -15.76794013 51.99359667 -18.9375 49.4375 C-19.288125 48.963125 -19.63875 48.48875 -20 48 C-19.360625 47.79375 -18.72125 47.5875 -18.0625 47.375 C-15.72446116 46.1133006 -15.72446116 46.1133006 -15 43.1875 C-14.73162355 39.96360254 -14.73162355 39.96360254 -16.5 37.4375 C-18.60005143 35.38994986 -20.29516673 34.18434955 -22.75 32.6875 C-25.86084314 30.54001474 -25.94995742 30.27295951 -26.6875 26.25 C-25.93539775 18.40454119 -21.58666183 10.46779669 -16 5 C-10.98043567 1.63182328 -6.18106823 -0.81329845 0 0 Z " fill="#F8F8F6" transform="translate(144,98)"/>
<path d="M0 0 C10.01448259 -0.49251554 17.58013585 0.2454634 27 4 C27.33 4 27.66 4 28 4 C27.67 3.01 27.34 2.02 27 1 C30.37462715 1.54723683 32.08235 2.0549 35 4 C35 4.66 35 5.32 35 6 C35.556875 6.20625 36.11375 6.4125 36.6875 6.625 C39.92501302 8.55000774 41.68231141 11.03850902 44 14 C42.02 14 40.04 14 38 14 C37.67 14.99 37.34 15.98 37 17 C37.66 17.66 38.32 18.32 39 19 C38.505 17.02 38.505 17.02 38 15 C43.34579439 14.51401869 43.34579439 14.51401869 46.1875 16.625 C48.94485274 20.23808291 51 23.38444896 51 28 C50.360625 27.835 49.72125 27.67 49.0625 27.5 C47.19173179 26.96073333 47.19173179 26.96073333 46 27 C43 27 43 27 39.75 26.5 C31.7799995 25.43733327 26.12008867 26.26467335 19 30 C16.30952897 32.28976258 14.38333606 34.47468762 12.3125 37.3125 C11.879375 37.869375 11.44625 38.42625 11 39 C10.34 39 9.68 39 9 39 C8 38 7 37 6 36 C5.01 35.67 4.02 35.34 3 35 C3.165 34.2575 3.33 33.515 3.5 32.75 C4.84493939 22.66295457 3.65180199 13.78641209 1 4 C0.34 4 -0.32 4 -1 4 C-0.67 2.68 -0.34 1.36 0 0 Z " fill="#FCFCFB" transform="translate(111,71)"/>
<path d="M0 0 C0 2.31 0 4.62 0 7 C0.66 7 1.32 7 2 7 C2 7.99 2 8.98 2 10 C2.60328125 9.77183594 3.2065625 9.54367187 3.828125 9.30859375 C4.62734375 9.02113281 5.4265625 8.73367188 6.25 8.4375 C7.03890625 8.14746094 7.8278125 7.85742188 8.640625 7.55859375 C11.19103452 6.95477163 12.55322229 7.1526068 15 8 C14.20335937 8.24234375 13.40671875 8.4846875 12.5859375 8.734375 C3.55302341 11.50924422 3.55302341 11.50924422 -4 17 C-4.07148199 18.35243917 -4.08399454 19.70834367 -4.0625 21.0625 C-4.041875 22.361875 -4.02125 23.66125 -4 25 C-3.01 25 -2.02 25 -1 25 C-1.495 26.485 -1.495 26.485 -2 28 C-3.65 28.33 -5.3 28.66 -7 29 C-7.103125 29.928125 -7.20625 30.85625 -7.3125 31.8125 C-8.0070192 35.03254358 -8.47740939 36.02579865 -11 38 C-10.67 36.68 -10.34 35.36 -10 34 C-10.61488281 34.44472656 -11.22976562 34.88945313 -11.86328125 35.34765625 C-12.67152344 35.91355469 -13.47976562 36.47945312 -14.3125 37.0625 C-15.11300781 37.63097656 -15.91351563 38.19945312 -16.73828125 38.78515625 C-17.48464844 39.18605469 -18.23101562 39.58695313 -19 40 C-22 39 -22 39 -23.61328125 35.9296875 C-24.19114039 34.58298187 -24.75678331 33.2309927 -25.3125 31.875 C-25.6130127 31.16593506 -25.91352539 30.45687012 -26.22314453 29.72631836 C-28.6106245 24.05621025 -30.90404557 18.34468388 -33.1340332 12.61083984 C-34.18078359 9.57392026 -34.18078359 9.57392026 -36 7 C-36.04063832 5.33382885 -36.042721 3.66611905 -36 2 C-31.67681133 1.71308465 -27.3534879 1.42831943 -23.0300293 1.14550781 C-21.56058976 1.04908747 -20.09118801 0.95208939 -18.62182617 0.85449219 C-16.50449239 0.71395801 -14.38702945 0.57553202 -12.26953125 0.4375 C-10.36071167 0.31181641 -10.36071167 0.31181641 -8.41333008 0.18359375 C-5.59805949 0.03216799 -2.81793516 -0.03766664 0 0 Z " fill="#E02C52" transform="translate(78,4)"/>
<path d="M0 0 C0.99 0.33 1.98 0.66 3 1 C2.34 1.66 1.68 2.32 1 3 C0.57511737 5.36590469 0.57511737 5.36590469 0.4375 8 C0.09491525 12.81016949 0.09491525 12.81016949 -1 15 C-1.99 15 -2.98 15 -4 15 C-4.268125 15.5775 -4.53625 16.155 -4.8125 16.75 C-6 19 -6 19 -7.5625 20.8125 C-9.33461558 23.50919762 -9.31346833 25.05880219 -9.1875 28.25 C-9.16042969 29.14203125 -9.13335937 30.0340625 -9.10546875 30.953125 C-9.07066406 31.62859375 -9.03585938 32.3040625 -9 33 C-3.84160894 31.03542128 1.10108664 28.98300754 5.9375 26.3125 C10.53968351 23.91704171 14.45179638 23.54419847 19.578125 23.3125 C22.91750705 22.88161199 24.66203504 21.33796496 27 19 C27.66 19 28.32 19 29 19 C29 18.34 29 17.68 29 17 C29.66 16.67 30.32 16.34 31 16 C30.505 12.04 30.505 12.04 30 8 C32.37339853 9.85744232 32.9940468 10.97847688 33.8125 13.9375 C34.00613718 17.10024068 33.70401547 18.39385869 32 21 C33.98 21 35.96 21 38 21 C38 21.33 38 21.66 38 22 C36.35 22 34.7 22 33 22 C33 22.99 33 23.98 33 25 C31.68 25.33 30.36 25.66 29 26 C29 26.66 29 27.32 29 28 C31.475 28.99 31.475 28.99 34 30 C34 30.99 34 31.98 34 33 C27.25 29.375 27.25 29.375 25 26 C24.34 27.32 23.68 28.64 23 30 C24.32 30 25.64 30 27 30 C27 30.66 27 31.32 27 32 C25.29565793 33.19303945 23.53435284 34.30532251 21.75 35.375 C17.99322781 37.63105102 15.08118651 39.90517992 12 43 C11.34 43 10.68 43 10 43 C9.67 43.99 9.34 44.98 9 46 C8.34 46 7.68 46 7 46 C7 46.66 7 47.32 7 48 C6.34 48 5.68 48 5 48 C5 47.01 5 46.02 5 45 C3.515 45.495 3.515 45.495 2 46 C1.67 42.04 1.34 38.08 1 34 C-0.27875 35.11375 -1.5575 36.2275 -2.875 37.375 C-3.59429687 38.00148437 -4.31359375 38.62796875 -5.0546875 39.2734375 C-6.4076598 40.47426834 -7.7208345 41.7208345 -9 43 C-9.24243031 47.84860624 -8.95498418 52.2250791 -8 57 C-5.525 56.505 -5.525 56.505 -3 56 C-4.12451727 58.9719385 -5.22293791 61.33440687 -7 64 C-7.66 63.67 -8.32 63.34 -9 63 C-8.34 62.01 -7.68 61.02 -7 60 C-7.45375 59.62875 -7.9075 59.2575 -8.375 58.875 C-10.47029394 56.45735315 -11.12013285 54.04569398 -12 51 C-12 54.96 -12 58.92 -12 63 C-12.66 63 -13.32 63 -14 63 C-14.054138 60.75026553 -14.09285491 58.50015617 -14.125 56.25 C-14.14820312 54.99703125 -14.17140625 53.7440625 -14.1953125 52.453125 C-14 49 -14 49 -13.01367188 47.09570312 C-11.81282698 44.6130315 -11.68648364 42.76388627 -11.5859375 40.015625 C-11.54726562 39.08105469 -11.50859375 38.14648438 -11.46875 37.18359375 C-11.4378125 36.21550781 -11.406875 35.24742187 -11.375 34.25 C-11.33632812 33.26644531 -11.29765625 32.28289062 -11.2578125 31.26953125 C-11.16371574 28.84653963 -11.07807672 26.42355204 -11 24 C-12.32 23.67 -13.64 23.34 -15 23 C-14.08347656 22.85111328 -14.08347656 22.85111328 -13.1484375 22.69921875 C-9.2363106 21.42599927 -7.77765482 17.4692124 -6 14 C-3.86895999 9.38897022 -1.92149399 4.70138735 0 0 Z " fill="#171716" transform="translate(125,156)"/>
<path d="M0 0 C0.54527344 0.19335938 1.09054688 0.38671875 1.65234375 0.5859375 C7.0438052 2.44760453 12.40921726 3.87655666 18 5 C18 5.66 18 6.32 18 7 C17.360625 7.103125 16.72125 7.20625 16.0625 7.3125 C15.0415625 7.6528125 15.0415625 7.6528125 14 8 C13.67 8.99 13.34 9.98 13 11 C12.01 11 11.02 11 10 11 C9.86464844 11.58265625 9.72929688 12.1653125 9.58984375 12.765625 C7.40659245 21.08028263 4.14686923 30.38900826 -3.375 35.125 C-4.57125 35.41375 -5.7675 35.7025 -7 36 C-7.74765625 36.20882812 -8.4953125 36.41765625 -9.265625 36.6328125 C-13.46022854 37.73007634 -16.76033804 38.36763289 -21 37 C-19.30754463 26.91652905 -13.08805498 18.94619584 -7 11 C-6.43667969 11.16242188 -5.87335938 11.32484375 -5.29296875 11.4921875 C-2.89553131 12.02313617 -0.76477875 12.13310671 1.6875 12.125 C2.47511719 12.12757813 3.26273438 12.13015625 4.07421875 12.1328125 C6.00764914 12.21127778 6.00764914 12.21127778 7 11 C4.03 10.34 1.06 9.68 -2 9 C-2 8.34 -2 7.68 -2 7 C-1.34 6.67 -0.68 6.34 0 6 C0 4.02 0 2.04 0 0 Z " fill="#F7F7F5" transform="translate(115,145)"/>
<path d="M0 0 C0.33 0.66 0.66 1.32 1 2 C2.65 1.67 4.3 1.34 6 1 C5.719172 2.98073365 5.42503386 4.95958448 5.125 6.9375 C4.96257812 8.03964844 4.80015625 9.14179687 4.6328125 10.27734375 C4.42398438 11.17582031 4.21515625 12.07429688 4 13 C3.01 13.495 3.01 13.495 2 14 C1.5636895 16.17990771 1.5636895 16.17990771 1.4375 18.8046875 C1.36273438 19.78050781 1.28796875 20.75632812 1.2109375 21.76171875 C1.14132813 22.78910156 1.07171875 23.81648438 1 24.875 C0.86218106 26.89379228 0.71667828 28.91207867 0.5625 30.9296875 C0.47162109 32.27909424 0.47162109 32.27909424 0.37890625 33.65576172 C0 36 0 36 -2 39 C-1.34 39 -0.68 39 0 39 C0.33 38.34 0.66 37.68 1 37 C1.53394179 38.4117783 2.05165104 39.82970244 2.5625 41.25 C2.85253906 42.03890625 3.14257812 42.8278125 3.44140625 43.640625 C4.04522837 46.19103452 3.8473932 47.55322229 3 50 C1.68 49.67 0.36 49.34 -1 49 C-0.01 49.99 0.98 50.98 2 52 C0.73160474 52.50615298 -0.53983102 53.00469099 -1.8125 53.5 C-2.52019531 53.7784375 -3.22789063 54.056875 -3.95703125 54.34375 C-6 55 -6 55 -9 55 C-8.67 54.01 -8.34 53.02 -8 52 C-7.34 52 -6.68 52 -6 52 C-6.16371094 51.17242187 -6.32742187 50.34484375 -6.49609375 49.4921875 C-7.0464547 45.67805811 -7.11089055 41.96646499 -7.0625 38.125 C-7.05798828 37.43664062 -7.05347656 36.74828125 -7.04882812 36.0390625 C-7.03716336 34.35933665 -7.01923271 32.67965625 -7 31 C-7.66 31 -8.32 31 -9 31 C-9.04125 31.969375 -9.0825 32.93875 -9.125 33.9375 C-9.81316152 39.10400494 -12.96656307 42.9090346 -16 47 C-17.1875 45.3125 -17.1875 45.3125 -18 43 C-16.73046875 40.64453125 -16.73046875 40.64453125 -15 38 C-14.36479388 35.9166285 -13.80225637 33.80977762 -13.3125 31.6875 C-13.06113281 30.61886719 -12.80976562 29.55023438 -12.55078125 28.44921875 C-12.36902344 27.64097656 -12.18726562 26.83273438 -12 26 C-11.34 26 -10.68 26 -10 26 C-9.92523438 24.87722656 -9.85046875 23.75445312 -9.7734375 22.59765625 C-7.9174086 0 -7.9174086 0 0 0 Z " fill="#FAFAF8" transform="translate(89,70)"/>
<path d="M0 0 C3.59740969 1.74419864 5.8502307 3.85439564 8.375 6.875 C10.67254011 9.61998228 12.83752456 11.7584364 15.8125 13.75 C20.21428571 16.85714286 20.21428571 16.85714286 21 20 C20.625 22.75 20.625 22.75 20 25 C19.34 25 18.68 25 18 25 C18 25.66 18 26.32 18 27 C16.35 27 14.7 27 13 27 C13.40992188 27.51949219 13.81984375 28.03898437 14.2421875 28.57421875 C18.3881021 33.94010343 21.4016502 37.97112143 21 45 C19.33282023 42.49923035 18.30216755 40.43385112 17.1875 37.6875 C15.16326185 33.04009182 12.71023338 28.35511669 8 26 C6.0870598 25.76565288 6.0870598 25.76565288 4 25.75 C3.29875 25.72421875 2.5975 25.6984375 1.875 25.671875 C1.25625 25.78015625 0.6375 25.8884375 0 26 C-2.25835077 28.72122908 -2.25835077 28.72122908 -1.828125 31.3046875 C-0.58102573 37.90962338 -0.58102573 37.90962338 2 44 C3.66321482 44.35015049 5.33034549 44.68197057 7 45 C9.0625 47.3125 9.0625 47.3125 11 50 C11.70125 50.66 12.4025 51.32 13.125 52 C15.20802434 54.22189263 15.95657732 56.16785272 17 59 C19.22189824 61.22189824 21.08482708 61.92598892 24 63 C23.01 63.33 22.02 63.66 21 64 C21 64.99 21 65.98 21 67 C22.32 67.66 23.64 68.32 25 69 C24.01 69 23.02 69 22 69 C22.33 69.99 22.66 70.98 23 72 C21.0625 71.4375 21.0625 71.4375 19 70 C18.65458149 67.66842508 18.32205743 65.33491639 18 63 C16.35246985 60.4331496 16.35246985 60.4331496 14 59 C11.88847185 59.35706782 11.88847185 59.35706782 10 60 C9.39671875 59.19175781 8.7934375 58.38351563 8.171875 57.55078125 C7.3646269 56.47132158 6.55733278 55.39189633 5.75 54.3125 C4.56664062 52.72888672 4.56664062 52.72888672 3.359375 51.11328125 C-0.2070846 45.82548415 -0.2070846 45.82548415 -5.0625 42 C-7.05555722 41.83978847 -7.05555722 41.83978847 -8.75 43 C-10.66522382 46.06435812 -10.37783348 48.4735542 -10 52 C-8.82726236 53.79261401 -8.82726236 53.79261401 -7 55 C-4.81860001 55.36191678 -4.81860001 55.36191678 -2.5 55.1875 C-1.7265625 55.16042969 -0.953125 55.13335937 -0.15625 55.10546875 C0.91109375 55.05326172 0.91109375 55.05326172 2 55 C2.99 55 3.98 55 5 55 C1.95956628 58.04043372 -0.6719232 58.36993807 -4.90234375 58.49609375 C-8.11892386 57.73537555 -9.74103261 56.38816309 -12 54 C-12.3828125 50.87109375 -12.3828125 50.87109375 -12.125 47.4375 C-11.6069992 43.00327918 -11.6069992 43.00327918 -13.35546875 39.171875 C-15.16053767 37.88560261 -16.97882907 36.90604214 -19 36 C-17.02 35.505 -17.02 35.505 -15 35 C-15.33 34.34 -15.66 33.68 -16 33 C-9.84765625 33.5859375 -9.84765625 33.5859375 -8 34 C-7.67 34.66 -7.34 35.32 -7 36 C-7.99 36 -8.98 36 -10 36 C-7.36 37.65 -4.72 39.3 -2 41 C-2.2165625 40.26394531 -2.433125 39.52789062 -2.65625 38.76953125 C-3.07390625 37.30580078 -3.07390625 37.30580078 -3.5 35.8125 C-3.7784375 34.84957031 -4.056875 33.88664062 -4.34375 32.89453125 C-4.97032731 30.13087778 -5.20035452 27.81998991 -5 25 C-4.67 24.67 -4.34 24.34 -4 24 C-8.8485083 24.47534395 -11.90304204 25.42476928 -16 28 C-16.66 27.67 -17.32 27.34 -18 27 C-16.75443908 26.18071114 -15.50333365 25.36984814 -14.25 24.5625 C-13.20585937 23.88380859 -13.20585937 23.88380859 -12.140625 23.19140625 C-8.09780828 20.9412984 -4.52317403 20.86363526 0.0625 20.875 C1.10535156 20.87242188 2.14820313 20.86984375 3.22265625 20.8671875 C6 21 6 21 9 22 C9.99 22 10.98 22 12 22 C14.1875 23 14.1875 23 16 24 C13.83266126 16.88086009 13.83266126 16.88086009 8.88671875 11.82421875 C6.46174548 11.20449725 6.46174548 11.20449725 3 11 C3.66 12.98 4.32 14.96 5 17 C3.68 15.68 2.36 14.36 1 13 C1.66 11.68 2.32 10.36 3 9 C4.65 9 6.3 9 8 9 C7.4225 8.51789063 6.845 8.03578125 6.25 7.5390625 C5.5075 6.90742187 4.765 6.27578125 4 5.625 C3.2575 4.99851562 2.515 4.37203125 1.75 3.7265625 C1.1725 3.15679687 0.595 2.58703125 0 2 C0 1.34 0 0.68 0 0 Z " fill="#141414" transform="translate(146,75)"/>
<path d="M0 0 C5.08215295 0.25410765 8.45631385 2.02356895 12.35546875 5.125 C14.77810218 7.88714738 15.09273309 10.22007923 15.18359375 13.82421875 C14.86796375 17.56477008 13.77471379 20.60023304 11.96875 23.86328125 C10.88583754 26.25180188 10.62394667 28.27826287 10.3125 30.875 C9.40236154 35.5360121 8.05177551 38.16536388 4.19921875 40.9921875 C-0.12981836 42.97600913 -4.40197733 43.10522579 -9 42 C-11.42515562 40.18504483 -12.40136331 38.64601934 -14 36 C-13.67 35.34 -13.34 34.68 -13 34 C-12.01 34.99 -11.02 35.98 -10 37 C-8.515 36.505 -8.515 36.505 -7 36 C-7.66 34.68 -8.32 33.36 -9 32 C-8.40574219 31.75121094 -7.81148437 31.50242187 -7.19921875 31.24609375 C-3.1305105 28.9407333 -0.96728802 25.15384035 1 21 C1.73324099 17.31960329 1.98598674 13.74854717 2 10 C5.465 11.485 5.465 11.485 9 13 C7.32987773 9.8567486 7.32987773 9.8567486 4.625 9.125 C1.35943971 7.72547416 0.03119069 5.85871282 -2 3 C-1.34 2.01 -0.68 1.02 0 0 Z " fill="#F6F6F5" transform="translate(65,62)"/>
<path d="M0 0 C1.11375 0.598125 2.2275 1.19625 3.375 1.8125 C4.00148438 2.14894531 4.62796875 2.48539063 5.2734375 2.83203125 C7 4 7 4 9 7 C9.39387788 9.32387947 9.73486085 11.65793749 10 14 C9.01 14 8.02 14 7 14 C7 14.66 7 15.32 7 16 C10.3 16.33 13.6 16.66 17 17 C16.34 17.99 15.68 18.98 15 20 C12.9765625 20.328125 12.9765625 20.328125 10.625 20.25 C9.85414062 20.23453125 9.08328125 20.2190625 8.2890625 20.203125 C6.0913041 20.00810207 4.12882485 19.55865559 2 19 C0.35276274 21.45740296 -1.29284464 23.91587001 -2.9375 26.375 C-3.40607422 27.07367188 -3.87464844 27.77234375 -4.35742188 28.4921875 C-4.80537109 29.1625 -5.25332031 29.8328125 -5.71484375 30.5234375 C-6.12855225 31.14138184 -6.54226074 31.75932617 -6.96850586 32.39599609 C-8.05943417 34.02917268 -8.05943417 34.02917268 -9 36 C-10.875 35.75 -10.875 35.75 -13 35 C-15.80209753 30.61036598 -14.94084184 26.90423067 -14 22 C-13.23188093 19.07419972 -12.41016168 16.1771787 -11.5234375 13.28515625 C-10.74205278 10.98620371 -10.74205278 10.98620371 -12 9 C-12.99 8.67 -13.98 8.34 -15 8 C-15 7.34 -15 6.68 -15 6 C-13.421924 5.15675328 -11.8372958 4.32576082 -10.25 3.5 C-9.36828125 3.0359375 -8.4865625 2.571875 -7.578125 2.09375 C-5 1 -5 1 -1 1 C-0.67 0.67 -0.34 0.34 0 0 Z " fill="#272727" transform="translate(106,138)"/>
<path d="M0 0 C2.9375 0.75 2.9375 0.75 6 2 C7 3.8125 7 3.8125 7 6 C6.35891863 7.67667436 5.68528045 9.34089996 5 11 C4.24094188 14.31642172 3.6108355 17.65340124 3 21 C5.46920083 23.04590926 7.8365312 24.90658926 10.625 26.5 C13.17404873 28.10992551 14.55708549 29.35465673 16 32 C15.9375 34.125 15.9375 34.125 15 36 C11.80416283 38.36728679 8.87380936 38.36492407 5 38 C1.96484375 36.2421875 1.96484375 36.2421875 -1.0625 33.875 C-1.58908203 33.46338623 -2.11566406 33.05177246 -2.65820312 32.62768555 C-6.33762611 29.69069295 -9.28052296 26.82426459 -12 23 C-13.1446875 21.39125 -13.1446875 21.39125 -14.3125 19.75 C-16 17 -16 17 -16 15 C-13.36 14.67 -10.72 14.34 -8 14 C-8 13.67 -8 13.34 -8 13 C-6.54524914 10.74467869 -5.02340121 8.53902834 -3.5078125 6.32421875 C-2.1707347 4.26317913 -1.04620726 2.21938142 0 0 Z " fill="#F3F3F2" transform="translate(113,107)"/>
<path d="M0 0 C5.81683168 4.08415842 5.81683168 4.08415842 6.75 8.75 C6.8325 9.8225 6.915 10.895 7 12 C7.66 12.33 8.32 12.66 9 13 C9 12.34 9 11.68 9 11 C9.99 11 10.98 11 12 11 C12.495 12.485 12.495 12.485 13 14 C14.11375 14.103125 15.2275 14.20625 16.375 14.3125 C18.169375 14.6528125 18.169375 14.6528125 20 15 C22 18 22 18 21.75 20.375 C20.78859227 23.73992705 19.56426574 26.87146852 18 30 C17.67 29.67 17.34 29.34 17 29 C13.99941366 28.54151404 10.99311089 28.16358611 7.98046875 27.79296875 C4.51555128 26.87110997 3.37077411 25.61136006 1 23 C-0.86811158 21.92790654 -0.86811158 21.92790654 -2.75 21.25 C-4.35875 20.63125 -4.35875 20.63125 -6 20 C-5.67 22.97 -5.34 25.94 -5 29 C-7.01136276 26.44008376 -8.62845496 23.95409701 -10 21 C-10.99 21.33 -11.98 21.66 -13 22 C-13.33 22.99 -13.66 23.98 -14 25 C-14.33 23.68 -14.66 22.36 -15 21 C-16.2375 20.95875 -17.475 20.9175 -18.75 20.875 C-19.44609375 20.85179687 -20.1421875 20.82859375 -20.859375 20.8046875 C-23.5268248 21.04806796 -24.89324221 21.2998095 -27 23 C-27.70788435 26.33975372 -27.70788435 26.33975372 -27.75 30.125 C-27.80671875 31.40632813 -27.8634375 32.68765625 -27.921875 34.0078125 C-27.94765625 34.99523437 -27.9734375 35.98265625 -28 37 C-28.66 37 -29.32 37 -30 37 C-30.24878997 34.56305726 -30.47463404 32.12761611 -30.6875 29.6875 C-30.79674805 28.65206055 -30.79674805 28.65206055 -30.90820312 27.59570312 C-31.32835341 22.47975556 -31.32835341 22.47975556 -29.64453125 20.01953125 C-28 19 -28 19 -26 19 C-26 18.34 -26 17.68 -26 17 C-27.98 17 -29.96 17 -32 17 C-32 16.67 -32 16.34 -32 16 C-30.72153198 16.05498657 -30.72153198 16.05498657 -29.41723633 16.11108398 C-26.23979035 16.23073857 -23.06349536 16.31830075 -19.88452148 16.38452148 C-18.51174033 16.41962146 -17.13921903 16.46731822 -15.76733398 16.52807617 C-7.95859255 17.16663421 -7.95859255 17.16663421 -0.93652344 14.50952148 C0.71108548 12.47931621 0.71108548 12.47931621 2 9 C1.53712479 6.17367074 1.53712479 6.17367074 0 4 C-0.33 3.34 -0.66 2.68 -1 2 C-0.67 1.34 -0.34 0.68 0 0 Z " fill="#E0E0DE" transform="translate(159,133)"/>
<path d="M0 0 C8.23392975 -0.89463221 8.23392975 -0.89463221 12.08203125 1.0546875 C16.51948972 4.63172374 18.79418805 8.83568198 21 14 C21.65920237 15.33703944 22.32390242 16.67142396 23 18 C23.33 18 23.66 18 24 18 C23.67 24.27 23.34 30.54 23 37 C19 35 19 35 17 33 C16.566875 31.2675 16.566875 31.2675 16.125 29.5 C15.40822773 25.94375508 15.40822773 25.94375508 13 24.8125 C12.34 24.544375 11.68 24.27625 11 24 C9.75 21.875 9.75 21.875 9 20 C8.1028125 20.3403125 8.1028125 20.3403125 7.1875 20.6875 C5 21 5 21 3.47265625 19.859375 C1.6175764 17.51715216 1.0164215 15.44440124 0.25 12.5625 C-0.14445313 11.14130859 -0.14445313 11.14130859 -0.546875 9.69140625 C-1.0047313 6.97189773 -0.81112607 5.5813539 0 3 C0 2.01 0 1.02 0 0 Z " fill="#F9F9F8" transform="translate(144,100)"/>
<path d="M0 0 C3 0 3 0 5 1 C4.67 2.98 4.34 4.96 4 7 C3.34 7 2.68 7 2 7 C1.896875 8.155 1.79375 9.31 1.6875 10.5 C1.21810839 14.343569 0.1467567 17.60481174 -1.3125 21.17578125 C-2.11584871 23.13500455 -2.11584871 23.13500455 -2.5 25.875 C-3 28 -3 28 -6 30 C-9.96047946 30.33706208 -12.59677126 30.09429461 -16 28 C-16 25.69 -16 23.38 -16 21 C-16.2165625 21.8971875 -16.2165625 21.8971875 -16.4375 22.8125 C-16.8872439 24.56150404 -17.42892341 26.28677023 -18 28 C-21.73487777 27.5020163 -23.81237635 27.12508244 -27 25 C-27.5029999 19.86940098 -26.57116277 15.811686 -25 11 C-24.01 11 -23.02 11 -22 11 C-21.55269531 11.4846875 -21.10539062 11.969375 -20.64453125 12.46875 C-17.7716812 15.14370776 -14.47868708 14.52616359 -10.734375 14.40234375 C-6.23485028 13.74027083 -4.85410532 12.58592719 -2 9 C-0.98172448 6.02961579 -0.3931757 3.11151113 0 0 Z " fill="#050505" transform="translate(75,89)"/>
<path d="M0 0 C2.4375 1 2.4375 1 3.625 3.4375 C3.893125 4.283125 4.16125 5.12875 4.4375 6 C5.0975 6.66 5.7575 7.32 6.4375 8 C6.921875 10.71484375 6.921875 10.71484375 7.1875 13.9375 C7.33445312 15.52884766 7.33445312 15.52884766 7.484375 17.15234375 C7.4375 20 7.4375 20 5.4375 23 C4.4475 23 3.4575 23 2.4375 23 C2.1075 23.66 1.7775 24.32 1.4375 25 C2.0975 25 2.7575 25 3.4375 25 C1.5625 29.875 1.5625 29.875 0.4375 31 C-6.08792373 31.23728814 -6.08792373 31.23728814 -8.5625 30 C-9.23046875 27.41796875 -9.23046875 27.41796875 -9.75 24.1875 C-9.92917969 23.12917969 -10.10835937 22.07085937 -10.29296875 20.98046875 C-10.69373062 16.54885563 -10.030437 14.7019055 -7.5625 11 C-6.9025 11 -6.2425 11 -5.5625 11 C-5.6553125 9.1128125 -5.6553125 9.1128125 -5.75 7.1875 C-5.74051584 4.51296599 -5.72686153 3.28547002 -4.375 0.9375 C-2.5625 0 -2.5625 0 0 0 Z " fill="#EDEDEC" transform="translate(58.5625,61)"/>
<path d="M0 0 C0 0.99 0 1.98 0 3 C0.15689535 5.56355803 0.32296984 8.12534729 0.5 10.6875 C0.54769531 11.38939453 0.59539063 12.09128906 0.64453125 12.81445312 C0.76212152 14.54303016 0.88094135 16.27152348 1 18 C2.65 18.33 4.3 18.66 6 19 C6 19.99 6 20.98 6 22 C6.99 22.33 7.98 22.66 9 23 C9 23.66 9 24.32 9 25 C8.34 25.33 7.68 25.66 7 26 C8.32 26.99 9.64 27.98 11 29 C7.22360282 28.48967606 5.55277419 27.79233071 3 25 C1.07528683 30.33835539 -0.39891424 35.34979382 -1 41 C1.97 41.99 4.94 42.98 8 44 C8.144375 42.55625 8.28875 41.1125 8.4375 39.625 C8.875 35.25 8.875 35.25 10 33 C10.66 33.33 11.32 33.66 12 34 C11.34 37.3 10.68 40.6 10 44 C10.9075 43.979375 11.815 43.95875 12.75 43.9375 C16 44 16 44 18.1875 44.5625 C20.2175204 45.22193706 20.2175204 45.22193706 23 44 C23 44.66 23 45.32 23 46 C17.3904532 48.8047734 9.00728223 46.88996774 3 46 C3 45.34 3 44.68 3 44 C1.35 44 -0.3 44 -2 44 C-3.485 40.535 -3.485 40.535 -5 37 C-5.48210938 37.97582031 -5.96421875 38.95164063 -6.4609375 39.95703125 C-7.09885158 41.24224049 -7.73687831 42.52739382 -8.375 43.8125 C-8.69210938 44.45509766 -9.00921875 45.09769531 -9.3359375 45.75976562 C-10.76458611 48.63194461 -12.21785473 51.3267821 -14 54 C-15.00864343 45.35448489 -11.91501612 40.00942342 -7 33 C-6.46375 32.48566406 -5.9275 31.97132812 -5.375 31.44140625 C-3.57973773 29.55944097 -3.06551371 27.78668792 -2.3125 25.3125 C-2.06113281 24.50425781 -1.80976562 23.69601563 -1.55078125 22.86328125 C-1.36902344 22.24839844 -1.18726563 21.63351563 -1 21 C-0.34 21 0.32 21 1 21 C0.2884375 19.6078125 0.2884375 19.6078125 -0.4375 18.1875 C-2.47623496 13.41744547 -3.37931276 8.17844375 -3 3 C-1.5078125 1.171875 -1.5078125 1.171875 0 0 Z " fill="#2D2D2D" transform="translate(49,73)"/>
<path d="M0 0 C3.59740969 1.74419864 5.8502307 3.85439564 8.375 6.875 C10.67254011 9.61998228 12.83752456 11.7584364 15.8125 13.75 C20.21428571 16.85714286 20.21428571 16.85714286 21 20 C20.625 22.75 20.625 22.75 20 25 C19.34 25 18.68 25 18 25 C18 25.66 18 26.32 18 27 C16.35 27 14.7 27 13 27 C13.40992188 27.51949219 13.81984375 28.03898437 14.2421875 28.57421875 C18.3881021 33.94010343 21.4016502 37.97112143 21 45 C19.33282023 42.49923035 18.30216755 40.43385112 17.1875 37.6875 C15.16326185 33.04009182 12.71023338 28.35511669 8 26 C6.0870598 25.76565288 6.0870598 25.76565288 4 25.75 C3.29875 25.72421875 2.5975 25.6984375 1.875 25.671875 C1.25625 25.78015625 0.6375 25.8884375 0 26 C-2.30424763 28.77729717 -2.30424763 28.77729717 -1.7578125 31.69921875 C-1.54898438 32.68535156 -1.34015625 33.67148438 -1.125 34.6875 C-0.92132813 35.68136719 -0.71765625 36.67523438 -0.5078125 37.69921875 C-0.34023437 38.45847656 -0.17265625 39.21773437 0 40 C-0.66 40 -1.32 40 -2 40 C-2.508783 38.44033782 -3.00663469 36.87710759 -3.5 35.3125 C-3.7784375 34.44238281 -4.056875 33.57226562 -4.34375 32.67578125 C-5.00286159 29.98833219 -5.1929629 27.75454538 -5 25 C-4.67 24.67 -4.34 24.34 -4 24 C-8.8485083 24.47534395 -11.90304204 25.42476928 -16 28 C-16.66 27.67 -17.32 27.34 -18 27 C-16.75443908 26.18071114 -15.50333365 25.36984814 -14.25 24.5625 C-13.20585937 23.88380859 -13.20585937 23.88380859 -12.140625 23.19140625 C-8.09780828 20.9412984 -4.52317403 20.86363526 0.0625 20.875 C1.10535156 20.87242188 2.14820313 20.86984375 3.22265625 20.8671875 C6 21 6 21 9 22 C9.99 22 10.98 22 12 22 C14.1875 23 14.1875 23 16 24 C13.83266126 16.88086009 13.83266126 16.88086009 8.88671875 11.82421875 C6.46174548 11.20449725 6.46174548 11.20449725 3 11 C3.66 12.98 4.32 14.96 5 17 C3.68 15.68 2.36 14.36 1 13 C1.66 11.68 2.32 10.36 3 9 C4.65 9 6.3 9 8 9 C7.4225 8.51789063 6.845 8.03578125 6.25 7.5390625 C5.5075 6.90742187 4.765 6.27578125 4 5.625 C3.2575 4.99851562 2.515 4.37203125 1.75 3.7265625 C1.1725 3.15679687 0.595 2.58703125 0 2 C0 1.34 0 0.68 0 0 Z " fill="#5D5D5C" transform="translate(146,75)"/>
<path d="M0 0 C2.97 0.99 5.94 1.98 9 3 C9 9.93 9 16.86 9 24 C1.28515625 21.16796875 1.28515625 21.16796875 -1 20 C-1.33 19.01 -1.66 18.02 -2 17 C-2.7425 16.855625 -3.485 16.71125 -4.25 16.5625 C-6.52027739 16.09812508 -8.75759479 15.58136431 -11 15 C-11 14.34 -11 13.68 -11 13 C-8.03 13.495 -8.03 13.495 -5 14 C-4.9175 12.80375 -4.835 11.6075 -4.75 10.375 C-4.2232071 5.95622973 -2.70134013 3.48560017 0 0 Z " fill="#D72A4F" transform="translate(211,83)"/>
<path d="M0 0 C0.33 0 0.66 0 1 0 C1.28875 1.051875 1.5775 2.10375 1.875 3.1875 C2.87373948 6.84758843 2.87373948 6.84758843 4.125 9.625 C5.08608427 12.23365729 5.15757882 14.24237071 5 17 C6.32 17.33 7.64 17.66 9 18 C9.33 17.34 9.66 16.68 10 16 C10.53394179 17.4117783 11.05165104 18.82970244 11.5625 20.25 C11.85253906 21.03890625 12.14257812 21.8278125 12.44140625 22.640625 C13.04522837 25.19103452 12.8473932 26.55322229 12 29 C10.68 28.67 9.36 28.34 8 28 C8.99 28.99 9.98 29.98 11 31 C9.73160474 31.50615298 8.46016898 32.00469099 7.1875 32.5 C6.47980469 32.7784375 5.77210937 33.056875 5.04296875 33.34375 C3 34 3 34 0 34 C0.33 33.01 0.66 32.02 1 31 C1.66 31 2.32 31 3 31 C2.83628906 30.17242187 2.67257813 29.34484375 2.50390625 28.4921875 C1.9535453 24.67805811 1.88910945 20.96646499 1.9375 17.125 C1.94201172 16.43664062 1.94652344 15.74828125 1.95117188 15.0390625 C1.96283664 13.35933665 1.98076729 11.67965625 2 10 C1.34 10 0.68 10 0 10 C-0.04125 10.969375 -0.0825 11.93875 -0.125 12.9375 C-0.81316152 18.10400494 -3.96656307 21.9090346 -7 26 C-8.1875 24.3125 -8.1875 24.3125 -9 22 C-7.73046875 19.64453125 -7.73046875 19.64453125 -6 17 C-5.36479388 14.9166285 -4.80225637 12.80977762 -4.3125 10.6875 C-4.06113281 9.61886719 -3.80976562 8.55023438 -3.55078125 7.44921875 C-3.36902344 6.64097656 -3.18726562 5.83273438 -3 5 C-2.34 5 -1.68 5 -1 5 C-0.67 3.35 -0.34 1.7 0 0 Z " fill="#F4F4F2" transform="translate(80,91)"/>
<path d="M0 0 C3.71766909 0.64890224 7.09318736 1.67678645 10.625 3 C15.26755195 4.72982757 19.33808834 6.07468394 24.29492188 6.54541016 C32.91418149 7.39317302 40.05441602 9.43537157 48 13 C47.67 13.66 47.34 14.32 47 15 C46.39414063 14.72285156 45.78828125 14.44570312 45.1640625 14.16015625 C39.00315425 11.49674822 33.66048384 10.39983947 27 10 C25.29062935 9.82220513 23.58218276 9.63520192 21.875 9.4375 C20.59625 9.293125 19.3175 9.14875 18 9 C15.96315288 13.07369424 15.9742741 15.58937864 17 20 C17.66 20 18.32 20 19 20 C19.28571429 28.57142857 19.28571429 28.57142857 17 32 C15.34623289 30.34623289 15.36528792 28.19051636 14.9375 25.9375 C14.76089844 25.01839844 14.58429688 24.09929687 14.40234375 23.15234375 C14.20318359 22.08693359 14.20318359 22.08693359 14 21 C12.02 21.99 12.02 21.99 10 23 C10.350625 22.29875 10.70125 21.5975 11.0625 20.875 C12.77428983 15.62551117 10.7990736 11.03740609 9 6 C7.58297487 6.14230808 6.1663904 6.28900746 4.75 6.4375 C3.96109375 6.51871094 3.1721875 6.59992188 2.359375 6.68359375 C0.17635361 6.97634993 -1.8773182 7.42064419 -4 8 C-1.87219421 5.65941363 0.11562221 4.29299694 3 3 C2.01 2.67 1.02 2.34 0 2 C0 1.34 0 0.68 0 0 Z " fill="#686867" transform="translate(93,62)"/>
<path d="M0 0 C0.66 0 1.32 0 2 0 C5.66606201 10.14713593 8.60565413 20.63727821 4 31 C5.65 31.33 7.3 31.66 9 32 C9.33 32.99 9.66 33.98 10 35 C10.66 35 11.32 35 12 35 C12.28875 34.401875 12.5775 33.80375 12.875 33.1875 C14 31 14 31 16 28 C16.66 28.33 17.32 28.66 18 29 C17.51789063 29.65226562 17.03578125 30.30453125 16.5390625 30.9765625 C11.96038439 37.31195792 8.23068843 42.83669467 8.33984375 50.9765625 C9.54337938 54.66550603 12.72066084 56.37523526 15.8359375 58.45703125 C18 60 18 60 20 63 C19.625 65.1875 19.625 65.1875 19 67 C18.67 66.13375 18.34 65.2675 18 64.375 C15.42112087 60.02314147 12.14807821 57.7785227 8 55 C7.01 55.495 7.01 55.495 6 56 C6 55.01 6 54.02 6 53 C5.34 52.67 4.68 52.34 4 52 C4.66 52 5.32 52 6 52 C6.04898438 51.43152344 6.09796875 50.86304688 6.1484375 50.27734375 C6.52244611 46.41473756 6.96573123 42.77529324 8.125 39.0625 C9.33978199 36.11646012 9.33978199 36.11646012 8 34 C5.97536745 33.34786708 5.97536745 33.34786708 4 33 C3.59007813 33.61488281 3.18015625 34.22976562 2.7578125 34.86328125 C0.50520833 38.2421875 -1.74739583 41.62109375 -4 45 C-3.34 45.99 -2.68 46.98 -2 48 C-3.5778125 47.7215625 -3.5778125 47.7215625 -5.1875 47.4375 C-8.57119882 47.04920669 -10.76425888 47.11752515 -14 48 C-14.625 46.125 -14.625 46.125 -15 44 C-13 42 -13 42 -10.375 41.875 C-9.59125 41.91625 -8.8075 41.9575 -8 42 C-8 42.66 -8 43.32 -8 44 C-0.62131992 38.80138449 2.09984688 31.70903513 4 23 C4.19057795 20.27815588 4.14159213 17.73744789 4 15 C3.67 14.67 3.34 14.34 3 14 C2.6279752 12.4043624 2.30180201 10.79789665 2 9.1875 C1.41570087 6.09710537 0.79460128 3.04360667 0 0 Z " fill="#9E9E9C" transform="translate(110,75)"/>
<path d="M0 0 C0.495 0.99 0.495 0.99 1 2 C0.4740625 3.1446875 0.4740625 3.1446875 -0.0625 4.3125 C-1.30261715 7.01054654 -1.30261715 7.01054654 -0.125 9.8125 C0.24625 10.534375 0.6175 11.25625 1 12 C-1.64 11.01 -4.28 10.02 -7 9 C-6.67 11.97 -6.34 14.94 -6 18 C-8.01136276 15.44008376 -9.62845496 12.95409701 -11 10 C-11.99 10.33 -12.98 10.66 -14 11 C-14.33 11.99 -14.66 12.98 -15 14 C-15.33 12.68 -15.66 11.36 -16 10 C-17.85625 9.938125 -17.85625 9.938125 -19.75 9.875 C-20.44609375 9.85179687 -21.1421875 9.82859375 -21.859375 9.8046875 C-24.5268248 10.04806796 -25.89324221 10.2998095 -28 12 C-28.70788435 15.33975372 -28.70788435 15.33975372 -28.75 19.125 C-28.80671875 20.40632813 -28.8634375 21.68765625 -28.921875 23.0078125 C-28.94765625 23.99523437 -28.9734375 24.98265625 -29 26 C-29.66 26 -30.32 26 -31 26 C-31.24878997 23.56305726 -31.47463404 21.12761611 -31.6875 18.6875 C-31.79674805 17.65206055 -31.79674805 17.65206055 -31.90820312 16.59570312 C-32.32835341 11.47975556 -32.32835341 11.47975556 -30.64453125 9.01953125 C-29 8 -29 8 -27 8 C-27 7.34 -27 6.68 -27 6 C-28.98 6 -30.96 6 -33 6 C-33 5.67 -33 5.34 -33 5 C-32.14245117 5.02618408 -31.28490234 5.05236816 -30.40136719 5.0793457 C-27.21083811 5.16470597 -24.02089193 5.22731513 -20.82958984 5.2746582 C-19.45016298 5.2997593 -18.07086858 5.33384873 -16.69189453 5.37719727 C-14.70664128 5.43802875 -12.72040641 5.46357937 -10.734375 5.48828125 C-9.54038086 5.51446533 -8.34638672 5.54064941 -7.11621094 5.56762695 C-3.79071375 5.27686603 -3.79071375 5.27686603 -1.57910156 2.46948242 C-0.79744629 1.24708862 -0.79744629 1.24708862 0 0 Z " fill="#70706F" transform="translate(160,144)"/>
<path d="M0 0 C0.99 0.33 1.98 0.66 3 1 C2.34 1.66 1.68 2.32 1 3 C0.57511737 5.36590469 0.57511737 5.36590469 0.4375 8 C0.09491525 12.81016949 0.09491525 12.81016949 -1 15 C-1.99 15 -2.98 15 -4 15 C-4.268125 15.5775 -4.53625 16.155 -4.8125 16.75 C-6 19 -6 19 -7.56640625 20.734375 C-9.50111038 23.79194555 -9.26477347 25.91522167 -9.125 29.5 C-8.88423567 36.49821656 -8.88423567 36.49821656 -10 40 C-9.34 40 -8.68 40 -8 40 C-8.33 40.99 -8.66 41.98 -9 43 C-9.15895578 47.84815131 -8.95503889 52.22480555 -8 57 C-5.525 56.505 -5.525 56.505 -3 56 C-4.12451727 58.9719385 -5.22293791 61.33440687 -7 64 C-7.66 63.67 -8.32 63.34 -9 63 C-8.34 62.01 -7.68 61.02 -7 60 C-7.45375 59.62875 -7.9075 59.2575 -8.375 58.875 C-10.47029394 56.45735315 -11.12013285 54.04569398 -12 51 C-12 54.96 -12 58.92 -12 63 C-12.66 63 -13.32 63 -14 63 C-14.054138 60.75026553 -14.09285491 58.50015617 -14.125 56.25 C-14.14820312 54.99703125 -14.17140625 53.7440625 -14.1953125 52.453125 C-14 49 -14 49 -13.01367188 47.09570312 C-11.81282698 44.6130315 -11.68648364 42.76388627 -11.5859375 40.015625 C-11.54726562 39.08105469 -11.50859375 38.14648438 -11.46875 37.18359375 C-11.4378125 36.21550781 -11.406875 35.24742187 -11.375 34.25 C-11.33632812 33.26644531 -11.29765625 32.28289062 -11.2578125 31.26953125 C-11.16371574 28.84653963 -11.07807672 26.42355204 -11 24 C-12.32 23.67 -13.64 23.34 -15 23 C-14.08347656 22.85111328 -14.08347656 22.85111328 -13.1484375 22.69921875 C-9.2363106 21.42599927 -7.77765482 17.4692124 -6 14 C-3.86895999 9.38897022 -1.92149399 4.70138735 0 0 Z " fill="#7D7D7C" transform="translate(125,156)"/>
<path d="M0 0 C0.66 0 1.32 0 2 0 C2.33 0.66 2.66 1.32 3 2 C4.65 1.67 6.3 1.34 8 1 C7.719172 2.98073365 7.42503386 4.95958448 7.125 6.9375 C6.96257812 8.03964844 6.80015625 9.14179687 6.6328125 10.27734375 C6.42398438 11.17582031 6.21515625 12.07429688 6 13 C5.01 13.495 5.01 13.495 4 14 C3.68758629 16.54941373 3.48696579 19.00361513 3.375 21.5625 C3.33632812 22.27341797 3.29765625 22.98433594 3.2578125 23.71679688 C3.16328217 25.47742425 3.08054183 27.23867728 3 29 C2.67 29 2.34 29 2 29 C2 27.35 2 25.7 2 24 C1.01 23.67 0.02 23.34 -1 23 C-3.03811707 19.27879271 -3.13985324 16.52814944 -2.625 12.375 C-2.29059632 9.53645713 -2 6.86113385 -2 4 C-1 1.8125 -1 1.8125 0 0 Z " fill="#E3E4E2" transform="translate(87,70)"/>
<path d="M0 0 C3.465 1.98 3.465 1.98 7 4 C7 6.31 7 8.62 7 11 C-0.67754615 11.24766278 -7.69032828 10.43655724 -15 8 C-15 7.34 -15 6.68 -15 6 C-13.421924 5.15675328 -11.8372958 4.32576082 -10.25 3.5 C-9.36828125 3.0359375 -8.4865625 2.571875 -7.578125 2.09375 C-5 1 -5 1 -1 1 C-0.67 0.67 -0.34 0.34 0 0 Z " fill="#F4F4F2" transform="translate(106,138)"/>
<path d="M0 0 C0.8971875 0.5259375 0.8971875 0.5259375 1.8125 1.0625 C4.10813214 2.33304698 4.10813214 2.33304698 7 1 C7 1.66 7 2.32 7 3 C7.66 3 8.32 3 9 3 C9 3.66 9 4.32 9 5 C8.34 5 7.68 5 7 5 C8.70625501 7.78388975 9.47626739 8.85384206 12.6875 9.75 C13.450625 9.8325 14.21375 9.915 15 10 C15 10.66 15 11.32 15 12 C14.01 12.33 13.02 12.66 12 13 C13.32 14.32 14.64 15.64 16 17 C14.02 17.66 12.04 18.32 10 19 C10 18.34 10 17.68 10 17 C9.1028125 17.3403125 9.1028125 17.3403125 8.1875 17.6875 C6 18 6 18 4.46875 16.859375 C2.61596518 14.51382826 2.05338251 12.45154978 1.3125 9.5625 C1.06113281 8.61503906 0.80976563 7.66757813 0.55078125 6.69140625 C0 4 0 4 0 0 Z " fill="#D9D9D8" transform="translate(143,103)"/>
<path d="M0 0 C2.9375 0.75 2.9375 0.75 6 2 C7 3.8125 7 3.8125 7 6 C6.37498605 7.68272986 5.69822617 9.34630643 5 11 C4.25166865 13.98328068 3.61702582 16.98707604 3 20 C1.68 19.34 0.36 18.68 -1 18 C-0.34 17.67 0.32 17.34 1 17 C1 16.34 1 15.68 1 15 C-1.475 14.01 -1.475 14.01 -4 13 C-4.33 13.99 -4.66 14.98 -5 16 C-5.99 14.68 -6.98 13.36 -8 12 C-7.236875 11.13375 -6.47375 10.2675 -5.6875 9.375 C-3.24779927 6.46399345 -1.57001723 3.47056439 0 0 Z " fill="#FCFCFB" transform="translate(113,107)"/>
<path d="M0 0 C1.19126781 3.57380342 0.7349445 5.50883302 0.0625 9.1875 C-0.13214844 10.27417969 -0.32679687 11.36085938 -0.52734375 12.48046875 C-0.68332031 13.31191406 -0.83929688 14.14335938 -1 15 C1.97 15.99 4.94 16.98 8 18 C8.144375 16.55625 8.28875 15.1125 8.4375 13.625 C8.875 9.25 8.875 9.25 10 7 C10.66 7.33 11.32 7.66 12 8 C11.34 11.3 10.68 14.6 10 18 C11.36125 17.9690625 11.36125 17.9690625 12.75 17.9375 C16 18 16 18 18.1875 18.5625 C20.2175204 19.22193706 20.2175204 19.22193706 23 18 C23 18.66 23 19.32 23 20 C17.3904532 22.8047734 9.00728223 20.88996774 3 20 C3 19.34 3 18.68 3 18 C1.35 18 -0.3 18 -2 18 C-2.99 15.69 -3.98 13.38 -5 11 C-5.72316406 12.46373047 -5.72316406 12.46373047 -6.4609375 13.95703125 C-7.09885158 15.24224049 -7.73687831 16.52739382 -8.375 17.8125 C-8.69210938 18.45509766 -9.00921875 19.09769531 -9.3359375 19.75976562 C-10.76458611 22.63194461 -12.21785473 25.3267821 -14 28 C-14.05399736 26.54207116 -14.09279177 25.08357288 -14.125 23.625 C-14.15980469 22.40683594 -14.15980469 22.40683594 -14.1953125 21.1640625 C-14 19 -14 19 -12 17 C-11.67 17.33 -11.34 17.66 -11 18 C-10.60167969 17.21753906 -10.20335937 16.43507813 -9.79296875 15.62890625 C-8.99826172 14.11103516 -8.99826172 14.11103516 -8.1875 12.5625 C-7.66542969 11.55316406 -7.14335938 10.54382813 -6.60546875 9.50390625 C-5 7 -5 7 -2 6 C-0.77479736 2.99152582 -0.77479736 2.99152582 0 0 Z " fill="#90908F" transform="translate(49,99)"/>
<path d="M0 0 C0.83015625 0.42925781 1.6603125 0.85851562 2.515625 1.30078125 C4.61576338 2.60418881 6.17928789 3.78530644 7.75 5.6875 C7.75 6.3475 7.75 7.0075 7.75 7.6875 C8.513125 7.171875 9.27625 6.65625 10.0625 6.125 C10.949375 5.650625 11.83625 5.17625 12.75 4.6875 C16.43311658 5.91520553 16.82695087 6.95516133 18.81640625 10.203125 C19.38423828 11.12480469 19.95207031 12.04648437 20.53710938 12.99609375 C21.12298828 13.96675781 21.70886719 14.93742187 22.3125 15.9375 C22.90224609 16.89269531 23.49199219 17.84789063 24.09960938 18.83203125 C26.67427346 23.04405282 29.01682444 27.0511906 30.75 31.6875 C31.41 31.6875 32.07 31.6875 32.75 31.6875 C32.75 32.3475 32.75 33.0075 32.75 33.6875 C29.23487657 32.27106248 27.90636263 30.80817892 26.09375 27.51171875 C25.62839844 26.68349609 25.16304687 25.85527344 24.68359375 25.00195312 C24.21050781 24.13505859 23.73742187 23.26816406 23.25 22.375 C19.02759795 14.68148646 19.02759795 14.68148646 13.75 7.6875 C12.76 8.0175 11.77 8.3475 10.75 8.6875 C10.75 10.0075 10.75 11.3275 10.75 12.6875 C8.25935112 13.37457555 6.37113708 13.6875 3.75 13.6875 C4.41 13.0275 5.07 12.3675 5.75 11.6875 C5.89603837 8.72201971 5.89603837 8.72201971 4.75 5.6875 C0.03961773 1.89871426 -3.61613369 0.55692615 -9.57421875 0.58984375 C-10.60224609 0.59306641 -11.63027344 0.59628906 -12.68945312 0.59960938 C-14.29723633 0.61217773 -14.29723633 0.61217773 -15.9375 0.625 C-17.56268555 0.63176758 -17.56268555 0.63176758 -19.22070312 0.63867188 C-21.89719085 0.65046257 -24.57356777 0.66691937 -27.25 0.6875 C-27.25 0.0275 -27.25 -0.6325 -27.25 -1.3125 C-24.8960153 -1.48215655 -22.54186616 -1.6482935 -20.1875 -1.8125 C-18.87652344 -1.9053125 -17.56554687 -1.998125 -16.21484375 -2.09375 C-5.08059565 -2.70805334 -5.08059565 -2.70805334 0 0 Z " fill="#575756" transform="translate(167.25,8.3125)"/>
<path d="M0 0 C0.66 0 1.32 0 2 0 C1.71640113 1.4391134 1.42278601 2.87625518 1.125 4.3125 C0.96257812 5.11300781 0.80015625 5.91351563 0.6328125 6.73828125 C0 9 0 9 -2 12 C-3.40180168 20.27062993 -3.09233523 28.63853159 -3 37 C-2.34 37 -1.68 37 -1 37 C-0.80426392 38.43640171 -0.61872184 39.87419504 -0.4375 41.3125 C-0.33308594 42.11300781 -0.22867188 42.91351563 -0.12109375 43.73828125 C0 46 0 46 -1 49 C-3.375 48.75 -3.375 48.75 -6 48 C-7.25 46.0625 -7.25 46.0625 -8 44 C-8.33 43.34 -8.66 42.68 -9 42 C-7.02 42.66 -5.04 43.32 -3 44 C-3.50712033 40.28111761 -4.11608215 37.26545761 -6 34 C-6.66 34 -7.32 34 -8 34 C-7.87882812 33.45214844 -7.75765625 32.90429688 -7.6328125 32.33984375 C-6.51107444 27.03315984 -5.70420665 21.76210038 -5.0625 16.375 C-3.40893271 3.40893271 -3.40893271 3.40893271 0 0 Z " fill="#535353" transform="translate(95,75)"/>
<path d="M0 0 C0.66 0.33 1.32 0.66 2 1 C2.625 3.0625 2.625 3.0625 3 5 C5.97 5.495 5.97 5.495 9 6 C8.01 9.96 7.02 13.92 6 18 C0 17 0 17 -3 15 C-3.49541037 9.94681424 -2.62545156 5.78073989 -1 1 C-0.67 0.67 -0.34 0.34 0 0 Z " fill="#030303" transform="translate(51,99)"/>
<path d="M0 0 C0 3 0 3 -1.86328125 5.26171875 C-2.67152344 6.06222656 -3.47976562 6.86273438 -4.3125 7.6875 C-5.11300781 8.49574219 -5.91351563 9.30398437 -6.73828125 10.13671875 C-9 12 -9 12 -12 12 C-12 13.98 -12 15.96 -12 18 C-9.525 15.525 -9.525 15.525 -7 13 C-8.04812909 15.1768835 -9.10324598 17.14626514 -10.5 19.125 C-12.63877651 23.22432165 -13.25183439 27.46699661 -14 32 C-15.37523135 31.85636473 -16.75017402 31.70996483 -18.125 31.5625 C-18.95386719 31.47742188 -19.78273437 31.39234375 -20.63671875 31.3046875 C-23 31 -23 31 -25.9375 30.1875 C-30.04837743 29.93581363 -32.84660057 31.37084861 -36.53515625 33.08984375 C-39.19199005 34.07089332 -41.19171564 34.1651932 -44 34 C-40.98509443 31.99006295 -38.7850073 31.27376659 -35.3125 30.375 C-33.82169922 29.98441406 -33.82169922 29.98441406 -32.30078125 29.5859375 C-31.54152344 29.39257812 -30.78226563 29.19921875 -30 29 C-30 28.34 -30 27.68 -30 27 C-31.32 26.34 -32.64 25.68 -34 25 C-31.12862585 25 -28.7696959 25.27113266 -26 26 C-25.67 26.66 -25.34 27.32 -25 28 C-22.65092125 28.68931344 -22.65092125 28.68931344 -19.9375 29.125 C-19.01839844 29.29257813 -18.09929687 29.46015625 -17.15234375 29.6328125 C-16.44207031 29.75398438 -15.73179687 29.87515625 -15 30 C-14.90912109 28.08574219 -14.90912109 28.08574219 -14.81640625 26.1328125 C-14.73200432 24.46352984 -14.64735614 22.79425963 -14.5625 21.125 C-14.52318359 20.28324219 -14.48386719 19.44148438 -14.44335938 18.57421875 C-14.40146484 17.76855469 -14.35957031 16.96289062 -14.31640625 16.1328125 C-14.27974854 15.38918457 -14.24309082 14.64555664 -14.20532227 13.87939453 C-14 12 -14 12 -13 10 C-12.41734375 9.88785156 -11.8346875 9.77570313 -11.234375 9.66015625 C-8.05068546 8.7195207 -6.5270632 6.81502188 -4.25 4.4375 C-3.05117187 3.19806641 -3.05117187 3.19806641 -1.828125 1.93359375 C-1.22484375 1.29550781 -0.6215625 0.65742188 0 0 Z " fill="#70706F" transform="translate(207,143)"/>
<path d="M0 0 C0.66 0.33 1.32 0.66 2 1 C2.703125 3.8359375 2.703125 3.8359375 3.25 7.375 C3.44078125 8.53773437 3.6315625 9.70046875 3.828125 10.8984375 C4 14 4 14 2 17 C-1.125 17.1875 -1.125 17.1875 -4 17 C-5.9078584 13.8250906 -6.1609041 11.89414789 -5.625 8.25 C-5.51414062 7.45078125 -5.40328125 6.6515625 -5.2890625 5.828125 C-5.19367188 5.22484375 -5.09828125 4.6215625 -5 4 C-3.35 3.34 -1.7 2.68 0 2 C0 1.34 0 0.68 0 0 Z " fill="#EFEFEE" transform="translate(106,82)"/>
<path d="M0 0 C0.54527344 0.19335938 1.09054688 0.38671875 1.65234375 0.5859375 C7.0438052 2.44760453 12.40921726 3.87655666 18 5 C18 5.66 18 6.32 18 7 C16.68 7.33 15.36 7.66 14 8 C14 8.66 14 9.32 14 10 C11.89590361 10.02701408 9.79170822 10.04640223 7.6875 10.0625 C6.51574219 10.07410156 5.34398438 10.08570313 4.13671875 10.09765625 C1 10 1 10 -2 9 C-2 8.34 -2 7.68 -2 7 C-1.34 6.67 -0.68 6.34 0 6 C0 4.02 0 2.04 0 0 Z " fill="#F8F8F7" transform="translate(115,145)"/>
<path d="M0 0 C0 2.31 0 4.62 0 7 C0.66 7 1.32 7 2 7 C2 7.99 2 8.98 2 10 C2.60328125 9.77183594 3.2065625 9.54367187 3.828125 9.30859375 C4.62734375 9.02113281 5.4265625 8.73367188 6.25 8.4375 C7.03890625 8.14746094 7.8278125 7.85742188 8.640625 7.55859375 C11.19103452 6.95477163 12.55322229 7.1526068 15 8 C10 9.66666667 5 11.33333333 0 13 C-0.66 9.7 -1.32 6.4 -2 3 C-12.56 3 -23.12 3 -34 3 C-33.34 5.97 -32.68 8.94 -32 12 C-35.96923077 7.65865385 -35.96923077 7.65865385 -36.125 4.32421875 C-36.063125 3.17373047 -36.063125 3.17373047 -36 2 C-31.67681133 1.71308465 -27.3534879 1.42831943 -23.0300293 1.14550781 C-21.56058976 1.04908747 -20.09118801 0.95208939 -18.62182617 0.85449219 C-16.50449239 0.71395801 -14.38702945 0.57553202 -12.26953125 0.4375 C-10.36071167 0.31181641 -10.36071167 0.31181641 -8.41333008 0.18359375 C-5.59805949 0.03216799 -2.81793516 -0.03766664 0 0 Z " fill="#7E585D" transform="translate(78,4)"/>
<path d="M0 0 C2.37339853 1.85744232 2.9940468 2.97847688 3.8125 5.9375 C4.00613718 9.10024068 3.70401547 10.39385869 2 13 C3.98 13 5.96 13 8 13 C8 13.33 8 13.66 8 14 C6.35 14 4.7 14 3 14 C3 14.99 3 15.98 3 17 C1.68 17.33 0.36 17.66 -1 18 C-1 18.66 -1 19.32 -1 20 C1.475 20.99 1.475 20.99 4 22 C4 22.99 4 23.98 4 25 C-1.31427203 22.29076328 -4.42148591 19.77135213 -8 15 C-3.25 11 -3.25 11 -1 11 C-1 10.34 -1 9.68 -1 9 C-0.34 8.67 0.32 8.34 1 8 C0.67 5.36 0.34 2.72 0 0 Z " fill="#424242" transform="translate(155,164)"/>
<path d="M0 0 C6.15234375 0.5859375 6.15234375 0.5859375 8 1 C8.33 1.66 8.66 2.32 9 3 C8.01 3 7.02 3 6 3 C7.65 3.99 9.3 4.98 11 6 C10.34 7.32 9.68 8.64 9 10 C8.34 10 7.68 10 7 10 C5.47508002 13.04983996 5.76437452 15.6423369 6 19 C7.1635633 20.79908043 7.1635633 20.79908043 9 22 C11.18139999 22.36191678 11.18139999 22.36191678 13.5 22.1875 C14.2734375 22.16042969 15.046875 22.13335937 15.84375 22.10546875 C16.91109375 22.05326172 16.91109375 22.05326172 18 22 C18.99 22 19.98 22 21 22 C17.95956628 25.04043372 15.3280768 25.36993807 11.09765625 25.49609375 C7.88107614 24.73537555 6.25896739 23.38816309 4 21 C3.6171875 17.87109375 3.6171875 17.87109375 3.875 14.4375 C4.3930008 10.00327918 4.3930008 10.00327918 2.64453125 6.171875 C0.83946233 4.88560261 -0.97882907 3.90604214 -3 3 C-1.68 2.67 -0.36 2.34 1 2 C0.67 1.34 0.34 0.68 0 0 Z " fill="#4B4B4A" transform="translate(130,108)"/>
<path d="M0 0 C0.33 0 0.66 0 1 0 C1.309375 1.11375 1.61875 2.2275 1.9375 3.375 C2.82326483 6.7945155 2.82326483 6.7945155 4 9 C4.07033769 10.87379605 4.0843022 12.75001102 4.0625 14.625 C4.05347656 15.62789062 4.04445313 16.63078125 4.03515625 17.6640625 C4.02355469 18.43492188 4.01195313 19.20578125 4 20 C3.67 20 3.34 20 3 20 C2.67 16.7 2.34 13.4 2 10 C1.34 10 0.68 10 0 10 C-0.04125 10.969375 -0.0825 11.93875 -0.125 12.9375 C-0.81316152 18.10400494 -3.96656307 21.9090346 -7 26 C-8.1875 24.3125 -8.1875 24.3125 -9 22 C-7.73046875 19.64453125 -7.73046875 19.64453125 -6 17 C-5.36479388 14.9166285 -4.80225637 12.80977762 -4.3125 10.6875 C-4.06113281 9.61886719 -3.80976562 8.55023438 -3.55078125 7.44921875 C-3.36902344 6.64097656 -3.18726562 5.83273438 -3 5 C-2.34 5 -1.68 5 -1 5 C-0.67 3.35 -0.34 1.7 0 0 Z " fill="#959594" transform="translate(80,91)"/>
<path d="M0 0 C1.44319692 0.90767102 2.87934106 1.82656106 4.3125 2.75 C5.11300781 3.26046875 5.91351563 3.7709375 6.73828125 4.296875 C9.02830004 6.02131057 10.48763667 7.57432634 12 10 C11.9375 12.125 11.9375 12.125 11 14 C8.9375 15.25 8.9375 15.25 7 16 C1.88059578 12.09308626 1.16585054 8.50962258 0.26171875 2.23046875 C0.17535156 1.49441406 0.08898437 0.75835937 0 0 Z " fill="#F9F9F8" transform="translate(117,129)"/>
<path d="M0 0 C5.34579439 -0.48598131 5.34579439 -0.48598131 8.1875 1.625 C10.94485274 5.23808291 13 8.38444896 13 13 C9.23009371 12.27501802 6.18510352 11.16858112 3 9 C1.60891749 6.08855222 0.74871628 3.13278654 0 0 Z " fill="#F0F0EF" transform="translate(149,86)"/>
<path d="M0 0 C2.62880746 1.04237046 3.12147919 2.09402427 4.33203125 4.61328125 C4.67878906 5.30035156 5.02554688 5.98742188 5.3828125 6.6953125 C6.01953125 8.80078125 6.01953125 8.80078125 5.01953125 12.80078125 C-0.92046875 11.31578125 -0.92046875 11.31578125 -6.98046875 9.80078125 C-6.98046875 9.14078125 -6.98046875 8.48078125 -6.98046875 7.80078125 C-5.99046875 7.47078125 -5.00046875 7.14078125 -3.98046875 6.80078125 C-3.98046875 4.82078125 -3.98046875 2.84078125 -3.98046875 0.80078125 C-1.98046875 -0.19921875 -1.98046875 -0.19921875 0 0 Z " fill="#979796" transform="translate(124.98046875,56.19921875)"/>
<path d="M0 0 C4.50039375 2.18200909 7.03281655 5.25258045 10.15234375 9.0234375 C11.97266016 10.97075273 13.65954605 12.14703341 15.9375 13.5 C19 16 19 16 19.4375 18.08203125 C19.4375 20.3125 19.4375 20.3125 19 24 C18.5875 23.443125 18.175 22.88625 17.75 22.3125 C15.87611829 19.83629917 13.96983356 17.40073465 12 15 C11.54625 14.4225 11.0925 13.845 10.625 13.25 C8.25947338 11.43036414 5.91348965 11.32372107 3 11 C3.66 12.98 4.32 14.96 5 17 C3.68 15.68 2.36 14.36 1 13 C1.66 11.68 2.32 10.36 3 9 C4.65 9 6.3 9 8 9 C7.4225 8.51789063 6.845 8.03578125 6.25 7.5390625 C5.5075 6.90742187 4.765 6.27578125 4 5.625 C2.88625 4.68527344 2.88625 4.68527344 1.75 3.7265625 C1.1725 3.15679687 0.595 2.58703125 0 2 C0 1.34 0 0.68 0 0 Z " fill="#929291" transform="translate(146,75)"/>
<path d="M0 0 C1.70840281 1.63412443 2.93453047 2.86906094 4 5 C4.66 3.68 5.32 2.36 6 1 C7.125 5.75 7.125 5.75 6 8 C5.34 8 4.68 8 4 8 C4 8.66 4 9.32 4 10 C2.35 10 0.7 10 -1 10 C-0.59007812 10.51949219 -0.18015625 11.03898437 0.2421875 11.57421875 C4.3881021 16.94010343 7.4016502 20.97112143 7 28 C5.33282023 25.49923035 4.30216755 23.43385112 3.1875 20.6875 C0.94046189 15.52015394 -2.01925972 11.98074028 -6 8 C-5.34 7.34 -4.68 6.68 -4 6 C-4.33 5.34 -4.66 4.68 -5 4 C-4.1028125 4.4640625 -4.1028125 4.4640625 -3.1875 4.9375 C-0.91043228 6.10209704 -0.91043228 6.10209704 2 7 C1.34 4.69 0.68 2.38 0 0 Z " fill="#6D6D6D" transform="translate(160,92)"/>
<path d="M0 0 C0.33 0.66 0.66 1.32 1 2 C0.4740625 3.1446875 0.4740625 3.1446875 -0.0625 4.3125 C-1.30261715 7.01054654 -1.30261715 7.01054654 -0.125 9.8125 C0.24625 10.534375 0.6175 11.25625 1 12 C-1.64 11.01 -4.28 10.02 -7 9 C-6.67 11.97 -6.34 14.94 -6 18 C-8.83374881 14.79663178 -9.5205537 12.21912747 -10 8 C-10.598125 7.87625 -11.19625 7.7525 -11.8125 7.625 C-14 7 -14 7 -17 5 C-15.66195312 5.08701172 -15.66195312 5.08701172 -14.296875 5.17578125 C-13.12640625 5.22089844 -11.9559375 5.26601562 -10.75 5.3125 C-9.00976562 5.39951172 -9.00976562 5.39951172 -7.234375 5.48828125 C-3.80186373 5.30608847 -3.80186373 5.30608847 -1.578125 2.48046875 C-0.79695312 1.25263672 -0.79695312 1.25263672 0 0 Z " fill="#686867" transform="translate(160,144)"/>
<path d="M0 0 C-0.32654654 5.79901622 -0.63008224 10.09830144 -4 15 C-3.67 15.66 -3.34 16.32 -3 17 C-4.31200404 18.35432675 -5.64631404 19.68733482 -7 21 C-7.33 21 -7.66 21 -8 21 C-8.58169692 14.45590963 -6.81242944 8.90704243 -4 3 C-1.41666667 0 -1.41666667 0 0 0 Z " fill="#0D0D0D" transform="translate(76,98)"/>
<path d="M0 0 C-0.350625 0.70125 -0.70125 1.4025 -1.0625 2.125 C-2.1639193 5.50268586 -1.79516141 7.58080593 -1 11 C-0.34 11 0.32 11 1 11 C1.28571429 19.57142857 1.28571429 19.57142857 -1 23 C-2.65376711 21.34623289 -2.63471208 19.19051636 -3.0625 16.9375 C-3.23910156 16.01839844 -3.41570312 15.09929687 -3.59765625 14.15234375 C-3.73042969 13.44207031 -3.86320312 12.73179688 -4 12 C-5.98 12.99 -5.98 12.99 -8 14 C-7.67 13.2575 -7.34 12.515 -7 11.75 C-5.77217129 8.86116688 -5.77217129 8.86116688 -6 5 C-5.34 5 -4.68 5 -4 5 C-4 3.68 -4 2.36 -4 1 C-2 0 -2 0 0 0 Z " fill="#616161" transform="translate(111,71)"/>
<path d="M0 0 C2.97 0.33 5.94 0.66 9 1 C9 1.33 9 1.66 9 2 C7.35 2.33 5.7 2.66 4 3 C6.97 3.33 9.94 3.66 13 4 C11 6 11 6 8.6171875 6.1953125 C7.71226563 6.17210937 6.80734375 6.14890625 5.875 6.125 C4.50988281 6.09792969 4.50988281 6.09792969 3.1171875 6.0703125 C2.41851562 6.04710937 1.71984375 6.02390625 1 6 C-0.852405 13.29384468 -2.43589932 19.91345764 1 27 C-2 26 -2 26 -3.19921875 24.19140625 C-5.4779228 17.9555381 -2.40649046 10.35892207 -0.62109375 4.28515625 C0.08742661 2.0730123 0.08742661 2.0730123 0 0 Z " fill="#626261" transform="translate(95,147)"/>
<path d="M0 0 C0 3 0 3 -1 6.4375 C-2.18017093 10.02516059 -2.18017093 10.02516059 -2 14 C3.94 15.485 3.94 15.485 10 17 C10 18.65 10 20.3 10 22 C8.34912153 21.40975852 6.70437593 20.80233994 5.0625 20.1875 C4.14597656 19.85105469 3.22945312 19.51460937 2.28515625 19.16796875 C0 18 0 18 -1 15 C-1.7425 14.855625 -2.485 14.71125 -3.25 14.5625 C-5.52027739 14.09812508 -7.75759479 13.58136431 -10 13 C-10 12.34 -10 11.68 -10 11 C-7.03 11.495 -7.03 11.495 -4 12 C-3.8453125 10.14375 -3.8453125 10.14375 -3.6875 8.25 C-3.26198318 4.7207134 -2.51887408 2.62839034 0 0 Z " fill="#473C3C" transform="translate(210,85)"/>
<path d="M0 0 C0.928125 0.2784375 0.928125 0.2784375 1.875 0.5625 C4.04160178 1.23686176 4.04160178 1.23686176 6 0 C6.4125 0.825 6.825 1.65 7.25 2.5 C8.11625 3.7375 8.11625 3.7375 9 5 C10.32 5 11.64 5 13 5 C15.125 7.4375 15.125 7.4375 17 10 C17.66 10.33 18.32 10.66 19 11 C19 11.66 19 12.32 19 13 C16 14 16 14 14.0625 13.1875 C13.381875 12.795625 12.70125 12.40375 12 12 C11.34 11.7525 10.68 11.505 10 11.25 C7.12485535 9.45303459 5.86432883 6.79649324 4 4 C1.89960669 2.61131484 1.89960669 2.61131484 0 2 C0 1.34 0 0.68 0 0 Z " fill="#2D2D2D" transform="translate(140,115)"/>
<path d="M0 0 C3 0 3 0 5 1 C4.67 2.98 4.34 4.96 4 7 C3.34 7 2.68 7 2 7 C1.67 8.32 1.34 9.64 1 11 C0.34 11 -0.32 11 -1 11 C-3.58778328 14.58564316 -4.70021866 18.03428085 -5.6875 22.3125 C-5.93886719 23.38113281 -6.19023438 24.44976562 -6.44921875 25.55078125 C-6.63097656 26.35902344 -6.81273438 27.16726562 -7 28 C-7.66 28 -8.32 28 -9 28 C-9.66 26.68 -10.32 25.36 -11 24 C-10.01 24 -9.02 24 -8 24 C-7.98582031 23.25234375 -7.97164063 22.5046875 -7.95703125 21.734375 C-7.81245236 18.74901637 -7.59799638 15.93018228 -7 13 C-4.5625 10.875 -4.5625 10.875 -2 9 C-0.97564298 6.05109344 -0.44171391 3.08540459 0 0 Z " fill="#484847" transform="translate(75,89)"/>
<path d="M0 0 C0.33 0 0.66 0 1 0 C0.67 6.27 0.34 12.54 0 19 C-4 17 -4 17 -6 15 C-6.28875 13.845 -6.5775 12.69 -6.875 11.5 C-7.62333545 7.93623752 -7.62333545 7.93623752 -10.125 6.5625 C-10.74375 6.376875 -11.3625 6.19125 -12 6 C-11.01 5.67 -10.02 5.34 -9 5 C-8.34 5.33 -7.68 5.66 -7 6 C-7 6.99 -7 7.98 -7 9 C-5.02 9.66 -3.04 10.32 -1 11 C-1.01160156 10.37351563 -1.02320313 9.74703125 -1.03515625 9.1015625 C-1.04417969 8.28429687 -1.05320313 7.46703125 -1.0625 6.625 C-1.07410156 5.81289062 -1.08570313 5.00078125 -1.09765625 4.1640625 C-1 2 -1 2 0 0 Z " fill="#A6A6A5" transform="translate(167,118)"/>
<path d="M0 0 C1.98 0 3.96 0 6 0 C5.67 1.65 5.34 3.3 5 5 C6.32 5 7.64 5 9 5 C9.33 6.65 9.66 8.3 10 10 C7.69 10.33 5.38 10.66 3 11 C0 4.5 0 4.5 0 0 Z " fill="#F0F0EF" transform="translate(59,51)"/>
<path d="M0 0 C3.3 0 6.6 0 10 0 C7.1709277 2.8290723 6.61855575 3.37611108 3 4 C2.896875 4.721875 2.79375 5.44375 2.6875 6.1875 C1.93206053 9.27793421 0.84468685 11.41743841 -1 14 C-1.66 14 -2.32 14 -3 14 C-2.58846263 9.02906176 -2.20399168 4.55491614 0 0 Z " fill="#080808" transform="translate(96,153)"/>
<path d="M0 0 C0 0.66 0 1.32 0 2 C-3.96 2.99 -7.92 3.98 -12 5 C-12 6.32 -12 7.64 -12 9 C-13.485 8.6596875 -13.485 8.6596875 -15 8.3125 C-20.72768151 7.50088521 -25.16591541 9.80385788 -29.875 12.875 C-32.15126876 15.15126876 -33.06634709 16.94440866 -34 20 C-34.75 18.3125 -34.75 18.3125 -35 16 C-29.91947152 6.56473283 -14.79175106 3.48727073 -5.19921875 0.55078125 C-3 0 -3 0 0 0 Z " fill="#656565" transform="translate(123,20)"/>
<path d="M0 0 C-1.45459431 1.64913882 -2.91379257 3.29421782 -4.375 4.9375 C-5.18710938 5.85402344 -5.99921875 6.77054688 -6.8359375 7.71484375 C-9 10 -9 10 -11 11 C-11.66 10.67 -12.32 10.34 -13 10 C-12.67 7.69 -12.34 5.38 -12 3 C-10.3789897 2.30314502 -8.75303934 1.61777139 -7.125 0.9375 C-6.22007813 0.55464844 -5.31515625 0.17179688 -4.3828125 -0.22265625 C-2 -1 -2 -1 0 0 Z " fill="#171717" transform="translate(128,186)"/>
<path d="M0 0 C0.99 0.33 1.98 0.66 3 1 C2.34 1.66 1.68 2.32 1 3 C0.57511737 5.36590469 0.57511737 5.36590469 0.4375 8 C0.09491525 12.81016949 0.09491525 12.81016949 -1 15 C-1.99 15 -2.98 15 -4 15 C-4.2475 15.5775 -4.495 16.155 -4.75 16.75 C-6.16683317 19.3002997 -7.87627537 21.01785701 -10 23 C-9.62727321 20.31636712 -9.3456216 18.44207414 -7.65625 16.28125 C-5.50733795 13.32142775 -4.19574998 10.11078513 -2.8125 6.75 C-2.40354492 5.77546875 -2.40354492 5.77546875 -1.98632812 4.78125 C-1.31923158 3.18958104 -0.65892555 1.59506897 0 0 Z " fill="#1C1C1C" transform="translate(125,156)"/>
<path d="M0 0 C8.62429332 3.72942414 15.84487277 13.38566667 21 21 C21.71875 23.29296875 21.71875 23.29296875 22 25 C19.78482941 22.86394265 17.8145942 20.75841063 15.9375 18.3125 C14.13853096 15.75501175 14.13853096 15.75501175 11 15 C10.67 14.01 10.34 13.02 10 12 C7.03 11.505 7.03 11.505 4 11 C4 10.34 4 9.68 4 9 C4.99 8.67 5.98 8.34 7 8 C6.4946875 7.59007812 5.989375 7.18015625 5.46875 6.7578125 C4.8190625 6.21898437 4.169375 5.68015625 3.5 5.125 C2.8503125 4.59132813 2.200625 4.05765625 1.53125 3.5078125 C1.0259375 3.01023438 0.520625 2.51265625 0 2 C0 1.34 0 0.68 0 0 Z " fill="#8A8A89" transform="translate(111,29)"/>
<path d="M0 0 C0.721875 0.185625 1.44375 0.37125 2.1875 0.5625 C5.16662935 1.02592012 7.08993911 0.67155251 10 0 C11.32 0 12.64 0 14 0 C14 0.66 14 1.32 14 2 C10.37 3.98 6.74 5.96 3 8 C0.4345406 5.4345406 0.45953913 3.52313332 0 0 Z " fill="#474746" transform="translate(138,186)"/>
<path d="M0 0 C2.74908569 1.37454285 2.92602967 2.82654665 4.05859375 5.65625 C4.44466797 6.59597656 4.83074219 7.53570313 5.22851562 8.50390625 C6.03395936 10.49994938 6.83604952 12.49734905 7.63476562 14.49609375 C8.21581055 15.90568359 8.21581055 15.90568359 8.80859375 17.34375 C9.15720459 18.21193359 9.50581543 19.08011719 9.86499023 19.97460938 C10.8905547 22.33740829 10.8905547 22.33740829 14 23 C17.18288354 21.12821884 17.18288354 21.12821884 20 19 C20.66 19.33 21.32 19.66 22 20 C20.57277341 21.1998278 19.13284224 22.3845576 17.6875 23.5625 C16.88699219 24.22378906 16.08648437 24.88507812 15.26171875 25.56640625 C14.51535156 26.03949219 13.76898438 26.51257813 13 27 C10 26 10 26 8.28125 22.75390625 C7.67482258 21.36222661 7.08176138 19.96466979 6.5 18.5625 C6.03871704 17.4806543 6.03871704 17.4806543 5.56811523 16.37695312 C3.32527038 11.02426128 1.42170208 5.63264824 0 0 Z " fill="#743A41" transform="translate(46,17)"/>
<path d="M0 0 C0.33 0 0.66 0 1 0 C1.33 2.31 1.66 4.62 2 7 C1.01 7 0.02 7 -1 7 C-1 7.66 -1 8.32 -1 9 C2.3 9.33 5.6 9.66 9 10 C8.01 11.485 8.01 11.485 7 13 C4.90625 13.36328125 4.90625 13.36328125 2.5 13.3125 C1.7059375 13.30863281 0.911875 13.30476562 0.09375 13.30078125 C-2 13 -2 13 -4 11 C-3.46428571 7.46428571 -3.46428571 7.46428571 -2 6 C-2.66 5.34 -3.32 4.68 -4 4 C-2.68 4 -1.36 4 0 4 C0 2.68 0 1.36 0 0 Z " fill="#636362" transform="translate(114,145)"/>
<path d="M0 0 C0.66 0.33 1.32 0.66 2 1 C0.71078784 3.60540782 -0.58125596 6.20934373 -1.875 8.8125 C-2.23980469 9.55048828 -2.60460937 10.28847656 -2.98046875 11.04882812 C-3.51220703 12.11713867 -3.51220703 12.11713867 -4.0546875 13.20703125 C-4.54171143 14.18893433 -4.54171143 14.18893433 -5.03857422 15.19067383 C-6 17 -6 17 -8 20 C-8.66 19.67 -9.32 19.34 -10 19 C-8.68 17.02 -7.36 15.04 -6 13 C-6.33 12.67 -6.66 12.34 -7 12 C-7.99 12.33 -8.98 12.66 -10 13 C-11.21869929 15.50447516 -11.21869929 15.50447516 -12 18 C-12.33 17.34 -12.66 16.68 -13 16 C-12.10085301 14.48943306 -11.18003899 12.99174571 -10.25 11.5 C-9.73953125 10.6646875 -9.2290625 9.829375 -8.703125 8.96875 C-8.14109375 8.3190625 -7.5790625 7.669375 -7 7 C-5.68 7 -4.36 7 -3 7 C-2.01 4.69 -1.02 2.38 0 0 Z " fill="#777877" transform="translate(81,128)"/>
<path d="M0 0 C2.29509678 2.29509678 2.34320339 3.28600344 3 6.375 C3.92481477 9.23643182 4.45522581 10.62777381 6.9609375 12.33984375 C9.61125305 13.40768933 12.24904331 14.22584334 15 15 C16.17046875 15.36996094 17.3409375 15.73992187 18.546875 16.12109375 C21.68942461 17.11257501 24.8392188 18.06860993 28 19 C28 19.33 28 19.66 28 20 C21.68557993 19.50475137 16.06745624 17.89742287 10.05078125 15.9375 C7.37082251 15.11395314 4.7572356 14.49108463 2 14 C1.66179834 12.4176994 1.32964061 10.83410625 1 9.25 C0.814375 8.36828125 0.62875 7.4865625 0.4375 6.578125 C0 4 0 4 0 0 Z " fill="#70706F" transform="translate(135,58)"/>
<path d="M0 0 C1.67223853 2.15002097 3.16753165 4.28145317 4.5625 6.625 C5.91692163 9.07611371 5.91692163 9.07611371 8 11 C6.73160474 11.50615298 5.46016898 12.00469099 4.1875 12.5 C3.47980469 12.7784375 2.77210937 13.056875 2.04296875 13.34375 C0 14 0 14 -3 14 C-2.67 13.01 -2.34 12.02 -2 11 C-1.34 11 -0.68 11 0 11 C-0.185625 10.113125 -0.37125 9.22625 -0.5625 8.3125 C-0.98042484 5.14821189 -0.80777742 3.05160358 0 0 Z " fill="#CBCBCA" transform="translate(83,111)"/>
<path d="M0 0 C4.29 0 8.58 0 13 0 C13.66 1.32 14.32 2.64 15 4 C14.360625 4.103125 13.72125 4.20625 13.0625 4.3125 C12.381875 4.539375 11.70125 4.76625 11 5 C10.67 5.99 10.34 6.98 10 8 C9.67 6.68 9.34 5.36 9 4 C7.02 4 5.04 4 3 4 C3 3.34 3 2.68 3 2 C2.01 1.34 1.02 0.68 0 0 Z " fill="#3A3A39" transform="translate(135,150)"/>
<path d="M0 0 C0.33 0 0.66 0 1 0 C1.02710123 2.5625718 1.04688771 5.12485365 1.0625 7.6875 C1.07087891 8.40873047 1.07925781 9.12996094 1.08789062 9.87304688 C1.10543632 13.71555382 0.93524221 17.26639526 0 21 C-0.99 21.33 -1.98 21.66 -3 22 C-3.66 21.01 -4.32 20.02 -5 19 C-4.525625 18.360625 -4.05125 17.72125 -3.5625 17.0625 C-1.8035097 13.61487902 -1.49485958 10.96522221 -1.18359375 7.16015625 C-0.97659903 4.72466516 -0.53808011 2.38292619 0 0 Z " fill="#5B5B5B" transform="translate(80,69)"/>
<path d="M0 0 C0.66 0 1.32 0 2 0 C2 2.97 2 5.94 2 9 C2.66 9 3.32 9 4 9 C3.56826496 15.15222436 2.34594658 18.81917949 -1 24 C-1.33 23.01 -1.66 22.02 -2 21 C-1.69320312 20.39671875 -1.38640625 19.7934375 -1.0703125 19.171875 C0.29754029 16.39623211 0.19824546 14.32630924 0.125 11.25 C0.10695312 10.26515625 0.08890625 9.2803125 0.0703125 8.265625 C0.04710937 7.51796875 0.02390625 6.7703125 0 6 C-0.66 6.66 -1.32 7.32 -2 8 C-1.47731534 5.23723823 -0.89130413 2.6739124 0 0 Z " fill="#464646" transform="translate(177,57)"/>
<path d="M0 0 C0.33 1.98 0.66 3.96 1 6 C0.34 6 -0.32 6 -1 6 C-1 6.66 -1 7.32 -1 8 C1.475 8.99 1.475 8.99 4 10 C4 10.99 4 11.98 4 13 C-3.57142857 8.85714286 -3.57142857 8.85714286 -6 6 C-3.4 0 -3.4 0 0 0 Z " fill="#616160" transform="translate(155,176)"/>
<path d="M0 0 C0.66 0 1.32 0 2 0 C1.71640113 1.4391134 1.42278601 2.87625518 1.125 4.3125 C0.96257812 5.11300781 0.80015625 5.91351563 0.6328125 6.73828125 C0 9 0 9 -2 12 C-2.45394552 14.27912938 -2.45394552 14.27912938 -2.625 16.6875 C-2.69976562 17.49574219 -2.77453125 18.30398437 -2.8515625 19.13671875 C-2.90054688 19.75160156 -2.94953125 20.36648437 -3 21 C-3.33 21 -3.66 21 -4 21 C-4.88299869 15.79030773 -5.29938084 12.85424844 -3 8 C-2.835 6.948125 -2.67 5.89625 -2.5 4.8125 C-2 2 -2 2 0 0 Z " fill="#686868" transform="translate(95,75)"/>
<path d="M0 0 C1.50559539 1.96382007 2.89131683 3.78263366 4 6 C5.32 5.67 6.64 5.34 8 5 C7.67 7.31 7.34 9.62 7 12 C-3.55808656 10.07289294 -3.55808656 10.07289294 -8 8 C-3.99799622 6.39919849 -0.95443764 7.70720308 3 9 C2.505 8.071875 2.01 7.14375 1.5 6.1875 C0 3 0 3 0 0 Z " fill="#898988" transform="translate(171,151)"/>
<path d="M0 0 C2.125 0.375 2.125 0.375 4 1 C4 2.98 4 4.96 4 7 C2.02 7.99 2.02 7.99 0 9 C-2 6 -2 6 -2 2 C-1.34 1.34 -0.68 0.68 0 0 Z " fill="#F6F6F5" transform="translate(175,149)"/>
<path d="M0 0 C2.71345903 0.49909289 5.33418102 1.28065202 8 2 C8.66 4.64 9.32 7.28 10 10 C6.7 8.02 3.4 6.04 0 4 C0.99 3.67 1.98 3.34 3 3 C1.68 2.34 0.36 1.68 -1 1 C-0.67 0.67 -0.34 0.34 0 0 Z " fill="#BEBDBC" transform="translate(135,107)"/>
<path d="M0 0 C1.66666667 0 3.33333333 0 5 0 C5 0.66 5 1.32 5 2 C5.66 2 6.32 2 7 2 C7 2.66 7 3.32 7 4 C6.34 4 5.68 4 5 4 C6.70625501 6.78388975 7.47626739 7.85384206 10.6875 8.75 C11.450625 8.8325 12.21375 8.915 13 9 C13 9.66 13 10.32 13 11 C9.12874073 10.72991214 7.29410641 10.24063252 4.25 7.75 C2.1391002 5.17001135 0.99164258 3.15522638 0 0 Z " fill="#6B6B6B" transform="translate(145,104)"/>
<path d="M0 0 C1.98 0.66 3.96 1.32 6 2 C6.33 3.98 6.66 5.96 7 8 C3.7 7.01 0.4 6.02 -3 5 C-2.01 3.35 -1.02 1.7 0 0 Z " fill="#E9E9E7" transform="translate(131,66)"/>
<path d="M0 0 C1.1577506 3.47325181 1.06866652 6.36067448 1 10 C3.475 10.99 3.475 10.99 6 12 C6.33 11.01 6.66 10.02 7 9 C7.33 9.66 7.66 10.32 8 11 C7.01 12.485 7.01 12.485 6 14 C2.875 14.1875 2.875 14.1875 0 14 C-1.8759207 10.85909063 -2.18257272 8.92116258 -1.6875 5.3125 C-1.58824219 4.52488281 -1.48898438 3.73726563 -1.38671875 2.92578125 C-1 1 -1 1 0 0 Z " fill="#70706F" transform="translate(102,85)"/>
<path d="M0 0 C0.99 0.33 1.98 0.66 3 1 C2.67 3.31 2.34 5.62 2 8 C1.67 8 1.34 8 1 8 C0.67 6.35 0.34 4.7 0 3 C-2.31 6.96 -4.62 10.92 -7 15 C-8 11 -8 11 -6.85546875 8.7109375 C-6.30503906 7.94007812 -5.75460938 7.16921875 -5.1875 6.375 C-4.64480469 5.59898438 -4.10210937 4.82296875 -3.54296875 4.0234375 C-2 2 -2 2 0 0 Z " fill="#202020" transform="translate(45,103)"/>
<path d="M0 0 C0.66 0 1.32 0 2 0 C2.33 0.66 2.66 1.32 3 2 C4.65 1.67 6.3 1.34 8 1 C7.67 1.99 7.34 2.98 7 4 C6.236875 4 5.47375 4 4.6875 4 C1.8993117 4.70180149 1.8993117 4.70180149 1 6.84765625 C0.25331349 8.88309495 -0.41515529 10.91262742 -1 13 C-1.33 13 -1.66 13 -2 13 C-2 3.625 -2 3.625 0 0 Z " fill="#5D5C5C" transform="translate(87,70)"/>
<path d="M0 0 C0 0.99 0 1.98 0 3 C-1.40751221 3.86916887 -2.8264521 4.71985149 -4.25 5.5625 C-5.03890625 6.03816406 -5.8278125 6.51382813 -6.640625 7.00390625 C-9.30844625 8.13022151 -10.34501768 8.0169313 -13 7 C-11.59310148 5.82157218 -10.17406375 4.65762602 -8.75 3.5 C-7.96109375 2.8503125 -7.1721875 2.200625 -6.359375 1.53125 C-4 0 -4 0 0 0 Z " fill="#B7B7B6" transform="translate(134,179)"/>
<path d="M0 0 C5.78461538 4.30769231 5.78461538 4.30769231 6.875 7.8125 C6.936875 8.8953125 6.936875 8.8953125 7 10 C5.35 10.33 3.7 10.66 2 11 C1.814375 9.6078125 1.814375 9.6078125 1.625 8.1875 C1.18466918 4.86074765 1.18466918 4.86074765 -1 2 C-0.67 1.34 -0.34 0.68 0 0 Z " fill="#818080" transform="translate(159,133)"/>
<path d="M0 0 C1.70840281 1.63412443 2.93453047 2.86906094 4 5 C4.66 3.68 5.32 2.36 6 1 C7.125 5.75 7.125 5.75 6 8 C5.34 8 4.68 8 4 8 C4 8.66 4 9.32 4 10 C1.03 9.505 1.03 9.505 -2 9 C-1.67 8.34 -1.34 7.68 -1 7 C-0.01 7 0.98 7 2 7 C1.34 4.69 0.68 2.38 0 0 Z " fill="#5B5B5A" transform="translate(160,92)"/>
<path d="M0 0 C1.77049689 -0.05410687 3.54146849 -0.09284119 5.3125 -0.125 C6.29863281 -0.14820313 7.28476563 -0.17140625 8.30078125 -0.1953125 C11 0 11 0 14 2 C12.68 2.99 11.36 3.98 10 5 C9.01 4.34 8.02 3.68 7 3 C4.9507906 2.54860541 4.9507906 2.54860541 2.8125 2.375 C1.554375 2.25125 0.29625 2.1275 -1 2 C-0.67 1.34 -0.34 0.68 0 0 Z " fill="#0A0A0A" transform="translate(99,149)"/>
<path d="M0 0 C2.18092036 2.07858979 3.96390469 4.21856618 5.6875 6.6875 C6.12449219 7.31011719 6.56148437 7.93273437 7.01171875 8.57421875 C7.33785156 9.04472656 7.66398438 9.51523438 8 10 C6.10546875 10.55859375 6.10546875 10.55859375 4 11 C2.3125 10.0625 2.3125 10.0625 1 8 C0.45128017 5.31971468 0.22440172 2.73770094 0 0 Z " fill="#E0E0DF" transform="translate(143,103)"/>
<path d="M0 0 C1.32 0.33 2.64 0.66 4 1 C4.28571429 9.57142857 4.28571429 9.57142857 2 13 C0.18884044 11.18884044 0.61800552 8.38721773 0.4375 5.9375 C0.35371094 4.83277344 0.26992187 3.72804688 0.18359375 2.58984375 C0.09271484 1.30787109 0.09271484 1.30787109 0 0 Z " fill="#474747" transform="translate(108,81)"/>
<path d="M0 0 C0.66 0.66 1.32 1.32 2 2 C1.51789062 2.79664062 1.03578125 3.59328125 0.5390625 4.4140625 C-0.40839844 6.00347656 -0.40839844 6.00347656 -1.375 7.625 C-2.00148438 8.66914062 -2.62796875 9.71328125 -3.2734375 10.7890625 C-4.90451153 13.82241736 -6.02076833 16.70622076 -7 20 C-8.37432457 16.18243176 -7.67975039 12.92744671 -7 9 C-6.34 9.33 -5.68 9.66 -5 10 C-3.35 6.7 -1.7 3.4 0 0 Z " fill="#5D5D5D" transform="translate(43,107)"/>
<path d="M0 0 C1.875 0.125 1.875 0.125 4 1 C5.25 4.0625 5.25 4.0625 6 7 C3.625 7.1875 3.625 7.1875 1 7 C-1 4 -1 4 -0.625 1.8125 C-0.41875 1.214375 -0.2125 0.61625 0 0 Z " fill="#FAF9F9" transform="translate(123,58)"/>
<path d="M0 0 C0 0.99 0 1.98 0 3 C-0.66 3.66 -1.32 4.32 -2 5 C-1.67 5.66 -1.34 6.32 -1 7 C-5.38889325 6.33501617 -8.9811485 4.81242323 -13 3 C-12.34 2.34 -11.68 1.68 -11 1 C-9.66666667 1.33333333 -8.33333333 1.66666667 -7 2 C-3.17540324 1.78272212 -3.17540324 1.78272212 0 0 Z " fill="#5E5E5D" transform="translate(128,142)"/>
<path d="M0 0 C0.66 1.32 1.32 2.64 2 4 C0.02 6.97 -1.96 9.94 -4 13 C-4.66 11.68 -5.32 10.36 -6 9 C-4.75 6.25 -4.75 6.25 -3 4 C-2.34 4 -1.68 4 -1 4 C-0.67 2.68 -0.34 1.36 0 0 Z " fill="#60605F" transform="translate(77,104)"/>
<path d="M0 0 C5.78950706 0.77935672 9.22653579 3.66227946 13 8 C14 11.4375 14 11.4375 14 14 C13.34 13.01 12.68 12.02 12 11 C9.36560978 7.36635831 7.06027386 4.97808214 3 3 C2.01 3 1.02 3 0 3 C0 2.01 0 1.02 0 0 Z " fill="#80807F" transform="translate(116,128)"/>
<path d="M0 0 C1.10844919 3.32534757 0.84454356 5.62182575 0 9 C-2.375 8.75 -2.375 8.75 -5 8 C-6.25 6.0625 -6.25 6.0625 -7 4 C-7.33 3.34 -7.66 2.68 -8 2 C-6.02 2.66 -4.04 3.32 -2 4 C-1.34 2.68 -0.68 1.36 0 0 Z " fill="#898989" transform="translate(94,115)"/>
<path d="M0 0 C0.33 0 0.66 0 1 0 C1 1.65 1 3.3 1 5 C0.34 5 -0.32 5 -1 5 C-1.28875 5.969375 -1.5775 6.93875 -1.875 7.9375 C-3 11 -3 11 -5 12 C-4.58720176 6.73682241 -3.70474339 3.82051662 0 0 Z " fill="#030303" transform="translate(75,98)"/>
<path d="M0 0 C2 3.75 2 3.75 2 6 C3.65 5.67 5.3 5.34 7 5 C5.87548273 7.9719385 4.77706209 10.33440687 3 13 C2.34 12.67 1.68 12.34 1 12 C1.66 11.01 2.32 10.02 3 9 C2.525625 8.608125 2.05125 8.21625 1.5625 7.8125 C-0.36708606 5.57418017 -0.69383597 3.90855824 -1 1 C-0.67 0.67 -0.34 0.34 0 0 Z " fill="#666666" transform="translate(115,207)"/>
<path d="M0 0 C0.33 0.66 0.66 1.32 1 2 C1.99 2 2.98 2 4 2 C4 2.66 4 3.32 4 4 C3.01 4 2.02 4 1 4 C0.7525 4.5775 0.505 5.155 0.25 5.75 C-1.16683317 8.3002997 -2.87627537 10.01785701 -5 12 C-4.46231128 8.1286412 -3.422527 6.02815875 -1 3 C-0.67 2.01 -0.34 1.02 0 0 Z " fill="#424242" transform="translate(120,167)"/>
<path d="M0 0 C4.1424367 1.38081223 5.32203099 3.59825558 8 7 C6.68 7.33 5.36 7.66 4 8 C2.02 5.69 0.04 3.38 -2 1 C-1.34 0.67 -0.68 0.34 0 0 Z " fill="#C9C9C7" transform="translate(151,113)"/>
<path d="M0 0 C1.27351308 2.54702616 0.80191925 3.4282945 0.0625 6.125 C-0.13214844 6.84945312 -0.32679687 7.57390625 -0.52734375 8.3203125 C-0.76130859 9.15175781 -0.76130859 9.15175781 -1 10 C-1.99 10 -2.98 10 -4 10 C-4.6875 8.3125 -4.6875 8.3125 -5 6 C-2.73846154 1.36923077 -2.73846154 1.36923077 0 0 Z " fill="#C6C6C5" transform="translate(86,73)"/>
<path d="M0 0 C0.66 0.33 1.32 0.66 2 1 C0.57277341 2.1998278 -0.86715776 3.3845576 -2.3125 4.5625 C-3.51326172 5.55443359 -3.51326172 5.55443359 -4.73828125 6.56640625 C-5.85783203 7.27603516 -5.85783203 7.27603516 -7 8 C-7.99 7.67 -8.98 7.34 -10 7 C-10.33 5.35 -10.66 3.7 -11 2 C-10.29875 2.4125 -9.5975 2.825 -8.875 3.25 C-5.8171056 4.4040702 -5.8171056 4.4040702 -2.6875 2.125 C-1.800625 1.42375 -0.91375 0.7225 0 0 Z " fill="#362223" transform="translate(66,36)"/>
<path d="M0 0 C1.32 0.66 2.64 1.32 4 2 C2 4 2 4 -0.5 4.8125 C-3.23553696 5.79728463 -3.23553696 5.79728463 -4.3125 8.625 C-4.539375 9.40875 -4.76625 10.1925 -5 11 C-5.33 10.34 -5.66 9.68 -6 9 C-4.02 6.03 -2.04 3.06 0 0 Z " fill="#525251" transform="translate(74,135)"/>
<path d="M0 0 C6.15234375 0.5859375 6.15234375 0.5859375 8 1 C8.33 1.66 8.66 2.32 9 3 C7.66666667 3.33333333 6.33333333 3.66666667 5 4 C4.34 4.226875 3.68 4.45375 3 4.6875 C0.41083122 5.09205762 -0.80260379 4.33413341 -3 3 C-1.68 2.67 -0.36 2.34 1 2 C0.67 1.34 0.34 0.68 0 0 Z " fill="#515050" transform="translate(130,108)"/>
<path d="M0 0 C3.3 0 6.6 0 10 0 C10 1.65 10 3.3 10 5 C5.05 3.02 5.05 3.02 0 1 C0 0.67 0 0.34 0 0 Z " fill="#8A656A" transform="translate(210,102)"/>
<path d="M0 0 C3.37503669 1.1858237 5.64722731 2.27573689 8 5 C7.67 5.66 7.34 6.32 7 7 C6.34 6.67 5.68 6.34 5 6 C4.67 6.66 4.34 7.32 4 8 C0 2.25 0 2.25 0 0 Z " fill="#8C8C8B" transform="translate(161,192)"/>
<path d="M0 0 C1.98 0.495 1.98 0.495 4 1 C3.01 1.33 2.02 1.66 1 2 C1 2.99 1 3.98 1 5 C2.32 5.66 3.64 6.32 5 7 C4.01 7 3.02 7 2 7 C2.33 7.99 2.66 8.98 3 10 C1.68 9.34 0.36 8.68 -1 8 C-0.67 5.36 -0.34 2.72 0 0 Z " fill="#333332" transform="translate(166,137)"/>
<path d="M0 0 C1.508013 0.92455559 3.00624917 1.8650747 4.5 2.8125 C5.75296875 3.59560547 5.75296875 3.59560547 7.03125 4.39453125 C7.6809375 4.92433594 8.330625 5.45414063 9 6 C9 9.10551666 8.4606285 10.35261084 7 13 C7 10.69 7 8.38 7 6 C6.21625 5.7525 5.4325 5.505 4.625 5.25 C1.6083499 3.81349995 1.28434435 2.95279169 0 0 Z " fill="#262626" transform="translate(106,136)"/>
<path d="M0 0 C2.475 0.99 2.475 0.99 5 2 C5 3.32 5 4.64 5 6 C4.01 6.495 4.01 6.495 3 7 C1.68 5.68 0.36 4.36 -1 3 C-0.67 2.01 -0.34 1.02 0 0 Z " fill="#BEBEBD" transform="translate(109,120)"/>
<path d="M0 0 C0.78375 0.04125 1.5675 0.0825 2.375 0.125 C2.375 2.435 2.375 4.745 2.375 7.125 C3.035 7.455 3.695 7.785 4.375 8.125 C3.385 9.61 3.385 9.61 2.375 11.125 C1.715 8.485 1.055 5.845 0.375 3.125 C-1.275 2.795 -2.925 2.465 -4.625 2.125 C-2.625 0.125 -2.625 0.125 0 0 Z " fill="#341F20" transform="translate(75.625,3.875)"/>
<path d="M0 0 C2.97 0.495 2.97 0.495 6 1 C5.1875 2.9375 5.1875 2.9375 4 5 C3.01 5.33 2.02 5.66 1 6 C0.67 4.02 0.34 2.04 0 0 Z " fill="#9A9A99" transform="translate(138,186)"/>
<path d="M0 0 C0.33 0 0.66 0 1 0 C1.13277344 0.68707031 1.26554687 1.37414062 1.40234375 2.08203125 C1.57894531 2.98308594 1.75554687 3.88414062 1.9375 4.8125 C2.11152344 5.70582031 2.28554687 6.59914062 2.46484375 7.51953125 C2.97741153 10.11397171 2.97741153 10.11397171 4 13 C1 12 1 12 -0.25 10.4375 C-1.3813806 6.76051305 -0.62965552 3.7779331 0 0 Z " fill="#C8C8C7" transform="translate(92,161)"/>
<path d="M0 0 C2.31 0.33 4.62 0.66 7 1 C7 1.66 7 2.32 7 3 C6.34 3 5.68 3 5 3 C4.67 3.66 4.34 4.32 4 5 C2.68 4.34 1.36 3.68 0 3 C0 2.01 0 1.02 0 0 Z " fill="#B5B5B4" transform="translate(167,139)"/>
<path d="M0 0 C5.51276102 -0.12529002 5.51276102 -0.12529002 8.1875 0.5625 C10.2175204 1.22193706 10.2175204 1.22193706 13 0 C13 0.66 13 1.32 13 2 C10.47524538 3.26237731 8.68799534 3.09856404 5.875 3.0625 C4.96492188 3.05347656 4.05484375 3.04445313 3.1171875 3.03515625 C2.41851562 3.02355469 1.71984375 3.01195313 1 3 C0.67 2.01 0.34 1.02 0 0 Z " fill="#6A6A69" transform="translate(59,117)"/>
<path d="M0 0 C-0.33 1.32 -0.66 2.64 -1 4 C-1.66 3.67 -2.32 3.34 -3 3 C-4.99960012 2.960008 -7.00047242 2.95653201 -9 3 C-8 1 -8 1 -5.0625 -0.1875 C-2 -1 -2 -1 0 0 Z " fill="#787877" transform="translate(78,183)"/>
<path d="M0 0 C2.64 0.33 5.28 0.66 8 1 C8 1.66 8 2.32 8 3 C6.02 3.33 4.04 3.66 2 4 C1.34 2.68 0.68 1.36 0 0 Z " fill="#C6C6C4" transform="translate(125,149)"/>
<path d="M0 0 C1.62463842 -0.05395478 3.24978541 -0.09277195 4.875 -0.125 C5.77992188 -0.14820313 6.68484375 -0.17140625 7.6171875 -0.1953125 C10 0 10 0 12 2 C10.56589632 2.24954005 9.12739928 2.47392642 7.6875 2.6875 C6.88699219 2.81511719 6.08648437 2.94273437 5.26171875 3.07421875 C3 3 3 3 1.20703125 1.51953125 C0.80871094 1.01808594 0.41039062 0.51664063 0 0 Z " fill="#A0A09E" transform="translate(143,149)"/>
<path d="M0 0 C2.64 0.66 5.28 1.32 8 2 C8.33 3.32 8.66 4.64 9 6 C4 4 4 4 -1 2 C-0.67 1.34 -0.34 0.68 0 0 Z " fill="#C8C8C7" transform="translate(135,107)"/>
<path d="M0 0 C1.485 0.99 1.485 0.99 3 2 C5.27912938 2.45394552 5.27912938 2.45394552 7.6875 2.625 C8.49574219 2.69976562 9.30398437 2.77453125 10.13671875 2.8515625 C10.75160156 2.90054688 11.36648437 2.94953125 12 3 C12 3.33 12 3.66 12 4 C9.36 4 6.72 4 4 4 C3.67 4.66 3.34 5.32 3 6 C3 5.34 3 4.68 3 4 C1.68 3.34 0.36 2.68 -1 2 C-0.67 1.34 -0.34 0.68 0 0 Z " fill="#3D3D3D" transform="translate(53,101)"/>
<path d="M0 0 C0.66 0 1.32 0 2 0 C2.33 1.98 2.66 3.96 3 6 C2.01 6 1.02 6 0 6 C-1.68798827 7.43750191 -1.68798827 7.43750191 -3 9 C-3 5.41483414 -1.88021538 3.97700769 0 1 C0 0.67 0 0.34 0 0 Z " fill="#1E1E1E" transform="translate(74,94)"/>
<path d="M0 0 C0.66 0 1.32 0 2 0 C1.67 1.98 1.34 3.96 1 6 C0.01 6.33 -0.98 6.66 -2 7 C-2.125 4.625 -2.125 4.625 -2 2 C-1.34 1.34 -0.68 0.68 0 0 Z " fill="#414141" transform="translate(95,75)"/>
<path d="M0 0 C0.33 1.32 0.66 2.64 1 4 C-0.98 4.66 -2.96 5.32 -5 6 C-3.63016497 2.83884224 -3.0109362 2.0072908 0 0 Z " fill="#E6E6E5" transform="translate(154,176)"/>
<path d="M0 0 C0.99 0 1.98 0 3 0 C3.66 1.32 4.32 2.64 5 4 C4.01 4 3.02 4 2 4 C2 4.66 2 5.32 2 6 C1.34 6 0.68 6 0 6 C0 4.02 0 2.04 0 0 Z " fill="#EEEDEC" transform="translate(77,96)"/>
<path d="M0 0 C1.9375 0.5625 1.9375 0.5625 4 2 C4.75 5.625 4.75 5.625 5 9 C2.67527795 6.14693203 1.2491742 3.45925163 0 0 Z " fill="#F1F1F0" transform="translate(160,90)"/>
<path d="M0 0 C1.485 0.99 1.485 0.99 3 2 C3.1875 5.125 3.1875 5.125 3 8 C2.34 8 1.68 8 1 8 C0.67 5.36 0.34 2.72 0 0 Z " fill="#0B0B0B" transform="translate(108,81)"/>
<path d="M0 0 C0.99 0.33 1.98 0.66 3 1 C4.1875 3.5625 4.1875 3.5625 5 6 C4.1646875 5.2265625 4.1646875 5.2265625 3.3125 4.4375 C1.05914993 2.70523302 1.05914993 2.70523302 -1.75 3.3125 C-2.4925 3.539375 -3.235 3.76625 -4 4 C-2.68 2.68 -1.36 1.36 0 0 Z " fill="#4E4D4D" transform="translate(180,13)"/>
<path d="M0 0 C2.475 0.495 2.475 0.495 5 1 C4.34 2.32 3.68 3.64 3 5 C2.01 4.67 1.02 4.34 0 4 C0 2.68 0 1.36 0 0 Z " fill="#E9E8E7" transform="translate(161,129)"/>
<path d="M0 0 C0.66 0.66 1.32 1.32 2 2 C1.7578125 4.1640625 1.7578125 4.1640625 1.125 6.625 C0.92132813 7.44226563 0.71765625 8.25953125 0.5078125 9.1015625 C0.34023438 9.72804688 0.17265625 10.35453125 0 11 C-1.1700097 7.08263419 -0.69584017 4.02040985 0 0 Z " fill="#4E4E4D" transform="translate(36,116)"/>
</svg>
