<?xml version="1.0" encoding="UTF-8"?>
<svg version="1.1" xmlns="http://www.w3.org/2000/svg" width="220" height="220">
<path d="M0 0 C72.6 0 145.2 0 220 0 C220 72.6 220 145.2 220 220 C147.4 220 74.8 220 0 220 C0 147.4 0 74.8 0 0 Z " fill="#FCFCFA" transform="translate(0,0)"/>
<path d="M0 0 C0 25.08 0 50.16 0 76 C4.44607497 74.22157001 5.9797308 73.35585467 9 70 C9.99 71.485 9.99 71.485 11 73 C12.63631892 74.04892238 14.30485863 75.04906703 16 76 C16.99 76.66 17.98 77.32 19 78 C19.598125 77.505 20.19625 77.01 20.8125 76.5 C27.90967276 73.160154 36.70508643 74.6771116 44 77 C47.07506186 78.19204799 50.03455259 79.55933938 53 81 C53.72703125 81.33257812 54.4540625 81.66515625 55.203125 82.0078125 C55.89921875 82.33523437 56.5953125 82.66265625 57.3125 83 C57.92738281 83.28875 58.54226562 83.5775 59.17578125 83.875 C61.60731091 85.37453007 63.22903453 86.73624413 65 89 C66.2168977 96.78047979 65.32610447 103.94462688 62 111 C61.73316406 111.77601563 61.46632812 112.55203125 61.19140625 113.3515625 C58.1004472 122.22604936 52.63968334 129.48734546 45 135 C44.34 135 43.68 135 43 135 C42.9175 135.515625 42.835 136.03125 42.75 136.5625 C42 139 42 139 39.9375 142.375 C37.94695899 145.69734183 37.72144812 148.10027362 38 152 C37.67 152.33 37.34 152.66 37 153 C36.83912595 155.50248524 36.7215836 157.99500324 36.625 160.5 C36.27756213 167.60826296 35.23267592 173.53464817 32 180 C-9.91 180 -51.82 180 -95 180 C-97.18899859 171.24400564 -97.18899859 171.24400564 -96.75 167.8125 C-96.8325 166.554375 -96.915 165.29625 -97 164 C-98.36511719 162.95972656 -98.36511719 162.95972656 -99.7578125 161.8984375 C-104.14191827 158.49726582 -105.376046 153.91901384 -107.125 148.8125 C-107.77261024 147.0062136 -108.42104576 145.20022288 -109.0703125 143.39453125 C-109.38661621 142.49911621 -109.70291992 141.60370117 -110.02880859 140.68115234 C-111.28700514 137.20766957 -112.66299645 133.7879471 -114.04931641 130.36401367 C-115.46378243 126.84673721 -116.79855778 123.30121568 -118.125 119.75 C-118.37636719 119.08226562 -118.62773438 118.41453125 -118.88671875 117.7265625 C-120.34130626 113.84258538 -121.70195989 109.93868822 -123 106 C-123.24621094 105.33097656 -123.49242187 104.66195312 -123.74609375 103.97265625 C-125.94612587 97.8946014 -127.06842572 91.70758554 -128.15625 85.35546875 C-128.74378433 82.04445018 -128.74378433 82.04445018 -130.56640625 80.02734375 C-132.71307155 76.99159636 -132.48582637 73.95953876 -132.4375 70.375 C-132.43355225 69.61388916 -132.42960449 68.85277832 -132.42553711 68.06860352 C-131.71092213 37.71092213 -131.71092213 37.71092213 -127 33 C-126.46022423 30.2965852 -126.03533013 27.58104449 -125.59765625 24.859375 C-125.01166516 22.05580977 -124.1426727 19.62001942 -123 17 C-122.67 17.99 -122.34 18.98 -122 20 C-121.34 20 -120.68 20 -120 20 C-119.82984375 20.65226562 -119.6596875 21.30453125 -119.484375 21.9765625 C-117.89604042 27.7047053 -116.30139905 32.69860095 -112 37 C-109.32941149 37.14115161 -106.67567762 37.04247107 -104 37 C-104.474375 36.505 -104.94875 36.01 -105.4375 35.5 C-107.62167907 32.00531349 -107.65913911 29.09033064 -108 25 C-106.02 24.67 -104.04 24.34 -102 24 C-101.67 23.01 -101.34 22.02 -101 21 C-99.68 20.67 -98.36 20.34 -97 20 C-97.33 24.62 -97.66 29.24 -98 34 C-97.34 33.01 -96.68 32.02 -96 31 C-96.2475 30.13375 -96.2475 30.13375 -96.5 29.25 C-97.28637351 25.71131922 -96.30663632 23.32598335 -95 20 C-92.5625 17.5625 -92.5625 17.5625 -90 16 C-89.01 16 -88.02 16 -87 16 C-87.66 18.97 -88.32 21.94 -89 25 C-88.65388672 23.7315625 -88.65388672 23.7315625 -88.30078125 22.4375 C-84.27063935 8.41961515 -84.27063935 8.41961515 -80 4 C-78.67709419 3.62742906 -77.34349907 3.28965347 -76 3 C-76.97384352 6.48067941 -77.95496077 9.95926617 -78.9375 13.4375 C-79.21529297 14.43072266 -79.49308594 15.42394531 -79.77929688 16.44726562 C-80.18051758 17.86362305 -80.18051758 17.86362305 -80.58984375 19.30859375 C-80.95903931 20.62041626 -80.95903931 20.62041626 -81.33569336 21.95874023 C-82 24 -82 24 -83 25 C-82.34 25 -81.68 25 -81 25 C-80.34 21.7 -79.68 18.4 -79 15 C-78.34 15 -77.68 15 -77 15 C-76.03656614 19.10438489 -75.83898293 23.04310262 -75.6875 27.25 C-75.3193357 33.41826083 -74.63190033 40.36809967 -70 45 C-69.92820036 46.51928038 -69.91607993 48.04167482 -69.9375 49.5625 C-69.94652344 50.38878906 -69.95554688 51.21507812 -69.96484375 52.06640625 C-69.97644531 52.70449219 -69.98804688 53.34257813 -70 54 C-69.34 54 -68.68 54 -68 54 C-65.95830515 56.90548882 -65 58.40142046 -65 62 C-64.01 62 -63.02 62 -62 62 C-60.45220457 64.26216255 -59.22387717 66.55224566 -58 69 C-58.99 69 -59.98 69 -61 69 C-61 68.34 -61 67.68 -61 67 C-62.32 67 -63.64 67 -65 67 C-65.33 67.66 -65.66 68.32 -66 69 C-66.99 64.545 -66.99 64.545 -68 60 C-68.53790127 71.98922158 -68.73577766 82.09752966 -63 93 C-62.49597656 93.9590625 -61.99195312 94.918125 -61.47265625 95.90625 C-59.02380497 100.24314692 -56.9959829 103.02664498 -53 106 C-53 106.66 -53 107.32 -53 108 C-54.98 108 -56.96 108 -59 108 C-59 108.66 -59 109.32 -59 110 C-60.93359375 111.65625 -60.93359375 111.65625 -63.4375 113.5 C-66.74856792 115.79910263 -66.74856792 115.79910263 -69 119 C-63.68693215 119.83964817 -58.4321139 120.28182609 -53.0625 120.5625 C-51.89364258 120.62727539 -51.89364258 120.62727539 -50.70117188 120.69335938 C-48.80092883 120.79828077 -46.90048331 120.8995245 -45 121 C-44.67 122.98 -44.34 124.96 -44 127 C-43.34 127 -42.68 127 -42 127 C-42.67185133 130.82863224 -44.44879227 133.692378 -46.4375 137 C-47.63236918 138.99560615 -48.8205652 140.99523323 -50 143 C-50.38285156 143.639375 -50.76570313 144.27875 -51.16015625 144.9375 C-52.36121821 147.88708473 -52.63673543 150.8517071 -53 154 C-50.06217531 153.85924795 -47.12484829 153.7126162 -44.1875 153.5625 C-43.35412109 153.52318359 -42.52074219 153.48386719 -41.66210938 153.44335938 C-40.45844727 153.38051758 -40.45844727 153.38051758 -39.23046875 153.31640625 C-38.49207764 153.27974854 -37.75368652 153.24309082 -36.99291992 153.20532227 C-34.792505 153.05157859 -34.792505 153.05157859 -32 152 C-31.30538049 150.00953569 -30.64405867 148.00739455 -30 146 C-28.68849898 143.83523325 -27.31088194 141.70934475 -25.875 139.625 C-25.15054688 138.56539062 -24.42609375 137.50578125 -23.6796875 136.4140625 C-23.12539062 135.61742187 -22.57109375 134.82078125 -22 134 C-20.68 134.33 -19.36 134.66 -18 135 C-17.83564453 135.88751953 -17.83564453 135.88751953 -17.66796875 136.79296875 C-16.44701349 142.87789214 -15.40311441 147.39792373 -10 151 C-10 152.32 -10 153.64 -10 155 C-9.34 154.67 -8.68 154.34 -8 154 C-8.33 153.34 -8.66 152.68 -9 152 C-4.38 152.66 0.24 153.32 5 154 C5 154.66 5 155.32 5 156 C5.57621094 155.67515625 6.15242187 155.3503125 6.74609375 155.015625 C9.08263009 153.96276634 10.53126157 153.80677544 13.0625 153.75 C19.14549737 153.23294522 23.88290544 150.12764471 29 147 C29 146.01 29 145.02 29 144 C30.5 142.3125 30.5 142.3125 32 141 C32 141.99 32 142.98 32 144 C32.37125 142.906875 32.7425 141.81375 33.125 140.6875 C34.8537844 136.64555337 36.9243395 135.67821315 41 134 C50.53773595 128.60910577 56.68006561 120.0282883 60.05859375 109.79296875 C61.78187497 102.84979008 62.11417723 96.07290987 61 89 C58.62915613 85.55095829 55.84064294 84.4636108 52 83 C51.02160156 82.52304688 50.04320312 82.04609375 49.03515625 81.5546875 C40.6033192 77.74003687 33.11513539 77.1745673 24 78 C23.01 78.495 23.01 78.495 22 79 C22 80.32 22 81.64 22 83 C20.33564843 84.00384841 18.66853524 85.0031209 17 86 C15.42572971 88.14089595 14.0745473 90.15775033 12.75 92.4375 C12.399375 93.01048828 12.04875 93.58347656 11.6875 94.17382812 C9.96471969 97.05285907 8.55614982 99.67127978 8 103 C8.66 103 9.32 103 10 103 C10.22816406 103.59425781 10.45632812 104.18851562 10.69140625 104.80078125 C12.35918232 107.60364073 14.11968957 108.57791372 16.9375 110.1875 C17.81277344 110.69667969 18.68804687 111.20585937 19.58984375 111.73046875 C22.03559742 113.10205451 22.03559742 113.10205451 25 114 C25 114.66 25 115.32 25 116 C20.95551005 115.35407409 17.82994831 113.21855545 14.4375 111.0625 C13.86064453 110.70220703 13.28378906 110.34191406 12.68945312 109.97070312 C10.10089557 108.3494958 7.54145585 106.6943039 5 105 C4.5625 102.6875 4.5625 102.6875 5 100 C5.598125 99.278125 6.19625 98.55625 6.8125 97.8125 C9.84766606 93.91014363 10.78588008 89.73690724 12 85 C13.32 85 14.64 85 16 85 C16 84.01 16 83.02 16 82 C15.236875 81.731875 14.47375 81.46375 13.6875 81.1875 C11 80 11 80 9.5 78.3125 C8.01058474 76.71058018 8.01058474 76.71058018 5.4375 77.0625 C2.85338976 77.77905218 2.85338976 77.77905218 1.6875 80.0625 C1.3471875 81.0215625 1.3471875 81.0215625 1 82 C0.01 82 -0.98 82 -2 82 C-1.2575 83.423125 -1.2575 83.423125 -0.5 84.875 C1 88 1 88 1 90 C-0.65 89.34 -2.3 88.68 -4 88 C-3.835 88.598125 -3.67 89.19625 -3.5 89.8125 C-3 92 -3 92 -3 95 C-1.68 94.34 -0.36 93.68 1 93 C0.0409375 94.36125 0.0409375 94.36125 -0.9375 95.75 C-2.61428953 98.39221381 -3.53689998 99.9898499 -4 103 C-3.01 103 -2.02 103 -1 103 C-1 103.99 -1 104.98 -1 106 C0.65 106 2.3 106 4 106 C4 106.33 4 106.66 4 107 C-2.75 107.125 -2.75 107.125 -5 106 C-5.680625 106.99 -5.680625 106.99 -6.375 108 C-6.91125 108.66 -7.4475 109.32 -8 110 C-8.66 110 -9.32 110 -10 110 C-10 108.68 -10 107.36 -10 106 C-10.66 106 -11.32 106 -12 106 C-12 105.34 -12 104.68 -12 104 C-12.639375 103.9175 -13.27875 103.835 -13.9375 103.75 C-17.54230824 102.86718982 -20.66435777 101.42069826 -24.01171875 99.83984375 C-25.94733414 98.87029715 -25.94733414 98.87029715 -28 99 C-24.7286313 104.79924451 -22.12191544 108.71115888 -15.734375 111.05078125 C-13.47369098 112.2880475 -12.94741262 113.65563713 -12 116 C-15.33987174 116.59946416 -17.43178522 116.33192745 -20.3671875 114.6171875 C-24.90299441 111.26967505 -27.06464186 109.64616187 -28 104 C-29.38426035 101.29257878 -29.38426035 101.29257878 -31.0625 98.6875 C-31.61035156 97.80449219 -32.15820312 96.92148438 -32.72265625 96.01171875 C-33.35494141 95.01591797 -33.35494141 95.01591797 -34 94 C-28.61607143 91.66071429 -28.61607143 91.66071429 -25 93 C-25.66 92.01 -26.32 91.02 -27 90 C-27 89.01 -27 88.02 -27 87 C-22.78247239 88.56204726 -20.62600654 91.45134252 -18 95 C-17.835 95.7425 -17.67 96.485 -17.5 97.25 C-17.335 97.8275 -17.17 98.405 -17 99 C-14.63813861 100.26145768 -14.63813861 100.26145768 -12 101 C-10.515 101.495 -10.515 101.495 -9 102 C-8.67 102.99 -8.34 103.98 -8 105 C-7.01 103.515 -7.01 103.515 -6 102 C-7.65 101.34 -9.3 100.68 -11 100 C-11 99.34 -11 98.68 -11 98 C-9.02 98.495 -9.02 98.495 -7 99 C-7.3846179 93.32688601 -7.82305585 90.17694415 -12 86 C-12.66 85.67 -13.32 85.34 -14 85 C-12.02 87.64 -10.04 90.28 -8 93 C-11.58153059 91.20923471 -13.46851925 89.98353088 -16 87 C-16 86.01 -16 85.02 -16 84 C-14.68 84 -13.36 84 -12 84 C-12.33 82.68 -12.66 81.36 -13 80 C-14.98 79.505 -14.98 79.505 -17 79 C-15.68 79 -14.36 79 -13 79 C-12.67 77.35 -12.34 75.7 -12 74 C-8.21388773 74.54087318 -6.44599233 76.11722332 -4 79 C-4 79.66 -4 80.32 -4 81 C-3.34 81 -2.68 81 -2 81 C-2.03029297 80.11256104 -2.06058594 79.22512207 -2.09179688 78.31079102 C-2.65172367 61.52052466 -3.10372828 44.73805022 -3.125 27.9375 C-3.12874634 26.91065598 -3.12874634 26.91065598 -3.13256836 25.86306763 C-3.15575163 18.17908825 -2.98340682 10.62644308 -2 3 C-2.66 3 -3.32 3 -4 3 C-4 2.34 -4 1.68 -4 1 C-2 0 -2 0 0 0 Z " fill="#040404" transform="translate(151,40)"/>
<path d="M0 0 C0.33 0.66 0.66 1.32 1 2 C-0.48905133 5.31755205 -2.16739635 8.5138 -3.84765625 11.73828125 C-5.32195289 14.87048471 -5.32195289 14.87048471 -4.1953125 17.55078125 C-3.80085938 18.35902344 -3.40640625 19.16726562 -3 20 C-2.76953125 22.8671875 -2.76953125 22.8671875 -2.8125 25.875 C-2.83376953 27.45667969 -2.83376953 27.45667969 -2.85546875 29.0703125 C-3 32 -3 32 -3.625 35.75 C-4.17216859 40.4921278 -3.49667495 44.86189293 -0.6875 48.875 C3.1453883 51.43025886 7.65255224 52.58455189 12 54 C12 54.66 12 55.32 12 56 C9.69 55.67 7.38 55.34 5 55 C5.495 57.97 5.495 57.97 6 61 C7.11375 60.34 8.2275 59.68 9.375 59 C12.75 57 12.75 57 15 57 C14.505 55.02 14.505 55.02 14 53 C17.8601272 53 21.22950224 53.17734594 25 54 C26.9375 55.9375 26.9375 55.9375 28 58 C28 58.66 28 59.32 28 60 C26.68 60 25.36 60 24 60 C24.6954344 63.00384054 24.6954344 63.00384054 26 66 C28.03243548 66.96877057 28.03243548 66.96877057 30 67 C29.34 66.38125 28.68 65.7625 28 65.125 C26 63 26 63 26 61 C29.38231081 62.39957689 31.27928642 63.73064421 33 67 C33.24493747 69.72036936 33.13708782 72.25824366 33 75 C31.68 74.67 30.36 74.34 29 74 C29 74.66 29 75.32 29 76 C30.65 76.66 32.3 77.32 34 78 C33.34 79.32 32.68 80.64 32 82 C31.6596875 81.0409375 31.6596875 81.0409375 31.3125 80.0625 C30.16952088 77.74737559 30.16952088 77.74737559 27.5625 77.375 C26.2940625 77.189375 26.2940625 77.189375 25 77 C22 75 22 75 21.125 72.75 C19.4964812 68.76917627 16.93684336 64.96842168 13 63 C13.515625 63.94875 14.03125 64.8975 14.5625 65.875 C15.036875 66.90625 15.51125 67.9375 16 69 C15.67 69.66 15.34 70.32 15 71 C12.03 70.01 12.03 70.01 9 69 C8.34 69.66 7.68 70.32 7 71 C7.40992188 71.58007812 7.81984375 72.16015625 8.2421875 72.7578125 C12.829195 79.40787601 12.829195 79.40787601 13.9375 83.25 C15.48468026 87.25446654 18.20738012 89.1199674 22 91 C24.79643244 91.42303506 24.79643244 91.42303506 27 91 C26.67 90.01 26.34 89.02 26 88 C24.00458132 87.31974363 22.00382009 86.65509503 20 86 C15.10299461 82.96852047 13.22403567 79.11900948 11 74 C15.05819183 74.65503282 18.53971282 75.94559121 22.3125 77.5625 C23.38113281 78.01753906 24.44976562 78.47257812 25.55078125 78.94140625 C26.76314453 79.46541016 26.76314453 79.46541016 28 80 C28 80.66 28 81.32 28 82 C28.66 82 29.32 82 30 82 C30 83.32 30 84.64 30 86 C31.3921875 84.7315625 31.3921875 84.7315625 32.8125 83.4375 C34.39453125 81.99609375 34.39453125 81.99609375 36 81 C37.485 81.495 37.485 81.495 39 82 C39 81.01 39 80.02 39 79 C38.01 79 37.02 79 36 79 C35.73781251 75.85375007 35.75245633 74.38162983 37.5 71.6875 C38.2425 70.8521875 38.2425 70.8521875 39 70 C37.02 71.485 37.02 71.485 35 73 C35.165 72.0925 35.33 71.185 35.5 70.25 C36.10137146 66.88912497 36.10137146 66.88912497 36 63 C37.65 63.99 39.3 64.98 41 66 C40.505 65.236875 40.01 64.47375 39.5 63.6875 C38 61 38 61 38 58 C38.99 58 39.98 58 41 58 C41.103125 57.38125 41.20625 56.7625 41.3125 56.125 C42 54 42 54 45 52 C48.86469284 52.25764619 51.13018748 54.58331577 54 57 C54.66 57.33 55.32 57.66 56 58 C56 58.99 56 59.98 56 61 C54.68 61 53.36 61 52 61 C51.814375 62.051875 51.814375 62.051875 51.625 63.125 C50.75122998 67.14434208 49.95182398 70.79191572 47.375 74.0625 C45.85881424 75.93904093 45.85881424 75.93904093 45.4609375 78.328125 C45.76832713 81.36958077 45.76832713 81.36958077 49.140625 83.38671875 C50.49963011 84.17260135 51.87011173 84.93889148 53.25 85.6875 C54.27287109 86.27241211 54.27287109 86.27241211 55.31640625 86.86914062 C58.49670937 88.67542929 61.70439233 90.41165301 65 92 C65 91.34 65 90.68 65 90 C64.44699219 89.89300781 63.89398438 89.78601563 63.32421875 89.67578125 C60.54099268 88.86654073 58.31518652 87.64770853 55.8125 86.1875 C54.93207031 85.68605469 54.05164063 85.18460937 53.14453125 84.66796875 C51 83 51 83 50.19921875 80.80078125 C50.13347656 80.20652344 50.06773437 79.61226563 50 79 C49.34 79 48.68 79 48 79 C48.50568652 74.03237359 49.98586209 70.88581537 52.75 66.75 C53.42546875 65.71359375 54.1009375 64.6771875 54.796875 63.609375 C57.10850204 60.87149049 58.6015232 59.97438845 62 59 C61.505 57.02 61.505 57.02 61 55 C66.19408522 51.53727652 72.93580003 52.26418277 79 53 C87.1826445 55.09052212 95.92608065 58.92608065 102 65 C103.0729927 80.44405892 100.39012089 91.77518437 90.41015625 103.9375 C87.16528665 107.4801341 84.13938895 109.53498285 79.75 111.5 C76.19577988 113.11506355 74.40888157 114.16770522 72.875 117.8125 C72.58625 118.864375 72.2975 119.91625 72 121 C71.67 120.01 71.34 119.02 71 118 C68.7226499 120.81509993 68.7226499 120.81509993 69 124 C63.09147413 127.61137936 57.99793404 130.61877268 50.97265625 130.89453125 C48.87378071 131.00674836 47.01994551 131.43513828 45 132 C45 131.34 45 130.68 45 130 C41.37 130 37.74 130 34 130 C34 129.34 34 128.68 34 128 C33.34 128.33 32.68 128.66 32 129 C32.33 129.66 32.66 130.32 33 131 C32.01 131 31.02 131 30 131 C29.938125 130.443125 29.87625 129.88625 29.8125 129.3125 C29.09841627 126.74682227 29.09841627 126.74682227 26.5625 124.5625 C23.03933179 121.03933179 22.06189221 118.64014347 21.875 113.6875 C21.91625 112.800625 21.9575 111.91375 22 111 C20.68 110.67 19.36 110.34 18 110 C17.73960937 110.71027344 17.47921875 111.42054688 17.2109375 112.15234375 C15.92594423 115.1741505 14.3884503 117.79411406 12.625 120.5625 C12.03976563 121.49191406 11.45453125 122.42132813 10.8515625 123.37890625 C7.3648328 128.31476201 7.3648328 128.31476201 5 130 C1.89996397 130.47788759 -1.12314823 130.37702835 -4.25 130.25 C-5.09046875 130.23195312 -5.9309375 130.21390625 -6.796875 130.1953125 C-8.86507395 130.14830798 -10.93268441 130.07656724 -13 130 C-13.7136028 123.34851709 -11.49948357 119.68544787 -7.9375 114.1875 C-6.98136711 112.68536826 -6.03176573 111.17905209 -5.08984375 109.66796875 C-4.66566162 109.01078857 -4.24147949 108.3536084 -3.80444336 107.67651367 C-3.53897705 107.12326416 -3.27351074 106.57001465 -3 106 C-3.84188612 104.05270463 -3.84188612 104.05270463 -5 103 C-5.04080783 101.00041636 -5.04254356 98.99954746 -5 97 C-6.14597656 97.02320313 -7.29195312 97.04640625 -8.47265625 97.0703125 C-10.0025976 97.08908479 -11.53254606 97.10728341 -13.0625 97.125 C-13.81466797 97.14175781 -14.56683594 97.15851563 -15.34179688 97.17578125 C-20.29327709 97.21865121 -24.30414451 96.58399375 -29 95 C-27.4114658 90.71095765 -24.56872632 88.67654474 -21 86 C-20.34 86 -19.68 86 -19 86 C-19 85.34 -19 84.68 -19 84 C-17.02 84 -15.04 84 -13 84 C-13.42410156 83.58492188 -13.84820312 83.16984375 -14.28515625 82.7421875 C-24.26802979 72.25468519 -29.37741125 59.45419267 -29.125 45.125 C-29.11597656 44.15046875 -29.10695313 43.1759375 -29.09765625 42.171875 C-29.07421623 39.78099272 -29.04140442 37.39062739 -29 35 C-26.53721199 37.46278801 -26.00228745 39.70676982 -25 43 C-23.68 43 -22.36 43 -21 43 C-21 43.66 -21 44.32 -21 45 C-20.01 44.505 -20.01 44.505 -19 44 C-19.495 43.566875 -19.99 43.13375 -20.5 42.6875 C-22 41 -22 41 -22 38 C-22.99 38 -23.98 38 -25 38 C-28 32.25 -28 32.25 -28 30 C-28.66 30 -29.32 30 -30 30 C-30 28.35 -30 26.7 -30 25 C-27.29120665 23.64560332 -24.99066732 23.93498549 -22 24 C-21.67 22.68 -21.34 21.36 -21 20 C-20.01 20.33 -19.02 20.66 -18 21 C-17.67 21.99 -17.34 22.98 -17 24 C-16.01 24.33 -15.02 24.66 -14 25 C-13.61908203 24.15115234 -13.61908203 24.15115234 -13.23046875 23.28515625 C-12.88628906 22.55167969 -12.54210937 21.81820312 -12.1875 21.0625 C-11.85105469 20.33160156 -11.51460937 19.60070312 -11.16796875 18.84765625 C-10 17 -10 17 -7 16 C-6.89816406 15.29488281 -6.79632813 14.58976562 -6.69140625 13.86328125 C-5.90085188 10.58940355 -4.59476266 8.11415533 -2.9375 5.1875 C-2.11572266 3.72376953 -2.11572266 3.72376953 -1.27734375 2.23046875 C-0.85582031 1.49441406 -0.43429688 0.75835937 0 0 Z " fill="#080808" transform="translate(111,64)"/>
<path d="M0 0 C15.84 0 31.68 0 48 0 C52 11 52 11 52 16 C50.171875 17.8359375 50.171875 17.8359375 47.75 19.375 C46.96109375 19.89835937 46.1721875 20.42171875 45.359375 20.9609375 C43 22 43 22 40.703125 21.6640625 C40.14109375 21.44492187 39.5790625 21.22578125 39 21 C38.79375 21.680625 38.5875 22.36125 38.375 23.0625 C37.07548623 25.83873397 35.95144744 27.2055042 33.875 29.375 C31.43383097 32.10720865 31.02429051 32.7987358 30.5625 36.625 C30.92955151 39.45654024 31.42477547 42.20605229 32 45 C31.67 45.33 31.34 45.66 31 46 C30.73914549 47.42890306 30.54032815 48.86942147 30.375 50.3125 C30.23191406 51.48232422 30.23191406 51.48232422 30.0859375 52.67578125 C29.99967727 55.0087285 30.31905588 56.77930909 31 59 C29.515 59.495 29.515 59.495 28 60 C26.1827926 64.24015059 25.62363953 68.45634058 25 73 C24.67 73.33 24.34 73.66 24 74 C21.42668674 85.85501505 19.62547187 98.23427974 19.5625 110.375 C19.55275146 111.0980835 19.54300293 111.82116699 19.53295898 112.56616211 C19.60430422 116.87447706 20.47191993 118.66416752 23 122 C23.91219233 125.10092425 24.47725626 128.26080663 25.0625 131.4375 C26.45430233 138.88419193 26.45430233 138.88419193 29 146 C29.4284035 147.26692498 29.84503238 148.53789037 30.25 149.8125 C33.78447639 160.50385145 37.9569327 170.98076975 42.125 181.4375 C42.44944092 182.25323486 42.77388184 183.06896973 43.1081543 183.90942383 C44.05838577 186.2788541 45.02434101 188.64093297 46 191 C46.34160156 191.83345947 46.68320312 192.66691895 47.03515625 193.52563477 C47.37675781 194.33186279 47.71835937 195.13809082 48.0703125 195.96875 C48.37469238 196.69384766 48.67907227 197.41894531 48.99267578 198.16601562 C49.99682316 200.29291518 49.99682316 200.29291518 52.75 202.0625 C53.86375 203.0215625 53.86375 203.0215625 55 204 C55.25 207.75 55.25 207.75 55.078125 209.609375 C54.96455338 213.08466643 55.56871303 216.54970427 56 220 C37.52 220 19.04 220 0 220 C0 147.4 0 74.8 0 0 Z " fill="#FDFDFB" transform="translate(0,0)"/>
<path d="M0 0 C2.80768924 1.15610733 4.81261387 2.92772747 7.125 4.875 C7.785 5.205 8.445 5.535 9.125 5.875 C9.125 6.865 9.125 7.855 9.125 8.875 C7.805 8.875 6.485 8.875 5.125 8.875 C5.00125 9.57625 4.8775 10.2775 4.75 11 C3.87622998 15.01934208 3.07682398 18.66691572 0.5 21.9375 C-1.01618576 23.81404093 -1.01618576 23.81404093 -1.4140625 26.203125 C-1.10667287 29.24458077 -1.10667287 29.24458077 2.265625 31.26171875 C3.62463011 32.04760135 4.99511173 32.81389148 6.375 33.5625 C7.05691406 33.95244141 7.73882812 34.34238281 8.44140625 34.74414062 C11.62170937 36.55042929 14.82939233 38.28665301 18.125 39.875 C18.125 39.215 18.125 38.555 18.125 37.875 C17.57199219 37.76800781 17.01898438 37.66101563 16.44921875 37.55078125 C13.66599268 36.74154073 11.44018652 35.52270853 8.9375 34.0625 C8.05707031 33.56105469 7.17664063 33.05960938 6.26953125 32.54296875 C4.125 30.875 4.125 30.875 3.32421875 28.67578125 C3.25847656 28.08152344 3.19273437 27.48726562 3.125 26.875 C2.465 26.875 1.805 26.875 1.125 26.875 C1.63068652 21.90737359 3.11086209 18.76081537 5.875 14.625 C6.55046875 13.58859375 7.2259375 12.5521875 7.921875 11.484375 C10.23350204 8.74649049 11.7265232 7.84938845 15.125 6.875 C14.795 5.555 14.465 4.235 14.125 2.875 C19.31908522 -0.58772348 26.06080003 0.13918277 32.125 0.875 C40.3076445 2.96552212 49.05108065 6.80108065 55.125 12.875 C56.1979927 28.31905892 53.51512089 39.65018437 43.53515625 51.8125 C40.29028665 55.3551341 37.26438895 57.40998285 32.875 59.375 C29.32077988 60.99006355 27.53388157 62.04270522 26 65.6875 C25.71125 66.739375 25.4225 67.79125 25.125 68.875 C24.795 68.215 24.465 67.555 24.125 66.875 C24.455 66.215 24.785 65.555 25.125 64.875 C24.135 65.205 23.145 65.535 22.125 65.875 C20.56381572 65.94240865 18.9999748 65.96014456 17.4375 65.9375 C16.62925781 65.92847656 15.82101563 65.91945313 14.98828125 65.91015625 C14.37339844 65.89855469 13.75851563 65.88695312 13.125 65.875 C13.62 64.39 13.62 64.39 14.125 62.875 C13.320625 62.5346875 13.320625 62.5346875 12.5 62.1875 C9.34839963 60.44582611 6.76215852 58.29549057 4.125 55.875 C3.14660156 55.04162109 3.14660156 55.04162109 2.1484375 54.19140625 C-1.04674799 51.1298839 -2.78267277 49.21869088 -3.09375 44.69140625 C-2.84023916 41.7020909 -2.45840428 38.81653419 -1.875 35.875 C-4.09064643 36.69414892 -4.09064643 36.69414892 -4.640625 39.02734375 C-5.19931468 42.23980942 -5.41243329 44.64219519 -4.875 47.875 C-2.00381611 51.78601806 1.36500805 54.82867963 5.125 57.875 C1.07560375 57.875 -0.64479808 56.23035556 -3.875 53.875 C-4.390625 53.33875 -4.90625 52.8025 -5.4375 52.25 C-6.87487363 50.68866104 -6.87487363 50.68866104 -9.3125 50 C-12.74824148 48.49162569 -14.00133964 47.13655692 -15.875 43.875 C-16.72808134 39.20459508 -16.53484337 35.32126394 -13.875 31.3125 C-13.215 30.508125 -12.555 29.70375 -11.875 28.875 C-10.555 29.205 -9.235 29.535 -7.875 29.875 C-7.875 28.885 -7.875 27.895 -7.875 26.875 C-8.865 26.875 -9.855 26.875 -10.875 26.875 C-11.13718749 23.72875007 -11.12254367 22.25662983 -9.375 19.5625 C-8.88 19.005625 -8.385 18.44875 -7.875 17.875 C-9.195 18.865 -10.515 19.855 -11.875 20.875 C-11.71 19.9675 -11.545 19.06 -11.375 18.125 C-10.77362854 14.76412497 -10.77362854 14.76412497 -10.875 10.875 C-9.225 11.865 -7.575 12.855 -5.875 13.875 C-6.37 13.111875 -6.865 12.34875 -7.375 11.5625 C-8.875 8.875 -8.875 8.875 -8.875 5.875 C-7.885 5.875 -6.895 5.875 -5.875 5.875 C-5.771875 5.25625 -5.66875 4.6375 -5.5625 4 C-4.62441576 1.10046689 -3.14109419 -0.20940628 0 0 Z " fill="#F9F9F7" transform="translate(157.875,116.125)"/>
<path d="M0 0 C0 25.08 0 50.16 0 76 C4.44607497 74.22157001 5.9797308 73.35585467 9 70 C9.99 71.485 9.99 71.485 11 73 C12.63631892 74.04892238 14.30485863 75.04906703 16 76 C16.99 76.66 17.98 77.32 19 78 C19.598125 77.505 20.19625 77.01 20.8125 76.5 C27.90967276 73.160154 36.70508643 74.6771116 44 77 C47.07506186 78.19204799 50.03455259 79.55933938 53 81 C54.09054688 81.49886719 54.09054688 81.49886719 55.203125 82.0078125 C55.89921875 82.33523437 56.5953125 82.66265625 57.3125 83 C57.92738281 83.28875 58.54226562 83.5775 59.17578125 83.875 C61.60731091 85.37453007 63.22903453 86.73624413 65 89 C66.2168977 96.78047979 65.32610447 103.94462688 62 111 C61.73316406 111.77601563 61.46632813 112.55203125 61.19140625 113.3515625 C58.1004472 122.22604936 52.63968334 129.48734546 45 135 C44.34 135 43.68 135 43 135 C42.9175 135.515625 42.835 136.03125 42.75 136.5625 C42 139 42 139 39.9375 142.375 C37.94695899 145.69734183 37.72144812 148.10027362 38 152 C37.67 152.33 37.34 152.66 37 153 C36.83912595 155.50248524 36.7215836 157.99500324 36.625 160.5 C36.27756213 167.60826296 35.23267592 173.53464817 32 180 C8.9 180 -14.2 180 -38 180 C-38 167.23603152 -38 167.23603152 -35.6875 160.875 C-35.47416016 160.21757812 -35.26082031 159.56015625 -35.04101562 158.8828125 C-34.38671875 156.9921875 -34.38671875 156.9921875 -33 154 C-32.01 153.67 -31.02 153.34 -30 153 C-30.99 152.67 -31.98 152.34 -33 152 C-25.70159453 139.33029613 -25.70159453 139.33029613 -22 134 C-20.68 134.33 -19.36 134.66 -18 135 C-17.83564453 135.88751953 -17.83564453 135.88751953 -17.66796875 136.79296875 C-16.44701349 142.87789214 -15.40311441 147.39792373 -10 151 C-10 152.32 -10 153.64 -10 155 C-9.34 154.67 -8.68 154.34 -8 154 C-8.495 153.01 -8.495 153.01 -9 152 C-2.07 152.99 -2.07 152.99 5 154 C5 154.66 5 155.32 5 156 C5.57621094 155.67515625 6.15242188 155.3503125 6.74609375 155.015625 C9.08263009 153.96276634 10.53126157 153.80677544 13.0625 153.75 C19.14549737 153.23294522 23.88290544 150.12764471 29 147 C29 146.01 29 145.02 29 144 C30.5 142.3125 30.5 142.3125 32 141 C32 141.99 32 142.98 32 144 C32.37125 142.906875 32.7425 141.81375 33.125 140.6875 C34.8537844 136.64555337 36.9243395 135.67821315 41 134 C50.53773595 128.60910577 56.68006561 120.0282883 60.05859375 109.79296875 C61.78187497 102.84979008 62.11417723 96.07290987 61 89 C58.62915613 85.55095829 55.84064294 84.4636108 52 83 C51.02160156 82.52304688 50.04320312 82.04609375 49.03515625 81.5546875 C40.6033192 77.74003687 33.11513539 77.1745673 24 78 C23.01 78.495 23.01 78.495 22 79 C22 80.32 22 81.64 22 83 C20.33564843 84.00384841 18.66853524 85.0031209 17 86 C15.42572971 88.14089595 14.0745473 90.15775033 12.75 92.4375 C12.399375 93.01048828 12.04875 93.58347656 11.6875 94.17382812 C9.96471969 97.05285907 8.55614982 99.67127978 8 103 C8.66 103 9.32 103 10 103 C10.22816406 103.59425781 10.45632812 104.18851562 10.69140625 104.80078125 C12.35918232 107.60364073 14.11968957 108.57791372 16.9375 110.1875 C17.81277344 110.69667969 18.68804687 111.20585937 19.58984375 111.73046875 C22.03559742 113.10205451 22.03559742 113.10205451 25 114 C25 114.66 25 115.32 25 116 C20.95551005 115.35407409 17.82994831 113.21855545 14.4375 111.0625 C13.86064453 110.70220703 13.28378906 110.34191406 12.68945312 109.97070312 C10.10089557 108.3494958 7.54145585 106.6943039 5 105 C4.5625 102.6875 4.5625 102.6875 5 100 C5.598125 99.278125 6.19625 98.55625 6.8125 97.8125 C9.84766606 93.91014363 10.78588008 89.73690724 12 85 C13.32 85 14.64 85 16 85 C16 84.01 16 83.02 16 82 C15.236875 81.731875 14.47375 81.46375 13.6875 81.1875 C11 80 11 80 9.5 78.3125 C8.01058474 76.71058018 8.01058474 76.71058018 5.4375 77.0625 C2.85338976 77.77905218 2.85338976 77.77905218 1.6875 80.0625 C1.460625 80.701875 1.23375 81.34125 1 82 C0.01 82 -0.98 82 -2 82 C-1.505 82.94875 -1.01 83.8975 -0.5 84.875 C1 88 1 88 1 90 C-0.65 89.34 -2.3 88.68 -4 88 C-3.835 88.598125 -3.67 89.19625 -3.5 89.8125 C-3 92 -3 92 -3 95 C-1.02 94.01 -1.02 94.01 1 93 C0.0409375 94.36125 0.0409375 94.36125 -0.9375 95.75 C-2.61428953 98.39221381 -3.53689998 99.9898499 -4 103 C-3.01 103 -2.02 103 -1 103 C-1 103.99 -1 104.98 -1 106 C0.65 106 2.3 106 4 106 C4 106.33 4 106.66 4 107 C-2.75 107.125 -2.75 107.125 -5 106 C-5.680625 106.99 -5.680625 106.99 -6.375 108 C-7.179375 108.99 -7.179375 108.99 -8 110 C-8.66 110 -9.32 110 -10 110 C-10 108.68 -10 107.36 -10 106 C-10.66 106 -11.32 106 -12 106 C-12 105.34 -12 104.68 -12 104 C-12.639375 103.9175 -13.27875 103.835 -13.9375 103.75 C-17.54230824 102.86718982 -20.66435777 101.42069826 -24.01171875 99.83984375 C-25.94733414 98.87029715 -25.94733414 98.87029715 -28 99 C-24.7286313 104.79924451 -22.12191544 108.71115888 -15.734375 111.05078125 C-13.47369098 112.2880475 -12.94741262 113.65563713 -12 116 C-15.33987174 116.59946416 -17.43178522 116.33192745 -20.3671875 114.6171875 C-24.90299441 111.26967505 -27.06464186 109.64616187 -28 104 C-29.38426035 101.29257878 -29.38426035 101.29257878 -31.0625 98.6875 C-31.61035156 97.80449219 -32.15820312 96.92148438 -32.72265625 96.01171875 C-33.35494141 95.01591797 -33.35494141 95.01591797 -34 94 C-28.61607143 91.66071429 -28.61607143 91.66071429 -25 93 C-25.66 92.01 -26.32 91.02 -27 90 C-27 89.01 -27 88.02 -27 87 C-22.78247239 88.56204726 -20.62600654 91.45134252 -18 95 C-17.835 95.7425 -17.67 96.485 -17.5 97.25 C-17.2525 98.11625 -17.2525 98.11625 -17 99 C-14.63813861 100.26145768 -14.63813861 100.26145768 -12 101 C-10.515 101.495 -10.515 101.495 -9 102 C-8.67 102.99 -8.34 103.98 -8 105 C-7.34 104.01 -6.68 103.02 -6 102 C-7.65 101.34 -9.3 100.68 -11 100 C-11 99.34 -11 98.68 -11 98 C-9.68 98.33 -8.36 98.66 -7 99 C-7.3846179 93.32688601 -7.82305585 90.17694415 -12 86 C-12.66 85.67 -13.32 85.34 -14 85 C-12.02 87.64 -10.04 90.28 -8 93 C-11.58153059 91.20923471 -13.46851925 89.98353088 -16 87 C-16 86.01 -16 85.02 -16 84 C-14.68 84 -13.36 84 -12 84 C-12.33 82.68 -12.66 81.36 -13 80 C-14.32 79.67 -15.64 79.34 -17 79 C-15.68 79 -14.36 79 -13 79 C-12.67 77.35 -12.34 75.7 -12 74 C-8.21388773 74.54087318 -6.44599233 76.11722332 -4 79 C-4 79.66 -4 80.32 -4 81 C-3.34 81 -2.68 81 -2 81 C-2.03029297 80.11256104 -2.06058594 79.22512207 -2.09179688 78.31079102 C-2.65172367 61.52052466 -3.10372828 44.73805022 -3.125 27.9375 C-3.12749756 27.25293732 -3.12999512 26.56837463 -3.13256836 25.86306763 C-3.15575163 18.17908825 -2.98340682 10.62644308 -2 3 C-2.66 3 -3.32 3 -4 3 C-4 2.34 -4 1.68 -4 1 C-2 0 -2 0 0 0 Z " fill="#030303" transform="translate(151,40)"/>
<path d="M0 0 C11.88 0 23.76 0 36 0 C36.495 5.94 36.495 5.94 37 12 C39.27127334 15.02409364 39.27127334 15.02409364 42 17 C43.16015625 19.125 43.16015625 19.125 44 21 C42.39805929 21.98280415 40.79336258 22.96111717 39.1875 23.9375 C38.29417969 24.48277344 37.40085938 25.02804688 36.48046875 25.58984375 C34 27 34 27 31 28 C31 28.99 31 29.98 31 31 C31.77085938 30.55527344 32.54171875 30.11054688 33.3359375 29.65234375 C34.33882812 29.08644531 35.34171875 28.52054688 36.375 27.9375 C37.37273437 27.36902344 38.37046875 26.80054687 39.3984375 26.21484375 C40.25695312 25.81394531 41.11546875 25.41304687 42 25 C42.66 25.33 43.32 25.66 44 26 C42.75443908 26.81928886 41.50333365 27.63015186 40.25 28.4375 C39.55390625 28.88996094 38.8578125 29.34242187 38.140625 29.80859375 C36.07042986 30.9608009 34.31303676 31.54676982 32 32 C32 33.65 32 35.3 32 37 C33.65 37 35.3 37 37 37 C37 37.66 37 38.32 37 39 C36.05125 39.28875 35.1025 39.5775 34.125 39.875 C30.94788422 40.76825109 30.94788422 40.76825109 29 43 C28.05125 43.226875 27.1025 43.45375 26.125 43.6875 C22.71493621 45.11972679 21.59999035 46.38970644 19.9375 49.65234375 C18.29187021 53.77327501 17.10784344 58.0302209 15.9296875 62.3046875 C15 65 15 65 13 66 C13.50712033 62.28111761 14.11608215 59.26545761 16 56 C13.1217673 57.17261332 11.25497435 57.94292178 9 60 C7.38532067 64.23420203 7 68.49512182 7 73 C5.515 73.99 5.515 73.99 4 75 C4.33 70.38 4.66 65.76 5 61 C1.88214887 61.64644661 1.88214887 61.64644661 1 64 C-2.0625 64.625 -2.0625 64.625 -5 65 C-4.54965877 66.62723299 -4.08944646 68.25173664 -3.625 69.875 C-3.36976562 70.77992187 -3.11453125 71.68484375 -2.8515625 72.6171875 C-2.1395685 75.14569726 -2.1395685 75.14569726 0 77 C-1 78 -1 78 -4.75 78.4375 C-8.41873736 78.37843267 -8.87740855 78.10897018 -11.8125 75.5 C-16.01677627 69.46962393 -17.26908485 63.1873323 -18 56 C-18.495 54.515 -18.495 54.515 -19 53 C-18.62354572 49.48642673 -18.11813494 46.35440482 -17 43 C-17.495 41.515 -17.495 41.515 -18 40 C-18.73174307 36.0160655 -18.52154963 33.77766775 -16.25 30.390625 C-14.81268241 28.61451112 -13.34567193 26.86194668 -11.84765625 25.13671875 C-9.96678279 23.13919325 -9.96678279 23.13919325 -9 21 C-8.113125 20.87625 -7.22625 20.7525 -6.3125 20.625 C-2.43117437 19.89267441 -0.1500275 18.3250203 3 16 C2.30157654 10.52901623 1.20795667 5.435805 0 0 Z " fill="#EEEEED" transform="translate(48,0)"/>
<path d="M0 0 C0.33 0.66 0.66 1.32 1 2 C-0.48905133 5.31755205 -2.16739635 8.5138 -3.84765625 11.73828125 C-5.32195289 14.87048471 -5.32195289 14.87048471 -4.1953125 17.55078125 C-3.80085938 18.35902344 -3.40640625 19.16726562 -3 20 C-2.76953125 22.8671875 -2.76953125 22.8671875 -2.8125 25.875 C-2.83376953 27.45667969 -2.83376953 27.45667969 -2.85546875 29.0703125 C-3 32 -3 32 -3.625 35.75 C-4.17216859 40.4921278 -3.49667495 44.86189293 -0.6875 48.875 C3.1453883 51.43025886 7.65255224 52.58455189 12 54 C12 54.66 12 55.32 12 56 C9.69 55.67 7.38 55.34 5 55 C5.495 57.97 5.495 57.97 6 61 C7.11375 60.34 8.2275 59.68 9.375 59 C12.75 57 12.75 57 15 57 C14.505 55.02 14.505 55.02 14 53 C17.8601272 53 21.22950224 53.17734594 25 54 C26.9375 55.9375 26.9375 55.9375 28 58 C28 58.66 28 59.32 28 60 C26.68 60 25.36 60 24 60 C24.6954344 63.00384054 24.6954344 63.00384054 26 66 C28.03243548 66.96877057 28.03243548 66.96877057 30 67 C29.34 66.38125 28.68 65.7625 28 65.125 C26 63 26 63 26 61 C29.38231081 62.39957689 31.27928642 63.73064421 33 67 C33.24493747 69.72036936 33.13708782 72.25824366 33 75 C31.68 74.67 30.36 74.34 29 74 C29 74.66 29 75.32 29 76 C30.65 76.66 32.3 77.32 34 78 C33.34 79.32 32.68 80.64 32 82 C31.6596875 81.0409375 31.6596875 81.0409375 31.3125 80.0625 C30.16952088 77.74737559 30.16952088 77.74737559 27.5625 77.375 C26.2940625 77.189375 26.2940625 77.189375 25 77 C22 75 22 75 21.125 72.75 C19.4964812 68.76917627 16.93684336 64.96842168 13 63 C13.515625 63.94875 14.03125 64.8975 14.5625 65.875 C15.036875 66.90625 15.51125 67.9375 16 69 C15.67 69.66 15.34 70.32 15 71 C13.6696875 70.443125 13.6696875 70.443125 12.3125 69.875 C8.59173995 68.89215772 7.32561865 69.23937836 4 71 C3.67 70.01 3.34 69.02 3 68 C4.98 67.505 4.98 67.505 7 67 C6.01 66.01 6.01 66.01 5 65 C3.35 66.32 1.7 67.64 0 69 C-0.99 67.02 -1.98 65.04 -3 63 C-1.35 63.66 0.3 64.32 2 65 C2.4569098 60.9991076 2.4569098 60.9991076 0 58.875 C-0.66 58.25625 -1.32 57.6375 -2 57 C-2 56.34 -2 55.68 -2 55 C-2.66 55 -3.32 55 -4 55 C-4.66 57.31 -5.32 59.62 -6 62 C-5.34 62.33 -4.68 62.66 -4 63 C-5.32 63 -6.64 63 -8 63 C-7.77441406 62.42894531 -7.54882812 61.85789063 -7.31640625 61.26953125 C-5.67968096 55.93533327 -5.72625447 52.69481139 -8.36303711 47.6472168 C-9.84342141 45.05466924 -11.38609165 42.51139885 -13 40 C-12.84402344 40.73605469 -12.68804687 41.47210938 -12.52734375 42.23046875 C-12.33269531 43.20628906 -12.13804688 44.18210938 -11.9375 45.1875 C-11.64166016 46.63189453 -11.64166016 46.63189453 -11.33984375 48.10546875 C-10.99192899 51.06874274 -11.1290663 53.15562115 -12 56 C-13.875 57.125 -13.875 57.125 -16 58 C-17.70921589 59.5412312 -17.70921589 59.5412312 -19 61 C-20.32 60.34 -21.64 59.68 -23 59 C-23 56.36 -23 53.72 -23 51 C-23.66 51 -24.32 51 -25 51 C-26.125 45.25 -26.125 45.25 -25 43 C-23.68 43 -22.36 43 -21 43 C-21 43.66 -21 44.32 -21 45 C-20.01 44.505 -20.01 44.505 -19 44 C-19.495 43.566875 -19.99 43.13375 -20.5 42.6875 C-22 41 -22 41 -22 38 C-22.99 38 -23.98 38 -25 38 C-28 32.25 -28 32.25 -28 30 C-28.66 30 -29.32 30 -30 30 C-30 28.35 -30 26.7 -30 25 C-27.29120665 23.64560332 -24.99066732 23.93498549 -22 24 C-21.67 22.68 -21.34 21.36 -21 20 C-20.01 20.33 -19.02 20.66 -18 21 C-17.67 21.99 -17.34 22.98 -17 24 C-16.01 24.33 -15.02 24.66 -14 25 C-13.61908203 24.15115234 -13.61908203 24.15115234 -13.23046875 23.28515625 C-12.88628906 22.55167969 -12.54210937 21.81820312 -12.1875 21.0625 C-11.85105469 20.33160156 -11.51460937 19.60070312 -11.16796875 18.84765625 C-10 17 -10 17 -7 16 C-6.89816406 15.29488281 -6.79632813 14.58976562 -6.69140625 13.86328125 C-5.90085188 10.58940355 -4.59476266 8.11415533 -2.9375 5.1875 C-2.11572266 3.72376953 -2.11572266 3.72376953 -1.27734375 2.23046875 C-0.85582031 1.49441406 -0.43429688 0.75835937 0 0 Z " fill="#C8C8C7" transform="translate(111,64)"/>
<path d="M0 0 C0 25.08 0 50.16 0 76 C4.44607497 74.22157001 5.9797308 73.35585467 9 70 C9.99 71.485 9.99 71.485 11 73 C12.63631892 74.04892238 14.30485863 75.04906703 16 76 C16.99 76.66 17.98 77.32 19 78 C19.598125 77.505 20.19625 77.01 20.8125 76.5 C27.90967276 73.160154 36.70508643 74.6771116 44 77 C47.07506186 78.19204799 50.03455259 79.55933938 53 81 C54.09054688 81.49886719 54.09054688 81.49886719 55.203125 82.0078125 C55.89921875 82.33523437 56.5953125 82.66265625 57.3125 83 C57.92738281 83.28875 58.54226562 83.5775 59.17578125 83.875 C61.60731091 85.37453007 63.22903453 86.73624413 65 89 C66.2168977 96.78047979 65.32610447 103.94462688 62 111 C61.73316406 111.77601563 61.46632813 112.55203125 61.19140625 113.3515625 C58.1004472 122.22604936 52.63968334 129.48734546 45 135 C44.34 135 43.68 135 43 135 C42.67 135.99 42.34 136.98 42 138 C41.67 136.68 41.34 135.36 41 134 C41.825 133.525625 42.65 133.05125 43.5 132.5625 C52.99536619 126.19475442 58.30662034 116.85174958 61 106 C61.89096457 99.95805702 63.02284101 91.94277624 59.4453125 86.73828125 C57.03807004 85.05850217 54.74276413 84.04522583 52 83 C51.02160156 82.52304688 50.04320312 82.04609375 49.03515625 81.5546875 C40.6033192 77.74003687 33.11513539 77.1745673 24 78 C23.01 78.495 23.01 78.495 22 79 C22 80.32 22 81.64 22 83 C20.33564843 84.00384841 18.66853524 85.0031209 17 86 C15.42572971 88.14089595 14.0745473 90.15775033 12.75 92.4375 C12.399375 93.01048828 12.04875 93.58347656 11.6875 94.17382812 C9.96471969 97.05285907 8.55614982 99.67127978 8 103 C8.66 103 9.32 103 10 103 C10.22816406 103.59425781 10.45632812 104.18851562 10.69140625 104.80078125 C12.35918232 107.60364073 14.11968957 108.57791372 16.9375 110.1875 C17.81277344 110.69667969 18.68804687 111.20585937 19.58984375 111.73046875 C22.03559742 113.10205451 22.03559742 113.10205451 25 114 C25 114.66 25 115.32 25 116 C20.95551005 115.35407409 17.82994831 113.21855545 14.4375 111.0625 C13.86064453 110.70220703 13.28378906 110.34191406 12.68945312 109.97070312 C10.10089557 108.3494958 7.54145585 106.6943039 5 105 C4.5625 102.6875 4.5625 102.6875 5 100 C5.598125 99.278125 6.19625 98.55625 6.8125 97.8125 C9.84766606 93.91014363 10.78588008 89.73690724 12 85 C13.32 85 14.64 85 16 85 C16 84.01 16 83.02 16 82 C15.236875 81.731875 14.47375 81.46375 13.6875 81.1875 C11 80 11 80 9.5 78.3125 C8.01058474 76.71058018 8.01058474 76.71058018 5.4375 77.0625 C2.85338976 77.77905218 2.85338976 77.77905218 1.6875 80.0625 C1.460625 80.701875 1.23375 81.34125 1 82 C0.01 82 -0.98 82 -2 82 C-1.505 82.94875 -1.01 83.8975 -0.5 84.875 C1 88 1 88 1 90 C-0.65 89.34 -2.3 88.68 -4 88 C-3.835 88.598125 -3.67 89.19625 -3.5 89.8125 C-3 92 -3 92 -3 95 C-1.02 94.01 -1.02 94.01 1 93 C0.0409375 94.36125 0.0409375 94.36125 -0.9375 95.75 C-2.61428953 98.39221381 -3.53689998 99.9898499 -4 103 C-3.01 103 -2.02 103 -1 103 C-1 103.99 -1 104.98 -1 106 C0.65 106 2.3 106 4 106 C4 106.33 4 106.66 4 107 C-2.75 107.125 -2.75 107.125 -5 106 C-5.680625 106.99 -5.680625 106.99 -6.375 108 C-7.179375 108.99 -7.179375 108.99 -8 110 C-8.66 110 -9.32 110 -10 110 C-10 108.68 -10 107.36 -10 106 C-10.66 106 -11.32 106 -12 106 C-12 105.34 -12 104.68 -12 104 C-12.639375 103.9175 -13.27875 103.835 -13.9375 103.75 C-17.54230824 102.86718982 -20.66435777 101.42069826 -24.01171875 99.83984375 C-25.94733414 98.87029715 -25.94733414 98.87029715 -28 99 C-24.7286313 104.79924451 -22.12191544 108.71115888 -15.734375 111.05078125 C-13.47369098 112.2880475 -12.94741262 113.65563713 -12 116 C-15.33987174 116.59946416 -17.43178522 116.33192745 -20.3671875 114.6171875 C-24.90299441 111.26967505 -27.06464186 109.64616187 -28 104 C-29.38426035 101.29257878 -29.38426035 101.29257878 -31.0625 98.6875 C-31.61035156 97.80449219 -32.15820312 96.92148438 -32.72265625 96.01171875 C-33.35494141 95.01591797 -33.35494141 95.01591797 -34 94 C-28.61607143 91.66071429 -28.61607143 91.66071429 -25 93 C-25.66 92.01 -26.32 91.02 -27 90 C-27 89.01 -27 88.02 -27 87 C-22.78247239 88.56204726 -20.62600654 91.45134252 -18 95 C-17.835 95.7425 -17.67 96.485 -17.5 97.25 C-17.2525 98.11625 -17.2525 98.11625 -17 99 C-14.63813861 100.26145768 -14.63813861 100.26145768 -12 101 C-10.515 101.495 -10.515 101.495 -9 102 C-8.67 102.99 -8.34 103.98 -8 105 C-7.34 104.01 -6.68 103.02 -6 102 C-7.65 101.34 -9.3 100.68 -11 100 C-11 99.34 -11 98.68 -11 98 C-9.68 98.33 -8.36 98.66 -7 99 C-7.3846179 93.32688601 -7.82305585 90.17694415 -12 86 C-12.66 85.67 -13.32 85.34 -14 85 C-12.02 87.64 -10.04 90.28 -8 93 C-11.58153059 91.20923471 -13.46851925 89.98353088 -16 87 C-16 86.01 -16 85.02 -16 84 C-14.68 84 -13.36 84 -12 84 C-12.33 82.68 -12.66 81.36 -13 80 C-14.32 79.67 -15.64 79.34 -17 79 C-15.68 79 -14.36 79 -13 79 C-12.67 77.35 -12.34 75.7 -12 74 C-8.21388773 74.54087318 -6.44599233 76.11722332 -4 79 C-4 79.66 -4 80.32 -4 81 C-3.34 81 -2.68 81 -2 81 C-2.03029297 80.11256104 -2.06058594 79.22512207 -2.09179688 78.31079102 C-2.65172367 61.52052466 -3.10372828 44.73805022 -3.125 27.9375 C-3.12749756 27.25293732 -3.12999512 26.56837463 -3.13256836 25.86306763 C-3.15575163 18.17908825 -2.98340682 10.62644308 -2 3 C-2.66 3 -3.32 3 -4 3 C-4 2.34 -4 1.68 -4 1 C-2 0 -2 0 0 0 Z " fill="#333332" transform="translate(151,40)"/>
<path d="M0 0 C2.37473224 2.37473224 2.5171933 3.62371653 3.125 6.875 C3.29257813 7.73867187 3.46015625 8.60234375 3.6328125 9.4921875 C4 12 4 12 4 16 C4.66 16 5.32 16 6 16 C6.16276042 18.01822917 6.32552083 20.03645833 6.48828125 22.0546875 C6.87393036 24.39519216 6.87393036 24.39519216 10 26 C10.37125 25.0409375 10.37125 25.0409375 10.75 24.0625 C12 22 12 22 14.125 21.25 C15.053125 21.12625 15.053125 21.12625 16 21 C17.08318662 16.91721966 16.83473185 13.82121165 16.0625 9.6875 C15.77052734 8.08455078 15.77052734 8.08455078 15.47265625 6.44921875 C15.31667969 5.64097656 15.16070312 4.83273438 15 4 C19.35880482 8.05079506 21.93898004 12.43348454 24 18 C23.92778891 21.89939904 22.93788722 24.64099549 21 28 C21.66 27.67 22.32 27.34 23 27 C23.73075648 24.6859378 24.40138258 22.35171131 25 20 C25.66 20 26.32 20 27 20 C28.5078125 21.53125 28.5078125 21.53125 30.125 23.5 C30.93324219 24.47453125 30.93324219 24.47453125 31.7578125 25.46875 C32.16773438 25.9740625 32.57765625 26.479375 33 27 C32.34 28.32 31.68 29.64 31 31 C30.01 30.67 29.02 30.34 28 30 C28.66 30.99 29.32 31.98 30 33 C31.65 31.68 33.3 30.36 35 29 C35.66 30.32 36.32 31.64 37 33 C35.35 33 33.7 33 32 33 C32.84296517 35.21568639 32.84296517 35.21568639 35.25 36 C40.25705807 39.64149678 42.72486153 46.02625348 44 52 C26.95403213 47.58183553 26.95403213 47.58183553 22.375 43.875 C19.51787248 41.61937301 17.61284925 41.1570804 14 41 C13.01 41.66 12.02 42.32 11 43 C0.47687231 29.00532503 -0.78280067 16.98316152 0 0 Z " fill="#F4F4F3" transform="translate(82,99)"/>
<path d="M0 0 C9.1792597 0.03746637 17.03547562 2.49050873 25 7 C26 10 26 10 25.13549805 11.83764648 C24.45547729 12.84420288 24.45547729 12.84420288 23.76171875 13.87109375 C23.27123047 14.61037109 22.78074219 15.34964844 22.27539062 16.11132812 C21.48938477 17.2627832 21.48938477 17.2627832 20.6875 18.4375 C19.66884459 19.95587316 18.65185921 21.47536834 17.63671875 22.99609375 C17.17998779 23.66825928 16.72325684 24.3404248 16.25268555 25.03295898 C14.95296708 26.97571422 14.95296708 26.97571422 14.02270508 29.12524414 C13 31 13 31 10 33 C8.00708008 33.22705078 8.00708008 33.22705078 5.76953125 33.1953125 C4.96708984 33.18886719 4.16464844 33.18242187 3.33789062 33.17578125 C2.50451172 33.15902344 1.67113281 33.14226562 0.8125 33.125 C-0.03248047 33.11597656 -0.87746094 33.10695312 -1.74804688 33.09765625 C-3.83215243 33.07410703 -5.91611217 33.03823647 -8 33 C-8.7136028 26.34851709 -6.49948357 22.68544787 -2.9375 17.1875 C-1.98136711 15.68536826 -1.03176573 14.17905209 -0.08984375 12.66796875 C0.33433838 12.01078857 0.75852051 11.3536084 1.19555664 10.67651367 C1.46102295 10.12326416 1.72648926 9.57001465 2 9 C1.15811388 7.05270463 1.15811388 7.05270463 0 6 C-0.04080783 4.00041636 -0.04254356 1.99954746 0 0 Z " fill="#FAFAF9" transform="translate(106,161)"/>
<path d="M0 0 C2.56634828 1.23184718 4.99958066 2.5986838 7.4375 4.0625 C10.26401892 5.70114998 12.71952335 6.60236647 16 7 C16 6.01 16 5.02 16 4 C16.66 4 17.32 4 18 4 C18.33 3.34 18.66 2.68 19 2 C20.17219543 2.78345715 21.33763668 3.57702836 22.5 4.375 C23.1496875 4.81585938 23.799375 5.25671875 24.46875 5.7109375 C24.9740625 6.13632813 25.479375 6.56171875 26 7 C26 7.66 26 8.32 26 9 C28.64 9.33 31.28 9.66 34 10 C30.6208665 14.40311335 27.23030651 18.80175524 22 21 C15.98696794 21.71121885 9.91117733 21.31359496 4 20 C4 19.34 4 18.68 4 18 C3.401875 18.350625 2.80375 18.70125 2.1875 19.0625 C0 20 0 20 -3 19 C-2.54240047 12.4491015 -1.7899856 6.3246158 0 0 Z " fill="#040404" transform="translate(146,172)"/>
<path d="M0 0 C4.5206665 -0.02468857 9.0412939 -0.04285449 13.56201172 -0.05493164 C15.10043013 -0.05996552 16.63884375 -0.06679308 18.17724609 -0.07543945 C20.38640526 -0.08754639 22.59550126 -0.09323769 24.8046875 -0.09765625 C25.49432587 -0.10281754 26.18396423 -0.10797882 26.89450073 -0.11329651 C31.77225659 -0.11387171 31.77225659 -0.11387171 34 1 C35.04976964 4.14930893 35.10131595 6.38814456 35.0625 9.6875 C35.05347656 10.68136719 35.04445312 11.67523438 35.03515625 12.69921875 C35.02355469 13.45847656 35.01195312 14.21773437 35 15 C35.928125 15.4021875 35.928125 15.4021875 36.875 15.8125 C39 17 39 17 41 20 C39.54634731 21.17249353 38.08692581 22.33783816 36.625 23.5 C35.40683594 24.47453125 35.40683594 24.47453125 34.1640625 25.46875 C32 27 32 27 30 27 C30 24.03 30 21.06 30 18 C29.34 18 28.68 18 28 18 C27.93683594 17.38511719 27.87367187 16.77023438 27.80859375 16.13671875 C27.42382133 13.59722075 26.95273757 11.38819551 26 9 C21.05058966 5.73338918 16.71746833 5.69908061 11 6 C11 8.64 11 11.28 11 14 C9.54735962 14.8638129 8.0876837 15.71580454 6.625 16.5625 C5.81289063 17.03816406 5.00078125 17.51382812 4.1640625 18.00390625 C3.44992188 18.33261719 2.73578125 18.66132813 2 19 C1.34 18.67 0.68 18.34 0 18 C0.99 17.34 1.98 16.68 3 16 C2.49274046 12.0264669 1.84538497 8.15420106 0.9609375 4.24609375 C0.78095215 3.44743896 0.6009668 2.64878418 0.41552734 1.82592773 C0.27840332 1.22337158 0.1412793 0.62081543 0 0 Z " fill="#D43254" transform="translate(48,0)"/>
<path d="M0 0 C1.32 0 2.64 0 4 0 C4.01417969 0.80824219 4.02835938 1.61648437 4.04296875 2.44921875 C4.20098998 9.25080463 4.20098998 9.25080463 7.4375 15 C8.7059375 15.99 8.7059375 15.99 10 17 C11.16015625 19.125 11.16015625 19.125 12 21 C10.39805929 21.98280415 8.79336258 22.96111717 7.1875 23.9375 C6.29417969 24.48277344 5.40085937 25.02804688 4.48046875 25.58984375 C2 27 2 27 -1 28 C-1 28.99 -1 29.98 -1 31 C-0.22914062 30.55527344 0.54171875 30.11054688 1.3359375 29.65234375 C2.33882812 29.08644531 3.34171875 28.52054688 4.375 27.9375 C5.37273437 27.36902344 6.37046875 26.80054687 7.3984375 26.21484375 C8.25695312 25.81394531 9.11546875 25.41304687 10 25 C10.66 25.33 11.32 25.66 12 26 C10.75443908 26.81928886 9.50333365 27.63015186 8.25 28.4375 C7.55390625 28.88996094 6.8578125 29.34242187 6.140625 29.80859375 C4.07042986 30.9608009 2.31303676 31.54676982 0 32 C0 33.65 0 35.3 0 37 C1.65 37 3.3 37 5 37 C5 37.66 5 38.32 5 39 C4.05125 39.28875 3.1025 39.5775 2.125 39.875 C-1.05211578 40.76825109 -1.05211578 40.76825109 -3 43 C-4.5159375 43.495 -4.5159375 43.495 -6.0625 44 C-9.12150806 44.65752556 -9.12150806 44.65752556 -10 47 C-13.73596962 48.92135581 -16.82341877 49.37125166 -21 49 C-21.66 48.34 -22.32 47.68 -23 47 C-23 40.41883526 -18.83924625 35.89631653 -14.4453125 31.4140625 C-11.45222401 28.73113862 -9.01720146 27.35445895 -5 27 C-5.33 25.02 -5.66 23.04 -6 21 C-5.34 21 -4.68 21 -4 21 C-4 20.01 -4 19.02 -4 18 C-3.34 18 -2.68 18 -2 18 C-2 20.97 -2 23.94 -2 27 C1.3 24.69 4.6 22.38 8 20 C7.195625 19.46375 6.39125 18.9275 5.5625 18.375 C2.36423905 15.30251336 2.53867247 12.02118018 2.3125 7.75 C2.28800781 6.50734375 2.26351562 5.2646875 2.23828125 3.984375 C2.15964844 2.99953125 2.08101562 2.0146875 2 1 C1.34 0.67 0.68 0.34 0 0 Z " fill="#3F2225" transform="translate(80,0)"/>
<path d="M0 0 C2.37473224 2.37473224 2.5171933 3.62371653 3.125 6.875 C3.29257813 7.73867187 3.46015625 8.60234375 3.6328125 9.4921875 C4 12 4 12 4 16 C4.66 16 5.32 16 6 16 C6.16276042 18.01822917 6.32552083 20.03645833 6.48828125 22.0546875 C6.87393036 24.39519216 6.87393036 24.39519216 10 26 C10.37125 25.0409375 10.37125 25.0409375 10.75 24.0625 C12 22 12 22 14.125 21.25 C15.053125 21.12625 15.053125 21.12625 16 21 C17.08318662 16.91721966 16.83473185 13.82121165 16.0625 9.6875 C15.77052734 8.08455078 15.77052734 8.08455078 15.47265625 6.44921875 C15.31667969 5.64097656 15.16070312 4.83273438 15 4 C19.36508891 8.05663509 21.9205975 12.43428013 24 18 C24 25.39186677 20.033183 31.84697931 15 37 C12.25 38.25 12.25 38.25 10 39 C9.67 39.66 9.34 40.32 9 41 C7.86988348 38.7941576 6.74584212 36.58554973 5.625 34.375 C5.30789062 33.75753906 4.99078125 33.14007813 4.6640625 32.50390625 C0.78605105 24.82867526 -0.27615923 18.7061931 -0.125 10.125 C-0.11597656 9.15046875 -0.10695313 8.1759375 -0.09765625 7.171875 C-0.07421623 4.78099272 -0.04140442 2.39062739 0 0 Z " fill="#EDEDEB" transform="translate(82,99)"/>
<path d="M0 0 C0.33 0 0.66 0 1 0 C1 1.65 1 3.3 1 5 C2.32 5.33 3.64 5.66 5 6 C4.34 6.66 3.68 7.32 3 8 C3.3185177 10.10820797 3.3185177 10.10820797 4 12 C5.32 12 6.64 12 8 12 C9.25664978 14.90600261 10 16.79604584 10 20 C11.32 19.34 12.64 18.68 14 18 C13.360625 18.9075 12.72125 19.815 12.0625 20.75 C10.38571047 23.39221381 9.46310002 24.9898499 9 28 C9.99 28 10.98 28 12 28 C12 28.99 12 29.98 12 31 C13.65 31 15.3 31 17 31 C17 31.33 17 31.66 17 32 C10.25 32.125 10.25 32.125 8 31 C7.54625 31.66 7.0925 32.32 6.625 33 C6.08875 33.66 5.5525 34.32 5 35 C4.34 35 3.68 35 3 35 C3 33.68 3 32.36 3 31 C2.34 31 1.68 31 1 31 C1 30.34 1 29.68 1 29 C0.360625 28.9175 -0.27875 28.835 -0.9375 28.75 C-4.54230824 27.86718982 -7.66435777 26.42069826 -11.01171875 24.83984375 C-12.94733414 23.87029715 -12.94733414 23.87029715 -15 24 C-11.7286313 29.79924451 -9.12191544 33.71115888 -2.734375 36.05078125 C-0.47369098 37.2880475 0.05258738 38.65563713 1 41 C-2.33987174 41.59946416 -4.43178522 41.33192745 -7.3671875 39.6171875 C-11.90299441 36.26967505 -14.06464186 34.64616187 -15 29 C-16.38426035 26.29257878 -16.38426035 26.29257878 -18.0625 23.6875 C-18.61035156 22.80449219 -19.15820312 21.92148438 -19.72265625 21.01171875 C-20.14417969 20.34785156 -20.56570312 19.68398437 -21 19 C-15.61607143 16.66071429 -15.61607143 16.66071429 -12 18 C-12.66 17.01 -13.32 16.02 -14 15 C-14 14.01 -14 13.02 -14 12 C-9.78247239 13.56204726 -7.62600654 16.45134252 -5 20 C-4.7525 21.11375 -4.7525 21.11375 -4.5 22.25 C-4.2525 23.11625 -4.2525 23.11625 -4 24 C-1.63813861 25.26145768 -1.63813861 25.26145768 1 26 C1.99 26.33 2.98 26.66 4 27 C4.33 27.99 4.66 28.98 5 30 C5.66 29.01 6.32 28.02 7 27 C5.35 26.34 3.7 25.68 2 25 C2 24.34 2 23.68 2 23 C3.32 23.33 4.64 23.66 6 24 C5.6153821 18.32688601 5.17694415 15.17694415 1 11 C0.34 10.67 -0.32 10.34 -1 10 C0.98 12.64 2.96 15.28 5 18 C1.41846941 16.20923471 -0.46851925 14.98353088 -3 12 C-3 11.01 -3 10.02 -3 9 C-1.68 9 -0.36 9 1 9 C0.67 7.68 0.34 6.36 0 5 C-1.32 4.67 -2.64 4.34 -4 4 C-2.68 4 -1.36 4 0 4 C0 2.68 0 1.36 0 0 Z " fill="#232323" transform="translate(138,115)"/>
<path d="M0 0 C2.75 0.375 2.75 0.375 4.86328125 2.70703125 C8.54213043 6.1071043 11.94854724 7.07964496 16.6875 8.4375 C24.2643034 10.65646539 30.0402092 13.31681757 35.625 19.125 C36.22054687 19.73859375 36.81609375 20.3521875 37.4296875 20.984375 C37.86539063 21.44328125 38.30109375 21.9021875 38.75 22.375 C38.255 23.86 38.255 23.86 37.75 25.375 C32.19820303 25.76459979 29.38925004 25.52065735 24.60546875 22.37890625 C22.44204887 21.20838223 20.54392093 20.84931629 18.125 20.4375 C13.70204115 19.60113129 11.64811543 17.88786718 8.75 14.375 C6.18819345 11.81319345 3.4055863 9.54712533 0.625 7.2265625 C-1.25633803 5.3687412 -2.22739479 3.79303523 -3.25 1.375 C-2.25 0.375 -2.25 0.375 0 0 Z " fill="#F6F6F5" transform="translate(98.25,140.625)"/>
<path d="M0 0 C3.8601272 0 7.22950224 0.17734594 11 1 C12.9375 2.9375 12.9375 2.9375 14 5 C14 5.66 14 6.32 14 7 C12.68 7 11.36 7 10 7 C10.6954344 10.00384054 10.6954344 10.00384054 12 13 C14.03243548 13.96877057 14.03243548 13.96877057 16 14 C15.34 13.38125 14.68 12.7625 14 12.125 C12 10 12 10 12 8 C15.38231081 9.39957689 17.27928642 10.73064421 19 14 C19.24493747 16.72036936 19.13708782 19.25824366 19 22 C17.68 21.67 16.36 21.34 15 21 C15 21.66 15 22.32 15 23 C16.65 23.66 18.3 24.32 20 25 C19.34 26.32 18.68 27.64 18 29 C17.773125 28.360625 17.54625 27.72125 17.3125 27.0625 C16.16952088 24.74737559 16.16952088 24.74737559 13.5625 24.375 C12.716875 24.25125 11.87125 24.1275 11 24 C8 22 8 22 7.125 19.75 C5.4964812 15.76917627 2.93684336 11.96842168 -1 10 C-0.484375 10.94875 0.03125 11.8975 0.5625 12.875 C1.036875 13.90625 1.51125 14.9375 2 16 C1.67 16.66 1.34 17.32 1 18 C-4.875 14.375 -4.875 14.375 -6 11 C-5.01 10.67 -4.02 10.34 -3 10 C-3.99 9.67 -4.98 9.34 -6 9 C-5.67 8.01 -5.34 7.02 -5 6 C-1.9375 4.8125 -1.9375 4.8125 1 4 C0.67 2.68 0.34 1.36 0 0 Z " fill="#575756" transform="translate(125,117)"/>
<path d="M0 0 C0.66 0 1.32 0 2 0 C2 0.99 2 1.98 2 3 C3.98 3 5.96 3 8 3 C8 2.34 8 1.68 8 1 C8.99 1.33 9.98 1.66 11 2 C12.01573289 5.04719867 12.0097124 5.98833004 11.44140625 9.01171875 C11.30283203 9.76904297 11.16425781 10.52636719 11.02148438 11.30664062 C10.79428711 12.48516602 10.79428711 12.48516602 10.5625 13.6875 C10.41490234 14.48478516 10.26730469 15.28207031 10.11523438 16.10351562 C9.75015036 18.07025852 9.37594711 20.03530467 9 22 C12.465 21.505 12.465 21.505 16 21 C16 21.66 16 22.32 16 23 C28.75882108 24.31670274 28.75882108 24.31670274 40 19.1875 C42.41581992 16.88492164 44.14249551 14.78625673 46 12 C46.66 12.33 47.32 12.66 48 13 C47.34 13.99 46.68 14.98 46 16 C46 16.99 46 17.98 46 19 C40.09147413 22.61137936 34.99793404 25.61877268 27.97265625 25.89453125 C25.87378071 26.00674836 24.01994551 26.43513828 22 27 C22 26.34 22 25.68 22 25 C18.37 25 14.74 25 11 25 C11 24.34 11 23.68 11 23 C10.34 23.33 9.68 23.66 9 24 C9.33 24.66 9.66 25.32 10 26 C9.01 26 8.02 26 7 26 C6.938125 25.443125 6.87625 24.88625 6.8125 24.3125 C5.66805194 21.05522474 3.47377916 19.3500902 1 17 C-0.53266582 13.93466836 -0.10276471 10.73245728 -0.0625 7.375 C-0.05798828 6.66859375 -0.05347656 5.9621875 -0.04882812 5.234375 C-0.03703875 3.48954725 -0.01910324 1.744763 0 0 Z " fill="#838382" transform="translate(134,169)"/>
<path d="M0 0 C4.05819183 0.65503282 7.53971282 1.94559121 11.3125 3.5625 C12.91544922 4.24505859 12.91544922 4.24505859 14.55078125 4.94140625 C15.76314453 5.46541016 15.76314453 5.46541016 17 6 C17 6.66 17 7.32 17 8 C17.66 8 18.32 8 19 8 C19 9.32 19 10.64 19 12 C19.66 12.33 20.32 12.66 21 13 C20.67 15.31 20.34 17.62 20 20 C18.68 20.33 17.36 20.66 16 21 C16 22.32 16 23.64 16 25 C12.89355544 23.61783744 10.80108494 21.98914235 8.375 19.625 C2.58642533 14.45816113 -3.93972368 12.54537149 -11.3125 10.5625 C-15.74523747 9.31579259 -17.826231 7.35512723 -21 4 C-23.62875402 3.41511438 -23.62875402 3.41511438 -26 4 C-26.66 4.66 -27.32 5.32 -28 6 C-28 3 -28 3 -26 1 C-21.61411891 1.29239207 -18.56681885 2.45227225 -15 5 C-14.67 5.66 -14.34 6.32 -14 7 C-12.06081405 7.7771373 -12.06081405 7.7771373 -9.703125 8.3671875 C-8.8265625 8.61339844 -7.95 8.85960937 -7.046875 9.11328125 C-5.19881557 9.61659353 -3.34986735 10.11665493 -1.5 10.61328125 C3.56612149 12.04275705 7.0062074 13.42781699 11 17 C13.7104607 17.33592508 13.7104607 17.33592508 16 17 C15.505 15.515 15.505 15.515 15 14 C13.00458132 13.31974363 11.00382009 12.65509503 9 12 C4.10299461 8.96852047 2.22403567 5.11900948 0 0 Z " fill="#707070" transform="translate(122,138)"/>
<path d="M0 0 C0.66 0.33 1.32 0.66 2 1 C1.360625 1.598125 0.72125 2.19625 0.0625 2.8125 C-2.20310389 4.90810337 -2.20310389 4.90810337 -3 8 C-3.66 8 -4.32 8 -5 8 C-2.7396833 19.42952772 -2.7396833 19.42952772 2 30 C2.66 30.33 3.32 30.66 4 31 C4.73075648 33.3140622 5.40138258 35.64828869 6 38 C5.34 38 4.68 38 4 38 C4.2165625 38.84304687 4.433125 39.68609375 4.65625 40.5546875 C4.9346875 41.65039062 5.213125 42.74609375 5.5 43.875 C5.7784375 44.96554688 6.056875 46.05609375 6.34375 47.1796875 C7 50 7 50 7 52 C3.70297393 51.72524783 2.28058785 51.27233527 -0.125 48.9375 C-4.30632031 42.38676485 -5.44650702 36.41757595 -5.625 28.8125 C-5.84751976 21.85499553 -5.84751976 21.85499553 -7 15 C-7.57213183 11.20962666 -7.6773675 8.96524869 -5.4375 5.7734375 C-3.68625391 3.77503975 -1.89539271 1.86154641 0 0 Z " fill="#080808" transform="translate(37,25)"/>
<path d="M0 0 C0.61875 0.350625 1.2375 0.70125 1.875 1.0625 C2.57625 1.371875 3.2775 1.68125 4 2 C4.66 1.67 5.32 1.34 6 1 C6.99 2.32 7.98 3.64 9 5 C8.01 5.33 7.02 5.66 6 6 C5.67 6.66 5.34 7.32 5 8 C4.34 7.34 3.68 6.68 3 6 C3.15597656 6.66386719 3.31195313 7.32773438 3.47265625 8.01171875 C3.76462891 9.33623047 3.76462891 9.33623047 4.0625 10.6875 C4.25972656 11.55761719 4.45695312 12.42773438 4.66015625 13.32421875 C5.02494105 16.19637497 4.83472543 18.23527357 4 21 C2.125 22.125 2.125 22.125 0 23 C-1.70921589 24.5412312 -1.70921589 24.5412312 -3 26 C-4.32 25.34 -5.64 24.68 -7 24 C-7 21.36 -7 18.72 -7 16 C-7.66 16 -8.32 16 -9 16 C-10.125 10.25 -10.125 10.25 -9 8 C-7.68 8 -6.36 8 -5 8 C-5 8.66 -5 9.32 -5 10 C-4.34 9.67 -3.68 9.34 -3 9 C-2.62243192 7.67851173 -2.2981424 6.34164079 -2 5 C-1.3530635 3.3255761 -0.69040574 1.65697379 0 0 Z " fill="#555555" transform="translate(95,99)"/>
<path d="M0 0 C0 0.99 0 1.98 0 3 C0.66 3 1.32 3 2 3 C2.23787606 5.85451268 2.4138339 8.19990309 2 11 C-1.36169476 14.88695957 -6.0972741 16.70980897 -11 18 C-14.5 18.1875 -14.5 18.1875 -17 18 C-16.21520101 12.66336688 -14.37139703 7.42109333 -10 4 C-9.34 4 -8.68 4 -8 4 C-7.67 3.01 -7.34 2.02 -7 1 C-4.53721199 -0.231394 -2.7204945 -0.07159196 0 0 Z " fill="#FAFAF9" transform="translate(76,29)"/>
<path d="M0 0 C0.66 0.33 1.32 0.66 2 1 C1.73445313 1.7734375 1.46890625 2.546875 1.1953125 3.34375 C-1.20754448 10.39942709 -1.20754448 10.39942709 -3 17.625 C-4 21 -4 21 -5.8125 22.1875 C-6.534375 22.455625 -7.25625 22.72375 -8 23 C-8.825 23.825 -9.65 24.65 -10.5 25.5 C-12.6790194 27.6790194 -14.19517152 28.8572921 -17 30 C-19 28 -19 28 -19.15234375 26.01171875 C-18.75597675 21.72374851 -18.38258919 19.49633192 -15.6875 16 C-13 14 -13 14 -9 13 C-9.66 15.97 -10.32 18.94 -11 22 C-10.76925781 21.154375 -10.53851563 20.30875 -10.30078125 19.4375 C-8.37864993 12.75182586 -6.49308505 6.44060639 -2 1 C-1.34 0.67 -0.68 0.34 0 0 Z " fill="#232322" transform="translate(73,43)"/>
<path d="M0 0 C0.66 0 1.32 0 2 0 C3.5078125 1.53125 3.5078125 1.53125 5.125 3.5 C5.66382812 4.1496875 6.20265625 4.799375 6.7578125 5.46875 C7.16773437 5.9740625 7.57765625 6.479375 8 7 C7.34 8.32 6.68 9.64 6 11 C5.01 10.67 4.02 10.34 3 10 C3.3403125 10.8353125 3.3403125 10.8353125 3.6875 11.6875 C4.12821578 14.94879677 2.75461941 16.27059204 1 19 C0.28856912 20.98451771 -0.38991336 22.98202112 -1 25 C-1.886875 24.319375 -2.77375 23.63875 -3.6875 22.9375 C-6.75146807 20.71363732 -6.75146807 20.71363732 -9.6875 21.25 C-10.450625 21.4975 -11.21375 21.745 -12 22 C-12.99 22 -13.98 22 -15 22 C-15 21.01 -15 20.02 -15 19 C-13.28629483 17.78063286 -11.5680438 16.56656346 -9.81640625 15.40234375 C-7.19500117 13.37850628 -5.71631006 10.79694973 -4 8 C-3.34 7.67 -2.68 7.34 -2 7 C-1.26924352 4.6859378 -0.59861742 2.35171131 0 0 Z " fill="#FAFAF8" transform="translate(107,119)"/>
<path d="M0 0 C0.2475 0.556875 0.495 1.11375 0.75 1.6875 C3.35897724 6.51410789 5.69937996 9.35933189 11 11 C12.093125 11.37125 13.18625 11.7425 14.3125 12.125 C15.6428125 12.558125 15.6428125 12.558125 17 13 C17 13.66 17 14.32 17 15 C14.69 14.67 12.38 14.34 10 14 C10.33 15.98 10.66 17.96 11 20 C12.98 20.33 14.96 20.66 17 21 C16.67 21.66 16.34 22.32 16 23 C15.01 23 14.02 23 13 23 C13.66 24.32 14.32 25.64 15 27 C13.1875 28.5625 13.1875 28.5625 11 30 C10.01 29.67 9.02 29.34 8 29 C8 28.34 8 27.68 8 27 C9.32 26.67 10.64 26.34 12 26 C11.34 25.34 10.68 24.68 10 24 C8.35 25.32 6.7 26.64 5 28 C4.01 26.02 3.02 24.04 2 22 C4.475 22.99 4.475 22.99 7 24 C7.4569098 19.9991076 7.4569098 19.9991076 5 17.875 C4.34 17.25625 3.68 16.6375 3 16 C3 15.34 3 14.68 3 14 C2.34 14 1.68 14 1 14 C0.34 16.31 -0.32 18.62 -1 21 C-0.34 21.33 0.32 21.66 1 22 C-0.32 22 -1.64 22 -3 22 C-2.71382813 21.05640625 -2.71382813 21.05640625 -2.421875 20.09375 C-1.1588637 15.21793894 -0.48367648 12.05590442 -2.9375 7.5 C-3.33839844 6.8709375 -3.73929687 6.241875 -4.15234375 5.59375 C-4.43207031 5.0678125 -4.71179688 4.541875 -5 4 C-4.67 3.34 -4.34 2.68 -4 2 C-3.319375 3.2065625 -3.319375 3.2065625 -2.625 4.4375 C-1.25274335 7.08856572 -1.25274335 7.08856572 1 8 C0.34 5.69 -0.32 3.38 -1 1 C-0.67 0.67 -0.34 0.34 0 0 Z " fill="#575757" transform="translate(106,105)"/>
<path d="M0 0 C1.33855056 0.78281305 2.67073644 1.57651877 4 2.375 C5.11375 3.03628906 5.11375 3.03628906 6.25 3.7109375 C6.8275 4.13632813 7.405 4.56171875 8 5 C8 5.66 8 6.32 8 7 C10.64 7.33 13.28 7.66 16 8 C12.61178362 12.41494862 9.16262571 16.64779776 4 19 C0.94647948 19.38473385 -1.94303493 19.31193521 -5 19 C-4.10950811 14.76313335 -2.20552339 11.69958761 0 8 C-0.66 8 -1.32 8 -2 8 C-3 5 -3 5 -2 2 C-1.34 2 -0.68 2 0 2 C0 1.34 0 0.68 0 0 Z " fill="#141413" transform="translate(164,174)"/>
<path d="M0 0 C0.66 0 1.32 0 2 0 C1.9071875 0.76183594 1.814375 1.52367187 1.71875 2.30859375 C1.2305272 8.83995662 1.2305272 8.83995662 3.78125 14.6953125 C5.22123458 16.23163408 6.70983997 17.72427789 8.25 19.16015625 C10 21 10 21 10 24 C9.34 24 8.68 24 8 24 C8 24.99 8 25.98 8 27 C1.38370393 26.47069631 -2.47189317 24.7794097 -6.96484375 19.83984375 C-10.63072075 15.37545888 -10.63072075 15.37545888 -12 13 C-11.67 12.01 -11.34 11.02 -11 10 C-10.443125 10.45375 -9.88625 10.9075 -9.3125 11.375 C-7.07697094 13.09045097 -7.07697094 13.09045097 -4.5 13.9375 C-1.60517158 15.16780208 -0.21079069 16.78920931 2 19 C3.98339036 20.03255154 5.98220939 21.03640203 8 22 C7.26652344 21.40574219 6.53304687 20.81148437 5.77734375 20.19921875 C-1.76312117 13.53000425 -1.76312117 13.53000425 -2.4765625 8.921875 C-1.78532609 1.78532609 -1.78532609 1.78532609 0 0 Z " fill="#4F4F4E" transform="translate(154,152)"/>
<path d="M0 0 C9.1792597 0.03746637 17.03547562 2.49050873 25 7 C25.33 7.99 25.66 8.98 26 10 C24.0625 12.6875 24.0625 12.6875 22 15 C16.61331828 12.74956408 11.76777979 10.37233205 7 7 C6.34 6.67 5.68 6.34 5 6 C4.34 6.66 3.68 7.32 3 8 C2.01 7.34 1.02 6.68 0 6 C-0.1875 2.875 -0.1875 2.875 0 0 Z " fill="#EBEBEA" transform="translate(106,161)"/>
<path d="M0 0 C1.71230248 1.61974559 3.37163262 3.2958946 5 5 C7.09948696 6.41402014 9.24043757 7.70790808 11.42578125 8.984375 C11.94527344 9.31953125 12.46476562 9.6546875 13 10 C13 10.33 13 10.66 13 11 C9.08334892 11.02904864 5.1667256 11.04681517 1.25 11.0625 C0.13882813 11.07087891 -0.97234375 11.07925781 -2.1171875 11.08789062 C-3.72207031 11.09272461 -3.72207031 11.09272461 -5.359375 11.09765625 C-6.34389648 11.10289307 -7.32841797 11.10812988 -8.34277344 11.11352539 C-10.72869514 11.01159103 -12.72164581 10.68303357 -15 10 C-13.60068938 6.69906213 -12.03783328 4.90818734 -9.1875 2.75 C-8.52105469 2.22921875 -7.85460937 1.7084375 -7.16796875 1.171875 C-4.54050595 -0.24837516 -2.94665355 -0.38161579 0 0 Z " fill="#F4F4F3" transform="translate(97,149)"/>
<path d="M0 0 C5.29626864 0.50860454 9.44916772 1.84774046 14.1875 4.3125 C14.79013672 4.60833984 15.39277344 4.90417969 16.01367188 5.20898438 C19.59474144 7.02900107 22.61424424 8.73558785 25 12 C26.2168977 19.78047979 25.32610447 26.94462688 22 34 C21.73316406 34.77601563 21.46632812 35.55203125 21.19140625 36.3515625 C18.1004472 45.22604936 12.63968334 52.48734546 5 58 C4.34 58 3.68 58 3 58 C2.67 58.99 2.34 59.98 2 61 C1.67 59.68 1.34 58.36 1 57 C1.825 56.525625 2.65 56.05125 3.5 55.5625 C12.99536619 49.19475442 18.30662034 39.85174958 21 29 C21.89058907 22.9606034 23.04426277 14.90817726 19.41015625 9.73828125 C17.0036079 8.08024342 14.73066798 7.04351887 12 6 C10.92105469 5.52304688 9.84210938 5.04609375 8.73046875 4.5546875 C5.84211083 3.30066733 2.94069233 2.12452871 0 1 C0 0.67 0 0.34 0 0 Z " fill="#353434" transform="translate(191,117)"/>
<path d="M0 0 C1.32 0.33 2.64 0.66 4 1 C4 3.66666667 4 6.33333333 4 9 C4.31669821 11.33564933 4.64820803 13.6693782 5 16 C4.360625 16.12375 3.72125 16.2475 3.0625 16.375 C2.381875 16.58125 1.70125 16.7875 1 17 C0.67 17.66 0.34 18.32 0 19 C-3 18 -3 18 -4.6875 15.0625 C-6 12 -6 12 -6 10 C-6.66 10 -7.32 10 -8 10 C-8 8.35 -8 6.7 -8 5 C-5.29120665 3.64560332 -2.99066732 3.93498549 0 4 C0 2.68 0 1.36 0 0 Z " fill="#383838" transform="translate(89,84)"/>
<path d="M0 0 C2.4765625 1.1484375 2.4765625 1.1484375 5 3 C5.5234375 5.6015625 5.5234375 5.6015625 5.375 8.625 C5.32988281 9.68847656 5.28476563 10.75195312 5.23828125 11.84765625 C4.41346154 22.75961538 4.41346154 22.75961538 3 27 C3.39397335 29.63804589 3.39397335 29.63804589 4 32 C0.24623848 30.74874616 -0.24073289 29.4347596 -2 26 C-2 24 -2 24 0 22 C-0.20676116 20.07031503 -0.20676116 20.07031503 -0.875 17.9375 C-2.43273739 11.66608974 -3.27806918 5.7886539 0 0 Z " fill="#7E7E7D" transform="translate(103,81)"/>
<path d="M0 0 C-0.00222061 0.94769257 -0.00444122 1.89538513 -0.00672913 2.87179565 C-0.02697309 11.78915414 -0.04197821 20.70650798 -0.05181217 29.6238842 C-0.0570378 34.20873851 -0.06412967 38.79357431 -0.07543945 43.37841797 C-0.08627967 47.80041817 -0.09227925 52.22240054 -0.09487724 56.64441299 C-0.09672944 58.33416144 -0.10034614 60.02390887 -0.10573006 61.71364975 C-0.11295551 64.07458378 -0.1139903 66.43544347 -0.11352539 68.79638672 C-0.11712067 69.49985229 -0.12071594 70.20331787 -0.12442017 70.92810059 C-0.16336023 74.58719065 -0.16336023 74.58719065 1 78 C0.34 78 -0.32 78 -1 78 C-1.495 78.99 -1.495 78.99 -2 80 C-2.61254464 62.66791905 -3.10309067 45.34397048 -3.125 28 C-3.12749756 27.31366486 -3.12999512 26.62732971 -3.13256836 25.92019653 C-3.15573582 18.21736334 -2.98711609 10.64509042 -2 3 C-2.66 3 -3.32 3 -4 3 C-4 2.34 -4 1.68 -4 1 C-2 0 -2 0 0 0 Z " fill="#A1A1A0" transform="translate(151,40)"/>
<path d="M0 0 C-0.14235457 1.72945653 -0.28904382 3.45855654 -0.4375 5.1875 C-0.51871094 6.15042969 -0.59992187 7.11335938 -0.68359375 8.10546875 C-0.97983396 10.81551812 -1.26041683 13.37447974 -2 16 C-4.5625 17.3125 -4.5625 17.3125 -7 18 C-10.11696661 13.66335081 -10.55966813 10.19591612 -11 5 C-9.02 4.67 -7.04 4.34 -5 4 C-4.67 3.01 -4.34 2.02 -4 1 C-1 0 -1 0 0 0 Z " fill="#0E0F0E" transform="translate(54,60)"/>
<path d="M0 0 C3.94949704 0.62816498 7.19892028 1.8645529 10.8125 3.5625 C12.27623047 4.24505859 12.27623047 4.24505859 13.76953125 4.94140625 C14.87361328 5.46541016 14.87361328 5.46541016 16 6 C16 6.99 16 7.98 16 9 C16.66 9 17.32 9 18 9 C18 10.32 18 11.64 18 13 C14.02283961 13.31817283 11.50341745 13.24164038 7.875 11.5 C4.35531172 8.4394015 2.13363184 5.12565095 0 1 C0 0.67 0 0.34 0 0 Z " fill="#F6F6F5" transform="translate(122,138)"/>
<path d="M0 0 C3.78611227 0.54087318 5.55400767 2.11722332 8 5 C8 5.66 8 6.32 8 7 C10.97 4.69 13.94 2.38 17 0 C17.99 0.66 18.98 1.32 20 2 C19.030625 2.433125 18.06125 2.86625 17.0625 3.3125 C13.72268235 4.7014861 13.72268235 4.7014861 13 8 C12.01 8 11.02 8 10 8 C10.495 8.94875 10.99 9.8975 11.5 10.875 C13 14 13 14 13 16 C12.0925 15.690625 11.185 15.38125 10.25 15.0625 C7.20460289 13.96075162 7.20460289 13.96075162 4.75 13.6875 C3 13 3 13 1.75 10.4375 C1.5025 9.633125 1.255 8.82875 1 8 C1.66 7.67 2.32 7.34 3 7 C2.01 6.67 1.02 6.34 0 6 C0 4.02 0 2.04 0 0 Z " fill="#353535" transform="translate(139,114)"/>
<path d="M0 0 C4 0 4 0 5.6640625 1.16015625 C7.39230667 3.540282 7.83479281 5.55248046 8.375 8.4375 C8.66503906 9.85869141 8.66503906 9.85869141 8.9609375 11.30859375 C9.00824955 14.56839373 8.18151693 15.65791456 6 18 C4.68 17.34 3.36 16.68 2 16 C2 13.36 2 10.72 2 8 C1.34 8 0.68 8 0 8 C-1.125 2.25 -1.125 2.25 0 0 Z " fill="#585858" transform="translate(86,107)"/>
<path d="M0 0 C-0.66 4.95 -1.32 9.9 -2 15 C-6 14 -6 14 -7.75 11.375 C-9.11682113 7.68458295 -9.23419409 4.90323491 -9 1 C-3.375 -1.125 -3.375 -1.125 0 0 Z " fill="#040404" transform="translate(144,174)"/>
<path d="M0 0 C0.66 0.33 1.32 0.66 2 1 C1.73445313 1.7734375 1.46890625 2.546875 1.1953125 3.34375 C0.66550781 4.90609375 0.66550781 4.90609375 0.125 6.5 C-0.24496094 7.59054688 -0.61492187 8.68109375 -0.99609375 9.8046875 C-1.81899853 12.42389417 -2.42638727 14.93545534 -2.9375 17.625 C-4 21 -4 21 -6.625 22.5 C-7.40875 22.665 -8.1925 22.83 -9 23 C-10.69242097 17.94592094 -8.8840688 13.79255523 -7 9 C-3.13120176 1.56560088 -3.13120176 1.56560088 0 0 Z " fill="#131313" transform="translate(73,43)"/>
<path d="M0 0 C1.6875 1.5 1.6875 1.5 2.0078125 3.79296875 C2.90365588 7.36089668 4.59574591 8.80778135 7.25 11.3125 C8.07628906 12.10269531 8.90257812 12.89289063 9.75390625 13.70703125 C10.39199219 14.29871094 11.03007812 14.89039063 11.6875 15.5 C10.6975 15.83 9.7075 16.16 8.6875 16.5 C8.0275 16.17 7.3675 15.84 6.6875 15.5 C6.6875 14.51 6.6875 13.52 6.6875 12.5 C6.11 12.273125 5.5325 12.04625 4.9375 11.8125 C2.12322387 10.17083893 0.66012267 8.06440947 -1.3125 5.5 C-1.9725 5.17 -2.6325 4.84 -3.3125 4.5 C-2.5390625 5.923125 -2.5390625 5.923125 -1.75 7.375 C-1.275625 8.40625 -0.80125 9.4375 -0.3125 10.5 C-0.6425 11.16 -0.9725 11.82 -1.3125 12.5 C-7.1875 8.875 -7.1875 8.875 -8.3125 5.5 C-7.3225 5.17 -6.3325 4.84 -5.3125 4.5 C-6.3025 3.84 -7.2925 3.18 -8.3125 2.5 C-2.98829909 -0.64611872 -2.98829909 -0.64611872 0 0 Z " fill="#EEEEED" transform="translate(127.3125,122.5)"/>
<path d="M0 0 C0.33 0 0.66 0 1 0 C1.09796875 1.11117187 1.1959375 2.22234375 1.296875 3.3671875 C2.12329632 17.26019419 2.12329632 17.26019419 8.9453125 28.6953125 C11.06009106 30.15424156 11.06009106 30.15424156 14 31 C13.7834375 30.24074219 13.566875 29.48148438 13.34375 28.69921875 C13.0653125 27.70535156 12.786875 26.71148437 12.5 25.6875 C12.2215625 24.70136719 11.943125 23.71523437 11.65625 22.69921875 C11 20 11 20 11 17 C14.465 16.505 14.465 16.505 18 16 C18.33 16.66 18.66 17.32 19 18 C17.02 18.33 15.04 18.66 13 19 C13.45034123 20.62723299 13.91055354 22.25173664 14.375 23.875 C14.63023438 24.77992187 14.88546875 25.68484375 15.1484375 26.6171875 C15.8604315 29.14569726 15.8604315 29.14569726 18 31 C17 32 17 32 13.25 32.4375 C9.58126264 32.37843267 9.12259145 32.10897018 6.1875 29.5 C1.98322373 23.46962393 0.73091515 17.1873323 0 10 C-0.33 9.01 -0.66 8.02 -1 7 C-0.72230092 4.6593935 -0.39460023 2.32375692 0 0 Z " fill="#9B9B9A" transform="translate(30,46)"/>
<path d="M0 0 C0.66 -0.66 1.32 -1.32 2 -2 C2.226875 -0.9275 2.45375 0.145 2.6875 1.25 C4.13026545 5.37218701 5.41910075 6.64414523 9 9 C5.59698245 9.78653402 2.62008956 10.08116649 -0.86328125 9.87890625 C-1.74951172 9.83056641 -2.63574219 9.78222656 -3.54882812 9.73242188 C-4.46083984 9.67634766 -5.37285156 9.62027344 -6.3125 9.5625 C-7.24384766 9.51029297 -8.17519531 9.45808594 -9.13476562 9.40429688 C-11.42356353 9.2751852 -13.71186186 9.14024585 -16 9 C-16 8.67 -16 8.34 -16 8 C-9.73 7.67 -3.46 7.34 3 7 C1.185 5.72125 -0.63 4.4425 -2.5 3.125 C-4.37339724 1.80510649 -6.217871 0.44074715 -8 -1 C-8 -1.66 -8 -2.32 -8 -3 C-9.65 -3 -11.3 -3 -13 -3 C-13 -3.33 -13 -3.66 -13 -4 C-7.01756051 -5.89687106 -4.42884169 -3.78679068 0 0 Z " fill="#5C5C5B" transform="translate(105,152)"/>
<path d="M0 0 C9.54443233 -0.69134721 9.54443233 -0.69134721 13.5625 2 C17.91288194 4.53113131 21.09914853 4.40006951 26 4 C25.67 4.99 25.34 5.98 25 7 C24.34 7 23.68 7 23 7 C23 11.29 23 15.58 23 20 C22.67 20 22.34 20 22 20 C22 18.02 22 16.04 22 14 C21.01 13.67 20.02 13.34 19 13 C19.33 11.35 19.66 9.7 20 8 C17.77542155 6.98855432 15.54625709 5.99079735 13.3125 5 C12.68666016 4.71382812 12.06082031 4.42765625 11.41601562 4.1328125 C7.80007233 2.54255472 4.95809151 1.63673348 1 2 C0.67 1.34 0.34 0.68 0 0 Z " fill="#1F1E1E" transform="translate(111,161)"/>
<path d="M0 0 C0.66 0 1.32 0 2 0 C2 0.99 2 1.98 2 3 C3.98 3 5.96 3 8 3 C8 2.34 8 1.68 8 1 C8.99 1.33 9.98 1.66 11 2 C12.32963842 5.98891525 11.38405007 9.18462836 10.5625 13.1875 C10.41490234 13.93708984 10.26730469 14.68667969 10.11523438 15.45898438 C9.75027209 17.30734174 9.37602589 19.15386161 9 21 C6.75 21.375 6.75 21.375 4 21 C0.55413423 17.23767717 -0.45146752 14.23578123 -0.3515625 9.140625 C-0.31804687 8.47546875 -0.28453125 7.8103125 -0.25 7.125 C-0.23195312 6.43664062 -0.21390625 5.74828125 -0.1953125 5.0390625 C-0.14863748 3.3587619 -0.07690939 1.67918837 0 0 Z M1 6 C0.68808186 11.19863564 1.07735051 14.61602577 4 19 C5.32 19.33 6.64 19.66 8 20 C8.66 14.72 9.32 9.44 10 4 C6.61976483 4 4.16531063 4.87455622 1 6 Z " fill="#7B7B7B" transform="translate(134,169)"/>
<path d="M0 0 C3.6403938 1.2134646 3.84119166 2.08013783 5.6875 5.3125 C8.34720868 9.5253719 10.61852749 11.3486467 15.265625 13.05078125 C17.52630902 14.2880475 18.05258738 15.65563713 19 18 C15.66012826 18.59946416 13.56821478 18.33192745 10.6328125 16.6171875 C4.23490713 11.89541069 4.23490713 11.89541069 3.3359375 8.46875 C3.22507812 7.6540625 3.11421875 6.839375 3 6 C2.04605164 3.97762948 1.05464649 1.9717304 0 0 Z " fill="#343434" transform="translate(120,138)"/>
<path d="M0 0 C2.125 0.9375 2.125 0.9375 4 2 C2.948125 2.226875 1.89625 2.45375 0.8125 2.6875 C-4.58380767 4.25416997 -7.43895207 7.86734468 -10.25 12.5625 C-12.15584099 15.98870184 -12.15584099 15.98870184 -13 20 C-7.555 19.01 -7.555 19.01 -2 18 C-2 18.66 -2 19.32 -2 20 C-5.81389558 21.79477439 -8.78645663 22.37453719 -13 22 C-13.66 21.34 -14.32 20.68 -15 20 C-15 14.06191055 -11.78234586 10.24531198 -8 6 C-5.53730927 3.64740603 -3.06637336 1.53318668 0 0 Z " fill="#696968" transform="translate(72,27)"/>
<path d="M0 0 C3.38231081 1.39957689 5.27928642 2.73064421 7 6 C7.24493747 8.72036936 7.13708782 11.25824366 7 14 C6.34 14 5.68 14 5 14 C5 13.34 5 12.68 5 12 C4.41734375 11.90847656 3.8346875 11.81695312 3.234375 11.72265625 C0.46816153 10.82798931 -0.76373964 9.53835231 -2.75 7.4375 C-3.36359375 6.79683594 -3.9771875 6.15617188 -4.609375 5.49609375 C-5.29773438 4.75552734 -5.29773438 4.75552734 -6 4 C-5.67 3.34 -5.34 2.68 -5 2 C-4.46375 2.45375 -3.9275 2.9075 -3.375 3.375 C-0.68301698 5.21688312 1.88520388 6.07971933 5 7 C4.175 6.21625 3.35 5.4325 2.5 4.625 C0 2 0 2 0 0 Z " fill="#F4F4F2" transform="translate(137,125)"/>
<path d="M0 0 C0.33 0.66 0.66 1.32 1 2 C1.66 2 2.32 2 3 2 C3 3.32 3 4.64 3 6 C3.66 6.33 4.32 6.66 5 7 C4.67 9.31 4.34 11.62 4 14 C3.360625 14.103125 2.72125 14.20625 2.0625 14.3125 C1.381875 14.539375 0.70125 14.76625 0 15 C-0.33 15.99 -0.66 16.98 -1 18 C-3.64 15.36 -6.28 12.72 -9 10 C-8.01 10 -7.02 10 -6 10 C-5.67 10.33 -5.34 10.66 -5 11 C-3.33382885 11.04063832 -1.66611905 11.042721 0 11 C-0.33 10.01 -0.66 9.02 -1 8 C-1.66 7.67 -2.32 7.34 -3 7 C-1.35 7 0.3 7 2 7 C2 5.68 2 4.36 2 3 C1.34 3 0.68 3 0 3 C0 2.01 0 1.02 0 0 Z " fill="#707070" transform="translate(138,144)"/>
<path d="M0 0 C0.66 0.99 1.32 1.98 2 3 C2.99 2.01 3.98 1.02 5 0 C5.66 0.33 6.32 0.66 7 1 C6.360625 1.7425 5.72125 2.485 5.0625 3.25 C3.21666593 5.7111121 2.43930826 7.03466926 2 10 C2.99 10 3.98 10 5 10 C5 10.99 5 11.98 5 13 C6.65 13 8.3 13 10 13 C10 13.33 10 13.66 10 14 C3.25 14.125 3.25 14.125 1 13 C0.34 13.66 -0.32 14.32 -1 15 C-1.33 14.01 -1.66 13.02 -2 12 C-1.34 11.01 -0.68 10.02 0 9 C-2.475 8.01 -2.475 8.01 -5 7 C-5 6.34 -5 5.68 -5 5 C-3.68 5 -2.36 5 -1 5 C-0.67 3.35 -0.34 1.7 0 0 Z " fill="#2F2F2E" transform="translate(145,133)"/>
<path d="M0 0 C1.65 0 3.3 0 5 0 C5 3.63 5 7.26 5 11 C1 11 1 11 -0.875 9.4375 C-2.53194987 5.84744196 -1.31296952 3.59339026 0 0 Z " fill="#F1F1EF" transform="translate(85,89)"/>
<path d="M0 0 C0.66 0.33 1.32 0.66 2 1 C1.3503125 1.40992187 0.700625 1.81984375 0.03125 2.2421875 C-0.8040625 2.78101563 -1.639375 3.31984375 -2.5 3.875 C-3.3353125 4.40867187 -4.170625 4.94234375 -5.03125 5.4921875 C-5.6809375 5.98976563 -6.330625 6.48734375 -7 7 C-7 7.66 -7 8.32 -7 9 C-8.78881736 10.00508801 -10.58114696 11.00392736 -12.375 12 C-13.37273437 12.556875 -14.37046875 13.11375 -15.3984375 13.6875 C-18 15 -18 15 -20 15 C-20 14.01 -20 13.02 -20 12 C-18.1640625 10.60546875 -18.1640625 10.60546875 -15.625 9.1875 C-14.72007813 8.67445312 -13.81515625 8.16140625 -12.8828125 7.6328125 C-11.93148437 7.09398437 -10.98015625 6.55515625 -10 6 C-7.33924685 4.34163585 -4.68236514 2.67763242 -2.03125 1.00390625 C-1.3609375 0.67261719 -0.690625 0.34132813 0 0 Z " fill="#D9D9D7" transform="translate(99,16)"/>
<path d="M0 0 C2 3 2 3 1.6015625 5.12890625 C-1.9424198 13.96051013 -7.22728626 21.39135318 -15 27 C-15.66 27 -16.32 27 -17 27 C-17.33 27.99 -17.66 28.98 -18 30 C-18.33 28.68 -18.66 27.36 -19 26 C-18.175 25.525625 -17.35 25.05125 -16.5 24.5625 C-8.61072637 19.27182598 -2.55501959 11.22007836 -0.25 2 C-0.1675 1.34 -0.085 0.68 0 0 Z " fill="#3C3C3C" transform="translate(211,148)"/>
<path d="M0 0 C0.33 0.66 0.66 1.32 1 2 C-0.45261136 5.2865332 -2.10218453 8.44798253 -3.75 11.640625 C-5.12666667 15.34041667 -5.00336814 17.23736949 -4 21 C-5.32 20.01 -6.64 19.02 -8 18 C-8.19335938 18.60328125 -8.38671875 19.2065625 -8.5859375 19.828125 C-8.84632812 20.62734375 -9.10671875 21.4265625 -9.375 22.25 C-9.63023438 23.03890625 -9.88546875 23.8278125 -10.1484375 24.640625 C-10.95173667 26.86627958 -11.89711662 28.90931672 -13 31 C-13.68829114 22.39636076 -13.68829114 22.39636076 -11.125 18.4375 C-10.42375 17.633125 -9.7225 16.82875 -9 16 C-8.34 16 -7.68 16 -7 16 C-6.89816406 15.29488281 -6.79632813 14.58976562 -6.69140625 13.86328125 C-5.90085188 10.58940355 -4.59476266 8.11415533 -2.9375 5.1875 C-2.11572266 3.72376953 -2.11572266 3.72376953 -1.27734375 2.23046875 C-0.85582031 1.49441406 -0.43429688 0.75835937 0 0 Z " fill="#4E4E4D" transform="translate(111,64)"/>
<path d="M0 0 C3.86875878 1.75243281 7.27646801 4.14629588 10.75 6.5625 C11.35199219 6.97435547 11.95398438 7.38621094 12.57421875 7.81054688 C14.06901162 8.84605531 15.53717981 9.91979607 17 11 C17 11.33 17 11.66 17 12 C11.66689031 12.50791521 9.13879419 11.34625913 5 8 C0 2.85564304 0 2.85564304 0 0 Z " fill="#EAEAE9" transform="translate(144,166)"/>
<path d="M0 0 C0.66 0.33 1.32 0.66 2 1 C0.75443908 1.81928886 -0.49666635 2.63015186 -1.75 3.4375 C-2.44609375 3.88996094 -3.1421875 4.34242187 -3.859375 4.80859375 C-5.92957014 5.9608009 -7.68696324 6.54676982 -10 7 C-10 8.65 -10 10.3 -10 12 C-8.35 12 -6.7 12 -5 12 C-5 12.66 -5 13.32 -5 14 C-6.36125 14.433125 -6.36125 14.433125 -7.75 14.875 C-10.32202908 15.76531776 -12.61346766 16.71494413 -15 18 C-14.01 16.515 -14.01 16.515 -13 15 C-12.54860541 12.9507906 -12.54860541 12.9507906 -12.375 10.8125 C-12.25125 9.554375 -12.1275 8.29625 -12 7 C-12.66 7 -13.32 7 -14 7 C-13.67 6.01 -13.34 5.02 -13 4 C-13 4.66 -13 5.32 -13 6 C-11.39414507 5.37935063 -9.79037383 4.7533082 -8.1875 4.125 C-7.29417969 3.77695312 -6.40085937 3.42890625 -5.48046875 3.0703125 C-2.82288409 2.01167845 -2.82288409 2.01167845 0 0 Z " fill="#424242" transform="translate(90,25)"/>
<path d="M0 0 C2.31 0 4.62 0 7 0 C6.67 0.66 6.34 1.32 6 2 C4.35 2 2.7 2 1 2 C-1.68351528 10.60513899 -2.97595272 19.07271721 -4 28 C-4.66 28 -5.32 28 -6 28 C-6.77803566 18.46906319 -3.69955753 8.71562427 0 0 Z " fill="#6B6C6B" transform="translate(117,192)"/>
<path d="M0 0 C0.556875 0.45375 1.11375 0.9075 1.6875 1.375 C3.8998186 3.08382365 3.8998186 3.08382365 6.375 3.84375 C9.38988576 5.17173539 11.05061254 6.74810132 13.3125 9.125 C14.00988281 9.84945312 14.70726562 10.57390625 15.42578125 11.3203125 C16.20501953 12.15175781 16.20501953 12.15175781 17 13 C12.17635515 13 9.30410118 9.62252995 5.59375 6.75 C3.10700175 4.72034935 3.10700175 4.72034935 0 5 C-0.5625 3.0625 -0.5625 3.0625 -1 1 C-0.67 0.67 -0.34 0.34 0 0 Z " fill="#171717" transform="translate(143,162)"/>
<path d="M0 0 C3.46704871 0.9534384 5.6567524 2.28676594 8 5 C8.33 4.01 8.66 3.02 9 2 C10 5 10 5 9 8 C0.64989059 6.66958425 0.64989059 6.66958425 -2.0625 3.875 C-2.371875 3.25625 -2.68125 2.6375 -3 2 C-2.01 1.34 -1.02 0.68 0 0 Z " fill="#141414" transform="translate(120,132)"/>
<path d="M0 0 C2.97230517 4.95384195 3.44379331 9.90253035 2.0625 15.4375 C1.711875 16.613125 1.36125 17.78875 1 19 C-0.9375 18.6875 -0.9375 18.6875 -3 18 C-3.33 17.01 -3.66 16.02 -4 15 C-3.67 14.34 -3.34 13.68 -3 13 C-2.34 13 -1.68 13 -1 13 C0.60080151 8.99799622 -0.70720308 5.95443764 -2 2 C-1.34 2 -0.68 2 0 2 C0 1.34 0 0.68 0 0 Z " fill="#585857" transform="translate(93,88)"/>
<path d="M0 0 C12.66970387 2.89066059 12.66970387 2.89066059 18 6 C15.50907189 7.24546405 14.58919267 6.7767578 12 6 C12.99 6.99 13.98 7.98 15 9 C13.35 9 11.7 9 10 9 C10 8.34 10 7.68 10 7 C9.278125 6.773125 8.55625 6.54625 7.8125 6.3125 C4.46790687 4.75168987 2.48396041 2.6968713 0 0 Z " fill="#4C4C4C" transform="translate(164,17)"/>
<path d="M0 0 C4.68161858 4.49994383 9.04124347 9.73197909 11 16 C10.01 15.34 9.02 14.68 8 14 C8 13.34 8 12.68 8 12 C7.34 12 6.68 12 6 12 C5.34 14.31 4.68 16.62 4 19 C4.66 19.33 5.32 19.66 6 20 C4.68 20 3.36 20 2 20 C2.28617187 19.05640625 2.28617187 19.05640625 2.578125 18.09375 C3.83212467 13.25272801 4.51511946 10.04624121 2.125 5.5 C1.73570313 4.8709375 1.34640625 4.241875 0.9453125 3.59375 C0 2 0 2 0 0 Z " fill="#50504F" transform="translate(101,107)"/>
<path d="M0 0 C0.33 0.66 0.66 1.32 1 2 C1.639375 2.12375 2.27875 2.2475 2.9375 2.375 C3.618125 2.58125 4.29875 2.7875 5 3 C5.40605469 3.91072266 5.40605469 3.91072266 5.8203125 4.83984375 C7.37295862 7.68293416 9.14354273 8.59153909 11.9375 10.1875 C12.81277344 10.69667969 13.68804687 11.20585937 14.58984375 11.73046875 C17.03559742 13.10205451 17.03559742 13.10205451 20 14 C20 14.66 20 15.32 20 16 C15.95551005 15.35407409 12.82994831 13.21855545 9.4375 11.0625 C8.5722168 10.52206055 8.5722168 10.52206055 7.68945312 9.97070312 C5.10089557 8.3494958 2.54145585 6.6943039 0 5 C-0.1875 2.375 -0.1875 2.375 0 0 Z " fill="#575757" transform="translate(156,140)"/>
<path d="M0 0 C2.19726562 1.85546875 2.19726562 1.85546875 4.39453125 3.7109375 C5.8655046 4.89201099 7.43037794 5.95358529 9 7 C8.34 7 7.68 7 7 7 C7 7.66 7 8.32 7 9 C9.475 9.99 9.475 9.99 12 11 C11.34 12.32 10.68 13.64 10 15 C9.773125 14.360625 9.54625 13.72125 9.3125 13.0625 C8.16952088 10.74737559 8.16952088 10.74737559 5.5625 10.375 C4.716875 10.25125 3.87125 10.1275 3 10 C2.01 9.34 1.02 8.68 0 8 C0.33 6.68 0.66 5.36 1 4 C1 4.99 1 5.98 1 7 C2.32 7 3.64 7 5 7 C4.175 6.21625 3.35 5.4325 2.5 4.625 C0 2 0 2 0 0 Z " fill="#737372" transform="translate(133,131)"/>
<path d="M0 0 C0.66 0 1.32 0 2 0 C3.5638537 4.8870428 3.5638537 10.1129572 2 15 C1.01 14.67 0.02 14.34 -1 14 C-1.18451025 4.58997722 -1.18451025 4.58997722 0 0 Z " fill="#F2F2F1" transform="translate(104,83)"/>
<path d="M0 0 C2.86503068 1.2843241 5.15427705 2.41598787 7 5 C7.1875 8.1875 7.1875 8.1875 7 11 C6.34 10.67 5.68 10.34 5 10 C5 10.66 5 11.32 5 12 C4.34 12 3.68 12 3 12 C2.34 10.35 1.68 8.7 1 7 C1.66 6.67 2.32 6.34 3 6 C2.01 5.67 1.02 5.34 0 5 C0 3.35 0 1.7 0 0 Z " fill="#A6A6A5" transform="translate(139,115)"/>
<path d="M0 0 C3.3 0.33 6.6 0.66 10 1 C10.33 2.65 10.66 4.3 11 6 C11.66 6 12.32 6 13 6 C12.67 7.32 12.34 8.64 12 10 C11.34 10 10.68 10 10 10 C10 8.68 10 7.36 10 6 C9.34 6 8.68 6 8 6 C8 5.34 8 4.68 8 4 C7.236875 3.896875 6.47375 3.79375 5.6875 3.6875 C3 3 3 3 0 0 Z " fill="#090909" transform="translate(131,140)"/>
<path d="M0 0 C3.66786393 1.50349377 5.68910393 3.63728792 8.25 6.625 C8.95640625 7.44226562 9.6628125 8.25953125 10.390625 9.1015625 C10.92171875 9.72804688 11.4528125 10.35453125 12 11 C11.67 11.66 11.34 12.32 11 13 C6.78209731 11.67786355 5.02897493 10.22699886 2.6875 6.5 C2.17574219 5.7059375 1.66398438 4.911875 1.13671875 4.09375 C0 2 0 2 0 0 Z " fill="#545453" transform="translate(205,52)"/>
<path d="M0 0 C2.97 0 5.94 0 9 0 C9.33 0.99 9.66 1.98 10 3 C8.68 3 7.36 3 6 3 C6.66 4.65 7.32 6.3 8 8 C4.63820226 6.55922954 2.40843732 4.75249979 0 2 C0 1.34 0 0.68 0 0 Z " fill="#F0F0EF" transform="translate(129,121)"/>
<path d="M0 0 C0.66 0.33 1.32 0.66 2 1 C1.360625 1.598125 0.72125 2.19625 0.0625 2.8125 C-2.20310389 4.90810337 -2.20310389 4.90810337 -3 8 C-3.66 8 -4.32 8 -5 8 C-4.34 11.63 -3.68 15.26 -3 19 C-3.99 18.67 -4.98 18.34 -6 18 C-7.25497957 14.2350613 -7.52064444 11.96991382 -7 8 C-4.93780176 5.05105651 -2.56382273 2.51804018 0 0 Z " fill="#464646" transform="translate(37,25)"/>
<path d="M0 0 C0.66 0 1.32 0 2 0 C2 0.66 2 1.32 2 2 C2.99 2 3.98 2 5 2 C6.54779543 4.26216255 7.77612283 6.55224566 9 9 C8.01 9 7.02 9 6 9 C6 8.34 6 7.68 6 7 C4.68 7 3.36 7 2 7 C1.67 7.66 1.34 8.32 1 9 C0.63877119 7.68942607 0.28619689 6.37646376 -0.0625 5.0625 C-0.35833984 3.96615234 -0.35833984 3.96615234 -0.66015625 2.84765625 C-0.77230469 2.23792969 -0.88445312 1.62820312 -1 1 C-0.67 0.67 -0.34 0.34 0 0 Z " fill="#0C0C0C" transform="translate(84,100)"/>
<path d="M0 0 C4.38588109 0.29239207 7.43318115 1.45227225 11 4 C11.33 4.66 11.66 5.32 12 6 C13.64363134 6.72159424 15.31050386 7.39351421 17 8 C14 9 14 9 11.5625 8.3125 C9 7 9 7 7 4.875 C5.12990555 2.7623548 5.12990555 2.7623548 2.375 2.625 C-0.18227196 2.79015749 -0.18227196 2.79015749 -2 5 C-2 2 -2 2 0 0 Z " fill="#545453" transform="translate(96,139)"/>
<path d="M0 0 C0.928125 0.5259375 0.928125 0.5259375 1.875 1.0625 C2.57625 1.371875 3.2775 1.68125 4 2 C4.66 1.67 5.32 1.34 6 1 C6.99 2.32 7.98 3.64 9 5 C8.01 5.33 7.02 5.66 6 6 C5.67 6.66 5.34 7.32 5 8 C4.01 7.01 3.02 6.02 2 5 C1.34 6.32 0.68 7.64 0 9 C-1.125 2.25 -1.125 2.25 0 0 Z " fill="#121212" transform="translate(95,99)"/>
<path d="M0 0 C0.66 0.33 1.32 0.66 2 1 C2.45546822 3.58098657 2.79751133 6.08600249 3.0625 8.6875 C3.21891899 10.10819813 3.37645464 11.52877379 3.53515625 12.94921875 C3.61008301 13.63290527 3.68500977 14.3165918 3.76220703 15.02099609 C4.08375269 17.6970219 4.52786996 20.34687984 5 23 C4.34 22.67 3.68 22.34 3 22 C2.18359375 19.0859375 2.18359375 19.0859375 1.4375 15.375 C1.18871094 14.16585937 0.93992188 12.95671875 0.68359375 11.7109375 C0.02639644 8.14329497 -0.59584723 4.60558765 -1 1 C-0.67 0.67 -0.34 0.34 0 0 Z " fill="#787777" transform="translate(154,87)"/>
<path d="M0 0 C7.96475086 -0.76258253 13.16714816 0.92936486 20 5 C20 5.66 20 6.32 20 7 C15.951427 6.11174495 12.3251174 4.48587015 8.53515625 2.83984375 C5.86761677 1.95614423 3.78980197 1.84528826 1 2 C0.67 1.34 0.34 0.68 0 0 Z " fill="#323232" transform="translate(111,161)"/>
<path d="M0 0 C0.33 0 0.66 0 1 0 C1.16435547 1.68416016 1.16435547 1.68416016 1.33203125 3.40234375 C2.15155646 11.29886571 3.02822418 18.57056045 6 26 C5.34 26 4.68 26 4 26 C1.75146852 20.52531467 0.59752803 15.87569231 0 10 C-0.33 9.01 -0.66 8.02 -1 7 C-0.72230092 4.6593935 -0.39460023 2.32375692 0 0 Z " fill="#60605F" transform="translate(30,46)"/>
<path d="M0 0 C2.97 0.495 2.97 0.495 6 1 C6.33 2.32 6.66 3.64 7 5 C5.68 5.99 4.36 6.98 3 8 C2.01 7.34 1.02 6.68 0 6 C-0.1875 2.875 -0.1875 2.875 0 0 Z " fill="#717271" transform="translate(106,161)"/>
<path d="M0 0 C-0.33 0.99 -0.66 1.98 -1 3 C-5.67692308 1.52307692 -5.67692308 1.52307692 -7.3125 -1.125 C-7.6528125 -2.053125 -7.6528125 -2.053125 -8 -3 C-9.65 -3 -11.3 -3 -13 -3 C-13 -3.33 -13 -3.66 -13 -4 C-7.01756051 -5.89687106 -4.42884169 -3.78679068 0 0 Z " fill="#323232" transform="translate(105,152)"/>
<path d="M0 0 C2.4375 0.75 2.4375 0.75 5 2 C5.8125 4.125 5.8125 4.125 6 6 C1.25 8.875 1.25 8.875 -1 10 C-0.835 9.0925 -0.67 8.185 -0.5 7.25 C0.10137146 3.88912497 0.10137146 3.88912497 0 0 Z " fill="#DFDFDE" transform="translate(147,127)"/>
<path d="M0 0 C0.99 0.33 1.98 0.66 3 1 C2.50628906 1.47050781 2.01257813 1.94101562 1.50390625 2.42578125 C0.86324219 3.04839844 0.22257813 3.67101562 -0.4375 4.3125 C-1.07558594 4.92738281 -1.71367187 5.54226562 -2.37109375 6.17578125 C-4.2221418 8.00644056 -4.2221418 8.00644056 -5 11 C-5.99 11 -6.98 11 -8 11 C-7.43040847 7.37386801 -6.07625466 5.74482259 -3.4375 3.25 C-2.79683594 2.63640625 -2.15617188 2.0228125 -1.49609375 1.390625 C-1.00238281 0.93171875 -0.50867188 0.4728125 0 0 Z " fill="#A0A09F" transform="translate(135,0)"/>
<path d="M0 0 C0.33 0 0.66 0 1 0 C1 2.64 1 5.28 1 8 C1.66 8 2.32 8 3 8 C2.67 9.65 2.34 11.3 2 13 C2.66 13 3.32 13 4 13 C4 13.99 4 14.98 4 16 C2.05078125 15.3046875 2.05078125 15.3046875 0 14 C-0.64453125 11.7578125 -0.64453125 11.7578125 -0.8125 9.125 C-0.88082031 8.26132813 -0.94914062 7.39765625 -1.01953125 6.5078125 C-1.00110964 4.14247734 -0.68629966 2.25273935 0 0 Z " fill="#0D0D0D" transform="translate(88,109)"/>
<path d="M0 0 C0.66 0 1.32 0 2 0 C1.67 1.65 1.34 3.3 1 5 C2.32 5 3.64 5 5 5 C4.67 6.65 4.34 8.3 4 10 C3.01 10.33 2.02 10.66 1 11 C-0.28317892 7.15046324 -0.06643637 4.05261865 0 0 Z " fill="#0A0A0A" transform="translate(94,111)"/>
<path d="M0 0 C5.66153846 1.47692308 5.66153846 1.47692308 7.375 4.125 C7.684375 5.053125 7.684375 5.053125 8 6 C5.125 6.125 5.125 6.125 2 6 C1.34 5.34 0.68 4.68 0 4 C0 2.68 0 1.36 0 0 Z " fill="#494948" transform="translate(131,150)"/>
<path d="M0 0 C2.375 1 2.375 1 5 3 C6.04768041 5.66921593 6.48684546 8.15432483 7 11 C3.78397182 8.63029503 1.35875408 6.82921605 0 3 C0 2.01 0 1.02 0 0 Z " fill="#E6E6E5" transform="translate(108,113)"/>
<path d="M0 0 C0.66 0.33 1.32 0.66 2 1 C1.01 2.485 1.01 2.485 0 4 C0 4.99 0 5.98 0 7 C-2.375 8.75 -2.375 8.75 -5 10 C-5.66 9.67 -6.32 9.34 -7 9 C-7 8.34 -7 7.68 -7 7 C-5.01739574 5.31267723 -3.0167658 3.64633943 -1 2 C-0.67 1.34 -0.34 0.68 0 0 Z " fill="#787878" transform="translate(180,181)"/>
<path d="M0 0 C1.06775224 1.96466413 2.06553465 3.96855359 3 6 C2.67 6.66 2.34 7.32 2 8 C-3.875 4.375 -3.875 4.375 -5 1 C-2 0 -2 0 0 0 Z " fill="#E0E0DF" transform="translate(124,127)"/>
<path d="M0 0 C3.375 0.3125 3.375 0.3125 7 1 C7.66 1.99 8.32 2.98 9 4 C5.7 4.33 2.4 4.66 -1 5 C-0.67 3.35 -0.34 1.7 0 0 Z " fill="#858584" transform="translate(129,117)"/>
<path d="M0 0 C0.99 0.33 1.98 0.66 3 1 C4.25 8.625 4.25 8.625 2 12 C2 10.35 2 8.7 2 7 C1.34 7 0.68 7 0 7 C0 4.69 0 2.38 0 0 Z " fill="#EEEEED" transform="translate(90,109)"/>
<path d="M0 0 C0.99 0.33 1.98 0.66 3 1 C2.7834375 2.03060547 2.7834375 2.03060547 2.5625 3.08203125 C2.376875 3.98308594 2.19125 4.88414063 2 5.8125 C1.814375 6.70582031 1.62875 7.59914063 1.4375 8.51953125 C0.91315157 11.07260693 0.91315157 11.07260693 1 14 C0.01 14.66 -0.98 15.32 -2 16 C-1.34 10.72 -0.68 5.44 0 0 Z " fill="#ADADAB" transform="translate(54,59)"/>
<path d="M0 0 C0.66 0.33 1.32 0.66 2 1 C-1.79611444 4.79611444 -4.66461402 5.51171835 -9.81640625 5.82421875 C-11.97662729 5.99811848 -13.91621314 6.41880775 -16 7 C-15.34 5.68 -14.68 4.36 -14 3 C-13.32453125 3.03480469 -12.6490625 3.06960937 -11.953125 3.10546875 C-10.61507812 3.14607422 -10.61507812 3.14607422 -9.25 3.1875 C-8.36828125 3.22230469 -7.4865625 3.25710937 -6.578125 3.29296875 C-3.55328417 2.94923684 -2.24416398 1.99772541 0 0 Z " fill="#A8A8A7" transform="translate(172,189)"/>
<path d="M0 0 C-0.33 5.28 -0.66 10.56 -1 16 C-1.33 16 -1.66 16 -2 16 C-2 11.71 -2 7.42 -2 3 C-2.66 3 -3.32 3 -4 3 C-4 2.34 -4 1.68 -4 1 C-2 0 -2 0 0 0 Z " fill="#5D5D5D" transform="translate(151,40)"/>
<path d="M0 0 C2.78388975 1.70625501 3.85384206 2.47626739 4.75 5.6875 C4.8325 6.450625 4.915 7.21375 5 8 C3.35 8.33 1.7 8.66 0 9 C0 6.03 0 3.06 0 0 Z " fill="#373737" transform="translate(129,132)"/>
<path d="M0 0 C1.32 0 2.64 0 4 0 C4.66 1.65 5.32 3.3 6 5 C5.01 5.33 4.02 5.66 3 6 C3 7.65 3 9.3 3 11 C2.67 11 2.34 11 2 11 C1.855625 9.9275 1.71125 8.855 1.5625 7.75 C1.16250558 5.08337051 0.72408076 2.58600271 0 0 Z " fill="#0F0F10" transform="translate(142,127)"/>
<path d="M0 0 C0.53625 0.28875 1.0725 0.5775 1.625 0.875 C4.35280484 2.16711808 7.12612718 3.08558592 10 4 C9.67 5.65 9.34 7.3 9 9 C7.87105124 8.06725891 6.74699124 7.12859878 5.625 6.1875 C4.99851563 5.66542969 4.37203125 5.14335937 3.7265625 4.60546875 C2 3 2 3 0 0 Z " fill="#F1F1EF" transform="translate(129,153)"/>
<path d="M0 0 C0.66 0 1.32 0 2 0 C2 2.64 2 5.28 2 8 C1.01 8.33 0.02 8.66 -1 9 C-1.09765625 2.84765625 -1.09765625 2.84765625 -1 1 C-0.67 0.67 -0.34 0.34 0 0 Z " fill="#3A3A39" transform="translate(154,152)"/>
<path d="M0 0 C3.38231081 1.39957689 5.27928642 2.73064421 7 6 C7.24493747 8.72036936 7.13708782 11.25824366 7 14 C6.34 13.67 5.68 13.34 5 13 C5.1546875 11.6696875 5.1546875 11.6696875 5.3125 10.3125 C4.90393083 5.98166679 3.15301234 4.83771111 0 2 C0 1.34 0 0.68 0 0 Z " fill="#AFAFAE" transform="translate(137,125)"/>
<path d="M0 0 C0.33 0.66 0.66 1.32 1 2 C-0.65 2 -2.3 2 -4 2 C-4.33 3.65 -4.66 5.3 -5 7 C-5.99 7 -6.98 7 -8 7 C-8 5.35 -8 3.7 -8 2 C-5.36 1.34 -2.72 0.68 0 0 Z " fill="#70706F" transform="translate(89,87)"/>
<path d="M0 0 C2.31 0 4.62 0 7 0 C6.67 0.66 6.34 1.32 6 2 C4.35 2 2.7 2 1 2 C0.34 4.64 -0.32 7.28 -1 10 C-1.66 9.34 -2.32 8.68 -3 8 C-2.01 5.36 -1.02 2.72 0 0 Z " fill="#5D5D5C" transform="translate(117,192)"/>
<path d="M0 0 C1.4540625 0.0309375 1.4540625 0.0309375 2.9375 0.0625 C-0.0625 2.0625 -0.0625 2.0625 -2.0625 3.0625 C-2.0625 4.3825 -2.0625 5.7025 -2.0625 7.0625 C-3.3825 7.3925 -4.7025 7.7225 -6.0625 8.0625 C-3.88526119 0.07929104 -3.88526119 0.07929104 0 0 Z " fill="#424242" transform="translate(175.0625,115.9375)"/>
<path d="M0 0 C1.5 1.375 1.5 1.375 3 3 C3 3.66 3 4.32 3 5 C3.66 5.495 4.32 5.99 5 6.5 C5.66 6.995 6.32 7.49 7 8 C7 8.66 7 9.32 7 10 C2.79373966 8.49776416 1.26099979 5.71449966 -1 2 C-0.67 1.34 -0.34 0.68 0 0 Z " fill="#848483" transform="translate(159,110)"/>
<path d="M0 0 C0.99 0 1.98 0 3 0 C5.10770759 2.88834003 6 4.38462395 6 8 C2.24623848 6.74874616 1.75926711 5.4347596 0 2 C0 1.34 0 0.68 0 0 Z " fill="#EAEAE9" transform="translate(101,105)"/>
<path d="M0 0 C1.02104551 0.97850195 2.0206121 1.97980427 3 3 C3 3.33 3 3.66 3 4 C1.35 4 -0.3 4 -2 4 C-2 4.66 -2 5.32 -2 6 C-3.32 6.33 -4.64 6.66 -6 7 C-6 6.34 -6 5.68 -6 5 C-4.04072937 3.2856382 -2.04119788 1.61594832 0 0 Z " fill="#E4E4E3" transform="translate(116,128)"/>
<path d="M0 0 C1.42944945 2.35438733 2.08661261 3.48032433 1.625 6.25 C1.41875 6.8275 1.2125 7.405 1 8 C-0.32 7.34 -1.64 6.68 -3 6 C-2.67 4.68 -2.34 3.36 -2 2 C-1.34 2 -0.68 2 0 2 C0 1.34 0 0.68 0 0 Z " fill="#CFCFCE" transform="translate(92,99)"/>
<path d="M0 0 C0.66 0 1.32 0 2 0 C2 2.97 2 5.94 2 9 C1.67 8.01 1.34 7.02 1 6 C0.01 6.33 -0.98 6.66 -2 7 C-2 5.68 -2 4.36 -2 3 C-1.34 3 -0.68 3 0 3 C0 2.01 0 1.02 0 0 Z " fill="#402527" transform="translate(76,18)"/>
<path d="M0 0 C4.8 2.46153846 4.8 2.46153846 5.8125 5.1875 C5.874375 5.785625 5.93625 6.38375 6 7 C2.535 5.02 2.535 5.02 -1 3 C-0.67 2.01 -0.34 1.02 0 0 Z " fill="#CCCBCA" transform="translate(109,154)"/>
<path d="M0 0 C2.62187494 1.04874998 3.79371361 1.64931313 5.25 4.125 C5.4975 4.74375 5.745 5.3625 6 6 C3.03 5.505 3.03 5.505 0 5 C0 3.35 0 1.7 0 0 Z " fill="#D8D8D7" transform="translate(139,115)"/>
<path d="M0 0 C0.66 0.66 1.32 1.32 2 2 C-0.97 4.475 -0.97 4.475 -4 7 C-4.99 5.02 -5.98 3.04 -7 1 C-4.525 1.99 -4.525 1.99 -2 3 C-1.34 2.01 -0.68 1.02 0 0 Z " fill="#8A8988" transform="translate(115,126)"/>
<path d="M0 0 C0.5775 0.45375 1.155 0.9075 1.75 1.375 C3.7800333 2.84113516 5.73539843 3.94857784 8 5 C4.94736336 5.98120464 3.05263664 5.98120464 0 5 C-0.5625 3.0625 -0.5625 3.0625 -1 1 C-0.67 0.67 -0.34 0.34 0 0 Z " fill="#5B5B5B" transform="translate(143,162)"/>
<path d="M0 0 C0.66 0 1.32 0 2 0 C2.66 1.32 3.32 2.64 4 4 C2.1875 5.5625 2.1875 5.5625 0 7 C-0.99 6.67 -1.98 6.34 -3 6 C-3 5.34 -3 4.68 -3 4 C-1.68 3.67 -0.36 3.34 1 3 C0.67 2.01 0.34 1.02 0 0 Z " fill="#3C3C3C" transform="translate(117,128)"/>
<path d="M0 0 C0.66 0 1.32 0 2 0 C5 5.75 5 5.75 5 8 C3.0625 7.375 3.0625 7.375 1 6 C0.25 2.875 0.25 2.875 0 0 Z " fill="#191919" transform="translate(147,122)"/>
<path d="M0 0 C0.66 0 1.32 0 2 0 C2 0.99 2 1.98 2 3 C2.99 3.33 3.98 3.66 5 4 C4.67 4.99 4.34 5.98 4 7 C3.34 7 2.68 7 2 7 C0.3125 5.1875 0.3125 5.1875 -1 3 C-0.67 2.01 -0.34 1.02 0 0 Z " fill="#111010" transform="translate(75,24)"/>
<path d="M0 0 C3.125 -0.1875 3.125 -0.1875 6 0 C4.35 1.65 2.7 3.3 1 5 C0.01 4.34 -0.98 3.68 -2 3 C-1.34 2.01 -0.68 1.02 0 0 Z " fill="#A9A9A8" transform="translate(39,21)"/>
<path d="M0 0 C1.98 0.495 1.98 0.495 4 1 C4 1.66 4 2.32 4 3 C5.32 3.33 6.64 3.66 8 4 C5.03 4 2.06 4 -1 4 C-0.67 2.68 -0.34 1.36 0 0 Z " fill="#3E3E3D" transform="translate(160,189)"/>
<path d="M0 0 C2.97851562 0.390625 2.97851562 0.390625 5.95703125 0.78125 C8.15471706 1.053233 8.15471706 1.053233 11 1 C11 1.66 11 2.32 11 3 C7.7 3 4.4 3 1 3 C0.67 2.01 0.34 1.02 0 0 Z " fill="#4F4F4E" transform="translate(157,156)"/>
<path d="M0 0 C1.32 0 2.64 0 4 0 C4.33 1.65 4.66 3.3 5 5 C4.401875 4.67 3.80375 4.34 3.1875 4 C0.94613529 2.79212012 0.94613529 2.79212012 -2 3 C-1.34 2.01 -0.68 1.02 0 0 Z " fill="#636363" transform="translate(184,187)"/>
<path d="M0 0 C1.32 0.33 2.64 0.66 4 1 C4 2.32 4 3.64 4 5 C2.68 4.67 1.36 4.34 0 4 C0 2.68 0 1.36 0 0 Z " fill="#E2E2E0" transform="translate(106,161)"/>
<path d="M0 0 C2.31 0.33 4.62 0.66 7 1 C7 1.99 7 2.98 7 4 C4.97954558 3.39816251 2.97888961 2.72693904 1 2 C0.67 1.34 0.34 0.68 0 0 Z " fill="#171717" transform="translate(131,140)"/>
<path d="M0 0 C1.32 1.32 2.64 2.64 4 4 C3.01 4.33 2.02 4.66 1 5 C0.67 5.66 0.34 6.32 0 7 C-0.66 5.68 -1.32 4.36 -2 3 C-1.34 3 -0.68 3 0 3 C0 2.01 0 1.02 0 0 Z " fill="#393938" transform="translate(100,100)"/>
</svg>
