<?xml version="1.0" encoding="UTF-8"?>
<svg version="1.1" xmlns="http://www.w3.org/2000/svg" width="220" height="220">
<path d="M0 0 C72.6 0 145.2 0 220 0 C220 72.6 220 145.2 220 220 C147.4 220 74.8 220 0 220 C0 147.4 0 74.8 0 0 Z " fill="#FBFBF9" transform="translate(0,0)"/>
<path d="M0 0 C0.99 0.33 1.98 0.66 3 1 C3.495 4.465 3.495 4.465 4 8 C4.66 5.36 5.32 2.72 6 0 C6.66 0.33 7.32 0.66 8 1 C7.835 1.825 7.67 2.65 7.5 3.5 C6.70930803 9.03484382 6.54471269 13.78260936 8.125 19.125 C9.07958976 23.35246894 8.91737015 25.16525969 7 29 C6.01 29.66 5.02 30.32 4 31 C4 30.01 4 29.02 4 28 C3.68330179 25.66435067 3.35179197 23.3306218 3 21 C2.01 21.495 2.01 21.495 1 22 C0.34 20.02 -0.32 18.04 -1 16 C-1.99 16.495 -1.99 16.495 -3 17 C-2.67 15.68 -2.34 14.36 -2 13 C-1.34 13 -0.68 13 0 13 C-0.66 12.01 -1.32 11.02 -2 10 C-2.94238698 12.82716095 -3.13465647 14.63176123 -3.125 17.5625 C-3.12757812 18.34753906 -3.13015625 19.13257812 -3.1328125 19.94140625 C-3.12976366 22.06438977 -3.12976366 22.06438977 -2 24 C-2.4375 26.125 -2.4375 26.125 -3 28 C-2.34 28 -1.68 28 -1 28 C-1 28.66 -1 29.32 -1 30 C-1.66 30 -2.32 30 -3 30 C-2.7834375 30.67546875 -2.566875 31.3509375 -2.34375 32.046875 C-2.0653125 32.93890625 -1.786875 33.8309375 -1.5 34.75 C-1.2215625 35.63171875 -0.943125 36.5134375 -0.65625 37.421875 C0 40 0 40 0 44 C1.65 43.34 3.3 42.68 5 42 C5.67667998 43.24460783 6.34094719 44.49596896 7 45.75 C7.37125 46.44609375 7.7425 47.1421875 8.125 47.859375 C9 50 9 50 9 54 C11.0249091 56.14505223 11.0249091 56.14505223 13.6875 58.0625 C14.99267578 59.06990234 14.99267578 59.06990234 16.32421875 60.09765625 C20.49056746 63.05971731 24.54311122 65.34333634 29.3125 67.1875 C30.63701172 67.70376953 30.63701172 67.70376953 31.98828125 68.23046875 C32.65214844 68.48441406 33.31601563 68.73835938 34 69 C34 69.66 34 70.32 34 71 C33.39671875 70.79503906 32.7934375 70.59007812 32.171875 70.37890625 C31.37265625 70.10949219 30.5734375 69.84007812 29.75 69.5625 C28.96109375 69.29566406 28.1721875 69.02882813 27.359375 68.75390625 C25.25178012 68.08045292 23.15246027 67.50849405 21 67 C20.566875 67.721875 20.13375 68.44375 19.6875 69.1875 C19.130625 70.115625 18.57375 71.04375 18 72 C17.484375 72.928125 16.96875 73.85625 16.4375 74.8125 C15.963125 75.534375 15.48875 76.25625 15 77 C14.34 77 13.68 77 13 77 C12.34 78.32 11.68 79.64 11 81 C10.01 80.505 10.01 80.505 9 80 C9.33 78.35 9.66 76.7 10 75 C9.34 75.99 8.68 76.98 8 78 C7.34 78 6.68 78 6 78 C6 74.33333333 6 70.66666667 6 67 C5.60195155 76.20692462 5.60195155 76.20692462 8 85 C12.7539867 83.85248597 17.37892907 82.61737483 22 81 C22 80.34 22 79.68 22 79 C27.75 76 27.75 76 30 76 C30 76.66 30 77.32 30 78 C28.88625 78.6496875 28.88625 78.6496875 27.75 79.3125 C24.46012059 81.33128964 22.90582107 82.61187365 21 86 C20.3046594 91.06053437 20.59840853 95.59442985 22 100.5 C24.8718259 104.08978238 27.62554344 104.70917675 32 106 C32 106.99 32 107.98 32 109 C36.52921218 109.39384454 39.50640671 108.94874021 43.6875 107.125 C49.3125938 104.6808144 54.94777493 103.79032492 61 103 C60.74292265 100.62279061 60.46982932 98.24923394 60.1875 95.875 C60.11724609 95.20984375 60.04699219 94.5446875 59.97460938 93.859375 C59.42071296 89.33958024 58.15640337 85.9819613 56 82 C56 81.34 56 80.68 56 80 C55.195625 79.690625 54.39125 79.38125 53.5625 79.0625 C51 78 51 78 50 77 C48.19188816 76.79103683 46.37783968 76.63219639 44.5625 76.5 C39.21984733 76.10992366 39.21984733 76.10992366 37 75 C37 74.34 37 73.68 37 73 C44.57771707 72.49853343 49.45783241 73.05001202 56 77 C56 75.35 56 73.7 56 72 C53.36 71.67 50.72 71.34 48 71 C48.66 70.34 49.32 69.68 50 69 C52.1640625 69.0234375 52.1640625 69.0234375 54.625 69.375 C55.44226563 69.48585938 56.25953125 69.59671875 57.1015625 69.7109375 C57.72804688 69.80632812 58.35453125 69.90171875 59 70 C58.01 70.495 58.01 70.495 57 71 C57.38671875 71.65484375 57.7734375 72.3096875 58.171875 72.984375 C61.51492231 78.84298266 64.0057147 84.50406254 65.98828125 90.9453125 C67.05677044 94.17140728 68.36842552 97.20879487 69.75 100.3125 C71.70318234 104.85797939 72.55768956 108.09233191 72 113 C70.515 113.495 70.515 113.495 69 114 C68.67 112.35 68.34 110.7 68 109 C67.34 109 66.68 109 66 109 C66.99 112.465 66.99 112.465 68 116 C69.98 116.495 69.98 116.495 72 117 C72.495 115.515 72.495 115.515 73 114 C73.99 118.29 74.98 122.58 76 127 C77.98 127.495 77.98 127.495 80 128 C79.87431641 128.87011719 79.87431641 128.87011719 79.74609375 129.7578125 C79.64425781 130.53898438 79.54242188 131.32015625 79.4375 132.125 C79.28087891 133.27355469 79.28087891 133.27355469 79.12109375 134.4453125 C78.97961831 137.42998797 79.49422112 140.05762215 80 143 C80.08900644 145.22777871 80.13017898 147.45794997 80.125 149.6875 C80.12886719 151.36392578 80.12886719 151.36392578 80.1328125 153.07421875 C80 156 80 156 79 159 C52.27 159 25.54 159 -2 159 C-2.99 153.39 -3.98 147.78 -5 142 C-10.34778927 137.27843766 -10.34778927 137.27843766 -14.125 135.13671875 C-17.62720518 132.53385702 -19.20754496 129.67786223 -21 125.8125 C-21.50635986 124.75844971 -21.50635986 124.75844971 -22.02294922 123.68310547 C-25.62158779 116.00044641 -28.36768513 108.05425425 -31 100 C-31.81594248 97.51557878 -32.63274309 95.03146021 -33.45263672 92.54833984 C-33.97289748 90.96716766 -34.4878023 89.38422017 -34.99658203 87.79931641 C-36.06388502 84.52659812 -37.07828966 81.8825655 -39 79 C-39 79.66 -39 80.32 -39 81 C-39.99 80.67 -40.98 80.34 -42 80 C-42.66 72.74 -43.32 65.48 -44 58 C-41.525 59.98 -41.525 59.98 -39 62 C-34.57504043 64.25270669 -30.98183715 65.86640646 -26 65 C-23.24958334 62.58333229 -23.24958334 62.58333229 -21 60 C-20.34 60 -19.68 60 -19 60 C-15.39128559 53.29810181 -14.78116996 48.41180431 -16 41 C-15.34 41 -14.68 41 -14 41 C-14 43.64 -14 46.28 -14 49 C-13.34 49 -12.68 49 -12 49 C-11.91902676 46.72975032 -11.86082296 44.45867925 -11.8125 42.1875 C-11.77769531 40.92292969 -11.74289063 39.65835938 -11.70703125 38.35546875 C-11.69172579 35.03403555 -11.69172579 35.03403555 -13.51171875 33.05078125 C-14.00285156 32.70402344 -14.49398437 32.35726562 -15 32 C-14.34 32 -13.68 32 -13 32 C-14.65 30.02 -16.3 28.04 -18 26 C-16.25 26.125 -16.25 26.125 -14 27 C-10.05662425 32.18272242 -8.86833384 35.7550469 -8.9375 42.1875 C-8.94652344 43.27417969 -8.95554688 44.36085937 -8.96484375 45.48046875 C-8.97644531 46.31191406 -8.98804688 47.14335938 -9 48 C-7.68 48.33 -6.36 48.66 -5 49 C-5.33 50.65 -5.66 52.3 -6 54 C-3.03 54 -0.06 54 3 54 C3 55.98 3 57.96 3 60 C5.31 60 7.62 60 10 60 C7.55726858 55.72522001 4.86544749 51.86544749 1.375 48.375 C-0.9000736 46.0999264 -1.97447113 44.54887081 -2.125 41.3125 C-2.08375 40.549375 -2.0425 39.78625 -2 39 C-2.66 39 -3.32 39 -4 39 C-4.33 41.64 -4.66 44.28 -5 47 C-5.66 47 -6.32 47 -7 47 C-6.855625 46.443125 -6.71125 45.88625 -6.5625 45.3125 C-4.40495199 36.44258041 -3.77987964 26.44024073 -8 18 C-7.34 17.67 -6.68 17.34 -6 17 C-5.08514427 14.19521805 -5.08514427 14.19521805 -4.375 10.9375 C-4.11460938 9.83277344 -3.85421875 8.72804688 -3.5859375 7.58984375 C-3.39257812 6.73519531 -3.19921875 5.88054687 -3 5 C-5.475 4.505 -5.475 4.505 -8 4 C-8 3.67 -8 3.34 -8 3 C-5.03 3.33 -2.06 3.66 1 4 C0.505 2.02 0.505 2.02 0 0 Z " fill="#030303" transform="translate(50,61)"/>
<path d="M0 0 C1.4375 1.0625 1.4375 1.0625 3 3 C3.0103125 4.12148437 3.020625 5.24296875 3.03125 6.3984375 C3.58676675 10.03947602 3.58676675 10.03947602 5.98828125 11.32910156 C8.79050313 12.56321352 11.60810852 13.61880065 14.5 14.625 C16.45000381 15.34069289 18.39795501 16.0620047 20.34375 16.7890625 C21.29378906 17.14387695 22.24382812 17.49869141 23.22265625 17.86425781 C28.4832578 20.0154813 33.2805592 22.85370613 38 26 C38.28658383 28.5735211 38.37849134 30.90466991 38.34057617 33.47900391 C38.34093778 34.26230764 38.34129938 35.04561138 38.34167194 35.8526516 C38.33942847 38.39421309 38.31656378 40.93511872 38.29296875 43.4765625 C38.28855923 45.04320966 38.28549787 46.60986121 38.28381348 48.17651367 C38.2680694 53.99274308 38.2261859 59.80887794 38.1875 65.625 C38.125625 78.61875 38.06375 91.6125 38 105 C7.97 105 -22.06 105 -53 105 C-53 99.72 -53 94.44 -53 89 C-53.28990255 84.65146182 -53.58445002 80.33359261 -54 76 C-53.28585938 75.92136719 -52.57171875 75.84273438 -51.8359375 75.76171875 C-48.28605294 74.80823736 -46.41114924 73.19549584 -43.625 70.8125 C-42.18447266 69.58466797 -42.18447266 69.58466797 -40.71484375 68.33203125 C-39.81894531 67.56246094 -38.92304688 66.79289062 -38 66 C-37.32066406 65.46761719 -36.64132813 64.93523437 -35.94140625 64.38671875 C-26.83834502 57.1894209 -22.5254967 47.07333169 -20 36 C-17.36 36.33 -14.72 36.66 -12 37 C-11.34 34.69 -10.68 32.38 -10 30 C-9.505 30.99 -9.505 30.99 -9 32 C-8.34 32 -7.68 32 -7 32 C-6.96132812 31.14728516 -6.96132812 31.14728516 -6.921875 30.27734375 C-6.83679688 29.11912109 -6.83679688 29.11912109 -6.75 27.9375 C-6.70359375 27.18339844 -6.6571875 26.42929688 -6.609375 25.65234375 C-5.92214743 22.6611417 -4.51520659 20.52153963 -2.94433594 17.91577148 C-1.31380124 14.60791063 -1.06923401 11.19711221 -0.75 7.5625 C-0.67265625 6.83095703 -0.5953125 6.09941406 -0.515625 5.34570312 C-0.3294329 3.56524115 -0.16265336 1.78276645 0 0 Z " fill="#FEFEFC" transform="translate(182,115)"/>
<path d="M0 0 C40.26 0 80.52 0 122 0 C122 24.75 122 49.5 122 75 C117.71 74.67 113.42 74.34 109 74 C104.75475224 75.72466037 104.75475224 75.72466037 100.63671875 77.72265625 C96.57535588 79.69016093 92.42306479 80.30559392 88 81 C86.71222656 81.30164063 86.71222656 81.30164063 85.3984375 81.609375 C83 82 83 82 80 81 C80.05800781 80.42894531 80.11601562 79.85789062 80.17578125 79.26953125 C80.61977388 71.29034933 78.20352407 65.21221194 75 58 C74.40058594 56.49566406 74.40058594 56.49566406 73.7890625 54.9609375 C67.58426755 40.70871152 55.19173234 31.47807807 42 24 C41.12472656 23.50016602 40.24945313 23.00033203 39.34765625 22.48535156 C36.42791227 20.82838695 33.49829058 19.19085348 30.5625 17.5625 C29.62672119 17.04163818 28.69094238 16.52077637 27.72680664 15.98413086 C22.84733187 13.3315481 18.37111433 11.48058163 13 10 C10.59942531 8.72394701 8.34748858 7.44812135 6.0625 6 C5.47404297 5.64421875 4.88558594 5.2884375 4.27929688 4.921875 C2.81298939 4.00905176 1.40050251 3.01088903 0 2 C0 1.34 0 0.68 0 0 Z " fill="#FEFEFC" transform="translate(98,0)"/>
<path d="M0 0 C2.42277093 3.23036124 4.29437675 6.21616994 6.1875 9.75 C6.71730469 10.73484375 7.24710937 11.7196875 7.79296875 12.734375 C8.19128906 13.48203125 8.58960938 14.2296875 9 15 C11.98254632 13.67299235 13.83525185 12.23326275 16.0625 9.875 C20.02680929 6.33297583 23.50149122 6.45730926 28.64453125 6.69140625 C31 7 31 7 33 8 C32.51116334 15.45475911 32.51116334 15.45475911 30.125 18 C28 19 28 19 25 19 C25 19.66 25 20.32 25 21 C25.598125 21.268125 26.19625 21.53625 26.8125 21.8125 C29 23 29 23 30.5 24.5625 C32.28774502 26.27575564 33.61796577 26.48747214 36 27 C35.79503906 27.6290625 35.59007812 28.258125 35.37890625 28.90625 C33.68028765 34.30281819 32.52161147 39.36659614 32 45 C31.443125 45.07476562 30.88625 45.14953125 30.3125 45.2265625 C20.72976765 46.87764138 15.11894429 52.06991167 9.4765625 59.7734375 C5.69963529 65.46880393 4.43072018 70.1686422 5 77 C5.66 77.99 6.32 78.98 7 80 C7.37890625 82.16064453 7.37890625 82.16064453 7.5625 84.6328125 C7.63726563 85.52097656 7.71203125 86.40914063 7.7890625 87.32421875 C7.93027258 89.19917478 8.07089276 91.07417532 8.2109375 92.94921875 C8.28570312 93.83480469 8.36046875 94.72039062 8.4375 95.6328125 C8.49808594 96.44637207 8.55867187 97.25993164 8.62109375 98.09814453 C8.74613281 98.72575684 8.87117187 99.35336914 9 100 C9.66 100.33 10.32 100.66 11 101 C10.67 99.68 10.34 98.36 10 97 C15.8934794 102.29414251 17.33655736 111.00294236 19.4375 118.375 C21.47875861 125.49995716 23.90513045 132.25318437 27 139 C27.51304688 140.20011719 28.02609375 141.40023437 28.5546875 142.63671875 C31.57501323 149.43112462 34.28067455 154.28875365 40.984375 157.88671875 C44.00725772 159.55633421 45.64203664 160.90505324 46.73046875 164.234375 C46.88128906 165.06453125 47.03210937 165.8946875 47.1875 166.75 C47.34605469 167.56984375 47.50460938 168.3896875 47.66796875 169.234375 C48.05621548 172.46824191 48 175.7429107 48 179 C32.16 179 16.32 179 0 179 C0 119.93 0 60.86 0 0 Z " fill="#FDFDFB" transform="translate(0,41)"/>
<path d="M0 0 C0.66 0.33 1.32 0.66 2 1 C2 1.99 2 2.98 2 4 C1.34 4 0.68 4 0 4 C0 4.99 0 5.98 0 7 C0.66 6.34 1.32 5.68 2 5 C2.28875 5.78375 2.5775 6.5675 2.875 7.375 C3.84912254 10.09671632 3.84912254 10.09671632 6 12 C6.56520003 14.65537372 6.73788198 17.29144713 7 20 C7.66 19.67 8.32 19.34 9 19 C9.12375 18.21625 9.2475 17.4325 9.375 16.625 C10 14 10 14 11.9375 12.1875 C14 11 14 11 16 11 C16.5775 12.11375 17.155 13.2275 17.75 14.375 C18.9762994 16.46992814 19.96268974 17.96535476 21.75 19.625 C25.48972344 20.24828724 28.62132081 18.52532604 32 17 C31.505 16.01 31.505 16.01 31 15 C33.64 15.66 36.28 16.32 39 17 C38.67 17.66 38.34 18.32 38 19 C39.1446875 19.0928125 39.1446875 19.0928125 40.3125 19.1875 C43 20 43 20 44.5 22.0625 C44.995 23.031875 45.49 24.00125 46 25 C46.87290092 26.29308614 47.74806196 27.58464832 48.625 28.875 C51.01459781 32.6495599 51.72295214 35.56723424 52 40 C50.26029644 37.39044466 49.29345262 35.26459536 48.1875 32.375 C47.22368908 29.99312337 47.22368908 29.99312337 46 28 C43.3912295 26.7886547 43.3912295 26.7886547 41 27 C41.495 28.1446875 41.495 28.1446875 42 29.3125 C43 32 43 32 43 35 C43.66 35 44.32 35 45 35 C45.5878125 36.299375 45.5878125 36.299375 46.1875 37.625 C49.69588702 44.15785858 54.27600773 49.5947199 61.3125 52.25 C62.199375 52.4975 63.08625 52.745 64 53 C63.01 50.525 63.01 50.525 62 48 C64.97 49.98 67.94 51.96 71 54 C71 53.01 71 52.02 71 51 C75.03011465 49.85159565 77.0278229 50.03072681 80.6875 52.0625 C81.45449219 52.46597656 82.22148437 52.86945313 83.01171875 53.28515625 C85.62688591 55.5406737 86.14668452 57.70994405 87 61 C84.79567015 61.84549638 82.58751467 62.67642814 80.375 63.5 C78.53035156 64.19609375 78.53035156 64.19609375 76.6484375 64.90625 C73.18957134 65.94316919 70.57814964 66.22019382 67 66 C67 66.66 67 67.32 67 68 C66.34 68 65.68 68 65 68 C65 69.65 65 71.3 65 73 C62.37997275 70.62949916 60.64180091 68.12723983 59 65 C59 64.01 59 63.02 59 62 C56.69 61.67 54.38 61.34 52 61 C53.98 61.66 55.96 62.32 58 63 C58.33 64.98 58.66 66.96 59 69 C58.21689453 68.58427734 58.21689453 68.58427734 57.41796875 68.16015625 C51.28522751 65.14211722 45.79930346 64.25417957 39 64 C39 64.66 39 65.32 39 66 C39.86882812 66.02578125 40.73765625 66.0515625 41.6328125 66.078125 C53.67058824 66.67058824 53.67058824 66.67058824 58 71 C62.80011336 78.30926352 63.17034734 85.48263306 63 94 C59.73688262 95.88136672 56.84129704 96.44104811 53.125 96.9375 C49.45213856 97.4895422 47.02584072 97.98683586 43.6875 99.6875 C40.12606658 101.42680469 37.79446609 100.83478254 34 100 C34 99.01 34 98.02 34 97 C32.906875 96.896875 31.81375 96.79375 30.6875 96.6875 C27 96 27 96 25.1875 94.75 C22.49325731 90.77953708 21.72381965 87.12673309 21.75 82.375 C21.74484375 81.43398437 21.7396875 80.49296875 21.734375 79.5234375 C22 77 22 77 24 74 C24.66 74 25.32 74 26 74 C26.495 72.515 26.495 72.515 27 71 C29.5625 69.8125 29.5625 69.8125 32 69 C32 68.34 32 67.68 32 67 C31.236875 67.495 30.47375 67.99 29.6875 68.5 C27 70 27 70 24 70 C24 70.66 24 71.32 24 72 C18.95859836 74.81532819 14.77378925 76.5188509 9 77 C8.855625 76.21625 8.71125 75.4325 8.5625 74.625 C8.12201075 72.03578982 8.12201075 72.03578982 7 70 C6.85220038 68.0246012 6.77881034 66.04321076 6.75 64.0625 C6.72421875 63.00160156 6.6984375 61.94070312 6.671875 60.84765625 C7 58 7 58 10 55 C9.34 59.62 8.68 64.24 8 69 C8.66 69 9.32 69 10 69 C10.66 67.68 11.32 66.36 12 65 C13.24546405 67.49092811 12.7767578 68.41080733 12 71 C12.45375 70.505 12.9075 70.01 13.375 69.5 C15 68 15 68 17 68 C17.103125 67.401875 17.20625 66.80375 17.3125 66.1875 C18.10494321 63.66608978 19.11943508 62.80534232 21 61 C22.17574711 58.90010348 22.17574711 58.90010348 23 57 C27.47238653 58.41807378 31.71146306 60.11304374 36 62 C34.64914256 59.29828511 33.44467524 59.29538364 30.625 58.3125 C24.6302513 56.01148535 19.0668686 52.96337635 14 49 C13.505 47.515 13.505 47.515 13 46 C12.01 45.67 11.02 45.34 10 45 C9.87625 43.9275 9.7525 42.855 9.625 41.75 C9.10356064 38.62136385 8.59911746 36.66519576 7 34 C4.525 34.495 4.525 34.495 2 35 C-1.44419134 25.58997722 -1.44419134 25.58997722 -1 21 C-0.34 21 0.32 21 1 21 C1 20.34 1 19.68 1 19 C0.01 19.33 -0.98 19.66 -2 20 C-1.814375 19.030625 -1.62875 18.06125 -1.4375 17.0625 C-1.293125 16.051875 -1.14875 15.04125 -1 14 C-1.33 13.67 -1.66 13.34 -2 13 C-2.16796875 11.07421875 -2.16796875 11.07421875 -2.1875 8.6875 C-2.20167969 7.90761719 -2.21585938 7.12773438 -2.23046875 6.32421875 C-1.97984413 3.7967332 -1.26373772 2.18281969 0 0 Z " fill="#F3F3F2" transform="translate(48,70)"/>
<path d="M0 0 C0.66 0 1.32 0 2 0 C2 0.66 2 1.32 2 2 C3.61841797 2.13728516 3.61841797 2.13728516 5.26953125 2.27734375 C12.00071482 3.11781525 18.34597481 5.4824751 24.77539062 7.56054688 C26.25362305 8.02750977 26.25362305 8.02750977 27.76171875 8.50390625 C28.64819092 8.79080322 29.53466309 9.0777002 30.44799805 9.37329102 C33.06398119 10.01571221 35.31761708 10.11544585 38 10 C38 10.66 38 11.32 38 12 C39.175625 11.525625 40.35125 11.05125 41.5625 10.5625 C44.28880902 9.52821843 46.37904085 8.95708971 49.3125 8.625 C52.91758281 8.01396902 55.04072322 7.03198829 58.25 5.375 C64.07036425 2.57349688 68.75788936 2.6128643 75 4 C75.99 4.495 75.99 4.495 77 5 C77 26.78 77 48.56 77 71 C67.19402985 66.64179104 67.19402985 66.64179104 63.375 64.625 C60.32625652 63.05487302 57.28236673 61.70223878 54.06640625 60.5234375 C53.04377686 60.14324463 53.04377686 60.14324463 52.00048828 59.75537109 C50.64451752 59.25887718 49.2821553 58.7794437 47.91357422 58.31884766 C46.02734375 57.625 46.02734375 57.625 43 56 C42.19140625 53.5625 42.19140625 53.5625 42 51 C41.00916033 48.76591887 41.00916033 48.76591887 40 47 C39.90203125 47.92941406 39.8040625 48.85882813 39.703125 49.81640625 C38.33109769 61.1592872 38.33109769 61.1592872 36 64.8125 C33.52464186 68.75760204 32.7823547 72.46028393 32 77 C31.34 77 30.68 77 30 77 C29.45669731 70.34454208 30.22695996 66.54165256 34 61 C34.66 61 35.32 61 36 61 C36.02903892 56.91668161 36.04681189 52.8333898 36.0625 48.75 C36.07506836 47.01169922 36.07506836 47.01169922 36.08789062 45.23828125 C36.09111328 44.12324219 36.09433594 43.00820312 36.09765625 41.859375 C36.10289307 40.83295898 36.10812988 39.80654297 36.11352539 38.74902344 C36.01248793 36.30239584 35.83104168 34.29866129 35 32 C33.09116438 31.02870506 33.09116438 31.02870506 30.6875 30.5625 C26.6413129 29.50922512 22.95084566 28.18861436 19.125 26.5 C13.22034413 23.96176481 7.2688373 22.36714005 1 21 C1 20.34 1 19.68 1 19 C-0.134375 18.855625 -1.26875 18.71125 -2.4375 18.5625 C-6 18 -6 18 -7 17 C-6.85926549 10.38547826 -3.96368587 5.22533655 0 0 Z " fill="#E02B52" transform="translate(143,70)"/>
<path d="M0 0 C0.66 0 1.32 0 2 0 C2.66 2.31 3.32 4.62 4 7 C5.32 7.33 6.64 7.66 8 8 C8.33 7.01 8.66 6.02 9 5 C9.99 9.29 10.98 13.58 12 18 C13.32 18.33 14.64 18.66 16 19 C15.91621094 19.58007812 15.83242187 20.16015625 15.74609375 20.7578125 C15.64425781 21.53898437 15.54242188 22.32015625 15.4375 23.125 C15.33308594 23.89070313 15.22867188 24.65640625 15.12109375 25.4453125 C14.97961831 28.42998797 15.49422112 31.05762215 16 34 C16.08900644 36.22777871 16.13017898 38.45794997 16.125 40.6875 C16.12886719 42.36392578 16.12886719 42.36392578 16.1328125 44.07421875 C16 47 16 47 15 50 C-5.13 50 -25.26 50 -46 50 C-41 32 -41 32 -35.1875 27.875 C-32.23046875 26.6796875 -32.23046875 26.6796875 -30 26 C-30.33 25.34 -30.66 24.68 -31 24 C-34.465 26.475 -34.465 26.475 -38 29 C-38.125 21.25 -38.125 21.25 -37 19 C-37.33 19 -37.66 19 -38 19 C-38 16.36 -38 13.72 -38 11 C-36.02 10.34 -34.04 9.68 -32 9 C-31.67 9.33 -31.34 9.66 -31 10 C-30.67 9.01 -30.34 8.02 -30 7 C-28.2578125 5.83203125 -28.2578125 5.83203125 -26.125 4.8125 C-25.42632812 4.46832031 -24.72765625 4.12414062 -24.0078125 3.76953125 C-22 3 -22 3 -19 3 C-18.505 9.93 -18.505 9.93 -18 17 C-11.58695705 17.60431667 -11.58695705 17.60431667 -8.890625 15.72265625 C-8.07851562 14.90087891 -8.07851562 14.90087891 -7.25 14.0625 C-5.00541964 11.84414137 -4.08932343 11.02977448 -1 10 C-0.67 6.7 -0.34 3.4 0 0 Z " fill="#030303" transform="translate(114,170)"/>
<path d="M0 0 C29.37 0 58.74 0 89 0 C88.34 3.3 87.68 6.6 87 10 C82.875 12.125 82.875 12.125 80.17578125 12.95703125 C76.27352868 14.23858283 72.7230755 15.96388997 69.0625 17.8125 C68.37260986 18.15925781 67.68271973 18.50601562 66.97192383 18.86328125 C60.23030278 22.30540428 53.53870708 26.04200382 47.71484375 30.91015625 C44.41746705 33.55619928 42.43041459 35.10024469 38.1015625 34.796875 C34.05586716 33.62882648 30.97011411 32.54647602 28.671875 28.8828125 C27.88189174 26.58256714 27.3800513 24.39987448 27 22 C26.6596875 20.4840625 26.6596875 20.4840625 26.3125 18.9375 C26.209375 18.298125 26.10625 17.65875 26 17 C22.87922303 17.60014942 19.77840021 18.26900969 16.6796875 18.97265625 C15.50599609 19.23852539 15.50599609 19.23852539 14.30859375 19.50976562 C12.67792372 19.8801345 11.04771756 20.25255137 9.41796875 20.62695312 C8.63808594 20.80291016 7.85820313 20.97886719 7.0546875 21.16015625 C6.34812012 21.32136963 5.64155273 21.48258301 4.91357422 21.64868164 C3 22 3 22 0 22 C0 14.74 0 7.48 0 0 Z " fill="#FDFEFC" transform="translate(0,0)"/>
<path d="M0 0 C0.66 0.33 1.32 0.66 2 1 C2 1.99 2 2.98 2 4 C3.93005229 6.35598629 3.93005229 6.35598629 7.375 6.3125 C11 8 11 8 12.3125 10.984375 C13.0154878 13.35178981 13.67015622 15.73414187 14.2734375 18.12890625 C14.70879644 20.87947138 14.70879644 20.87947138 16 22 C18.60469825 31.75335914 18.67734877 39.5439603 15 49 C15.66 49 16.32 49 17 49 C17.33 46.36 17.66 43.72 18 41 C18.66 41 19.32 41 20 41 C21.94331984 46.70040486 21.94331984 46.70040486 22.4375 49.3125 C22.623125 49.869375 22.80875 50.42625 23 51 C23.99 51.33 24.98 51.66 26 52 C27.60546875 53.5234375 27.60546875 53.5234375 29.1875 55.375 C29.71730469 55.98085937 30.24710938 56.58671875 30.79296875 57.2109375 C32 59 32 59 32 62 C28.535 62.495 28.535 62.495 25 63 C24 60 24 60 25 56 C20.545 56.495 20.545 56.495 16 57 C15.67 56.34 15.34 55.68 15 55 C15.66 55 16.32 55 17 55 C17 53.68 17 52.36 17 51 C15.68 50.67 14.36 50.34 13 50 C12.97421875 49.2265625 12.9484375 48.453125 12.921875 47.65625 C12.54480298 40.73183653 11.55590483 35.96474358 8 30 C8 32.10263435 9.19192502 34.09864711 10 36 C10.33 36.33 10.66 36.66 11 37 C11.09908783 38.78940972 11.12970379 40.58285508 11.125 42.375 C11.12886719 43.84066406 11.12886719 43.84066406 11.1328125 45.3359375 C11 48 11 48 10 51 C9.34 51 8.68 51 8 51 C8 48.36 8 45.72 8 43 C7.34 43 6.68 43 6 43 C6.20238281 43.70125 6.40476562 44.4025 6.61328125 45.125 C8.73412397 53.84533654 8.73412397 53.84533654 6.0625 58.3125 C2.61658823 62.85398699 -1.12736112 67.29779938 -6.8125 68.6875 C-13.68981646 67.20415723 -19.09052756 63.90947244 -24 59 C-25.0012614 50.98990881 -21.85515498 45.25020539 -17.45703125 38.703125 C-16.97621094 38.14109375 -16.49539062 37.5790625 -16 37 C-15.34 37 -14.68 37 -14 37 C-13.814375 36.443125 -13.62875 35.88625 -13.4375 35.3125 C-11.29492951 31.86575618 -8.62421878 29.80532246 -5 28 C-1.99615407 27.3420147 0.92925574 27.07659453 4 27 C3.9175 25.88625 3.835 24.7725 3.75 23.625 C3.71143319 18.24492994 5.78855221 13.81779697 8 9 C7.24332031 8.88527344 6.48664062 8.77054688 5.70703125 8.65234375 C1.71922041 7.69135614 -0.04928462 5.81347281 -3 3 C-3 2.34 -3 1.68 -3 1 C-2.01 0.67 -1.02 0.34 0 0 Z " fill="#F0F0EE" transform="translate(28,59)"/>
<path d="M0 0 C0.08894531 0.89203125 0.17789062 1.7840625 0.26953125 2.703125 C0.83899082 6.42304795 1.49031542 9.54563697 3 13 C6.43898725 15.45335851 9.8206856 16.50260699 14 17 C16.25822006 16.6476424 16.25822006 16.6476424 18 16 C16.71937515 17.7074998 15.38232443 19.37373596 14 21 C13.34 21 12.68 21 12 21 C12 21.66 12 22.32 12 23 C11.34 23 10.68 23 10 23 C8.74335022 25.90600261 8 27.79604584 8 31 C7.84739214 32.73046409 7.67951995 34.45962045 7.5 36.1875 C7.36078125 37.53908203 7.36078125 37.53908203 7.21875 38.91796875 C7.11046875 39.94857422 7.11046875 39.94857422 7 41 C7.99 41 8.98 41 10 41 C9.67 41.99 9.34 42.98 9 44 C7.68 44 6.36 44 5 44 C5 43.34 5 42.68 5 42 C4.34 41.67 3.68 41.34 3 41 C3.99 38.03 4.98 35.06 6 32 C-2.06964717 31.04854255 -2.06964717 31.04854255 -9.50390625 33.55859375 C-11.56849542 35.4493684 -11.56849542 35.4493684 -13.31640625 37.46875 C-15 39 -15 39 -19 39 C-26.65803273 27.56423237 -28.05691682 18.63716289 -27 5 C-25.91460938 4.73445313 -24.82921875 4.46890625 -23.7109375 4.1953125 C-22.26559353 3.83866918 -20.82028278 3.4818912 -19.375 3.125 C-18.66214844 2.95097656 -17.94929688 2.77695312 -17.21484375 2.59765625 C-13.98586992 1.7978187 -10.91310622 0.96765268 -7.7890625 -0.1953125 C-4.73320584 -1.07697422 -3.01760468 -0.88753079 0 0 Z " fill="#DF2951" transform="translate(27,17)"/>
<path d="M0 0 C4.31364799 0.39941185 6.13913716 1.43617747 9.375 4.3125 C14.22095282 11.56599627 14.54455183 18.83490847 14.375 27.3125 C11.11188262 29.19386672 8.21629704 29.75354811 4.5 30.25 C0.82713856 30.8020422 -1.59915928 31.29933586 -4.9375 33 C-8.49893342 34.73930469 -10.83053391 34.14728254 -14.625 33.3125 C-14.625 32.3225 -14.625 31.3325 -14.625 30.3125 C-15.718125 30.209375 -16.81125 30.10625 -17.9375 30 C-21.625 29.3125 -21.625 29.3125 -23.4375 28.0625 C-26.13174269 24.09203708 -26.90118035 20.43923309 -26.875 15.6875 C-26.88015625 14.74648437 -26.8853125 13.80546875 -26.890625 12.8359375 C-26.625 10.3125 -26.625 10.3125 -24.625 7.3125 C-23.965 7.3125 -23.305 7.3125 -22.625 7.3125 C-22.295 6.3225 -21.965 5.3325 -21.625 4.3125 C-19.5625 3.625 -19.5625 3.625 -17.625 3.3125 C-18.285 4.6325 -18.945 5.9525 -19.625 7.3125 C-19.1403125 6.89097656 -18.655625 6.46945313 -18.15625 6.03515625 C-11.85818999 0.88770335 -7.96830813 0.68692311 0 0 Z " fill="#F8F8F7" transform="translate(96.625,136.6875)"/>
<path d="M0 0 C2.1640625 0.0234375 2.1640625 0.0234375 4.625 0.375 C5.44226563 0.48585937 6.25953125 0.59671875 7.1015625 0.7109375 C7.72804687 0.80632812 8.35453125 0.90171875 9 1 C8.34 1.33 7.68 1.66 7 2 C7.38671875 2.65484375 7.7734375 3.3096875 8.171875 3.984375 C11.51492231 9.84298266 14.0057147 15.50406254 15.98828125 21.9453125 C17.05677044 25.17140728 18.36842552 28.20879487 19.75 31.3125 C21.70318234 35.85797939 22.55768956 39.09233191 22 44 C21.01 44.33 20.02 44.66 19 45 C18.67 43.35 18.34 41.7 18 40 C16.68 40 15.36 40 14 40 C14.10441406 41.01320313 14.10441406 41.01320313 14.2109375 42.046875 C14.37788921 44.79760326 14.41717851 47.27328685 14 50 C11.3125 52.375 11.3125 52.375 8 54 C6.7934375 55.11375 6.7934375 55.11375 5.5625 56.25 C2.21540941 58.53581797 -0.03106075 58.38162877 -4 58 C-5 57 -5 57 -5.09765625 53.83984375 C-5.08605469 52.55207031 -5.07445313 51.26429688 -5.0625 49.9375 C-5.05347656 48.64714844 -5.04445313 47.35679687 -5.03515625 46.02734375 C-5.02355469 45.02832031 -5.01195313 44.02929688 -5 43 C-5.62648438 43.28875 -6.25296875 43.5775 -6.8984375 43.875 C-7.71570313 44.24625 -8.53296875 44.6175 -9.375 45 C-10.18710938 45.37125 -10.99921875 45.7425 -11.8359375 46.125 C-14 47 -14 47 -16 47 C-16.495 49.475 -16.495 49.475 -17 52 C-17.66 51.34 -18.32 50.68 -19 50 C-21.60280568 50.32041397 -21.60280568 50.32041397 -24 51 C-23.74438677 53.3431213 -23.40729228 55.67843403 -23 58 C-22.34 58.33 -21.68 58.66 -21 59 C-21.66 59.66 -22.32 60.32 -23 61 C-23.16677282 64.58343976 -23.16677282 64.58343976 -23 68 C-20.37574221 66.58917968 -20.37574221 66.58917968 -18 64 C-17.26848111 61.00695442 -17.07226313 58.07446787 -17 55 C-16.67 55 -16.34 55 -16 55 C-15.67 58.63 -15.34 62.26 -15 66 C-23.625 72 -23.625 72 -27 72 C-27.33 73.98 -27.66 75.96 -28 78 C-28.33 78 -28.66 78 -29 78 C-29 76.02 -29 74.04 -29 72 C-27.515 71.505 -27.515 71.505 -26 71 C-25.67 68.03 -25.34 65.06 -25 62 C-25.66 62 -26.32 62 -27 62 C-27.268125 62.598125 -27.53625 63.19625 -27.8125 63.8125 C-28.98493467 65.97224808 -30.19369282 67.35790256 -32 69 C-30.93235269 65.97499929 -29.74105624 63.61550776 -27.9375 60.9375 C-26.29011983 58.4398591 -25.44544885 56.89541755 -25 54 C-25.66 54 -26.32 54 -27 54 C-26.69255859 53.02160156 -26.69255859 53.02160156 -26.37890625 52.0234375 C-24.16011563 45.12305356 -24.16011563 45.12305356 -23 38 C-23.66 37.34 -24.32 36.68 -25 36 C-21 36 -21 36 -18 37 C-18 37.99 -18 38.98 -18 40 C-13.47078782 40.39384454 -10.49359329 39.94874021 -6.3125 38.125 C-0.6874062 35.6808144 4.94777493 34.79032492 11 34 C10.74292265 31.62279061 10.46982932 29.24923394 10.1875 26.875 C10.11724609 26.20984375 10.04699219 25.5446875 9.97460938 24.859375 C9.42071296 20.33958024 8.15640337 16.9819613 6 13 C6 12.34 6 11.68 6 11 C5.195625 10.690625 4.39125 10.38125 3.5625 10.0625 C1 9 1 9 0 8 C-1.80811184 7.79103683 -3.62216032 7.63219639 -5.4375 7.5 C-10.78015267 7.10992366 -10.78015267 7.10992366 -13 6 C-13 5.34 -13 4.68 -13 4 C-5.42228293 3.49853343 -0.54216759 4.05001202 6 8 C6 6.35 6 4.7 6 3 C3.36 2.67 0.72 2.34 -2 2 C-1.34 1.34 -0.68 0.68 0 0 Z " fill="#0C0C0C" transform="translate(100,130)"/>
<path d="M0 0 C0.66 0 1.32 0 2 0 C2.86625 1.670625 2.86625 1.670625 3.75 3.375 C4.9762994 5.46992814 5.96268974 6.96535476 7.75 8.625 C11.48972344 9.24828724 14.62132081 7.52532604 18 6 C17.67 5.34 17.34 4.68 17 4 C19.64 4.66 22.28 5.32 25 6 C24.67 6.66 24.34 7.32 24 8 C24.763125 8.061875 25.52625 8.12375 26.3125 8.1875 C29 9 29 9 30.5 11.0625 C30.995 12.031875 31.49 13.00125 32 14 C32.87290092 15.29308614 33.74806196 16.58464832 34.625 17.875 C37.01459781 21.6495599 37.72295214 24.56723424 38 29 C36.26029644 26.39044466 35.29345262 24.26459536 34.1875 21.375 C33.22368908 18.99312337 33.22368908 18.99312337 32 17 C29.3912295 15.7886547 29.3912295 15.7886547 27 16 C27.33 16.763125 27.66 17.52625 28 18.3125 C29 21 29 21 29 24 C29.66 24 30.32 24 31 24 C31.5878125 25.299375 31.5878125 25.299375 32.1875 26.625 C35.69588702 33.15785858 40.27600773 38.5947199 47.3125 41.25 C48.199375 41.4975 49.08625 41.745 50 42 C49.34 40.35 48.68 38.7 48 37 C48.60328125 37.42152344 49.2065625 37.84304687 49.828125 38.27734375 C50.62734375 38.82519531 51.4265625 39.37304688 52.25 39.9375 C53.03890625 40.48277344 53.8278125 41.02804688 54.640625 41.58984375 C56.82636993 42.89622441 58.5153801 43.54980511 61 44 C61 44.66 61 45.32 61 46 C58.40321849 45.56720308 56.30814759 45.17333302 54 43.875 C51.98297483 42.74902099 51.98297483 42.74902099 49.65234375 43.59375 C46.34823954 44.09982782 45.32785366 43.40941716 42.5625 41.625 C38.97691547 39.45572136 36.1964649 38.51176401 32 38 C31.34 37.34 30.68 36.68 30 36 C28.081875 35.814375 28.081875 35.814375 26.125 35.625 C23.06282805 35.30764763 22.087363 35.06333817 19.5 33.1875 C18 31 18 31 18 27 C16.63875 26.566875 16.63875 26.566875 15.25 26.125 C12 25 12 25 10 23.875 C7.28586617 22.68756645 4.92578787 22.86700964 2 23 C1.01 25.475 1.01 25.475 0 28 C-0.33 28 -0.66 28 -1 28 C-1.33 25.03 -1.66 22.06 -2 19 C-1.34 19 -0.68 19 0 19 C-0.33 18.05125 -0.66 17.1025 -1 16.125 C-2.31834321 11.5202155 -2.59087519 6.75306957 -2 2 C-1.34 1.34 -0.68 0.68 0 0 Z " fill="#9F9F9E" transform="translate(62,81)"/>
<path d="M0 0 C1.75 0.125 1.75 0.125 4 1 C7.94337575 6.18272242 9.13166616 9.7550469 9.0625 16.1875 C9.05347656 17.27417969 9.04445312 18.36085938 9.03515625 19.48046875 C9.02355469 20.31191406 9.01195312 21.14335938 9 22 C10.32 22.33 11.64 22.66 13 23 C12.505 25.475 12.505 25.475 12 28 C14.97 28 17.94 28 21 28 C20.34 29.32 19.68 30.64 19 32 C18.34 32 17.68 32 17 32 C16.505 31.01 16.505 31.01 16 30 C12.52517915 31.15827362 11.94446638 32.088188 9.875 35 C7.01265823 38.98734177 7.01265823 38.98734177 6 40 C3.66702567 40.04092937 1.33294775 40.04241723 -1 40 C-2.87543354 43.86763446 -2.87543354 43.86763446 -2 48 C-6.9130333 51.93042664 -9.72324248 52.51448832 -16 52 C-16.99 51.67 -17.98 51.34 -19 51 C-18.67 52.65 -18.34 54.3 -18 56 C-18.99 55.01 -19.98 54.02 -21 53 C-21 53.66 -21 54.32 -21 55 C-21.99 54.67 -22.98 54.34 -24 54 C-24.66 46.74 -25.32 39.48 -26 32 C-23.525 33.98 -23.525 33.98 -21 36 C-16.57504043 38.25270669 -12.98183715 39.86640646 -8 39 C-5.24958334 36.58333229 -5.24958334 36.58333229 -3 34 C-2.34 34 -1.68 34 -1 34 C2.60871441 27.29810181 3.21883004 22.41180431 2 15 C2.66 15 3.32 15 4 15 C4 17.64 4 20.28 4 23 C4.66 23 5.32 23 6 23 C6.08097324 20.72975032 6.13917704 18.45867925 6.1875 16.1875 C6.22230469 14.92292969 6.25710937 13.65835938 6.29296875 12.35546875 C6.30827421 9.03403555 6.30827421 9.03403555 4.48828125 7.05078125 C3.99714844 6.70402344 3.50601563 6.35726562 3 6 C3.66 6 4.32 6 5 6 C3.35 4.02 1.7 2.04 0 0 Z " fill="#1C1C1C" transform="translate(32,87)"/>
<path d="M0 0 C4.1971014 0.34262052 7.00824521 0.82425471 10.5625 3.125 C13.79263564 5.34731613 13.79263564 5.34731613 16.9375 4.5 C21.41305966 3.76929638 24.20832407 5.75771449 28 8 C28 7.34 28 6.68 28 6 C27.01 6 26.02 6 25 6 C24.505 4.02 24.505 4.02 24 2 C28.03011465 0.85159565 30.0278229 1.03072681 33.6875 3.0625 C34.45449219 3.46597656 35.22148437 3.86945313 36.01171875 4.28515625 C38.62688591 6.5406737 39.14668452 8.70994405 40 12 C37.79567015 12.84549638 35.58751467 13.67642814 33.375 14.5 C32.14523438 14.9640625 30.91546875 15.428125 29.6484375 15.90625 C26.18957134 16.94316919 23.57814964 17.22019382 20 17 C20 17.66 20 18.32 20 19 C19.34 19 18.68 19 18 19 C18 20.65 18 22.3 18 24 C15.37997275 21.62949916 13.64180091 19.12723983 12 16 C12 15.01 12 14.02 12 13 C9.69 12.67 7.38 12.34 5 12 C6.98 12.66 8.96 13.32 11 14 C11.33 15.98 11.66 17.96 12 20 C11.47792969 19.74605469 10.95585938 19.49210937 10.41796875 19.23046875 C4.42660741 16.42890399 -1.58574362 14.58258288 -8 13 C-8 12.67 -8 12.34 -8 12 C-5.03 12 -2.06 12 1 12 C1.66 9.36 2.32 6.72 3 4 C1.68 3.34 0.36 2.68 -1 2 C-0.67 1.34 -0.34 0.68 0 0 Z " fill="#F6F6F4" transform="translate(95,119)"/>
<path d="M0 0 C0.99 0.33 1.98 0.66 3 1 C3.33 3.31 3.66 5.62 4 8 C4.66 5.36 5.32 2.72 6 0 C6.66 0.33 7.32 0.66 8 1 C7.835 1.825 7.67 2.65 7.5 3.5 C6.70930803 9.03484382 6.54471269 13.78260936 8.125 19.125 C9.07958976 23.35246894 8.91737015 25.16525969 7 29 C6.01 29.66 5.02 30.32 4 31 C4 30.01 4 29.02 4 28 C3.68330179 25.66435067 3.35179197 23.3306218 3 21 C2.34 21.33 1.68 21.66 1 22 C0.34 20.02 -0.32 18.04 -1 16 C-1.66 16.33 -2.32 16.66 -3 17 C-2.67 15.68 -2.34 14.36 -2 13 C-1.34 13 -0.68 13 0 13 C-0.66 12.01 -1.32 11.02 -2 10 C-2.94238698 12.82716095 -3.13465647 14.63176123 -3.125 17.5625 C-3.12757812 18.34753906 -3.13015625 19.13257812 -3.1328125 19.94140625 C-3.12976366 22.06438977 -3.12976366 22.06438977 -2 24 C-2.4375 26.125 -2.4375 26.125 -3 28 C-2.34 28 -1.68 28 -1 28 C-1 28.66 -1 29.32 -1 30 C-1.66 30 -2.32 30 -3 30 C-2.7834375 30.67546875 -2.566875 31.3509375 -2.34375 32.046875 C-2.0653125 32.93890625 -1.786875 33.8309375 -1.5 34.75 C-1.2215625 35.63171875 -0.943125 36.5134375 -0.65625 37.421875 C0 40 0 40 0 44 C1.65 43.34 3.3 42.68 5 42 C5.67667998 43.24460783 6.34094719 44.49596896 7 45.75 C7.37125 46.44609375 7.7425 47.1421875 8.125 47.859375 C9 50 9 50 9 54 C11.0249091 56.14505223 11.0249091 56.14505223 13.6875 58.0625 C14.99267578 59.06990234 14.99267578 59.06990234 16.32421875 60.09765625 C20.49056746 63.05971731 24.54311122 65.34333634 29.3125 67.1875 C30.19550781 67.53167969 31.07851562 67.87585938 31.98828125 68.23046875 C32.65214844 68.48441406 33.31601563 68.73835938 34 69 C34 69.66 34 70.32 34 71 C33.39671875 70.79503906 32.7934375 70.59007812 32.171875 70.37890625 C31.37265625 70.10949219 30.5734375 69.84007812 29.75 69.5625 C28.96109375 69.29566406 28.1721875 69.02882813 27.359375 68.75390625 C25.25178012 68.08045292 23.15246027 67.50849405 21 67 C20.01 68.65 19.02 70.3 18 72 C16.68 71.67 15.36 71.34 14 71 C13.67 68.69 13.34 66.38 13 64 C9.38026598 62.68373308 6.90432869 62 3 62 C6 60 6 60 10 60 C7.55726858 55.72522001 4.86544749 51.86544749 1.375 48.375 C-0.9000736 46.0999264 -1.97447113 44.54887081 -2.125 41.3125 C-2.08375 40.549375 -2.0425 39.78625 -2 39 C-2.66 39 -3.32 39 -4 39 C-4.33 41.64 -4.66 44.28 -5 47 C-5.66 47 -6.32 47 -7 47 C-6.855625 46.443125 -6.71125 45.88625 -6.5625 45.3125 C-4.40495199 36.44258041 -3.77987964 26.44024073 -8 18 C-7.34 17.67 -6.68 17.34 -6 17 C-5.08514427 14.19521805 -5.08514427 14.19521805 -4.375 10.9375 C-4.11460938 9.83277344 -3.85421875 8.72804688 -3.5859375 7.58984375 C-3.39257812 6.73519531 -3.19921875 5.88054687 -3 5 C-4.65 4.67 -6.3 4.34 -8 4 C-8 3.67 -8 3.34 -8 3 C-5.03 3.33 -2.06 3.66 1 4 C0.67 2.68 0.34 1.36 0 0 Z " fill="#2F2F2E" transform="translate(50,61)"/>
<path d="M0 0 C4.02047965 2.12191982 6.59987835 4.11014767 9 8 C11.91234079 17.54326362 11.60260252 25.73616496 8 35 C8.66 35 9.32 35 10 35 C10.33 32.36 10.66 29.72 11 27 C11.66 27 12.32 27 13 27 C14.94331984 32.70040486 14.94331984 32.70040486 15.4375 35.3125 C15.623125 35.869375 15.80875 36.42625 16 37 C17.485 37.495 17.485 37.495 19 38 C20.60546875 39.5234375 20.60546875 39.5234375 22.1875 41.375 C22.98220703 42.28378906 22.98220703 42.28378906 23.79296875 43.2109375 C25 45 25 45 25 48 C21.535 48.495 21.535 48.495 18 49 C17 46 17 46 18 42 C13.545 42.495 13.545 42.495 9 43 C8.67 42.34 8.34 41.68 8 41 C8.66 41 9.32 41 10 41 C10 39.68 10 38.36 10 37 C8.68 36.67 7.36 36.34 6 36 C5.96132813 34.83984375 5.96132813 34.83984375 5.921875 33.65625 C5.54571032 26.74849863 4.70379139 21.8824922 1 16 C0.01 15.34 -0.98 14.68 -2 14 C-1.85795259 12.41632253 -1.71119847 10.83306682 -1.5625 9.25 C-1.48128906 8.36828125 -1.40007813 7.4865625 -1.31640625 6.578125 C-1.03761535 4.30649548 -0.61209423 2.20148177 0 0 Z " fill="#F6F6F4" transform="translate(35,73)"/>
<path d="M0 0 C1.4552777 2.9105554 0.63516661 4.95849052 0.0625 8.125 C-0.13214844 9.22070312 -0.32679687 10.31640625 -0.52734375 11.4453125 C-0.68332031 12.28835937 -0.83929688 13.13140625 -1 14 C-0.34 14 0.32 14 1 14 C1.66 12.68 2.32 11.36 3 10 C4.24546405 12.49092811 3.7767578 13.41080733 3 16 C3.45375 15.505 3.9075 15.01 4.375 14.5 C6 13 6 13 8 13 C8.103125 12.401875 8.20625 11.80375 8.3125 11.1875 C9.10494321 8.66608978 10.11943508 7.80534232 12 6 C13.17574711 3.90010348 13.17574711 3.90010348 14 2 C20 4 20 4 22.12109375 4.765625 C27.1194934 6.53282349 31.71781999 7.51980182 37 8 C37 8.33 37 8.66 37 9 C34.69 9 32.38 9 30 9 C30 9.66 30 10.32 30 11 C31.98 11.33 33.96 11.66 36 12 C36 12.33 36 12.66 36 13 C35.34773438 13.08636719 34.69546875 13.17273438 34.0234375 13.26171875 C27.85382562 14.25358851 24.42933725 15.57066275 20 20 C19.34 19.67 18.68 19.34 18 19 C20.75 15.125 20.75 15.125 23 14 C23 13.34 23 12.68 23 12 C22.236875 12.495 21.47375 12.99 20.6875 13.5 C18 15 18 15 15 15 C15 15.66 15 16.32 15 17 C9.95859836 19.81532819 5.77378925 21.5188509 0 22 C-0.144375 21.21625 -0.28875 20.4325 -0.4375 19.625 C-0.87798925 17.03578982 -0.87798925 17.03578982 -2 15 C-2.12227926 13.02362586 -2.17549929 11.0426169 -2.1875 9.0625 C-2.20167969 8.00160156 -2.21585938 6.94070312 -2.23046875 5.84765625 C-2 3 -2 3 0 0 Z " fill="#F7F7F5" transform="translate(57,125)"/>
<path d="M0 0 C2.1640625 0.0234375 2.1640625 0.0234375 4.625 0.375 C5.85089844 0.54128906 5.85089844 0.54128906 7.1015625 0.7109375 C7.72804688 0.80632812 8.35453125 0.90171875 9 1 C8.01 1.495 8.01 1.495 7 2 C7.38671875 2.65484375 7.7734375 3.3096875 8.171875 3.984375 C11.51492231 9.84298266 14.0057147 15.50406254 15.98828125 21.9453125 C17.05677044 25.17140728 18.36842552 28.20879487 19.75 31.3125 C21.70318234 35.85797939 22.55768956 39.09233191 22 44 C21.01 44.33 20.02 44.66 19 45 C18.505 42.525 18.505 42.525 18 40 C15.36 39.67 12.72 39.34 10 39 C10.02320312 38.07058594 10.04640625 37.14117187 10.0703125 36.18359375 C10.16510902 29.69003184 10.2438424 24.10823764 8 18 C7.731875 16.741875 7.46375 15.48375 7.1875 14.1875 C6.33033964 10.81386182 6.33033964 10.81386182 3.4375 9.625 C2.2309375 9.315625 2.2309375 9.315625 1 9 C0.67 8.67 0.34 8.34 0 8 C-1.80811184 7.79103683 -3.62216032 7.63219639 -5.4375 7.5 C-10.78015267 7.10992366 -10.78015267 7.10992366 -13 6 C-13 5.34 -13 4.68 -13 4 C-5.42228293 3.49853343 -0.54216759 4.05001202 6 8 C6 6.35 6 4.7 6 3 C3.36 2.67 0.72 2.34 -2 2 C-1.34 1.34 -0.68 0.68 0 0 Z " fill="#080808" transform="translate(100,130)"/>
<path d="M0 0 C0.66 0 1.32 0 2 0 C2.66 1.65 3.32 3.3 4 5 C4.86625 4.938125 5.7325 4.87625 6.625 4.8125 C10.47805221 5.02655846 12.63983518 6.17382346 16 8 C16.7425 8.144375 17.485 8.28875 18.25 8.4375 C20 9 20 9 21.25 11.0625 C21.4975 11.701875 21.745 12.34125 22 13 C21.34 13 20.68 13 20 13 C20.66 13.66 21.32 14.32 22 15 C23.32 15 24.64 15 26 15 C30 15 30 15 31.52734375 16.390625 C31.99269531 17.00421875 32.45804688 17.6178125 32.9375 18.25 C37.02919601 23.32616422 40.6227829 26.22031151 47 28 C46.34 26.35 45.68 24.7 45 23 C45.60328125 23.42152344 46.2065625 23.84304687 46.828125 24.27734375 C47.62734375 24.82519531 48.4265625 25.37304688 49.25 25.9375 C50.03890625 26.48277344 50.8278125 27.02804688 51.640625 27.58984375 C53.82636993 28.89622441 55.5153801 29.54980511 58 30 C58 30.66 58 31.32 58 32 C55.40321849 31.56720308 53.30814759 31.17333302 51 29.875 C48.98297483 28.74902099 48.98297483 28.74902099 46.65234375 29.59375 C43.34823954 30.09982782 42.32785366 29.40941716 39.5625 27.625 C35.97691547 25.45572136 33.1964649 24.51176401 29 24 C28.34 23.34 27.68 22.68 27 22 C25.72125 21.87625 24.4425 21.7525 23.125 21.625 C20.06282805 21.30764763 19.087363 21.06333817 16.5 19.1875 C15 17 15 17 15 13 C14.113125 12.731875 13.22625 12.46375 12.3125 12.1875 C9.21004381 11.07529872 6.77352862 9.75170229 4 8 C2.67391178 7.31903578 1.34313399 6.64669414 0 6 C0.66 6 1.32 6 2 6 C1.34 5.01 0.68 4.02 0 3 C0 2.01 0 1.02 0 0 Z " fill="#202020" transform="translate(65,95)"/>
<path d="M0 0 C0.66 0.33 1.32 0.66 2 1 C2 1.99 2 2.98 2 4 C1.34 4 0.68 4 0 4 C0 4.99 0 5.98 0 7 C0.66 6.34 1.32 5.68 2 5 C2.28875 5.78375 2.5775 6.5675 2.875 7.375 C3.84912254 10.09671632 3.84912254 10.09671632 6 12 C6.56520003 14.65537372 6.73788198 17.29144713 7 20 C7.66 19.67 8.32 19.34 9 19 C9.65555119 16.47266765 9.65555119 16.47266765 10 14 C10.66 14 11.32 14 12 14 C12.13277344 14.96421875 12.26554687 15.9284375 12.40234375 16.921875 C12.57894531 18.18515625 12.75554688 19.4484375 12.9375 20.75 C13.11152344 22.00296875 13.28554688 23.2559375 13.46484375 24.546875 C13.86049338 27.09982593 14.30446422 29.5186291 15 32 C13.02 31.34 11.04 30.68 9 30 C8.67 30.99 8.34 31.98 8 33 C4.9375 34.1875 4.9375 34.1875 2 35 C-1.44419134 25.58997722 -1.44419134 25.58997722 -1 21 C-0.34 21 0.32 21 1 21 C1 20.34 1 19.68 1 19 C0.01 19.33 -0.98 19.66 -2 20 C-1.814375 19.030625 -1.62875 18.06125 -1.4375 17.0625 C-1.293125 16.051875 -1.14875 15.04125 -1 14 C-1.33 13.67 -1.66 13.34 -2 13 C-2.16796875 11.07421875 -2.16796875 11.07421875 -2.1875 8.6875 C-2.20167969 7.90761719 -2.21585938 7.12773438 -2.23046875 6.32421875 C-1.97984413 3.7967332 -1.26373772 2.18281969 0 0 Z " fill="#F4F4F3" transform="translate(48,70)"/>
<path d="M0 0 C1.75 0.125 1.75 0.125 4 1 C7.94337575 6.18272242 9.13166616 9.7550469 9.0625 16.1875 C9.05347656 17.27417969 9.04445313 18.36085938 9.03515625 19.48046875 C9.02355469 20.31191406 9.01195312 21.14335938 9 22 C10.32 22.33 11.64 22.66 13 23 C12.67 24.65 12.34 26.3 12 28 C14.97 28 17.94 28 21 28 C20.34 29.32 19.68 30.64 19 32 C18.34 32 17.68 32 17 32 C16.67 31.34 16.34 30.68 16 30 C11.71779047 31.42740318 9.29075365 34.45109562 6.4375 37.875 C5 39 5 39 3.0625 38.9375 C0.45682641 37.75310292 -1.09490208 36.10921555 -3 34 C-2.34 34 -1.68 34 -1 34 C2.60871441 27.29810181 3.21883004 22.41180431 2 15 C2.66 15 3.32 15 4 15 C4 17.64 4 20.28 4 23 C4.66 23 5.32 23 6 23 C6.08097324 20.72975032 6.13917704 18.45867925 6.1875 16.1875 C6.22230469 14.92292969 6.25710937 13.65835938 6.29296875 12.35546875 C6.30827421 9.03403555 6.30827421 9.03403555 4.48828125 7.05078125 C3.99714844 6.70402344 3.50601563 6.35726562 3 6 C3.66 6 4.32 6 5 6 C3.35 4.02 1.7 2.04 0 0 Z " fill="#141414" transform="translate(32,87)"/>
<path d="M0 0 C0.99 0.33 1.98 0.66 3 1 C3.33 3.31 3.66 5.62 4 8 C4.66 5.36 5.32 2.72 6 0 C6.66 0.33 7.32 0.66 8 1 C7.835 1.825 7.67 2.65 7.5 3.5 C6.70930803 9.03484382 6.54471269 13.78260936 8.125 19.125 C9.07958976 23.35246894 8.91737015 25.16525969 7 29 C6.01 29.66 5.02 30.32 4 31 C4 30.01 4 29.02 4 28 C3.68330179 25.66435067 3.35179197 23.3306218 3 21 C2.34 21.33 1.68 21.66 1 22 C0.34 20.02 -0.32 18.04 -1 16 C-1.66 16.33 -2.32 16.66 -3 17 C-2.67 15.68 -2.34 14.36 -2 13 C-1.34 13 -0.68 13 0 13 C-0.66 12.01 -1.32 11.02 -2 10 C-2.94238698 12.82716095 -3.13465647 14.63176123 -3.125 17.5625 C-3.12757812 18.34753906 -3.13015625 19.13257812 -3.1328125 19.94140625 C-3.12976366 22.06438977 -3.12976366 22.06438977 -2 24 C-2.60578253 26.01927511 -3.26919734 28.02253397 -4 30 C-6.30672095 26.53991858 -6.48134006 24.07518521 -7 20 C-7.33 19.34 -7.66 18.68 -8 18 C-7.34 17.67 -6.68 17.34 -6 17 C-5.08514427 14.19521805 -5.08514427 14.19521805 -4.375 10.9375 C-4.11460938 9.83277344 -3.85421875 8.72804688 -3.5859375 7.58984375 C-3.39257812 6.73519531 -3.19921875 5.88054687 -3 5 C-4.65 4.67 -6.3 4.34 -8 4 C-8 3.67 -8 3.34 -8 3 C-5.03 3.33 -2.06 3.66 1 4 C0.67 2.68 0.34 1.36 0 0 Z " fill="#40403F" transform="translate(50,61)"/>
<path d="M0 0 C1.98 0.66 3.96 1.32 6 2 C6 2.99 6 3.98 6 5 C7.65 5.33 9.3 5.66 11 6 C9.02 6.99 9.02 6.99 7 8 C6.01 7.34 5.02 6.68 4 6 C3.67 7.32 3.34 8.64 3 10 C7.37934119 9.48041715 11.68803391 8.94324258 16 8 C13.60490662 10.89932357 11.68754757 11.50168276 8 12 C7.67 13.65 7.34 15.3 7 17 C6.34 16.34 5.68 15.68 5 15 C2.39719432 15.32041397 2.39719432 15.32041397 0 16 C0.25561323 18.3431213 0.59270772 20.67843403 1 23 C1.66 23.33 2.32 23.66 3 24 C2.34 24.66 1.68 25.32 1 26 C0.83322718 29.58343976 0.83322718 29.58343976 1 33 C3.62425779 31.58917968 3.62425779 31.58917968 6 29 C6.73151889 26.00695442 6.92773687 23.07446787 7 20 C7.33 20 7.66 20 8 20 C8.33 23.63 8.66 27.26 9 31 C0.375 37 0.375 37 -3 37 C-3.33 38.98 -3.66 40.96 -4 43 C-4.33 43 -4.66 43 -5 43 C-5 41.02 -5 39.04 -5 37 C-3.515 36.505 -3.515 36.505 -2 36 C-1.505 31.545 -1.505 31.545 -1 27 C-1.66 27 -2.32 27 -3 27 C-3.268125 27.598125 -3.53625 28.19625 -3.8125 28.8125 C-4.98493467 30.97224808 -6.19369282 32.35790256 -8 34 C-6.93235269 30.97499929 -5.74105624 28.61550776 -3.9375 25.9375 C-2.29011983 23.4398591 -1.44544885 21.89541755 -1 19 C-1.66 19 -2.32 19 -3 19 C-2.79503906 18.34773438 -2.59007813 17.69546875 -2.37890625 17.0234375 C-0.16011563 10.12305356 -0.16011563 10.12305356 1 3 C0.34 2.34 -0.32 1.68 -1 1 C-0.67 0.67 -0.34 0.34 0 0 Z " fill="#727272" transform="translate(76,165)"/>
<path d="M0 0 C1.21816406 0.03480469 1.21816406 0.03480469 2.4609375 0.0703125 C3.68683594 0.09738281 3.68683594 0.09738281 4.9375 0.125 C5.87722656 0.15980469 5.87722656 0.15980469 6.8359375 0.1953125 C7.03509766 1.25298828 7.03509766 1.25298828 7.23828125 2.33203125 C7.84997739 5.26257549 8.5990728 8.1231486 9.3984375 11.0078125 C9.66785156 11.98363281 9.93726562 12.95945312 10.21484375 13.96484375 C10.41980469 14.70089844 10.62476562 15.43695313 10.8359375 16.1953125 C9.68931641 15.73318359 9.68931641 15.73318359 8.51953125 15.26171875 C3.644046 13.32429885 -0.97968053 12.00177192 -6.1640625 11.1953125 C-7.1540625 10.8653125 -8.1440625 10.5353125 -9.1640625 10.1953125 C-10.0390625 8.3203125 -10.0390625 8.3203125 -10.1640625 6.1953125 C-8.99609375 4.54296875 -8.99609375 4.54296875 -7.1640625 3.1953125 C-4.68359375 3.12109375 -4.68359375 3.12109375 -1.9765625 3.5078125 C-1.07550781 3.62769531 -0.17445312 3.74757813 0.75390625 3.87109375 C1.44097656 3.97808594 2.12804687 4.08507812 2.8359375 4.1953125 C0.5259375 3.5353125 -1.7840625 2.8753125 -4.1640625 2.1953125 C-2.1640625 0.1953125 -2.1640625 0.1953125 0 0 Z " fill="#F3F3F1" transform="translate(77.1640625,89.8046875)"/>
<path d="M0 0 C0.66 0 1.32 0 2 0 C1.88637738 1.4800841 1.75877092 2.95910074 1.625 4.4375 C1.55539063 5.26121094 1.48578125 6.08492187 1.4140625 6.93359375 C1.27742188 7.61550781 1.14078125 8.29742187 1 9 C0.01 9.495 0.01 9.495 -1 10 C-0.938125 10.94875 -0.87625 11.8975 -0.8125 12.875 C-0.79224447 17.81734906 -2.29820837 22.39722678 -4 27 C-5 28 -5 28 -8.0625 28.0625 C-9.031875 28.041875 -10.00125 28.02125 -11 28 C-11.78577157 19.98512995 -9.47448258 11.61981063 -4.58984375 5.125 C-3.25 3.8125 -3.25 3.8125 -1 2 C-0.67 1.34 -0.34 0.68 0 0 Z " fill="#171717" transform="translate(73,192)"/>
<path d="M0 0 C2 2 2 2 2.125 5.625 C2.08375 6.73875 2.0425 7.8525 2 9 C1.34 9 0.68 9 0 9 C-2.1142071 20.40161688 -2.20923895 31.44536021 -2 43 C-0.68 43.33 0.64 43.66 2 44 C1.67 45.32 1.34 46.64 1 48 C-0.98 48 -2.96 48 -5 48 C-5 46.02 -5 44.04 -5 42 C-8.63 42 -12.26 42 -16 42 C-16 42.66 -16 43.32 -16 44 C-16.66 44 -17.32 44 -18 44 C-17.67 42.68 -17.34 41.36 -17 40 C-15.37509046 39.97301811 -13.75005367 39.95361243 -12.125 39.9375 C-11.22007813 39.92589844 -10.31515625 39.91429687 -9.3828125 39.90234375 C-7 40 -7 40 -5 41 C-5.061875 39.081875 -5.061875 39.081875 -5.125 37.125 C-5.125 5.125 -5.125 5.125 0 0 Z " fill="#989897" transform="translate(94,41)"/>
<path d="M0 0 C1.46491151 2.79607022 2.62245922 5.57006766 3.625 8.5625 C3.88539062 9.32691406 4.14578125 10.09132812 4.4140625 10.87890625 C5 13 5 13 5 16 C5.66 16.33 6.32 16.66 7 17 C7 17.66 7 18.32 7 19 C7.66 19 8.32 19 9 19 C9 19.99 9 20.98 9 22 C13.57748509 19.1204024 13.57748509 19.1204024 17 15 C17.99 15.33 18.98 15.66 20 16 C16.84778899 20.41309542 13.44536093 23.00793014 9 26 C8.67 25.01 8.34 24.02 8 23 C6.68 23.33 5.36 23.66 4 24 C3.01 20.37 2.02 16.74 1 13 C-0.65 12.67 -2.3 12.34 -4 12 C-6.1519437 8.77208445 -6.20086443 7.71599191 -6 4 C-5.34 4 -4.68 4 -4 4 C-3.67 5.32 -3.34 6.64 -3 8 C-0.70941092 6.16918103 -0.70941092 6.16918103 -0.9375 3.4375 C-0.958125 2.633125 -0.97875 1.82875 -1 1 C-0.67 0.67 -0.34 0.34 0 0 Z " fill="#80807F" transform="translate(122,166)"/>
<path d="M0 0 C1.4552777 2.9105554 0.63516661 4.95849052 0.0625 8.125 C-0.13214844 9.22070312 -0.32679687 10.31640625 -0.52734375 11.4453125 C-0.68332031 12.28835937 -0.83929688 13.13140625 -1 14 C-0.34 14 0.32 14 1 14 C1.66 12.68 2.32 11.36 3 10 C4.24546405 12.49092811 3.7767578 13.41080733 3 16 C3.45375 15.505 3.9075 15.01 4.375 14.5 C6 13 6 13 8 13 C8.33 11.68 8.66 10.36 9 9 C13.6875 12.61328125 13.6875 12.61328125 15 14 C15 14.99 15 15.98 15 17 C9.95859836 19.81532819 5.77378925 21.5188509 0 22 C-0.144375 21.21625 -0.28875 20.4325 -0.4375 19.625 C-0.87798925 17.03578982 -0.87798925 17.03578982 -2 15 C-2.12227926 13.02362586 -2.17549929 11.0426169 -2.1875 9.0625 C-2.20167969 8.00160156 -2.21585938 6.94070312 -2.23046875 5.84765625 C-2 3 -2 3 0 0 Z " fill="#EEEEEC" transform="translate(57,125)"/>
<path d="M0 0 C5.875 1.875 5.875 1.875 7 3 C7.04092937 5.33297433 7.04241723 7.66705225 7 10 C7.99 10 8.98 10 10 10 C9.34 11.98 8.68 13.96 8 16 C7.34 16 6.68 16 6 16 C5.34 17.32 4.68 18.64 4 20 C3.34 19.67 2.68 19.34 2 19 C2.33 17.35 2.66 15.7 3 14 C2.01 15.485 2.01 15.485 1 17 C0.34 17 -0.32 17 -1 17 C-1.21755666 11.5610835 -1.10428384 7.12919186 1 2 C0.34 1.67 -0.32 1.34 -1 1 C-0.67 0.67 -0.34 0.34 0 0 Z " fill="#080808" transform="translate(57,122)"/>
<path d="M0 0 C2.42694661 1.641758 4.0237852 3.6391065 5.84375 5.9140625 C9.3360658 10.06651117 12.95233003 11.99396419 18.125 13.4375 C17.465 11.7875 16.805 10.1375 16.125 8.4375 C16.72828125 8.85902344 17.3315625 9.28054687 17.953125 9.71484375 C18.75234375 10.26269531 19.5515625 10.81054688 20.375 11.375 C21.16390625 11.92027344 21.9528125 12.46554688 22.765625 13.02734375 C24.95136993 14.33372441 26.6403801 14.98730511 29.125 15.4375 C29.125 16.0975 29.125 16.7575 29.125 17.4375 C26.52821849 17.00470308 24.43314759 16.61083302 22.125 15.3125 C20.10797483 14.18652099 20.10797483 14.18652099 17.77734375 15.03125 C14.47323954 15.53732782 13.45285366 14.84691716 10.6875 13.0625 C7.80602587 11.30876699 6.27175141 10.457255 2.875 10 C-1.34190962 9.1374503 -2.48624426 6.95037609 -4.875 3.4375 C-4.875 2.4475 -4.875 1.4575 -4.875 0.4375 C-1.875 -0.5625 -1.875 -0.5625 0 0 Z " fill="#060606" transform="translate(93.875,109.5625)"/>
<path d="M0 0 C0.11928251 12.59282511 0.11928251 12.59282511 -2.625 16.04296875 C-4.5625 17.375 -4.5625 17.375 -8 19 C-8.125 11.25 -8.125 11.25 -7 9 C-7.33 9 -7.66 9 -8 9 C-8 6.36 -8 3.72 -8 1 C-3.375 -1.125 -3.375 -1.125 0 0 Z " fill="#080808" transform="translate(84,180)"/>
<path d="M0 0 C1.65 0 3.3 0 5 0 C6.98 3.96 8.96 7.92 11 12 C11.33 12 11.66 12 12 12 C12 14.64 12 17.28 12 20 C8.72257902 16.89973691 6.06895163 14.02901106 4 10 C4 9.34 4 8.68 4 8 C3.34 8 2.68 8 2 8 C1.34 5.36 0.68 2.72 0 0 Z " fill="#CFCFCE" transform="translate(89,97)"/>
<path d="M0 0 C0 3 0 3 -1.0625 4.6875 C-3.97320702 6.65926927 -6.58029471 6.19356822 -10 6 C-11.87543354 9.86763446 -11.87543354 9.86763446 -11 14 C-12.65 14.66 -14.3 15.32 -16 16 C-17.9651537 14.0348463 -17.85329896 10.95899774 -18.12890625 8.3046875 C-18 6 -18 6 -15.8125 2.875 C-13 1 -13 1 -10.8125 1.0625 C-9 2 -9 2 -7 4 C-3.70720291 3.68134222 -2.13464912 2.45484649 0 0 Z " fill="#3E3E3E" transform="translate(41,121)"/>
<path d="M0 0 C3.33552456 5.00328684 5.44753464 10.49380602 4.375 16.5 C3 19 3 19 0 21 C0 20.01 0 19.02 0 18 C-0.31669821 15.66435067 -0.64820803 13.3306218 -1 11 C-1.99 11.495 -1.99 11.495 -3 12 C-4.05699482 6.71502591 -4.05699482 6.71502591 -4 4 C-2.0625 1.5 -2.0625 1.5 0 0 Z " fill="#1B1B1B" transform="translate(54,71)"/>
<path d="M0 0 C0.66 0 1.32 0 2 0 C2 0.66 2 1.32 2 2 C3.11375 2.103125 4.2275 2.20625 5.375 2.3125 C10.43554302 2.929197 15.16622643 4.42506148 20 6 C20 6.33 20 6.66 20 7 C15.21149723 6.54395212 10.86232727 5.98931865 6.25 4.625 C4.06710529 4.04960626 4.06710529 4.04960626 2 4 C-2.75769588 7.13805473 -3.8550863 10.69176375 -5 16 C-4.38511719 16.10957031 -3.77023438 16.21914062 -3.13671875 16.33203125 C-1.92435547 16.56986328 -1.92435547 16.56986328 -0.6875 16.8125 C0.11300781 16.96332031 0.91351563 17.11414063 1.73828125 17.26953125 C4.23445587 18.07572236 5.32422106 19.02052002 7 21 C5.02 21 3.04 21 1 21 C1 20.34 1 19.68 1 19 C-0.134375 18.855625 -1.26875 18.71125 -2.4375 18.5625 C-6 18 -6 18 -7 17 C-6.85926549 10.38547826 -3.96368587 5.22533655 0 0 Z " fill="#884F56" transform="translate(143,70)"/>
<path d="M0 0 C0.33 0.66 0.66 1.32 1 2 C1.99 2.33 2.98 2.66 4 3 C5.60546875 4.5234375 5.60546875 4.5234375 7.1875 6.375 C7.71730469 6.98085937 8.24710938 7.58671875 8.79296875 8.2109375 C10 10 10 10 10 13 C7.69 13.33 5.38 13.66 3 14 C2 11 2 11 3 7 C-1.455 7.495 -1.455 7.495 -6 8 C-6.33 7.34 -6.66 6.68 -7 6 C-6.34 6 -5.68 6 -5 6 C-4.67 4.68 -4.34 3.36 -4 2 C-4 2.66 -4 3.32 -4 4 C-2.68 3.67 -1.36 3.34 0 3 C0 2.01 0 1.02 0 0 Z " fill="#E6E6E5" transform="translate(50,108)"/>
<path d="M0 0 C2.1640625 0.0234375 2.1640625 0.0234375 4.625 0.375 C5.85089844 0.54128906 5.85089844 0.54128906 7.1015625 0.7109375 C7.72804688 0.80632812 8.35453125 0.90171875 9 1 C8.01 1.495 8.01 1.495 7 2 C7.515625 3.11375 8.03125 4.2275 8.5625 5.375 C9.036875 6.57125 9.51125 7.7675 10 9 C9.67 9.66 9.34 10.32 9 11 C4.46693387 11.37775551 4.46693387 11.37775551 2.1796875 9.52734375 C-0.52957404 7.62891855 -2.34736255 7.54285744 -5.625 7.375 C-10.83685801 7.081571 -10.83685801 7.081571 -13 6 C-13 5.34 -13 4.68 -13 4 C-5.42228293 3.49853343 -0.54216759 4.05001202 6 8 C6 6.35 6 4.7 6 3 C3.36 2.67 0.72 2.34 -2 2 C-1.34 1.34 -0.68 0.68 0 0 Z " fill="#2C2C2C" transform="translate(100,130)"/>
<path d="M0 0 C0.66 0.66 1.32 1.32 2 2 C0.700625 1.95875 -0.59875 1.9175 -1.9375 1.875 C-6.15395924 1.86169887 -9.88896138 2.49546528 -13.95703125 3.5625 C-16 4 -16 4 -20 4 C-20 4.66 -20 5.32 -20 6 C-20.80824219 6.19335938 -21.61648437 6.38671875 -22.44921875 6.5859375 C-23.51785156 6.84632812 -24.58648437 7.10671875 -25.6875 7.375 C-26.74324219 7.63023438 -27.79898438 7.88546875 -28.88671875 8.1484375 C-31.70406766 8.91905489 -34.31668325 9.85498543 -37 11 C-37 10.34 -37 9.68 -37 9 C-39.31 8.67 -41.62 8.34 -44 8 C-44 7.67 -44 7.34 -44 7 C-40.535 6.505 -40.535 6.505 -37 6 C-37 6.66 -37 7.32 -37 8 C-35.824375 7.525625 -34.64875 7.05125 -33.4375 6.5625 C-30.71119098 5.52821843 -28.62095915 4.95708971 -25.6875 4.625 C-22.08241719 4.01396902 -19.95927678 3.03198829 -16.75 1.375 C-11.02629065 -1.37206382 -6.13782796 -1.63458911 0 0 Z " fill="#553437" transform="translate(218,74)"/>
<path d="M0 0 C1.1615882 3.48476459 0.77669581 4.67248371 -0.25 8.125 C-0.50265625 9.01445313 -0.7553125 9.90390625 -1.015625 10.8203125 C-1.34046875 11.53960937 -1.6653125 12.25890625 -2 13 C-2.99 13.33 -3.98 13.66 -5 14 C-7.02055843 9.60748167 -8.40895235 5.84659077 -9 1 C-6.04335481 -0.4783226 -3.25770263 -0.06032783 0 0 Z " fill="#EDEDEC" transform="translate(47,65)"/>
<path d="M0 0 C0.99 0.33 1.98 0.66 3 1 C2.01 1.495 2.01 1.495 1 2 C1.06960937 2.67546875 1.13921875 3.3509375 1.2109375 4.046875 C1.37788921 6.79760326 1.41717851 9.27328685 1 12 C-1.6875 14.375 -1.6875 14.375 -5 16 C-6.2065625 17.11375 -6.2065625 17.11375 -7.4375 18.25 C-10.76495221 20.52240639 -13.05681815 20.30926916 -17 20 C-17.33 18.68 -17.66 17.36 -18 16 C-17.21625 15.87625 -16.4325 15.7525 -15.625 15.625 C-12.85942178 15.20882007 -12.85942178 15.20882007 -11 13 C-11 13.66 -11 14.32 -11 15 C-10.195625 14.319375 -10.195625 14.319375 -9.375 13.625 C-6.68301698 11.78311688 -4.11479612 10.92028067 -1 10 C-0.67 6.7 -0.34 3.4 0 0 Z " fill="#3E3E3E" transform="translate(113,168)"/>
<path d="M0 0 C1.65 0.99 3.3 1.98 5 3 C4.34 5.64 3.68 8.28 3 11 C5.65228812 12.07525194 8.28368454 13.09456151 11 14 C11.33 15.98 11.66 17.96 12 20 C11.47792969 19.74605469 10.95585938 19.49210937 10.41796875 19.23046875 C4.42660741 16.42890399 -1.58574362 14.58258288 -8 13 C-8 12.67 -8 12.34 -8 12 C-5.03 12 -2.06 12 1 12 C1.66 9.36 2.32 6.72 3 4 C1.68 3.34 0.36 2.68 -1 2 C-0.67 1.34 -0.34 0.68 0 0 Z " fill="#6D6D6D" transform="translate(95,119)"/>
<path d="M0 0 C0.33 1.32 0.66 2.64 1 4 C1.66 4.33 2.32 4.66 3 5 C2.7697175 7.52401744 2.51645793 10.04225203 2.25 12.5625 C2.188125 13.26697266 2.12625 13.97144531 2.0625 14.69726562 C1.46848402 20.0681601 -0.19582553 23.39940126 -3 28 C-3.85947733 30.56663124 -3.85947733 30.56663124 -4.25 32.9375 C-4.39953125 33.70964844 -4.5490625 34.48179687 -4.703125 35.27734375 C-4.80109375 35.84582031 -4.8990625 36.41429687 -5 37 C-5.66 37 -6.32 37 -7 37 C-7.54330269 30.34454208 -6.77304004 26.54165256 -3 21 C-2.34 21 -1.68 21 -1 21 C-0.67 14.07 -0.34 7.14 0 0 Z " fill="#B4B4B3" transform="translate(180,110)"/>
<path d="M0 0 C4.41389857 5.61768909 5.33880404 8.88511518 5 16 C4.67 16.99 4.34 17.98 4 19 C3.34 19 2.68 19 2 19 C0.14353999 16.21530998 -0.45157815 14.7318584 -1.125 11.5625 C-1.37636719 10.41974609 -1.37636719 10.41974609 -1.6328125 9.25390625 C-2.28588223 5.24516974 -2.28403792 3.42605688 0 0 Z " fill="#B9B9B8" transform="translate(60,55)"/>
<path d="M0 0 C0.66 0.33 1.32 0.66 2 1 C0.71034824 2.37562854 -0.62689293 3.70766393 -2 5 C-2.66 5 -3.32 5 -4 5 C-4 5.66 -4 6.32 -4 7 C-4.66 7 -5.32 7 -6 7 C-7.25664978 9.90600261 -8 11.79604584 -8 15 C-8.15260786 16.73046409 -8.32048005 18.45962045 -8.5 20.1875 C-8.5928125 21.08855469 -8.685625 21.98960938 -8.78125 22.91796875 C-8.8534375 23.60503906 -8.925625 24.29210937 -9 25 C-8.01 25 -7.02 25 -6 25 C-6.33 25.99 -6.66 26.98 -7 28 C-8.32 28 -9.64 28 -11 28 C-11 27.34 -11 26.68 -11 26 C-11.66 25.67 -12.32 25.34 -13 25 C-12.01 22.03 -11.02 19.06 -10 16 C-10.99 15.67 -11.98 15.34 -13 15 C-6.4150613 2.13835377 -6.4150613 2.13835377 0 0 Z " fill="#C9C9C7" transform="translate(43,33)"/>
<path d="M0 0 C0.33 0 0.66 0 1 0 C1.33 3.63 1.66 7.26 2 11 C-6.625 17 -6.625 17 -10 17 C-10.33 18.98 -10.66 20.96 -11 23 C-11.33 23 -11.66 23 -12 23 C-12 21.02 -12 19.04 -12 17 C-11.01 16.67 -10.02 16.34 -9 16 C-8.67 13.03 -8.34 10.06 -8 7 C-8.66 7 -9.32 7 -10 7 C-10.268125 7.598125 -10.53625 8.19625 -10.8125 8.8125 C-11.98493467 10.97224808 -13.19369282 12.35790256 -15 14 C-13.6062718 9.56541027 -11.39417765 7.12621626 -8 4 C-5.95301586 6.04698414 -6.29954307 10.30411241 -6 13 C-3.37574221 11.58917968 -3.37574221 11.58917968 -1 9 C-0.26848111 6.00695442 -0.07226313 3.07446787 0 0 Z " fill="#6A6969" transform="translate(83,185)"/>
<path d="M0 0 C0.13535156 0.90363281 0.27070313 1.80726562 0.41015625 2.73828125 C1.27640756 9.28114174 1.27640756 9.28114174 4.7578125 14.53125 C6.87040738 15.45358464 6.87040738 15.45358464 10 16 C7.49378383 16.92822821 6.1054629 17.0234362 3.46875 16.4375 C1 15 1 15 -0.14453125 11.9609375 C-0.36496094 10.77757812 -0.58539062 9.59421875 -0.8125 8.375 C-1.04582031 7.18648437 -1.27914063 5.99796875 -1.51953125 4.7734375 C-1.67808594 3.85820312 -1.83664063 2.94296875 -2 2 C-2.61520508 2.12640869 -3.23041016 2.25281738 -3.86425781 2.38305664 C-6.65776908 2.95182228 -9.45376554 3.50728438 -12.25 4.0625 C-13.21808594 4.26166016 -14.18617187 4.46082031 -15.18359375 4.66601562 C-16.11816406 4.84970703 -17.05273438 5.03339844 -18.015625 5.22265625 C-18.87446289 5.39547119 -19.73330078 5.56828613 -20.61816406 5.74633789 C-23.05209351 6.00554788 -24.68898463 5.75084609 -27 5 C-25.91460938 4.73445313 -24.82921875 4.46890625 -23.7109375 4.1953125 C-22.26559353 3.83866918 -20.82028278 3.4818912 -19.375 3.125 C-18.66214844 2.95097656 -17.94929688 2.77695312 -17.21484375 2.59765625 C-13.98586992 1.7978187 -10.91310622 0.96765268 -7.7890625 -0.1953125 C-4.73320584 -1.07697422 -3.01760468 -0.88753079 0 0 Z " fill="#6B3A3F" transform="translate(27,17)"/>
<path d="M0 0 C0.66 0 1.32 0 2 0 C3.32 2.64 4.64 5.28 6 8 C4.35 7.67 2.7 7.34 1 7 C0.55605869 14.29496251 0.55605869 14.29496251 3 21 C5.04105639 21.88693303 5.04105639 21.88693303 7 22 C6.05125 22.2475 5.1025 22.495 4.125 22.75 C0.55882089 23.77508516 0.55882089 23.77508516 -1 28 C-1.33 25.03 -1.66 22.06 -2 19 C-1.34 19 -0.68 19 0 19 C-0.33 18.05125 -0.66 17.1025 -1 16.125 C-2.31834321 11.5202155 -2.59087519 6.75306957 -2 2 C-1.34 1.34 -0.68 0.68 0 0 Z " fill="#9D9D9C" transform="translate(62,81)"/>
<path d="M0 0 C0 3.69418201 -1.28179295 5.77836178 -3 9 C-2.67 9.33 -2.34 9.66 -2 10 C-1.01 9.34 -0.02 8.68 1 8 C0.649375 8.680625 0.29875 9.36125 -0.0625 10.0625 C-1.26821256 13.84039935 -0.95862265 16.1655094 0 20 C1.92393551 22.8874873 1.92393551 22.8874873 4 25 C0.27715732 24.49691315 -1.57327341 23.88896023 -4 21 C-4.66 20.34 -5.32 19.68 -6 19 C-6.89280623 11.85755016 -4.62373801 7.09500852 -1 1 C-0.67 0.67 -0.34 0.34 0 0 Z " fill="#838383" transform="translate(10,99)"/>
<path d="M0 0 C0.66 0.33 1.32 0.66 2 1 C2 1.66 2 2.32 2 3 C3.32 3 4.64 3 6 3 C6 4.65 6 6.3 6 8 C7.32 7.67 8.64 7.34 10 7 C9.67 7.66 9.34 8.32 9 9 C7.741875 9.020625 6.48375 9.04125 5.1875 9.0625 C4.47980469 9.07410156 3.77210937 9.08570313 3.04296875 9.09765625 C1 9 1 9 -2 8 C-1.67 9.65 -1.34 11.3 -1 13 C-1.99 12.01 -2.98 11.02 -4 10 C-4 10.66 -4 11.32 -4 12 C-4.99 11.67 -5.98 11.34 -7 11 C-7 9.02 -7 7.04 -7 5 C-6.01 5 -5.02 5 -4 5 C-3.67 4.34 -3.34 3.68 -3 3 C-0.525 4.98 -0.525 4.98 2 7 C1.67 6.01 1.34 5.02 1 4 C0.65772583 2.66893378 0.32248257 1.33599921 0 0 Z " fill="#5C5B5B" transform="translate(15,130)"/>
<path d="M0 0 C-5.24882694 3.17692157 -10.01488629 3.65697965 -16 4 C-16 4.66 -16 5.32 -16 6 C-16.66 6 -17.32 6 -18 6 C-18 7.65 -18 9.3 -18 11 C-20.62002725 8.62949916 -22.35819909 6.12723983 -24 3 C-24 2.01 -24 1.02 -24 0 C-22.68 0 -21.36 0 -20 0 C-20 0.66 -20 1.32 -20 2 C-14.12322265 2.32648763 -9.66086767 1.49488425 -4.1015625 -0.44140625 C-2 -1 -2 -1 0 0 Z " fill="#8C8C8B" transform="translate(131,132)"/>
<path d="M0 0 C0.66 0 1.32 0 2 0 C2 3.3 2 6.6 2 10 C-4.875 13 -4.875 13 -6 13 C-6 9.7 -6 6.4 -6 3 C-5.01 4.32 -4.02 5.64 -3 7 C-2.01 4.69 -1.02 2.38 0 0 Z " fill="#3D3E3D" transform="translate(111,168)"/>
<path d="M0 0 C6.15234375 -0.09765625 6.15234375 -0.09765625 8 0 C9.58272601 1.58272601 9.34735747 3.38034003 9.5625 5.5625 C9.64628906 6.38878906 9.73007812 7.21507812 9.81640625 8.06640625 C9.87699219 8.70449219 9.93757813 9.34257812 10 10 C8.68 10.33 7.36 10.66 6 11 C6 9.35 6 7.7 6 6 C4.68 6 3.36 6 2 6 C0 3 0 3 0 0 Z " fill="#080808" transform="translate(15,127)"/>
<path d="M0 0 C4.53374775 0.54954518 8.47580953 2.0843682 12 5 C13.4375 8.25 13.4375 8.25 14 11 C10.51072308 10.68279301 8.44149146 10.33692769 5.625 8.1875 C4 6 4 6 4 2 C2.35 2 0.7 2 -1 2 C-0.67 1.34 -0.34 0.68 0 0 Z " fill="#5C5C5B" transform="translate(121,120)"/>
<path d="M0 0 C0.66 0 1.32 0 2 0 C2.13277344 0.96421875 2.26554687 1.9284375 2.40234375 2.921875 C2.57894531 4.18515625 2.75554688 5.4484375 2.9375 6.75 C3.19853516 8.62945312 3.19853516 8.62945312 3.46484375 10.546875 C3.86049338 13.09982593 4.30446422 15.5186291 5 18 C2.69 17.34 0.38 16.68 -2 16 C-1.67 13.36 -1.34 10.72 -1 8 C-1.66 7.67 -2.32 7.34 -3 7 C-2.34 6.34 -1.68 5.68 -1 5 C-0.35232207 2.42938689 -0.35232207 2.42938689 0 0 Z " fill="#D5D5D4" transform="translate(58,84)"/>
<path d="M0 0 C0 0.66 0 1.32 0 2 C-6.6800221 5.85167232 -12.26442661 7.81895467 -20 8 C-19.01 6.02 -18.02 4.04 -17 2 C-16.67 2.66 -16.34 3.32 -16 4 C-12.54659838 3.58888076 -10.00663602 3.00331801 -6.875 1.4375 C-4 0 -4 0 0 0 Z " fill="#080808" transform="translate(97,168)"/>
<path d="M0 0 C3.63 0 7.26 0 11 0 C11 1.98 11 3.96 11 6 C12.32 6 13.64 6 15 6 C15 7.65 15 9.3 15 11 C14.649375 10.54625 14.29875 10.0925 13.9375 9.625 C11.22903794 7.35338666 8.39204672 6.83201146 5 6 C5 5.34 5 4.68 5 4 C3.35 3.67 1.7 3.34 0 3 C0 2.01 0 1.02 0 0 Z " fill="#F9F9F8" transform="translate(78,83)"/>
<path d="M0 0 C0.66 0.33 1.32 0.66 2 1 C1.34 2.65 0.68 4.3 0 6 C-0.66 6 -1.32 6 -2 6 C-2 5.34 -2 4.68 -2 4 C-2.83144531 4.37253906 -3.66289063 4.74507812 -4.51953125 5.12890625 C-5.60621094 5.60199219 -6.69289063 6.07507813 -7.8125 6.5625 C-8.89144531 7.03816406 -9.97039062 7.51382813 -11.08203125 8.00390625 C-14 9 -14 9 -17 8 C-15.35 7.34 -13.7 6.68 -12 6 C-12 5.34 -12 4.68 -12 4 C-12.66 3.67 -13.32 3.34 -14 3 C-13.15695313 2.86722656 -12.31390625 2.73445312 -11.4453125 2.59765625 C-10.34960938 2.42105469 -9.25390625 2.24445313 -8.125 2.0625 C-7.03445312 1.88847656 -5.94390625 1.71445313 -4.8203125 1.53515625 C-2.06178454 1.14448841 -2.06178454 1.14448841 0 0 Z " fill="#414140" transform="translate(109,164)"/>
<path d="M0 0 C0.66 0.33 1.32 0.66 2 1 C2 3.31 2 5.62 2 8 C2.99 8 3.98 8 5 8 C4.34 9.98 3.68 11.96 3 14 C2.34 14 1.68 14 1 14 C0.34 15.32 -0.32 16.64 -1 18 C-1.66 17.67 -2.32 17.34 -3 17 C-2.67 14.69 -2.34 12.38 -2 10 C-1.01 10 -0.02 10 1 10 C0.67 9.34 0.34 8.68 0 8 C0.33 7.34 0.66 6.68 1 6 C-0.65 6 -2.3 6 -4 6 C-4 5.34 -4 4.68 -4 4 C-2.68 4 -1.36 4 0 4 C-0.33 3.01 -0.66 2.02 -1 1 C-0.67 0.67 -0.34 0.34 0 0 Z " fill="#161616" transform="translate(62,124)"/>
<path d="M0 0 C0.99 1.485 0.99 1.485 2 3 C4.55183404 4.20450304 4.55183404 4.20450304 7 5 C7 5.99 7 6.98 7 8 C5.68 8.33 4.36 8.66 3 9 C3.66 11.31 4.32 13.62 5 16 C1.125 14.25 1.125 14.25 0 12 C-0.07065617 9.95944995 -0.08421976 7.91665743 -0.0625 5.875 C-0.05347656 4.77929688 -0.04445312 3.68359375 -0.03515625 2.5546875 C-0.02355469 1.71164063 -0.01195312 0.86859375 0 0 Z " fill="#EDEDEC" transform="translate(62,85)"/>
<path d="M0 0 C0.99 0.33 1.98 0.66 3 1 C3.144375 2.11375 3.28875 3.2275 3.4375 4.375 C3.78372035 7.82142047 3.78372035 7.82142047 5 10 C4.34 10 3.68 10 3 10 C3.14148989 11.6045556 3.28835686 13.20863767 3.4375 14.8125 C3.51871094 15.70582031 3.59992187 16.59914062 3.68359375 17.51953125 C3.93489767 20.12743559 3.93489767 20.12743559 5 23 C4.01 23 3.02 23 2 23 C1.49685437 20.22970414 0.99736162 17.4588348 0.5 14.6875 C0.35691406 13.90181641 0.21382812 13.11613281 0.06640625 12.30664062 C-0.06894531 11.54931641 -0.20429687 10.79199219 -0.34375 10.01171875 C-0.46943359 9.31522217 -0.59511719 8.61872559 -0.72460938 7.90112305 C-1.16324459 4.87306241 -0.97438828 2.92316483 0 0 Z " fill="#616160" transform="translate(46,197)"/>
<path d="M0 0 C0.66 0.33 1.32 0.66 2 1 C2 1.99 2 2.98 2 4 C4.6855594 6.6855594 7.37621328 7.06049974 11 8 C11.99 11.96 12.98 15.92 14 20 C11.5625 18.4375 11.5625 18.4375 9 16 C8.1875 12.25 8.1875 12.25 8 9 C7.29875 8.938125 6.5975 8.87625 5.875 8.8125 C1.91084133 7.69219429 -0.02216113 5.83933474 -3 3 C-3 2.34 -3 1.68 -3 1 C-2.01 0.67 -1.02 0.34 0 0 Z " fill="#535353" transform="translate(28,59)"/>
<path d="M0 0 C2 2 2 2 2.125 5.625 C2.08375 6.73875 2.0425 7.8525 2 9 C1.34 9 0.68 9 0 9 C-0.12117188 9.96421875 -0.24234375 10.9284375 -0.3671875 11.921875 C-0.53476563 13.18515625 -0.70234375 14.4484375 -0.875 15.75 C-1.11863281 17.62945312 -1.11863281 17.62945312 -1.3671875 19.546875 C-1.9058355 22.48616408 -2.48008841 24.47107147 -4 27 C-2.63009404 2.63009404 -2.63009404 2.63009404 0 0 Z " fill="#ADAEAD" transform="translate(94,41)"/>
<path d="M0 0 C0.66 0 1.32 0 2 0 C1.34 2.97 0.68 5.94 0 9 C-4.46417136 10.11604284 -4.3359229 9.93980552 -8 8 C-9.99110401 7.61709538 -11.99100513 7.27395385 -14 7 C-14.66 8.65 -15.32 10.3 -16 12 C-16.33 11.34 -16.66 10.68 -17 10 C-16.06553465 7.96855359 -15.06775224 5.96466413 -14 4 C-9.49933525 5.06795435 -5.2505466 6.14038586 -1 8 C-1.020625 7.05125 -1.04125 6.1025 -1.0625 5.125 C-1 2 -1 2 0 0 Z " fill="#545453" transform="translate(171,143)"/>
<path d="M0 0 C1.3499491 0.63234458 2.68812123 1.2920478 4 2 C3.34773438 2.08636719 2.69546875 2.17273438 2.0234375 2.26171875 C-4.14617438 3.25358851 -7.57066275 4.57066275 -12 9 C-12.66 8.67 -13.32 8.34 -14 8 C-11.25 4.125 -11.25 4.125 -9 3 C-9 2.01 -9 1.02 -9 0 C-5.88094953 -1.55952523 -3.35318513 -0.6359489 0 0 Z " fill="#929291" transform="translate(89,136)"/>
<path d="M0 0 C1.4552777 2.9105554 0.63516661 4.95849052 0.0625 8.125 C-0.13214844 9.22070312 -0.32679687 10.31640625 -0.52734375 11.4453125 C-0.68332031 12.28835937 -0.83929688 13.13140625 -1 14 C-0.34 14 0.32 14 1 14 C1.66 12.68 2.32 11.36 3 10 C4.26467795 12.52935589 3.7249339 13.34190903 3 16 C3 16.99 3 17.98 3 19 C2.01 19 1.02 19 0 19 C-2.07128547 15.58895449 -2.26961411 12.89464724 -2.25 8.9375 C-2.25515625 7.89464844 -2.2603125 6.85179687 -2.265625 5.77734375 C-2 3 -2 3 0 0 Z " fill="#C2C2C1" transform="translate(57,125)"/>
<path d="M0 0 C0.60328125 0.42152344 1.2065625 0.84304687 1.828125 1.27734375 C3.02695313 2.09912109 3.02695313 2.09912109 4.25 2.9375 C5.03890625 3.48277344 5.8278125 4.02804688 6.640625 4.58984375 C8.82636993 5.89622441 10.5153801 6.54980511 13 7 C13 7.66 13 8.32 13 9 C10.40321849 8.56720308 8.30814759 8.17333302 6 6.875 C3.98546501 5.74504626 3.98546501 5.74504626 1.6875 6.625 C-2.45302096 7.20274711 -4.54867249 5.23321192 -8 3 C-6 2 -6 2 -4.0546875 2.55859375 C-3.33539063 2.84863281 -2.61609375 3.13867188 -1.875 3.4375 C-1.15054688 3.72496094 -0.42609375 4.01242188 0.3203125 4.30859375 C0.87460938 4.53675781 1.42890625 4.76492187 2 5 C1.34 3.35 0.68 1.7 0 0 Z " fill="#626161" transform="translate(110,118)"/>
<path d="M0 0 C1.75 0.125 1.75 0.125 4 1 C7.79106154 5.98253803 9.1353724 9.49334596 9.0625 15.6875 C9.05347656 16.68136719 9.04445313 17.67523438 9.03515625 18.69921875 C9.02355469 19.45847656 9.01195312 20.21773437 9 21 C6.10296933 18.10296933 6.62240307 15.37457047 6.44140625 11.41015625 C5.93378808 8.63847121 5.15620671 7.74221502 3 6 C3.66 6 4.32 6 5 6 C3.35 4.02 1.7 2.04 0 0 Z " fill="#4E4E4D" transform="translate(32,87)"/>
<path d="M0 0 C0.66 0 1.32 0 2 0 C2 0.66 2 1.32 2 2 C1.34 2 0.68 2 0 2 C0.23976563 2.84304687 0.47953125 3.68609375 0.7265625 4.5546875 C1.02304687 5.65039062 1.31953125 6.74609375 1.625 7.875 C1.92664062 8.96554688 2.22828125 10.05609375 2.5390625 11.1796875 C2.69117188 12.11039063 2.84328125 13.04109375 3 14 C2.34 14.66 1.68 15.32 1 16 C1 14.35 1 12.7 1 11 C0.34 11 -0.32 11 -1 11 C-1.33 13.64 -1.66 16.28 -2 19 C-2.66 19 -3.32 19 -4 19 C-3.86722656 18.45472656 -3.73445313 17.90945312 -3.59765625 17.34765625 C-2.45838027 12.48286465 -1.66968811 7.72939497 -1.24609375 2.75 C-1 1 -1 1 0 0 Z " fill="#5B5B5A" transform="translate(47,89)"/>
<path d="M0 0 C2.99420338 2.75119557 4.68858602 5.81572686 6.62109375 9.35546875 C7.07613281 9.89816406 7.53117188 10.44085938 8 11 C12.1490712 11.2981424 12.1490712 11.2981424 16 9 C14.02 11.31 12.04 13.62 10 16 C5.96374924 14.65458308 5.14552047 12.14052535 3.3125 8.5625 C2.99216797 7.96373047 2.67183594 7.36496094 2.34179688 6.74804688 C0 2.28914579 0 2.28914579 0 0 Z " fill="#5F3035" transform="translate(1,41)"/>
<path d="M0 0 C0.66 0.33 1.32 0.66 2 1 C1.33333333 5 0.66666667 9 0 13 C-0.66 12.34 -1.32 11.68 -2 11 C-2.99 11.33 -3.98 11.66 -5 12 C-5 12.66 -5 13.32 -5 14 C-5.66 14 -6.32 14 -7 14 C-7.33 14.99 -7.66 15.98 -8 17 C-8.33 16.34 -8.66 15.68 -9 15 C-8.67 14.34 -8.34 13.68 -8 13 C-7.34 13 -6.68 13 -6 13 C-5.67 11.35 -5.34 9.7 -5 8 C-4.01 8 -3.02 8 -2 8 C-1.34 5.36 -0.68 2.72 0 0 Z " fill="#383837" transform="translate(56,61)"/>
<path d="M0 0 C1.01936725 3.05810176 1.00186825 4.49801207 0.625 7.625 C0.53476563 8.42164063 0.44453125 9.21828125 0.3515625 10.0390625 C0 12 0 12 -1 13 C-2.84891946 13.23363881 -4.70488031 13.41303635 -6.5625 13.5625 C-8.08037109 13.68818359 -8.08037109 13.68818359 -9.62890625 13.81640625 C-10.41136719 13.87699219 -11.19382812 13.93757812 -12 14 C-9.3144406 11.3144406 -6.62378672 10.93950026 -3 10 C-2.86722656 9.36191406 -2.73445313 8.72382813 -2.59765625 8.06640625 C-2.42105469 7.24011719 -2.24445313 6.41382813 -2.0625 5.5625 C-1.88847656 4.73878906 -1.71445313 3.91507812 -1.53515625 3.06640625 C-1 1 -1 1 0 0 Z " fill="#8B8B8A" transform="translate(89,0)"/>
<path d="M0 0 C2.875 0.3125 2.875 0.3125 6 1 C6.66 1.99 7.32 2.98 8 4 C6.6875 6.5 6.6875 6.5 5 9 C4.01 9 3.02 9 2 9 C1.855625 7.88625 1.71125 6.7725 1.5625 5.625 C1.21627965 2.17857953 1.21627965 2.17857953 0 0 Z " fill="#DDDDDC" transform="translate(62,123)"/>
<path d="M0 0 C3.12308506 0.60803426 5.19251662 1.62014042 7.75 3.5 C8.36359375 3.9434375 8.9771875 4.386875 9.609375 4.84375 C10.29773438 5.41609375 10.29773438 5.41609375 11 6 C11 6.33 11 6.66 11 7 C4.65625 7.48798077 4.65625 7.48798077 1.5625 5.1875 C0 3 0 3 0 0 Z " fill="#3B3B3B" transform="translate(80,109)"/>
<path d="M0 0 C3 1 3 1 4.6875 4.375 C6 8 6 8 6 11 C2.52837986 9.84279329 1.86843073 9.0574321 0 6 C-0.75 3.3125 -0.75 3.3125 -1 1 C-0.67 0.67 -0.34 0.34 0 0 Z " fill="#7B7A7A" transform="translate(53,103)"/>
<path d="M0 0 C0 3 0 3 -1.5 5.5625 C-3.49402669 10.13214451 -3.262018 14.08958862 -3 19 C-3.99 19 -4.98 19 -6 19 C-6.66677162 11.79886654 -4.66563017 7.16546977 -1 1 C-0.67 0.67 -0.34 0.34 0 0 Z " fill="#A4A4A3" transform="translate(10,99)"/>
<path d="M0 0 C1.32 1.65 2.64 3.3 4 5 C4.66 4.34 5.32 3.68 6 3 C7.125 6.75 7.125 6.75 6 9 C3.525 8.01 3.525 8.01 1 7 C0.67 7.66 0.34 8.32 0 9 C-1.65 7.35 -3.3 5.7 -5 4 C-3.68 4.33 -2.36 4.66 -1 5 C-0.67 3.35 -0.34 1.7 0 0 Z " fill="#7D7D7D" transform="translate(87,102)"/>
<path d="M0 0 C0.33 0 0.66 0 1 0 C1 1.65 1 3.3 1 5 C1.61488281 5.10957031 2.22976562 5.21914062 2.86328125 5.33203125 C3.67152344 5.49058594 4.47976562 5.64914063 5.3125 5.8125 C6.11300781 5.96332031 6.91351563 6.11414063 7.73828125 6.26953125 C10.23445587 7.07572236 11.32422106 8.02052002 13 10 C11.02 10 9.04 10 7 10 C7 9.34 7 8.68 7 8 C5.865625 7.855625 4.73125 7.71125 3.5625 7.5625 C0 7 0 7 -1 6 C-1.125 3.5 -1.125 3.5 -1 1 C-0.67 0.67 -0.34 0.34 0 0 Z " fill="#462427" transform="translate(137,81)"/>
<path d="M0 0 C0.66 0.33 1.32 0.66 2 1 C0.6998749 4.90037529 -1.24377072 6.07500029 -4.4375 8.625 C-5.42621094 9.42164063 -6.41492188 10.21828125 -7.43359375 11.0390625 C-10 13 -10 13 -12 14 C-10.41332422 10.09714233 -7.86649519 7.66479018 -4.875 4.75 C-3.96492188 3.85796875 -3.05484375 2.9659375 -2.1171875 2.046875 C-1.41851562 1.37140625 -0.71984375 0.6959375 0 0 Z " fill="#AAAAA9" transform="translate(73,41)"/>
<path d="M0 0 C0.53625 0.2475 1.0725 0.495 1.625 0.75 C-1.55983911 3.38886669 -4.6648821 5.89494105 -8.375 7.75 C-9.365 7.42 -10.355 7.09 -11.375 6.75 C-8.40130096 3.44588996 -4.65750725 -0.49026392 0 0 Z " fill="#343433" transform="translate(95.375,187.25)"/>
<path d="M0 0 C1.3805087 3.76668598 0.59568159 6.44789173 -0.4375 10.25 C-0.72496094 11.32765625 -1.01242188 12.4053125 -1.30859375 13.515625 C-1.53675781 14.33546875 -1.76492187 15.1553125 -2 16 C-2.66 16 -3.32 16 -4 16 C-4.54330269 9.34454208 -3.77304004 5.54165256 0 0 Z " fill="#505050" transform="translate(177,131)"/>
<path d="M0 0 C0.33 0.66 0.66 1.32 1 2 C1.99 2 2.98 2 4 2 C4.2475 2.721875 4.495 3.44375 4.75 4.1875 C6.66624133 8.49904299 9.60110924 11.77105378 13 15 C10 15 10 15 8.5 13.57421875 C8.005 12.95160156 7.51 12.32898438 7 11.6875 C5.50732579 9.83331875 4.08239672 8.07828667 2.35546875 6.4375 C0.49789358 4.46750674 0.35557272 2.63123812 0 0 Z " fill="#393939" transform="translate(49,103)"/>
<path d="M0 0 C3.01614813 1.1170919 4.64508669 2.6125776 6.625 5.0625 C8.67119397 8.00824713 8.67119397 8.00824713 11 9 C11 9.66 11 10.32 11 11 C9.35 10.67 7.7 10.34 6 10 C5.67 8.35 5.34 6.7 5 5 C3.35 4.67 1.7 4.34 0 4 C0 2.68 0 1.36 0 0 Z " fill="#1A1A1A" transform="translate(92,109)"/>
<path d="M0 0 C0.33 0 0.66 0 1 0 C1.06058594 0.62648438 1.12117188 1.25296875 1.18359375 1.8984375 C1.26738281 2.71570313 1.35117187 3.53296875 1.4375 4.375 C1.55931641 5.59316406 1.55931641 5.59316406 1.68359375 6.8359375 C1.89090114 9.04272805 1.89090114 9.04272805 3 11 C2.39421747 13.01927511 1.73080266 15.02253397 1 17 C-1.30672095 13.53991858 -1.48134006 11.07518521 -2 7 C-2.33 6.34 -2.66 5.68 -3 5 C-2.34 4.67 -1.68 4.34 -1 4 C-0.34786708 1.97536745 -0.34786708 1.97536745 0 0 Z " fill="#252525" transform="translate(45,74)"/>
<path d="M0 0 C0.99 0.495 0.99 0.495 2 1 C2 1.66 2 2.32 2 3 C3.32 3 4.64 3 6 3 C6 4.65 6 6.3 6 8 C7.32 7.67 8.64 7.34 10 7 C9.67 7.66 9.34 8.32 9 9 C6.36 9 3.72 9 1 9 C0.67 8.34 0.34 7.68 0 7 C0.99 7 1.98 7 3 7 C2.505 6.21625 2.01 5.4325 1.5 4.625 C0 2 0 2 0 0 Z " fill="#80807F" transform="translate(15,130)"/>
<path d="M0 0 C0.99 0.33 1.98 0.66 3 1 C-0.15221101 5.41309542 -3.55463907 8.00793014 -8 11 C-8.33 10.01 -8.66 9.02 -9 8 C-8.43410156 7.59007812 -7.86820313 7.18015625 -7.28515625 6.7578125 C-6.18494141 5.94957031 -6.18494141 5.94957031 -5.0625 5.125 C-4.33160156 4.59132812 -3.60070312 4.05765625 -2.84765625 3.5078125 C-0.88901765 2.11987896 -0.88901765 2.11987896 0 0 Z " fill="#7C7B7A" transform="translate(139,181)"/>
<path d="M0 0 C1.9451 2.91765 2.45276317 4.62537285 3 8 C4.32 7.67 5.64 7.34 7 7 C7 8.32 7 9.64 7 11 C5.35 11.33 3.7 11.66 2 12 C0.70756464 7.8803623 -0.26252625 4.33168317 0 0 Z " fill="#A1A1A0" transform="translate(124,178)"/>
<path d="M0 0 C1.32 0.66 2.64 1.32 4 2 C4 2.66 4 3.32 4 4 C3.071875 4.020625 2.14375 4.04125 1.1875 4.0625 C-2.00696214 4.62844359 -2.00696214 4.62844359 -3.06640625 6.625 C-3.79974771 8.38218533 -4.40775925 10.19037549 -5 12 C-5.66 11.01 -6.32 10.02 -7 9 C-6.67 8.01 -6.34 7.02 -6 6 C-5.34 6 -4.68 6 -4 6 C-3.71125 5.38125 -3.4225 4.7625 -3.125 4.125 C-2 2 -2 2 0 0 Z " fill="#868685" transform="translate(18,90)"/>
<path d="M0 0 C0.66 0 1.32 0 2 0 C3.32 2.64 4.64 5.28 6 8 C4.35 7.67 2.7 7.34 1 7 C1 5.68 1 4.36 1 3 C0.34 3 -0.32 3 -1 3 C-1 5.31 -1 7.62 -1 10 C-1.33 10 -1.66 10 -2 10 C-2.1953125 3.9453125 -2.1953125 3.9453125 -2 2 C-1.34 1.34 -0.68 0.68 0 0 Z " fill="#434443" transform="translate(62,81)"/>
<path d="M0 0 C0 0.66 0 1.32 0 2 C-2.5 3.5 -2.5 3.5 -5 5 C-6.7041054 6.62836738 -8.38025441 8.28769752 -10 10 C-10 9.01 -10 8.02 -10 7 C-10.66 6.67 -11.32 6.34 -12 6 C-10.68 5.67 -9.36 5.34 -8 5 C-8 4.34 -8 3.68 -8 3 C-2.25 0 -2.25 0 0 0 Z " fill="#454545" transform="translate(80,137)"/>
<path d="M0 0 C0.99 0.33 1.98 0.66 3 1 C2.01 1.495 2.01 1.495 1 2 C1 5.3 1 8.6 1 12 C-3.455 13.485 -3.455 13.485 -8 15 C-7.67 14.01 -7.34 13.02 -7 12 C-3.9375 10.8125 -3.9375 10.8125 -1 10 C-0.67 6.7 -0.34 3.4 0 0 Z " fill="#A3A3A3" transform="translate(113,168)"/>
<path d="M0 0 C0.99 0.33 1.98 0.66 3 1 C2.34 1 1.68 1 1 1 C0.60167969 1.84304687 0.60167969 1.84304687 0.1953125 2.703125 C-1.09331034 5.17930222 -2.56130361 7.43844882 -4.125 9.75 C-4.93324219 10.94882812 -4.93324219 10.94882812 -5.7578125 12.171875 C-6.16773437 12.77515625 -6.57765625 13.3784375 -7 14 C-7.33 13.01 -7.66 12.02 -8 11 C-6.34765625 8.30078125 -6.34765625 8.30078125 -4.0625 5.3125 C-3.31097656 4.31863281 -2.55945312 3.32476562 -1.78515625 2.30078125 C-1.19605469 1.54152344 -0.60695313 0.78226563 0 0 Z " fill="#392124" transform="translate(37,34)"/>
<path d="M0 0 C0.66 0.33 1.32 0.66 2 1 C-0.64 4.3 -3.28 7.6 -6 11 C-6.33 9.68 -6.66 8.36 -7 7 C-6.34 6.01 -5.68 5.02 -5 4 C-4.34 4 -3.68 4 -3 4 C-2.67 3.01 -2.34 2.02 -2 1 C-1.34 0.67 -0.68 0.34 0 0 Z " fill="#C7C7C6" transform="translate(77,140)"/>
<path d="M0 0 C0.82810826 3.31243305 1.09278428 5.65976579 1 9 C1.99 9 2.98 9 4 9 C3.67 9.99 3.34 10.98 3 12 C1.68 12 0.36 12 -1 12 C-1 11.34 -1 10.68 -1 10 C-1.66 9.67 -2.32 9.34 -3 9 C-2.01 6.03 -1.02 3.06 0 0 Z " fill="#565655" transform="translate(33,49)"/>
<path d="M0 0 C1.21816406 0.03480469 1.21816406 0.03480469 2.4609375 0.0703125 C3.68683594 0.09738281 3.68683594 0.09738281 4.9375 0.125 C5.87722656 0.15980469 5.87722656 0.15980469 6.8359375 0.1953125 C6.8359375 0.8553125 6.8359375 1.5153125 6.8359375 2.1953125 C6.1759375 2.1953125 5.5159375 2.1953125 4.8359375 2.1953125 C4.5059375 2.8553125 4.1759375 3.5153125 3.8359375 4.1953125 C1.1959375 3.5353125 -1.4440625 2.8753125 -4.1640625 2.1953125 C-2.1640625 0.1953125 -2.1640625 0.1953125 0 0 Z " fill="#F9F9F8" transform="translate(77.1640625,89.8046875)"/>
<path d="M0 0 C2.29633824 3.44450737 2.54016485 5.93812283 3 10 C2.566875 9.360625 2.13375 8.72125 1.6875 8.0625 C0.08760823 5.73253997 0.08760823 5.73253997 -3 5 C-3 4.01 -3 3.02 -3 2 C-2.01 1.34 -1.02 0.68 0 0 Z " fill="#070707" transform="translate(54,71)"/>
<path d="M0 0 C0.33 0 0.66 0 1 0 C1.33 3.63 1.66 7.26 2 11 C0.02 11.99 -1.96 12.98 -4 14 C-4 13.01 -4 12.02 -4 11 C-3.01 10.34 -2.02 9.68 -1 9 C-0.42006301 6.80545319 -0.42006301 6.80545319 -0.3125 4.375 C-0.24675781 3.55773437 -0.18101563 2.74046875 -0.11328125 1.8984375 C-0.07589844 1.27195313 -0.03851563 0.64546875 0 0 Z " fill="#5F5F5F" transform="translate(83,185)"/>
<path d="M0 0 C3.2542015 2.83430453 4.5206753 4.68607774 5 9 C3.35 9.33 1.7 9.66 0 10 C0 6.7 0 3.4 0 0 Z " fill="#555555" transform="translate(105,171)"/>
<path d="M0 0 C1.98 0.66 3.96 1.32 6 2 C6 2.99 6 3.98 6 5 C7.65 5.33 9.3 5.66 11 6 C9.02 6.99 9.02 6.99 7 8 C5.5 6.625 5.5 6.625 4 5 C4 4.34 4 3.68 4 3 C2.35 2.67 0.7 2.34 -1 2 C-0.67 1.34 -0.34 0.68 0 0 Z " fill="#474747" transform="translate(76,165)"/>
<path d="M0 0 C0.66 0 1.32 0 2 0 C2.33 1.98 2.66 3.96 3 6 C3.66 5.34 4.32 4.68 5 4 C5.66 4.33 6.32 4.66 7 5 C7 5.99 7 6.98 7 8 C5.35 8.66 3.7 9.32 2 10 C0.41727399 8.41727399 0.65264253 6.61965997 0.4375 4.4375 C0.35371094 3.61121094 0.26992188 2.78492188 0.18359375 1.93359375 C0.12300781 1.29550781 0.06242187 0.65742187 0 0 Z " fill="#767675" transform="translate(23,127)"/>
<path d="M0 0 C3.00617269 3.00617269 2.59585316 5.82381598 3 10 C2.01 10 1.02 10 0 10 C-1.125 3.375 -1.125 3.375 0 0 Z " fill="#9E9E9D" transform="translate(52,80)"/>
<path d="M0 0 C0.33 0.66 0.66 1.32 1 2 C4.465 1.505 4.465 1.505 8 1 C3.25 5 3.25 5 1 5 C1 4.34 1 3.68 1 3 C-1.31 2.67 -3.62 2.34 -6 2 C-6 1.67 -6 1.34 -6 1 C-4.02 0.67 -2.04 0.34 0 0 Z " fill="#431C21" transform="translate(180,80)"/>
<path d="M0 0 C1.65 0.33 3.3 0.66 5 1 C3.6875 3 3.6875 3 2 5 C1.01 5 0.02 5 -1 5 C-1.33 6.98 -1.66 8.96 -2 11 C-2.33 11 -2.66 11 -3 11 C-3 9.02 -3 7.04 -3 5 C-2.01 4.67 -1.02 4.34 0 4 C0 2.68 0 1.36 0 0 Z " fill="#9D9D9C" transform="translate(74,197)"/>
<path d="M0 0 C0.68707555 2.49064888 1 4.37886292 1 7 C-0.98 7 -2.96 7 -5 7 C-5.33 5.68 -5.66 4.36 -6 3 C-5.195625 2.87625 -4.39125 2.7525 -3.5625 2.625 C-2.716875 2.41875 -1.87125 2.2125 -1 2 C-0.67 1.34 -0.34 0.68 0 0 Z " fill="#898988" transform="translate(101,181)"/>
<path d="M0 0 C1.65 0.99 3.3 1.98 5 3 C4.34 5.64 3.68 8.28 3 11 C3.66 11.33 4.32 11.66 5 12 C3.68 11.67 2.36 11.34 1 11 C1.66 8.69 2.32 6.38 3 4 C1.68 3.34 0.36 2.68 -1 2 C-0.67 1.34 -0.34 0.68 0 0 Z " fill="#969695" transform="translate(95,119)"/>
<path d="M0 0 C0.66 0 1.32 0 2 0 C3.625 2 3.625 2 5 4 C0.6981924 4.95595724 -2.72369155 5.42543615 -7 4 C-4 2 -4 2 0 2 C0 1.34 0 0.68 0 0 Z " fill="#787777" transform="translate(60,119)"/>
<path d="M0 0 C0 3 0 3 -1.53125 4.60546875 C-2.1809375 5.12753906 -2.830625 5.64960938 -3.5 6.1875 C-4.1496875 6.71730469 -4.799375 7.24710938 -5.46875 7.79296875 C-5.9740625 8.19128906 -6.479375 8.58960938 -7 9 C-7.66 8.67 -8.32 8.34 -9 8 C-3.85714286 1.42857143 -3.85714286 1.42857143 0 0 Z " fill="#818180" transform="translate(151,173)"/>
<path d="M0 0 C0.66 0 1.32 0 2 0 C2.33 2.97 2.66 5.94 3 9 C2.01 9.33 1.02 9.66 0 10 C0 6.7 0 3.4 0 0 Z " fill="#373737" transform="translate(114,170)"/>
<path d="M0 0 C0.66 0.33 1.32 0.66 2 1 C2 3.64 2 6.28 2 9 C1.34 8.67 0.68 8.34 0 8 C0.33 7.34 0.66 6.68 1 6 C-0.65 6 -2.3 6 -4 6 C-4 5.34 -4 4.68 -4 4 C-2.68 4 -1.36 4 0 4 C-0.33 3.01 -0.66 2.02 -1 1 C-0.67 0.67 -0.34 0.34 0 0 Z " fill="#404040" transform="translate(62,124)"/>
<path d="M0 0 C2.475 0.99 2.475 0.99 5 2 C5 3.32 5 4.64 5 6 C3.68 6 2.36 6 1 6 C0.67 6.66 0.34 7.32 0 8 C0.33 6.02 0.66 4.04 1 2 C0.34 1.67 -0.32 1.34 -1 1 C-0.67 0.67 -0.34 0.34 0 0 Z " fill="#171717" transform="translate(57,122)"/>
<path d="M0 0 C3.95820859 0.56545837 6.6659053 1.80902348 10 4 C7.2780754 5.3609623 5.8168043 4.70366248 2.875 4.0625 C1.96492187 3.86785156 1.05484375 3.67320313 0.1171875 3.47265625 C-0.58148438 3.31667969 -1.28015625 3.16070312 -2 3 C-1.34 2.01 -0.68 1.02 0 0 Z " fill="#836063" transform="translate(148,89)"/>
<path d="M0 0 C0 0.66 0 1.32 0 2 C1.32 2 2.64 2 4 2 C4 3.65 4 5.3 4 7 C3.649375 6.54625 3.29875 6.0925 2.9375 5.625 C0.22903794 3.35338666 -2.60795328 2.83201146 -6 2 C-2.25 0 -2.25 0 0 0 Z " fill="#C5C5C3" transform="translate(89,87)"/>
<path d="M0 0 C1.65 0 3.3 0 5 0 C5.33 1.98 5.66 3.96 6 6 C2.535 4.02 2.535 4.02 -1 2 C-0.67 1.34 -0.34 0.68 0 0 Z " fill="#E9E9E8" transform="translate(101,133)"/>
<path d="M0 0 C-0.66 1.32 -1.32 2.64 -2 4 C-2.66 4 -3.32 4 -4 4 C-4.33 3.34 -4.66 2.68 -5 2 C-7.99332739 2.9977758 -8.94766315 3.7522025 -11 6 C-10.1875 3.5625 -10.1875 3.5625 -9 1 C-5.8035914 -0.06546953 -3.34252724 -0.07427838 0 0 Z " fill="#4C4B4B" transform="translate(53,115)"/>
<path d="M0 0 C0.66 0 1.32 0 2 0 C2.69699552 1.45381897 3.38233866 2.91322953 4.0625 4.375 C4.63677734 5.59316406 4.63677734 5.59316406 5.22265625 6.8359375 C5.47917969 7.55007812 5.73570313 8.26421875 6 9 C5.67 9.66 5.34 10.32 5 11 C1.87729874 8.48169253 1.05476902 7.2738451 0.25 3.25 C0.1675 2.1775 0.085 1.105 0 0 Z " fill="#434343" transform="translate(36,68)"/>
<path d="M0 0 C0.99 0.33 1.98 0.66 3 1 C3 2.65 3 4.3 3 6 C2.01 6.495 2.01 6.495 1 7 C0.01 6.01 -0.98 5.02 -2 4 C-1.34 2.68 -0.68 1.36 0 0 Z " fill="#9B9B9A" transform="translate(46,197)"/>
<path d="M0 0 C1.26467795 2.52935589 0.7249339 3.34190903 0 6 C0 6.99 0 7.98 0 9 C-0.99 9 -1.98 9 -3 9 C-2.25 2.25 -2.25 2.25 0 0 Z " fill="#8F8F8E" transform="translate(60,135)"/>
<path d="M0 0 C2.79872437 2.52788007 4.45773019 4.20411134 5 8 C3.35 7.67 1.7 7.34 0 7 C0 4.69 0 2.38 0 0 Z " fill="#3F1F23" transform="translate(185,118)"/>
<path d="M0 0 C0.33 0 0.66 0 1 0 C1.25 2.8125 1.25 2.8125 1 6 C-1 7.875 -1 7.875 -3 9 C-3 6.37886292 -2.68707555 4.49064888 -2 2 C-1.34 2 -0.68 2 0 2 C0 1.34 0 0.68 0 0 Z " fill="#0A0A0A" transform="translate(57,83)"/>
<path d="M0 0 C2 2 2 2 2.125 5.125 C2.08375 6.07375 2.0425 7.0225 2 8 C1.01 8 0.02 8 -1 8 C-1.04241723 5.66705225 -1.04092937 3.33297433 -1 1 C-0.67 0.67 -0.34 0.34 0 0 Z " fill="#535353" transform="translate(94,41)"/>
<path d="M0 0 C2.97 0.495 2.97 0.495 6 1 C6 2.32 6 3.64 6 5 C5.01 5.33 4.02 5.66 3 6 C2.67 5.01 2.34 4.02 2 3 C1.34 2.67 0.68 2.34 0 2 C0 1.34 0 0.68 0 0 Z " fill="#2D2D2D" transform="translate(39,109)"/>
<path d="M0 0 C1.98 0.66 3.96 1.32 6 2 C5.34 4.64 4.68 7.28 4 10 C1.81024227 6.71536341 1.00193437 3.79303725 0 0 Z " fill="#525252" transform="translate(83,92)"/>
<path d="M0 0 C0.66 0.33 1.32 0.66 2 1 C1.33333333 5 0.66666667 9 0 13 C-1.44977894 10.65887549 -2.04314411 9.4203071 -1.7578125 6.640625 C-1.54898438 5.85171875 -1.34015625 5.0628125 -1.125 4.25 C-0.92132813 3.45078125 -0.71765625 2.6515625 -0.5078125 1.828125 C-0.34023438 1.22484375 -0.17265625 0.6215625 0 0 Z " fill="#484848" transform="translate(56,61)"/>
<path d="M0 0 C0.66 0.33 1.32 0.66 2 1 C2.33333333 3 2.66666667 5 3 7 C3.66 7.33 4.32 7.66 5 8 C4.01 8.66 3.02 9.32 2 10 C0 7 0 7 0.375 4.8125 C0.58125 4.214375 0.7875 3.61625 1 3 C0.34 3 -0.32 3 -1 3 C-0.67 2.01 -0.34 1.02 0 0 Z " fill="#474848" transform="translate(74,181)"/>
<path d="M0 0 C2.0245738 1.93254772 3.42105792 3.63158688 5 6 C4.67 6.66 4.34 7.32 4 8 C3.01 8 2.02 8 1 8 C0.67 5.36 0.34 2.72 0 0 Z " fill="#444443" transform="translate(54,76)"/>
<path d="M0 0 C0.66 0.33 1.32 0.66 2 1 C2 1.99 2 2.98 2 4 C1.34 4 0.68 4 0 4 C-0.33 6.31 -0.66 8.62 -1 11 C-1.33 11 -1.66 11 -2 11 C-2.28571429 3.57142857 -2.28571429 3.57142857 0 0 Z " fill="#C9C9C7" transform="translate(48,70)"/>
<path d="M0 0 C-0.33 1.65 -0.66 3.3 -1 5 C-1.33 4.01 -1.66 3.02 -2 2 C-2.5775 2.350625 -3.155 2.70125 -3.75 3.0625 C-6.35801776 4.14917407 -7.39417629 3.93065133 -10 3 C-3.375 0 -3.375 0 0 0 Z " fill="#656564" transform="translate(93,32)"/>
<path d="M0 0 C0.66 0 1.32 0 2 0 C5 5.625 5 5.625 5 9 C4.34 9 3.68 9 3 9 C2.01 6.03 1.02 3.06 0 0 Z " fill="#B1B1B0" transform="translate(51,208)"/>
<path d="M0 0 C0.33 0 0.66 0 1 0 C1 2.97 1 5.94 1 9 C0.01 9 -0.98 9 -2 9 C-1.41196203 5.97580475 -0.77321882 2.98241547 0 0 Z " fill="#050505" transform="translate(111,170)"/>
<path d="M0 0 C0 0.66 0 1.32 0 2 C-1.98 2.99 -3.96 3.98 -6 5 C-6 3.68 -6 2.36 -6 1 C-4 0 -4 0 0 0 Z " fill="#131313" transform="translate(97,168)"/>
<path d="M0 0 C2.97 0.495 2.97 0.495 6 1 C2.25 3 2.25 3 0 3 C-0.66 4.65 -1.32 6.3 -2 8 C-2.33 7.34 -2.66 6.68 -3 6 C-2.06553465 3.96855359 -1.06775224 1.96466413 0 0 Z " fill="#878786" transform="translate(157,147)"/>
<path d="M0 0 C0.33 0 0.66 0 1 0 C1.28571429 7.42857143 1.28571429 7.42857143 -1 11 C-1.66 11 -2.32 11 -3 11 C-2.01 7.37 -1.02 3.74 0 0 Z " fill="#939492" transform="translate(180,124)"/>
<path d="M0 0 C0.33 0.66 0.66 1.32 1 2 C2.32 1.67 3.64 1.34 5 1 C3.515 3.475 3.515 3.475 2 6 C0.68 5.67 -0.64 5.34 -2 5 C-1.34 4.67 -0.68 4.34 0 4 C0 2.68 0 1.36 0 0 Z " fill="#B9B9B8" transform="translate(45,110)"/>
<path d="M0 0 C0.33 0.66 0.66 1.32 1 2 C1.99 2 2.98 2 4 2 C4.33 3.98 4.66 5.96 5 8 C2 7 2 7 0.8125 5.125 C0 3 0 3 0 0 Z " fill="#141414" transform="translate(49,103)"/>
<path d="M0 0 C2.97 0.495 2.97 0.495 6 1 C5.67 2.32 5.34 3.64 5 5 C4.34 5 3.68 5 3 5 C3 4.34 3 3.68 3 3 C2.01 3 1.02 3 0 3 C0 2.01 0 1.02 0 0 Z " fill="#A6A6A5" transform="translate(90,84)"/>
<path d="M0 0 C-5.41538462 3.07692308 -5.41538462 3.07692308 -8.375 2.6875 C-9.179375 2.3471875 -9.179375 2.3471875 -10 2 C-6.16991045 -0.55339303 -4.41711378 -1.47237126 0 0 Z " fill="#4D4D4C" transform="translate(92,174)"/>
<path d="M0 0 C1.32 0.99 2.64 1.98 4 3 C4.66 2.34 5.32 1.68 6 1 C6.33 2.32 6.66 3.64 7 5 C4.03 4.505 4.03 4.505 1 4 C0.67 2.68 0.34 1.36 0 0 Z " fill="#7F7E7D" transform="translate(128,126)"/>
<path d="M0 0 C3.65316671 1.24976756 4.78065836 1.67098753 7 5 C4.625 4.75 4.625 4.75 2 4 C0.6875 1.9375 0.6875 1.9375 0 0 Z " fill="#E6E6E5" transform="translate(82,110)"/>
<path d="M0 0 C2.64 0.33 5.28 0.66 8 1 C7.67 2.32 7.34 3.64 7 5 C3.535 3.02 3.535 3.02 0 1 C0 0.67 0 0.34 0 0 Z " fill="#321A1C" transform="translate(172,99)"/>
<path d="M0 0 C0.66 0.33 1.32 0.66 2 1 C1.0479279 2.00596297 0.08812654 3.00461563 -0.875 4 C-1.40867187 4.556875 -1.94234375 5.11375 -2.4921875 5.6875 C-4 7 -4 7 -6 7 C-6 6.01 -6 5.02 -6 4 C-3.5625 2.375 -3.5625 2.375 -1 1 C-0.67 0.67 -0.34 0.34 0 0 Z " fill="#33191B" transform="translate(15,50)"/>
</svg>
