<?xml version="1.0" encoding="UTF-8"?>
<svg version="1.1" xmlns="http://www.w3.org/2000/svg" width="220" height="220">
<path d="M0 0 C72.6 0 145.2 0 220 0 C220 72.6 220 145.2 220 220 C147.4 220 74.8 220 0 220 C0 147.4 0 74.8 0 0 Z " fill="#FBFBF9" transform="translate(0,0)"/>
<path d="M0 0 C-2.31 0.66 -4.62 1.32 -7 2 C-6.26420788 3.46555316 -5.51074874 4.92224487 -4.75 6.375 C-4.33234375 7.18710937 -3.9146875 7.99921875 -3.484375 8.8359375 C-1.85732025 11.20801205 -0.64613361 11.97094804 2 13 C2.61875 12.34 3.2375 11.68 3.875 11 C6 9 6 9 8 9 C8.495 12.96 8.495 12.96 9 17 C11.64 17 14.28 17 17 17 C16.01 13.535 16.01 13.535 15 10 C16 10 17 10 18 10 C18.33 9.01 18.66 8.02 19 7 C19.66 7 20.32 7 21 7 C21.495 10.96 21.495 10.96 22 15 C22.66 15 23.32 15 24 15 C24.33 14.34 24.66 13.68 25 13 C26.98 13.99 28.96 14.98 31 16 C31.4021875 14.63875 31.4021875 14.63875 31.8125 13.25 C32.90131632 10.27008166 33.86391101 8.31409641 36 6 C36.66 6 37.32 6 38 6 C38.28875 7.11375 38.5775 8.2275 38.875 9.375 C39.69241329 13.00291092 39.69241329 13.00291092 42 15 C42.99 15 43.98 15 45 15 C45.66 13.68 46.32 12.36 47 11 C47.625 12.875 47.625 12.875 48 15 C46 17 46 17 43.625 17.4375 C41 17 41 17 38.6875 14.625 C37 12 37 12 37 10 C34.52140092 12.2008849 33.38789634 14.06372969 32.3125 17.1875 C32.06113281 17.90292969 31.80976562 18.61835937 31.55078125 19.35546875 C31.36902344 19.89816406 31.18726562 20.44085938 31 21 C31.66 21.33 32.32 21.66 33 22 C32.505 22.495 32.505 22.495 32 23 C31.6367694 28.07454515 31.97775889 33.01657457 33 38 C32.67 37.34 32.34 36.68 32 36 C30.35 36 28.7 36 27 36 C26.9175 37.03125 26.835 38.0625 26.75 39.125 C25.92333602 43.39609725 24.8640995 45.73810891 22 49 C19.5 49.6875 19.5 49.6875 17 49 C13.82928792 46.25776253 13.07638682 44.45068223 12.375 40.3125 C12.59074748 35.57504493 14.9372324 32.17250737 17.4921875 28.296875 C18.83784305 26.24701629 19.95397134 24.21392473 21 22 C20.01 22 19.02 22 18 22 C17.505 20.02 17.505 20.02 17 18 C14.69 18.33 12.38 18.66 10 19 C10 19.66 10 20.32 10 21 C11.32 21 12.64 21 14 21 C14 21.66 14 22.32 14 23 C9.25 24 9.25 24 7 24 C7 24.66 7 25.32 7 26 C7.66 26.33 8.32 26.66 9 27 C8.01 27.66 7.02 28.32 6 29 C5.63637182 31.20725073 5.63637182 31.20725073 5.8125 33.625 C5.83957031 34.44226563 5.86664063 35.25953125 5.89453125 36.1015625 C5.94673828 37.04128906 5.94673828 37.04128906 6 38 C5.34 38 4.68 38 4 38 C4.42298527 41.31451799 4.86608889 44.62606239 5.3125 47.9375 C5.48942383 49.32678711 5.48942383 49.32678711 5.66992188 50.74414062 C6.4100516 56.15278094 7.50914092 61.09957601 9.40307617 66.22485352 C10 68 10 68 10 70 C11.65 69.67 13.3 69.34 15 69 C14.01 69.495 14.01 69.495 13 70 C15.08311159 79.25827375 22.77508379 85.2425213 30.19921875 90.5 C34.42224583 92.76170488 37.30872184 92.6152496 42 92 C42 92.99 42 93.98 42 95 C44.49854767 95.65192688 46.9986137 96.29663064 49.5 96.9375 C50.19609375 97.11990234 50.8921875 97.30230469 51.609375 97.49023438 C56.39837494 98.70965566 61.08537471 99.47422365 66 100 C66 100.66 66 101.32 66 102 C66.99 102.020625 67.98 102.04125 69 102.0625 C74.19174143 102.77094537 77.51103365 106.32655957 81 110 C83.1519437 113.22791555 83.20086443 114.28400809 83 118 C83.66 118.33 84.32 118.66 85 119 C84.525625 119.70125 84.05125 120.4025 83.5625 121.125 C81.83429354 123.92492679 81.83429354 123.92492679 81.5 127.125 C80.96538854 130.19901589 80.40573449 131.11725127 78 133 C78.7425 133.2475 79.485 133.495 80.25 133.75 C83.23023087 135.10465039 84.89919252 136.5101541 87 139 C87 139.66 87 140.32 87 141 C87.99 141 88.98 141 90 141 C90.2475 141.804375 90.495 142.60875 90.75 143.4375 C91.1625 144.283125 91.575 145.12875 92 146 C92.65137939 146.13897705 93.30275879 146.2779541 93.97387695 146.42114258 C96 147 96 147 96.98901367 148.6706543 C97.21306885 149.38133057 97.43712402 150.09200684 97.66796875 150.82421875 C97.92126953 151.60603516 98.17457031 152.38785156 98.43554688 153.19335938 C98.68369141 154.01642578 98.93183594 154.83949219 99.1875 155.6875 C99.44724609 156.49123047 99.70699219 157.29496094 99.97460938 158.12304688 C101.35006739 162.46977852 102.2414788 166.4488728 103 171 C61.75 171 20.5 171 -22 171 C-19.67857143 146.625 -19.67857143 146.625 -18 136 C-20.9362649 134.79196976 -23.888452 133.68953462 -26.890625 132.66015625 C-38.42431626 128.53110268 -45.43437861 123.40509076 -51.0625 112.125 C-51.47822266 111.19107422 -51.47822266 111.19107422 -51.90234375 110.23828125 C-53.98713661 105.98708442 -56.66021019 102.0447632 -59.1953125 98.05078125 C-61 95 -61 95 -62.1171875 92.16796875 C-62.79160188 89.82931617 -62.79160188 89.82931617 -65 89 C-68.63495635 79.10484106 -66.89729301 70.66511498 -62.78686523 61.20922852 C-61.42153242 58.34502734 -60.00537967 55.5133808 -58.5625 52.6875 C-58.08490234 51.72521484 -57.60730469 50.76292969 -57.11523438 49.77148438 C-54.77367025 45.13011241 -52.50681435 40.88951792 -49 37 C-48.46375 36.401875 -47.9275 35.80375 -47.375 35.1875 C-46 34 -46 34 -44 34 C-43 37 -42 40 -41 43 C-34.78400366 47.14399756 -26.14837313 46.36383935 -19 46 C-18.34 45.67 -17.68 45.34 -17 45 C-18.41963409 50.67853635 -21.39363961 54.53174216 -25 59 C-22.47636012 58.37466625 -22.47636012 58.37466625 -20 57 C-19.36858988 54.76864953 -19.36858988 54.76864953 -19 52 C-17.78472676 49.27069884 -16.40598249 46.63539973 -15 44 C-15.99 43.505 -15.99 43.505 -17 43 C-16.443125 42.360625 -15.88625 41.72125 -15.3125 41.0625 C-12.43664055 37.25392938 -10.2360513 33.2063424 -8 29 C-7.505 30.485 -7.505 30.485 -7 32 C-7.474375 32.763125 -7.94875 33.52625 -8.4375 34.3125 C-10.26992936 37.46427849 -10.25005831 39.41583089 -10 43 C-9.34 43 -8.68 43 -8 43 C-8.2784375 43.86625 -8.2784375 43.86625 -8.5625 44.75 C-9.16209875 46.93487264 -9.16209875 46.93487264 -8.5 48.78125 C-7.870603 51.57419917 -8.13312492 53.90916589 -8.4375 56.75 C-8.53933594 57.73484375 -8.64117187 58.7196875 -8.74609375 59.734375 C-8.82988281 60.48203125 -8.91367188 61.2296875 -9 62 C-7.35 62.33 -5.7 62.66 -4 63 C-4 63.66 -4 64.32 -4 65 C-2.35 64.67 -0.7 64.34 1 64 C1.495 62.515 1.495 62.515 2 61 C2.66 61.99 3.32 62.98 4 64 C5.485 64.495 5.485 64.495 7 65 C6.54625 63.9275 6.0925 62.855 5.625 61.75 C3.567339 56.32791698 2.81014673 50.7186828 2 45 C1.67 45 1.34 45 1 45 C1 43.35 1 41.7 1 40 C1.66 40 2.32 40 3 40 C3 39.01 3 38.02 3 37 C2.34 37 1.68 37 1 37 C1.2165625 36.16855469 1.433125 35.33710937 1.65625 34.48046875 C1.9346875 33.39378906 2.213125 32.30710938 2.5 31.1875 C2.7784375 30.10855469 3.056875 29.02960938 3.34375 27.91796875 C4.10970948 25.01066025 4.10970948 25.01066025 4 22 C1.74754119 24.68841859 0.11786042 26.64641875 -1 30 C-1.66 29.67 -2.32 29.34 -3 29 C-2.85820313 28.09378906 -2.71640625 27.18757813 -2.5703125 26.25390625 C-1.4331109 17.64678069 -1.4331109 17.64678069 -4.875 10 C-5.431875 9.31035156 -5.98875 8.62070312 -6.5625 7.91015625 C-8.45769225 5.39181654 -8.84044419 3.11133826 -9 0 C-3.375 -1.125 -3.375 -1.125 0 0 Z " fill="#020202" transform="translate(86,49)"/>
<path d="M0 0 C26.07 0 52.14 0 79 0 C78.67 0.66 78.34 1.32 78 2 C67.77 2 57.54 2 47 2 C48.216875 5.031875 49.43375 8.06375 50.6875 11.1875 C52.12839302 14.79031876 53.56508018 18.39479838 55 22 C55.42249023 23.06057617 55.42249023 23.06057617 55.85351562 24.14257812 C56.55327477 25.90553721 57.24570924 27.67139888 57.9375 29.4375 C58.31777344 30.40558594 58.69804688 31.37367187 59.08984375 32.37109375 C61.42573707 39.11811608 61.42573707 39.11811608 60.125 41.8125 C59.75375 42.534375 59.3825 43.25625 59 44 C58.8955232 45.35269967 58.81429799 46.70729611 58.75 48.0625 C58.546875 50.171875 58.546875 50.171875 58 52 C55 53.8125 55 53.8125 52 55 C51.67 55.99 51.34 56.98 51 58 C50.2575 58.4125 49.515 58.825 48.75 59.25 C45.57738004 61.26893998 44.12846186 63.36517615 42.11328125 66.4765625 C41 68 41 68 39 69 C39 73.95 39 78.9 39 84 C38.01 84.33 37.02 84.66 36 85 C36.99 85.495 36.99 85.495 38 86 C37.6277832 86.53294678 37.25556641 87.06589355 36.87207031 87.61499023 C33.02818014 93.23190818 29.77135821 98.9684951 26.75 105.0625 C26.316875 105.90876953 25.88375 106.75503906 25.4375 107.62695312 C20.30841317 117.89304204 19.11390305 126.68341829 21 138 C21.99 138.33 22.98 138.66 24 139 C25.22362306 141.15689488 26.28508019 143.25273683 27.3125 145.5 C29.78216546 150.68115782 32.43966613 155.47086415 35.734375 160.1875 C37 162 37 162 38.5 164.5625 C39.2425 165.7690625 39.2425 165.7690625 40 167 C40.30164062 167.60457031 40.60328125 168.20914063 40.9140625 168.83203125 C45.08595994 175.87042596 51.68023434 177.76486582 59.00390625 180.45703125 C62.25252053 181.67853757 65.24649694 182.83269192 68 185 C68.55859375 187.0234375 68.55859375 187.0234375 68.4375 189.375 C68.39367187 190.25929687 68.34984375 191.14359375 68.3046875 192.0546875 C67.86223625 196.33171629 67.22029968 200.5609808 66.5078125 204.80078125 C65.91264712 208.55032312 65.54945916 212.29143788 65.24609375 216.07421875 C65 218 65 218 64 220 C42.88 220 21.76 220 0 220 C0 147.4 0 74.8 0 0 Z " fill="#FDFDFC" transform="translate(0,0)"/>
<path d="M0 0 C1.20907952 3.86905445 1.99523907 6.87245726 2.1484375 10.9765625 C2.5861243 14.65364304 2.86472085 14.88711806 5.94921875 17.4609375 C7.17982564 18.1283406 8.42699377 18.76594806 9.6875 19.375 C10.30044922 19.70371094 10.91339844 20.03242188 11.54492188 20.37109375 C15.25419847 22.31423546 18.99885526 23.78306197 23 25 C18.64875194 29.78637287 13.72719273 33.94789102 8 37 C2.81762918 37.17274569 -0.45342579 35.2732871 -5 33 C-8.35738283 32.4404362 -9.52867759 32.70995544 -12.4375 34.5 C-14.42139774 37.04711633 -14.42139774 37.04711633 -13.3125 40.6875 C-13.08949219 41.37585937 -12.86648437 42.06421875 -12.63671875 42.7734375 C-11.95384982 45.16138407 -11.77413153 47.3377227 -11.625 49.8125 C-11.30596821 53.3197822 -11.30596821 53.3197822 -9.0625 56.0625 C-7.07413969 57.13793431 -7.07413969 57.13793431 -5 57 C-1.22986005 62.65520993 -1.48298827 68.35838782 -2 75 C-2.33 75.66 -2.66 76.32 -3 77 C-3.66 77 -4.32 77 -5 77 C-5.20625 77.825 -5.4125 78.65 -5.625 79.5 C-7.15356416 83.39089058 -9.18461974 85.99672649 -11.85546875 89.16796875 C-12.23316406 89.77253906 -12.61085937 90.37710938 -13 91 C-12.67 91.99 -12.34 92.98 -12 94 C-12.77734375 95.9375 -12.77734375 95.9375 -13.9375 98 C-15.46769739 100.73879397 -16 101.77775564 -16 105 C-17.8125 106.75 -17.8125 106.75 -20 108 C-21.485 107.505 -21.485 107.505 -23 107 C-22.36771484 106.20335938 -22.36771484 106.20335938 -21.72265625 105.390625 C-21.17480469 104.68421875 -20.62695312 103.9778125 -20.0625 103.25 C-19.51722656 102.55390625 -18.97195312 101.8578125 -18.41015625 101.140625 C-17.02574346 99.03907872 -16.43713013 97.45678201 -16 95 C-17.00160156 95.04640625 -18.00320312 95.0928125 -19.03515625 95.140625 C-32.40572655 95.57713282 -32.40572655 95.57713282 -38 91 C-40.39361122 88.60638878 -40.95641787 87.63920452 -41.1875 84.25 C-41.125625 83.5075 -41.06375 82.765 -41 82 C-41.66 82 -42.32 82 -43 82 C-43.33 82.99 -43.66 83.98 -44 85 C-46.475 85.495 -46.475 85.495 -49 86 C-48.67 85.01 -48.34 84.02 -48 83 C-46.68 83 -45.36 83 -44 83 C-44.165 82.195625 -44.33 81.39125 -44.5 80.5625 C-45.68279169 72.13510922 -45.68279169 72.13510922 -45 68 C-42.8125 65.25 -42.8125 65.25 -40 63 C-38.700625 61.700625 -38.700625 61.700625 -37.375 60.375 C-35.58333333 58.58333333 -33.79166667 56.79166667 -32 55 C-31.34 54.278125 -30.68 53.55625 -30 52.8125 C-28 51 -28 51 -25 51 C-25.04125 49.7625 -25.0825 48.525 -25.125 47.25 C-25.14288152 43.85847084 -24.5562825 42.00881283 -23 39 C-23.5303542 34.7647429 -25.07673574 31.05678678 -26.6875 27.125 C-26.94934082 26.47950195 -27.21118164 25.83400391 -27.48095703 25.16894531 C-28.60231706 22.40528372 -29.73432008 19.64605471 -30.86865234 16.88769531 C-31.70814485 14.84342405 -32.54165592 12.79678357 -33.375 10.75 C-33.63756592 10.11852051 -33.90013184 9.48704102 -34.1706543 8.83642578 C-35.30676382 6.04283879 -36 4.05040092 -36 1 C-31.67671027 0.85653897 -27.35338673 0.71415641 -23.0300293 0.57275391 C-21.5606186 0.52454468 -20.09121738 0.47604567 -18.62182617 0.42724609 C-16.50441907 0.35697657 -14.38697959 0.28776438 -12.26953125 0.21875 C-10.99698486 0.17685547 -9.72443848 0.13496094 -8.41333008 0.09179688 C-5.60615733 0.01630178 -2.80783527 -0.01876582 0 0 Z " fill="#F6F6F5" transform="translate(83,1)"/>
<path d="M0 0 C0.66 0.33 1.32 0.66 2 1 C2 2.65 2 4.3 2 6 C2.66 6.33 3.32 6.66 4 7 C3.525625 7.70125 3.05125 8.4025 2.5625 9.125 C0.83429354 11.92492679 0.83429354 11.92492679 0.5 15.125 C-0.03461146 18.19901589 -0.59426551 19.11725127 -3 21 C-2.2575 21.2475 -1.515 21.495 -0.75 21.75 C2.23023087 23.10465039 3.89919252 24.5101541 6 27 C6 27.66 6 28.32 6 29 C6.99 29 7.98 29 9 29 C9.2475 29.804375 9.495 30.60875 9.75 31.4375 C10.1625 32.283125 10.575 33.12875 11 34 C11.65137939 34.13897705 12.30275879 34.2779541 12.97387695 34.42114258 C15 35 15 35 15.98901367 36.6706543 C16.21306885 37.38133057 16.43712402 38.09200684 16.66796875 38.82421875 C17.04791992 39.99694336 17.04791992 39.99694336 17.43554688 41.19335938 C17.68369141 42.01642578 17.93183594 42.83949219 18.1875 43.6875 C18.44724609 44.49123047 18.70699219 45.29496094 18.97460938 46.12304688 C20.35006739 50.46977852 21.2414788 54.4488728 22 59 C-0.44 59 -22.88 59 -46 59 C-46.495 57.515 -46.495 57.515 -47 56 C-44.03 55.505 -44.03 55.505 -41 55 C-41.33 54.34 -41.66 53.68 -42 53 C-42.09868631 50.38481275 -42.13896965 47.80215266 -42.125 45.1875 C-42.12886719 44.47529297 -42.13273437 43.76308594 -42.13671875 43.02929688 C-42.12224846 35.20810292 -42.12224846 35.20810292 -41 32 C-38.49531282 30.15193272 -35.8873324 29.23742817 -33 28 C-32.34 31.63 -31.68 35.26 -31 39 C-31 37.50015712 -31.07041945 36.0000438 -31.17578125 34.50390625 C-31.54318944 26.59938145 -31.54318944 26.59938145 -29.1875 24 C-28.135625 23.67 -27.08375 23.34 -26 23 C-25.11699219 22.71640625 -24.23398438 22.4328125 -23.32421875 22.140625 C-15.58738707 19.80420431 -15.58738707 19.80420431 -12 21 C-12 21.66 -12 22.32 -12 23 C-10.68 23 -9.36 23 -8 23 C-8 23.66 -8 24.32 -8 25 C-7.01 25.33 -6.02 25.66 -5 26 C-4.67 26.33 -4.34 26.66 -4 27 C-4.5259375 26.1646875 -4.5259375 26.1646875 -5.0625 25.3125 C-6.58811606 21.54931371 -5.32643196 18.8640846 -3.9375 15.1875 C-3.628125 14.465625 -3.31875 13.74375 -3 13 C-2.34 13 -1.68 13 -1 13 C-1.020625 12.278125 -1.04125 11.55625 -1.0625 10.8125 C-1.00165606 8.07452266 -0.56250044 5.67187707 0 3 C0 2.01 0 1.02 0 0 Z " fill="#060606" transform="translate(167,161)"/>
<path d="M0 0 C1.43931117 0.45261358 2.87638999 0.91232979 4.3125 1.375 C5.11300781 1.63023437 5.91351563 1.88546875 6.73828125 2.1484375 C9 3 9 3 12 5 C14.41077784 5.63831952 14.41077784 5.63831952 17.10546875 6.0703125 C18.57983398 6.33134766 18.57983398 6.33134766 20.08398438 6.59765625 C21.10814453 6.77167969 22.13230469 6.94570312 23.1875 7.125 C24.22326172 7.30675781 25.25902344 7.48851562 26.32617188 7.67578125 C28.88307999 8.12353474 31.44095188 8.5646735 34 9 C34.50435694 10.9363704 35.00333874 12.87414146 35.5 14.8125 C35.7784375 15.89144531 36.056875 16.97039062 36.34375 18.08203125 C37 21 37 21 37 24 C37.99 24 38.98 24 40 24 C40 23.34 40 22.68 40 22 C39.34 22 38.68 22 38 22 C35.72321429 13.96428571 35.72321429 13.96428571 37 10 C39.3125 10.5 39.3125 10.5 42 12 C43.96834132 15.55992981 45 18.93648991 45 23 C46.32 22.67 47.64 22.34 49 22 C48.34 20.02 47.68 18.04 47 16 C48.9375 17.0625 48.9375 17.0625 51 19 C52.31521514 23.97902874 51.96094691 27.27065745 50 32 C49.34 32 48.68 32 48 32 C47.855625 32.721875 47.71125 33.44375 47.5625 34.1875 C47 37 47 37 46.1875 39.375 C45.89799962 43.42800526 47.82061556 45.63186041 50 49 C47.13302508 47.71480435 45.02392288 46.42870746 43 44 C43 43.34 43 42.68 43 42 C41.68 42 40.36 42 39 42 C39 41.34 39 40.68 39 40 C32.38914524 40.48969295 27.05022986 42.33442742 21 45 C20.97294271 46.77074917 20.95357805 48.54161711 20.9375 50.3125 C20.92589844 51.29863281 20.91429687 52.28476563 20.90234375 53.30078125 C20.87670138 56.09963849 20.87670138 56.09963849 22 59 C21.01 58.67 20.02 58.34 19 58 C18.34 54.7 17.68 51.4 17 48 C15.2984375 48.928125 15.2984375 48.928125 13.5625 49.875 C12.60537109 50.39707031 12.60537109 50.39707031 11.62890625 50.9296875 C9.83381685 51.91410024 9.83381685 51.91410024 9 54 C9.66 54.33 10.32 54.66 11 55 C10.67 55.33 10.34 55.66 10 56 C9.91368126 57.34267413 9.89293527 58.68974322 9.90234375 60.03515625 C9.90717773 61.24848633 9.90717773 61.24848633 9.91210938 62.48632812 C9.92048828 63.33646484 9.92886719 64.18660156 9.9375 65.0625 C9.94201172 65.91650391 9.94652344 66.77050781 9.95117188 67.65039062 C9.96299627 69.76695663 9.98093231 71.88348685 10 74 C7.03 74.495 7.03 74.495 4 75 C2.46554906 71.93109813 3.45015711 69.29905734 4 66 C4.33 66 4.66 66 5 66 C5 67.65 5 69.3 5 71 C5.66 71 6.32 71 7 71 C7.08365966 66.81701685 7.13980425 62.82329168 6.4375 58.6875 C6.00209183 56.01284983 6.24503112 54.54801995 7 52 C6.505 51.505 6.505 51.505 6 51 C5.35888723 46.38236496 5.01006524 41.87022485 7.234375 37.66796875 C8.75231486 35.70291294 10.34243879 33.84784247 12 32 C14.26769782 28.6375515 15.42534098 26.02261317 16 22 C15.34 22 14.68 22 14 22 C14 22.99 14 23.98 14 25 C11.21953235 26.8536451 9.84381975 27.41419058 6.69140625 28.0703125 C5.86189453 28.24433594 5.03238281 28.41835937 4.17773438 28.59765625 C3.31470703 28.77167969 2.45167969 28.94570312 1.5625 29.125 C0.70333984 29.30675781 -0.15582031 29.48851562 -1.04101562 29.67578125 C-4.83247958 30.45819352 -8.09952822 31 -12 31 C-11.4149734 25.5251988 -9.49986538 21.11019436 -7.1875 16.1875 C-6.84396484 15.41212891 -6.50042969 14.63675781 -6.14648438 13.83789062 C-5.80294922 13.10119141 -5.45941406 12.36449219 -5.10546875 11.60546875 C-4.64370239 10.60229614 -4.64370239 10.60229614 -4.17260742 9.57885742 C-3 8 -3 8 -1.00219727 7.25341797 C2.55182573 6.80358552 5.58604632 8.03271313 9 9 C9 8.34 9 7.68 9 7 C6.03 6.67 3.06 6.34 0 6 C0 4.02 0 2.04 0 0 Z " fill="#F9F9F7" transform="translate(116,142)"/>
<path d="M0 0 C0.33 0 0.66 0 1 0 C1 0.845625 1 1.69125 1 2.5625 C2.29723636 7.02174998 4.54569042 8.47955876 8.1875 11.19140625 C10.40964928 13.40876642 10.75306835 14.90821001 11 18 C10 19 10 19 7.93359375 19.09765625 C7.10988281 19.08605469 6.28617188 19.07445313 5.4375 19.0625 C4.61121094 19.05347656 3.78492188 19.04445313 2.93359375 19.03515625 C1.97646484 19.01775391 1.97646484 19.01775391 1 19 C0.48673477 24.38928493 1.93000206 26.66588526 5 31 C7.20772847 36.34052626 7.34840995 41.48281399 7.390625 47.16601562 C7.56091206 52.146912 8.79534566 54.30080023 12 58 C11.67 58.99 11.34 59.98 11 61 C10.21625 60.525625 9.4325 60.05125 8.625 59.5625 C7.11051322 58.66101977 5.5764103 57.78820515 4 57 C3.67 56.01 3.34 55.02 3 54 C2.01 53.67 1.02 53.34 0 53 C3.5412914 61.12797826 3.5412914 61.12797826 10 67 C7.0602001 66.67335557 5.27653503 66.20333458 2.875 64.4375 C0.34424013 61.14751216 -0.68850895 57.93447314 -2 54 C-2 54.66 -2 55.32 -2 56 C-2.66 56 -3.32 56 -4 56 C-4.495 51.545 -4.495 51.545 -5 47 C-5.66 47 -6.32 47 -7 47 C-7.3403125 47.928125 -7.3403125 47.928125 -7.6875 48.875 C-9.45498713 51.73664583 -10.77014312 52.13870483 -14 53 C-19.04251125 53.45022422 -21.91790819 53.03241106 -26 50 C-28 48 -28 48 -28.1875 45 C-28 42 -28 42 -27 40 C-27.680625 39.95875 -28.36125 39.9175 -29.0625 39.875 C-32.75187901 38.77603604 -34.64109256 36.84109916 -37.3515625 34.1796875 C-37.89554688 33.79039063 -38.43953125 33.40109375 -39 33 C-40.485 33.495 -40.485 33.495 -42 34 C-42 32.02 -42 30.04 -42 28 C-43.98 28 -45.96 28 -48 28 C-47.67 26.68 -47.34 25.36 -47 24 C-47 24.66 -47 25.32 -47 26 C-45.68 26 -44.36 26 -43 26 C-43 24.35 -43 22.7 -43 21 C-42.34 21 -41.68 21 -41 21 C-41 23.64 -41 26.28 -41 29 C-37.60582235 25.87378374 -35.3937282 23.43458973 -34 19 C-33.67 19.66 -33.34 20.32 -33 21 C-32.21625 20.505 -31.4325 20.01 -30.625 19.5 C-28 18 -28 18 -26 18 C-26.33 17.01 -26.66 16.02 -27 15 C-26.34 15 -25.68 15 -25 15 C-25 15.66 -25 16.32 -25 17 C-24.34 16.67 -23.68 16.34 -23 16 C-14.98858462 15.22566245 -8.76089437 16.49273709 -2 21 C-2 16.05 -2 11.1 -2 6 C-4.475 5.505 -4.475 5.505 -7 5 C-4 3 -4 3 -1.8125 3.375 C-1.214375 3.58125 -0.61625 3.7875 0 4 C0 2.68 0 1.36 0 0 Z " fill="#F2F2F1" transform="translate(162,80)"/>
<path d="M0 0 C1.20907952 3.86905445 1.99523907 6.87245726 2.1484375 10.9765625 C2.5861243 14.65364304 2.86472085 14.88711806 5.94921875 17.4609375 C7.17982564 18.1283406 8.42699377 18.76594806 9.6875 19.375 C10.30044922 19.70371094 10.91339844 20.03242188 11.54492188 20.37109375 C15.25419847 22.31423546 18.99885526 23.78306197 23 25 C18.64875194 29.78637287 13.72719273 33.94789102 8 37 C2.81762918 37.17274569 -0.45342579 35.2732871 -5 33 C-8.35738283 32.4404362 -9.52867759 32.70995544 -12.4375 34.5 C-14.42139774 37.04711633 -14.42139774 37.04711633 -13.3125 40.6875 C-13.08949219 41.37585937 -12.86648437 42.06421875 -12.63671875 42.7734375 C-11.95384982 45.16138407 -11.77413153 47.3377227 -11.625 49.8125 C-11.30596821 53.3197822 -11.30596821 53.3197822 -9.0625 56.0625 C-7.07413969 57.13793431 -7.07413969 57.13793431 -5 57 C-1.28307376 62.57538935 -1.24331575 68.43551846 -2 75 C-2.66 75.66 -3.32 76.32 -4 77 C-3.98839844 76.18015625 -3.97679687 75.3603125 -3.96484375 74.515625 C-3.95582031 73.43796875 -3.94679687 72.3603125 -3.9375 71.25 C-3.92589844 70.18265625 -3.91429687 69.1153125 -3.90234375 68.015625 C-3.98537892 65.45149886 -4.14222102 63.40514498 -5 61 C-6.68019054 59.82342532 -6.68019054 59.82342532 -9 59 C-10.25091226 58.46044342 -11.50086259 57.91865292 -12.75 57.375 C-13.8225 56.92125 -14.895 56.4675 -16 56 C-15.01 55.505 -15.01 55.505 -14 55 C-14.14166357 53.08302063 -14.28849584 51.16642277 -14.4375 49.25 C-14.51871094 48.18265625 -14.59992188 47.1153125 -14.68359375 46.015625 C-14.94090773 43.56320038 -15.31812218 41.36078709 -16 39 C-18.97 39.495 -18.97 39.495 -22 40 C-22.33 41.98 -22.66 43.96 -23 46 C-23.33 46 -23.66 46 -24 46 C-23.86980469 45.40574219 -23.73960938 44.81148437 -23.60546875 44.19921875 C-22.52917417 37.73139242 -23.50221727 33.97961549 -26.4609375 28.2109375 C-28.69184726 23.55660293 -30.28469521 18.71902567 -31.94360352 13.83764648 C-32.90116942 11.04176061 -33.8363777 8.32235223 -35.17578125 5.68359375 C-36 4 -36 4 -36 1 C-31.67671027 0.85653897 -27.35338673 0.71415641 -23.0300293 0.57275391 C-21.5606186 0.52454468 -20.09121738 0.47604567 -18.62182617 0.42724609 C-16.50441907 0.35697657 -14.38697959 0.28776438 -12.26953125 0.21875 C-10.99698486 0.17685547 -9.72443848 0.13496094 -8.41333008 0.09179688 C-5.60615733 0.01630178 -2.80783527 -0.01876582 0 0 Z " fill="#DD2A51" transform="translate(83,1)"/>
<path d="M0 0 C0.77923828 0.61488281 0.77923828 0.61488281 1.57421875 1.2421875 C5.2423777 4.07636576 8.51449706 6.59828033 13 8 C12.9071875 9.8871875 12.9071875 9.8871875 12.8125 11.8125 C12.78497301 15.09299176 12.78497301 15.09299176 14.3125 17.9375 C18.12759278 20.33959546 21.61074594 20.29757655 26 20 C30.30843924 18.41772398 30.30843924 18.41772398 33 15 C33.66 15 34.32 15 35 15 C35.495 19.455 35.495 19.455 36 24 C36.66 24 37.32 24 38 24 C37.34 21.69 36.68 19.38 36 17 C39.08119917 18.54059958 39.39162041 20.82871485 40.5625 24 C42.4187867 30.07816621 42.4187867 30.07816621 40.69921875 33.86328125 C38.92056727 36.09818 37.11718238 38.08563182 35 40 C33.35 39.67 31.7 39.34 30 39 C30 38.34 30 37.68 30 37 C28.906875 37.0515625 27.81375 37.103125 26.6875 37.15625 C21.25486618 37.15625 16.23696236 35.83632833 11 34.5 C10.03449219 34.26152344 9.06898438 34.02304688 8.07421875 33.77734375 C5.71396013 33.19312132 3.35615018 32.60053719 1 32 C1.99 31.34 2.98 30.68 4 30 C2.9790625 30.0928125 1.958125 30.185625 0.90625 30.28125 C-3.71231429 29.94871337 -6.07006776 28.36613616 -9.5 25.5 C-10.06098389 25.04729736 -10.62196777 24.59459473 -11.19995117 24.12817383 C-20.42058264 16.53039485 -20.42058264 16.53039485 -23 12 C-23.16796875 9.26953125 -23.16796875 9.26953125 -23 7 C-17.91530509 6.47849283 -14.60742996 7.84478429 -10.1484375 10.02734375 C-8.10337641 10.95319868 -6.18936866 11.52943434 -4 12 C-4.04125 11.0925 -4.0825 10.185 -4.125 9.25 C-4.00468444 6.1217954 -3.6085292 4.61385994 -2 2 C-1.34 2 -0.68 2 0 2 C0 1.34 0 0.68 0 0 Z " fill="#F0F0EF" transform="translate(122,112)"/>
<path d="M0 0 C0.99 0.99 0.99 0.99 2 2 C-0.25538146 1.47952736 -2.29328879 0.87826635 -4.4375 -0.01171875 C-23.47575373 -5.29316414 -42.25754974 0.69050812 -59.109375 9.3515625 C-61.96845842 10.90017851 -61.96845842 10.90017851 -64.265625 12.7109375 C-66 14 -66 14 -68 14 C-68.433125 14.8971875 -68.433125 14.8971875 -68.875 15.8125 C-70 18 -70 18 -72 21 C-69.69 20.34 -67.38 19.68 -65 19 C-68.46670907 23.03131967 -72.96297018 23.87545381 -78 25 C-81.625 25.1875 -81.625 25.1875 -84 25 C-83.42807424 26.56671151 -82.84184895 28.12820566 -82.25 29.6875 C-81.92515625 30.55761719 -81.6003125 31.42773438 -81.265625 32.32421875 C-80.10265304 35.11890305 -80.10265304 35.11890305 -77.83984375 37.37890625 C-75.34884067 40.92766011 -75.80224604 43.00823662 -76.3125 47.25 C-76.5666057 49.49732011 -76.80242073 51.74700648 -77 54 C-76.505 54.495 -76.505 54.495 -76 55 C-75.95875 54.278125 -75.9175 53.55625 -75.875 52.8125 C-74.61647835 48.76725183 -72.36410883 47.50518743 -69 45 C-69.13277344 45.56847656 -69.26554687 46.13695312 -69.40234375 46.72265625 C-71.26652429 54.28028779 -71.26652429 54.28028779 -72 62 C-72 62.99 -72 63.98 -72 65 C-72.33 65.33 -72.66 65.66 -73 66 C-72.67 66 -72.34 66 -72 66 C-71.87882812 67.0621875 -71.75765625 68.124375 -71.6328125 69.21875 C-70.80431481 76.2734828 -69.99472803 83.16093248 -68 90 C-69.9375 89.625 -69.9375 89.625 -72 89 C-72.495 88.01 -72.495 88.01 -73 87 C-73.33 87.66 -73.66 88.32 -74 89 C-76.5625 89.625 -76.5625 89.625 -79 90 C-79 89.34 -79 88.68 -79 88 C-80.65 87.67 -82.3 87.34 -84 87 C-83.98839844 86.10796875 -83.97679688 85.2159375 -83.96484375 84.296875 C-83.95582031 83.12640625 -83.94679688 81.9559375 -83.9375 80.75 C-83.92589844 79.58984375 -83.91429688 78.4296875 -83.90234375 77.234375 C-83.86955307 74.12343941 -83.86955307 74.12343941 -84.62890625 71.703125 C-84.75136719 71.14109375 -84.87382813 70.5790625 -85 70 C-84.01 69.01 -84.01 69.01 -83 68 C-83.66 68 -84.32 68 -85 68 C-86.06125317 64.89787535 -86.38240818 62.80476945 -84.953125 59.796875 C-84.49421875 58.99765625 -84.0353125 58.1984375 -83.5625 57.375 C-80.4585269 51.69300481 -80.07839446 46.37362987 -81 40 C-81.66 39.01 -82.32 38.02 -83 37 C-83 36.01 -83 35.02 -83 34 C-84.485 34.495 -84.485 34.495 -86 35 C-89.03343333 32.59417356 -89.93872665 31.27557914 -90.79296875 27.43359375 C-90.94193967 26.10340207 -91.07304403 24.77110492 -91.1875 23.4375 C-91.70232256 18.14661272 -91.70232256 18.14661272 -93 13 C-90.9375 10.9375 -90.9375 10.9375 -88 9 C-82.89728682 9.0927766 -79.484736 10.757632 -75 13 C-71.75574094 13.4175779 -70.33535718 13.20069031 -67.5 11.50390625 C-66.675 10.86324219 -65.85 10.22257812 -65 9.5625 C-61.54545157 6.8906227 -59.2649381 5.75377305 -55 5 C-52.85967607 4.07639768 -50.73589268 3.11401965 -48.625 2.125 C-35.05437366 -3.88523372 -13.3683236 -9.1344655 0 0 Z " fill="#F6F6F5" transform="translate(161,24)"/>
<path d="M0 0 C-2.31 0.66 -4.62 1.32 -7 2 C-6.26420788 3.46555316 -5.51074874 4.92224487 -4.75 6.375 C-4.33234375 7.18710937 -3.9146875 7.99921875 -3.484375 8.8359375 C-1.85732025 11.20801205 -0.64613361 11.97094804 2 13 C2.928125 12.01 2.928125 12.01 3.875 11 C6 9 6 9 8 9 C8.33 11.64 8.66 14.28 9 17 C11.64 17 14.28 17 17 17 C16.34 14.69 15.68 12.38 15 10 C16 10 17 10 18 10 C18.33 9.01 18.66 8.02 19 7 C19.66 7 20.32 7 21 7 C21.33 9.64 21.66 12.28 22 15 C22.66 15 23.32 15 24 15 C24.33 14.34 24.66 13.68 25 13 C26.98 13.99 28.96 14.98 31 16 C31.268125 15.0925 31.53625 14.185 31.8125 13.25 C32.90131632 10.27008166 33.86391101 8.31409641 36 6 C36.66 6 37.32 6 38 6 C38.28875 7.11375 38.5775 8.2275 38.875 9.375 C39.69241329 13.00291092 39.69241329 13.00291092 42 15 C42.99 15 43.98 15 45 15 C45.66 13.68 46.32 12.36 47 11 C47.625 12.875 47.625 12.875 48 15 C46 17 46 17 43.625 17.4375 C41 17 41 17 38.6875 14.625 C37 12 37 12 37 10 C34.52140092 12.2008849 33.38789634 14.06372969 32.3125 17.1875 C32.06113281 17.90292969 31.80976562 18.61835937 31.55078125 19.35546875 C31.36902344 19.89816406 31.18726563 20.44085938 31 21 C31.66 21.33 32.32 21.66 33 22 C32.505 22.495 32.505 22.495 32 23 C31.6367694 28.07454515 31.97775889 33.01657457 33 38 C32.67 37.34 32.34 36.68 32 36 C30.35 36 28.7 36 27 36 C26.9175 37.03125 26.835 38.0625 26.75 39.125 C25.92333602 43.39609725 24.8640995 45.73810891 22 49 C19.5 49.6875 19.5 49.6875 17 49 C13.82928792 46.25776253 13.07638682 44.45068223 12.375 40.3125 C12.59074748 35.57504493 14.9372324 32.17250737 17.4921875 28.296875 C18.83784305 26.24701629 19.95397134 24.21392473 21 22 C20.01 22 19.02 22 18 22 C17.67 20.68 17.34 19.36 17 18 C14.69 18.33 12.38 18.66 10 19 C10 19.66 10 20.32 10 21 C11.32 21 12.64 21 14 21 C14 21.66 14 22.32 14 23 C9.25 24 9.25 24 7 24 C7 24.66 7 25.32 7 26 C7.66 26.33 8.32 26.66 9 27 C8.01 27.66 7.02 28.32 6 29 C5.63637182 31.20725073 5.63637182 31.20725073 5.8125 33.625 C5.83957031 34.44226563 5.86664063 35.25953125 5.89453125 36.1015625 C5.92933594 36.72804687 5.96414062 37.35453125 6 38 C5.34 38 4.68 38 4 38 C4.42298527 41.31451799 4.86608889 44.62606239 5.3125 47.9375 C5.43044922 48.86369141 5.54839844 49.78988281 5.66992188 50.74414062 C6.4100516 56.15278094 7.50914092 61.09957601 9.40307617 66.22485352 C10 68 10 68 10 70 C12.475 69.505 12.475 69.505 15 69 C14.01 69.495 14.01 69.495 13 70 C12.34786708 72.02463255 12.34786708 72.02463255 12 74 C6.26318047 72.71214255 2.53374494 70.79354168 -2 67 C-2 66.01 -2 65.02 -2 64 C-1.01 64 -0.02 64 1 64 C1.33 63.01 1.66 62.02 2 61 C2.66 61.99 3.32 62.98 4 64 C4.99 64.33 5.98 64.66 7 65 C6.54625 63.9275 6.0925 62.855 5.625 61.75 C3.567339 56.32791698 2.81014673 50.7186828 2 45 C1.67 45 1.34 45 1 45 C1 43.35 1 41.7 1 40 C1.66 40 2.32 40 3 40 C3 39.01 3 38.02 3 37 C2.34 37 1.68 37 1 37 C1.2165625 36.16855469 1.433125 35.33710937 1.65625 34.48046875 C1.9346875 33.39378906 2.213125 32.30710938 2.5 31.1875 C2.91765625 29.56908203 2.91765625 29.56908203 3.34375 27.91796875 C4.10970948 25.01066025 4.10970948 25.01066025 4 22 C1.74754119 24.68841859 0.11786042 26.64641875 -1 30 C-1.66 29.67 -2.32 29.34 -3 29 C-2.85820313 28.09378906 -2.71640625 27.18757813 -2.5703125 26.25390625 C-1.4331109 17.64678069 -1.4331109 17.64678069 -4.875 10 C-5.431875 9.31035156 -5.98875 8.62070312 -6.5625 7.91015625 C-8.45769225 5.39181654 -8.84044419 3.11133826 -9 0 C-3.375 -1.125 -3.375 -1.125 0 0 Z " fill="#252524" transform="translate(86,49)"/>
<path d="M0 0 C0.495 1.485 0.495 1.485 1 3 C0.525625 3.763125 0.05125 4.52625 -0.4375 5.3125 C-2.26992936 8.46427849 -2.25005831 10.41583089 -2 14 C-1.34 14 -0.68 14 0 14 C-0.2784375 14.86625 -0.2784375 14.86625 -0.5625 15.75 C-1.16209875 17.93487264 -1.16209875 17.93487264 -0.5 19.78125 C0.129397 22.57419917 -0.13312492 24.90916589 -0.4375 27.75 C-0.53933594 28.73484375 -0.64117187 29.7196875 -0.74609375 30.734375 C-0.82988281 31.48203125 -0.91367188 32.2296875 -1 33 C-1.33 32.34 -1.66 31.68 -2 31 C-2.66 31 -3.32 31 -4 31 C-4 29.68 -4 28.36 -4 27 C-6.12936743 27.95864484 -6.12936743 27.95864484 -8.0625 29.8125 C-15.52104371 35.36673468 -21.41706882 36.671428 -30.75 35.67578125 C-37.38901248 34.29531351 -41.09884996 30.46161006 -45 25 C-45.33 25.66 -45.66 26.32 -46 27 C-47.65 27 -49.3 27 -51 27 C-48.80642235 18.8837627 -44.63186396 10.34233485 -38 5 C-37.34 5 -36.68 5 -36 5 C-34.5 9.5 -34.5 9.5 -33 14 C-26.78400366 18.14399756 -18.14837313 17.36383935 -11 17 C-10.34 16.67 -9.68 16.34 -9 16 C-10.41963409 21.67853635 -13.39363961 25.53174216 -17 30 C-14.47636012 29.37466625 -14.47636012 29.37466625 -12 28 C-11.36858988 25.76864953 -11.36858988 25.76864953 -11 23 C-9.78472676 20.27069884 -8.40598249 17.63539973 -7 15 C-7.66 14.67 -8.32 14.34 -9 14 C-8.443125 13.360625 -7.88625 12.72125 -7.3125 12.0625 C-4.43664055 8.25392938 -2.2360513 4.2063424 0 0 Z " fill="#111111" transform="translate(78,78)"/>
<path d="M0 0 C2.14336161 3.4766338 2.21277626 6.21229195 2.125 10.25 C2.10695312 11.32765625 2.08890625 12.4053125 2.0703125 13.515625 C2.04710937 14.33546875 2.02390625 15.1553125 2 16 C-0.31 16.33 -2.62 16.66 -5 17 C-4.7834375 17.75925781 -4.566875 18.51851562 -4.34375 19.30078125 C-4.0653125 20.29464844 -3.786875 21.28851563 -3.5 22.3125 C-3.2215625 23.29863281 -2.943125 24.28476563 -2.65625 25.30078125 C-2 28 -2 28 -2 31 C-2.66 29.68 -3.32 28.36 -4 27 C-4.66 27 -5.32 27 -6 27 C-5.95359375 27.61488281 -5.9071875 28.22976562 -5.859375 28.86328125 C-5.56512499 35.45237962 -5.56512499 35.45237962 -7.6875 38.125 C-10.53622558 39.20289616 -12.12342252 38.87895423 -15 38 C-15 39.32 -15 40.64 -15 42 C-18 44 -18 44 -22 44 C-22 44.66 -22 45.32 -22 46 C-22.99 45.67 -23.98 45.34 -25 45 C-25 44.34 -25 43.68 -25 43 C-25.66 43 -26.32 43 -27 43 C-27.33 43.99 -27.66 44.98 -28 46 C-30.475 46.495 -30.475 46.495 -33 47 C-32.67 46.01 -32.34 45.02 -32 44 C-30.68 44 -29.36 44 -28 44 C-28.165 43.195625 -28.33 42.39125 -28.5 41.5625 C-29.68279169 33.13510922 -29.68279169 33.13510922 -29 29 C-26.8125 26.25 -26.8125 26.25 -24 24 C-22.700625 22.700625 -22.700625 22.700625 -21.375 21.375 C-19.58333333 19.58333333 -17.79166667 17.79166667 -16 16 C-15.34 15.278125 -14.68 14.55625 -14 13.8125 C-12 12 -12 12 -9 12 C-9 9.36 -9 6.72 -9 4 C-8.34 4 -7.68 4 -7 4 C-6.67 3.01 -6.34 2.02 -6 1 C-3 0 -3 0 0 0 Z " fill="#626261" transform="translate(67,40)"/>
<path d="M0 0 C1.43931117 0.45261358 2.87638999 0.91232979 4.3125 1.375 C5.11300781 1.63023437 5.91351563 1.88546875 6.73828125 2.1484375 C9 3 9 3 12 5 C14.73457747 5.61394221 17.42928983 6.15285223 20.1875 6.625 C20.93708984 6.7590625 21.68667969 6.893125 22.45898438 7.03125 C24.30487928 7.36045419 26.15230309 7.68106498 28 8 C27.67 8.99 27.34 9.98 27 11 C26.34 11 25.68 11 25 11 C25 15.62 25 20.24 25 25 C24.67 25 24.34 25 24 25 C24 21.37 24 17.74 24 14 C20.73539027 15.80412643 19.11070205 16.83394693 17 20 C17.33 20.99 17.66 21.98 18 23 C17.34 23.99 16.68 24.98 16 26 C16 24.68 16 23.36 16 22 C15.34 22 14.68 22 14 22 C14 22.99 14 23.98 14 25 C11.21953235 26.8536451 9.84381975 27.41419058 6.69140625 28.0703125 C5.86189453 28.24433594 5.03238281 28.41835937 4.17773438 28.59765625 C3.31470703 28.77167969 2.45167969 28.94570312 1.5625 29.125 C0.70333984 29.30675781 -0.15582031 29.48851562 -1.04101562 29.67578125 C-4.83247958 30.45819352 -8.09952822 31 -12 31 C-11.4149734 25.5251988 -9.49986538 21.11019436 -7.1875 16.1875 C-6.84396484 15.41212891 -6.50042969 14.63675781 -6.14648438 13.83789062 C-5.80294922 13.10119141 -5.45941406 12.36449219 -5.10546875 11.60546875 C-4.64370239 10.60229614 -4.64370239 10.60229614 -4.17260742 9.57885742 C-3 8 -3 8 -1.00219727 7.25341797 C2.55182573 6.80358552 5.58604632 8.03271313 9 9 C9 8.34 9 7.68 9 7 C6.03 6.67 3.06 6.34 0 6 C0 4.02 0 2.04 0 0 Z " fill="#F9F9F7" transform="translate(116,142)"/>
<path d="M0 0 C0.33 0.66 0.66 1.32 1 2 C1.66 2 2.32 2 3 2 C3.33 2.66 3.66 3.32 4 4 C4.99 4 5.98 4 7 4 C7 4.66 7 5.32 7 6 C5.906875 5.9175 4.81375 5.835 3.6875 5.75 C0.03362444 5.63997186 0.03362444 5.63997186 -2.0625 7.6875 C-3.23061313 9.98235048 -3.23061313 9.98235048 -2.5625 12.5 C-0.01268679 16.57970114 3.50582873 18.50194291 8 20 C8.66 18.68 9.32 17.36 10 16 C10.66 16.33 11.32 16.66 12 17 C11.525625 17.515625 11.05125 18.03125 10.5625 18.5625 C8.57190593 21.66782675 8.34939182 24.36632504 8 28 C11.87587024 31.38241454 14.65431108 31.49631521 19.6484375 31.37109375 C22.22768338 31.15472859 22.22768338 31.15472859 24.625 29 C25.07875 28.34 25.5325 27.68 26 27 C23.89851796 23.01824456 21.63094642 20.64960955 18 18 C18.54226981 21.79588866 20.20127563 23.47211993 23 26 C19.9054129 25.6684371 18.97195314 24.97117406 16.75 22.6875 C15 20 15 20 15 16 C14.01 15.67 13.02 15.34 12 15 C12 14.01 12 13.02 12 12 C11.030625 11.731875 10.06125 11.46375 9.0625 11.1875 C7.5465625 10.5996875 7.5465625 10.5996875 6 10 C5.67 9.01 5.34 8.02 5 7 C14.0761665 8.01439508 21.34026866 14.06023961 28 20 C27.649375 19.46375 27.29875 18.9275 26.9375 18.375 C25.71075751 15.26725237 26.27143569 13.20568297 27 10 C27.66 10 28.32 10 29 10 C29.06058594 10.61488281 29.12117188 11.22976562 29.18359375 11.86328125 C29.26738281 12.67152344 29.35117188 13.47976562 29.4375 14.3125 C29.51871094 15.11300781 29.59992188 15.91351563 29.68359375 16.73828125 C29.95265693 19.16087179 29.95265693 19.16087179 31 22 C31.763125 22.28875 32.52625 22.5775 33.3125 22.875 C38.67069068 25.11796354 40.56367126 30.02141519 43 35 C43.5775 35.721875 44.155 36.44375 44.75 37.1875 C45.1625 37.785625 45.575 38.38375 46 39 C45.67 39.99 45.34 40.98 45 42 C44.21625 41.525625 43.4325 41.05125 42.625 40.5625 C41.11051322 39.66101977 39.5764103 38.78820515 38 38 C37.67 37.01 37.34 36.02 37 35 C36.01 34.67 35.02 34.34 34 34 C37.5412914 42.12797826 37.5412914 42.12797826 44 48 C41.0602001 47.67335557 39.27653503 47.20333458 36.875 45.4375 C34.34424013 42.14751216 33.31149105 38.93447314 32 35 C32 35.66 32 36.32 32 37 C31.34 37 30.68 37 30 37 C29.505 32.545 29.505 32.545 29 28 C28.34 28 27.68 28 27 28 C26.773125 28.61875 26.54625 29.2375 26.3125 29.875 C24.54501287 32.73664583 23.22985688 33.13870483 20 34 C14.95748875 34.45022422 12.08209181 34.03241106 8 31 C6 29 6 29 5.8125 26 C6 23 6 23 7 21 C6.319375 20.95875 5.63875 20.9175 4.9375 20.875 C1.24812099 19.77603604 -0.64109256 17.84109916 -3.3515625 15.1796875 C-3.89554688 14.79039063 -4.43953125 14.40109375 -5 14 C-5.99 14.33 -6.98 14.66 -8 15 C-8 13.02 -8 11.04 -8 9 C-9.98 9 -11.96 9 -14 9 C-13.67 7.68 -13.34 6.36 -13 5 C-13 5.66 -13 6.32 -13 7 C-11.68 7 -10.36 7 -9 7 C-9 5.35 -9 3.7 -9 2 C-8.34 2 -7.68 2 -7 2 C-7 4.64 -7 7.28 -7 10 C-3.60582235 6.87378374 -1.3937282 4.43458973 0 0 Z " fill="#8E8E8D" transform="translate(128,99)"/>
<path d="M0 0 C1.28080392 3.84241177 0.30805584 5.22117203 -1 9 C-1.71636922 12.97642973 -1.71636922 12.97642973 -2 17 C-2 17.99 -2 18.98 -2 20 C-2.33 20.33 -2.66 20.66 -3 21 C-2.67 21 -2.34 21 -2 21 C-1.87882812 22.0621875 -1.75765625 23.124375 -1.6328125 24.21875 C-0.80431481 31.2734828 0.00527197 38.16093248 2 45 C0.0625 44.625 0.0625 44.625 -2 44 C-2.33 43.34 -2.66 42.68 -3 42 C-3.33 42.66 -3.66 43.32 -4 44 C-6.5625 44.625 -6.5625 44.625 -9 45 C-9 44.34 -9 43.68 -9 43 C-10.65 42.67 -12.3 42.34 -14 42 C-13.98839844 41.10796875 -13.97679688 40.2159375 -13.96484375 39.296875 C-13.95582031 38.12640625 -13.94679688 36.9559375 -13.9375 35.75 C-13.92589844 34.58984375 -13.91429688 33.4296875 -13.90234375 32.234375 C-13.86955307 29.12343941 -13.86955307 29.12343941 -14.62890625 26.703125 C-14.75136719 26.14109375 -14.87382813 25.5790625 -15 25 C-14.34 24.34 -13.68 23.68 -13 23 C-13.66 23 -14.32 23 -15 23 C-16.08190889 19.83749708 -16.28642745 17.70804865 -15.0234375 14.5859375 C-14.127824 12.85232306 -13.21345272 11.12827972 -12.28125 9.4140625 C-10.83735208 6.69354752 -9.85554708 3.95552627 -9 1 C-8.67 1 -8.34 1 -8 1 C-8 3.97 -8 6.94 -8 10 C-7.34 10 -6.68 10 -6 10 C-5.9071875 8.9171875 -5.9071875 8.9171875 -5.8125 7.8125 C-4.75543353 4.15342375 -2.79449929 2.50788398 0 0 Z " fill="#EAEAE9" transform="translate(91,69)"/>
<path d="M0 0 C3.44756956 1.21130822 5.49405626 2.38510218 8 5 C10.09989652 6.17574711 10.09989652 6.17574711 12 7 C12 7.99 12 8.98 12 10 C13.32 10.33 14.64 10.66 16 11 C16.103125 11.94875 16.20625 12.8975 16.3125 13.875 C16.68539295 17.29107501 16.68539295 17.29107501 20 19 C19.484375 18.5875 18.96875 18.175 18.4375 17.75 C17.963125 17.1725 17.48875 16.595 17 16 C17.41015625 13.890625 17.41015625 13.890625 18 12 C19.31886772 13.09655288 20.62990057 14.20253423 21.9375 15.3125 C22.66839844 15.92738281 23.39929688 16.54226562 24.15234375 17.17578125 C26 19 26 19 27 22 C24.73236827 25.02350897 23.39176655 26.72392828 19.6171875 27.47265625 C15.41837137 27.61679471 12.61679981 27.30235285 8.8125 25.4375 C7 23 7 23 7.0625 19.5 C7.81173825 16.70284385 8.52121706 14.46463824 10 12 C9.01 13.485 9.01 13.485 8 15 C3.59124045 14.49614177 1.17449034 13.0886933 -2 10 C-3.3125 7.25 -3.3125 7.25 -4 5 C-2.68 3.35 -1.36 1.7 0 0 Z " fill="#F9F9F8" transform="translate(128,104)"/>
<path d="M0 0 C0.99 0.33 1.98 0.66 3 1 C3.05789006 4.45826342 3.09355821 7.91640293 3.125 11.375 C3.14175781 12.35984375 3.15851562 13.3446875 3.17578125 14.359375 C3.18222656 15.30039063 3.18867187 16.24140625 3.1953125 17.2109375 C3.20578613 18.08024902 3.21625977 18.94956055 3.22705078 19.84521484 C3 22 3 22 1 24 C0.01 24 -0.98 24 -2 24 C-2 23.01 -2 22.02 -2 21 C-2.99 21 -3.98 21 -5 21 C-4.87625 22.3921875 -4.87625 22.3921875 -4.75 23.8125 C-5 27 -5 27 -6.625 28.9375 C-9.76127543 30.34057059 -11.72450019 29.81887495 -15 29 C-16.46930584 24.59208248 -16.98166332 20.58109549 -16 16 C-13.71168043 13.11921765 -10.97862064 11.12840134 -8 9 C-5.21750174 6.43717266 -3.63159996 4.37974278 -2 1 C-1.34 0.67 -0.68 0.34 0 0 Z " fill="#E6E6E5" transform="translate(56,53)"/>
<path d="M0 0 C5.47569619 3.43573094 5.47569619 3.43573094 6.7109375 7.12109375 C7.48059745 12.19229766 7.06192757 15.71330141 4 20 C2.35666496 21.03789581 0.68756133 22.03567924 -1 23 C-2.81246971 24.9112419 -4.37949911 26.91649886 -6 29 C-6.66 28.67 -7.32 28.34 -8 28 C-7.27683594 27.22076172 -7.27683594 27.22076172 -6.5390625 26.42578125 C-1.8123208 21.30492579 -1.8123208 21.30492579 1 15 C-0.04800781 15.12568359 -0.04800781 15.12568359 -1.1171875 15.25390625 C-2.02726562 15.35574219 -2.93734375 15.45757812 -3.875 15.5625 C-4.77992187 15.66691406 -5.68484375 15.77132812 -6.6171875 15.87890625 C-9 16 -9 16 -11 15 C-10.86125017 23.27453513 -10.35303142 29.46179557 -5 36 C-9.19594515 34.10477268 -10.87692262 32.17033056 -13 28 C-13.84955745 22.30174881 -12.72908218 17.40338182 -11 12 C-11 11.01 -11 10.02 -11 9 C-13.97 8.505 -13.97 8.505 -17 8 C-13.07047359 3.38707769 -6.27847744 -2.49348901 0 0 Z " fill="#6A6A69" transform="translate(107,134)"/>
<path d="M0 0 C5.28840947 4.93584884 6.43856409 8.8760481 7 16 C7.11482523 20.33438739 7.09478038 24.66449666 7.0625 29 C7.05798828 30.15628906 7.05347656 31.31257813 7.04882812 32.50390625 C7.03712529 35.33599225 7.02072996 38.16796811 7 41 C1.89491186 39.44863784 -2.67666537 37.94523902 -7.0625 34.8125 C-7.81660156 34.28269531 -8.57070312 33.75289062 -9.34765625 33.20703125 C-9.89292969 32.80871094 -10.43820313 32.41039062 -11 32 C-10.57074219 31.62230469 -10.14148438 31.24460937 -9.69921875 30.85546875 C-7.57787037 28.53905385 -6.28079604 26.08594807 -4.8125 23.3125 C-4.28269531 22.31863281 -3.75289062 21.32476562 -3.20703125 20.30078125 C-2.80871094 19.54152344 -2.41039062 18.78226563 -2 18 C0.76276177 18.52268466 3.3260876 19.10869587 6 20 C5.57372794 17.93515022 5.13348551 15.87318179 4.6875 13.8125 C4.32205078 12.08966797 4.32205078 12.08966797 3.94921875 10.33203125 C3.02900835 7.10182768 1.78495331 4.81492637 0 2 C0 1.34 0 0.68 0 0 Z " fill="#DD294F" transform="translate(213,62)"/>
<path d="M0 0 C5.08469491 -0.52150717 8.39257004 0.84478429 12.8515625 3.02734375 C14.89662359 3.95319868 16.81063134 4.52943434 19 5 C19.33 4.01 19.66 3.02 20 2 C20.061875 2.598125 20.12375 3.19625 20.1875 3.8125 C21.3236757 6.87143458 23.17330142 7.55041099 26 9 C25.01 9.495 25.01 9.495 24 10 C22.68 9.34 21.36 8.68 20 8 C20.66 12.62 21.32 17.24 22 22 C23.65 22 25.3 22 27 22 C27 22.33 27 22.66 27 23 C21.97727673 23.45661121 19.145123 22.97608324 15.1159668 19.8503418 C14.58269775 19.404729 14.04942871 18.95911621 13.5 18.5 C12.93901611 18.04729736 12.37803223 17.59459473 11.80004883 17.12817383 C2.57941736 9.53039485 2.57941736 9.53039485 0 5 C-0.16796875 2.26953125 -0.16796875 2.26953125 0 0 Z " fill="#EFEFED" transform="translate(99,119)"/>
<path d="M0 0 C1.65 0 3.3 0 5 0 C5 0.66 5 1.32 5 2 C5.99 2.33 6.98 2.66 8 3 C8.99 4.485 8.99 4.485 10 6 C10.33 5.34 10.66 4.68 11 4 C12.9375 4.8125 12.9375 4.8125 15 6 C15.33 6.99 15.66 7.98 16 9 C15.34 9 14.68 9 14 9 C14.33 9.66 14.66 10.32 15 11 C15.37863424 14.28149677 15.66339046 16.86382007 13.953125 19.79296875 C12.625 21.4375 12.625 21.4375 10 24 C9.34 24 8.68 24 8 24 C8 21.36 8 18.72 8 16 C7.34 16 6.68 16 6 16 C6 17.65 6 19.3 6 21 C4.68 21 3.36 21 2 21 C1.67 21.66 1.34 22.32 1 23 C1.66 23.33 2.32 23.66 3 24 C2.01 24 1.02 24 0 24 C-0.19533059 20.9378174 -0.38153284 17.87553679 -0.5625 14.8125 C-0.61857422 13.94818359 -0.67464844 13.08386719 -0.73242188 12.19335938 C-0.9761489 7.95250921 -1.15770796 4.14202181 0 0 Z " fill="#F2F2F1" transform="translate(113,85)"/>
<path d="M0 0 C0.33 0 0.66 0 1 0 C1 0.845625 1 1.69125 1 2.5625 C2.29723636 7.02174998 4.54569042 8.47955876 8.1875 11.19140625 C10.40964928 13.40876642 10.75306835 14.90821001 11 18 C10 19 10 19 7.93359375 19.09765625 C7.10988281 19.08605469 6.28617188 19.07445313 5.4375 19.0625 C4.61121094 19.05347656 3.78492188 19.04445313 2.93359375 19.03515625 C1.97646484 19.01775391 1.97646484 19.01775391 1 19 C0.48673477 24.38928493 1.93000206 26.66588526 5 31 C7.23648009 36.0320802 7.21597596 40.60060096 7 46 C6.67 46 6.34 46 6 46 C5.90203125 45.38253906 5.8040625 44.76507813 5.703125 44.12890625 C4.19903077 35.6100277 2.09568946 27.51886958 -5 22 C-11.09012366 18.39103783 -15.97739199 17.55412013 -23 18 C-20.12328836 23.86849175 -17.39330111 26.36989348 -12 30 C-12 30.66 -12 31.32 -12 32 C-15.9743071 30.67523097 -18.15279292 29.03702088 -21 26 C-21.99 25.34 -22.98 24.68 -24 24 C-24 23.34 -24 22.68 -24 22 C-24.66 21.34 -25.32 20.68 -26 20 C-28.60280568 20.32041397 -28.60280568 20.32041397 -31 21 C-29.625 19.5 -29.625 19.5 -28 18 C-27.34 18 -26.68 18 -26 18 C-26.33 17.01 -26.66 16.02 -27 15 C-26.34 15 -25.68 15 -25 15 C-25 15.66 -25 16.32 -25 17 C-24.34 16.67 -23.68 16.34 -23 16 C-14.98858462 15.22566245 -8.76089437 16.49273709 -2 21 C-2 16.05 -2 11.1 -2 6 C-4.475 5.505 -4.475 5.505 -7 5 C-4 3 -4 3 -1.8125 3.375 C-1.214375 3.58125 -0.61625 3.7875 0 4 C0 2.68 0 1.36 0 0 Z " fill="#9C9C9B" transform="translate(162,80)"/>
<path d="M0 0 C3.95116894 0.58024159 6.14559133 2.57366563 9.1875 5.0625 C14.49781766 9.06665081 17.46459011 9.85710294 24 9 C24 9.99 24 10.98 24 12 C26.49854767 12.65192688 28.9986137 13.29663064 31.5 13.9375 C32.19609375 14.11990234 32.8921875 14.30230469 33.609375 14.49023438 C38.39837494 15.70965566 43.08537471 16.47422365 48 17 C48 17.66 48 18.32 48 19 C48.99 19.020625 49.98 19.04125 51 19.0625 C56.2130745 19.74478378 59.4126785 23.43131394 63 27 C62.67 27.66 62.34 28.32 62 29 C61.67 29 61.34 29 61 29 C61 29.99 61 30.98 61 32 C59.02 32.495 59.02 32.495 57 33 C56.76216797 31.95199219 56.76216797 31.95199219 56.51953125 30.8828125 C56.16955078 29.51769531 56.16955078 29.51769531 55.8125 28.125 C55.59207031 27.22007812 55.37164062 26.31515625 55.14453125 25.3828125 C54.02045766 22.35458631 54.02045766 22.35458631 49 21 C49.495 26.445 49.495 26.445 50 32 C50.66 32 51.32 32 52 32 C52 32.66 52 33.32 52 34 C51.01 34 50.02 34 49 34 C48.49363393 32.25183142 47.99515381 30.50137737 47.5 28.75 C47.2215625 27.77546875 46.943125 26.8009375 46.65625 25.796875 C46 23 46 23 46 19 C45.27296875 18.96261719 44.5459375 18.92523438 43.796875 18.88671875 C32.14133217 18.12462556 22.22486828 15.72321167 12 10 C12 11.98 12 13.96 12 16 C14.97 16.33 17.94 16.66 21 17 C21 17.66 21 18.32 21 19 C17.04 18.67 13.08 18.34 9 18 C8.67 19.65 8.34 21.3 8 23 C7.01 22.67 6.02 22.34 5 22 C5.66 22 6.32 22 7 22 C7.12375 21.236875 7.2475 20.47375 7.375 19.6875 C8 17 8 17 10 14 C9.34 13.67 8.68 13.34 8 13 C8.33 12.67 8.66 12.34 9 12 C8.09960291 7.69810279 6.92463649 5.63997612 3.375 3.1875 C2.74335937 2.78917969 2.11171875 2.39085937 1.4609375 1.98046875 C0.97882813 1.65691406 0.49671875 1.33335937 0 1 C0 0.67 0 0.34 0 0 Z " fill="#555554" transform="translate(104,132)"/>
<path d="M0 0 C2.56616632 3.84924948 2.55097676 6.4349304 3 11 C5.75694776 12.08567155 6.90823774 12.0306737 9.76953125 11.07421875 C10.77371094 10.61660156 11.77789062 10.15898437 12.8125 9.6875 C13.88113281 9.2234375 14.94976562 8.759375 16.05078125 8.28125 C17.02402344 7.8584375 17.99726563 7.435625 19 7 C25.33593602 4.62402399 31.32221217 4.80262696 38 5 C38.495 5.99 38.495 5.99 39 7 C37.61941406 7.02126953 37.61941406 7.02126953 36.2109375 7.04296875 C23.13626719 7.53559889 12.44298607 11.2072996 1.109375 17.86328125 C-1 19 -1 19 -3 19 C-3.103125 19.598125 -3.20625 20.19625 -3.3125 20.8125 C-4.08876455 23.28243264 -5.07088921 24.32251235 -7 26 C-8.78402396 24.21597604 -8.13232529 21.84121603 -8.13671875 19.46875 C-8.13285156 18.7365625 -8.12898438 18.004375 -8.125 17.25 C-8.12886719 16.53328125 -8.13273437 15.8165625 -8.13671875 15.078125 C-8.1224997 7.3429636 -8.1224997 7.3429636 -7 4 C-4.83241681 2.18588362 -2.56404485 1.25871293 0 0 Z " fill="#181818" transform="translate(133,189)"/>
<path d="M0 0 C2.11521029 3.05530376 3.92507793 6.16443044 5.6875 9.4375 C2.82052508 8.15230435 0.71142288 6.86620746 -1.3125 4.4375 C-1.3125 3.7775 -1.3125 3.1175 -1.3125 2.4375 C-2.6325 2.4375 -3.9525 2.4375 -5.3125 2.4375 C-5.3125 1.7775 -5.3125 1.1175 -5.3125 0.4375 C-11.92335476 0.92719295 -17.26227014 2.77192742 -23.3125 5.4375 C-23.33955729 7.20824917 -23.35892195 8.97911711 -23.375 10.75 C-23.38660156 11.73613281 -23.39820313 12.72226563 -23.41015625 13.73828125 C-23.43579862 16.53713849 -23.43579862 16.53713849 -22.3125 19.4375 C-23.3025 19.1075 -24.2925 18.7775 -25.3125 18.4375 C-25.9725 15.1375 -26.6325 11.8375 -27.3125 8.4375 C-28.446875 9.05625 -29.58125 9.675 -30.75 10.3125 C-31.38808594 10.66054687 -32.02617187 11.00859375 -32.68359375 11.3671875 C-34.47868315 12.35160024 -34.47868315 12.35160024 -35.3125 14.4375 C-34.6525 14.7675 -33.9925 15.0975 -33.3125 15.4375 C-33.6425 15.7675 -33.9725 16.0975 -34.3125 16.4375 C-34.39881874 17.78017413 -34.41956473 19.12724322 -34.41015625 20.47265625 C-34.40693359 21.28154297 -34.40371094 22.09042969 -34.40039062 22.92382812 C-34.39201172 23.77396484 -34.38363281 24.62410156 -34.375 25.5 C-34.37048828 26.35400391 -34.36597656 27.20800781 -34.36132812 28.08789062 C-34.34950373 30.20445663 -34.33156769 32.32098685 -34.3125 34.4375 C-37.2825 34.9325 -37.2825 34.9325 -40.3125 35.4375 C-41.84695094 32.36859813 -40.86234289 29.73655734 -40.3125 26.4375 C-39.9825 26.4375 -39.6525 26.4375 -39.3125 26.4375 C-39.3125 28.0875 -39.3125 29.7375 -39.3125 31.4375 C-38.6525 31.4375 -37.9925 31.4375 -37.3125 31.4375 C-37.15025137 25.35738563 -37.15025137 25.35738563 -38.0625 19.375 C-38.42694182 15.09280863 -36.73243219 11.92597368 -34.3125 8.4375 C-33.3225 7.7775 -32.3325 7.1175 -31.3125 6.4375 C-31.3125 5.4475 -31.3125 4.4575 -31.3125 3.4375 C-30.466875 3.334375 -29.62125 3.23125 -28.75 3.125 C-25.23505169 2.548583 -25.23505169 2.548583 -21.875 0.9375 C-15.84272734 -1.60240428 -5.84254748 -3.94766722 0 0 Z " fill="#777776" transform="translate(160.3125,181.5625)"/>
<path d="M0 0 C2.34022711 2.34022711 3.23004878 4.47712558 4.5625 7.5 C4.99691406 8.4796875 5.43132813 9.459375 5.87890625 10.46875 C6.43384766 11.72171875 6.43384766 11.72171875 7 13 C7.33 13.66 7.66 14.32 8 15 C11.05960689 13.95099192 12.96944098 13.02814646 15.375 10.8125 C18 9 18 9 21.5 9.0625 C25 10 25 10 27.5625 11.5625 C30.64131589 13.37821194 32.47205162 13.36749462 36 13 C38.78566059 12.08742694 38.78566059 12.08742694 41 11 C38.9375 13.5625 38.9375 13.5625 36 16 C30.89249848 16 27.48006705 14.24003353 23 12 C19.64261717 11.4404362 18.47132241 11.70995544 15.5625 13.5 C13.57860226 16.04711633 13.57860226 16.04711633 14.6875 19.6875 C14.91050781 20.37585938 15.13351563 21.06421875 15.36328125 21.7734375 C16.04615018 24.16138407 16.22586847 26.3377227 16.375 28.8125 C16.69403179 32.3197822 16.69403179 32.3197822 18.9375 35.0625 C20.92586031 36.13793431 20.92586031 36.13793431 23 36 C26.71692624 41.57538935 26.75668425 47.43551846 26 54 C25.34 54.66 24.68 55.32 24 56 C24.01160156 55.18015625 24.02320312 54.3603125 24.03515625 53.515625 C24.04417969 52.43796875 24.05320312 51.3603125 24.0625 50.25 C24.07410156 49.18265625 24.08570312 48.1153125 24.09765625 47.015625 C24.01462108 44.45149886 23.85777898 42.40514498 23 40 C21.31980946 38.82342532 21.31980946 38.82342532 19 38 C17.74908774 37.46044342 16.49913741 36.91865292 15.25 36.375 C14.1775 35.92125 13.105 35.4675 12 35 C12.99 34.505 12.99 34.505 14 34 C13.85833643 32.08302063 13.71150416 30.16642277 13.5625 28.25 C13.48128906 27.18265625 13.40007812 26.1153125 13.31640625 25.015625 C13.05909227 22.56320038 12.68187782 20.36078709 12 18 C10.02 18.33 8.04 18.66 6 19 C5.67 20.98 5.34 22.96 5 25 C4.67 25 4.34 25 4 25 C4.13019531 24.40574219 4.26039062 23.81148437 4.39453125 23.19921875 C5.51526219 16.464359 4.33080124 12.43032602 1.12890625 6.4453125 C0 4 0 4 0 0 Z " fill="#462B2E" transform="translate(55,22)"/>
<path d="M0 0 C0.66 0 1.32 0 2 0 C2.06058594 0.61488281 2.12117187 1.22976562 2.18359375 1.86328125 C2.26738281 2.67152344 2.35117188 3.47976562 2.4375 4.3125 C2.51871094 5.11300781 2.59992188 5.91351563 2.68359375 6.73828125 C2.95265693 9.16087179 2.95265693 9.16087179 4 12 C5.1446875 12.433125 5.1446875 12.433125 6.3125 12.875 C11.67069068 15.11796354 13.56367126 20.02141519 16 25 C16.5775 25.721875 17.155 26.44375 17.75 27.1875 C18.1625 27.785625 18.575 28.38375 19 29 C18.67 29.99 18.34 30.98 18 32 C17.21625 31.525625 16.4325 31.05125 15.625 30.5625 C14.11051322 29.66101977 12.5764103 28.78820515 11 28 C10.67 27.01 10.34 26.02 10 25 C9.01 24.67 8.02 24.34 7 24 C10.5412914 32.12797826 10.5412914 32.12797826 17 38 C12.67998734 37.51999859 10.72677809 36.38496591 8 33 C5.80060437 28.93111809 6 25.55209667 6 21 C4.69612393 17.50698464 2.73609426 15.70284371 -0.125 13.375 C-1.45281461 12.29290197 -2.75453824 11.17594761 -4 10 C-4 9.34 -4 8.68 -4 8 C-1.525 8.99 -1.525 8.99 1 10 C0.649375 9.46375 0.29875 8.9275 -0.0625 8.375 C-1.28924249 5.26725237 -0.72856431 3.20568297 0 0 Z " fill="#303030" transform="translate(155,109)"/>
<path d="M0 0 C1.43931117 0.45261358 2.87638999 0.91232979 4.3125 1.375 C5.11300781 1.63023437 5.91351563 1.88546875 6.73828125 2.1484375 C9 3 9 3 12 5 C14.73457747 5.61394221 17.42928983 6.15285223 20.1875 6.625 C20.93708984 6.7590625 21.68667969 6.893125 22.45898438 7.03125 C24.30487928 7.36045419 26.15230309 7.68106498 28 8 C27.67 8.99 27.34 9.98 27 11 C26.34 11 25.68 11 25 11 C25 15.62 25 20.24 25 25 C24.67 25 24.34 25 24 25 C24 21.37 24 17.74 24 14 C20.73539027 15.80412643 19.11070205 16.83394693 17 20 C17.33 20.99 17.66 21.98 18 23 C17.34 23.99 16.68 24.98 16 26 C16 24.68 16 23.36 16 22 C15.34 21.67 14.68 21.34 14 21 C14.99 18.03 15.98 15.06 17 12 C16.34 12 15.68 12 15 12 C15 11.34 15 10.68 15 10 C12.03 9.505 12.03 9.505 9 9 C9 8.34 9 7.68 9 7 C6.03 6.67 3.06 6.34 0 6 C0 4.02 0 2.04 0 0 Z " fill="#4F4F4F" transform="translate(116,142)"/>
<path d="M0 0 C0.66 0 1.32 0 2 0 C2.28875 1.11375 2.5775 2.2275 2.875 3.375 C3.69241329 7.00291092 3.69241329 7.00291092 6 9 C6.99 9 7.98 9 9 9 C9.66 7.68 10.32 6.36 11 5 C11.625 6.875 11.625 6.875 12 9 C10 11 10 11 7.625 11.4375 C5 11 5 11 2.6875 8.625 C1 6 1 6 1 4 C-1.47859908 6.2008849 -2.61210366 8.06372969 -3.6875 11.1875 C-3.93886719 11.90292969 -4.19023438 12.61835937 -4.44921875 13.35546875 C-4.63097656 13.89816406 -4.81273438 14.44085938 -5 15 C-4.34 15.33 -3.68 15.66 -3 16 C-3.33 16.33 -3.66 16.66 -4 17 C-4.3632306 22.07454515 -4.02224111 27.01657457 -3 32 C-3.33 31.34 -3.66 30.68 -4 30 C-4.66 30 -5.32 30 -6 30 C-6 28.68 -6 27.36 -6 26 C-6.78375 25.9175 -7.5675 25.835 -8.375 25.75 C-11 25 -11 25 -12.21875 23.25 C-13.17768737 20.48826037 -12.86693271 19.0528569 -12.125 16.25 C-11.92132813 15.45078125 -11.71765625 14.6515625 -11.5078125 13.828125 C-11.34023437 13.22484375 -11.17265625 12.6215625 -11 12 C-11.66 12 -12.32 12 -13 12 C-12.67 10.35 -12.34 8.7 -12 7 C-8.535 8.485 -8.535 8.485 -5 10 C-4.731875 9.0925 -4.46375 8.185 -4.1875 7.25 C-3.09868368 4.27008166 -2.13608899 2.31409641 0 0 Z " fill="#6D6D6C" transform="translate(122,55)"/>
<path d="M0 0 C0.99 0.33 1.98 0.66 3 1 C3.05789006 4.45826342 3.09355821 7.91640293 3.125 11.375 C3.14175781 12.35984375 3.15851562 13.3446875 3.17578125 14.359375 C3.18222656 15.30039063 3.18867187 16.24140625 3.1953125 17.2109375 C3.20578613 18.08024902 3.21625977 18.94956055 3.22705078 19.84521484 C3 22 3 22 1 24 C0.01 24 -0.98 24 -2 24 C-2 23.01 -2 22.02 -2 21 C-2.99 21 -3.98 21 -5 21 C-5.02712066 19.56260487 -5.04645067 18.12506137 -5.0625 16.6875 C-5.07410156 15.88699219 -5.08570313 15.08648437 -5.09765625 14.26171875 C-5 12 -5 12 -4 9 C-4.66 8.67 -5.32 8.34 -6 8 C-2.25 1.125 -2.25 1.125 0 0 Z " fill="#F9F9F8" transform="translate(56,53)"/>
<path d="M0 0 C2.16300243 1.5131095 4.01853634 3.24370267 6 5 C5.67 6.65 5.34 8.3 5 10 C-2.52719602 10.25515919 -9.58851545 9.28297723 -17 8 C-14.365197 5.20351591 -11.84299153 3.08224349 -8.5 1.1875 C-7.7471875 0.74792969 -6.994375 0.30835938 -6.21875 -0.14453125 C-3.58193404 -1.16119092 -2.58488163 -1.07178019 0 0 Z " fill="#F6F6F5" transform="translate(107,134)"/>
<path d="M0 0 C0.66 0 1.32 0 2 0 C2.66 1.65 3.32 3.3 4 5 C4.66 5 5.32 5 6 5 C6 5.99 6 6.98 6 8 C5.34 8 4.68 8 4 8 C3.67 15.59 3.34 23.18 3 31 C-0.68755738 28.54162842 -1.22403715 26.94905275 -2.49609375 22.83984375 C-3.85845351 15.16204883 -2.67515073 7.25483264 0 0 Z " fill="#FCFCFB" transform="translate(83,81)"/>
<path d="M0 0 C0.66 0 1.32 0 2 0 C1.67 1.32 1.34 2.64 1 4 C1.57105469 4.22816406 2.14210937 4.45632812 2.73046875 4.69140625 C5.61145102 6.35255782 7.23391133 8.34971411 9.3125 10.9375 C10.03050781 11.81277344 10.74851563 12.68804687 11.48828125 13.58984375 C11.98714844 14.38519531 12.48601562 15.18054688 13 16 C12.67 16.99 12.34 17.98 12 19 C13.18998263 21.80154203 14.43532312 24.39285272 15.875 27.0625 C16.48106079 28.20126587 16.48106079 28.20126587 17.09936523 29.36303711 C20.62369268 35.75747553 24.72325425 40.92284747 30 46 C29.67 46.66 29.34 47.32 29 48 C25.33333333 44.33333333 21.66666667 40.66666667 18 37 C17.34644531 36.38382813 16.69289062 35.76765625 16.01953125 35.1328125 C13.86160227 32.85383915 12.30368226 30.56195314 10.6875 27.875 C9.88892578 26.57175781 9.88892578 26.57175781 9.07421875 25.2421875 C8.71972656 24.50226562 8.36523438 23.76234375 8 23 C8.33 22.34 8.66 21.68 9 21 C10.65 23.31 12.3 25.62 14 28 C12.73652837 25.39202649 11.46464776 22.78876593 10.1875 20.1875 C9.65286133 19.08051758 9.65286133 19.08051758 9.10742188 17.95117188 C8.75615234 17.23896484 8.40488281 16.52675781 8.04296875 15.79296875 C7.72352295 15.1383667 7.40407715 14.48376465 7.07495117 13.80932617 C5.93098106 11.88382936 4.64255865 10.51164489 3 9 C3.33 10.65 3.66 12.3 4 14 C0.26321694 9.28840397 -0.11284843 5.98096662 0 0 Z " fill="#878786" transform="translate(178,7)"/>
<path d="M0 0 C-2.31 0.66 -4.62 1.32 -7 2 C-6.26420788 3.46555316 -5.51074874 4.92224487 -4.75 6.375 C-4.33234375 7.18710937 -3.9146875 7.99921875 -3.484375 8.8359375 C-1.85732025 11.20801205 -0.64613361 11.97094804 2 13 C2.928125 12.01 2.928125 12.01 3.875 11 C6 9 6 9 8 9 C8 11.97 8 14.94 8 18 C7.67 18 7.34 18 7 18 C7 18.99 7 19.98 7 21 C6.401875 21.2475 5.80375 21.495 5.1875 21.75 C1.64241996 23.77576002 0.27335281 26.17994156 -1 30 C-1.66 29.67 -2.32 29.34 -3 29 C-2.85820313 28.09378906 -2.71640625 27.18757813 -2.5703125 26.25390625 C-1.4331109 17.64678069 -1.4331109 17.64678069 -4.875 10 C-5.431875 9.31035156 -5.98875 8.62070312 -6.5625 7.91015625 C-8.45769225 5.39181654 -8.84044419 3.11133826 -9 0 C-3.375 -1.125 -3.375 -1.125 0 0 Z " fill="#929291" transform="translate(86,49)"/>
<path d="M0 0 C2.475 0.99 2.475 0.99 5 2 C5.25002209 3.74714233 5.47423194 5.49799141 5.6875 7.25 C5.81511719 8.22453125 5.94273438 9.1990625 6.07421875 10.203125 C5.98628081 13.51699682 5.32826062 14.68798306 3 17 C0.4375 17.4375 0.4375 17.4375 -2 17 C-4.46328846 13.3050673 -4.69466527 10.28915418 -4 6 C-2.88342737 3.69403479 -1.61597667 2.01997083 0 0 Z " fill="#F9F9F7" transform="translate(105,78)"/>
<path d="M0 0 C2.02558881 3.34939881 2.21738987 5.86962551 2.125 9.75 C2.10695313 10.73484375 2.08890625 11.7196875 2.0703125 12.734375 C2.03550781 13.85585938 2.03550781 13.85585938 2 15 C0.329375 15.2165625 0.329375 15.2165625 -1.375 15.4375 C-4.82142047 15.78372035 -4.82142047 15.78372035 -7 17 C-7.02701408 14.89590361 -7.04640223 12.79170822 -7.0625 10.6875 C-7.07410156 9.51574219 -7.08570313 8.34398437 -7.09765625 7.13671875 C-7 4 -7 4 -6 1 C-3 0 -3 0 0 0 Z " fill="#F8F8F7" transform="translate(67,40)"/>
<path d="M0 0 C0.33 0.66 0.66 1.32 1 2 C1.66 2 2.32 2 3 2 C3.33 2.66 3.66 3.32 4 4 C4.99 4 5.98 4 7 4 C7 4.66 7 5.32 7 6 C5.906875 5.9175 4.81375 5.835 3.6875 5.75 C0.03362444 5.63997186 0.03362444 5.63997186 -2.0625 7.6875 C-3.23061313 9.98235048 -3.23061313 9.98235048 -2.5625 12.5 C-0.01268679 16.57970114 3.50582873 18.50194291 8 20 C8.66 18.68 9.32 17.36 10 16 C10.66 16.33 11.32 16.66 12 17 C11.525625 17.515625 11.05125 18.03125 10.5625 18.5625 C8.46432204 21.83565762 8 24.11417724 8 28 C10.29199403 30.96050874 10.29199403 30.96050874 13 33 C10.72970466 32.60856977 9.16591802 32.11258722 7.25 30.8125 C5.43419642 28.17958481 5.73436128 26.12125499 6 23 C6.33 22.34 6.66 21.68 7 21 C6.319375 20.95875 5.63875 20.9175 4.9375 20.875 C1.24812099 19.77603604 -0.64109256 17.84109916 -3.3515625 15.1796875 C-3.89554688 14.79039063 -4.43953125 14.40109375 -5 14 C-5.99 14.33 -6.98 14.66 -8 15 C-8 13.02 -8 11.04 -8 9 C-9.98 9 -11.96 9 -14 9 C-13.67 7.68 -13.34 6.36 -13 5 C-13 5.66 -13 6.32 -13 7 C-11.68 7 -10.36 7 -9 7 C-9 5.35 -9 3.7 -9 2 C-8.34 2 -7.68 2 -7 2 C-7 4.64 -7 7.28 -7 10 C-3.60582235 6.87378374 -1.3937282 4.43458973 0 0 Z " fill="#6B6A6A" transform="translate(128,99)"/>
<path d="M0 0 C0.99 0.99 0.99 0.99 2 2 C-0.25538146 1.47952736 -2.29328879 0.87826635 -4.4375 -0.01171875 C-23.47575373 -5.29316414 -42.25754974 0.69050812 -59.109375 9.3515625 C-61.57847011 10.75961404 -63.785547 12.22628765 -66 14 C-66.66 13.67 -67.32 13.34 -68 13 C-64.2416064 9.03280676 -61.4738087 6.79579581 -56.31640625 5.13671875 C-52.75560682 3.91623273 -49.33937733 2.47107317 -45.875 1 C-32.78737655 -4.31634692 -12.57012189 -8.58906084 0 0 Z " fill="#B2B2B1" transform="translate(161,24)"/>
<path d="M0 0 C5.01960802 4.68496749 6.21324963 7.88749378 6.625 14.75 C6.69976562 15.92046875 6.77453125 17.0909375 6.8515625 18.296875 C6.90054688 19.18890625 6.94953125 20.0809375 7 21 C5.906875 20.9175 4.81375 20.835 3.6875 20.75 C0.09598668 20.651845 0.09598668 20.651845 -1.875 22.4375 C-3.52122519 26.18723516 -3.74851818 29.94160374 -4 34 C-3.29875 34.268125 -2.5975 34.53625 -1.875 34.8125 C1.1649824 36.0681449 4.0727774 37.50235123 7 39 C6.67 39.66 6.34 40.32 6 41 C-0.04083144 38.49697031 -5.55371798 35.62096134 -11 32 C-10.57074219 31.62230469 -10.14148438 31.24460937 -9.69921875 30.85546875 C-7.57787037 28.53905385 -6.28079604 26.08594807 -4.8125 23.3125 C-4.28269531 22.31863281 -3.75289062 21.32476562 -3.20703125 20.30078125 C-2.80871094 19.54152344 -2.41039062 18.78226563 -2 18 C0.76276177 18.52268466 3.3260876 19.10869587 6 20 C5.57372794 17.93515022 5.13348551 15.87318179 4.6875 13.8125 C4.32205078 12.08966797 4.32205078 12.08966797 3.94921875 10.33203125 C3.02900835 7.10182768 1.78495331 4.81492637 0 2 C0 1.34 0 0.68 0 0 Z " fill="#4A4040" transform="translate(213,62)"/>
<path d="M0 0 C0.33 0 0.66 0 1 0 C1.16435547 1.03447266 1.16435547 1.03447266 1.33203125 2.08984375 C2.2735117 7.66983761 3.4714506 12.90451576 5.4140625 18.22265625 C6 20 6 20 6 22 C7.65 21.67 9.3 21.34 11 21 C10.34 21.33 9.68 21.66 9 22 C8.34786708 24.02463255 8.34786708 24.02463255 8 26 C2.26318047 24.71214255 -1.46625506 22.79354168 -6 19 C-6 18.01 -6 17.02 -6 16 C-5.01 16 -4.02 16 -3 16 C-2.67 15.01 -2.34 14.02 -2 13 C-1.01 14.485 -1.01 14.485 0 16 C0.99 16.33 1.98 16.66 3 17 C2.2575 15.2984375 2.2575 15.2984375 1.5 13.5625 C-0.24646333 8.97905868 -0.30300849 4.84813585 0 0 Z " fill="#3F3F3F" transform="translate(90,97)"/>
<path d="M0 0 C2.02350324 3.03525486 2.32124018 4.19426202 2.625 7.6875 C2.69976562 8.49574219 2.77453125 9.30398437 2.8515625 10.13671875 C2.92503906 11.05904297 2.92503906 11.05904297 3 12 C3.33 11.67 3.66 11.34 4 11 C6.33297433 10.95907063 8.66705225 10.95758277 11 11 C9 13 9 13 6.375 13.125 C5.59125 13.08375 4.8075 13.0425 4 13 C4.33 14.65 4.66 16.3 5 18 C3.68 18 2.36 18 1 18 C1 15.36 1 12.72 1 10 C-1.40877257 10.11341534 -1.40877257 10.11341534 -4 11 C-5.01769972 12.65591819 -6.01473803 14.32457867 -7 16 C-8.47133778 17.64968175 -9.99428599 19.25462018 -11.5625 20.8125 C-12.74005859 21.99779297 -12.74005859 21.99779297 -13.94140625 23.20703125 C-16 25 -16 25 -18 25 C-18 27.64 -18 30.28 -18 33 C-18.99 33.495 -18.99 33.495 -20 34 C-20.78553616 25.98753117 -20.78553616 25.98753117 -17.8125 22.25 C-16.884375 21.5075 -15.95625 20.765 -15 20 C-14.13375 19.13375 -13.2675 18.2675 -12.375 17.375 C-10.58333333 15.58333333 -8.79166667 13.79166667 -7 12 C-6.34 11.278125 -5.68 10.55625 -5 9.8125 C-3 8 -3 8 0 8 C0 5.36 0 2.72 0 0 Z " fill="#6A6A6A" transform="translate(58,44)"/>
<path d="M0 0 C4.36041851 1.18920505 7.30654915 2.27060651 10 6 C10.31452272 9.14522722 10.42041821 11.15916359 9 14 C6.69 14 4.38 14 2 14 C0.02905192 9.07262981 -0.1799928 5.21979128 0 0 Z " fill="#FAFAF9" transform="translate(119,127)"/>
<path d="M0 0 C0.33 0 0.66 0 1 0 C1 1.98 1 3.96 1 6 C1.66 5.67 2.32 5.34 3 5 C5.6723621 4.86584528 8.32250488 4.95681459 11 5 C11 5.33 11 5.66 11 6 C8.69 6.33 6.38 6.66 4 7 C4 7.66 4 8.32 4 9 C5.32 9 6.64 9 8 9 C8 9.66 8 10.32 8 11 C3.25 12 3.25 12 1 12 C1 12.66 1 13.32 1 14 C1.66 14.33 2.32 14.66 3 15 C2.01 15.66 1.02 16.32 0 17 C-0.36362818 19.20725073 -0.36362818 19.20725073 -0.1875 21.625 C-0.16042969 22.44226563 -0.13335937 23.25953125 -0.10546875 24.1015625 C-0.07066406 24.72804688 -0.03585938 25.35453125 0 26 C-0.66 26 -1.32 26 -2 26 C-1.90460938 26.68707031 -1.80921875 27.37414062 -1.7109375 28.08203125 C-1.60007812 28.98308594 -1.48921875 29.88414063 -1.375 30.8125 C-1.25898437 31.70582031 -1.14296875 32.59914062 -1.0234375 33.51953125 C-1 36 -1 36 -3 39 C-3.33 37.02 -3.66 35.04 -4 33 C-4.33 33 -4.66 33 -5 33 C-5 31.35 -5 29.7 -5 28 C-4.34 28 -3.68 28 -3 28 C-3 27.01 -3 26.02 -3 25 C-3.66 25 -4.32 25 -5 25 C-2.25352113 13.68450704 -2.25352113 13.68450704 -0.75 9.625 C0.16114714 6.43598502 -0.32831228 4.20917467 -1 1 C-0.67 0.67 -0.34 0.34 0 0 Z " fill="#636363" transform="translate(92,61)"/>
<path d="M0 0 C0.99 0.33 1.98 0.66 3 1 C1.50596865 5.98010451 -0.61924157 10.40588021 -3 15 C-3.66852303 16.33240354 -4.33570686 17.66548254 -5 19 C-5.9765625 17.27473958 -6.953125 15.54947917 -7.9296875 13.82421875 C-8.89428581 12.18017711 -9.94267059 10.58599412 -11 9 C-10.12601562 8.87818359 -10.12601562 8.87818359 -9.234375 8.75390625 C-6.31915739 7.77027513 -5.19489508 6.29381519 -3.25 3.9375 C-2.63640625 3.20402344 -2.0228125 2.47054687 -1.390625 1.71484375 C-0.70226562 0.86599609 -0.70226562 0.86599609 0 0 Z " fill="#121212" transform="translate(108,154)"/>
<path d="M0 0 C0.33 0 0.66 0 1 0 C1.12117188 1.0621875 1.24234375 2.124375 1.3671875 3.21875 C2.19568519 10.2734828 3.00527197 17.16093248 5 24 C3.0625 23.625 3.0625 23.625 1 23 C0.67 22.34 0.34 21.68 0 21 C-0.33 21.66 -0.66 22.32 -1 23 C-3.5625 23.625 -3.5625 23.625 -6 24 C-5.34 22.68 -4.68 21.36 -4 20 C-3.67 20.33 -3.34 20.66 -3 21 C-2.98018066 20.43490723 -2.96036133 19.86981445 -2.93994141 19.28759766 C-2.84481764 16.73292003 -2.73508942 14.17907459 -2.625 11.625 C-2.5940625 10.73554687 -2.563125 9.84609375 -2.53125 8.9296875 C-2.49257812 8.07890625 -2.45390625 7.228125 -2.4140625 6.3515625 C-2.36693115 5.17327881 -2.36693115 5.17327881 -2.31884766 3.97119141 C-2 2 -2 2 0 0 Z " fill="#D0D0CF" transform="translate(88,90)"/>
<path d="M0 0 C2.36034645 2.27292621 4.41624603 4.53364875 6.4375 7.125 C9.02549892 10.02860854 10.37682104 10.88517571 14 12 C16.1875 12.75 16.1875 12.75 18 14 C19.25 17.125 19.25 17.125 20 20 C17.10878446 18.65673614 14.73884307 17.10990377 12.25 15.125 C7.03123216 11.15018427 1.61809916 7.8272624 -5 7 C-3.68 6.67 -2.36 6.34 -1 6 C-2.32 5.34 -3.64 4.68 -5 4 C-5 3.34 -5 2.68 -5 2 C-3.35 1.34 -1.7 0.68 0 0 Z " fill="#F1F1F0" transform="translate(136,99)"/>
<path d="M0 0 C2.73991275 1.96026278 3.01180798 3.06944031 3.58984375 6.46875 C3.78365605 8.49478786 3.93897857 10.52070002 4.08398438 12.55078125 C4.4012051 15.79989054 4.60652829 17.60098643 6.94140625 19.96875 C8.91428722 21.14929736 8.91428722 21.14929736 11 21 C14.71692624 26.57538935 14.75668425 32.43551846 14 39 C13.34 39.66 12.68 40.32 12 41 C12.01160156 40.18015625 12.02320312 39.3603125 12.03515625 38.515625 C12.04417969 37.43796875 12.05320312 36.3603125 12.0625 35.25 C12.07410156 34.18265625 12.08570312 33.1153125 12.09765625 32.015625 C12.01462108 29.45149886 11.85777898 27.40514498 11 25 C9.31980946 23.82342532 9.31980946 23.82342532 7 23 C5.74908774 22.46044342 4.49913741 21.91865292 3.25 21.375 C2.1775 20.92125 1.105 20.4675 0 20 C0.66 19.67 1.32 19.34 2 19 C1.85833643 17.08302063 1.71150416 15.16642277 1.5625 13.25 C1.48128906 12.18265625 1.40007812 11.1153125 1.31640625 10.015625 C1.05745157 7.54756308 0.82426229 5.3363196 0 3 C-0.66 2.67 -1.32 2.34 -2 2 C-1.34 2 -0.68 2 0 2 C0 1.34 0 0.68 0 0 Z " fill="#434342" transform="translate(67,37)"/>
<path d="M0 0 C1 1 1 1 1.09765625 3.06640625 C1.08605469 3.89011719 1.07445312 4.71382813 1.0625 5.5625 C1.05347656 6.38878906 1.04445312 7.21507812 1.03515625 8.06640625 C1.02355469 8.70449219 1.01195312 9.34257812 1 10 C0.67 10 0.34 10 0 10 C-0.66 7.69 -1.32 5.38 -2 3 C-5.93268867 2.97526132 -9.86534713 2.95712165 -13.7980957 2.94506836 C-15.79314768 2.93757271 -17.78817786 2.92486655 -19.78320312 2.91210938 C-21.03681641 2.90888672 -22.29042969 2.90566406 -23.58203125 2.90234375 C-24.73936768 2.89710693 -25.8967041 2.89187012 -27.08911133 2.88647461 C-30.06604411 2.86700539 -30.06604411 2.86700539 -33 4 C-32.62746094 4.97582031 -32.25492188 5.95164062 -31.87109375 6.95703125 C-31.39274498 8.24200736 -30.91490692 9.52717367 -30.4375 10.8125 C-30.19064453 11.45509766 -29.94378906 12.09769531 -29.68945312 12.75976562 C-27.88671875 17.66015625 -27.88671875 17.66015625 -29 21 C-30.17314026 18.23174812 -31.33870215 15.46071514 -32.5 12.6875 C-33.00080078 11.50897461 -33.00080078 11.50897461 -33.51171875 10.30664062 C-33.82753906 9.54931641 -34.14335938 8.79199219 -34.46875 8.01171875 C-34.76201172 7.31522217 -35.05527344 6.61872559 -35.35742188 5.90112305 C-36 4 -36 4 -36 1 C-31.67671027 0.85653897 -27.35338673 0.71415641 -23.0300293 0.57275391 C-21.5606186 0.52454468 -20.09121738 0.47604567 -18.62182617 0.42724609 C-16.50441907 0.35697657 -14.38697959 0.28776438 -12.26953125 0.21875 C-10.99698486 0.17685547 -9.72443848 0.13496094 -8.41333008 0.09179688 C-2.13354691 -0.07708936 -2.13354691 -0.07708936 0 0 Z " fill="#6A4347" transform="translate(83,1)"/>
<path d="M0 0 C3.96415098 0.59977698 6.41736029 2.60370308 9.5625 5 C13.50293421 8.02207644 13.50293421 8.02207644 18 10 C18 10.66 18 11.32 18 12 C15.83125748 11.49396008 14.00032373 11.00016187 12 10 C12 11.98 12 13.96 12 16 C14.97 16.33 17.94 16.66 21 17 C21 17.66 21 18.32 21 19 C17.04 18.67 13.08 18.34 9 18 C8.67 19.65 8.34 21.3 8 23 C7.01 22.67 6.02 22.34 5 22 C5.66 22 6.32 22 7 22 C7.12375 21.236875 7.2475 20.47375 7.375 19.6875 C8 17 8 17 10 14 C9.34 13.67 8.68 13.34 8 13 C8.33 12.67 8.66 12.34 9 12 C8.09960291 7.69810279 6.92463649 5.63997612 3.375 3.1875 C2.74335937 2.78917969 2.11171875 2.39085937 1.4609375 1.98046875 C0.97882813 1.65691406 0.49671875 1.33335937 0 1 C0 0.67 0 0.34 0 0 Z " fill="#3C3C3B" transform="translate(104,132)"/>
<path d="M0 0 C0.33 0 0.66 0 1 0 C1 3.3 1 6.6 1 10 C0.31292969 9.65066406 -0.37414062 9.30132812 -1.08203125 8.94140625 C-1.98308594 8.48636719 -2.88414062 8.03132813 -3.8125 7.5625 C-4.70582031 7.11003906 -5.59914062 6.65757813 -6.51953125 6.19140625 C-10.09368058 4.47468886 -12.76597502 3.8806663 -16.6875 3.9375 C-17.49574219 3.94652344 -18.30398437 3.95554687 -19.13671875 3.96484375 C-19.75160156 3.97644531 -20.36648437 3.98804687 -21 4 C-18.12328836 9.86849175 -15.39330111 12.36989348 -10 16 C-10 16.66 -10 17.32 -10 18 C-13.9743071 16.67523097 -16.15279292 15.03702088 -19 12 C-19.99 11.34 -20.98 10.68 -22 10 C-22 9.34 -22 8.68 -22 8 C-22.66 7.34 -23.32 6.68 -24 6 C-26.60280568 6.32041397 -26.60280568 6.32041397 -29 7 C-27.625 5.5 -27.625 5.5 -26 4 C-25.34 4 -24.68 4 -24 4 C-24.33 3.01 -24.66 2.02 -25 1 C-24.34 1 -23.68 1 -23 1 C-23 1.66 -23 2.32 -23 3 C-22.34 2.67 -21.68 2.34 -21 2 C-12.98858462 1.22566245 -6.76089437 2.49273709 0 7 C0 4.69 0 2.38 0 0 Z " fill="#585857" transform="translate(160,94)"/>
<path d="M0 0 C1.43931117 0.45261358 2.87638999 0.91232979 4.3125 1.375 C5.11300781 1.63023437 5.91351563 1.88546875 6.73828125 2.1484375 C9 3 9 3 12 5 C14.73457747 5.61394221 17.42928983 6.15285223 20.1875 6.625 C20.93708984 6.7590625 21.68667969 6.893125 22.45898438 7.03125 C24.30487928 7.36045419 26.15230309 7.68106498 28 8 C28 8.33 28 8.66 28 9 C21.09170104 10.10839509 15.71041915 9.68610901 8.9375 8.0625 C8.07189453 7.86720703 7.20628906 7.67191406 6.31445312 7.47070312 C4.20669806 6.99325584 2.10288811 6.49844652 0 6 C0 4.02 0 2.04 0 0 Z " fill="#E0E0DF" transform="translate(116,142)"/>
<path d="M0 0 C1.98 0.495 1.98 0.495 4 1 C4.55353075 16.92938497 4.55353075 16.92938497 1 23 C1.66 23.33 2.32 23.66 3 24 C2.01 24 1.02 24 0 24 C-0.19533059 20.9378174 -0.38153284 17.87553679 -0.5625 14.8125 C-0.61857422 13.94818359 -0.67464844 13.08386719 -0.73242188 12.19335938 C-0.9761489 7.95250921 -1.15770796 4.14202181 0 0 Z " fill="#B8B8B7" transform="translate(113,85)"/>
<path d="M0 0 C3.01326538 0.32284986 4.03461538 1.03365384 6.25 3.1875 C8.27011863 6.43411922 8.34907695 8.24742282 8 12 C6.68 12.33 5.36 12.66 4 13 C0.72634348 9.40953801 -0.67458078 6.88128836 -1 2 C-0.67 1.34 -0.34 0.68 0 0 Z " fill="#DFDEDE" transform="translate(124,52)"/>
<path d="M0 0 C0.33 0 0.66 0 1 0 C0.67 2.31 0.34 4.62 0 7 C-0.99 7.33 -1.98 7.66 -3 8 C-5.77215207 11.64756852 -5.20799562 15.63209199 -5 20 C-4.67 20.99 -4.34 21.98 -4 23 C-1.97954558 22.39816251 0.02111039 21.72693904 2 21 C2.33 20.34 2.66 19.68 3 19 C3.66 19.33 4.32 19.66 5 20 C3.3125 23 3.3125 23 1 26 C-1.5 26.6875 -1.5 26.6875 -4 26 C-7.17071208 23.25776253 -7.92361318 21.45068223 -8.625 17.3125 C-8.37093964 11.74434375 -5.06056172 7.46397993 -2 3 C-1.34 2.01 -0.68 1.02 0 0 Z " fill="#656564" transform="translate(107,72)"/>
<path d="M0 0 C0.66 0.66 1.32 1.32 2 2 C1.01 3.485 1.01 3.485 0 5 C0.66 5.33 1.32 5.66 2 6 C1.67 6.33 1.34 6.66 1 7 C0.91368126 8.34267413 0.89293527 9.68974322 0.90234375 11.03515625 C0.90556641 11.84404297 0.90878906 12.65292969 0.91210938 13.48632812 C0.92048828 14.33646484 0.92886719 15.18660156 0.9375 16.0625 C0.94201172 16.91650391 0.94652344 17.77050781 0.95117188 18.65039062 C0.96299627 20.76695663 0.98093231 22.88348685 1 25 C-0.98 25.33 -2.96 25.66 -5 26 C-6.53445094 22.93109813 -5.54984289 20.29905734 -5 17 C-4.67 17 -4.34 17 -4 17 C-4 18.65 -4 20.3 -4 22 C-3.34 22 -2.68 22 -2 22 C-1.85435421 15.89795757 -1.85435421 15.89795757 -2.6875 9.875 C-3.12753996 5.82663239 -1.80626116 3.61252232 0 0 Z " fill="#B7B7B6" transform="translate(125,191)"/>
<path d="M0 0 C2.625 -0.1875 2.625 -0.1875 5 0 C3.68 0.33 2.36 0.66 1 1 C1 1.66 1 2.32 1 3 C4.1964086 4.06546953 6.65747276 4.07427838 10 4 C10 4.33 10 4.66 10 5 C8.37681021 5.36237263 6.7513642 5.71465157 5.125 6.0625 C3.76761719 6.35833984 3.76761719 6.35833984 2.3828125 6.66015625 C0 7 0 7 -2 6 C-1.86125017 14.27453513 -1.35303142 20.46179557 4 27 C-0.19594515 25.10477268 -1.87692262 23.17033056 -4 19 C-5.00571116 12.25437637 -3.79704729 5.69557093 0 0 Z " fill="#A6A6A5" transform="translate(98,143)"/>
<path d="M0 0 C0.66 0 1.32 0 2 0 C2.06058594 0.61488281 2.12117187 1.22976562 2.18359375 1.86328125 C2.26738281 2.67152344 2.35117188 3.47976562 2.4375 4.3125 C2.51871094 5.11300781 2.59992188 5.91351563 2.68359375 6.73828125 C2.95265693 9.16087179 2.95265693 9.16087179 4 12 C5.1446875 12.433125 5.1446875 12.433125 6.3125 12.875 C9.68792364 14.28796804 11.05608213 15.93459105 13 19 C12.67 19.99 12.34 20.98 12 22 C6.17066364 19.48337021 2.20738499 14.51538539 -0.5 8.875 C-1.06375259 5.63342261 -0.75857058 3.18599644 0 0 Z " fill="#535352" transform="translate(155,109)"/>
<path d="M0 0 C4.57864311 1.14466078 6.01564757 2.43535682 9 6 C9 7.32 9 8.64 9 10 C6.03 9.67 3.06 9.34 0 9 C0 6.03 0 3.06 0 0 Z " fill="#FDFDFC" transform="translate(162,88)"/>
<path d="M0 0 C2.66735273 2.48952921 4.55746343 4.63408134 6 8 C6.99 8 7.98 8 9 8 C10.61328125 10.1953125 10.61328125 10.1953125 12.3125 13.125 C15.1417831 17.79030724 17.96134886 21.35536361 22 25 C21.67 25.66 21.34 26.32 21 27 C17.33333333 23.33333333 13.66666667 19.66666667 10 16 C9.34515625 15.38382813 8.6903125 14.76765625 8.015625 14.1328125 C5.86255228 11.85456113 4.34318023 9.57053221 2.75 6.875 C2.22921875 6.00617187 1.7084375 5.13734375 1.171875 4.2421875 C0 2 0 2 0 0 Z " fill="#696968" transform="translate(186,28)"/>
<path d="M0 0 C0.66 0 1.32 0 2 0 C2.34179688 2.97851562 2.34179688 2.97851562 2.68359375 5.95703125 C2.97170735 8.19396393 2.97170735 8.19396393 4 11 C4.66 11 5.32 11 6 11 C5.67 12.32 5.34 13.64 5 15 C3.68 14.01 2.36 13.02 1 12 C0.67 12.99 0.34 13.98 0 15 C-2.42130331 12.57869669 -2.52840504 11.19888623 -3.125 7.875 C-3.29257813 6.96492188 -3.46015625 6.05484375 -3.6328125 5.1171875 C-3.75398438 4.41851562 -3.87515625 3.71984375 -4 3 C-3 3 -2 3 -1 3 C-0.67 2.01 -0.34 1.02 0 0 Z " fill="#292929" transform="translate(105,56)"/>
<path d="M0 0 C0.66 0 1.32 0 2 0 C1.77183594 1.05960937 1.54367188 2.11921875 1.30859375 3.2109375 C1.01787518 4.59888423 0.72752992 5.9869092 0.4375 7.375 C0.21030273 8.42300781 0.21030273 8.42300781 -0.02148438 9.4921875 C-0.98793059 13.32738511 -0.98793059 13.32738511 0 17 C-3.82352106 15.4422692 -6.29205593 13.08404742 -9 10 C-9 6.61976483 -8.12544378 4.16531063 -7 1 C-6.01 1.66 -5.02 2.32 -4 3 C-4.33 5.31 -4.66 7.62 -5 10 C-4.34 10 -3.68 10 -3 10 C-2.01 6.7 -1.02 3.4 0 0 Z " fill="#ADACAC" transform="translate(41,93)"/>
<path d="M0 0 C3.75097287 4.30667256 6.34856545 8.98061762 9 14 C9.40992188 14.75539063 9.81984375 15.51078125 10.2421875 16.2890625 C11.22816878 18.159027 12.12268589 20.07665753 13 22 C12.67 22.66 12.34 23.32 12 24 C11.68546875 23.46890625 11.3709375 22.9378125 11.046875 22.390625 C8.36775993 17.90460516 8.36775993 17.90460516 4.875 14.0625 C1.44386031 10.28824634 0 5.04886517 0 0 Z " fill="#E0E0DF" transform="translate(180,13)"/>
<path d="M0 0 C3.95602172 4.85511756 5.29212746 8.71925967 5 15 C3.02 14.34 1.04 13.68 -1 13 C-1.02696365 11.20841511 -1.04637917 9.41671527 -1.0625 7.625 C-1.07410156 6.62726563 -1.08570312 5.62953125 -1.09765625 4.6015625 C-1 2 -1 2 0 0 Z " fill="#ECECEC" transform="translate(78,98)"/>
<path d="M0 0 C0.66 0.33 1.32 0.66 2 1 C2 2.65 2 4.3 2 6 C2.66 6.33 3.32 6.66 4 7 C3.2884375 8.051875 3.2884375 8.051875 2.5625 9.125 C0.84091711 11.9161686 0.84091711 11.9161686 0.5 15.0625 C-0.03640208 18.21386221 -0.91029524 19.63772505 -3 22 C-3.99 21.67 -4.98 21.34 -6 21 C-5.01 18.36 -4.02 15.72 -3 13 C-2.34 13 -1.68 13 -1 13 C-1.0309375 11.9171875 -1.0309375 11.9171875 -1.0625 10.8125 C-1.00165606 8.07452266 -0.56250044 5.67187707 0 3 C0 2.01 0 1.02 0 0 Z " fill="#616161" transform="translate(167,161)"/>
<path d="M0 0 C-2.31 0.66 -4.62 1.32 -7 2 C-6.21258141 3.46063143 -5.4199095 4.91843173 -4.625 6.375 C-4.18414062 7.18710937 -3.74328125 7.99921875 -3.2890625 8.8359375 C-1.76221642 11.39918819 -0.78328787 12.76962121 2.125 13.625 C2.74375 13.74875 3.3625 13.8725 4 14 C4 15.32 4 16.64 4 18 C2.68 17.67 1.36 17.34 0 17 C0 16.34 0 15.68 0 15 C-0.99 14.67 -1.98 14.34 -3 14 C-6.48085436 9.78474573 -8.58762675 5.49830996 -9 0 C-3.375 -1.125 -3.375 -1.125 0 0 Z " fill="#595958" transform="translate(86,49)"/>
<path d="M0 0 C0.33 0.99 0.66 1.98 1 3 C1.66 3 2.32 3 3 3 C2.814375 3.5775 2.62875 4.155 2.4375 4.75 C1.83790125 6.93487264 1.83790125 6.93487264 2.5 8.78125 C3.129397 11.57419917 2.86687508 13.90916589 2.5625 16.75 C2.46066406 17.73484375 2.35882813 18.7196875 2.25390625 19.734375 C2.17011719 20.48203125 2.08632812 21.2296875 2 22 C1.67 21.34 1.34 20.68 1 20 C0.34 20 -0.32 20 -1 20 C-1 18.68 -1 17.36 -1 16 C-0.34 16 0.32 16 1 16 C1 15.34 1 14.68 1 14 C0.34 14 -0.32 14 -1 14 C-1.33 11.03 -1.66 8.06 -2 5 C-1.34 5 -0.68 5 0 5 C0 3.35 0 1.7 0 0 Z " fill="#272827" transform="translate(75,89)"/>
<path d="M0 0 C0.66 0 1.32 0 2 0 C2 0.66 2 1.32 2 2 C2.99 2.33 3.98 2.66 5 3 C3.35 7.62 1.7 12.24 0 17 C-0.66 16.67 -1.32 16.34 -2 16 C-1.21302675 12.58978257 -0.12880057 9.31114834 1 6 C0.34 6 -0.32 6 -1 6 C-1 6.66 -1 7.32 -1 8 C-1.66 8 -2.32 8 -3 8 C-1.125 2.25 -1.125 2.25 0 0 Z " fill="#C5C5C4" transform="translate(71,110)"/>
<path d="M0 0 C3.79588866 0.54226981 5.47211993 2.20127563 8 5 C7.67 5.66 7.34 6.32 7 7 C6.67 7 6.34 7 6 7 C6 7.99 6 8.98 6 10 C4.68 10.33 3.36 10.66 2 11 C0.19769832 7.17010894 -0.19622241 4.21878192 0 0 Z " fill="#373737" transform="translate(159,154)"/>
<path d="M0 0 C-0.90046376 2.83002896 -1.76474505 5.54255983 -3.125 8.1875 C-4.21737453 10.11483327 -4.21737453 10.11483327 -4 13 C-5.8125 14.75 -5.8125 14.75 -8 16 C-8.99 15.67 -9.98 15.34 -11 15 C-10.57847656 14.46890625 -10.15695313 13.9378125 -9.72265625 13.390625 C-9.17480469 12.68421875 -8.62695312 11.9778125 -8.0625 11.25 C-7.51722656 10.55390625 -6.97195312 9.8578125 -6.41015625 9.140625 C-5.02574346 7.03907872 -4.43713013 5.45678201 -4 3 C-5.65 2.67 -7.3 2.34 -9 2 C-5.86501708 0.14223235 -3.62528568 -0.20140476 0 0 Z " fill="#8C8C8B" transform="translate(71,93)"/>
<path d="M0 0 C1.28080392 3.84241177 0.30805584 5.22117203 -1 9 C-1.37531446 11.32694964 -1.71917202 13.65976685 -2 16 C-4.23200173 14.25321604 -5.03006375 12.92218795 -6.0625 10.25 C-5.97030113 5.45565881 -3.31039819 3.24323069 0 0 Z " fill="#F7F7F6" transform="translate(91,69)"/>
<path d="M0 0 C0.33 1.32 0.66 2.64 1 4 C2.65 3.67 4.3 3.34 6 3 C5.01 3.495 5.01 3.495 4 4 C3.34786708 6.02463255 3.34786708 6.02463255 3 8 C-3.52307692 6.64615385 -3.52307692 6.64615385 -5.9375 3.375 C-6.288125 2.59125 -6.63875 1.8075 -7 1 C-2.25 0 -2.25 0 0 0 Z " fill="#262625" transform="translate(95,115)"/>
<path d="M0 0 C0.66 0.33 1.32 0.66 2 1 C1.34 2.65 0.68 4.3 0 6 C-0.66 6 -1.32 6 -2 6 C-2.33623796 7.2909136 -2.66889249 8.58276097 -3 9.875 C-3.185625 10.59429687 -3.37125 11.31359375 -3.5625 12.0546875 C-4.07313965 13.99289317 -4.07313965 13.99289317 -4 16 C-5.65 16 -7.3 16 -9 16 C-7.50829734 11.0276578 -5.39542583 6.58154261 -3 2 C-2.34 2 -1.68 2 -1 2 C-0.67 1.34 -0.34 0.68 0 0 Z " fill="#333332" transform="translate(36,89)"/>
<path d="M0 0 C1.32 0.33 2.64 0.66 4 1 C4.08912219 4.83225427 3.87867729 8.26562152 3 12 C2.34 12 1.68 12 1 12 C-2.2 5.72307692 -2.2 5.72307692 -1.1875 2.0625 C-0.795625 1.381875 -0.40375 0.70125 0 0 Z " fill="#E9E9E8" transform="translate(112,66)"/>
<path d="M0 0 C0.66 0 1.32 0 2 0 C2.28875 1.11375 2.5775 2.2275 2.875 3.375 C3.69241329 7.00291092 3.69241329 7.00291092 6 9 C6.99 9 7.98 9 9 9 C9.66 7.68 10.32 6.36 11 5 C11.625 6.875 11.625 6.875 12 9 C10 11 10 11 7.625 11.4375 C5 11 5 11 2.6875 8.625 C1 6 1 6 1 4 C-1.72426311 6.35277269 -2.8141763 8.62496331 -4 12 C-4.66 11.34 -5.32 10.68 -6 10 C-5.05065487 8.32819726 -4.09026687 6.66266064 -3.125 5 C-2.59132813 4.071875 -2.05765625 3.14375 -1.5078125 2.1875 C-1.01023437 1.465625 -0.51265625 0.74375 0 0 Z " fill="#898988" transform="translate(122,55)"/>
<path d="M0 0 C2 2 2 2 2 5 C7.13725982 5.48489837 7.13725982 5.48489837 11.4375 3 C11.953125 2.34 12.46875 1.68 13 1 C13 2.32 13 3.64 13 5 C10 7 10 7 6 7 C6 7.66 6 8.32 6 9 C5.01 8.67 4.02 8.34 3 8 C3 7.34 3 6.68 3 6 C2.34 6 1.68 6 1 6 C0.67 6.99 0.34 7.98 0 9 C-1.65 9.33 -3.3 9.66 -5 10 C-4.67 9.01 -4.34 8.02 -4 7 C-2.68 7 -1.36 7 0 7 C0 4.69 0 2.38 0 0 Z " fill="#424241" transform="translate(39,77)"/>
<path d="M0 0 C8.0801105 -0.62154696 8.0801105 -0.62154696 11.3125 1.5625 C13.42771029 4.61780376 15.23757793 7.72693044 17 11 C14.13302508 9.71480435 12.02392288 8.42870746 10 6 C10 5.34 10 4.68 10 4 C8.68 4 7.36 4 6 4 C6 3.34 6 2.68 6 2 C3.03 1.505 3.03 1.505 0 1 C0 0.67 0 0.34 0 0 Z " fill="#A2A2A1" transform="translate(149,180)"/>
<path d="M0 0 C0.66 0 1.32 0 2 0 C2 0.66 2 1.32 2 2 C4.31 2.33 6.62 2.66 9 3 C9 3.99 9 4.98 9 6 C7.02 5.34 5.04 4.68 3 4 C3.33 7.63 3.66 11.26 4 15 C4.66 15 5.32 15 6 15 C6 15.66 6 16.32 6 17 C5.01 17 4.02 17 3 17 C-0.44419134 5.47835991 -0.44419134 5.47835991 0 0 Z " fill="#5A5A5A" transform="translate(150,149)"/>
<path d="M0 0 C0.45375 0.495 0.9075 0.99 1.375 1.5 C2.87635519 3.22609337 2.87635519 3.22609337 5 3 C5.66 4.65 6.32 6.3 7 8 C6.34 8 5.68 8 5 8 C4.9175 8.61875 4.835 9.2375 4.75 9.875 C4 12 4 12 2.25 13.125 C-0.26171292 14.10177725 -2.06780352 14.20388813 -4.75 14.125 C-5.54921875 14.10695312 -6.3484375 14.08890625 -7.171875 14.0703125 C-7.77515625 14.04710937 -8.3784375 14.02390625 -9 14 C-9 13.67 -9 13.34 -9 13 C-5.04 12.34 -1.08 11.68 3 11 C2.505 9.9275 2.01 8.855 1.5 7.75 C0.11346089 4.74583192 0 3.54065105 0 0 Z " fill="#656565" transform="translate(176,144)"/>
<path d="M0 0 C6.00477279 0.64916463 11.400781 2.85795003 17 5 C17.33 4.01 17.66 3.02 18 2 C18.061875 2.598125 18.12375 3.19625 18.1875 3.8125 C19.3236757 6.87143458 21.17330142 7.55041099 24 9 C23.01 9.495 23.01 9.495 22 10 C19.55050538 9.13216212 17.1973659 8.20826869 14.8125 7.1875 C9.92477364 5.12055104 5.1331221 3.36483791 0 2 C0 1.34 0 0.68 0 0 Z " fill="#747474" transform="translate(101,119)"/>
<path d="M0 0 C5.70629354 0.42797202 9.41078616 2.84345952 14 6 C13.34 6.66 12.68 7.32 12 8 C10.33333333 8 8.66666667 8 7 8 C7 7.01 7 6.02 7 5 C5.5459375 4.5978125 5.5459375 4.5978125 4.0625 4.1875 C3.051875 3.795625 2.04125 3.40375 1 3 C0.67 2.01 0.34 1.02 0 0 Z " fill="#606060" transform="translate(133,106)"/>
<path d="M0 0 C5.01960802 4.68496749 6.21324963 7.88749378 6.625 14.75 C6.69976562 15.92046875 6.77453125 17.0909375 6.8515625 18.296875 C6.90054688 19.18890625 6.94953125 20.0809375 7 21 C5.88625 20.979375 4.7725 20.95875 3.625 20.9375 C0.16784079 20.73619282 0.16784079 20.73619282 -2 22 C-2.33 21.01 -2.66 20.02 -3 19 C0.65638537 17.6457832 2.51327392 18.48503776 6 20 C5.57372794 17.93515022 5.13348551 15.87318179 4.6875 13.8125 C4.44386719 12.66394531 4.20023438 11.51539062 3.94921875 10.33203125 C3.02900835 7.10182768 1.78495331 4.81492637 0 2 C0 1.34 0 0.68 0 0 Z " fill="#5E5757" transform="translate(213,62)"/>
<path d="M0 0 C3.88694884 1.46175854 5.00815228 3.30126163 6.75 7 C7.17796875 7.886875 7.6059375 8.77375 8.046875 9.6875 C9 12 9 12 9 14 C8.01 14 7.02 14 6 14 C4.99515796 12.04414675 3.99626195 10.08523763 3 8.125 C2.1646875 6.48917969 2.1646875 6.48917969 1.3125 4.8203125 C0 2 0 2 0 0 Z " fill="#BABAB9" transform="translate(189,24)"/>
<path d="M0 0 C1 3 1 3 -0.4375 6.1875 C-1.2109375 7.5796875 -1.2109375 7.5796875 -2 9 C-2.33 9 -2.66 9 -3 9 C-3 7.02 -3 5.04 -3 3 C-4.1446875 3.99 -4.1446875 3.99 -5.3125 5 C-8 7 -8 7 -11 7 C-11 6.34 -11 5.68 -11 5 C-11.99 4.67 -12.98 4.34 -14 4 C-12 4 -10 4 -8 4 C-7.54625 3.484375 -7.0925 2.96875 -6.625 2.4375 C-6.08875 1.963125 -5.5525 1.48875 -5 1 C-2.8125 1.3125 -2.8125 1.3125 -1 2 C-0.67 1.34 -0.34 0.68 0 0 Z " fill="#555554" transform="translate(212,150)"/>
<path d="M0 0 C1 1 1 1 1.09765625 3.06640625 C1.08605469 3.89011719 1.07445313 4.71382813 1.0625 5.5625 C1.05347656 6.38878906 1.04445313 7.21507812 1.03515625 8.06640625 C1.02355469 8.70449219 1.01195313 9.34257812 1 10 C0.67 10 0.34 10 0 10 C-0.66 7.69 -1.32 5.38 -2 3 C-8.27 2.67 -14.54 2.34 -21 2 C-21 1.67 -21 1.34 -21 1 C-18.43761495 0.83138242 -15.87511576 0.66504227 -13.3125 0.5 C-12.59126953 0.45230469 -11.87003906 0.40460937 -11.12695312 0.35546875 C-3.24035829 -0.14869713 -3.24035829 -0.14869713 0 0 Z " fill="#452728" transform="translate(83,1)"/>
<path d="M0 0 C0.33 0 0.66 0 1 0 C1 1.98 1 3.96 1 6 C1.66 5.67 2.32 5.34 3 5 C5.6723621 4.86584528 8.32250488 4.95681459 11 5 C11 5.33 11 5.66 11 6 C8.69 6.33 6.38 6.66 4 7 C4 7.66 4 8.32 4 9 C5.32 9 6.64 9 8 9 C8 9.66 8 10.32 8 11 C4.71303767 11.79953138 3.28976808 12.09658936 0 11 C-0.19406478 9.35492782 -0.38007935 7.70890406 -0.5625 6.0625 C-0.66691406 5.14597656 -0.77132812 4.22945313 -0.87890625 3.28515625 C-0.91886719 2.53105469 -0.95882812 1.77695312 -1 1 C-0.67 0.67 -0.34 0.34 0 0 Z " fill="#4E4E4D" transform="translate(92,61)"/>
<path d="M0 0 C3.92646477 1.30882159 6.27774921 2.8744528 9 6 C9 6.33 9 6.66 9 7 C6.03 6.67 3.06 6.34 0 6 C0 4.02 0 2.04 0 0 Z " fill="#EFEFEE" transform="translate(116,142)"/>
<path d="M0 0 C2.2396696 1.7527849 2.95804228 2.83979778 3.6875 5.625 C4.07073019 9.76388601 4.0830557 13.84721518 4 18 C3.34 18 2.68 18 2 18 C1.93941406 17.25234375 1.87882812 16.5046875 1.81640625 15.734375 C1.73261719 14.74953125 1.64882812 13.7646875 1.5625 12.75 C1.44068359 11.28820312 1.44068359 11.28820312 1.31640625 9.796875 C1.04701347 7.41557585 0.78359604 5.26256871 0 3 C-0.66 2.67 -1.32 2.34 -2 2 C-1.34 2 -0.68 2 0 2 C0 1.34 0 0.68 0 0 Z " fill="#5D5D5C" transform="translate(67,37)"/>
<path d="M0 0 C1.485 0.99 1.485 0.99 3 2 C3 2.66 3 3.32 3 4 C5.02045442 3.39816251 7.02111039 2.72693904 9 2 C9.33 1.34 9.66 0.68 10 0 C10.66 0.33 11.32 0.66 12 1 C10.3125 4 10.3125 4 8 7 C5.4375 7.5625 5.4375 7.5625 3 7 C1.1875 5.75 1.1875 5.75 0 4 C0 2.68 0 1.36 0 0 Z " fill="#2F2F2F" transform="translate(100,91)"/>
<path d="M0 0 C0.66 0 1.32 0 2 0 C2.06058594 0.61488281 2.12117187 1.22976562 2.18359375 1.86328125 C2.26738281 2.67152344 2.35117188 3.47976562 2.4375 4.3125 C2.51871094 5.11300781 2.59992188 5.91351563 2.68359375 6.73828125 C2.95265693 9.16087179 2.95265693 9.16087179 4 12 C4.66 12.33 5.32 12.66 6 13 C5.67 13.66 5.34 14.32 5 15 C4.34 15 3.68 15 3 15 C-1.77676538 5.77448747 -1.77676538 5.77448747 0 0 Z " fill="#7A7A79" transform="translate(155,109)"/>
<path d="M0 0 C0.66 0 1.32 0 2 0 C2.33 4.29 2.66 8.58 3 13 C2.34 13 1.68 13 1 13 C1 11.02 1 9.04 1 7 C-0.98 7 -2.96 7 -5 7 C-4.67 5.68 -4.34 4.36 -4 3 C-4 3.66 -4 4.32 -4 5 C-2.68 5 -1.36 5 0 5 C0 3.35 0 1.7 0 0 Z " fill="#515151" transform="translate(119,101)"/>
<path d="M0 0 C0 2.97 0 5.94 0 9 C-0.33 9 -0.66 9 -1 9 C-1 9.99 -1 10.98 -1 12 C-1.99 11.34 -2.98 10.68 -4 10 C-4.1875 7.375 -4.1875 7.375 -4 5 C-4.66 4.67 -5.32 4.34 -6 4 C-2.25 0 -2.25 0 0 0 Z " fill="#888887" transform="translate(94,58)"/>
<path d="M0 0 C1.2065625 0.0309375 1.2065625 0.0309375 2.4375 0.0625 C1.1175 0.3925 -0.2025 0.7225 -1.5625 1.0625 C-1.5625 1.7225 -1.5625 2.3825 -1.5625 3.0625 C1.6339086 4.12796953 4.09497276 4.13677838 7.4375 4.0625 C7.4375 4.3925 7.4375 4.7225 7.4375 5.0625 C5.83546533 5.42618892 4.23075797 5.77811952 2.625 6.125 C1.73167969 6.32222656 0.83835937 6.51945313 -0.08203125 6.72265625 C-2.5625 7.0625 -2.5625 7.0625 -5.5625 6.0625 C-3.26136364 0.07954545 -3.26136364 0.07954545 0 0 Z " fill="#9F9F9E" transform="translate(100.5625,142.9375)"/>
<path d="M0 0 C8.79758308 2.36858006 8.79758308 2.36858006 11 4 C12.25 7.125 12.25 7.125 13 10 C9.74035658 8.51222697 7.06830707 6.64333184 4.25 4.4375 C3.45078125 3.81746094 2.6515625 3.19742188 1.828125 2.55859375 C1.22484375 2.04425781 0.6215625 1.52992187 0 1 C0 0.67 0 0.34 0 0 Z " fill="#DFDFDE" transform="translate(143,109)"/>
<path d="M0 0 C0.33 0.66 0.66 1.32 1 2 C-0.01320313 2.48919922 -0.01320313 2.48919922 -1.046875 2.98828125 C-2.38492188 3.64376953 -2.38492188 3.64376953 -3.75 4.3125 C-4.63171875 4.74175781 -5.5134375 5.17101563 -6.421875 5.61328125 C-8.81600215 6.90103146 -10.87776958 8.30915754 -13 10 C-13.66 9.67 -14.32 9.34 -15 9 C-10.2196953 3.95412281 -6.55176909 2.0846538 0 0 Z " fill="#D5D5D4" transform="translate(108,28)"/>
<path d="M0 0 C1.32 0.33 2.64 0.66 4 1 C4.12375 1.639375 4.2475 2.27875 4.375 2.9375 C4.684375 3.9584375 4.684375 3.9584375 5 5 C5.66 5.33 6.32 5.66 7 6 C6.34 6 5.68 6 5 6 C3.7763932 8.0745356 3.7763932 8.0745356 4 11 C3.34 11 2.68 11 2 11 C1.34 7.37 0.68 3.74 0 0 Z " fill="#666665" transform="translate(156,125)"/>
<path d="M0 0 C0.66 0 1.32 0 2 0 C1.67 1.32 1.34 2.64 1 4 C1.639375 4.2475 2.27875 4.495 2.9375 4.75 C5 6 5 6 5.75 8.125 C5.8325 8.74375 5.915 9.3625 6 10 C5.01 9.67 4.02 9.34 3 9 C3.33 10.65 3.66 12.3 4 14 C0.26321694 9.28840397 -0.11284843 5.98096662 0 0 Z " fill="#4E4E4E" transform="translate(178,7)"/>
<path d="M0 0 C2.9334361 5.47574739 3.07300685 8.80040487 2 15 C1.34 15 0.68 15 0 15 C-0.84888195 9.62374766 -1.0024305 5.34629602 0 0 Z " fill="#2F2F2F" transform="translate(121,198)"/>
<path d="M0 0 C5.75 3.625 5.75 3.625 8 7 C7.34 7.66 6.68 8.32 6 9 C1.3125 5.484375 1.3125 5.484375 0 4 C0 2.68 0 1.36 0 0 Z " fill="#EDEDEC" transform="translate(145,116)"/>
<path d="M0 0 C0.33 0 0.66 0 1 0 C1 4.62 1 9.24 1 14 C0.34 13.67 -0.32 13.34 -1 13 C-1 12.34 -1 11.68 -1 11 C-1.66 11 -2.32 11 -3 11 C-3.33 9.68 -3.66 8.36 -4 7 C-3.34 7 -2.68 7 -2 7 C-1.34 4.69 -0.68 2.38 0 0 Z " fill="#A6A6A5" transform="translate(80,87)"/>
<path d="M0 0 C-3.31664376 3.31664376 -6.4157689 3.44303604 -10.87890625 3.69140625 C-13.2974251 3.88835691 -13.2974251 3.88835691 -16 6 C-16.33 5.34 -16.66 4.68 -17 4 C-11.01990022 0.17938069 -6.96504398 -0.11608407 0 0 Z " fill="#606060" transform="translate(150,181)"/>
<path d="M0 0 C1.98 0 3.96 0 6 0 C5.67 0.66 5.34 1.32 5 2 C4.34 2 3.68 2 3 2 C3 6.62 3 11.24 3 16 C2.67 16 2.34 16 2 16 C2 12.37 2 8.74 2 5 C1.01 5.33 0.02 5.66 -1 6 C-1 5.01 -1 4.02 -1 3 C-0.34 2.67 0.32 2.34 1 2 C0.67 1.34 0.34 0.68 0 0 Z " fill="#7A7A79" transform="translate(138,151)"/>
<path d="M0 0 C2.12472576 -0.05386629 4.24983652 -0.09273071 6.375 -0.125 C7.55835938 -0.14820312 8.74171875 -0.17140625 9.9609375 -0.1953125 C13 0 13 0 15 2 C12.36 1.67 9.72 1.34 7 1 C6.71125 1.969375 6.4225 2.93875 6.125 3.9375 C5 7 5 7 3 8 C3.66 6.02 4.32 4.04 5 2 C3.35 2 1.7 2 0 2 C0 1.34 0 0.68 0 0 Z " fill="#555554" transform="translate(50,95)"/>
<path d="M0 0 C0 3.51716303 -0.82445585 4.37121748 -3 7 C-0.69 6.34 1.62 5.68 4 5 C1.3401439 8.44216672 -1.90288286 8.99504674 -6 10 C-4.79157144 5.56909529 -3.48331435 3.01887244 0 0 Z " fill="#6C6B6B" transform="translate(92,38)"/>
<path d="M0 0 C0.66 0 1.32 0 2 0 C2 1.32 2 2.64 2 4 C2.66 4.66 3.32 5.32 4 6 C1.69 6.66 -0.62 7.32 -3 8 C-3 7.34 -3 6.68 -3 6 C-2.34 6 -1.68 6 -1 6 C-1.0309375 4.7934375 -1.0309375 4.7934375 -1.0625 3.5625 C-1 1 -1 1 0 0 Z " fill="#4F4F4F" transform="translate(192,205)"/>
<path d="M0 0 C3.63 0.66 7.26 1.32 11 2 C11 2.66 11 3.32 11 4 C7.04 3.67 3.08 3.34 -1 3 C-0.67 2.01 -0.34 1.02 0 0 Z " fill="#313131" transform="translate(139,147)"/>
<path d="M0 0 C0.66 0 1.32 0 2 0 C2 3.96 2 7.92 2 12 C1.67 11.34 1.34 10.68 1 10 C0.34 10 -0.32 10 -1 10 C-1 8.68 -1 7.36 -1 6 C-0.34 6 0.32 6 1 6 C1 5.34 1 4.68 1 4 C0.34 4 -0.32 4 -1 4 C-0.67 2.68 -0.34 1.36 0 0 Z " fill="#696968" transform="translate(75,99)"/>
<path d="M0 0 C1.11375 0.9590625 1.11375 0.9590625 2.25 1.9375 C4.7111121 3.78333407 6.03466926 4.56069174 9 5 C9 6.32 9 7.64 9 9 C7.68 8.67 6.36 8.34 5 8 C5 7.34 5 6.68 5 6 C4.01 5.67 3.02 5.34 2 5 C0.8125 2.4375 0.8125 2.4375 0 0 Z " fill="#4C4C4B" transform="translate(81,58)"/>
<path d="M0 0 C4.455 0.99 4.455 0.99 9 2 C9 2.99 9 3.98 9 5 C8.34 5.66 7.68 6.32 7 7 C7 6.34 7 5.68 7 5 C6.34 5 5.68 5 5 5 C5 4.34 5 3.68 5 3 C2.03 2.505 2.03 2.505 -1 2 C-0.67 1.34 -0.34 0.68 0 0 Z " fill="#767676" transform="translate(126,149)"/>
<path d="M0 0 C1.32 0 2.64 0 4 0 C3.5359375 1.1446875 3.5359375 1.1446875 3.0625 2.3125 C2.32106407 4.18789677 1.63771783 6.08684652 1 8 C0.34 8 -0.32 8 -1 8 C-1.04241723 5.66705225 -1.04092937 3.33297433 -1 1 C-0.67 0.67 -0.34 0.34 0 0 Z " fill="#EBEBEA" transform="translate(110,146)"/>
<path d="M0 0 C2.46459429 2.46459429 4.22557591 5.00183515 6 8 C5.67 8.99 5.34 9.98 5 11 C3.96680187 9.7391988 2.94875621 8.46596742 1.9375 7.1875 C1.08478516 6.12595703 1.08478516 6.12595703 0.21484375 5.04296875 C-0.18605469 4.36878906 -0.58695313 3.69460937 -1 3 C-0.67 2.01 -0.34 1.02 0 0 Z " fill="#686968" transform="translate(168,130)"/>
<path d="M0 0 C0.33 0 0.66 0 1 0 C1 1.65 1 3.3 1 5 C1.99 5 2.98 5 4 5 C4.66 7.64 5.32 10.28 6 13 C4.62437146 11.71034824 3.29233607 10.37310707 2 9 C2 8.34 2 7.68 2 7 C1.01 6.67 0.02 6.34 -1 6 C-0.67 4.02 -0.34 2.04 0 0 Z " fill="#2C2C2C" transform="translate(60,58)"/>
<path d="M0 0 C1.32 0.66 2.64 1.32 4 2 C4 4.64 4 7.28 4 10 C3.01 10.33 2.02 10.66 1 11 C1.04125 9.88625 1.0825 8.7725 1.125 7.625 C1.41121859 3.95633975 1.41121859 3.95633975 -1 2 C-0.67 1.34 -0.34 0.68 0 0 Z " fill="#0A0A0A" transform="translate(106,68)"/>
<path d="M0 0 C2.97 0.33 5.94 0.66 9 1 C6.60776303 3.39223697 5.32240324 3.6758631 2 4 C1.01 3.34 0.02 2.68 -1 2 C-0.67 1.34 -0.34 0.68 0 0 Z " fill="#040404" transform="translate(99,144)"/>
<path d="M0 0 C0.98726527 2.66561622 1.0275526 3.90126985 0.25 6.6875 C-1 9 -1 9 -4 10 C-3.43454163 6.04179141 -2.19097652 3.3340947 0 0 Z " fill="#2E2323" transform="translate(210,82)"/>
<path d="M0 0 C2.0625 0.4375 2.0625 0.4375 4 1 C4 2.98 4 4.96 4 7 C3.01 6.67 2.02 6.34 1 6 C1 4.68 1 3.36 1 2 C0.34 1.67 -0.32 1.34 -1 1 C-0.67 0.67 -0.34 0.34 0 0 Z " fill="#D4D4D3" transform="translate(112,66)"/>
<path d="M0 0 C-0.66 1.65 -1.32 3.3 -2 5 C-2.33 4.01 -2.66 3.02 -3 2 C-4.65 2.33 -6.3 2.66 -8 3 C-8.33 2.34 -8.66 1.68 -9 1 C-5.92677456 0.08941469 -3.19902639 -0.08886184 0 0 Z " fill="#BCBCBB" transform="translate(71,93)"/>
<path d="M0 0 C1.9375 0.8125 1.9375 0.8125 4 2 C4.33 2.99 4.66 3.98 5 5 C4.34 5 3.68 5 3 5 C3.33 6.65 3.66 8.3 4 10 C1.04816899 7.04816899 0.91336012 4.04488053 0 0 Z " fill="#404040" transform="translate(124,89)"/>
<path d="M0 0 C2.475 0.99 2.475 0.99 5 2 C3.35 3.65 1.7 5.3 0 7 C-0.93423645 3.98968256 -1.04449911 3.13349732 0 0 Z " fill="#F6F6F5" transform="translate(86,66)"/>
<path d="M0 0 C0.33 0 0.66 0 1 0 C1 1.65 1 3.3 1 5 C1.99 5.33 2.98 5.66 4 6 C3.67 6.99 3.34 7.98 3 9 C1.68 8.67 0.36 8.34 -1 8 C-0.67 5.36 -0.34 2.72 0 0 Z " fill="#838382" transform="translate(120,208)"/>
<path d="M0 0 C1.98 0.99 1.98 0.99 4 2 C3.67 3.65 3.34 5.3 3 7 C2.01 7.33 1.02 7.66 0 8 C0 5.36 0 2.72 0 0 Z " fill="#313131" transform="translate(19,123)"/>
<path d="M0 0 C0.33 0 0.66 0 1 0 C1.33 3.96 1.66 7.92 2 12 C1.01 12 0.02 12 -1 12 C-0.67 8.04 -0.34 4.08 0 0 Z " fill="#60605F" transform="translate(65,208)"/>
<path d="M0 0 C0.66 0.66 1.32 1.32 2 2 C1.01 3.485 1.01 3.485 0 5 C0.66 5.33 1.32 5.66 2 6 C1.34 7.98 0.68 9.96 0 12 C-0.33 12 -0.66 12 -1 12 C-1.92470553 7.28400182 -2.22923777 4.32734391 0 0 Z " fill="#91908F" transform="translate(125,191)"/>
<path d="M0 0 C1.32 0.33 2.64 0.66 4 1 C4 2.65 4 4.3 4 6 C3.01 5.67 2.02 5.34 1 5 C0.67 3.35 0.34 1.7 0 0 Z " fill="#C6C6C5" transform="translate(162,133)"/>
<path d="M0 0 C5.75 0.75 5.75 0.75 8 3 C5.6875 3.625 5.6875 3.625 3 4 C2.01 3.34 1.02 2.68 0 2 C0 1.34 0 0.68 0 0 Z " fill="#8A8A89" transform="translate(133,106)"/>
<path d="M0 0 C0.99 0.495 0.99 0.495 2 1 C2 2.65 2 4.3 2 6 C2.66 6.33 3.32 6.66 4 7 C2.68 7.99 1.36 8.98 0 10 C0 6.7 0 3.4 0 0 Z " fill="#414141" transform="translate(167,161)"/>
<path d="M0 0 C1.485 0.99 1.485 0.99 3 2 C2.34 3.98 1.68 5.96 1 8 C-1 6 -1 6 -1.1875 3.4375 C-1 1 -1 1 0 0 Z " fill="#A0A0A0" transform="translate(34,94)"/>
<path d="M0 0 C0.66 0.33 1.32 0.66 2 1 C0.7260411 3.03833424 -0.61061923 5.03852126 -2 7 C-2.66 7 -3.32 7 -4 7 C-4 6.34 -4 5.68 -4 5 C-4.66 4.67 -5.32 4.34 -6 4 C-4.7934375 3.566875 -4.7934375 3.566875 -3.5625 3.125 C-0.8673532 2.26737432 -0.8673532 2.26737432 0 0 Z " fill="#70706F" transform="translate(110,91)"/>
</svg>
