<?xml version="1.0" encoding="UTF-8"?>
<svg version="1.1" xmlns="http://www.w3.org/2000/svg" width="220" height="220">
<path d="M0 0 C72.6 0 145.2 0 220 0 C220 72.6 220 145.2 220 220 C147.4 220 74.8 220 0 220 C0 147.4 0 74.8 0 0 Z " fill="#FAFAF8" transform="translate(0,0)"/>
<path d="M0 0 C0.99 0.495 0.99 0.495 2 1 C1.41089844 1.49628906 0.82179688 1.99257813 0.21484375 2.50390625 C-2.07217859 4.57124891 -4.11895649 6.55464343 -6 9 C-6.27264227 12.76952126 -6.27264227 12.76952126 -5 16 C-4.505 17.485 -4.505 17.485 -4 19 C-4.66 19 -5.32 19 -6 19 C-5.01 20.32 -4.02 21.64 -3 23 C-3.33 23.66 -3.66 24.32 -4 25 C-4.33 25 -4.66 25 -5 25 C-4.91621094 25.61488281 -4.83242187 26.22976562 -4.74609375 26.86328125 C-4.59333984 28.07564453 -4.59333984 28.07564453 -4.4375 29.3125 C-4.33308594 30.11300781 -4.22867188 30.91351563 -4.12109375 31.73828125 C-4 34 -4 34 -5 37 C-4.34 37 -3.68 37 -3 37 C-2.505 36.01 -2.505 36.01 -2 35 C-2 38.96 -2 42.92 -2 47 C-2.66 47 -3.32 47 -4 47 C-3.72965366 49.43717258 -3.72965366 49.43717258 -3 52 C-1.515 52.99 -1.515 52.99 0 54 C0 54.66 0 55.32 0 56 C0.66 56.33 1.32 56.66 2 57 C1.01 58.32 0.02 59.64 -1 61 C-1.495 58.03 -1.495 58.03 -2 55 C-3.65 55 -5.3 55 -7 55 C-6.34 51.7 -5.68 48.4 -5 45 C-6.98 45.99 -6.98 45.99 -9 47 C-9.22331199 45.41870971 -9.42804644 43.83478911 -9.625 42.25 C-9.74101563 41.36828125 -9.85703125 40.4865625 -9.9765625 39.578125 C-10.00207817 36.77140122 -9.44843844 35.36615134 -8 33 C-8.66 33 -9.32 33 -10 33 C-10.19916016 31.93458984 -10.19916016 31.93458984 -10.40234375 30.84765625 C-10.57894531 29.92855469 -10.75554687 29.00945313 -10.9375 28.0625 C-11.11152344 27.14597656 -11.28554687 26.22945312 -11.46484375 25.28515625 C-11.77714988 23.04710156 -11.77714988 23.04710156 -13 22 C-14.61949011 24.57213134 -15.04408751 25.67669159 -14.625 28.75 C-14.41875 29.4925 -14.2125 30.235 -14 31 C-15.32 30.67 -16.64 30.34 -18 30 C-17.52309796 28.37433394 -17.04340334 26.74948689 -16.5625 25.125 C-16.29566406 24.22007813 -16.02882812 23.31515625 -15.75390625 22.3828125 C-15 20 -15 20 -14 18 C-15.65 18.33 -17.3 18.66 -19 19 C-19 19.66 -19 20.32 -19 21 C-19.99 20.67 -20.98 20.34 -22 20 C-22 19.01 -22 18.02 -22 17 C-22.66 17 -23.32 17 -24 17 C-22.88145414 20.72614153 -22.88145414 20.72614153 -20 23 C-20.495 24.5778125 -20.495 24.5778125 -21 26.1875 C-23.16600595 34.94435262 -22.32711355 43.93381588 -20.4375 52.66015625 C-20 55 -20 55 -20 59 C-19.236875 59.103125 -18.47375 59.20625 -17.6875 59.3125 C-14.82940576 60.04364039 -13.84257115 60.76951913 -12 63 C-12.33 63.99 -12.66 64.98 -13 66 C-14.65 64.35 -16.3 62.7 -18 61 C-16.48853546 68.2451724 -12.37221714 74.05190526 -7 79 C-4.11412641 82.19507433 -3.48455645 84.73590323 -3 89 C-4.7902061 89.67057887 -6.58221489 90.3363469 -8.375 91 C-9.37273437 91.37125 -10.37046875 91.7425 -11.3984375 92.125 C-14 93 -14 93 -16 93 C-12.86077669 97.52048157 -9.78504172 99.51545911 -5 102 C-5.44616285 107.57703559 -6.87367422 110.44449673 -10 115 C-11.45833882 118.28744175 -12.74764441 121.62929825 -14 125 C-1.30690163 121.46578422 10.85609734 117.70470396 22.2578125 110.91796875 C24 110 24 110 26 110 C26 109.01 26 108.02 26 107 C27.134375 107.020625 28.26875 107.04125 29.4375 107.0625 C32.81575674 107.41577477 32.81575674 107.41577477 34 106 C40.004147 105.41202327 44.83730368 105.60017559 50 109 C51.875 110.6875 51.875 110.6875 53 112 C52.34 112 51.68 112 51 112 C51.33 112.66 51.66 113.32 52 114 C53.01170618 112.75945552 54.00897797 111.5071298 55 110.25 C55.8353125 109.20585937 55.8353125 109.20585937 56.6875 108.140625 C58.34847198 105.85015251 58.34847198 105.85015251 58 102 C60.23828125 100.48828125 60.23828125 100.48828125 63 99 C64.42406197 97.76088114 65.81976004 96.48852093 67.1875 95.1875 C74.55482326 88.56546152 80.94616359 84.3243173 91 84 C89.81418042 81.33190595 89.12596915 79.93404138 87 78 C83.07498461 76.57509415 79.10501795 75.7358051 75 75 C75 74.67 75 74.34 75 74 C81.20603365 73.62003876 85.94830783 74.63739961 90.9375 78.5 C92 80 92 80 92 83 C92.9075 82.896875 93.815 82.79375 94.75 82.6875 C98 83 98 83 100.15625 85.09375 C102.34040692 88.53657362 102.58653199 90.76666668 102.75 94.8125 C102.80671875 95.97394531 102.8634375 97.13539063 102.921875 98.33203125 C102.96054687 99.65267578 102.96054687 99.65267578 103 101 C104.84670417 96.79038695 105.18085487 93.61179928 105 89 C104.34 89 103.68 89 103 89 C102.33333333 85.66666667 101.66666667 82.33333333 101 79 C101.99 79 102.98 79 104 79 C104 80.32 104 81.64 104 83 C104.99 83 105.98 83 107 83 C107.52924739 93.46733721 106.81006007 99.2849099 101 108 C100.61500109 109.65549531 100.27206865 111.3222433 100 113 C99.34 113 98.68 113 98 113 C98.02094727 114.06210693 98.04189453 115.12421387 98.06347656 116.21850586 C98.13713733 120.24603207 98.18224623 124.27350212 98.21972656 128.30151367 C98.23956048 130.02850427 98.2666364 131.75543039 98.30175781 133.48217773 C98.62006863 149.56155508 96.9087996 163.72558121 89 178 C86.525 183.445 86.525 183.445 84 189 C44.73 189 5.46 189 -35 189 C-35.33 170.85 -35.66 152.7 -36 134 C-42.9984006 124.82232025 -42.9984006 124.82232025 -50.5625 116.125 C-63.76282845 101.75650089 -72.67112344 82.12769065 -72.15625 62.5625 C-72.07890625 60.7990625 -72.07890625 60.7990625 -72 59 C-71.9690625 57.865625 -71.938125 56.73125 -71.90625 55.5625 C-71.18019025 39.5891854 -67.22286962 24.50597717 -57 12 C-57 15 -57 15 -59 18 C-60.27741415 21.9032099 -61 24.87239983 -61 29 C-60.67 28.01 -60.34 27.02 -60 26 C-59.34 26 -58.68 26 -58 26 C-57.62875 27.093125 -57.2575 28.18625 -56.875 29.3125 C-55.57223992 32.34817679 -55.01785066 32.98797021 -52.125 34.9375 C-47.77047488 36.41803854 -45.46915553 36.58766221 -41.1875 34.875 C-38.6415634 33.13050294 -38.6415634 33.13050294 -38.6875 29.8125 C-38.790625 28.884375 -38.89375 27.95625 -39 27 C-38.34 27 -37.68 27 -37 27 C-37 27.66 -37 28.32 -37 29 C-36.34 29.33 -35.68 29.66 -35 30 C-36.32 32.64 -37.64 35.28 -39 38 C-37.68 38 -36.36 38 -35 38 C-34.731875 39.216875 -34.46375 40.43375 -34.1875 41.6875 C-33.31435043 45.23663314 -31.99410785 47.91819696 -30 51 C-30 51.66 -30 52.32 -30 53 C-29.38125 53.309375 -28.7625 53.61875 -28.125 53.9375 C-26.75 54.625 -25.375 55.3125 -24 56 C-24.04600342 55.35039307 -24.09200684 54.70078613 -24.1394043 54.03149414 C-24.34053166 51.04274684 -24.51416512 48.0529828 -24.6875 45.0625 C-24.76033203 44.04091797 -24.83316406 43.01933594 -24.90820312 41.96679688 C-25.26924181 35.31943749 -24.64800423 30.13023152 -22 24 C-22.66 24 -23.32 24 -24 24 C-24.495 22.02 -24.495 22.02 -25 20 C-25.99 20.33 -26.98 20.66 -28 21 C-27.67 16.05 -27.34 11.1 -27 6 C-26.67 6 -26.34 6 -26 6 C-25.855625 7.093125 -25.71125 8.18625 -25.5625 9.3125 C-25.11711896 12.93122987 -25.11711896 12.93122987 -24 16 C-20.7 16.33 -17.4 16.66 -14 17 C-14 16.34 -14 15.68 -14 15 C-13.34 15 -12.68 15 -12 15 C-12 14.01 -12 13.02 -12 12 C-11.01 11.34 -10.02 10.68 -9 10 C-7.99194445 7.82102508 -7.99194445 7.82102508 -7.3125 5.375 C-7.06113281 4.55773438 -6.80976562 3.74046875 -6.55078125 2.8984375 C-6.36902344 2.27195313 -6.18726562 1.64546875 -6 1 C-5.505 2.98 -5.505 2.98 -5 5 C-3.35 3.35 -1.7 1.7 0 0 Z " fill="#020202" transform="translate(90,31)"/>
<path d="M0 0 C11.55 0 23.1 0 35 0 C36.98 4.95 38.96 9.9 41 15 C41.99 16.98 42.98 18.96 44 21 C47.36591866 19.55746343 49.51047079 17.66735273 52 15 C52.66 15.33 53.32 15.66 54 16 C53.484375 16.37125 52.96875 16.7425 52.4375 17.125 C50.68015616 18.96672789 50.68015616 18.96672789 51.3125 21.6875 C51.6528125 23.3271875 51.6528125 23.3271875 52 25 C52.09636455 27.6741163 52.04615613 30.32294445 52 33 C47.38 34.98 42.76 36.96 38 39 C41.64934767 37.78355078 45.167761 36.3066948 48.72265625 34.83984375 C51 34 51 34 53 34 C53 35.32 53 36.64 53 38 C49.7 39.32 46.4 40.64 43 42 C43.99 42.495 43.99 42.495 45 43 C46.70823864 41.98162696 48.41551787 40.96152369 50.11328125 39.92578125 C52.78270551 38.61593953 55.08487785 38.71559784 58 39 C59.40526252 44.26973445 60.31873519 50.83128559 58.17578125 55.98046875 C57.125 57.625 57.125 57.625 55 60 C54.34 60 53.68 60 53 60 C53 59.34 53 58.68 53 58 C52.34 58 51.68 58 51 58 C51.495 60.97 51.495 60.97 52 64 C48.67103415 66.67941153 46.84058069 68 42.5 68 C38.56999499 66.87714143 36.07211991 65.70639135 33 63 C32.125 59.75 32.125 59.75 32 57 C31.34 57 30.68 57 30 57 C29.67 58.32 29.34 59.64 29 61 C28.67 61 28.34 61 28 61 C27.45953484 55.41519339 29.52617291 49.94765418 32 45 C27.77464517 50.7842236 24.81166976 56.0679223 23 63 C22.73316406 63.97839844 22.46632813 64.95679687 22.19140625 65.96484375 C20.16303544 73.97157065 19.30962941 81.75839377 19 90 C18.93554688 91.15628906 18.87109375 92.31257813 18.8046875 93.50390625 C18.10942197 114.24599457 28.7192626 133.92730531 42.4375 148.9375 C43.45650391 150.00291016 43.45650391 150.00291016 44.49609375 151.08984375 C45.32238281 152.05019531 46.14867187 153.01054687 47 154 C47.97369286 155.10370438 47.97369286 155.10370438 48.96705627 156.22970581 C54.924255 163.557442 56.11804533 168.79619401 55.78125 178.10546875 C55.77319336 179.17559204 55.76513672 180.24571533 55.75683594 181.3482666 C55.71539487 185.2953887 55.60370565 189.24152289 55.5 193.1875 C55.335 202.035625 55.17 210.88375 55 220 C36.85 220 18.7 220 0 220 C0 147.4 0 74.8 0 0 Z " fill="#FDFDFB" transform="translate(0,0)"/>
<path d="M0 0 C0.66 0 1.32 0 2 0 C2.33 0.99 2.66 1.98 3 3 C3.66 3.33 4.32 3.66 5 4 C5 3.34 5 2.68 5 2 C6.65 1.67 8.3 1.34 10 1 C9.52309796 2.62566606 9.04340334 4.25051311 8.5625 5.875 C8.29566406 6.77992187 8.02882813 7.68484375 7.75390625 8.6171875 C7 11 7 11 6 13 C6.99 13 7.98 13 9 13 C8.773125 12.443125 8.54625 11.88625 8.3125 11.3125 C7.87550935 8.07876916 9.18801373 6.60926022 11 4 C13.86299506 6.86299506 13.99421225 8.65852284 14.0625 12.6875 C14.041875 13.780625 14.02125 14.87375 14 16 C14.66 16 15.32 16 16 16 C16 19.33333333 16 22.66666667 16 26 C16.33 26.99 16.66 27.98 17 29 C17.99 28.34 18.98 27.68 20 27 C19.34 30.3 18.68 33.6 18 37 C19.65 37.33 21.3 37.66 23 38 C23.33 39.32 23.66 40.64 24 42 C24.33031395 39.02846455 24.33031395 39.02846455 22.625 37.4375 C22.08875 36.963125 21.5525 36.48875 21 36 C20.34 35.34 19.68 34.68 19 34 C19.375 31.875 19.375 31.875 20 30 C20.66 30 21.32 30 22 30 C21.505 25.05 21.505 25.05 21 20 C20.34 20 19.68 20 19 20 C18.67 16.04 18.34 12.08 18 8 C18.66 7.67 19.32 7.34 20 7 C20.44988281 7.40089844 20.89976563 7.80179688 21.36328125 8.21484375 C32.50448872 19.46891541 32.50448872 19.46891541 46.1875 25.625 C47.445625 25.74875 48.70375 25.8725 50 26 C50 23.03 50 20.06 50 17 C50.99 17 51.98 17 53 17 C52.67 19.97 52.34 22.94 52 26 C52.78375 24.741875 53.5675 23.48375 54.375 22.1875 C55.88406307 19.76505664 57.41642219 17.37536671 59 15 C65.44078341 15.51526267 68.93025554 17.62342365 73.9375 21.5 C75 23 75 23 74.6875 25.1875 C74 27 74 27 72.4375 27.75 C68.6355172 28.13994695 66.01449983 26.08248056 63 24 C61.0625 22.375 61.0625 22.375 60 21 C60 20.34 60 19.68 60 19 C59.34 19 58.68 19 58 19 C56.48046291 23.91582077 56.48046291 23.91582077 56 29 C57.17286845 30.6824808 57.17286845 30.6824808 58.75 32.3125 C61.49626088 35.36892681 63.73664534 38.56594465 66 42 C67.62351109 43.79394446 67.62351109 43.79394446 69 45 C68.505 45.99 68.505 45.99 68 47 C67.34 46.34 66.68 45.68 66 45 C65.67 45.99 65.34 46.98 65 48 C67.64 48.33 70.28 48.66 73 49 C73 49.66 73 50.32 73 51 C72.01 51.495 72.01 51.495 71 52 C71 52.99 71 53.98 71 55 C72.32 55 73.64 55 75 55 C75.4021875 55.928125 75.4021875 55.928125 75.8125 56.875 C76.95556848 59.2995233 76.95556848 59.2995233 80 61 C80 61.66 80 62.32 80 63 C81.485 63.495 81.485 63.495 83 64 C76.25 66 76.25 66 74 66 C71.73646942 74.06382769 70.775635 80.45649106 75 88 C77.06890419 89.04289755 77.06890419 89.04289755 79 89 C79.33 87.02 79.66 85.04 80 83 C81.485 83.495 81.485 83.495 83 84 C83.36539443 88.28577219 82.48423598 90.34492062 80 93.8125 C79.443125 94.60269531 78.88625 95.39289063 78.3125 96.20703125 C77.879375 96.79871094 77.44625 97.39039063 77 98 C76.34 97.67 75.68 97.34 75 97 C74.9175 96.38125 74.835 95.7625 74.75 95.125 C74.14434913 92.74784582 74.14434913 92.74784582 71.5625 91.3125 C67.05119864 89.6504416 62.77371683 89.27359247 58 89 C57.67 89.66 57.34 90.32 57 91 C54.69 90.67 52.38 90.34 50 90 C50 90.99 50 91.98 50 93 C37.19939492 100.27163086 24.78348603 106.17581663 10 108 C11.31110178 102.79823032 12.67113695 98.1691985 15.6875 93.6875 C17.1440087 91.46252658 18.0347659 89.88500508 18.8125 87.3125 C17.6036763 83.87200178 15.09482398 82.93979235 11.9453125 81.30859375 C10 80 10 80 8 76 C11.96 74.35 15.92 72.7 20 71 C18.80651089 65.35805147 17.48566252 63.44248519 13 60 C11.14882044 57.43766348 9.5905078 54.7289192 8 52 C7.38125 51.0925 6.7625 50.185 6.125 49.25 C5 47 5 47 5.3125 44.6875 C5.539375 44.130625 5.76625 43.57375 6 43 C7.65 44.65 9.3 46.3 11 48 C10.34410262 46.01735205 10.34410262 46.01735205 9 44 C8.1853125 43.76667969 7.370625 43.53335938 6.53125 43.29296875 C4 42 4 42 2.85546875 38.98046875 C0.86593904 27.68319769 -1.05762275 16.74744835 4 6 C3.01 5.67 2.02 5.34 1 5 C0.67 3.35 0.34 1.7 0 0 Z " fill="#F7F7F5" transform="translate(66,48)"/>
<path d="M0 0 C0.99 0.33 1.98 0.66 3 1 C3.84375 2.78515625 3.84375 2.78515625 4.5 5.0625 C5.43560633 8.19777654 6.47130789 11.17676131 7.75 14.1875 C9.12670559 17.74696161 9.02579425 20.26983911 8 24 C8.804375 24.309375 9.60875 24.61875 10.4375 24.9375 C13 26 13 26 14 27 C14.09571971 28.49283798 14.12188227 29.99019655 14.12025452 31.48609924 C14.12162918 32.45510162 14.12300385 33.424104 14.12442017 34.42247009 C14.11902725 36.03007957 14.11902725 36.03007957 14.11352539 37.67016602 C14.11367142 38.79197266 14.11381744 39.9137793 14.1139679 41.06958008 C14.1132682 44.79770811 14.10547315 48.52578689 14.09765625 52.25390625 C14.09579227 54.83080518 14.09436827 57.40770447 14.09336853 59.98460388 C14.08993342 66.08675115 14.0820426 72.18887794 14.07201904 78.29101747 C14.06085689 85.2364925 14.0553472 92.18196835 14.05032361 99.12745011 C14.03985996 113.41831124 14.02151489 127.70915134 14 142 C-1.18 142 -16.36 142 -32 142 C-27 128 -27 128 -24.375 123 C-18.52114522 111.64814439 -18.61089361 99.36023054 -18.875 86.9375 C-18.91029482 84.72915625 -18.94101005 82.5208737 -18.96633911 80.31239319 C-18.99073079 78.33305271 -19.02791835 76.35388185 -19.06591797 74.37475586 C-19.0082229 71.42098177 -18.69855294 68.85997797 -18 66 C-17.34 66 -16.68 66 -16 66 C-15.9175 64.96875 -15.835 63.9375 -15.75 62.875 C-14.93434209 58.66076747 -13.49727949 56.4337593 -11 53 C-9.84429296 49.53287889 -9.67164707 46.4585044 -9.4375 42.8125 C-9.35371094 41.54019531 -9.26992187 40.26789063 -9.18359375 38.95703125 C-9.09271484 37.49330078 -9.09271484 37.49330078 -9 36 C-9.99 36 -10.98 36 -12 36 C-12.33 34.68 -12.66 33.36 -13 32 C-10 30 -10 30 -7 29 C-5.60432527 26.8171989 -5.60432527 26.8171989 -4.4375 24.1875 C-4.02371094 23.31480469 -3.60992187 22.44210938 -3.18359375 21.54296875 C-2.79300781 20.70378906 -2.40242188 19.86460938 -2 19 C-1.62230469 18.39285156 -1.24460938 17.78570312 -0.85546875 17.16015625 C0.43073684 13.9123403 0.20941779 10.68515483 0.125 7.25 C0.11597656 6.55261719 0.10695312 5.85523437 0.09765625 5.13671875 C0.07419888 3.42433042 0.03833104 1.71211996 0 0 Z " fill="#FDFDFC" transform="translate(206,78)"/>
<path d="M0 0 C20.79 0 41.58 0 63 0 C63 19.14 63 38.28 63 58 C51.8022069 59.39972414 51.8022069 59.39972414 46 55 C44.5765325 52.8306901 43.64031251 50.61931469 42.6171875 48.234375 C33.78397649 30.56795299 18.94090852 15.25499686 2.875 4.125 C1.92625 3.42375 0.9775 2.7225 0 2 C0 1.34 0 0.68 0 0 Z " fill="#FEFEFC" transform="translate(157,0)"/>
<path d="M0 0 C6.20603365 -0.37996124 10.94830783 0.63739961 15.9375 4.5 C17 6 17 6 17 9 C17.9075 8.896875 18.815 8.79375 19.75 8.6875 C23 9 23 9 25.15625 11.09375 C27.34040692 14.53657362 27.58653199 16.76666668 27.75 20.8125 C27.80671875 21.97394531 27.8634375 23.13539063 27.921875 24.33203125 C27.94765625 25.21246094 27.9734375 26.09289062 28 27 C29.84670417 22.79038695 30.18085487 19.61179928 30 15 C29.34 15 28.68 15 28 15 C27.33333333 11.66666667 26.66666667 8.33333333 26 5 C26.99 5 27.98 5 29 5 C29 6.32 29 7.64 29 9 C29.99 9 30.98 9 32 9 C32.76610951 24.15194373 32.76610951 24.15194373 28 31 C27.46375 31.825 26.9275 32.65 26.375 33.5 C25.92125 33.995 25.4675 34.49 25 35 C24.34 35 23.68 35 23 35 C23 35.66 23 36.32 23 37 C22.34 37 21.68 37 21 37 C21 37.66 21 38.32 21 39 C20.07960938 39.08636719 19.15921875 39.17273438 18.2109375 39.26171875 C3.04766224 40.94481142 -10.22528692 46.7142976 -24 53 C-25.10988281 53.49306641 -25.10988281 53.49306641 -26.2421875 53.99609375 C-28.35184064 55.2009401 -29.81864883 56.62486628 -31.5 58.375 C-32.09941406 58.99246094 -32.69882813 59.60992187 -33.31640625 60.24609375 C-33.87199219 60.82488281 -34.42757812 61.40367187 -35 62 C-36.33333333 63.33333333 -37.66666667 64.66666667 -39 66 C-37.65070536 62.16336928 -35.92248975 59.34827431 -33.375 56.1875 C-32.74335938 55.39730469 -32.11171875 54.60710937 -31.4609375 53.79296875 C-30.97882813 53.20128906 -30.49671875 52.60960937 -30 52 C-33.46430347 53.4264779 -36.62815301 54.76862854 -39.8125 56.75 C-40.534375 57.1625 -41.25625 57.575 -42 58 C-42.66 57.67 -43.32 57.34 -44 57 C-37.92207792 50.75324675 -37.92207792 50.75324675 -35 49 C-34.01 49.33 -33.02 49.66 -32 50 C-31.01 49.505 -31.01 49.505 -30 49 C-30.33 48.34 -30.66 47.68 -31 47 C-28.36 46.34 -25.72 45.68 -23 45 C-23.2475 44.2575 -23.495 43.515 -23.75 42.75 C-23.8325 41.8425 -23.915 40.935 -24 40 C-22.25 37.9375 -22.25 37.9375 -20 36 C-17.27133888 32.88153015 -17 32.38256247 -17 28 C-14.76171875 26.48828125 -14.76171875 26.48828125 -12 25 C-10.57593803 23.76088114 -9.18023996 22.48852093 -7.8125 21.1875 C-0.44517674 14.56546152 5.94616359 10.3243173 16 10 C14.81418042 7.33190595 14.12596915 5.93404138 12 4 C8.07498461 2.57509415 4.10501795 1.7358051 0 1 C0 0.67 0 0.34 0 0 Z " fill="#0C0C0B" transform="translate(165,105)"/>
<path d="M0 0 C2.83185714 2.44125616 3.98981844 3.97098257 5.25 7.5625 C7.30156604 11.59236186 8.49149383 12.17821837 12.57421875 13.58984375 C16.00349349 14.16967281 19.52205133 14 23 14 C23 29.51 23 45.02 23 61 C21.02 60.01 19.04 59.02 17 58 C17.0825 57.195625 17.165 56.39125 17.25 55.5625 C16.96562817 51.51020147 15.75487475 48.93354261 14.015625 45.3203125 C13.02070667 43.04730677 12.41216649 40.91724921 11.875 38.5 C11.58625 37.345 11.2975 36.19 11 35 C10.01 34.505 10.01 34.505 9 34 C9.33 34.66 9.66 35.32 10 36 C10.1229938 38.12235807 10.17555682 40.24911463 10.1875 42.375 C10.20167969 43.51710937 10.21585938 44.65921875 10.23046875 45.8359375 C10.01170034 48.83936816 9.57080637 50.47925934 8 53 C7 50 7 50 8 47 C8.32951714 41.91186764 8.02563831 36.99998678 7 32 C6.22527344 31.74992187 5.45054687 31.49984375 4.65234375 31.2421875 C-0.08171386 29.6321016 -4.75892653 27.88889105 -9.4375 26.125 C-10.35337891 25.78597656 -11.26925781 25.44695312 -12.21289062 25.09765625 C-16.31788996 23.54759907 -20.20707969 21.98597695 -23.9765625 19.7265625 C-26.84848972 17.70713146 -26.84848972 17.70713146 -29.9375 18.25 C-30.618125 18.4975 -31.29875 18.745 -32 19 C-31.63693882 13.24288703 -29.45138856 10.59855735 -25.625 6.625 C-25.13 6.07972656 -24.635 5.53445312 -24.125 4.97265625 C-22.81949054 3.57988012 -21.41458905 2.28184169 -20 1 C-19.01 1 -18.02 1 -17 1 C-17 1.66 -17 2.32 -17 3 C-15.7315625 3.1546875 -15.7315625 3.1546875 -14.4375 3.3125 C-10.648474 4.0703052 -7.5336206 5.4501664 -4 7 C-1.68051785 7.74295913 0.64464791 8.37511067 3 9 C2.690625 8.2575 2.38125 7.515 2.0625 6.75 C1.1905075 4.49307824 0.52332993 2.3549847 0 0 Z " fill="#DF2A51" transform="translate(197,44)"/>
<path d="M0 0 C6.44078341 0.51526267 9.93025554 2.62342365 14.9375 6.5 C16 8 16 8 15.6875 10.1875 C15 12 15 12 13.4375 12.75 C9.6355172 13.13994695 7.01449983 11.08248056 4 9 C2.0625 7.375 2.0625 7.375 1 6 C1 5.34 1 4.68 1 4 C0.34 4 -0.32 4 -1 4 C-2.51953709 8.91582077 -2.51953709 8.91582077 -3 14 C-1.82713155 15.6824808 -1.82713155 15.6824808 -0.25 17.3125 C2.49626088 20.36892681 4.73664534 23.56594465 7 27 C8.62351109 28.79394446 8.62351109 28.79394446 10 30 C9.67 30.66 9.34 31.32 9 32 C8.34 31.34 7.68 30.68 7 30 C6.67 30.99 6.34 31.98 6 33 C8.64 33.33 11.28 33.66 14 34 C14 34.66 14 35.32 14 36 C13.01 36.495 13.01 36.495 12 37 C12 37.99 12 38.98 12 40 C13.32 40 14.64 40 16 40 C16.268125 40.61875 16.53625 41.2375 16.8125 41.875 C17.95556848 44.2995233 17.95556848 44.2995233 21 46 C21 46.66 21 47.32 21 48 C21.99 48.33 22.98 48.66 24 49 C17.25 51.125 17.25 51.125 15 50 C15 49.01 15 48.02 15 47 C12.50935112 46.31292445 10.62113708 46 8 46 C8.495 45.01 8.495 45.01 9 44 C5.7 43.67 2.4 43.34 -1 43 C-1.2475 42.2575 -1.495 41.515 -1.75 40.75 C-3.09365194 37.79396573 -4.68986685 36.23312872 -7 34 C-7 33.34 -7 32.68 -7 32 C-9.41619823 31.74969023 -9.41619823 31.74969023 -12 32 C-14.48038907 35.7205836 -14.46337203 37.59796571 -14 42 C-12.52006844 44.56338689 -12.52006844 44.56338689 -10 46 C-6.832168 46.33448259 -6.832168 46.33448259 -4 46 C-4.33 46.66 -4.66 47.32 -5 48 C-7.6875 48.3125 -7.6875 48.3125 -11 48 C-14.5776736 45.15412328 -16.88292075 42.46831699 -18 38 C-17.875 35.3125 -17.875 35.3125 -17 33 C-14.9375 31.6875 -14.9375 31.6875 -13 31 C-13 30.34 -13 29.68 -13 29 C-13.99 29.33 -14.98 29.66 -16 30 C-16.33 28.68 -16.66 27.36 -17 26 C-17.66 26 -18.32 26 -19 26 C-19 25.34 -19 24.68 -19 24 C-20.65 23.67 -22.3 23.34 -24 23 C-24 22.34 -24 21.68 -24 21 C-22.68 21.33 -21.36 21.66 -20 22 C-20.185625 21.05125 -20.37125 20.1025 -20.5625 19.125 C-21 16 -21 16 -20 14 C-21.65 14.33 -23.3 14.66 -25 15 C-23.6875 13.5 -23.6875 13.5 -22 12 C-21.01 12 -20.02 12 -19 12 C-19 11.34 -19 10.68 -19 10 C-20.32 9.34 -21.64 8.68 -23 8 C-20 8 -20 8 -17 10 C-14.9507906 10.45139459 -14.9507906 10.45139459 -12.8125 10.625 C-11.554375 10.74875 -10.29625 10.8725 -9 11 C-9 8.03 -9 5.06 -9 2 C-8.01 2 -7.02 2 -6 2 C-6.33 4.97 -6.66 7.94 -7 11 C-6.21625 9.741875 -5.4325 8.48375 -4.625 7.1875 C-3.11593693 4.76505664 -1.58357781 2.37536671 0 0 Z " fill="#747473" transform="translate(125,63)"/>
<path d="M0 0 C9.05268156 1.4329198 18.02286105 3.16042235 27 5 C26.64811784 13.39238953 26.64811784 13.39238953 24 15.875 C23.34 16.24625 22.68 16.6175 22 17 C21.505 18.485 21.505 18.485 21 20 C18.49950972 21.60295535 16.06481413 23.01069661 13.4375 24.375 C12.67969238 24.77203125 11.92188477 25.1690625 11.14111328 25.578125 C1.59120177 30.42334435 -8.35078926 33.68595857 -19 35 C-17.07848037 25.9528451 -12.81777059 17.5851217 -6.05859375 11.15234375 C-4 10 -4 10 1 10 C0.505 5.05 0.505 5.05 0 0 Z " fill="#F8F8F7" transform="translate(95,121)"/>
<path d="M0 0 C0.66 0 1.32 0 2 0 C2.33 0.99 2.66 1.98 3 3 C3.66 3.33 4.32 3.66 5 4 C5 3.34 5 2.68 5 2 C6.65 1.67 8.3 1.34 10 1 C9.52309796 2.62566606 9.04340334 4.25051311 8.5625 5.875 C8.29566406 6.77992187 8.02882813 7.68484375 7.75390625 8.6171875 C7 11 7 11 6 13 C6.99 13 7.98 13 9 13 C8.773125 12.443125 8.54625 11.88625 8.3125 11.3125 C7.87550935 8.07876916 9.18801373 6.60926022 11 4 C13.86299506 6.86299506 13.99421225 8.65852284 14.0625 12.6875 C14.041875 13.780625 14.02125 14.87375 14 16 C14.66 16 15.32 16 16 16 C16 19.33333333 16 22.66666667 16 26 C16.33 26.99 16.66 27.98 17 29 C17.99 28.34 18.98 27.68 20 27 C19.34 30.3 18.68 33.6 18 37 C19.65 37.33 21.3 37.66 23 38 C23.23755746 43.82015773 22.64831956 48.37632152 21 54 C20.54820791 57.65901942 20.25271688 61.32230428 20 65 C14.22144705 61.37424129 11.29205883 57.91128811 8 52 C7.38125 51.0925 6.7625 50.185 6.125 49.25 C5 47 5 47 5.3125 44.6875 C5.539375 44.130625 5.76625 43.57375 6 43 C7.65 44.65 9.3 46.3 11 48 C10.34410262 46.01735205 10.34410262 46.01735205 9 44 C8.1853125 43.76667969 7.370625 43.53335938 6.53125 43.29296875 C4 42 4 42 2.85546875 38.98046875 C0.86593904 27.68319769 -1.05762275 16.74744835 4 6 C3.01 5.67 2.02 5.34 1 5 C0.67 3.35 0.34 1.7 0 0 Z " fill="#F4F4F2" transform="translate(66,48)"/>
<path d="M0 0 C4.11926583 0.83893515 7.41507665 2.73985381 11.07421875 4.74609375 C18.98553067 8.136656 26.80551303 8.2866004 35.3125 8.1875 C36.38306641 8.18685547 37.45363281 8.18621094 38.55664062 8.18554688 C44.89801538 8.36634708 44.89801538 8.36634708 51 7 C52.79271391 3.51202512 52.79271391 3.51202512 54 0 C54.495 0.99 54.495 0.99 55 2 C54.5359375 3.3303125 54.5359375 3.3303125 54.0625 4.6875 C52.45265808 9.70641893 52.40455973 13.94374156 54.25 18.875 C55.64513289 22.11093774 55.64513289 22.11093774 58.1875 22.9375 C58.785625 22.958125 59.38375 22.97875 60 23 C60.33 21.02 60.66 19.04 61 17 C62.485 17.495 62.485 17.495 64 18 C64.36539443 22.28577219 63.48423598 24.34492062 61 27.8125 C60.443125 28.60269531 59.88625 29.39289063 59.3125 30.20703125 C58.879375 30.79871094 58.44625 31.39039063 58 32 C57.34 31.67 56.68 31.34 56 31 C55.9175 30.38125 55.835 29.7625 55.75 29.125 C55.14434913 26.74784582 55.14434913 26.74784582 52.5625 25.3125 C48.05119864 23.6504416 43.77371683 23.27359247 39 23 C38.67 23.66 38.34 24.32 38 25 C36.02 24.67 34.04 24.34 32 24 C32.47050781 23.60167969 32.94101563 23.20335937 33.42578125 22.79296875 C35.31760553 20.6382607 35.66060789 19.10908118 36.1875 16.3125 C36.42533203 15.10013672 36.42533203 15.10013672 36.66796875 13.86328125 C36.77753906 13.24839844 36.88710937 12.63351563 37 12 C36.30777344 11.97421875 35.61554688 11.9484375 34.90234375 11.921875 C26.20182035 11.41749683 18.31398089 9.44194794 10 7 C10.33 10.3 10.66 13.6 11 17 C9.9275 17.2475 8.855 17.495 7.75 17.75 C4.00350563 18.99883146 2.47926118 20.02488658 0 23 C-0.08378906 22.3915625 -0.16757813 21.783125 -0.25390625 21.15625 C-1.22723598 18.34327613 -2.35122627 17.88433458 -4.9375 16.5 C-8.60034407 14.53230155 -8.98216577 14.03566845 -11 10 C-7.04 8.35 -3.08 6.7 1 5 C0.67 3.35 0.34 1.7 0 0 Z " fill="#4A4A49" transform="translate(85,114)"/>
<path d="M0 0 C5.58672194 -0.07436251 11.17315339 -0.12870254 16.76025391 -0.16479492 C18.65939353 -0.17984691 20.55849859 -0.20029316 22.45751953 -0.22631836 C25.19312081 -0.26285992 27.928261 -0.27976238 30.6640625 -0.29296875 C31.50804596 -0.30845261 32.35202942 -0.32393646 33.22158813 -0.33988953 C38.2562386 -0.34131488 41.5877981 0.29463999 46 3 C41.19343396 8.10697642 35.59107146 13.35276638 29 16 C27.32459336 15.35561283 25.65816784 14.68753301 24 14 C18.76487721 14.45115692 16.46718097 17.05760005 12.8671875 20.6015625 C12.25101563 21.06304688 11.63484375 21.52453125 11 22 C8 21 8 21 6.92504883 19.28173828 C6.60560303 18.55196777 6.28615723 17.82219727 5.95703125 17.0703125 C5.60576172 16.27496094 5.25449219 15.47960937 4.89257812 14.66015625 C4.35793945 13.40525391 4.35793945 13.40525391 3.8125 12.125 C3.44447266 11.29613281 3.07644531 10.46726562 2.69726562 9.61328125 C0 3.41807746 0 3.41807746 0 0 Z " fill="#D92C51" transform="translate(35,0)"/>
<path d="M0 0 C4.29 0 8.58 0 13 0 C13 0.33 13 0.66 13 1 C9.04 1 5.08 1 1 1 C1.33 1.86625 1.66 2.7325 2 3.625 C2.98731341 6.95718275 3.16420974 9.55159538 3 13 C3.99 13.33 4.98 13.66 6 14 C8.35373401 17.53060101 8.65778415 20.58595756 9.125 24.6875 C9.21136719 25.38939453 9.29773438 26.09128906 9.38671875 26.81445312 C9.59826875 28.54211145 9.800086 30.2709566 10 32 C11.32 31.67 12.64 31.34 14 31 C14.33 32.32 14.66 33.64 15 35 C15.66 35 16.32 35 17 35 C16.67257813 36.23621094 16.34515625 37.47242188 16.0078125 38.74609375 C14.7220561 44.53199757 14.77819744 50.16126682 14.875 56.0625 C14.88402344 57.11888672 14.89304687 58.17527344 14.90234375 59.26367188 C14.9256833 61.84269253 14.95842225 64.4212199 15 67 C10.40243547 64.85773057 7.12534764 62.08993134 4.6875 57.5625 C3.89789205 54.61941581 3.85888433 52.03398687 4 49 C2.68 49 1.36 49 0 49 C0.63558197 46.07108101 1.57580166 43.60437336 2.9375 40.9375 C3.27652344 40.26589844 3.61554687 39.59429687 3.96484375 38.90234375 C5 37 5 37 7 34 C7.14221065 31.39754502 7.18802932 28.90882316 7.125 26.3125 C7.11597656 25.61060547 7.10695313 24.90871094 7.09765625 24.18554688 C7.07413704 22.45688475 7.03826713 20.72839855 7 19 C3.3438444 19.99201378 0.12181667 20.93674904 -3.25 22.6875 C-6 24 -6 24 -9 23 C-8 21 -8 21 -5.71484375 20.1484375 C-4.79832031 19.89320312 -3.88179687 19.63796875 -2.9375 19.375 C-1.55884766 18.98441406 -1.55884766 18.98441406 -0.15234375 18.5859375 C0.55792969 18.39257812 1.26820312 18.19921875 2 18 C2 16.68 2 15.36 2 14 C1.02417969 14.433125 0.04835938 14.86625 -0.95703125 15.3125 C-2.2420618 15.8752871 -3.52722502 16.43777134 -4.8125 17 C-5.45509766 17.28617188 -6.09769531 17.57234375 -6.75976562 17.8671875 C-9.67756469 19.13711041 -11.78265714 20 -15 20 C-4.23282443 13 -4.23282443 13 1 13 C0.67 8.71 0.34 4.42 0 0 Z " fill="#F5F5F4" transform="translate(51,20)"/>
<path d="M0 0 C0.66 0.33 1.32 0.66 2 1 C1.41089844 1.49628906 0.82179688 1.99257813 0.21484375 2.50390625 C-2.07217859 4.57124891 -4.11895649 6.55464343 -6 9 C-6.27264227 12.76952126 -6.27264227 12.76952126 -5 16 C-4.67 16.99 -4.34 17.98 -4 19 C-4.66 19 -5.32 19 -6 19 C-5.01 20.32 -4.02 21.64 -3 23 C-3.33 23.66 -3.66 24.32 -4 25 C-4.33 25 -4.66 25 -5 25 C-4.87431641 25.92232422 -4.87431641 25.92232422 -4.74609375 26.86328125 C-4.64425781 27.67152344 -4.54242188 28.47976562 -4.4375 29.3125 C-4.33308594 30.11300781 -4.22867188 30.91351563 -4.12109375 31.73828125 C-4 34 -4 34 -5 37 C-4.34 37 -3.68 37 -3 37 C-2.67 36.34 -2.34 35.68 -2 35 C-2 38.96 -2 42.92 -2 47 C-2.66 47 -3.32 47 -4 47 C-3.72965366 49.43717258 -3.72965366 49.43717258 -3 52 C-2.01 52.66 -1.02 53.32 0 54 C0 54.66 0 55.32 0 56 C0.66 56.33 1.32 56.66 2 57 C1.01 58.32 0.02 59.64 -1 61 C-1.33 59.02 -1.66 57.04 -2 55 C-3.65 55 -5.3 55 -7 55 C-6.34 51.7 -5.68 48.4 -5 45 C-6.32 45.66 -7.64 46.32 -9 47 C-9.22331199 45.41870971 -9.42804644 43.83478911 -9.625 42.25 C-9.74101563 41.36828125 -9.85703125 40.4865625 -9.9765625 39.578125 C-10.00207817 36.77140122 -9.44843844 35.36615134 -8 33 C-8.66 33 -9.32 33 -10 33 C-10.19916016 31.93458984 -10.19916016 31.93458984 -10.40234375 30.84765625 C-10.57894531 29.92855469 -10.75554687 29.00945313 -10.9375 28.0625 C-11.11152344 27.14597656 -11.28554687 26.22945312 -11.46484375 25.28515625 C-11.77714988 23.04710156 -11.77714988 23.04710156 -13 22 C-14.61949011 24.57213134 -15.04408751 25.67669159 -14.625 28.75 C-14.41875 29.4925 -14.2125 30.235 -14 31 C-15.32 30.67 -16.64 30.34 -18 30 C-17.52309796 28.37433394 -17.04340334 26.74948689 -16.5625 25.125 C-16.29566406 24.22007813 -16.02882813 23.31515625 -15.75390625 22.3828125 C-15 20 -15 20 -14 18 C-15.65 18.33 -17.3 18.66 -19 19 C-19 19.66 -19 20.32 -19 21 C-19.99 20.67 -20.98 20.34 -22 20 C-22 19.01 -22 18.02 -22 17 C-22.66 17 -23.32 17 -24 17 C-22.88145414 20.72614153 -22.88145414 20.72614153 -20 23 C-20.33 24.051875 -20.66 25.10375 -21 26.1875 C-23.16600595 34.94435262 -22.32711355 43.93381588 -20.4375 52.66015625 C-20 55 -20 55 -20 59 C-19.236875 59.103125 -18.47375 59.20625 -17.6875 59.3125 C-14.82940576 60.04364039 -13.84257115 60.76951913 -12 63 C-12.33 63.99 -12.66 64.98 -13 66 C-14.65 64.35 -16.3 62.7 -18 61 C-18.99 61.66 -19.98 62.32 -21 63 C-21.28875 62.21625 -21.5775 61.4325 -21.875 60.625 C-22.84912254 57.90328368 -22.84912254 57.90328368 -25 56 C-25.45871794 52.33311076 -25.32394522 48.6297264 -25.3125 44.9375 C-25.32861328 43.92494141 -25.34472656 42.91238281 -25.36132812 41.86914062 C-25.36552156 35.36512433 -24.50478019 30.01317832 -22 24 C-22.66 24 -23.32 24 -24 24 C-24.33 22.68 -24.66 21.36 -25 20 C-25.99 20.33 -26.98 20.66 -28 21 C-27.67 16.05 -27.34 11.1 -27 6 C-26.67 6 -26.34 6 -26 6 C-25.855625 7.093125 -25.71125 8.18625 -25.5625 9.3125 C-25.11711896 12.93122987 -25.11711896 12.93122987 -24 16 C-20.7 16.33 -17.4 16.66 -14 17 C-14 16.34 -14 15.68 -14 15 C-13.34 15 -12.68 15 -12 15 C-12 14.01 -12 13.02 -12 12 C-11.01 11.34 -10.02 10.68 -9 10 C-7.99194445 7.82102508 -7.99194445 7.82102508 -7.3125 5.375 C-7.06113281 4.55773438 -6.80976562 3.74046875 -6.55078125 2.8984375 C-6.36902344 2.27195313 -6.18726562 1.64546875 -6 1 C-5.67 2.32 -5.34 3.64 -5 5 C-3.35 3.35 -1.7 1.7 0 0 Z " fill="#191818" transform="translate(90,31)"/>
<path d="M0 0 C2.475 0.495 2.475 0.495 5 1 C5 1.66 5 2.32 5 3 C11.435 6.465 11.435 6.465 18 10 C18.33 9.01 18.66 8.02 19 7 C19.33 7.99 19.66 8.98 20 10 C25.94 10.99 25.94 10.99 32 12 C32 12.66 32 13.32 32 14 C31.01 14.495 31.01 14.495 30 15 C30 15.99 30 16.98 30 18 C31.32 18 32.64 18 34 18 C34.268125 18.61875 34.53625 19.2375 34.8125 19.875 C35.95556848 22.2995233 35.95556848 22.2995233 39 24 C39 24.66 39 25.32 39 26 C39.99 26.33 40.98 26.66 42 27 C35.25 29.125 35.25 29.125 33 28 C33 27.01 33 26.02 33 25 C30.50935112 24.31292445 28.62113708 24 26 24 C26.33 23.34 26.66 22.68 27 22 C23.7 21.67 20.4 21.34 17 21 C16.7525 20.2575 16.505 19.515 16.25 18.75 C14.90634806 15.79396573 13.31013315 14.23312872 11 12 C11 11.34 11 10.68 11 10 C8.58380177 9.74969023 8.58380177 9.74969023 6 10 C3.51961093 13.7205836 3.53662797 15.59796571 4 20 C5.47993156 22.56338689 5.47993156 22.56338689 8 24 C11.167832 24.33448259 11.167832 24.33448259 14 24 C13.67 24.66 13.34 25.32 13 26 C10.3125 26.3125 10.3125 26.3125 7 26 C3.4223264 23.15412328 1.11707925 20.46831699 0 16 C0.125 13.3125 0.125 13.3125 1 11 C3.0625 9.6875 3.0625 9.6875 5 9 C5 8.34 5 7.68 5 7 C4.01 7.33 3.02 7.66 2 8 C0 2.25 0 2.25 0 0 Z " fill="#171616" transform="translate(107,85)"/>
<path d="M0 0 C4.19995271 2.2972117 7.59404994 5.1784658 11.0625 8.4375 C11.57876953 8.91509766 12.09503906 9.39269531 12.62695312 9.88476562 C14.09366779 11.24684842 15.54717414 12.62311277 17 14 C17.78246094 14.73347656 18.56492187 15.46695313 19.37109375 16.22265625 C21 18 21 18 21 20 C20.195625 20.28875 19.39125 20.5775 18.5625 20.875 C15.8673532 21.73262568 15.8673532 21.73262568 15 24 C15.66 24.33 16.32 24.66 17 25 C17 25.66 17 26.32 17 27 C16.236875 26.95875 15.47375 26.9175 14.6875 26.875 C11.77281584 26.77919176 11.77281584 26.77919176 9 29 C8.67 27.35 8.34 25.7 8 24 C3.95377498 23.63019987 3.95377498 23.63019987 1 26 C1 25.01 1 24.02 1 23 C1.66 23 2.32 23 3 23 C2.67 19.7 2.34 16.4 2 13 C1.34 13 0.68 13 0 13 C-0.19397476 11.02145742 -0.38001321 9.0421352 -0.5625 7.0625 C-0.66691406 5.96035156 -0.77132812 4.85820313 -0.87890625 3.72265625 C-0.91886719 2.82417969 -0.95882812 1.92570312 -1 1 C-0.67 0.67 -0.34 0.34 0 0 Z " fill="#F5F5F3" transform="translate(85,55)"/>
<path d="M0 0 C1.67542976 0.28604898 3.34385343 0.61781233 5 1 C5.23755746 6.82015773 4.64831956 11.37632152 3 17 C2.54820791 20.65901942 2.25271688 24.32230428 2 28 C-3.77855295 24.37424129 -6.70794117 20.91128811 -10 15 C-10.928125 13.63875 -10.928125 13.63875 -11.875 12.25 C-13 10 -13 10 -12.6875 7.6875 C-12.460625 7.130625 -12.23375 6.57375 -12 6 C-10.35 7.65 -8.7 9.3 -7 11 C-6.896875 10.360625 -6.79375 9.72125 -6.6875 9.0625 C-6.460625 8.381875 -6.23375 7.70125 -6 7 C-5.01 6.67 -4.02 6.34 -3 6 C-1.84478498 3.52869082 -1.84478498 3.52869082 -1 1 C-0.67 0.67 -0.34 0.34 0 0 Z " fill="#EDEDEC" transform="translate(84,85)"/>
<path d="M0 0 C6.44078341 0.51526267 9.93025554 2.62342365 14.9375 6.5 C16 8 16 8 15.6875 10.1875 C15 12 15 12 13.4375 12.75 C9.6355172 13.13994695 7.01449983 11.08248056 4 9 C2.0625 7.375 2.0625 7.375 1 6 C1 5.34 1 4.68 1 4 C0.34 4 -0.32 4 -1 4 C-1.226875 5.11375 -1.45375 6.2275 -1.6875 7.375 C-3 11 -3 11 -5.625 12.4375 C-6.800625 12.7159375 -6.800625 12.7159375 -8 13 C-8 13.99 -8 14.98 -8 16 C-11.48539917 15.35455571 -14.02819057 13.89865603 -17 12 C-17.92106532 18.05132813 -17.92106532 18.05132813 -17 24 C-17.66 24.66 -18.32 25.32 -19 26 C-19 25.34 -19 24.68 -19 24 C-20.65 23.67 -22.3 23.34 -24 23 C-24 22.34 -24 21.68 -24 21 C-22.68 21.33 -21.36 21.66 -20 22 C-20.185625 21.05125 -20.37125 20.1025 -20.5625 19.125 C-21 16 -21 16 -20 14 C-21.65 14.33 -23.3 14.66 -25 15 C-23.6875 13.5 -23.6875 13.5 -22 12 C-21.01 12 -20.02 12 -19 12 C-19 11.34 -19 10.68 -19 10 C-20.32 9.34 -21.64 8.68 -23 8 C-20 8 -20 8 -17 10 C-14.9507906 10.45139459 -14.9507906 10.45139459 -12.8125 10.625 C-11.554375 10.74875 -10.29625 10.8725 -9 11 C-9 8.03 -9 5.06 -9 2 C-8.01 2 -7.02 2 -6 2 C-6.33 4.97 -6.66 7.94 -7 11 C-6.21625 9.741875 -5.4325 8.48375 -4.625 7.1875 C-3.11593693 4.76505664 -1.58357781 2.37536671 0 0 Z " fill="#6C6C6B" transform="translate(125,63)"/>
<path d="M0 0 C4.29 0 8.58 0 13 0 C13 0.33 13 0.66 13 1 C9.04 1 5.08 1 1 1 C1.33 1.86625 1.66 2.7325 2 3.625 C2.98731341 6.95718275 3.16420974 9.55159538 3 13 C3.99 13.33 4.98 13.66 6 14 C9.04415035 18.56622553 9.15166592 23.00010066 9.53515625 28.39453125 C9.62216797 29.59658203 9.70917969 30.79863281 9.79882812 32.03710938 C9.88583984 33.28298828 9.97285156 34.52886719 10.0625 35.8125 C10.15337891 37.07771484 10.24425781 38.34292969 10.33789062 39.64648438 C10.56142012 42.76413257 10.78201957 45.88195973 11 49 C10.01 48.01 9.02 47.02 8 46 C5.23776722 48.76223278 5.42143709 51.20706617 5 55 C4.67 55 4.34 55 4 55 C4 53.02 4 51.04 4 49 C2.68 49 1.36 49 0 49 C0.63558197 46.07108101 1.57580166 43.60437336 2.9375 40.9375 C3.27652344 40.26589844 3.61554687 39.59429687 3.96484375 38.90234375 C5 37 5 37 7 34 C7.14221065 31.39754502 7.18802932 28.90882316 7.125 26.3125 C7.11597656 25.61060547 7.10695313 24.90871094 7.09765625 24.18554688 C7.07413704 22.45688475 7.03826713 20.72839855 7 19 C3.3438444 19.99201378 0.12181667 20.93674904 -3.25 22.6875 C-6 24 -6 24 -9 23 C-8 21 -8 21 -5.71484375 20.1484375 C-4.79832031 19.89320312 -3.88179687 19.63796875 -2.9375 19.375 C-1.55884766 18.98441406 -1.55884766 18.98441406 -0.15234375 18.5859375 C0.55792969 18.39257812 1.26820312 18.19921875 2 18 C2 16.68 2 15.36 2 14 C1.02417969 14.433125 0.04835938 14.86625 -0.95703125 15.3125 C-2.2420618 15.8752871 -3.52722502 16.43777134 -4.8125 17 C-5.45509766 17.28617188 -6.09769531 17.57234375 -6.75976562 17.8671875 C-9.67756469 19.13711041 -11.78265714 20 -15 20 C-4.23282443 13 -4.23282443 13 1 13 C0.67 8.71 0.34 4.42 0 0 Z " fill="#474747" transform="translate(51,20)"/>
<path d="M0 0 C0 0.66 0 1.32 0 2 C-0.7425 2.4125 -1.485 2.825 -2.25 3.25 C-6.06953243 5.68061155 -8.38784311 8.79858966 -9.609375 13.19140625 C-9.73828125 13.78824219 -9.8671875 14.38507812 -10 15 C-9.43152344 15.10957031 -8.86304688 15.21914063 -8.27734375 15.33203125 C3.92994539 17.83870331 3.92994539 17.83870331 7.41796875 21.48046875 C9.31532822 23.30287081 10.97590976 23.96150346 13.4375 24.875 C14.31535156 25.22691406 15.19320312 25.57882813 16.09765625 25.94140625 C19.01766731 27.05669517 19.01766731 27.05669517 22.18359375 27.83984375 C25.6246352 28.88858221 28.11928466 29.8274423 31 32 C32.73409503 35.83256953 33.50818942 39.07368367 34.25390625 43.2109375 C34.82984456 46.13585979 35.38816967 48.09592747 36.58984375 50.7265625 C38 54 38 54 38 58 C36.68 57.67 35.36 57.34 34 57 C34.0825 56.195625 34.165 55.39125 34.25 54.5625 C33.96562817 50.51020147 32.75487475 47.93354261 31.015625 44.3203125 C30.02070667 42.04730677 29.41216649 39.91724921 28.875 37.5 C28.58625 36.345 28.2975 35.19 28 34 C27.01 33.505 27.01 33.505 26 33 C26.33 33.66 26.66 34.32 27 35 C27.1229938 37.12235807 27.17555682 39.24911463 27.1875 41.375 C27.20167969 42.51710937 27.21585938 43.65921875 27.23046875 44.8359375 C27.01170034 47.83936816 26.57080637 49.47925934 25 52 C24 49 24 49 25 46 C25.32951714 40.91186764 25.02563831 35.99998678 24 31 C23.22527344 30.74992187 22.45054687 30.49984375 21.65234375 30.2421875 C16.91828614 28.6321016 12.24107347 26.88889105 7.5625 25.125 C6.64662109 24.78597656 5.73074219 24.44695312 4.78710938 24.09765625 C0.68211004 22.54759907 -3.20707969 20.98597695 -6.9765625 18.7265625 C-9.84848972 16.70713146 -9.84848972 16.70713146 -12.9375 17.25 C-13.618125 17.4975 -14.29875 17.745 -15 18 C-14.63693882 12.24288703 -12.45138856 9.59855735 -8.625 5.625 C-8.13 5.07972656 -7.635 4.53445312 -7.125 3.97265625 C-3.40125705 0 -3.40125705 0 0 0 Z " fill="#483032" transform="translate(180,45)"/>
<path d="M0 0 C3.75376152 1.25125384 4.24073289 2.5652404 6 6 C6 6.66 6 7.32 6 8 C6.5775 8.268125 7.155 8.53625 7.75 8.8125 C13.62790698 11.91472868 13.62790698 11.91472868 14.75 15.1875 C14.87375 16.0846875 14.87375 16.0846875 15 17 C15.66 16.34 16.32 15.68 17 15 C17.66 16.98 18.32 18.96 19 21 C17.9375 22.5 17.9375 22.5 16 24 C11.51066464 24.67763553 9.57897751 24.37856222 5.75 21.875 C0.80601779 16.70629133 -0.16445527 13.20741322 -0.1875 6.125 C-0.13953215 4.08294023 -0.08176057 2.04098609 0 0 Z " fill="#0F0E0E" transform="translate(54,76)"/>
<path d="M0 0 C3.73487777 0.4979837 5.81237635 0.87491756 9 3 C8.55762656 8.52966802 7.15617614 11.50484004 4 16 C2.75675853 19.2249208 2.75675853 19.2249208 2 22 C0.68 22 -0.64 22 -2 22 C-2 21.34 -2 20.68 -2 20 C-2.66 20 -3.32 20 -4 20 C-6 17 -6 17 -5.8984375 14.765625 C-4.72386369 9.12065835 -3.15406766 4.83623708 0 0 Z " fill="#0E0E0E" transform="translate(76,130)"/>
<path d="M0 0 C0.66 0 1.32 0 2 0 C2.28875 1.051875 2.5775 2.10375 2.875 3.1875 C4.80818299 7.87284992 8.48395759 9.17955767 12.91796875 11.15234375 C13.94857422 11.57193359 13.94857422 11.57193359 15 12 C14.67 12.99 14.34 13.98 14 15 C14.66 15 15.32 15 16 15 C16 15.66 16 16.32 16 17 C11.10047447 18.30654014 6.02676951 18.60354305 1 18 C-2.51483623 15.94967886 -4.70332836 13.89001493 -6 10 C-6.125 7.25 -6.125 7.25 -6 5 C-5.34 5.66 -4.68 6.32 -4 7 C-3.71125 6.401875 -3.4225 5.80375 -3.125 5.1875 C-2 3 -2 3 0 0 Z " fill="#121111" transform="translate(30,57)"/>
<path d="M0 0 C-0.50450684 0.25168945 -1.00901367 0.50337891 -1.52880859 0.76269531 C-3.81722515 1.91296597 -6.09600128 3.08118876 -8.375 4.25 C-9.1690625 4.64574219 -9.963125 5.04148437 -10.78125 5.44921875 C-11.54179688 5.84238281 -12.30234375 6.23554688 -13.0859375 6.640625 C-14.1385376 7.17478027 -14.1385376 7.17478027 -15.21240234 7.71972656 C-17.32560648 9.23319863 -18.02941024 10.61963959 -19 13 C-18.34 13 -17.68 13 -17 13 C-18.17697977 16.17784538 -19.35723578 17.29162105 -22.0625 19.5 C-25.08630591 21.6657966 -25.08630591 21.6657966 -25.875 24.3125 C-25.91625 24.869375 -25.9575 25.42625 -26 26 C-26.66 26 -27.32 26 -28 26 C-28 25.01 -28 24.02 -28 23 C-28.66 23.33 -29.32 23.66 -30 24 C-28.44499019 20.18315774 -25.96404505 17.80804268 -23 15 C-23.52078125 15.17402344 -24.0415625 15.34804688 -24.578125 15.52734375 C-27.74079331 16.14457418 -30.54507464 15.85094328 -33.75 15.5625 C-34.92046875 15.46066406 -36.0909375 15.35882812 -37.296875 15.25390625 C-38.18890625 15.17011719 -39.0809375 15.08632813 -40 15 C-40.33 15.99 -40.66 16.98 -41 18 C-40.70118318 14.51380377 -39.96472514 12.95363875 -37.8125 10.125 C-35 8 -35 8 -31.9375 8.125 C-29 9 -29 9 -26.9375 9.875 C-26.298125 9.91625 -25.65875 9.9575 -25 10 C-22.22877725 7.64573501 -22.22877725 7.64573501 -20 5 C-19.34 5.33 -18.68 5.66 -18 6 C-13.34828026 5.36613929 -9.52905212 2.51778646 -5.55859375 0.1796875 C-3 -1 -3 -1 0 0 Z " fill="#E9E9E8" transform="translate(91,5)"/>
<path d="M0 0 C0.12117187 0.75925781 0.24234375 1.51851563 0.3671875 2.30078125 C0.53476563 3.29464844 0.70234375 4.28851563 0.875 5.3125 C1.11863281 6.79169922 1.11863281 6.79169922 1.3671875 8.30078125 C1.88085454 11.20059827 1.88085454 11.20059827 4 14 C6.56282742 14.72965366 6.56282742 14.72965366 9 15 C9.33 14.34 9.66 13.68 10 13 C10.66 13 11.32 13 12 13 C10.6302836 16.99500618 8.74277578 19.80009492 6 23 C5.855625 22.2575 5.71125 21.515 5.5625 20.75 C3.16607346 16.5322893 -0.52607109 15.49880365 -5 14 C-8.3585225 13.22777677 -8.3585225 13.22777677 -11 13 C-11.05395478 11.37536158 -11.09277195 9.75021459 -11.125 8.125 C-11.14820312 7.22007812 -11.17140625 6.31515625 -11.1953125 5.3828125 C-11 3 -11 3 -9 1 C-6.07236052 0.36537876 -2.99436215 0 0 0 Z " fill="#F2F2F0" transform="translate(136,123)"/>
<path d="M0 0 C0.33 0 0.66 0 1 0 C1.144375 1.093125 1.28875 2.18625 1.4375 3.3125 C1.88288104 6.93122987 1.88288104 6.93122987 3 10 C6.3 10.33 9.6 10.66 13 11 C13 10.34 13 9.68 13 9 C13.99 8.67 14.98 8.34 16 8 C16 8.66 16 9.32 16 10 C15.34 10 14.68 10 14 10 C14.226875 10.721875 14.45375 11.44375 14.6875 12.1875 C15.08783471 15.79051236 13.82423289 16.95961185 12 20 C12.21329449 22.74239143 12.21329449 22.74239143 13 25 C11.68 24.67 10.36 24.34 9 24 C9.47690204 22.37433394 9.95659666 20.74948689 10.4375 19.125 C10.70433594 18.22007813 10.97117187 17.31515625 11.24609375 16.3828125 C12 14 12 14 13 12 C11.35 12.33 9.7 12.66 8 13 C8 13.66 8 14.32 8 15 C7.01 14.67 6.02 14.34 5 14 C5 13.01 5 12.02 5 11 C4.34 11 3.68 11 3 11 C4.11854586 14.72614153 4.11854586 14.72614153 7 17 C6.67 18.051875 6.34 19.10375 6 20.1875 C3.83399405 28.94435262 4.67288645 37.93381588 6.5625 46.66015625 C7 49 7 49 7 53 C7.763125 53.103125 8.52625 53.20625 9.3125 53.3125 C12.17059424 54.04364039 13.15742885 54.76951913 15 57 C14.67 57.99 14.34 58.98 14 60 C12.35 58.35 10.7 56.7 9 55 C8.01 55.66 7.02 56.32 6 57 C5.71125 56.21625 5.4225 55.4325 5.125 54.625 C4.15087746 51.90328368 4.15087746 51.90328368 2 50 C1.54128206 46.33311076 1.67605478 42.6297264 1.6875 38.9375 C1.67138672 37.92494141 1.65527344 36.91238281 1.63867188 35.86914062 C1.63447844 29.36512433 2.49521981 24.01317832 5 18 C4.34 18 3.68 18 3 18 C2.67 16.68 2.34 15.36 2 14 C1.01 14.33 0.02 14.66 -1 15 C-0.67 10.05 -0.34 5.1 0 0 Z " fill="#4B4A4A" transform="translate(63,37)"/>
<path d="M0 0 C0.33 1.32 0.66 2.64 1 4 C3.54886402 3.38827263 5.99915533 2.67884293 8.5 1.875 C11.87037066 1.03240733 12.86701124 1.02437631 16 2 C11.66716382 3.93430187 7.330363 5.85826812 2.98046875 7.75390625 C2.2740625 8.06191162 1.56765625 8.36991699 0.83984375 8.68725586 C-0.57772665 9.30487019 -1.99568616 9.92159232 -3.4140625 10.53735352 C-5.27951211 11.35031827 -7.13998318 12.17468106 -9 13 C-9.74636719 13.33 -10.49273437 13.66 -11.26171875 14 C-13.35816846 15.20604748 -14.82609915 16.63262139 -16.5 18.375 C-17.39912109 19.30119141 -17.39912109 19.30119141 -18.31640625 20.24609375 C-18.87199219 20.82488281 -19.42757812 21.40367187 -20 22 C-21.33333333 23.33333333 -22.66666667 24.66666667 -24 26 C-22.65070536 22.16336928 -20.92248975 19.34827431 -18.375 16.1875 C-17.74335938 15.39730469 -17.11171875 14.60710937 -16.4609375 13.79296875 C-15.97882813 13.20128906 -15.49671875 12.60960937 -15 12 C-18.46430347 13.4264779 -21.62815301 14.76862854 -24.8125 16.75 C-25.534375 17.1625 -26.25625 17.575 -27 18 C-27.66 17.67 -28.32 17.34 -29 17 C-22.92207792 10.75324675 -22.92207792 10.75324675 -20 9 C-19.01 9.33 -18.02 9.66 -17 10 C-16.34 9.67 -15.68 9.34 -15 9 C-15.33 8.34 -15.66 7.68 -16 7 C-13.36 6.34 -10.72 5.68 -8 5 C-8 5.66 -8 6.32 -8 7 C-9.65 7.66 -11.3 8.32 -13 9 C-13 9.66 -13 10.32 -13 11 C-11.01031731 10.32176729 -9.03330023 9.60628877 -7.0625 8.875 C-5.96035156 8.48054687 -4.85820312 8.08609375 -3.72265625 7.6796875 C-0.67411555 6.22522765 -0.67411555 6.22522765 -0.12109375 2.8203125 C-0.08113281 1.88960937 -0.04117188 0.95890625 0 0 Z " fill="#3E3E3E" transform="translate(150,145)"/>
<path d="M0 0 C9.05268156 1.4329198 18.02286105 3.16042235 27 5 C27 5.66 27 6.32 27 7 C18.51311539 9.29967196 10.79393628 10.42781312 2 10 C-0.09350689 6.5980513 -0.17942163 3.94727588 0 0 Z " fill="#FBFBFA" transform="translate(95,121)"/>
<path d="M0 0 C1.9375 0.375 1.9375 0.375 4 1 C4.33 1.66 4.66 2.32 5 3 C6.32 2.67 7.64 2.34 9 2 C9.99 3.32 10.98 4.64 12 6 C11.38125 6.721875 10.7625 7.44375 10.125 8.1875 C7.90677613 10.83698446 7.90677613 10.83698446 7 13.75 C6 16 6 16 4.3125 16.8125 C1.20056862 17.06481876 -1.87978227 17.06000419 -5 17 C-4.80664062 16.443125 -4.61328125 15.88625 -4.4140625 15.3125 C-2.68625575 10.24882873 -1.2306933 5.20677935 0 0 Z " fill="#EEEEEC" transform="translate(130,106)"/>
<path d="M0 0 C0 2.31 0 4.62 0 7 C-0.33 6.01 -0.66 5.02 -1 4 C-2.32 4.33 -3.64 4.66 -5 5 C-5 5.99 -5 6.98 -5 8 C-4.34 8 -3.68 8 -3 8 C-2.67 7.34 -2.34 6.68 -2 6 C-1.67 6.99 -1.34 7.98 -1 9 C-2.32 10.32 -3.64 11.64 -5 13 C-13.86956522 10.04347826 -13.86956522 10.04347826 -17 6 C-17 5.34 -17 4.68 -17 4 C-11.15439723 1.36536213 -6.45512034 -0.56131481 0 0 Z " fill="#F0F0EE" transform="translate(91,120)"/>
<path d="M0 0 C3.63 0 7.26 0 11 0 C10.01 0.33 9.02 0.66 8 1 C8.18828772 3.44480079 8.18828772 3.44480079 9 6 C10.96758273 7.36020151 10.96758273 7.36020151 13 8 C13 7.34 13 6.68 13 6 C14.32 6 15.64 6 17 6 C17.268125 6.61875 17.53625 7.2375 17.8125 7.875 C18.95556848 10.2995233 18.95556848 10.2995233 22 12 C22 12.66 22 13.32 22 14 C22.99 14.33 23.98 14.66 25 15 C18.25 17.125 18.25 17.125 16 16 C16 15.01 16 14.02 16 13 C13.50935112 12.31292445 11.62113708 12 9 12 C9.33 11.34 9.66 10.68 10 10 C9.278125 9.814375 8.55625 9.62875 7.8125 9.4375 C3.9884621 7.48299174 2.15128375 4.65260518 0 1 C0 0.67 0 0.34 0 0 Z " fill="#101010" transform="translate(124,97)"/>
<path d="M0 0 C0.33 0.99 0.66 1.98 1 3 C6.94 3.99 6.94 3.99 13 5 C13 5.66 13 6.32 13 7 C12.01 7.495 12.01 7.495 11 8 C11 9.65 11 11.3 11 13 C8.64828869 12.40138258 6.3140622 11.73075648 4 11 C3.67 10.34 3.34 9.68 3 9 C3.99 9.33 4.98 9.66 6 10 C6 8.68 6 7.36 6 6 C3.69 6 1.38 6 -1 6 C0.32 8.31 1.64 10.62 3 13 C1.35 13.33 -0.3 13.66 -2 14 C-2.37125 12.88625 -2.37125 12.88625 -2.75 11.75 C-4.09365194 8.79396573 -5.68986685 7.23312872 -8 5 C-8 4.34 -8 3.68 -8 3 C-5.69 3 -3.38 3 -1 3 C-0.67 2.01 -0.34 1.02 0 0 Z " fill="#222222" transform="translate(126,92)"/>
<path d="M0 0 C4.29 0 8.58 0 13 0 C13 0.33 13 0.66 13 1 C9.04 1 5.08 1 1 1 C1.33 1.86625 1.66 2.7325 2 3.625 C2.98731341 6.95718275 3.16420974 9.55159538 3 13 C3.99 13.33 4.98 13.66 6 14 C6.33 14.99 6.66 15.98 7 17 C6 19 6 19 3.3125 19.9375 C2.219375 20.288125 1.12625 20.63875 0 21 C-1.051875 21.556875 -2.10375 22.11375 -3.1875 22.6875 C-6 24 -6 24 -9 23 C-8 21 -8 21 -5.71484375 20.1484375 C-4.79832031 19.89320312 -3.88179687 19.63796875 -2.9375 19.375 C-1.55884766 18.98441406 -1.55884766 18.98441406 -0.15234375 18.5859375 C0.55792969 18.39257812 1.26820312 18.19921875 2 18 C2 16.68 2 15.36 2 14 C1.02417969 14.433125 0.04835938 14.86625 -0.95703125 15.3125 C-2.2420618 15.8752871 -3.52722502 16.43777134 -4.8125 17 C-5.45509766 17.28617188 -6.09769531 17.57234375 -6.75976562 17.8671875 C-9.67756469 19.13711041 -11.78265714 20 -15 20 C-4.23282443 13 -4.23282443 13 1 13 C0.67 8.71 0.34 4.42 0 0 Z " fill="#5D5D5D" transform="translate(51,20)"/>
<path d="M0 0 C3.0831351 1.19899698 6.06279492 2.47700477 9 4 C9 3.34 9 2.68 9 2 C9.66 2 10.32 2 11 2 C11 2.99 11 3.98 11 5 C10.34 5 9.68 5 9 5 C9.2784375 6.1446875 9.2784375 6.1446875 9.5625 7.3125 C10 10 10 10 9 13 C5.7 12.01 2.4 11.02 -1 10 C-2.25 3.375 -2.25 3.375 0 0 Z " fill="#F7F7F6" transform="translate(108,75)"/>
<path d="M0 0 C0.66 1.32 1.32 2.64 2 4 C2.66 4 3.32 4 4 4 C4.33 3.34 4.66 2.68 5 2 C5 5.96 5 9.92 5 14 C4.34 14 3.68 14 3 14 C3.27034634 16.43717258 3.27034634 16.43717258 4 19 C4.99 19.66 5.98 20.32 7 21 C7 21.66 7 22.32 7 23 C7.66 23.33 8.32 23.66 9 24 C8.01 25.32 7.02 26.64 6 28 C5.67 26.02 5.34 24.04 5 22 C3.35 22 1.7 22 0 22 C0.66 18.7 1.32 15.4 2 12 C0.02 12.99 0.02 12.99 -2 14 C-2.33 10.7 -2.66 7.4 -3 4 C-2.34 4.66 -1.68 5.32 -1 6 C0.29633621 4.93354885 0.29633621 4.93354885 0.0625 2.4375 C0.041875 1.633125 0.02125 0.82875 0 0 Z " fill="#383838" transform="translate(83,64)"/>
<path d="M0 0 C0.33 0.99 0.66 1.98 1 3 C2.32 2.67 3.64 2.34 5 2 C5.33 3.32 5.66 4.64 6 6 C6.66 6 7.32 6 8 6 C7.01 11.28 6.02 16.56 5 22 C3.68 21.34 2.36 20.68 1 20 C0.67 13.4 0.34 6.8 0 0 Z " fill="#F2F2F1" transform="translate(60,49)"/>
<path d="M0 0 C2.38564077 0.57584432 4.66682784 1.22227595 7 2 C7.81388648 4.39976824 8.44595299 6.66465563 9 9.125 C9.94068317 13.158777 10.90519452 16.96144143 12.625 20.7421875 C14 24 14 24 14 28 C12.68 27.67 11.36 27.34 10 27 C10.0825 26.195625 10.165 25.39125 10.25 24.5625 C9.96562817 20.51020147 8.75487475 17.93354261 7.015625 14.3203125 C6.02070667 12.04730677 5.41216649 9.91724921 4.875 7.5 C4.58625 6.345 4.2975 5.19 4 4 C3.34 3.67 2.68 3.34 2 3 C2.33 3.66 2.66 4.32 3 5 C3.1229938 7.12235807 3.17555682 9.24911463 3.1875 11.375 C3.20167969 12.51710938 3.21585938 13.65921875 3.23046875 14.8359375 C3.01170034 17.83936816 2.57080637 19.47925934 1 22 C0 19 0 19 1 16 C1.3570489 10.58125789 0.90881451 5.33928523 0 0 Z " fill="#523E40" transform="translate(204,75)"/>
<path d="M0 0 C0.33 1.32 0.66 2.64 1 4 C3.54886402 3.38827263 5.99915533 2.67884293 8.5 1.875 C11.87037066 1.03240733 12.86701124 1.02437631 16 2 C14.01724882 2.88515678 12.03355974 3.76823878 10.046875 4.64453125 C7.69592788 5.69040131 5.35471384 6.75241246 3.015625 7.82421875 C1.59386234 8.46639461 0.1719867 9.10832039 -1.25 9.75 C-2.27770508 10.22675171 -2.27770508 10.22675171 -3.32617188 10.71313477 C-7.02055421 12.36704666 -9.93388857 13.40976317 -14 13 C-12.1936233 9.3872466 -7.3522907 8.87130765 -3.6875 7.609375 C-0.66835499 6.22154631 -0.66835499 6.22154631 -0.125 2.828125 C-0.08375 1.89484375 -0.0425 0.9615625 0 0 Z " fill="#747473" transform="translate(150,145)"/>
<path d="M0 0 C0.66 0.33 1.32 0.66 2 1 C2.4140625 3.72265625 2.4140625 3.72265625 2.625 7.0625 C2.69976563 8.16722656 2.77453125 9.27195312 2.8515625 10.41015625 C2.90054687 11.26480469 2.94953125 12.11945313 3 13 C4.65 13 6.3 13 8 13 C8.33 11.68 8.66 10.36 9 9 C9.66 9.33 10.32 9.66 11 10 C11 10.66 11 11.32 11 12 C12.32 12 13.64 12 15 12 C15.66 11.34 16.32 10.68 17 10 C17 10.66 17 11.32 17 12 C17.66 12 18.32 12 19 12 C19 12.66 19 13.32 19 14 C14.10047447 15.30654014 9.02676951 15.60354305 4 15 C0.48516377 12.94967886 -1.70332836 10.89001493 -3 7 C-3.125 4.25 -3.125 4.25 -3 2 C-2.34 2.66 -1.68 3.32 -1 4 C-0.67 2.68 -0.34 1.36 0 0 Z " fill="#80807F" transform="translate(27,60)"/>
<path d="M0 0 C1.32 0 2.64 0 4 0 C2.80350464 3.40540986 1.67025039 5.57249965 -1 8 C-1 8.33 -1 8.66 -1 9 C-1.01160156 9.63550781 -1.02320312 10.27101562 -1.03515625 10.92578125 C-1.04417969 11.71339844 -1.05320312 12.50101563 -1.0625 13.3125 C-1.07410156 14.09238281 -1.08570312 14.87226563 -1.09765625 15.67578125 C-1.00306568 17.92703684 -0.6269963 19.84254029 0 22 C-0.66 22 -1.32 22 -2 22 C-2 21.34 -2 20.68 -2 20 C-2.66 20 -3.32 20 -4 20 C-6 17 -6 17 -5.8984375 14.765625 C-4.72386369 9.12065835 -3.15406766 4.83623708 0 0 Z " fill="#333333" transform="translate(76,130)"/>
<path d="M0 0 C4.875 1.875 4.875 1.875 6 3 C8.32817964 3.36760731 10.6618385 3.70241581 13 4 C12.67 5.32 12.34 6.64 12 8 C10.02 7.01 8.04 6.02 6 5 C5.07893468 11.05132813 5.07893468 11.05132813 6 17 C5.34 17.66 4.68 18.32 4 19 C4 18.34 4 17.68 4 17 C2.35 16.67 0.7 16.34 -1 16 C-1 15.34 -1 14.68 -1 14 C0.98 14.495 0.98 14.495 3 15 C2.814375 14.05125 2.62875 13.1025 2.4375 12.125 C2 9 2 9 3 7 C1.35 7.33 -0.3 7.66 -2 8 C-0.6875 6.5 -0.6875 6.5 1 5 C1.99 5 2.98 5 4 5 C4 4.34 4 3.68 4 3 C2.68 2.34 1.36 1.68 0 1 C0 0.67 0 0.34 0 0 Z " fill="#808080" transform="translate(102,70)"/>
<path d="M0 0 C4.00847373 1.37433385 7.02725496 2.94467871 10 6 C10.8125 9.75 10.8125 9.75 11 13 C10.01 12.67 9.02 12.34 8 12 C8 11.01 8 10.02 8 9 C7.05125 8.855625 6.1025 8.71125 5.125 8.5625 C2 8 2 8 0 7 C0 4.69 0 2.38 0 0 Z " fill="#F6F6F5" transform="translate(119,83)"/>
<path d="M0 0 C0.99 0 1.98 0 3 0 C3 10.375 3 10.375 2 15 C0.68 15 -0.64 15 -2 15 C-3.53597454 11.92805092 -3.2265038 9.39755707 -3 6 C-1.5 2.5625 -1.5 2.5625 0 0 Z " fill="#868685" transform="translate(79,64)"/>
<path d="M0 0 C0.99 0.33 1.98 0.66 3 1 C3 1.66 3 2.32 3 3 C3.66 3 4.32 3 5 3 C3.82302023 6.17784538 2.64276422 7.29162105 -0.0625 9.5 C-3.08630591 11.6657966 -3.08630591 11.6657966 -3.875 14.3125 C-3.91625 14.869375 -3.9575 15.42625 -4 16 C-4.66 16 -5.32 16 -6 16 C-6 15.01 -6 14.02 -6 13 C-6.99 13.495 -6.99 13.495 -8 14 C-6.44499019 10.18315774 -3.96404505 7.80804268 -1 5 C-1.99 4.67 -2.98 4.34 -4 4 C-2.68 2.68 -1.36 1.36 0 0 Z " fill="#C2C2C1" transform="translate(69,15)"/>
<path d="M0 0 C5.19666421 1.3610311 8.2137251 3.30387451 12 7 C12 7.99 12 8.98 12 10 C6.38189117 9.59870651 3.83633583 7.92767716 0 4 C0 2.68 0 1.36 0 0 Z " fill="#FAFAF9" transform="translate(127,64)"/>
<path d="M0 0 C0.33 0 0.66 0 1 0 C1.79623751 3.50755671 2.12833583 6.74962714 2.1328125 10.34375 C2.13410156 11.34277344 2.13539063 12.34179688 2.13671875 13.37109375 C2.13285156 14.40363281 2.12898437 15.43617188 2.125 16.5 C2.12886719 17.53253906 2.13273438 18.56507813 2.13671875 19.62890625 C2.13542969 20.62792969 2.13414062 21.62695312 2.1328125 22.65625 C2.13168457 23.56181641 2.13055664 24.46738281 2.12939453 25.40039062 C1.99882431 28.02362019 1.58070158 30.44191438 1 33 C0.67 33 0.34 33 0 33 C-0.16750929 28.62196815 -0.32807935 24.24375401 -0.48217773 19.86523438 C-0.53560003 18.37525558 -0.59092962 16.88534391 -0.64819336 15.39550781 C-0.73009836 13.25600663 -0.80517709 11.11635907 -0.87890625 8.9765625 C-0.9260376 7.68830566 -0.97316895 6.40004883 -1.02172852 5.07275391 C-1 2 -1 2 0 0 Z " fill="#9F9F9D" transform="translate(188,147)"/>
<path d="M0 0 C-6.15826634 3.53343151 -10.82680681 5.98940596 -18 5 C-20.2265625 3.46875 -20.2265625 3.46875 -22 2 C-18.89773201 1.46740456 -15.79298602 0.95097025 -12.6875 0.4375 C-11.80642578 0.28603516 -10.92535156 0.13457031 -10.01757812 -0.02148438 C-9.17001953 -0.16005859 -8.32246094 -0.29863281 -7.44921875 -0.44140625 C-6.27879028 -0.63778687 -6.27879028 -0.63778687 -5.0847168 -0.83813477 C-3 -1 -3 -1 0 0 Z " fill="#FAFAF9" transform="translate(119,131)"/>
<path d="M0 0 C1.14626322 0.97866338 2.29199788 1.95794587 3.4375 2.9375 C4.07558594 3.48277344 4.71367188 4.02804688 5.37109375 4.58984375 C6.26991149 5.36795695 7.15936528 6.15936528 8 7 C8.14115161 9.67058851 8.04247107 12.32432238 8 15 C4.62465725 13.62721909 3.3367265 12.4223063 1.8125 9.125 C1.48894531 8.44695312 1.16539063 7.76890625 0.83203125 7.0703125 C0.01883031 5.04685476 -0.61429495 3.14693654 -1 1 C-0.67 0.67 -0.34 0.34 0 0 Z " fill="#C5C5C4" transform="translate(72,91)"/>
<path d="M0 0 C2.83185714 2.44125616 3.98981844 3.97098257 5.25 7.5625 C7.0459687 11.09029567 7.28714434 11.54554154 10.6875 12.9375 C14.86444326 14.20840667 18.66182364 14.2324023 23 14 C23 14.66 23 15.32 23 16 C14.54371948 18.55654992 6.46466315 13.86854806 -1 10 C-1 9.34 -1 8.68 -1 8 C0.32 8.33 1.64 8.66 3 9 C2.690625 8.2575 2.38125 7.515 2.0625 6.75 C1.1905075 4.49307824 0.52332993 2.3549847 0 0 Z " fill="#694C4F" transform="translate(197,44)"/>
<path d="M0 0 C0.33 0.66 0.66 1.32 1 2 C4.96 2 8.92 2 13 2 C9.39338934 3.80330533 6.91606575 4.46599103 3 5 C6.92448803 6.96224402 11.39986888 6.42538262 15.52734375 5.328125 C17.70605632 4.59844559 19.85873768 3.83271312 22 3 C19.1357473 6.15067797 16.68202858 7.78148873 12.4140625 8.3359375 C6.30827262 8.42145276 2.58201841 8.21050341 -2 4 C-2 3.34 -2 2.68 -2 2 C-1.34 2 -0.68 2 0 2 C0 1.34 0 0.68 0 0 Z " fill="#A9AAA8" transform="translate(96,129)"/>
<path d="M0 0 C0.66 0.33 1.32 0.66 2 1 C1.41089844 1.49628906 0.82179688 1.99257813 0.21484375 2.50390625 C-2.07217859 4.57124891 -4.11895649 6.55464343 -6 9 C-6.27264227 12.76952126 -6.27264227 12.76952126 -5 16 C-4.67 16.99 -4.34 17.98 -4 19 C-4.66 19 -5.32 19 -6 19 C-6.33 19.66 -6.66 20.32 -7 21 C-9.44243422 17.33634867 -9.85994826 15.41162982 -10 11 C-8.92572589 7.54013126 -7.53671401 4.27788354 -6 1 C-5.67 2.32 -5.34 3.64 -5 5 C-3.35 3.35 -1.7 1.7 0 0 Z " fill="#575756" transform="translate(90,31)"/>
<path d="M0 0 C2.475 0.99 2.475 0.99 5 2 C5 3.32 5 4.64 5 6 C4.0925 6.268125 3.185 6.53625 2.25 6.8125 C-0.71471963 7.89576294 -2.6169754 8.98359457 -5 11 C-5.66 10.67 -6.32 10.34 -7 10 C-6.67 8.35 -6.34 6.7 -6 5 C-5.34 5.33 -4.68 5.66 -4 6 C-2.68 4.02 -1.36 2.04 0 0 Z " fill="#050505" transform="translate(80,131)"/>
<path d="M0 0 C0.66 0.33 1.32 0.66 2 1 C2 2.32 2 3.64 2 5 C2.99 5 3.98 5 5 5 C5.75195822 19.87206266 5.75195822 19.87206266 1 27 C0.34 27.33 -0.32 27.66 -1 28 C-1 27.01 -1 26.02 -1 25 C-0.34 25 0.32 25 1 25 C2.5912689 20.126739 3.21192221 16.19209404 3 11 C2.34 11 1.68 11 1 11 C0.66666667 9.33333333 0.33333333 7.66666667 0 6 C-0.20625 5.0925 -0.4125 4.185 -0.625 3.25 C-0.74875 2.5075 -0.8725 1.765 -1 1 C-0.67 0.67 -0.34 0.34 0 0 Z " fill="#6B6B6B" transform="translate(192,109)"/>
<path d="M0 0 C0.66 0.33 1.32 0.66 2 1 C0.73561678 2.71956118 -0.61973133 4.3719908 -2 6 C-2.72896484 6.86044922 -2.72896484 6.86044922 -3.47265625 7.73828125 C-5.2577089 9.57397369 -6.69809734 10.86207831 -9 12 C-11.78363528 11.89000833 -14.10328901 11.35692336 -16.765625 10.55078125 C-19.14786727 9.75257022 -19.14786727 9.75257022 -22 11 C-21.67 9.68 -21.34 8.36 -21 7 C-16.43711531 6.78777281 -14.44992574 7.22002971 -10 9 C-6.7 6.03 -3.4 3.06 0 0 Z " fill="#402E30" transform="translate(75,4)"/>
<path d="M0 0 C0.99 0.66 1.98 1.32 3 2 C2.01 2.7734375 2.01 2.7734375 1 3.5625 C-1.29945774 5.93531947 -1.29945774 5.93531947 -1.5 9.5 C-1.257811 12.99305422 -1.257811 12.99305422 0.625 15.4375 C3.602598 17.39644605 5.50355037 17.31785906 9 17 C8.67 17.66 8.34 18.32 8 19 C5.3125 19.3125 5.3125 19.3125 2 19 C-1.5776736 16.15412328 -3.88292075 13.46831699 -5 9 C-4.875 6.3125 -4.875 6.3125 -4 4 C-1.9375 2.6875 -1.9375 2.6875 0 2 C0 1.34 0 0.68 0 0 Z " fill="#636362" transform="translate(112,92)"/>
<path d="M0 0 C0.66 0 1.32 0 2 0 C2.99 3.63 3.98 7.26 5 11 C4.01 11.495 4.01 11.495 3 12 C3 13.32 3 14.64 3 16 C2.34 16 1.68 16 1 16 C1 14.02 1 12.04 1 10 C0.34 10 -0.32 10 -1 10 C-0.67 6.7 -0.34 3.4 0 0 Z " fill="#333333" transform="translate(81,54)"/>
<path d="M0 0 C0.33 0 0.66 0 1 0 C1.12375 0.78375 1.2475 1.5675 1.375 2.375 C1.79117993 5.14057822 1.79117993 5.14057822 4 7 C4 8.32 4 9.64 4 11 C5.1446875 11.1546875 5.1446875 11.1546875 6.3125 11.3125 C9.17059424 12.04364039 10.15742885 12.76951913 12 15 C11.67 15.99 11.34 16.98 11 18 C9.35 16.35 7.7 14.7 6 13 C5.01 13.66 4.02 14.32 3 15 C2.71125 14.21625 2.4225 13.4325 2.125 12.625 C1.15087746 9.90328368 1.15087746 9.90328368 -1 8 C-0.96712417 5.27130593 -0.43602229 2.7033382 0 0 Z " fill="#5F5F5F" transform="translate(66,79)"/>
<path d="M0 0 C4.82675589 2.41337795 7.69984002 5.86062408 11 10 C7.59787701 8.38617243 4.89675481 6.41396234 2 4 C2.185625 5.11375 2.37125 6.2275 2.5625 7.375 C3 11 3 11 2 13 C1.34 13 0.68 13 0 13 C-0.19397476 11.02145742 -0.38001321 9.0421352 -0.5625 7.0625 C-0.66691406 5.96035156 -0.77132812 4.85820313 -0.87890625 3.72265625 C-0.91886719 2.82417969 -0.95882812 1.92570312 -1 1 C-0.67 0.67 -0.34 0.34 0 0 Z " fill="#A8A8A6" transform="translate(85,55)"/>
<path d="M0 0 C0.33 0 0.66 0 1 0 C1.22151549 1.79008467 1.42682213 3.58218162 1.625 5.375 C1.74101563 6.37273437 1.85703125 7.37046875 1.9765625 8.3984375 C1.98429687 9.25695312 1.99203125 10.11546875 2 11 C-0.52623786 13.52623786 -3.24530578 15.72438303 -6 18 C-6.33 16.35 -6.66 14.7 -7 13 C-5.68 12.67 -4.36 12.34 -3 12 C-3 11.01 -3 10.02 -3 9 C-3.66 9 -4.32 9 -5 9 C-5 8.01 -5 7.02 -5 6 C-3.68 5.67 -2.36 5.34 -1 5 C-0.67 3.35 -0.34 1.7 0 0 Z " fill="#8A8A89" transform="translate(91,119)"/>
<path d="M0 0 C3.63 0 7.26 0 11 0 C10.01 0.33 9.02 0.66 8 1 C8.33 2.65 8.66 4.3 9 6 C8.34 6 7.68 6 7 6 C6.67 6.99 6.34 7.98 6 9 C4.99712471 7.68969568 3.99777175 6.37669473 3 5.0625 C2.443125 4.33160156 1.88625 3.60070312 1.3125 2.84765625 C0 1 0 1 0 0 Z " fill="#151515" transform="translate(124,97)"/>
<path d="M0 0 C2 2 2 2 2 5 C4.31 5.66 6.62 6.32 9 7 C8.67 7.99 8.34 8.98 8 10 C2.68972746 8.53967505 -1.46330032 6.01679014 -6 3 C-5.34 2.34 -4.68 1.68 -4 1 C-2.68 1.66 -1.36 2.32 0 3 C0 2.01 0 1.02 0 0 Z " fill="#9B9B9A" transform="translate(117,85)"/>
<path d="M0 0 C0.66 0.33 1.32 0.66 2 1 C-0.29351536 8.31492398 -0.29351536 8.31492398 -3.0625 11 C-5 12 -5 12 -7 12 C-6.09205503 7.09709716 -3.67433193 3.32439556 0 0 Z " fill="#F0F0EF" transform="translate(58,57)"/>
<path d="M0 0 C0.33 0.66 0.66 1.32 1 2 C1.66 2 2.32 2 3 2 C3 3.65 3 5.3 3 7 C4.98 7 6.96 7 9 7 C9 7.33 9 7.66 9 8 C6.69 8 4.38 8 2 8 C1.67 8.66 1.34 9.32 1 10 C-1.97 9.505 -1.97 9.505 -5 9 C-4.54625 8.62875 -4.0925 8.2575 -3.625 7.875 C-1.52970606 5.45735315 -0.87986715 3.04569398 0 0 Z " fill="#484848" transform="translate(122,129)"/>
<path d="M0 0 C1.00282884 0.99716314 2.00241253 1.99759327 3 3 C5.32142932 4.10847441 5.32142932 4.10847441 7.875 5 C11.49883478 6.37748106 14.75812877 7.83875251 18 10 C17.01 10.495 17.01 10.495 16 11 C13.35971743 9.96697464 10.81844347 8.87736136 8.25 7.6875 C3.55333418 5.54131296 -1.05561712 3.53151482 -6 2 C-3 0 -3 0 0 0 Z " fill="#744348" transform="translate(186,65)"/>
<path d="M0 0 C0.33 0.66 0.66 1.32 1 2 C0.34 2 -0.32 2 -1 2 C-0.6596875 3.0828125 -0.6596875 3.0828125 -0.3125 4.1875 C0.08783471 7.79051236 -1.17576711 8.95961185 -3 12 C-2.78670551 14.74239143 -2.78670551 14.74239143 -2 17 C-3.32 16.67 -4.64 16.34 -6 16 C-5.52309796 14.37433394 -5.04340334 12.74948689 -4.5625 11.125 C-4.29566406 10.22007813 -4.02882813 9.31515625 -3.75390625 8.3828125 C-3 6 -3 6 -2 4 C-3.65 4.33 -5.3 4.66 -7 5 C-7 5.66 -7 6.32 -7 7 C-7.66 6.67 -8.32 6.34 -9 6 C-8.67 5.01 -8.34 4.02 -8 3 C-6.02 3 -4.04 3 -2 3 C-2 2.34 -2 1.68 -2 1 C-1.34 0.67 -0.68 0.34 0 0 Z " fill="#7C7C7B" transform="translate(78,45)"/>
<path d="M0 0 C0.66 0 1.32 0 2 0 C1.59332589 2.35870984 1.30336447 3.69705418 -0.4152832 5.41333008 C-2.05395983 7.05402633 -2.9751541 8.52611523 -4.04296875 10.57421875 C-4.39423828 11.24130859 -4.74550781 11.90839844 -5.10742188 12.59570312 C-5.46384766 13.28599609 -5.82027344 13.97628906 -6.1875 14.6875 C-6.55552734 15.38939453 -6.92355469 16.09128906 -7.30273438 16.81445312 C-8.2067894 18.54037635 -9.10406601 20.26984719 -10 22 C-11 19 -11 19 -9.453125 15.56640625 C-8.72908596 14.22613545 -7.99423041 12.89166494 -7.25 11.5625 C-6.70859375 10.55993164 -6.70859375 10.55993164 -6.15625 9.53710938 C-2.43618487 2.73720771 -2.43618487 2.73720771 0 0 Z " fill="#B8B8B6" transform="translate(120,178)"/>
<path d="M0 0 C0 3 0 3 -2 6 C-2.33 7.175625 -2.66 8.35125 -3 9.5625 C-4 13 -4 13 -6 15 C-6.66 15 -7.32 15 -8 15 C-7.83423117 8.53501551 -3.99651306 4.69564198 0 0 Z " fill="#4D4D4C" transform="translate(33,43)"/>
<path d="M0 0 C0.66 0 1.32 0 2 0 C2 0.66 2 1.32 2 2 C2.66 2.33 3.32 2.66 4 3 C3.73445313 3.50789063 3.46890625 4.01578125 3.1953125 4.5390625 C1.10022511 8.62218902 -0.67619186 12.5873062 -2 17 C-2.66 16.67 -3.32 16.34 -4 16 C-4 13.36 -4 10.72 -4 8 C-2.68 7.34 -1.36 6.68 0 6 C0 4.02 0 2.04 0 0 Z " fill="#616160" transform="translate(51,58)"/>
<path d="M0 0 C6.20603365 -0.37996124 10.94830783 0.63739961 15.9375 4.5 C17 6 17 6 17 9 C18.98 9 20.96 9 23 9 C23 9.33 23 9.66 23 10 C19.75 10.375 19.75 10.375 16 10 C15.443125 9.071875 14.88625 8.14375 14.3125 7.1875 C10.73906362 2.26195256 5.77572923 2.03527222 0 1 C0 0.67 0 0.34 0 0 Z " fill="#4E4E4D" transform="translate(165,105)"/>
<path d="M0 0 C0.66 0 1.32 0 2 0 C2.598125 0.99 3.19625 1.98 3.8125 3 C4.8953125 4.485 4.8953125 4.485 6 6 C8.6704053 6.50241322 8.6704053 6.50241322 11 6 C11.66 7.32 12.32 8.64 13 10 C11.8553125 9.938125 11.8553125 9.938125 10.6875 9.875 C7.77281584 9.77919176 7.77281584 9.77919176 5 12 C4.87625 10.9171875 4.87625 10.9171875 4.75 9.8125 C3.85274392 6.44778969 2.21462486 4.64326193 0 2 C0 1.34 0 0.68 0 0 Z " fill="#6B6B6A" transform="translate(89,72)"/>
<path d="M0 0 C3.15473719 0.35052635 4.8233534 0.86519076 7.375 2.8125 C9 5 9 5 8.75 7.25 C8.5025 7.8275 8.255 8.405 8 9 C7.4225 8.54625 6.845 8.0925 6.25 7.625 C4.2199667 6.15886484 2.26460157 5.05142216 0 4 C0.66 4 1.32 4 2 4 C2 3.01 2 2.02 2 1 C1.34 0.67 0.68 0.34 0 0 Z " fill="#B2B2B1" transform="translate(117,76)"/>
<path d="M0 0 C6.15234375 0.5859375 6.15234375 0.5859375 8 1 C8.33 1.66 8.66 2.32 9 3 C8.34 3 7.68 3 7 3 C6.67 3.99 6.34 4.98 6 6 C4.35 5.67 2.7 5.34 1 5 C0.67 3.35 0.34 1.7 0 0 Z " fill="#0B0A0A" transform="translate(36,67)"/>
<path d="M0 0 C1.72251754 4.0845326 0.07280563 7.36973696 -1.4375 11.25 C-1.68048828 11.8996875 -1.92347656 12.549375 -2.17382812 13.21875 C-2.77285994 14.81616817 -3.38514321 16.40860594 -4 18 C-4.99 17.67 -5.98 17.34 -7 17 C-6.21086057 14.91570807 -5.41859037 12.83260131 -4.625 10.75 C-4.18414062 9.58984375 -3.74328125 8.4296875 -3.2890625 7.234375 C-2.29409145 4.73790219 -1.25589954 2.37095053 0 0 Z " fill="#A7A7A6" transform="translate(181,202)"/>
<path d="M0 0 C-0.33 0.99 -0.66 1.98 -1 3 C-1.66 3 -2.32 3 -3 3 C-3 3.66 -3 4.32 -3 5 C-5.70879335 6.35439668 -8.00933268 6.06501451 -11 6 C-10.34 5.67 -9.68 5.34 -9 5 C-8.34786708 2.97536745 -8.34786708 2.97536745 -8 1 C-5.23735711 0.40267181 -2.83967231 0 0 0 Z " fill="#606060" transform="translate(191,137)"/>
<path d="M0 0 C0.66 0.99 1.32 1.98 2 3 C1 5 1 5 -1.6875 5.9375 C-3.3271875 6.4634375 -3.3271875 6.4634375 -5 7 C-6.051875 7.556875 -7.10375 8.11375 -8.1875 8.6875 C-11 10 -11 10 -14 9 C-12.53698952 6.07397905 -10.58977236 5.90294791 -7.5625 4.8125 C-6.57378906 4.44769531 -5.58507812 4.08289062 -4.56640625 3.70703125 C-2 3 -2 3 0 4 C0 2.68 0 1.36 0 0 Z " fill="#999998" transform="translate(56,34)"/>
<path d="M0 0 C0.66 0 1.32 0 2 0 C0.6302836 3.99500618 -1.25722422 6.80009492 -4 10 C-5.25664978 7.09399739 -6 5.20395416 -6 2 C-4.35 2 -2.7 2 -1 2 C-0.67 1.34 -0.34 0.68 0 0 Z " fill="#CBCBCA" transform="translate(146,136)"/>
<path d="M0 0 C1.65 0 3.3 0 5 0 C5 2.31 5 4.62 5 7 C2.64828869 6.40138258 0.3140622 5.73075648 -2 5 C-2.33 4.34 -2.66 3.68 -3 3 C-2.01 3.33 -1.02 3.66 0 4 C0 2.68 0 1.36 0 0 Z " fill="#484847" transform="translate(132,98)"/>
<path d="M0 0 C0.33 0 0.66 0 1 0 C1.33 2.97 1.66 5.94 2 9 C1.01 8.01 0.02 7.02 -1 6 C-3.76223278 8.76223278 -3.57856291 11.20706617 -4 15 C-4.33 15 -4.66 15 -5 15 C-5 13.02 -5 11.04 -5 9 C-5.66 8.67 -6.32 8.34 -7 8 C-6.01 7.34 -5.02 6.68 -4 6 C-3.30062468 4.68352881 -2.63270867 3.34977849 -2 2 C-1.34 1.34 -0.68 0.68 0 0 Z " fill="#616160" transform="translate(60,60)"/>
<path d="M0 0 C0.66 0.33 1.32 0.66 2 1 C1.40832031 1.37511719 0.81664063 1.75023438 0.20703125 2.13671875 C-5.18454821 5.60702193 -5.18454821 5.60702193 -9.9375 9.875 C-10.9584375 10.926875 -10.9584375 10.926875 -12 12 C-12.66 12 -13.32 12 -14 12 C-13.03025237 8.49678669 -12.20785394 7.15529996 -9.25 4.9453125 C-8.1775 4.34460938 -7.105 3.74390625 -6 3.125 C-4.9275 2.50882813 -3.855 1.89265625 -2.75 1.2578125 C-1.38875 0.63519531 -1.38875 0.63519531 0 0 Z " fill="#B9B9B8" transform="translate(99,20)"/>
<path d="M0 0 C2 1 2 1 3.125 3.8125 C4 7 4 7 4 11 C2.68 11.33 1.36 11.66 0 12 C0 8.04 0 4.08 0 0 Z " fill="#202120" transform="translate(92,120)"/>
<path d="M0 0 C0.99 0.33 1.98 0.66 3 1 C2.34 1 1.68 1 1 1 C1.27034634 3.43717258 1.27034634 3.43717258 2 6 C2.99 6.66 3.98 7.32 5 8 C5 8.66 5 9.32 5 10 C5.66 10.33 6.32 10.66 7 11 C6.01 12.32 5.02 13.64 4 15 C3.67 13.02 3.34 11.04 3 9 C1.35 9 -0.3 9 -2 9 C-1.34 6.03 -0.68 3.06 0 0 Z " fill="#949493" transform="translate(85,77)"/>
<path d="M0 0 C0.66 0.33 1.32 0.66 2 1 C2 7.33333333 2 13.66666667 2 20 C1.01 20 0.02 20 -1 20 C-0.835 18.9275 -0.67 17.855 -0.5 16.75 C0.21160726 11.17741358 0.08411046 5.60736426 0 0 Z " fill="#696A69" transform="translate(178,118)"/>
<path d="M0 0 C6.57142857 4 6.57142857 4 8 8 C6.35 8.33 4.7 8.66 3 9 C2.71125 8.236875 2.4225 7.47375 2.125 6.6875 C1.03730987 3.84970692 1.03730987 3.84970692 -1 1 C-0.67 0.67 -0.34 0.34 0 0 Z " fill="#6D6D6C" transform="translate(121,97)"/>
<path d="M0 0 C0.99 0 1.98 0 3 0 C3.36923077 5.53846154 3.36923077 5.53846154 1.5 7.875 C0.7575 8.431875 0.7575 8.431875 0 9 C0 7.68 0 6.36 0 5 C-0.99 5.33 -1.98 5.66 -3 6 C-1.125 1.125 -1.125 1.125 0 0 Z " fill="#4C4C4C" transform="translate(184,129)"/>
<path d="M0 0 C0.66 0.33 1.32 0.66 2 1 C1.34 4.3 0.68 7.6 0 11 C0.66 11.33 1.32 11.66 2 12 C1.34 12 0.68 12 0 12 C0 12.99 0 13.98 0 15 C-0.99 15 -1.98 15 -3 15 C-2.69257097 12.68682039 -2.37892298 10.37446648 -2.0625 8.0625 C-1.88847656 6.77472656 -1.71445313 5.48695312 -1.53515625 4.16015625 C-1 1 -1 1 0 0 Z " fill="#484848" transform="translate(117,64)"/>
<path d="M0 0 C0.33 0 0.66 0 1 0 C1.66 3.3 2.32 6.6 3 10 C1.68 10.33 0.36 10.66 -1 11 C-1.02688151 9.35425434 -1.04634123 7.70838587 -1.0625 6.0625 C-1.07410156 5.14597656 -1.08570312 4.22945313 -1.09765625 3.28515625 C-1 1 -1 1 0 0 Z " fill="#F0F0EF" transform="translate(79,67)"/>
<path d="M0 0 C0.66 0.33 1.32 0.66 2 1 C1.67 4.3 1.34 7.6 1 11 C0.34 9.68 -0.32 8.36 -1 7 C-1.99 7.33 -2.98 7.66 -4 8 C-2.25 2.25 -2.25 2.25 0 0 Z " fill="#101010" transform="translate(26,57)"/>
<path d="M0 0 C0.44730469 0.3609375 0.89460938 0.721875 1.35546875 1.09375 C5.23864387 4.13442422 5.23864387 4.13442422 9.9375 5.3125 C10.618125 5.209375 11.29875 5.10625 12 5 C12.33 4.01 12.66 3.02 13 2 C13.99 2.33 14.98 2.66 16 3 C15 6 15 6 13 7 C9.71850323 7.37863424 7.13617993 7.66339046 4.20703125 5.953125 C2.5625 4.625 2.5625 4.625 0 2 C0 1.34 0 0.68 0 0 Z " fill="#575757" transform="translate(57,93)"/>
<path d="M0 0 C0.33 0 0.66 0 1 0 C1.38909985 1.45463481 1.76088029 2.91391207 2.125 4.375 C2.43824219 5.59316406 2.43824219 5.59316406 2.7578125 6.8359375 C2.83773437 7.55007812 2.91765625 8.26421875 3 9 C2.34 9.66 1.68 10.32 1 11 C1 10.34 1 9.68 1 9 C-0.65 8.67 -2.3 8.34 -4 8 C-4 7.34 -4 6.68 -4 6 C-2.68 6.33 -1.36 6.66 0 7 C-0.185625 6.030625 -0.37125 5.06125 -0.5625 4.0625 C-0.706875 3.051875 -0.85125 2.04125 -1 1 C-0.67 0.67 -0.34 0.34 0 0 Z " fill="#5E5E5E" transform="translate(105,78)"/>
<path d="M0 0 C0.99 0.33 1.98 0.66 3 1 C3 1.66 3 2.32 3 3 C3.66 3 4.32 3 5 3 C4.67 3.66 4.34 4.32 4 5 C1.625 5.75 1.625 5.75 -1 6 C-1.99 5.34 -2.98 4.68 -4 4 C-2.68 2.68 -1.36 1.36 0 0 Z " fill="#ADADAC" transform="translate(69,15)"/>
<path d="M0 0 C0.99 0.33 1.98 0.66 3 1 C-0.66666667 4.66666667 -4.33333333 8.33333333 -8 12 C-6.49087042 7.01987239 -3.44338151 3.75740058 0 0 Z " fill="#343434" transform="translate(134,159)"/>
<path d="M0 0 C0.66 1.32 1.32 2.64 2 4 C2.66 4 3.32 4 4 4 C4.33 3.34 4.66 2.68 5 2 C5 4.31 5 6.62 5 9 C4.01 9 3.02 9 2 9 C0.14223235 5.86501708 -0.20140476 3.62528568 0 0 Z " fill="#6C6C6C" transform="translate(83,64)"/>
<path d="M0 0 C0.33 0.66 0.66 1.32 1 2 C0.1796875 4.12890625 0.1796875 4.12890625 -1.125 6.5625 C-1.54007813 7.36816406 -1.95515625 8.17382812 -2.3828125 9.00390625 C-4 11 -4 11 -6.6796875 11.77734375 C-7.82824219 11.88755859 -7.82824219 11.88755859 -9 12 C-8.67 11.01 -8.34 10.02 -8 9 C-6.68 9 -5.36 9 -4 9 C-3.71125 8.071875 -3.4225 7.14375 -3.125 6.1875 C-2 3 -2 3 0 0 Z " fill="#575756" transform="translate(203,97)"/>
<path d="M0 0 C0.66 0.33 1.32 0.66 2 1 C0.90536178 2.17561146 -0.20107186 3.3402489 -1.3125 4.5 C-1.92738281 5.1496875 -2.54226562 5.799375 -3.17578125 6.46875 C-5 8 -5 8 -8 8 C-7.25 3.25 -7.25 3.25 -5 1 C-5 2.32 -5 3.64 -5 5 C-3.35 3.35 -1.7 1.7 0 0 Z " fill="#868685" transform="translate(90,31)"/>
<path d="M0 0 C0.66 0.33 1.32 0.66 2 1 C0.02 2.98 -1.96 4.96 -4 7 C-4.99 6.67 -5.98 6.34 -7 6 C-7.33 4.35 -7.66 2.7 -8 1 C-6.02 1.99 -6.02 1.99 -4 3 C-2.68 2.01 -1.36 1.02 0 0 Z " fill="#41272A" transform="translate(50,15)"/>
<path d="M0 0 C0.66 0.33 1.32 0.66 2 1 C2 1.66 2 2.32 2 3 C2.99 3.33 3.98 3.66 5 4 C-1.75 6.125 -1.75 6.125 -4 5 C-3.67 4.01 -3.34 3.02 -3 2 C-2.01 2 -1.02 2 0 2 C0 1.34 0 0.68 0 0 Z " fill="#4E4E4D" transform="translate(144,108)"/>
<path d="M0 0 C4.23830976 2.82553984 3.97715348 5.12180888 5 10 C4.34 10 3.68 10 3 10 C3 9.34 3 8.68 3 8 C2.34 8 1.68 8 1 8 C-1 5 -1 5 -0.625 2.3125 C-0.41875 1.549375 -0.2125 0.78625 0 0 Z " fill="#898988" transform="translate(71,142)"/>
<path d="M0 0 C0 0.66 0 1.32 0 2 C-1.65 2.66 -3.3 3.32 -5 4 C-5 4.66 -5 5.32 -5 6 C-5.99 5.67 -6.98 5.34 -8 5 C-8 4.01 -8 3.02 -8 2 C-2.25 0 -2.25 0 0 0 Z " fill="#6C6C6B" transform="translate(142,150)"/>
<path d="M0 0 C3.37462715 0.54723683 5.08235 1.0549 8 3 C7.67 3.66 7.34 4.32 7 5 C4.0625 4.1875 4.0625 4.1875 1 3 C0.67 2.01 0.34 1.02 0 0 Z " fill="#C4C4C3" transform="translate(118,90)"/>
<path d="M0 0 C-3.51187196 2.40814077 -5.72656908 3.36629408 -10 3 C-9 1 -9 1 -6.6875 -0.1875 C-3.88010429 -1.03624754 -2.698065 -0.99928333 0 0 Z " fill="#787877" transform="translate(146,155)"/>
<path d="M0 0 C0.33 0 0.66 0 1 0 C1.33 3.63 1.66 7.26 2 11 C1.67 10.01 1.34 9.02 1 8 C0.34 8 -0.32 8 -1 8 C-1.125 2.25 -1.125 2.25 0 0 Z " fill="#646464" transform="translate(188,147)"/>
<path d="M0 0 C0.66 0 1.32 0 2 0 C2 1.32 2 2.64 2 4 C1.34 4 0.68 4 0 4 C-0.33 6.31 -0.66 8.62 -1 11 C-1.91058531 7.92677456 -2.08886184 5.19902639 -2 2 C-1.34 2 -0.68 2 0 2 C0 1.34 0 0.68 0 0 Z " fill="#262627" transform="translate(188,140)"/>
<path d="M0 0 C0.93065133 2.60582371 1.14917407 3.64198224 0.0625 6.25 C-0.4634375 7.11625 -0.4634375 7.11625 -1 8 C-1.66 8 -2.32 8 -3 8 C-2.25 2.25 -2.25 2.25 0 0 Z " fill="#979796" transform="translate(168,55)"/>
<path d="M0 0 C-0.33 1.32 -0.66 2.64 -1 4 C-1.515625 3.835 -2.03125 3.67 -2.5625 3.5 C-5.73363876 2.84951 -8.77218334 2.9379266 -12 3 C-12 2.67 -12 2.34 -12 2 C-10.37548581 1.66430703 -8.75037083 1.3315204 -7.125 1 C-6.22007813 0.814375 -5.31515625 0.62875 -4.3828125 0.4375 C-2 0 -2 0 0 0 Z " fill="#A7A7A6" transform="translate(121,128)"/>
<path d="M0 0 C2.1875 2.5 2.1875 2.5 4 5 C0.7 4.01 -2.6 3.02 -6 2 C-3 0 -3 0 0 0 Z " fill="#918585" transform="translate(186,65)"/>
<path d="M0 0 C-2.57404971 3.86107457 -4.61020259 3.94319692 -9 5 C-7.35234966 0.05704899 -4.76872479 -0.25776891 0 0 Z " fill="#6C6C6C" transform="translate(85,137)"/>
<path d="M0 0 C1.98 0.495 1.98 0.495 4 1 C3 4 3 4 1 5 C0.34 5.99 -0.32 6.98 -1 8 C-0.67 5.36 -0.34 2.72 0 0 Z " fill="#9D9D9C" transform="translate(130,106)"/>
<path d="M0 0 C2.64 0 5.28 0 8 0 C7.67 1.32 7.34 2.64 7 4 C4.69 3.01 2.38 2.02 0 1 C0 0.67 0 0.34 0 0 Z " fill="#656464" transform="translate(107,74)"/>
<path d="M0 0 C0.33 0.99 0.66 1.98 1 3 C1.66 3.33 2.32 3.66 3 4 C3 5.32 3 6.64 3 8 C2.01 8.495 2.01 8.495 1 9 C-0.4783226 6.04335481 -0.06032783 3.25770263 0 0 Z " fill="#A5A5A3" transform="translate(60,49)"/>
<path d="M0 0 C0.598125 0.350625 1.19625 0.70125 1.8125 1.0625 C-0.4975 1.7225 -2.8075 2.3825 -5.1875 3.0625 C-5.1875 2.0725 -5.1875 1.0825 -5.1875 0.0625 C-2.1875 -0.9375 -2.1875 -0.9375 0 0 Z " fill="#505050" transform="translate(151.1875,151.9375)"/>
<path d="M0 0 C0.99 0.33 1.98 0.66 3 1 C2.01 1.495 2.01 1.495 1 2 C0.67 2.99 0.34 3.98 0 5 C-0.99 5 -1.98 5 -3 5 C-2.625 3.0625 -2.625 3.0625 -2 1 C-1.34 0.67 -0.68 0.34 0 0 Z " fill="#333332" transform="translate(42,68)"/>
<path d="M0 0 C1.98 0 3.96 0 6 0 C6.33 0.66 6.66 1.32 7 2 C4.36 2.66 1.72 3.32 -1 4 C-0.67 2.68 -0.34 1.36 0 0 Z " fill="#3C1D20" transform="translate(54,11)"/>
</svg>
