<?xml version="1.0" encoding="UTF-8"?>
<svg version="1.1" xmlns="http://www.w3.org/2000/svg" width="220" height="220">
<path d="M0 0 C72.6 0 145.2 0 220 0 C220 72.6 220 145.2 220 220 C147.4 220 74.8 220 0 220 C0 147.4 0 74.8 0 0 Z " fill="#FBFBF9" transform="translate(0,0)"/>
<path d="M0 0 C0.70125 0.28875 1.4025 0.5775 2.125 0.875 C1.135 1.205 0.145 1.535 -0.875 1.875 C-1.205 4.515 -1.535 7.155 -1.875 9.875 C-1.215 9.875 -0.555 9.875 0.125 9.875 C0.11339844 10.71804687 0.10179688 11.56109375 0.08984375 12.4296875 C0.08082031 13.52539062 0.07179688 14.62109375 0.0625 15.75 C0.05089844 16.84054688 0.03929688 17.93109375 0.02734375 19.0546875 C-0.07244303 21.82677546 -0.07244303 21.82677546 1.125 23.875 C1.785 23.875 2.445 23.875 3.125 23.875 C3.125 25.195 3.125 26.515 3.125 27.875 C5.67499184 29.54230236 6.97575905 29.88452602 10.0625 29.6875 C13.22326398 28.84892996 15.37714525 27.61048721 18.125 25.875 C20.4375 25.1875 20.4375 25.1875 22.125 24.875 C20.07266315 27.1227975 19.11832739 27.8772242 16.125 28.875 C15.63 30.36 15.63 30.36 15.125 31.875 C19.085 31.875 23.045 31.875 27.125 31.875 C27.125 33.855 27.125 35.835 27.125 37.875 C28.02331016 40.17730766 28.02331016 40.17730766 29.125 41.875 C29.785 41.875 30.445 41.875 31.125 41.875 C31.30675781 42.81859375 31.30675781 42.81859375 31.4921875 43.78125 C32.31207976 47.96900738 33.15994877 52.12337749 34.25 56.25 C35.125 59.875 35.125 59.875 35.125 63.875 C36.115 64.205 37.105 64.535 38.125 64.875 C38.455 65.865 38.785 66.855 39.125 67.875 C39.723125 68.431875 40.32125 68.98875 40.9375 69.5625 C46.5439408 75.48930885 47.79855425 81.90972361 48.125 89.875 C47.135 89.875 46.145 89.875 45.125 89.875 C45.125 90.535 45.125 91.195 45.125 91.875 C43.475 92.535 41.825 93.195 40.125 93.875 C43.92890093 97.33309175 47.1576747 98.65659945 52.125 99.875 C52.785 100.205 53.445 100.535 54.125 100.875 C54.125 101.535 54.125 102.195 54.125 102.875 C54.785 102.875 55.445 102.875 56.125 102.875 C56.52332031 103.63167969 56.92164062 104.38835937 57.33203125 105.16796875 C59.66802969 108.69486836 61.95274386 109.54423749 65.8125 111.1875 C66.99199219 111.69925781 68.17148438 112.21101563 69.38671875 112.73828125 C70.29035156 113.11339844 71.19398437 113.48851562 72.125 113.875 C70.805 114.205 69.485 114.535 68.125 114.875 C71.72669235 119.45897208 76.68475836 121.25066245 82.125 122.875 C84.1246695 122.91135763 86.12559462 122.92376598 88.125 122.875 C88.56215332 123.35759277 88.99930664 123.84018555 89.44970703 124.33740234 C92.91259958 127.51567359 98.5351368 126.47376696 103 126.5 C104.08925781 126.54511719 105.17851562 126.59023437 106.30078125 126.63671875 C112.02687193 126.8387379 112.02687193 126.8387379 116.95092773 124.37573242 C118.25372261 122.5842422 119.22918076 120.89725903 120.125 118.875 C120.558125 117.905625 120.99125 116.93625 121.4375 115.9375 C121.7778125 114.9165625 121.7778125 114.9165625 122.125 113.875 C123.115 115.36 123.115 115.36 124.125 116.875 C127.095 116.38 127.095 116.38 130.125 115.875 C128.54141358 112.70782717 127.67236301 111.14231682 124.4375 109.5625 C123.674375 109.335625 122.91125 109.10875 122.125 108.875 C121.795 110.195 121.465 111.515 121.125 112.875 C118.87921292 110.62921292 118.26849581 108.805208 117.125 105.875 C115.40273504 102.62650023 115.40273504 102.62650023 112.125 101.875 C109.38685953 99.33721127 107.19904293 96.9860644 105.125 93.875 C103.805 93.875 102.485 93.875 101.125 93.875 C102.62335228 98.53654042 106.00963591 99.74110751 110.125 101.875 C109.135 102.205 108.145 102.535 107.125 102.875 C105.30078125 101.94921875 105.30078125 101.94921875 103.4375 100.5625 C102.81488281 100.11261719 102.19226563 99.66273438 101.55078125 99.19921875 C101.08027344 98.76222656 100.60976562 98.32523437 100.125 97.875 C100.125 97.215 100.125 96.555 100.125 95.875 C99.465 95.875 98.805 95.875 98.125 95.875 C97.61839844 94.82699219 97.61839844 94.82699219 97.1015625 93.7578125 C96.65554687 92.84773438 96.20953125 91.93765625 95.75 91 C95.30914062 90.09507813 94.86828125 89.19015625 94.4140625 88.2578125 C93.21997301 85.77965528 93.21997301 85.77965528 91.125 83.875 C93.105 84.205 95.085 84.535 97.125 84.875 C96.795 83.885 96.465 82.895 96.125 81.875 C97.445 81.875 98.765 81.875 100.125 81.875 C100.455 82.865 100.785 83.855 101.125 84.875 C103.50280797 86.64497479 103.50280797 86.64497479 106.375 88.3125 C109.36408241 90.11806735 112.10913182 91.86179972 114.796875 94.09765625 C117.03425602 96.17840319 117.03425602 96.17840319 120.125 95.875 C120.455 94.555 120.785 93.235 121.125 91.875 C120.465 91.875 119.805 91.875 119.125 91.875 C118.795 90.555 118.465 89.235 118.125 87.875 C119.445 87.545 120.765 87.215 122.125 86.875 C123.55135741 93.19172565 124.87797849 99.52049677 126.125 105.875 C126.785 103.565 127.445 101.255 128.125 98.875 C128.785 98.875 129.445 98.875 130.125 98.875 C130.09019531 99.77863281 130.05539063 100.68226563 130.01953125 101.61328125 C129.97892578 103.38251953 129.97892578 103.38251953 129.9375 105.1875 C129.90269531 106.35925781 129.86789063 107.53101563 129.83203125 108.73828125 C129.8505352 111.83743066 129.8505352 111.83743066 131.5 113.75 C133.35261164 115.03257729 134.915832 115.49410896 137.125 115.875 C136.795 116.865 136.465 117.855 136.125 118.875 C134.76955078 118.93107422 134.76955078 118.93107422 133.38671875 118.98828125 C132.20722656 119.05402344 131.02773437 119.11976563 129.8125 119.1875 C128.64074219 119.24550781 127.46898437 119.30351562 126.26171875 119.36328125 C123.19089957 119.6392958 123.19089957 119.6392958 121.24609375 121.14453125 C119.87093456 123.26716373 119.66311814 124.73454653 119.5 127.25 C119.23786044 130.52941937 118.85133511 133.6583731 118.125 136.875 C117.795 136.875 117.465 136.875 117.125 136.875 C117.125 135.225 117.125 133.575 117.125 131.875 C115.805 131.875 114.485 131.875 113.125 131.875 C113.83268358 134.83300528 113.83268358 134.83300528 115.125 137.875 C117.09172915 139.0250831 117.09172915 139.0250831 119.125 139.875 C120.375 142 120.375 142 121.125 143.875 C122.445 143.875 123.765 143.875 125.125 143.875 C125.455 143.215 125.785 142.555 126.125 141.875 C125.135 141.545 124.145 141.215 123.125 140.875 C126.59 139.885 126.59 139.885 130.125 138.875 C130.125 137.885 130.125 136.895 130.125 135.875 C126.825 135.875 123.525 135.875 120.125 135.875 C120.785 134.555 121.445 133.235 122.125 131.875 C128.875 132.75 128.875 132.75 131.125 133.875 C132.99879605 133.94533769 134.87501102 133.9593022 136.75 133.9375 C137.75289062 133.92847656 138.75578125 133.91945312 139.7890625 133.91015625 C140.55992187 133.89855469 141.33078125 133.88695312 142.125 133.875 C141.795 135.195 141.465 136.515 141.125 137.875 C142.33542969 137.38386719 142.33542969 137.38386719 143.5703125 136.8828125 C147.84458047 135.67098708 151.59108628 135.65285444 156 135.75 C156.78375 135.75902344 157.5675 135.76804688 158.375 135.77734375 C160.29180055 135.80071937 162.20844191 135.83658347 164.125 135.875 C164.37560425 133.98188117 164.59960633 132.08522961 164.8125 130.1875 C165.00392578 128.60388672 165.00392578 128.60388672 165.19921875 126.98828125 C165.1122148 123.33869469 164.41662177 121.69231674 162.125 118.875 C154.32691478 117.18541487 146.07651182 117.7807133 138.125 117.875 C141.13387781 116.29341038 143.76172037 115.43554661 147.125 114.875 C146.135 114.215 145.145 113.555 144.125 112.875 C149.875 113.75 149.875 113.75 152.125 114.875 C153.74894458 114.97685018 155.37426691 115.05746213 157 115.125 C161.7787501 115.54564034 161.7787501 115.54564034 164.6875 118.3125 C173.22644204 133.53409234 168.125 181.10176536 168.125 187.875 C115.655 187.875 63.185 187.875 9.125 187.875 C8.135 184.575 7.145 181.275 6.125 177.875 C4.76567606 173.62711269 3.43441407 169.57118166 1.625 165.5 C-0.01668939 161.53258397 -1.08779845 157.58433049 -2.12890625 153.42578125 C-2.83585597 151.0088275 -3.52626282 149.00130096 -4.875 146.875 C-5.865 146.545 -6.855 146.215 -7.875 145.875 C-8.75390625 144.0546875 -8.75390625 144.0546875 -9.4375 141.75 C-9.66566406 141.00492188 -9.89382812 140.25984375 -10.12890625 139.4921875 C-10.37511719 138.62851563 -10.62132812 137.76484375 -10.875 136.875 C-11.19597656 135.90304688 -11.51695313 134.93109375 -11.84765625 133.9296875 C-13.49713482 128.13506539 -13.99645537 122.08582965 -14.75 116.125 C-16.18081414 104.93645339 -16.18081414 104.93645339 -18.58398438 93.93212891 C-21.2951623 83.62329082 -21.25153735 73.34133502 -21.25 62.75 C-21.25181274 61.93450684 -21.25362549 61.11901367 -21.25549316 60.27880859 C-21.25338106 51.89290571 -21.01953971 44.03249915 -18.875 35.875 C-18.64339683 33.31449829 -18.43448398 30.75182734 -18.25 28.1875 C-17.21893841 17.98579903 -12.45520547 9.58412826 -5.6875 1.9375 C-2.875 -0.125 -2.875 -0.125 0 0 Z " fill="#030303" transform="translate(51.875,32.125)"/>
<path d="M0 0 C20.79 0 41.58 0 63 0 C64.32 3.96 65.64 7.92 67 12 C68.23748992 15.58171234 68.23748992 15.58171234 69.484375 19.16015625 C70 21 70 21 70 24 C68.7625 24.185625 67.525 24.37125 66.25 24.5625 C56.26890024 26.81375752 47.82052358 32.67217395 42 41 C41.45601562 41.71929687 40.91203125 42.43859375 40.3515625 43.1796875 C34.71358892 51.78791057 34.27740031 61.81752636 33.29370117 71.81445312 C33 74 33 74 32 77 C31.86698616 79.58175277 31.78837046 82.13564445 31.76171875 84.71875 C31.75201553 85.48417114 31.74231232 86.24959229 31.73231506 87.03820801 C31.70727907 89.52552511 31.69476692 92.01256921 31.6875 94.5 C31.68488159 95.34755859 31.68226318 96.19511719 31.67956543 97.06835938 C31.67599527 107.8155594 32.10107215 117.7770866 34.859375 128.20703125 C36.51654689 134.59556933 37.17113029 141.15106982 38 147.6875 C39.34075187 158.03091991 41.03698179 167.99193317 44 178 C44.61746094 178.0721875 45.23492187 178.144375 45.87109375 178.21875 C48 179 48 179 49.16015625 180.96875 C49.45792969 181.8040625 49.75570312 182.639375 50.0625 183.5 C50.5575 184.86318359 50.5575 184.86318359 51.0625 186.25390625 C51.371875 187.16011719 51.68125 188.06632813 52 189 C52.268125 189.75152344 52.53625 190.50304687 52.8125 191.27734375 C54.22685863 195.35099126 55.40214246 199.45541668 56.5 203.625 C57.35661541 206.86563503 58.29658992 209.88794597 59.6875 212.9375 C61 216 61 216 61 220 C40.87 220 20.74 220 0 220 C0 147.4 0 74.8 0 0 Z " fill="#FDFDFB" transform="translate(0,0)"/>
<path d="M0 0 C11.55 0 23.1 0 35 0 C35.495 4.455 35.495 4.455 36 9 C37.81613476 11.19326209 37.81613476 11.19326209 40.3125 12.375 C41.09238281 12.81585938 41.87226562 13.25671875 42.67578125 13.7109375 C43.44277344 14.13632813 44.20976563 14.56171875 45 15 C45.66902344 15.51433594 46.33804688 16.02867188 47.02734375 16.55859375 C49.06554285 18.04789171 50.87594618 18.85658116 53.25 19.6875 C55.10625 20.3371875 55.10625 20.3371875 57 21 C55.75044798 24.74865605 54.1926652 25.04367225 50.8515625 26.82421875 C47.34638723 29.05007899 44.85287465 32.29425071 43 36 C42.01 36 41.02 36 40 36 C40 35.34 40 34.68 40 34 C39.278125 33.7525 38.55625 33.505 37.8125 33.25 C35 32 35 32 32.75 30.0625 C29.11370443 27.33527832 25.33074533 26.2454431 21 25 C21.66515625 25.67546875 22.3303125 26.3509375 23.015625 27.046875 C25.56803739 30.84534698 25.24954699 32.75407709 24.75 37.25 C24.3112452 41.50262574 23.94776429 45.59836467 24.25 49.875 C24.36738592 55.01063389 21.75927131 58.83152942 19 63 C19.99 63 20.98 63 22 63 C23.76615118 67.70973649 24.48594831 72.03083364 25 77 C25.33 77 25.66 77 26 77 C26.33 75.02 26.66 73.04 27 71 C29.97 70.505 29.97 70.505 33 70 C33 67.36 33 64.72 33 62 C35 65.75 35 65.75 35 68 C37.475 67.505 37.475 67.505 40 67 C39.34 67.66 38.68 68.32 38 69 C38.99 69.33 39.98 69.66 41 70 C40.97679687 69.40832031 40.95359375 68.81664063 40.9296875 68.20703125 C40.82588536 63.66198041 40.86291643 60.14059941 43 56 C44.11667279 59.35001838 43.76286236 61.59254812 43 65 C44.12148437 65.07347656 44.12148437 65.07347656 45.265625 65.1484375 C46.25046875 65.22320312 47.2353125 65.29796875 48.25 65.375 C49.71179688 65.47941406 49.71179688 65.47941406 51.203125 65.5859375 C53.89633189 65.98465249 55.66963279 66.63507063 58 68 C58.33 67.34 58.66 66.68 59 66 C59.66 66 60.32 66 61 66 C61 67.65 61 69.3 61 71 C59.02 70.505 59.02 70.505 57 70 C57.66 71.32 58.32 72.64 59 74 C59.99 73.34 60.98 72.68 62 72 C64.40072955 74.88087546 66.47291037 77.56404834 68 81 C68.66 80.67 69.32 80.34 70 80 C70.495 83.96 70.495 83.96 71 88 C69.515 88.495 69.515 88.495 68 89 C68.04640625 89.60585937 68.0928125 90.21171875 68.140625 90.8359375 C68.44039925 97.79498263 66.86642615 102.72609538 64 109 C63.505 110.485 63.505 110.485 63 112 C63.804375 112.61875 64.60875 113.2375 65.4375 113.875 C68 116 68 116 69 118 C72.13546793 116.64240328 72.13546793 116.64240328 75 114 C75.86260032 110.92793221 75.79402808 107.924914 75.75 104.75 C75.77959071 98.46690683 76.24164242 93.05656498 78 87 C79.485 87.495 79.485 87.495 81 88 C80.67 88.33 80.34 88.66 80 89 C79.92744515 96.44412749 81.6481701 102.8394437 86.34375 108.66796875 C88.44664339 110.35921084 89.96284694 110.52849754 92.625 110.875 C98.13038084 111.8141532 102.31726175 114.03652797 107 117 C107.33 116.34 107.66 115.68 108 115 C108 117.97 108 120.94 108 124 C108.66 124 109.32 124 110 124 C110 125.65 110 127.3 110 129 C104.80458575 129 101.00286243 125.35982463 96.875 122.4375 C94.26662548 120.59419582 91.65779258 118.77186172 89 117 C89 116.01 89 115.02 89 114 C87.68 114 86.36 114 85 114 C85.66 115.32 86.32 116.64 87 118 C85.68 118 84.36 118 83 118 C83.28875 118.55429688 83.5775 119.10859375 83.875 119.6796875 C84.24625 120.40414062 84.6175 121.12859375 85 121.875 C85.37125 122.59429687 85.7425 123.31359375 86.125 124.0546875 C87 126 87 126 87 128 C87.66 128 88.32 128 89 128 C90.68711423 129.6459651 92.3545622 131.31237149 94 133 C94.33 133 94.66 133 95 133 C94.175 132.401875 93.35 131.80375 92.5 131.1875 C91.675 130.465625 90.85 129.74375 90 129 C90 128.01 90 127.02 90 126 C91.6875 125.1875 91.6875 125.1875 94 125 C96.65368895 127.21140746 98.57958178 129.10970258 100.0625 132.25 C100.371875 132.8275 100.68125 133.405 101 134 C102.33076989 134.34342449 103.66431979 134.67619874 105 135 C107.50521315 137.69792186 108.75768487 140.55974272 110 144 C110.33 143.01 110.66 142.02 111 141 C116.67532468 142.48051948 116.67532468 142.48051948 118.25 145 C118.4975 145.66 118.745 146.32 119 147 C119.66 147.66 120.32 148.32 121 149 C120.28972656 149.06058594 119.57945312 149.12117187 118.84765625 149.18359375 C117.92855469 149.26738281 117.00945312 149.35117188 116.0625 149.4375 C115.14597656 149.51871094 114.22945313 149.59992188 113.28515625 149.68359375 C111.03840268 149.76044976 111.03840268 149.76044976 110 151 C109.67604248 151.60247559 109.35208496 152.20495117 109.01831055 152.82568359 C106.90877427 156.34040608 105.39833963 158.64249159 101.30712891 159.68847656 C98.10954789 159.86015187 95.00983528 159.79659223 91.8125 159.625 C90.72001953 159.60566406 89.62753906 159.58632812 88.50195312 159.56640625 C80.50983349 159.339889 80.50983349 159.339889 77 157 C77 156.34 77 155.68 77 155 C76.21625 155.2475 75.4325 155.495 74.625 155.75 C68.14680147 156.19677231 62.32204197 153.3529969 57.375 149.25 C56.199375 148.13625 56.199375 148.13625 55 147 C56.32 146.67 57.64 146.34 59 146 C58.15695313 145.62488281 57.31390625 145.24976563 56.4453125 144.86328125 C55.34960938 144.35152344 54.25390625 143.83976563 53.125 143.3125 C52.03445312 142.81363281 50.94390625 142.31476563 49.8203125 141.80078125 C46.65866822 139.78205824 45.95790837 138.55881147 45 135 C44.34 135 43.68 135 43 135 C42.01 134.01 42.01 134.01 41 133 C39.39125 132.5978125 39.39125 132.5978125 37.75 132.1875 C33.35052761 130.79433374 31.3424304 129.09786232 28 126 C31.75 124 31.75 124 34 124 C34 123.34 34 122.68 34 122 C33.01 121.505 33.01 121.505 32 121 C33.32 121 34.64 121 36 121 C35.65025665 113.77197069 33.99321263 108.10522972 30 102 C29.01 101.34 28.02 100.68 27 100 C26.67 99.01 26.34 98.02 26 97 C25.01 96.505 25.01 96.505 24 96 C23.18686125 93.61993695 22.50085903 91.30426025 21.875 88.875 C21.69324219 88.22273438 21.51148438 87.57046875 21.32421875 86.8984375 C20.16774944 82.51602747 19.82211054 78.56582955 20 74 C19.34 74 18.68 74 18 74 C15.78252188 71.69723426 15.03239994 70.47519908 14.8125 67.25 C14.874375 66.5075 14.93625 65.765 15 65 C14.37351562 65.01160156 13.74703125 65.02320312 13.1015625 65.03515625 C12.28429687 65.04417969 11.46703125 65.05320312 10.625 65.0625 C9.81289062 65.07410156 9.00078125 65.08570312 8.1640625 65.09765625 C6 65 6 65 4 64 C4.375 62.0625 4.375 62.0625 5 60 C5.99 59.505 5.99 59.505 7 59 C0.8876652 63.03414097 0.8876652 63.03414097 -3.25 62.875 C-6 62 -6 62 -9 60 C-8.67 58.68 -8.34 57.36 -8 56 C-9.485 56.495 -9.485 56.495 -11 57 C-12.2063366 51.77254141 -11.75612577 47.23471686 -11 42 C-11.66 42 -12.32 42 -13 42 C-12.125 34.125 -12.125 34.125 -11 33 C-11.66 32.34 -12.32 31.68 -13 31 C-11.20856793 30.0204042 -9.41684696 29.0413367 -7.625 28.0625 C-6.62726562 27.51722656 -5.62953125 26.97195312 -4.6015625 26.41015625 C-0.3764822 24.1199851 2.13737978 23.90995148 7 24 C6.566875 23.0925 6.13375 22.185 5.6875 21.25 C2.78204266 14.50272939 1.43465432 7.17327162 0 0 Z " fill="#F1F1EF" transform="translate(63,0)"/>
<path d="M0 0 C11.55 0 23.1 0 35 0 C35.495 4.455 35.495 4.455 36 9 C37.81613476 11.19326209 37.81613476 11.19326209 40.3125 12.375 C41.09238281 12.81585938 41.87226562 13.25671875 42.67578125 13.7109375 C43.44277344 14.13632813 44.20976563 14.56171875 45 15 C45.66902344 15.51433594 46.33804688 16.02867188 47.02734375 16.55859375 C49.06554285 18.04789171 50.87594618 18.85658116 53.25 19.6875 C55.10625 20.3371875 55.10625 20.3371875 57 21 C55.75044798 24.74865605 54.1926652 25.04367225 50.8515625 26.82421875 C47.34638723 29.05007899 44.85287465 32.29425071 43 36 C42.01 36 41.02 36 40 36 C40 35.34 40 34.68 40 34 C39.278125 33.7525 38.55625 33.505 37.8125 33.25 C35 32 35 32 32.75 30.0625 C29.11370443 27.33527832 25.33074533 26.2454431 21 25 C21.66515625 25.67546875 22.3303125 26.3509375 23.015625 27.046875 C25.56803739 30.84534698 25.24954699 32.75407709 24.75 37.25 C24.3112452 41.50262574 23.94776429 45.59836467 24.25 49.875 C24.36738592 55.01063389 21.75927131 58.83152942 19 63 C19.99 63 20.98 63 22 63 C23.76615118 67.70973649 24.48594831 72.03083364 25 77 C25.33 77 25.66 77 26 77 C26.33 75.02 26.66 73.04 27 71 C29.97 70.505 29.97 70.505 33 70 C33 67.36 33 64.72 33 62 C35 65.75 35 65.75 35 68 C37.475 67.505 37.475 67.505 40 67 C39.34 67.66 38.68 68.32 38 69 C38.99 69.33 39.98 69.66 41 70 C40.97679687 69.40832031 40.95359375 68.81664063 40.9296875 68.20703125 C40.82588536 63.66198041 40.86291643 60.14059941 43 56 C44.11667279 59.35001838 43.76286236 61.59254812 43 65 C44.12148437 65.07347656 44.12148437 65.07347656 45.265625 65.1484375 C46.25046875 65.22320312 47.2353125 65.29796875 48.25 65.375 C49.71179688 65.47941406 49.71179688 65.47941406 51.203125 65.5859375 C53.89633189 65.98465249 55.66963279 66.63507063 58 68 C58.33 67.34 58.66 66.68 59 66 C59.66 66 60.32 66 61 66 C61 67.65 61 69.3 61 71 C59.02 70.505 59.02 70.505 57 70 C57.66 71.32 58.32 72.64 59 74 C59.99 73.34 60.98 72.68 62 72 C64.40072955 74.88087546 66.47291037 77.56404834 68 81 C68.66 80.67 69.32 80.34 70 80 C70.495 83.96 70.495 83.96 71 88 C69.515 88.495 69.515 88.495 68 89 C68.04640625 89.60585937 68.0928125 90.21171875 68.140625 90.8359375 C68.43116424 97.58059835 67.29180846 103.05311975 64 109 C63.01 109.495 63.01 109.495 62 110 C62.45375 108.7625 62.9075 107.525 63.375 106.25 C65.2725842 100.61120713 66.15507005 94.87474822 67 89 C65.02 88.505 65.02 88.505 63 88 C62.82984375 88.69867188 62.6596875 89.39734375 62.484375 90.1171875 C62.12085937 91.48230469 62.12085937 91.48230469 61.75 92.875 C61.51796875 93.77992187 61.2859375 94.68484375 61.046875 95.6171875 C60 98 60 98 56 100 C56 95.05 56 90.1 56 85 C54.02 84.505 54.02 84.505 52 84 C53.65 83.34 55.3 82.68 57 82 C57 80.68 57 79.36 57 78 C56.2575 77.773125 55.515 77.54625 54.75 77.3125 C51.4159936 75.72126967 49.98743641 74.09156776 48 71 C48 69.68 48 68.36 48 67 C46.35 67 44.7 67 43 67 C43.495 72.445 43.495 72.445 44 78 C44.99 78 45.98 78 47 78 C47.33 79.32 47.66 80.64 48 82 C45.03 81.01 45.03 81.01 42 80 C41.67 81.65 41.34 83.3 41 85 C41.99 85 42.98 85 44 85 C44 85.66 44 86.32 44 87 C43.01 87 42.02 87 41 87 C40.34 88.65 39.68 90.3 39 92 C40.32 92.66 41.64 93.32 43 94 C41.02 94 39.04 94 37 94 C36.8309093 96.06230268 36.66482867 98.1248523 36.5 100.1875 C36.4071875 101.33605469 36.314375 102.48460938 36.21875 103.66796875 C36.0354038 106.46072426 35.95786363 109.20319812 36 112 C34.13348658 109.68907862 32.79333624 107.5694505 31.5 104.875 C30.17172516 101.76702397 30.17172516 101.76702397 27 100 C26.67 99.01 26.34 98.02 26 97 C25.01 96.505 25.01 96.505 24 96 C23.18686125 93.61993695 22.50085903 91.30426025 21.875 88.875 C21.69324219 88.22273438 21.51148438 87.57046875 21.32421875 86.8984375 C20.16774944 82.51602747 19.82211054 78.56582955 20 74 C19.34 74 18.68 74 18 74 C15.78252188 71.69723426 15.03239994 70.47519908 14.8125 67.25 C14.874375 66.5075 14.93625 65.765 15 65 C14.37351562 65.01160156 13.74703125 65.02320312 13.1015625 65.03515625 C12.28429687 65.04417969 11.46703125 65.05320312 10.625 65.0625 C9.81289062 65.07410156 9.00078125 65.08570312 8.1640625 65.09765625 C6 65 6 65 4 64 C4.375 62.0625 4.375 62.0625 5 60 C5.99 59.505 5.99 59.505 7 59 C0.8876652 63.03414097 0.8876652 63.03414097 -3.25 62.875 C-6 62 -6 62 -9 60 C-8.67 58.68 -8.34 57.36 -8 56 C-9.485 56.495 -9.485 56.495 -11 57 C-12.2063366 51.77254141 -11.75612577 47.23471686 -11 42 C-11.66 42 -12.32 42 -13 42 C-12.125 34.125 -12.125 34.125 -11 33 C-11.66 32.34 -12.32 31.68 -13 31 C-11.20856793 30.0204042 -9.41684696 29.0413367 -7.625 28.0625 C-6.62726562 27.51722656 -5.62953125 26.97195312 -4.6015625 26.41015625 C-0.3764822 24.1199851 2.13737978 23.90995148 7 24 C6.566875 23.0925 6.13375 22.185 5.6875 21.25 C2.78204266 14.50272939 1.43465432 7.17327162 0 0 Z " fill="#F5F5F3" transform="translate(63,0)"/>
<path d="M0 0 C0 8.25 0 16.5 0 25 C-29.04 25 -58.08 25 -88 25 C-78.15368582 13.51263346 -71.73257113 9.50701588 -56.9140625 6.74609375 C-55.95242187 6.49988281 -54.99078125 6.25367188 -54 6 C-53.67 5.34 -53.34 4.68 -53 4 C-52.34 4.33 -51.68 4.66 -51 5 C-44.29537352 5.36137322 -38.07669846 4.29509783 -31.5 3.0625 C-20.66190037 1.07340649 -11.18199674 0 0 0 Z " fill="#010101" transform="translate(220,195)"/>
<path d="M0 0 C5.75 0.875 5.75 0.875 8 2 C9.62394458 2.10185018 11.24926691 2.18246213 12.875 2.25 C17.6537501 2.67064034 17.6537501 2.67064034 20.5625 5.4375 C27.24375003 17.3475544 24.10819355 36.71050267 24 50 C23.30140869 50.07516846 22.60281738 50.15033691 21.88305664 50.2277832 C9.98566119 51.52040488 -1.84707835 52.82732246 -13.60522461 55.07861328 C-18.50627463 55.99000399 -23.03035151 56.26623117 -28 56 C-29.17307424 55.91576615 -29.17307424 55.91576615 -30.640625 56.9609375 C-33.70641074 58.31110142 -36.41419061 58.42485144 -39.75 58.625 C-40.92046875 58.69976562 -42.0909375 58.77453125 -43.296875 58.8515625 C-44.18890625 58.90054688 -45.0809375 58.94953125 -46 59 C-44.81857422 58.12601563 -44.81857422 58.12601563 -43.61328125 57.234375 C-41.19021212 55.16263279 -40.24662247 54.14865096 -39.1875 51.25 C-38.795625 50.1775 -38.40375 49.105 -38 48 C-40.97 49.32 -43.94 50.64 -47 52 C-47 51.34 -47 50.68 -47 50 C-46.26394531 49.72027344 -45.52789062 49.44054687 -44.76953125 49.15234375 C-39.02336255 46.79163243 -35.33039593 45.01942094 -32.1171875 39.6484375 C-30.24296291 36.88297325 -27.89548623 35.60860346 -25 34 C-24.34 34 -23.68 34 -23 34 C-23 34.99 -23 35.98 -23 37 C-23.66 37 -24.32 37 -25 37 C-24.505 43.93 -24.505 43.93 -24 51 C-22.123125 50.855625 -20.24625 50.71125 -18.3125 50.5625 C-17.25675781 50.48128906 -16.20101562 50.40007812 -15.11328125 50.31640625 C-11.66594348 50.01635775 -11.66594348 50.01635775 -7 49 C-7 41.74 -7 34.48 -7 27 C-9.31 26.34 -11.62 25.68 -14 25 C-14 24.34 -14 23.68 -14 23 C-17.3 23 -20.6 23 -24 23 C-23.34 21.68 -22.68 20.36 -22 19 C-15.25 19.875 -15.25 19.875 -13 21 C-11.12620395 21.07033769 -9.24998898 21.0843022 -7.375 21.0625 C-6.37210938 21.05347656 -5.36921875 21.04445312 -4.3359375 21.03515625 C-3.17964844 21.01775391 -3.17964844 21.01775391 -2 21 C-2.33 22.32 -2.66 23.64 -3 25 C-2.19304687 24.67257813 -1.38609375 24.34515625 -0.5546875 24.0078125 C3.71958047 22.79598708 7.46608628 22.77785444 11.875 22.875 C13.050625 22.88853516 13.050625 22.88853516 14.25 22.90234375 C16.16680055 22.92571937 18.08344191 22.96158347 20 23 C20.25060425 21.10688117 20.47460633 19.21022961 20.6875 17.3125 C20.81511719 16.25675781 20.94273437 15.20101562 21.07421875 14.11328125 C20.9872148 10.46369469 20.29162177 8.81731674 18 6 C10.20191478 4.31041487 1.95151182 4.9057133 -6 5 C-2.99112219 3.41841038 -0.36327963 2.56054661 3 2 C2.01 1.34 1.02 0.68 0 0 Z " fill="#060606" transform="translate(196,145)"/>
<path d="M0 0 C11.55 0 23.1 0 35 0 C35.495 4.455 35.495 4.455 36 9 C37.81613476 11.19326209 37.81613476 11.19326209 40.3125 12.375 C41.09238281 12.81585938 41.87226562 13.25671875 42.67578125 13.7109375 C43.44277344 14.13632813 44.20976563 14.56171875 45 15 C45.66902344 15.51433594 46.33804688 16.02867188 47.02734375 16.55859375 C49.06554285 18.04789171 50.87594618 18.85658116 53.25 19.6875 C54.4875 20.120625 55.725 20.55375 57 21 C55.75044798 24.74865605 54.1926652 25.04367225 50.8515625 26.82421875 C47.34638723 29.05007899 44.85287465 32.29425071 43 36 C42.01 36 41.02 36 40 36 C40 35.34 40 34.68 40 34 C39.278125 33.7525 38.55625 33.505 37.8125 33.25 C35 32 35 32 32.75 30.0625 C29.11370443 27.33527832 25.33074533 26.2454431 21 25 C21.680625 25.70125 22.36125 26.4025 23.0625 27.125 C25 30 25 30 24.75 33.3125 C24.5025 34.199375 24.255 35.08625 24 36 C23.67 36 23.34 36 23 36 C22.6596875 34.3603125 22.6596875 34.3603125 22.3125 32.6875 C21.32692203 29.00115243 21.32692203 29.00115243 18.9375 27.125 C15.00153196 25.61760798 11.18531422 25.26443162 7 25 C6.74605469 24.16597656 6.49210937 23.33195312 6.23046875 22.47265625 C4.4183645 16.54768619 2.58717125 10.64468491 0.515625 4.8046875 C0 3 0 3 0 0 Z " fill="#DD2B51" transform="translate(63,0)"/>
<path d="M0 0 C1.65 0 3.3 0 5 0 C5.37125 1.0725 5.7425 2.145 6.125 3.25 C7.80709056 7.28864256 10.35549156 8.65131678 14 11 C14 12.32 14 13.64 14 15 C12.02 15.99 12.02 15.99 10 17 C11.32 17 12.64 17 14 17 C14 21.95 14 26.9 14 32 C16.19969945 31.15396493 16.19969945 31.15396493 17.0625 28.8125 C18.03990465 25.88028606 18.5734184 23.05716814 19 20 C20.65 20.66 22.3 21.32 24 22 C24.62303662 31.5532282 21.62729933 39.52278855 15.46875 46.8125 C11.0374455 51.64665036 6.58667492 54.61777709 -0.0625 55.171875 C-1.70927665 55.18515546 -3.35637688 55.10272645 -5 55 C-6.77470326 50.34504063 -7.46215351 45.93981721 -7.75 41 C-7.80542969 40.31421875 -7.86085938 39.6284375 -7.91796875 38.921875 C-8.19643899 34.50010515 -7.82174635 31.05245617 -6 27 C-3.875 26.125 -3.875 26.125 -2 26 C-2.66 25.67 -3.32 25.34 -4 25 C-3.67 23.02 -3.34 21.04 -3 19 C-1.68 19.33 -0.36 19.66 1 20 C1 19.34 1 18.68 1 18 C0.01 18 -0.98 18 -2 18 C-1.67 16.35 -1.34 14.7 -1 13 C-0.01 12.67 0.98 12.34 2 12 C2.99 12.99 3.98 13.98 5 15 C4.67 13.68 4.34 12.36 4 11 C3.01 11 2.02 11 1 11 C-0.17571451 7.32589215 -0.07366746 3.83070817 0 0 Z " fill="#FCFCFA" transform="translate(106,67)"/>
<path d="M0 0 C1.11667279 3.35001838 0.76286236 5.59254812 0 9 C0.74765625 9.04898438 1.4953125 9.09796875 2.265625 9.1484375 C3.25046875 9.22320312 4.2353125 9.29796875 5.25 9.375 C6.22453125 9.44460937 7.1990625 9.51421875 8.203125 9.5859375 C10.89633189 9.98465249 12.66963279 10.63507063 15 12 C15.33 11.34 15.66 10.68 16 10 C16.66 10 17.32 10 18 10 C18 11.65 18 13.3 18 15 C16.68 14.67 15.36 14.34 14 14 C14.66 15.32 15.32 16.64 16 18 C16.99 17.34 17.98 16.68 19 16 C21.40072955 18.88087546 23.47291037 21.56404834 25 25 C25.66 24.67 26.32 24.34 27 24 C27.495 27.96 27.495 27.96 28 32 C27.01 32.33 26.02 32.66 25 33 C25.04640625 33.60585937 25.0928125 34.21171875 25.140625 34.8359375 C25.43116424 41.58059835 24.29180846 47.05311975 21 53 C20.01 53.495 20.01 53.495 19 54 C19.680625 52.14375 19.680625 52.14375 20.375 50.25 C22.2725842 44.61120713 23.15507005 38.87474822 24 33 C22.68 32.67 21.36 32.34 20 32 C19.82984375 32.69867188 19.6596875 33.39734375 19.484375 34.1171875 C19.12085938 35.48230469 19.12085938 35.48230469 18.75 36.875 C18.51796875 37.77992187 18.2859375 38.68484375 18.046875 39.6171875 C17 42 17 42 13 44 C13 39.05 13 34.1 13 29 C11.68 28.67 10.36 28.34 9 28 C10.65 27.34 12.3 26.68 14 26 C14 24.68 14 23.36 14 22 C13.2575 21.773125 12.515 21.54625 11.75 21.3125 C8.4159936 19.72126967 6.98743641 18.09156776 5 15 C5 13.68 5 12.36 5 11 C3.35 11 1.7 11 0 11 C0.33 14.63 0.66 18.26 1 22 C1.99 22 2.98 22 4 22 C4.33 23.32 4.66 24.64 5 26 C3.02 25.34 1.04 24.68 -1 24 C-1.33 25.65 -1.66 27.3 -2 29 C-1.01 29 -0.02 29 1 29 C1 29.66 1 30.32 1 31 C0.01 31 -0.98 31 -2 31 C-2.99 33.475 -2.99 33.475 -4 36 C-2.68 36.66 -1.36 37.32 0 38 C-1.98 38 -3.96 38 -6 38 C-6.1690907 40.06230268 -6.33517133 42.1248523 -6.5 44.1875 C-6.5928125 45.33605469 -6.685625 46.48460937 -6.78125 47.66796875 C-6.9645962 50.46072426 -7.04213637 53.20319812 -7 56 C-9.54565066 53.40103728 -9.9929793 52.09807709 -10.2578125 48.3984375 C-10.22876293 47.05687566 -10.18406751 45.71557565 -10.125 44.375 C-9.75821736 39.54703097 -9.75821736 39.54703097 -11 35 C-11.73287903 27.19063324 -11.12026565 21.69543169 -7 15 C-7.99 14.67 -8.98 14.34 -10 14 C-10 11.36 -10 8.72 -10 6 C-8 9.75 -8 9.75 -8 12 C-6.35 11.67 -4.7 11.34 -3 11 C-3.66 11.66 -4.32 12.32 -5 13 C-4.01 13.33 -3.02 13.66 -2 14 C-2.02320312 13.40832031 -2.04640625 12.81664063 -2.0703125 12.20703125 C-2.17411464 7.66198041 -2.13708357 4.14059941 0 0 Z " fill="#6F6F6E" transform="translate(106,56)"/>
<path d="M0 0 C0.33 1.98 0.66 3.96 1 6 C1.99 6 2.98 6 4 6 C5.66666667 9.33333333 7.33333333 12.66666667 9 16 C10.32 15.34 11.64 14.68 13 14 C13.56847656 14.39832031 14.13695313 14.79664063 14.72265625 15.20703125 C19.35725893 18.38703409 23.7499834 20.98935534 29 23 C28.67 24.32 28.34 25.64 28 27 C19.6223887 28.65497643 11.59414194 29.3117117 3.0625 29.25 C1.96615234 29.25773437 0.86980469 29.26546875 -0.25976562 29.2734375 C-1.31744141 29.27085937 -2.37511719 29.26828125 -3.46484375 29.265625 C-4.88204712 29.26224121 -4.88204712 29.26224121 -6.32788086 29.25878906 C-9.20359259 28.98028249 -11.38276878 28.19485519 -14 27 C-11.25339075 21.08422624 -8.06532334 16.09520525 -4 11 C-4.33 10.34 -4.66 9.68 -5 9 C-5.13415472 6.3276379 -5.04318541 3.67749512 -5 1 C-3 0 -3 0 0 0 Z " fill="#F7F7F5" transform="translate(105,134)"/>
<path d="M0 0 C0.66 0 1.32 0 2 0 C3.75666663 3.51333325 3.55611276 7.16637163 3 11 C1.62077257 14.20212242 -0.07757673 17.0957677 -2 20 C-1.01 20 -0.02 20 1 20 C2.76615118 24.70973649 3.48594831 29.03083364 4 34 C4.33 34 4.66 34 5 34 C5.33 32.02 5.66 30.04 6 28 C8.97 27.67 11.94 27.34 15 27 C15.495 27.99 15.495 27.99 16 29 C15.360625 29.94875 14.72125 30.8975 14.0625 31.875 C11.00312027 36.86495384 11.47550153 42.33369683 12 48 C12.33 48.66 12.66 49.32 13 50 C13.07116382 52.37402501 13.08409085 54.75000677 13.0625 57.125 C13.05347656 58.40632813 13.04445313 59.68765625 13.03515625 61.0078125 C13.02355469 61.99523437 13.01195313 62.98265625 13 64 C12.54882812 63.54625 12.09765625 63.0925 11.6328125 62.625 C10.39919697 61.39728694 9.14237903 60.19282733 7.875 59 C6 57 6 57 5 54 C4.34 53.67 3.68 53.34 3 53 C2.18686125 50.61993695 1.50085903 48.30426025 0.875 45.875 C0.69324219 45.22273438 0.51148437 44.57046875 0.32421875 43.8984375 C-0.83225056 39.51602747 -1.17788946 35.56582955 -1 31 C-1.66 31 -2.32 31 -3 31 C-5.21747812 28.69723426 -5.96760006 27.47519908 -6.1875 24.25 C-6.125625 23.5075 -6.06375 22.765 -6 22 C-6.62648438 22.01160156 -7.25296875 22.02320312 -7.8984375 22.03515625 C-8.71570313 22.04417969 -9.53296875 22.05320312 -10.375 22.0625 C-11.18710938 22.07410156 -11.99921875 22.08570312 -12.8359375 22.09765625 C-15 22 -15 22 -17 21 C-16.7265625 19.1171875 -16.7265625 19.1171875 -16 17 C-14.3984375 15.9453125 -14.3984375 15.9453125 -12.375 15.125 C-7.89564636 13.10363103 -4.56507286 10.34225581 -1 7 C-0.67 7.33 -0.34 7.66 0 8 C0.33 7.01 0.66 6.02 1 5 C0.34 5 -0.32 5 -1 5 C-0.67 3.35 -0.34 1.7 0 0 Z " fill="#AFB0AE" transform="translate(84,43)"/>
<path d="M0 0 C1.32 0 2.64 0 4 0 C4.33 0.99 4.66 1.98 5 3 C7.37780797 4.76997479 7.37780797 4.76997479 10.25 6.4375 C13.23908241 8.24306735 15.98413182 9.98679972 18.671875 12.22265625 C20.90925602 14.30340319 20.90925602 14.30340319 24 14 C24.33 12.68 24.66 11.36 25 10 C24.34 10 23.68 10 23 10 C22.67 8.68 22.34 7.36 22 6 C23.32 5.67 24.64 5.34 26 5 C27.42635741 11.31672565 28.75297849 17.64549677 30 24 C30.66 21.69 31.32 19.38 32 17 C32.66 17 33.32 17 34 17 C33.96519531 17.90363281 33.93039063 18.80726563 33.89453125 19.73828125 C33.85392578 21.50751953 33.85392578 21.50751953 33.8125 23.3125 C33.77769531 24.48425781 33.74289063 25.65601563 33.70703125 26.86328125 C33.7255352 29.96243066 33.7255352 29.96243066 35.375 31.875 C37.22761164 33.15757729 38.790832 33.61910896 41 34 C40.67 34.99 40.34 35.98 40 37 C38.64455078 37.05607422 38.64455078 37.05607422 37.26171875 37.11328125 C36.08222656 37.17902344 34.90273437 37.24476563 33.6875 37.3125 C32.51574219 37.37050781 31.34398437 37.42851562 30.13671875 37.48828125 C27.06589957 37.7642958 27.06589957 37.7642958 25.12109375 39.26953125 C23.74593456 41.39216373 23.53811814 42.85954653 23.375 45.375 C23.11286044 48.65441937 22.72633511 51.7833731 22 55 C21.67 55 21.34 55 21 55 C21 53.35 21 51.7 21 50 C18.525 50.495 18.525 50.495 16 51 C16 50.01 16 49.02 16 48 C15.34 48 14.68 48 14 48 C14 47.34 14 46.68 14 46 C10.37 46 6.74 46 3 46 C3 45.67 3 45.34 3 45 C4.09699219 45.00902344 5.19398438 45.01804688 6.32421875 45.02734375 C14.09447671 45.20295258 14.09447671 45.20295258 21.10546875 42.55078125 C22.38653418 40.7336392 23.23266686 39.08276137 24 37 C24.433125 36.030625 24.86625 35.06125 25.3125 34.0625 C25.539375 33.381875 25.76625 32.70125 26 32 C26.66 32.99 27.32 33.98 28 35 C30.97 34.505 30.97 34.505 34 34 C32.41641358 30.83282717 31.54736301 29.26731682 28.3125 27.6875 C27.549375 27.460625 26.78625 27.23375 26 27 C25.67 28.32 25.34 29.64 25 31 C22.75421292 28.75421292 22.14349581 26.930208 21 24 C19.27773504 20.75150023 19.27773504 20.75150023 16 20 C13.26185953 17.46221127 11.07404293 15.1110644 9 12 C7.68 12 6.36 12 5 12 C6.49835228 16.66154042 9.88463591 17.86610751 14 20 C13.01 20.33 12.02 20.66 11 21 C9.17578125 20.07421875 9.17578125 20.07421875 7.3125 18.6875 C6.68988281 18.23761719 6.06726563 17.78773438 5.42578125 17.32421875 C4.72001953 16.66873047 4.72001953 16.66873047 4 16 C4 15.34 4 14.68 4 14 C3.34 14 2.68 14 2 14 C1.66226563 13.30132812 1.32453125 12.60265625 0.9765625 11.8828125 C0.53054687 10.97273438 0.08453125 10.06265625 -0.375 9.125 C-0.81585938 8.22007813 -1.25671875 7.31515625 -1.7109375 6.3828125 C-2.90502699 3.90465528 -2.90502699 3.90465528 -5 2 C-2.03 2.495 -2.03 2.495 1 3 C0.67 2.01 0.34 1.02 0 0 Z " fill="#4B4B4A" transform="translate(148,114)"/>
<path d="M0 0 C0.33 1.32 0.66 2.64 1 4 C2.75029762 3.68917128 4.50022694 3.37626821 6.25 3.0625 C7.22453125 2.88847656 8.1990625 2.71445313 9.203125 2.53515625 C11.49721795 2.09620271 13.74291971 1.59651408 16 1 C13.85927699 3.35479531 11.8605891 4.64062915 9 6 C13.53669968 9.01679014 17.68972746 11.53967505 23 13 C23.226875 12.0925 23.45375 11.185 23.6875 10.25 C25.18127977 6.55111676 26.75400577 5.22094342 30 3 C28.80777482 5.38445037 27.60504462 7.75952958 26.375 10.125 C24.8561815 12.76956354 24.8561815 12.76956354 25 15 C25.825 15.556875 26.65 16.11375 27.5 16.6875 C30 19 30 19 30.5 22.5625 C30 26 30 26 28.8125 28 C26.2028328 29.43981639 24.85707122 28.75652027 22 28 C19.90849865 27.1515861 17.84568535 26.22997008 15.8125 25.25 C14.76707031 24.76015625 13.72164062 24.2703125 12.64453125 23.765625 C9.63702583 21.75765979 8.95064291 20.42931306 8 17 C7.34 17 6.68 17 6 17 C5.34 16.34 4.68 15.68 4 15 C2.9275 14.731875 1.855 14.46375 0.75 14.1875 C-3.64947239 12.79433374 -5.6575696 11.09786232 -9 8 C-5.25 6 -5.25 6 -3 6 C-3 5.34 -3 4.68 -3 4 C-3.66 3.67 -4.32 3.34 -5 3 C-3.68 3 -2.36 3 -1 3 C-0.67 2.01 -0.34 1.02 0 0 Z " fill="#9B9B9A" transform="translate(100,118)"/>
<path d="M0 0 C0.66 0 1.32 0 2 0 C3.1053873 3.3161619 3.16753642 5.88536635 3.1875 9.375 C3.20167969 10.49648437 3.21585938 11.61796875 3.23046875 12.7734375 C3 16 3 16 1 21 C6.28 20.34 11.56 19.68 17 19 C17 19.66 17 20.32 17 21 C12.38 21.66 7.76 22.32 3 23 C7.61801008 23 10.94300454 22.98648357 15.27734375 22.125 C16.66469727 21.85429687 16.66469727 21.85429687 18.08007812 21.578125 C19.02302734 21.38734375 19.96597656 21.1965625 20.9375 21 C22.3925293 20.71382812 22.3925293 20.71382812 23.87695312 20.421875 C26.25253095 19.95378085 28.62674165 19.47969098 31 19 C31 20.32 31 21.64 31 23 C29.95211304 23.11275269 29.95211304 23.11275269 28.88305664 23.2277832 C16.98566119 24.52040488 5.15292165 25.82732246 -6.60522461 28.07861328 C-11.50627463 28.99000399 -16.03035151 29.26623117 -21 29 C-22.17307424 28.91576615 -22.17307424 28.91576615 -23.640625 29.9609375 C-26.70641074 31.31110142 -29.41419061 31.42485144 -32.75 31.625 C-33.92046875 31.69976562 -35.0909375 31.77453125 -36.296875 31.8515625 C-37.18890625 31.90054688 -38.0809375 31.94953125 -39 32 C-37.81857422 31.12601563 -37.81857422 31.12601563 -36.61328125 30.234375 C-34.19021212 28.16263279 -33.24662247 27.14865096 -32.1875 24.25 C-31.795625 23.1775 -31.40375 22.105 -31 21 C-33.97 22.32 -36.94 23.64 -40 25 C-40 24.34 -40 23.68 -40 23 C-39.26394531 22.72027344 -38.52789062 22.44054687 -37.76953125 22.15234375 C-32.02336255 19.79163243 -28.33039593 18.01942094 -25.1171875 12.6484375 C-23.24296291 9.88297325 -20.89548623 8.60860346 -18 7 C-17.34 7 -16.68 7 -16 7 C-16 7.99 -16 8.98 -16 10 C-16.66 10 -17.32 10 -18 10 C-17.505 16.93 -17.505 16.93 -17 24 C-15.123125 23.855625 -13.24625 23.71125 -11.3125 23.5625 C-10.25675781 23.48128906 -9.20101562 23.40007812 -8.11328125 23.31640625 C-4.66594348 23.01635775 -4.66594348 23.01635775 0 22 C0 14.74 0 7.48 0 0 Z " fill="#515150" transform="translate(189,172)"/>
<path d="M0 0 C5.68502535 1.64566523 10.76681636 4.29032784 16 7 C14.68 7.33 13.36 7.66 12 8 C15.60169235 12.58397208 20.55975836 14.37566245 26 16 C27.9996695 16.03635763 30.00059462 16.04876598 32 16 C32.45608643 16.47864502 32.91217285 16.95729004 33.38208008 17.45043945 C35.43474146 19.41637303 36.64750561 19.48602398 39.44921875 19.73046875 C40.29677734 19.81103516 41.14433594 19.89160156 42.01757812 19.97460938 C42.89865234 20.04486328 43.77972656 20.11511719 44.6875 20.1875 C46.02651367 20.3102832 46.02651367 20.3102832 47.39257812 20.43554688 C49.59427398 20.63570104 51.79631338 20.82336258 54 21 C54.495 22.98 54.495 22.98 55 25 C48.22718454 29.95571863 41.41161018 31.98433736 33 31 C29.25 29.6875 29.25 29.6875 26 28 C25.030625 27.505 24.06125 27.01 23.0625 26.5 C22.381875 26.005 21.70125 25.51 21 25 C21 24.01 21 23.02 21 22 C22.32 21.67 23.64 21.34 25 21 C25 20.01 25 19.02 25 18 C24.35933594 17.76925781 23.71867187 17.53851563 23.05859375 17.30078125 C17.35737966 15.15114315 12.7983036 12.75519412 8 9 C7.67 9.99 7.34 10.98 7 12 C3.4979302 8.96487284 2.25241798 6.43163286 1 2 C0.67 1.34 0.34 0.68 0 0 Z " fill="#121212" transform="translate(108,139)"/>
<path d="M0 0 C1.65 0 3.3 0 5 0 C5.37125 1.0725 5.7425 2.145 6.125 3.25 C7.80709056 7.28864256 10.35549156 8.65131678 14 11 C14 12.32 14 13.64 14 15 C12.02 15.99 12.02 15.99 10 17 C11.32 17 12.64 17 14 17 C14.02707139 19.24993359 14.04642829 21.49996095 14.0625 23.75 C14.07410156 25.00296875 14.08570312 26.2559375 14.09765625 27.546875 C13.95277778 32.66977778 13.95277778 32.66977778 13 35 C9.77208445 37.1519437 8.71599191 37.20086443 5 37 C4.65388672 35.95199219 4.65388672 35.95199219 4.30078125 34.8828125 C3.97464844 33.97273438 3.64851563 33.06265625 3.3125 32.125 C2.99925781 31.22007813 2.68601562 30.31515625 2.36328125 29.3828125 C0.66303207 26.41103027 -0.77553449 25.93044278 -4 25 C-3.67 23.02 -3.34 21.04 -3 19 C-1.68 19.33 -0.36 19.66 1 20 C1 19.34 1 18.68 1 18 C0.01 18 -0.98 18 -2 18 C-1.67 16.35 -1.34 14.7 -1 13 C-0.01 12.67 0.98 12.34 2 12 C2.99 12.99 3.98 13.98 5 15 C4.67 13.68 4.34 12.36 4 11 C3.01 11 2.02 11 1 11 C-0.17571451 7.32589215 -0.07366746 3.83070817 0 0 Z " fill="#F3F3F2" transform="translate(106,67)"/>
<path d="M0 0 C0.99 0.33 1.98 0.66 3 1 C2.67 1.33 2.34 1.66 2 2 C1.92744515 9.44412749 3.6481701 15.8394437 8.34375 21.66796875 C10.44664339 23.35921084 11.96284694 23.52849754 14.625 23.875 C20.13038084 24.8141532 24.31726175 27.03652797 29 30 C29.33 29.34 29.66 28.68 30 28 C30 30.97 30 33.94 30 37 C30.66 37 31.32 37 32 37 C32 38.65 32 40.3 32 42 C26.80458575 42 23.00286243 38.35982463 18.875 35.4375 C16.26662548 33.59419582 13.65779258 31.77186172 11 30 C11 29.01 11 28.02 11 27 C9.68 27 8.36 27 7 27 C7.66 28.32 8.32 29.64 9 31 C8.236875 30.814375 7.47375 30.62875 6.6875 30.4375 C3.91032625 29.77180827 3.91032625 29.77180827 1 31 C1.66 33.31 2.32 35.62 3 38 C2.34 38 1.68 38 1 38 C-2.61888763 31.08839058 -3.32067475 24.95890971 -2.875 17.3125 C-2.82867432 16.51739014 -2.78234863 15.72228027 -2.73461914 14.90307617 C-2.34016291 9.74624334 -1.37820968 4.98319615 0 0 Z " fill="#EDEDEB" transform="translate(141,87)"/>
<path d="M0 0 C2.02350324 3.03525486 2.32124018 4.19426202 2.625 7.6875 C2.69976562 8.49574219 2.77453125 9.30398437 2.8515625 10.13671875 C2.92503906 11.05904297 2.92503906 11.05904297 3 12 C3.99 12.33 4.98 12.66 6 13 C6.33 13.99 6.66 14.98 7 16 C7.598125 16.556875 8.19625 17.11375 8.8125 17.6875 C14.4189408 23.61430885 15.67355425 30.03472361 16 38 C11.94456445 38 9.27751022 37.98579529 6.015625 35.46875 C-1.35969397 27.5260988 -2.33639362 19.90890545 -2.30078125 9.33203125 C-1.99468672 5.94113987 -1.20812553 3.17193118 0 0 Z " fill="#0C0C0C" transform="translate(84,84)"/>
<path d="M0 0 C0.66 0 1.32 0 2 0 C1.67 1.98 1.34 3.96 1 6 C2.670625 5.7215625 2.670625 5.7215625 4.375 5.4375 C8 5 8 5 10 6 C11.44666042 9.29838577 12.09915842 12.39898354 12 16 C10.56292653 18.43998577 8.92510053 20.13898055 6.89453125 22.10546875 C4.22371889 24.77628111 2.73633413 27.66623847 1 31 C-0.65 31 -2.3 31 -4 31 C-7.51913282 23.96173436 -6.18647225 17.61112417 -3.8671875 10.4765625 C-2.63565369 6.95947946 -1.35071106 3.47325701 0 0 Z " fill="#2B2B2B" transform="translate(90,130)"/>
<path d="M0 0 C0.66 0 1.32 0 2 0 C2 1.65 2 3.3 2 5 C0.68 4.67 -0.64 4.34 -2 4 C-1.34 5.32 -0.68 6.64 0 8 C0.99 7.34 1.98 6.68 3 6 C5.40072955 8.88087546 7.47291037 11.56404834 9 15 C9.66 14.67 10.32 14.34 11 14 C11.33 16.64 11.66 19.28 12 22 C11.01 22.33 10.02 22.66 9 23 C9.04640625 23.60585937 9.0928125 24.21171875 9.140625 24.8359375 C9.43116424 31.58059835 8.29180846 37.05311975 5 43 C4.01 43.495 4.01 43.495 3 44 C3.45375 42.7625 3.9075 41.525 4.375 40.25 C6.2725842 34.61120713 7.15507005 28.87474822 8 23 C6.68 22.67 5.36 22.34 4 22 C3.74476562 23.04800781 3.74476562 23.04800781 3.484375 24.1171875 C3.24203125 25.02726562 2.9996875 25.93734375 2.75 26.875 C2.40195313 28.23238281 2.40195313 28.23238281 2.046875 29.6171875 C1 32 1 32 -3 34 C-3 29.05 -3 24.1 -3 19 C-4.32 18.67 -5.64 18.34 -7 18 C-5.35 17.34 -3.7 16.68 -2 16 C-2 14.68 -2 13.36 -2 12 C-2.7425 11.773125 -3.485 11.54625 -4.25 11.3125 C-7.56653836 9.72960669 -9.04240513 8.08697652 -11 5 C-10.67 4.01 -10.34 3.02 -10 2 C-9.66226563 2.49371094 -9.32453125 2.98742187 -8.9765625 3.49609375 C-8.53054687 4.13675781 -8.08453125 4.77742188 -7.625 5.4375 C-7.18414062 6.07558594 -6.74328125 6.71367188 -6.2890625 7.37109375 C-5.07839147 9.13740928 -5.07839147 9.13740928 -3 10 C-3.350625 9.4225 -3.70125 8.845 -4.0625 8.25 C-5.14917407 5.64198224 -4.93065133 4.60582371 -4 2 C-3.01 2 -2.02 2 -1 2 C-0.67 1.34 -0.34 0.68 0 0 Z " fill="#424241" transform="translate(122,66)"/>
<path d="M0 0 C0.721875 0.268125 1.44375 0.53625 2.1875 0.8125 C1.1975 1.1425 0.2075 1.4725 -0.8125 1.8125 C-1.1425 4.4525 -1.4725 7.0925 -1.8125 9.8125 C-1.1525 9.8125 -0.4925 9.8125 0.1875 9.8125 C0.17589844 10.65554687 0.16429687 11.49859375 0.15234375 12.3671875 C0.14332031 13.46289062 0.13429688 14.55859375 0.125 15.6875 C0.11339844 16.77804688 0.10179687 17.86859375 0.08984375 18.9921875 C-0.00994303 21.76427546 -0.00994303 21.76427546 1.1875 23.8125 C1.8475 23.8125 2.5075 23.8125 3.1875 23.8125 C3.001875 24.740625 2.81625 25.66875 2.625 26.625 C1.94626119 29.82593771 1.94626119 29.82593771 3.1875 32.8125 C-3.11024707 31.12286054 -8.17718971 28.26546543 -11.8125 22.8125 C-11.97265625 20.83984375 -11.97265625 20.83984375 -11.875 18.75 C-11.51306433 15.02691073 -11.51306433 15.02691073 -12.8125 12.8125 C-10.44396275 7.70322678 -6.13679127 -0.40911942 0 0 Z " fill="#282828" transform="translate(51.8125,32.1875)"/>
<path d="M0 0 C0.66 0 1.32 0 2 0 C2.06968994 0.86310791 2.13937988 1.72621582 2.21118164 2.61547852 C3.36944051 13.70710589 6.59875319 23.50968792 10.4375 33.9375 C11.03065584 35.58349529 11.62245959 37.22997846 12.21289062 38.87695312 C14.75283362 45.93909406 17.3577539 52.97554017 20 60 C19.34 60 18.68 60 18 60 C17.67 59.34 17.34 58.68 17 58 C16.319375 58.28875 15.63875 58.5775 14.9375 58.875 C11.4812378 59.02207499 10.95130679 58.51918739 8.375 56.375 C4.83877941 53.0390882 2.14742681 50.21140221 1.8125 45.1875 C1.9053125 44.1046875 1.9053125 44.1046875 2 43 C2.99 42.505 2.99 42.505 4 42 C3.01 41.34 2.02 40.68 1 40 C4.46941546 40.45822468 7.67395049 40.89131683 11 42 C10.7733667 41.4016333 10.5467334 40.8032666 10.31323242 40.18676758 C-0.75418651 10.8100066 -0.75418651 10.8100066 0 0 Z " fill="#D8D8D7" transform="translate(169,50)"/>
<path d="M0 0 C3.74153737 1.24717912 5.37517516 3.09887781 8 6 C8.33 6.99 8.66 7.98 9 9 C11.01508358 9.73323796 11.01508358 9.73323796 13 10 C11.73332196 13.90559061 10.68484694 16.06060687 7 18 C4.27002177 18.84703727 1.85635687 19.27149531 -1 19 C-4 17 -4 17 -6 14 C-6.40965996 10.10823039 -6.19354869 6.72983966 -5 3 C-3 3 -3 3 -0.4375 5.5 C0.7690625 6.7375 0.7690625 6.7375 2 8 C2.33 8 2.66 8 3 8 C2.175 7.401875 1.35 6.80375 0.5 6.1875 C-0.325 5.465625 -1.15 4.74375 -2 4 C-2 3.01 -2 2.02 -2 1 C-1.34 0.67 -0.68 0.34 0 0 Z " fill="#F8F8F6" transform="translate(155,125)"/>
<path d="M0 0 C3.65316671 1.24976756 4.78065836 1.67098753 7 5 C6.74170792 8.87438127 4.39229606 11.1002472 2 14 C1.29114106 15.31138904 0.60543548 16.63777017 0 18 C-6.16529701 17.68383092 -10.17268433 14.50784939 -15 11 C-13.0198783 9.0198783 -11.69518034 8.31427797 -9.1875 7.1875 C-5.30861811 5.31517996 -2.8495731 3.20576974 0 0 Z " fill="#FCFCFB" transform="translate(123,113)"/>
<path d="M0 0 C0.66 0 1.32 0 2 0 C3.73567961 3.47135922 3.47523777 7.20435099 3 11 C2.140625 12.90234375 2.140625 12.90234375 1.0625 14.625 C-1.26183734 18.4284611 -1.64483218 20.64919424 -2 25 C-2.66 25 -3.32 25 -4 25 C-3.67 25.99 -3.34 26.98 -3 28 C-3.99 27.67 -4.98 27.34 -6 27 C-6 25.35 -6 23.7 -6 22 C-6.62648438 22.01160156 -7.25296875 22.02320312 -7.8984375 22.03515625 C-8.71570313 22.04417969 -9.53296875 22.05320312 -10.375 22.0625 C-11.18710938 22.07410156 -11.99921875 22.08570312 -12.8359375 22.09765625 C-15 22 -15 22 -17 21 C-16.7265625 19.1171875 -16.7265625 19.1171875 -16 17 C-14.3984375 15.9453125 -14.3984375 15.9453125 -12.375 15.125 C-7.89564636 13.10363103 -4.56507286 10.34225581 -1 7 C-0.67 7.33 -0.34 7.66 0 8 C0.33 7.01 0.66 6.02 1 5 C0.34 5 -0.32 5 -1 5 C-0.67 3.35 -0.34 1.7 0 0 Z " fill="#F5F5F4" transform="translate(84,43)"/>
<path d="M0 0 C4.55868938 0.5363164 7.26927636 2.41133462 11 5 C12.98507948 6.02930047 14.98114251 7.03863929 17 8 C16.67 11.96 16.34 15.92 16 20 C5.38596491 15.75438596 5.38596491 15.75438596 3.625 12.3125 C3.315625 11.1678125 3.315625 11.1678125 3 10 C2.34 10 1.68 10 1 10 C-1.42857143 3.71428571 -1.42857143 3.71428571 0 0 Z " fill="#F8F8F6" transform="translate(105,125)"/>
<path d="M0 0 C0.02707139 2.24993359 0.04642829 4.49996095 0.0625 6.75 C0.07410156 8.00296875 0.08570312 9.2559375 0.09765625 10.546875 C-0.04722222 15.66977778 -0.04722222 15.66977778 -1 18 C-4.22791555 20.1519437 -5.28400809 20.20086443 -9 20 C-11.4362812 15.71214509 -11.74684886 11.84562653 -11 7 C-9.125 4.4375 -9.125 4.4375 -7 3 C-6.34 3 -5.68 3 -5 3 C-0.875 0 -0.875 0 0 0 Z " fill="#CFCFCD" transform="translate(120,84)"/>
<path d="M0 0 C3.52818514 0.17939924 4.70436984 0.64781992 7.6875 2.1875 C8.615625 2.125625 9.54375 2.06375 10.5 2 C14.81046075 2.25355651 17.71298769 4.07368546 20.6875 7.1875 C21.38671875 9.359375 21.38671875 9.359375 21.6875 11.1875 C22.3475 11.1875 23.0075 11.1875 23.6875 11.1875 C23.6875 12.8375 23.6875 14.4875 23.6875 16.1875 C18.49208575 16.1875 14.69036243 12.54732463 10.5625 9.625 C7.95412548 7.78169582 5.34529258 5.95936172 2.6875 4.1875 C2.6875 3.1975 2.6875 2.2075 2.6875 1.1875 C1.3675 1.1875 0.0475 1.1875 -1.3125 1.1875 C-0.6525 2.5075 0.0075 3.8275 0.6875 5.1875 C-0.3025 4.8575 -1.2925 4.5275 -2.3125 4.1875 C-2.3125 3.5275 -2.3125 2.8675 -2.3125 2.1875 C-2.9725 1.8575 -3.6325 1.5275 -4.3125 1.1875 C-3.3125 0.1875 -3.3125 0.1875 0 0 Z " fill="#D2D2D1" transform="translate(149.3125,112.8125)"/>
<path d="M0 0 C0.33 0.66 0.66 1.32 1 2 C0.505 2.78375 0.01 3.5675 -0.5 4.375 C-2.27504105 6.82338526 -2.27504105 6.82338526 -1.59375 9.1640625 C-1.3978125 9.76992187 -1.201875 10.37578125 -1 11 C-0.41992188 10.91621094 0.16015625 10.83242187 0.7578125 10.74609375 C5.4963107 10.12836874 9.27330971 10.19545697 14 11 C16.70410198 10.80790532 19.31694088 10.41633676 22 10 C22 10.99 22 11.98 22 13 C16.61352209 13.9168473 11.45837177 14.1054192 6 14 C4.82692576 13.91576615 4.82692576 13.91576615 3.359375 14.9609375 C0.29358926 16.31110142 -2.41419061 16.42485144 -5.75 16.625 C-6.92046875 16.69976562 -8.0909375 16.77453125 -9.296875 16.8515625 C-10.18890625 16.90054688 -11.0809375 16.94953125 -12 17 C-11.21238281 16.41734375 -10.42476562 15.8346875 -9.61328125 15.234375 C-7.19021212 13.16263279 -6.24662247 12.14865096 -5.1875 9.25 C-4.795625 8.1775 -4.40375 7.105 -4 6 C-6.97 7.32 -9.94 8.64 -13 10 C-13 9.34 -13 8.68 -13 8 C-12.22914063 7.67386719 -11.45828125 7.34773437 -10.6640625 7.01171875 C-9.66117188 6.57472656 -8.65828125 6.13773438 -7.625 5.6875 C-6.62726563 5.25824219 -5.62953125 4.82898438 -4.6015625 4.38671875 C-1.74225492 3.1261594 -1.74225492 3.1261594 0 0 Z " fill="#525252" transform="translate(162,187)"/>
<path d="M0 0 C2.62187494 1.04874998 3.79371361 1.64931313 5.25 4.125 C5.4975 4.74375 5.745 5.3625 6 6 C6.66 5.67 7.32 5.34 8 5 C8.33 7.64 8.66 10.28 9 13 C8.01 13.33 7.02 13.66 6 14 C6.04640625 14.60585937 6.0928125 15.21171875 6.140625 15.8359375 C6.43116424 22.58059835 5.29180846 28.05311975 2 34 C1.01 34.495 1.01 34.495 0 35 C0.45375 33.7625 0.9075 32.525 1.375 31.25 C3.2725842 25.61120713 4.15507005 19.87474822 5 14 C3.68 13.67 2.36 13.34 1 13 C0.67 14.65 0.34 16.3 0 18 C-0.66 18 -1.32 18 -2 18 C-1.25 11.375 -1.25 11.375 1 8 C0.34 8 -0.32 8 -1 8 C-0.67 5.36 -0.34 2.72 0 0 Z " fill="#8A8A89" transform="translate(125,75)"/>
<path d="M0 0 C1.32 0 2.64 0 4 0 C4.33 0.99 4.66 1.98 5 3 C6.62948064 4.22445284 6.62948064 4.22445284 8.5625 5.1875 C9.696875 5.785625 10.83125 6.38375 12 7 C11.01 7.33 10.02 7.66 9 8 C7.79117904 10.00016466 7.79117904 10.00016466 7 12 C6.34 12 5.68 12 5 12 C6.49835228 16.66154042 9.88463591 17.86610751 14 20 C13.01 20.33 12.02 20.66 11 21 C9.17578125 20.07421875 9.17578125 20.07421875 7.3125 18.6875 C6.68988281 18.23761719 6.06726563 17.78773438 5.42578125 17.32421875 C4.72001953 16.66873047 4.72001953 16.66873047 4 16 C4 15.34 4 14.68 4 14 C3.34 14 2.68 14 2 14 C1.66226563 13.30132812 1.32453125 12.60265625 0.9765625 11.8828125 C0.53054687 10.97273438 0.08453125 10.06265625 -0.375 9.125 C-0.81585938 8.22007813 -1.25671875 7.31515625 -1.7109375 6.3828125 C-2.90502699 3.90465528 -2.90502699 3.90465528 -5 2 C-2.03 2.495 -2.03 2.495 1 3 C0.67 2.01 0.34 1.02 0 0 Z " fill="#5D5D5C" transform="translate(148,114)"/>
<path d="M0 0 C0.66 0 1.32 0 2 0 C2.06968994 0.86310791 2.13937988 1.72621582 2.21118164 2.61547852 C3.36944051 13.70710589 6.59875319 23.50968792 10.4375 33.9375 C11.03065584 35.58349529 11.62245959 37.22997846 12.21289062 38.87695312 C14.75283362 45.93909406 17.3577539 52.97554017 20 60 C19.34 60 18.68 60 18 60 C17.67 59.34 17.34 58.68 17 58 C14.525 58.495 14.525 58.495 12 59 C11.34 58.01 10.68 57.02 10 56 C11.65 56.33 13.3 56.66 15 57 C14.05944297 51.31953056 13.13782924 47.27575688 9 43 C9.99 42.505 9.99 42.505 11 42 C10.7733667 41.4016333 10.5467334 40.8032666 10.31323242 40.18676758 C-0.75418651 10.8100066 -0.75418651 10.8100066 0 0 Z " fill="#A1A1A0" transform="translate(169,50)"/>
<path d="M0 0 C0.66 0.66 1.32 1.32 2 2 C1.34 2.9075 0.68 3.815 0 4.75 C-2.94551796 9.81878885 -2.52665219 15.31042961 -2 21 C-1.67 21.66 -1.34 22.32 -1 23 C-0.92883618 25.37402501 -0.91590915 27.75000677 -0.9375 30.125 C-0.94652344 31.40632813 -0.95554687 32.68765625 -0.96484375 34.0078125 C-0.97644531 34.99523437 -0.98804687 35.98265625 -1 37 C-3.67901932 34.68118495 -4.66204403 32.68185532 -5.6875 29.3125 C-5.93886719 28.50425781 -6.19023438 27.69601563 -6.44921875 26.86328125 C-6.63097656 26.24839844 -6.81273438 25.63351563 -7 25 C-6.34 25 -5.68 25 -5 25 C-5.03480469 23.13794922 -5.03480469 23.13794922 -5.0703125 21.23828125 C-5.08907731 19.5963602 -5.10727675 17.95443262 -5.125 16.3125 C-5.14175781 15.49587891 -5.15851563 14.67925781 -5.17578125 13.83789062 C-5.21095618 9.49378721 -5.23401838 5.86884641 -3 2 C-2.01 1.34 -1.02 0.68 0 0 Z " fill="#F8F7F6" transform="translate(98,70)"/>
<path d="M0 0 C5.68502535 1.64566523 10.76681636 4.29032784 16 7 C14.68 7.33 13.36 7.66 12 8 C15.60847081 12.59259921 20.55848294 14.35727787 26 16 C29.41980286 16.34078192 29.41980286 16.34078192 32 16 C32.495 17.485 32.495 17.485 33 19 C30.69 19.66 28.38 20.32 26 21 C25.67 20.01 25.34 19.02 25 18 C22.90910323 16.93065634 22.90910323 16.93065634 20.375 16.125 C15.57861931 14.3470313 12.01766701 12.14426114 8 9 C7.67 9.99 7.34 10.98 7 12 C3.4979302 8.96487284 2.25241798 6.43163286 1 2 C0.67 1.34 0.34 0.68 0 0 Z " fill="#383838" transform="translate(108,139)"/>
<path d="M0 0 C1.02104551 0.97850195 2.0206121 1.97980427 3 3 C3 3.33 3 3.66 3 4 C5.64 4.33 8.28 4.66 11 5 C11 5.99 11 6.98 11 8 C9.68212715 9.02028865 8.34789347 10.01971384 7 11 C6.67 11.99 6.34 12.98 6 14 C3.6875 13.8125 3.6875 13.8125 1 13 C-0.625 10.5 -0.625 10.5 -2 8 C-2.99 7.67 -3.98 7.34 -5 7 C-5.33 5.02 -5.66 3.04 -6 1 C-4.68 1 -3.36 1 -2 1 C-1.67 1.66 -1.34 2.32 -1 3 C-0.67 2.01 -0.34 1.02 0 0 Z " fill="#F8F8F7" transform="translate(171,163)"/>
<path d="M0 0 C2.0625 0.4375 2.0625 0.4375 4 1 C4.53165598 7.91152768 2.14619868 13.95382689 -1 20 C-1 18.35 -1 16.7 -1 15 C-1.66 15 -2.32 15 -3 15 C-3.33 16.32 -3.66 17.64 -4 19 C-5.53123685 17.46876315 -5.24307107 16.06787176 -5.3125 13.9375 C-5.27984383 8.83497337 -3.7021389 3.7021389 0 0 Z " fill="#EDEDEC" transform="translate(101,72)"/>
<path d="M0 0 C5.03985731 0.44469329 7.37634988 2.71343362 11 6 C10.01 6.33 9.02 6.66 8 7 C8.825 7.433125 9.65 7.86625 10.5 8.3125 C11.7375 9.1478125 11.7375 9.1478125 13 10 C13 11.66666667 13 13.33333333 13 15 C13.598125 15.144375 14.19625 15.28875 14.8125 15.4375 C16.56150404 15.8872439 18.28677023 16.42892341 20 17 C20 17.66 20 18.32 20 19 C19.01 19 18.02 19 17 19 C16.67 20.32 16.34 21.64 16 23 C13.75421292 20.75421292 13.14349581 18.930208 12 16 C10.27773504 12.75150023 10.27773504 12.75150023 7 12 C3.65999958 8.99399962 0.97490707 6.05953119 -1 2 C-0.67 1.34 -0.34 0.68 0 0 Z " fill="#343433" transform="translate(157,122)"/>
<path d="M0 0 C0 3.63 0 7.26 0 11 C-2.98594424 12.49297212 -5.70853624 12.11755228 -9 12 C-9.66 11.67 -10.32 11.34 -11 11 C-10.46864683 6.48349806 -8.76591425 3.57941844 -6 0 C-3 -1 -3 -1 0 0 Z " fill="#050505" transform="translate(170,186)"/>
<path d="M0 0 C1.98 0 3.96 0 6 0 C5.68289062 0.79664062 5.36578125 1.59328125 5.0390625 2.4140625 C3.7735881 6.78137639 3.5480985 10.85280178 3.375 15.375 C3.31699219 16.62216797 3.31699219 16.62216797 3.2578125 17.89453125 C3.16425754 19.92935156 3.08107287 21.96464416 3 24 C2.34 24 1.68 24 1 24 C1.66 25.98 2.32 27.96 3 30 C2.01 29.67 1.02 29.34 0 29 C-0.33 28.01 -0.66 27.02 -1 26 C-1.66 25.34 -2.32 24.68 -3 24 C-3.37890625 21.79296875 -3.37890625 21.79296875 -3.5625 19.1875 C-3.84342307 15.72110992 -4.20786352 12.39487064 -5 9 C-4.01 8.67 -3.02 8.34 -2 8 C-1.93941406 8.61488281 -1.87882812 9.22976562 -1.81640625 9.86328125 C-1.73261719 10.67152344 -1.64882812 11.47976562 -1.5625 12.3125 C-1.48128906 13.11300781 -1.40007812 13.91351563 -1.31640625 14.73828125 C-1.04734307 17.16087179 -1.04734307 17.16087179 0 20 C0.33 15.71 0.66 11.42 1 7 C0.34 6.67 -0.32 6.34 -1 6 C-0.67 4.02 -0.34 2.04 0 0 Z " fill="#80807F" transform="translate(90,71)"/>
<path d="M0 0 C0.66 0.99 1.32 1.98 2 3 C4.66653905 3.36460453 4.66653905 3.36460453 7.625 3.1875 C8.62789062 3.16042969 9.63078125 3.13335937 10.6640625 3.10546875 C11.43492187 3.07066406 12.20578125 3.03585938 13 3 C13.495 3.99 13.495 3.99 14 5 C12.64455078 5.05607422 12.64455078 5.05607422 11.26171875 5.11328125 C10.08222656 5.17902344 8.90273437 5.24476563 7.6875 5.3125 C6.51574219 5.37050781 5.34398437 5.42851562 4.13671875 5.48828125 C1.06589957 5.7642958 1.06589957 5.7642958 -0.87890625 7.26953125 C-2.25406544 9.39216373 -2.46188186 10.85954653 -2.625 13.375 C-2.88713956 16.65441937 -3.27366489 19.7833731 -4 23 C-4.33 23 -4.66 23 -5 23 C-5 21.35 -5 19.7 -5 18 C-6.65 18.33 -8.3 18.66 -10 19 C-10 18.01 -10 17.02 -10 16 C-10.66 16 -11.32 16 -12 16 C-12 15.34 -12 14.68 -12 14 C-15.63 14 -19.26 14 -23 14 C-23 13.67 -23 13.34 -23 13 C-21.90300781 13.00902344 -20.80601562 13.01804688 -19.67578125 13.02734375 C-11.90552329 13.20295258 -11.90552329 13.20295258 -4.89453125 10.55078125 C-3.61346582 8.7336392 -2.76733314 7.08276137 -2 5 C-1.566875 4.030625 -1.13375 3.06125 -0.6875 2.0625 C-0.460625 1.381875 -0.23375 0.70125 0 0 Z " fill="#646463" transform="translate(174,146)"/>
<path d="M0 0 C3.12142318 1.2852919 4.31196504 3.06166989 6.125 5.875 C7.40375769 10.25931207 7.16190127 12.80119746 5.125 16.875 C4.465 16.875 3.805 16.875 3.125 16.875 C3.125 18.195 3.125 19.515 3.125 20.875 C2.465 20.875 1.805 20.875 1.125 20.875 C1.125 18.895 1.125 16.915 1.125 14.875 C0.4753125 15.5246875 0.4753125 15.5246875 -0.1875 16.1875 C-1.75 17.75 -3.3125 19.3125 -4.875 20.875 C-3.62243149 16.38662951 -2.14058668 13.23663335 1.125 9.875 C3.375 9.0625 3.375 9.0625 5.125 8.875 C2.78767575 4.57809161 2.78767575 4.57809161 -1.125 2 C-1.99125 1.938125 -1.99125 1.938125 -2.875 1.875 C-2.875 3.855 -2.875 5.835 -2.875 7.875 C-3.205 7.875 -3.535 7.875 -3.875 7.875 C-3.875 5.565 -3.875 3.255 -3.875 0.875 C-1.875 -0.125 -1.875 -0.125 0 0 Z " fill="#80807F" transform="translate(137.875,59.125)"/>
<path d="M0 0 C4.75 0.75 4.75 0.75 7 3 C7.55186722 9.07053942 7.55186722 9.07053942 5.8125 12 C4 13 4 13 1.3125 12.6875 C0.549375 12.460625 -0.21375 12.23375 -1 12 C-1.02698189 10.37509046 -1.04638757 8.75005367 -1.0625 7.125 C-1.07410156 6.22007812 -1.08570312 5.31515625 -1.09765625 4.3828125 C-1 2 -1 2 0 0 Z " fill="#F2F2F1" transform="translate(123,134)"/>
<path d="M0 0 C4.75 0.875 4.75 0.875 7 2 C5.75044798 5.74865605 4.1926652 6.04367225 0.8515625 7.82421875 C-2.65361277 10.05007899 -5.14712535 13.29425071 -7 17 C-7.99 17 -8.98 17 -10 17 C-10 16.34 -10 15.68 -10 15 C-11.0828125 14.62875 -11.0828125 14.62875 -12.1875 14.25 C-15 13 -15 13 -17.25 11.0625 C-20.88629557 8.33527832 -24.66925467 7.2454431 -29 6 C-28.67 5.34 -28.34 4.68 -28 4 C-22.87704937 4.48460344 -19.81502151 6.12948494 -15.625 9.0625 C-14.56539062 9.79597656 -13.50578125 10.52945312 -12.4140625 11.28515625 C-11.61742188 11.85105469 -10.82078125 12.41695312 -10 13 C-6.52224821 11.48446596 -4.0442016 9.4226544 -1.25 6.875 C-0.45078125 6.15054687 0.3484375 5.42609375 1.171875 4.6796875 C1.77515625 4.12539063 2.3784375 3.57109375 3 3 C2.01 2.01 1.02 1.02 0 0 Z " fill="#331C1E" transform="translate(113,19)"/>
<path d="M0 0 C0.33 0 0.66 0 1 0 C1 1.65 1 3.3 1 5 C2.65 5.33 4.3 5.66 6 6 C5.690625 6.804375 5.38125 7.60875 5.0625 8.4375 C3.9772096 12.07641487 3.68014834 15.27603519 3.5390625 19.046875 C3.36117187 19.69140625 3.18328125 20.3359375 3 21 C1.02 21.99 1.02 21.99 -1 23 C-1 18.05 -1 13.1 -1 8 C-2.32 7.67 -3.64 7.34 -5 7 C-3.35 6.34 -1.7 5.68 0 5 C0 3.35 0 1.7 0 0 Z " fill="#3E3F3E" transform="translate(120,77)"/>
<path d="M0 0 C5.75 0.875 5.75 0.875 8 2 C9.62394458 2.10185018 11.24926691 2.18246213 12.875 2.25 C17.6537501 2.67064034 17.6537501 2.67064034 20.5625 5.4375 C22.87696773 9.5632903 23.1093949 11.84171977 23.0625 16.625 C23.05347656 17.81351563 23.04445312 19.00203125 23.03515625 20.2265625 C23.02355469 21.14179688 23.01195312 22.05703125 23 23 C22.01 22.34 21.02 21.68 20 21 C20.10699219 20.33613281 20.21398437 19.67226562 20.32421875 18.98828125 C20.86536535 15.00241648 21.23928992 11.83751471 20.125 7.9375 C14.2834646 2.6113942 1.53215601 4.9106859 -6 5 C-2.99112219 3.41841038 -0.36327963 2.56054661 3 2 C2.01 1.34 1.02 0.68 0 0 Z " fill="#3C3C3B" transform="translate(196,145)"/>
<path d="M0 0 C0.87263489 2.72698402 0.96899194 4.5788171 0.8125 7.5 C0.72544089 10.98429544 0.72544089 10.98429544 2.5 13.5 C5.490114 15.2940684 7.5505264 15.29564704 10.9609375 14.6953125 C14.37490897 13.53116131 16.43530875 11.50057396 19 9 C18.76793596 12.24889654 17.93662944 13.05564244 15.4375 15.25 C11.45760752 17.27612708 8.33632357 17.95065555 4 17 C1.15699045 15.76438431 -0.95837061 14.3408337 -3 12 C-4.1875 8.5 -4.1875 8.5 -4 5 C-2.0625 2.0625 -2.0625 2.0625 0 0 Z " fill="#373737" transform="translate(149,128)"/>
<path d="M0 0 C0.33 1.98 0.66 3.96 1 6 C1.99 6 2.98 6 4 6 C4.99 7.485 4.99 7.485 6 9 C3.50907189 10.24546405 2.58919267 9.7767578 0 9 C-0.5775 9.94875 -1.155 10.8975 -1.75 11.875 C-3.82816551 14.76134098 -4.75468075 15.84095741 -8 17 C-6.68 15.02 -5.36 13.04 -4 11 C-4.33 10.34 -4.66 9.68 -5 9 C-5.13415472 6.3276379 -5.04318541 3.67749512 -5 1 C-3 0 -3 0 0 0 Z " fill="#DBDBDA" transform="translate(105,134)"/>
<path d="M0 0 C0.33 0.66 0.66 1.32 1 2 C0.690625 2.680625 0.38125 3.36125 0.0625 4.0625 C-1.37683609 8.04184095 -1.35452181 11.80345116 -1 16 C-0.67 16.66 -0.34 17.32 0 18 C0.94875 17.95875 1.8975 17.9175 2.875 17.875 C6 18 6 18 8 20 C6.02 20 4.04 20 2 20 C1.8309093 22.06230268 1.66482867 24.1248523 1.5 26.1875 C1.4071875 27.33605469 1.314375 28.48460938 1.21875 29.66796875 C1.0354038 32.46072426 0.95786363 35.20319812 1 38 C-1.54565066 35.40103728 -1.9929793 34.09807709 -2.2578125 30.3984375 C-2.22876293 29.05687566 -2.18406751 27.71557565 -2.125 26.375 C-1.75821736 21.54703097 -1.75821736 21.54703097 -3 17 C-3.14851844 15.06640414 -3.22130833 13.12657903 -3.25 11.1875 C-3.27578125 10.14980469 -3.3015625 9.11210938 -3.328125 8.04296875 C-2.96101749 4.63848364 -1.9499248 2.77607715 0 0 Z " fill="#797978" transform="translate(98,74)"/>
<path d="M0 0 C0.33 0.66 0.66 1.32 1 2 C0.505 2.78375 0.01 3.5675 -0.5 4.375 C-2.26043834 6.83832475 -2.26043834 6.83832475 -1.6875 9.3125 C-1.3471875 10.1478125 -1.3471875 10.1478125 -1 11 C0.32 11.33 1.64 11.66 3 12 C2 13 2 13 -1.5625 13.0625 C-2.696875 13.041875 -3.83125 13.02125 -5 13 C-5 13.66 -5 14.32 -5 15 C-6.8125 16.0625 -6.8125 16.0625 -9 17 C-9.99 16.67 -10.98 16.34 -12 16 C-11.05125 15.46375 -10.1025 14.9275 -9.125 14.375 C-5.63260408 11.7207791 -4.95264124 10.19162145 -4 6 C-6.97 7.32 -9.94 8.64 -13 10 C-13 9.34 -13 8.68 -13 8 C-12.22914063 7.67386719 -11.45828125 7.34773437 -10.6640625 7.01171875 C-9.66117188 6.57472656 -8.65828125 6.13773438 -7.625 5.6875 C-6.62726563 5.25824219 -5.62953125 4.82898438 -4.6015625 4.38671875 C-1.74225492 3.1261594 -1.74225492 3.1261594 0 0 Z " fill="#898988" transform="translate(162,187)"/>
<path d="M0 0 C0.84498047 0.71542969 0.84498047 0.71542969 1.70703125 1.4453125 C4.19896908 3.13490578 5.73557755 3.48521314 8.6875 3.875 C14.16042002 4.81832648 18.34333534 7.05302864 23 10 C23.33 9.34 23.66 8.68 24 8 C23.67 9.65 23.34 11.3 23 13 C22.50371094 12.72285156 22.00742188 12.44570312 21.49609375 12.16015625 C16.90940924 9.71450474 13.19519077 8.67345066 8 8 C2.46655791 5.91190865 2.46655791 5.91190865 0.625 2.3125 C0.41875 1.549375 0.2125 0.78625 0 0 Z " fill="#686767" transform="translate(147,107)"/>
<path d="M0 0 C5.94 2.475 5.94 2.475 12 5 C11.67 6.32 11.34 7.64 11 9 C8.36 9.33 5.72 9.66 3 10 C2.87625 9.46375 2.7525 8.9275 2.625 8.375 C1.88045908 5.54574451 0.92515014 2.77545041 0 0 Z " fill="#E1E1E0" transform="translate(122,152)"/>
<path d="M0 0 C3.198725 2.42327651 3.91302531 5.81799912 5.0625 9.5625 C-0.62498885 8.31125245 -3.66597508 6.52147432 -7.9375 2.5625 C-1.9375 -0.4375 -1.9375 -0.4375 0 0 Z " fill="#E3E3E2" transform="translate(98.9375,123.4375)"/>
<path d="M0 0 C1.4375 2.75 1.4375 2.75 2 5 C1.34 5.66 0.68 6.32 0 7 C-2.00291212 5.52464063 -4.00236777 4.04497707 -6 2.5625 C-6.57234375 2.14162109 -7.1446875 1.72074219 -7.734375 1.28710938 C-9.17453919 0.21555864 -10.58951996 -0.88966676 -12 -2 C-12 -2.33 -12 -2.66 -12 -3 C-7.08286279 -4.78804989 -3.84284033 -3.18916131 0 0 Z " fill="#F6F6F5" transform="translate(169,119)"/>
<path d="M0 0 C4.8 3.44615385 4.8 3.44615385 5.8125 6.25 C5.874375 6.8275 5.93625 7.405 6 8 C3.6875 9.5625 3.6875 9.5625 1 11 C0.01 10.67 -0.98 10.34 -2 10 C-2 7.03 -2 4.06 -2 1 C-1.34 0.67 -0.68 0.34 0 0 Z " fill="#EDEDEB" transform="translate(137,60)"/>
<path d="M0 0 C2 1 2 1 3.125 3.0625 C4.2583306 6.86725273 4.13434296 10.0368828 4 14 C3.01 13.67 2.02 13.34 1 13 C0.67 14.65 0.34 16.3 0 18 C-0.66 18 -1.32 18 -2 18 C-1.25 11.375 -1.25 11.375 1 8 C0.34 8 -0.32 8 -1 8 C-0.67 5.36 -0.34 2.72 0 0 Z " fill="#777776" transform="translate(125,75)"/>
<path d="M0 0 C0 0.33 0 0.66 0 1 C-1.98 1.33 -3.96 1.66 -6 2 C-5.67 2.66 -5.34 3.32 -5 4 C-5.66 4.66 -6.32 5.32 -7 6 C-7.99 6 -8.98 6 -10 6 C-9.34 8.31 -8.68 10.62 -8 13 C-8.66 13 -9.32 13 -10 13 C-11.32 9.37 -12.64 5.74 -14 2 C-8.77729131 -0.66464729 -5.9180497 -1.32854177 0 0 Z " fill="#A0A09F" transform="translate(152,112)"/>
<path d="M0 0 C0.74507812 0.05671875 1.49015625 0.1134375 2.2578125 0.171875 C4.08935108 0.31276258 5.91981352 0.46751884 7.75 0.625 C7.75 0.955 7.75 1.285 7.75 1.625 C7.14671875 1.66238281 6.5434375 1.69976563 5.921875 1.73828125 C1.13905948 2.1317064 -1.47044989 2.57697572 -5.25 5.625 C-7.89608882 6.46763799 -10.53057042 7.03579026 -13.25 7.625 C-13.25 5.625 -13.25 5.625 -11.25 3.625 C-11.58 2.965 -11.91 2.305 -12.25 1.625 C-8.37328894 -1.04789025 -4.45732397 -0.39375653 0 0 Z " fill="#B9B7B6" transform="translate(71.25,24.375)"/>
<path d="M0 0 C0.33 0.66 0.66 1.32 1 2 C0.2578125 3.76953125 0.2578125 3.76953125 -0.875 5.8125 C-2.49461888 8.87860609 -3.56504816 11.52038527 -4 15 C-11.75 14.25 -11.75 14.25 -14 12 C-15.96690374 11.32707499 -15.96690374 11.32707499 -18.125 10.875 C-19.40375 10.58625 -20.6825 10.2975 -22 10 C-22 9.67 -22 9.34 -22 9 C-20.45808846 9.14322103 -18.91648108 9.28971789 -17.375 9.4375 C-16.51648438 9.51871094 -15.65796875 9.59992187 -14.7734375 9.68359375 C-11.83528029 10.01879197 -8.91697976 10.51383671 -6 11 C-4.02 7.37 -2.04 3.74 0 0 Z " fill="#757574" transform="translate(173,11)"/>
<path d="M0 0 C1.98 0.66 3.96 1.32 6 2 C6 3.66666667 6 5.33333333 6 7 C6.598125 7.144375 7.19625 7.28875 7.8125 7.4375 C9.56150404 7.8872439 11.28677023 8.42892341 13 9 C13 9.66 13 10.32 13 11 C12.01 11 11.02 11 10 11 C9.67 12.32 9.34 13.64 9 15 C6.75421292 12.75421292 6.14349581 10.930208 5 8 C3.27773504 4.75150023 3.27773504 4.75150023 0 4 C0 2.68 0 1.36 0 0 Z " fill="#0F0F0F" transform="translate(164,130)"/>
<path d="M0 0 C0.7425 0.2475 1.485 0.495 2.25 0.75 C1.26 1.08 0.27 1.41 -0.75 1.75 C-1.08 4.39 -1.41 7.03 -1.75 9.75 C-2.41 9.09 -3.07 8.43 -3.75 7.75 C-4.08 8.41 -4.41 9.07 -4.75 9.75 C-6.07 9.09 -7.39 8.43 -8.75 7.75 C-6.95252408 3.55588951 -4.99386899 -0.45398809 0 0 Z " fill="#131313" transform="translate(51.75,32.25)"/>
<path d="M0 0 C4.11979807 1.37326602 7.04297546 4.08595092 9 8 C8.67 8.99 8.34 9.98 8 11 C5.78062717 9.89031359 3.88863339 8.57568212 1.875 7.125 C1.15054688 6.61195313 0.42609375 6.09890625 -0.3203125 5.5703125 C-0.87460938 5.05210937 -1.42890625 4.53390625 -2 4 C-2 3.01 -2 2.02 -2 1 C-1.34 0.67 -0.68 0.34 0 0 Z " fill="#F0F0EE" transform="translate(155,125)"/>
<path d="M0 0 C0.66 0.33 1.32 0.66 2 1 C1.98839844 2.12019531 1.97679687 3.24039063 1.96484375 4.39453125 C1.95546378 5.86718583 1.9463638 7.33984222 1.9375 8.8125 C1.92912109 9.55048828 1.92074219 10.28847656 1.91210938 11.04882812 C1.89740172 14.29922068 1.96468298 16.89404895 3 20 C0 19 0 19 -2 16 C-2.16015625 14.02734375 -2.16015625 14.02734375 -2.0625 11.9375 C-1.70056433 8.21441073 -1.70056433 8.21441073 -3 6 C-2.06553465 3.96855359 -1.06775224 1.96466413 0 0 Z " fill="#252525" transform="translate(42,39)"/>
<path d="M0 0 C0.33 1.32 0.66 2.64 1 4 C-2.16597571 4.34011625 -5.3328688 4.67083187 -8.5 5 C-9.386875 5.09539062 -10.27375 5.19078125 -11.1875 5.2890625 C-16.49234474 5.83514946 -21.66737152 6.0996753 -27 6 C-27 5.67 -27 5.34 -27 5 C-26.32420898 4.88406494 -25.64841797 4.76812988 -24.95214844 4.64868164 C-21.88449574 4.12151116 -18.81724615 3.59203055 -15.75 3.0625 C-14.68652344 2.88009766 -13.62304688 2.69769531 -12.52734375 2.50976562 C-11.50253906 2.33251953 -10.47773438 2.15527344 -9.421875 1.97265625 C-8.47924805 1.81031494 -7.53662109 1.64797363 -6.56542969 1.48071289 C-4.34780253 1.0651716 -2.18042835 0.57651243 0 0 Z " fill="#646463" transform="translate(219,191)"/>
<path d="M0 0 C1.65322266 0.01740234 1.65322266 0.01740234 3.33984375 0.03515625 C4.99693359 0.04869141 4.99693359 0.04869141 6.6875 0.0625 C7.54214844 0.07410156 8.39679688 0.08570313 9.27734375 0.09765625 C9.27734375 0.75765625 9.27734375 1.41765625 9.27734375 2.09765625 C5.64734375 2.09765625 2.01734375 2.09765625 -1.72265625 2.09765625 C-1.39265625 3.06703125 -1.06265625 4.03640625 -0.72265625 5.03515625 C0.54608127 9.39532462 0.46119903 13.59320191 0.27734375 18.09765625 C-0.05265625 18.09765625 -0.38265625 18.09765625 -0.72265625 18.09765625 C-1.25034782 15.28628251 -1.77010025 12.47384643 -2.28515625 9.66015625 C-2.51235352 8.45649414 -2.51235352 8.45649414 -2.74414062 7.22851562 C-3.11358533 5.19227385 -3.42294641 3.14532418 -3.72265625 1.09765625 C-2.72265625 0.09765625 -2.72265625 0.09765625 0 0 Z " fill="#5A5A59" transform="translate(96.72265625,38.90234375)"/>
<path d="M0 0 C4.3177458 0.50797009 8.03302114 1.19682779 12 3 C12 3.99 12 4.98 12 6 C13.65 5.34 15.3 4.68 17 4 C16.67 4.99 16.34 5.98 16 7 C10.25 7.125 10.25 7.125 8 6 C8 5.34 8 4.68 8 4 C4.7 4 1.4 4 -2 4 C-1.34 2.68 -0.68 1.36 0 0 Z " fill="#5C5C5C" transform="translate(174,164)"/>
<path d="M0 0 C0.99 0.33 1.98 0.66 3 1 C2.67 1.33 2.34 1.66 2 2 C2.20489078 7.02913736 2.85624101 12.09817576 4 17 C2 16 2 16 0 12 C-0.33 15.96 -0.66 19.92 -1 24 C-1.33 24 -1.66 24 -2 24 C-2.3690205 7.1070615 -2.3690205 7.1070615 0 0 Z " fill="#727271" transform="translate(141,87)"/>
<path d="M0 0 C2 3 2 3 2 6 C1.34 6 0.68 6 0 6 C-0.40735653 14.50922528 0.56907044 21.8390222 3 30 C-1.20209753 26.09722996 -1.8741834 22.20820972 -2.19140625 16.640625 C-2.28684801 10.60870567 -2.1813985 5.68721751 0 0 Z " fill="#5D5D5D" transform="translate(84,84)"/>
<path d="M0 0 C0.66 0.33 1.32 0.66 2 1 C0.02 2.32 -1.96 3.64 -4 5 C-2.68 4.67 -1.36 4.34 0 4 C0 4.66 0 5.32 0 6 C-0.89203125 6.26554688 -1.7840625 6.53109375 -2.703125 6.8046875 C-3.87359375 7.15789062 -5.0440625 7.51109375 -6.25 7.875 C-7.99023438 8.39707031 -7.99023438 8.39707031 -9.765625 8.9296875 C-12.35127072 9.78532389 -14.62286874 10.6937546 -17 12 C-12.26571487 6.63447685 -6.36854986 3.18427493 0 0 Z " fill="#434343" transform="translate(147,196)"/>
<path d="M0 0 C0 0.99 0 1.98 0 3 C-0.66 3 -1.32 3 -2 3 C-2 7.29 -2 11.58 -2 16 C-2.33 16 -2.66 16 -3 16 C-3 13.03 -3 10.06 -3 7 C-5.31 7.33 -7.62 7.66 -10 8 C-8.48502075 3.75805811 -4.70198172 0 0 0 Z " fill="#7E7E7D" transform="translate(173,179)"/>
<path d="M0 0 C0.33872513 1.41538717 0.67074624 2.83237963 1 4.25 C1.185625 5.03890625 1.37125 5.8278125 1.5625 6.640625 C2 9 2 9 2 13 C-0.97 12.505 -0.97 12.505 -4 12 C-3.67 10.68 -3.34 9.36 -3 8 C-2.67 8.33 -2.34 8.66 -2 9 C-1.67 7.68 -1.34 6.36 -1 5 C-1.66 5 -2.32 5 -3 5 C-3.33 3.68 -3.66 2.36 -4 1 C-2 0 -2 0 0 0 Z " fill="#414141" transform="translate(174,119)"/>
<path d="M0 0 C0.66 0 1.32 0 2 0 C1.96777344 0.58007812 1.93554688 1.16015625 1.90234375 1.7578125 C1.94179557 4.41423482 2.14582568 6.47461505 3 9 C5.12091149 10.97333316 7.24687197 12.30363227 9.7734375 13.7109375 C11.89980535 14.94199257 13.35911917 16.18973792 15 18 C10.45528724 16.78068682 7.27669133 14.95918386 3.61328125 12.12109375 C1.87782099 10.80277938 1.87782099 10.80277938 -1 10 C-0.67 6.7 -0.34 3.4 0 0 Z " fill="#73353E" transform="translate(96,0)"/>
<path d="M0 0 C5.68502535 1.64566523 10.76681636 4.29032784 16 7 C12.85466353 7.8864727 11.14185588 7.91215171 8 7 C5.0745356 6.7763932 5.0745356 6.7763932 3 8 C2.690625 7.05125 2.38125 6.1025 2.0625 5.125 C1.12605258 2.13919592 1.12605258 2.13919592 0 0 Z " fill="#666665" transform="translate(108,139)"/>
<path d="M0 0 C0.66 0.66 1.32 1.32 2 2 C1.360625 2.94875 0.72125 3.8975 0.0625 4.875 C-2.55437496 9.3782442 -2.79399451 13.88076363 -3 19 C-3.33 19 -3.66 19 -4 19 C-4.22354607 17.10590022 -4.42819951 15.2095652 -4.625 13.3125 C-4.74101563 12.25675781 -4.85703125 11.20101562 -4.9765625 10.11328125 C-5.00150662 6.79987113 -4.57343508 4.8981659 -3 2 C-2.01 1.34 -1.02 0.68 0 0 Z " fill="#F0F0EF" transform="translate(98,70)"/>
<path d="M0 0 C0.66 0 1.32 0 2 0 C3.73807767 3.47615534 3.46498853 7.19949374 3 11 C1.70577008 14.31838097 0.29919425 17.35040287 -3 19 C-1.125 14.125 -1.125 14.125 0 13 C0 12.030625 0 11.06125 0 10.0625 C0 7 0 7 1 5 C0.34 5 -0.32 5 -1 5 C-0.67 3.35 -0.34 1.7 0 0 Z " fill="#434343" transform="translate(84,43)"/>
<path d="M0 0 C1.98 0.66 3.96 1.32 6 2 C6 2.66 6 3.32 6 4 C7.32 4.33 8.64 4.66 10 5 C10.33 6.98 10.66 8.96 11 11 C8.625 10.75 8.625 10.75 6 10 C4.6875 7.9375 4.6875 7.9375 4 6 C4.33 5.67 4.66 5.34 5 5 C3.7625 4.319375 3.7625 4.319375 2.5 3.625 C1.675 3.08875 0.85 2.5525 0 2 C0 1.34 0 0.68 0 0 Z " fill="#7D7D7C" transform="translate(164,127)"/>
<path d="M0 0 C4.75 0.875 4.75 0.875 7 2 C5.75122289 5.74633134 4.19958862 6.04436747 0.85546875 7.81640625 C-2.11971047 9.71425742 -3.89434124 12.19245499 -6 15 C-6.66 14.34 -7.32 13.68 -8 13 C-0.70159453 5.51708428 -0.70159453 5.51708428 3 3 C2.01 2.01 1.02 1.02 0 0 Z " fill="#2C1B1C" transform="translate(113,19)"/>
<path d="M0 0 C0 5.28 0 10.56 0 16 C-2.53973911 12.19039133 -3.62109562 8.56332667 -4 4 C-1.95121951 0 -1.95121951 0 0 0 Z " fill="#EDEDEC" transform="translate(91,78)"/>
<path d="M0 0 C1.98 0 3.96 0 6 0 C5.525625 1.175625 5.05125 2.35125 4.5625 3.5625 C3.11193153 7.40103259 2.42422897 10.92740191 2 15 C1.67 15 1.34 15 1 15 C1 12.36 1 9.72 1 7 C0.34 6.67 -0.32 6.34 -1 6 C-0.67 4.02 -0.34 2.04 0 0 Z " fill="#5A5A59" transform="translate(90,71)"/>
<path d="M0 0 C3.06098195 3.06098195 3.82645413 4.69822763 5.1875 8.6875 C5.53167969 9.68136719 5.87585938 10.67523438 6.23046875 11.69921875 C6.48441406 12.45847656 6.73835937 13.21773437 7 14 C6.34 14 5.68 14 5 14 C4.67 13.34 4.34 12.68 4 12 C2.35 12.33 0.7 12.66 -1 13 C-1.66 12.01 -2.32 11.02 -3 10 C-0.525 10.495 -0.525 10.495 2 11 C1.34 7.37 0.68 3.74 0 0 Z " fill="#686867" transform="translate(182,96)"/>
<path d="M0 0 C0.33 0 0.66 0 1 0 C1.66 2.31 2.32 4.62 3 7 C3.66 6.67 4.32 6.34 5 6 C5 8.64 5 11.28 5 14 C4.01 13.67 3.02 13.34 2 13 C1.525625 11.88625 1.05125 10.7725 0.5625 9.625 C-0.96048581 6.09167292 -1.77181153 4.89238634 -5 3 C-3.68 3 -2.36 3 -1 3 C-0.67 2.01 -0.34 1.02 0 0 Z " fill="#5F5F5E" transform="translate(100,118)"/>
<path d="M0 0 C5.51612903 0.61290323 5.51612903 0.61290323 7.875 2.5 C9 4 9 4 9 5 C4.05 5 -0.9 5 -6 5 C-2.71299843 3.35649921 -0.52069985 2.58678331 3 2 C2.01 1.34 1.02 0.68 0 0 Z " fill="#6C6C6B" transform="translate(196,145)"/>
<path d="M0 0 C0.33 0 0.66 0 1 0 C1 2.31 1 4.62 1 7 C-5.258654 7.5326514 -9.45108785 5.81849506 -15 3 C-15 2.34 -15 1.68 -15 1 C-14.38125 1.28875 -13.7625 1.5775 -13.125 1.875 C-8.84133876 3.41711805 -4.47071788 4.18398547 0 5 C0 3.35 0 1.7 0 0 Z " fill="#3F3F3F" transform="translate(191,114)"/>
<path d="M0 0 C2 2 2 2 2.125 5.125 C2.08375 6.07375 2.0425 7.0225 2 8 C1.34 8 0.68 8 0 8 C0.33 8.99 0.66 9.98 1 11 C0.01 10.67 -0.98 10.34 -2 10 C-1.95875 9.21625 -1.9175 8.4325 -1.875 7.625 C-1.71271266 4.83883881 -1.71271266 4.83883881 -4 3 C-2.68 2.01 -1.36 1.02 0 0 Z " fill="#D3D3D2" transform="translate(80,60)"/>
<path d="M0 0 C0 0.99 0 1.98 0 3 C-6.435 3.495 -6.435 3.495 -13 4 C-12.67 3.01 -12.34 2.02 -12 1 C-10.56274129 0.83126522 -9.12518162 0.66509263 -7.6875 0.5 C-6.88699219 0.4071875 -6.08648437 0.314375 -5.26171875 0.21875 C-3 0 -3 0 0 0 Z " fill="#2A2A29" transform="translate(184,197)"/>
<path d="M0 0 C0.66 0.33 1.32 0.66 2 1 C0.60922699 1.82113177 -0.78788893 2.63152495 -2.1875 3.4375 C-2.96480469 3.88996094 -3.74210937 4.34242187 -4.54296875 4.80859375 C-7.04931977 6.02391499 -9.25790365 6.57626575 -12 7 C-12.33 5.68 -12.66 4.36 -13 3 C-12.22914062 2.86722656 -11.45828125 2.73445313 -10.6640625 2.59765625 C-9.66117187 2.42105469 -8.65828125 2.24445313 -7.625 2.0625 C-6.62726563 1.88847656 -5.62953125 1.71445313 -4.6015625 1.53515625 C-2.03090344 1.12287938 -2.03090344 1.12287938 0 0 Z " fill="#B7B7B6" transform="translate(114,119)"/>
<path d="M0 0 C0.66 0.33 1.32 0.66 2 1 C2 1.99 2 2.98 2 4 C1.01 4.33 0.02 4.66 -1 5 C-2.21869929 7.50447516 -2.21869929 7.50447516 -3 10 C-3.66 9.01 -4.32 8.02 -5 7 C-3.70700306 4.11562221 -2.34058637 2.12780579 0 0 Z " fill="#CCCCCB" transform="translate(112,27)"/>
<path d="M0 0 C5.94 0 11.88 0 18 0 C18 0.99 18 1.98 18 3 C15.69 3 13.38 3 11 3 C11 2.34 11 1.68 11 1 C7.37 1 3.74 1 0 1 C0 0.67 0 0.34 0 0 Z " fill="#8A8A89" transform="translate(151,159)"/>
<path d="M0 0 C0 0.33 0 0.66 0 1 C-3.96 1.66 -7.92 2.32 -12 3 C-12 2.34 -12 1.68 -12 1 C-13.32 0.67 -14.64 0.34 -16 0 C-5.62642369 -2.66514806 -5.62642369 -2.66514806 0 0 Z " fill="#BCBCBA" transform="translate(201,147)"/>
<path d="M0 0 C0.99 0 1.98 0 3 0 C3.33 1.98 3.66 3.96 4 6 C3.34 5.34 2.68 4.68 2 4 C1.67 6.31 1.34 8.62 1 11 C0.34 11 -0.32 11 -1 11 C-1.33 9.02 -1.66 7.04 -2 5 C-1.34 5 -0.68 5 0 5 C0 3.35 0 1.7 0 0 Z " fill="#7E7E7D" transform="translate(82,63)"/>
<path d="M0 0 C0.33 0 0.66 0 1 0 C1.02725341 1.7290774 1.04650987 3.45828176 1.0625 5.1875 C1.07410156 6.15042969 1.08570313 7.11335937 1.09765625 8.10546875 C1.00486622 10.85576513 0.62111685 13.32479591 0 16 C0.99 15.67 1.98 15.34 3 15 C3 15.66 3 16.32 3 17 C1.35 17.33 -0.3 17.66 -2 18 C-1.855625 16.88625 -1.71125 15.7725 -1.5625 14.625 C-0.95203629 9.75873212 -0.47014775 4.88153414 0 0 Z " fill="#545454" transform="translate(210,172)"/>
<path d="M0 0 C1.67542976 0.28604898 3.34385343 0.61781233 5 1 C5 1.99 5 2.98 5 4 C3.1875 5.0625 3.1875 5.0625 1 6 C0.01 5.67 -0.98 5.34 -2 5 C-1.125 1.125 -1.125 1.125 0 0 Z " fill="#EAE9E8" transform="translate(177,167)"/>
<path d="M0 0 C1.69141656 0.08963062 3.37959602 0.24577676 5.0625 0.4375 C6.44115234 0.59025391 6.44115234 0.59025391 7.84765625 0.74609375 C8.55792969 0.82988281 9.26820313 0.91367188 10 1 C10.33 1.99 10.66 2.98 11 4 C8.69 4.66 6.38 5.32 4 6 C3.67 5.01 3.34 4.02 3 3 C0.99983534 1.79117904 0.99983534 1.79117904 -1 1 C-0.67 0.67 -0.34 0.34 0 0 Z " fill="#5B5B5A" transform="translate(130,154)"/>
<path d="M0 0 C1.9375 0.6875 1.9375 0.6875 4 2 C4.75 4.625 4.75 4.625 5 7 C1.62496331 5.8141763 -0.64722731 4.72426311 -3 2 C-2.01 1.34 -1.02 0.68 0 0 Z " fill="#D3D3D2" transform="translate(97,123)"/>
<path d="M0 0 C0.99 0.33 1.98 0.66 3 1 C2.01 3.97 1.02 6.94 0 10 C-0.66 10 -1.32 10 -2 10 C-2 7.03 -2 4.06 -2 1 C-1.34 0.67 -0.68 0.34 0 0 Z " fill="#100F0F" transform="translate(123,82)"/>
<path d="M0 0 C1.32 0.33 2.64 0.66 4 1 C4.66 3.64 5.32 6.28 6 9 C2.83884224 7.63016497 2.0072908 7.0109362 0 4 C0 2.68 0 1.36 0 0 Z " fill="#E1E1DF" transform="translate(113,67)"/>
<path d="M0 0 C0.33 0.99 0.66 1.98 1 3 C2.65 3 4.3 3 6 3 C6 3.33 6 3.66 6 4 C4.02 4 2.04 4 0 4 C0 4.66 0 5.32 0 6 C-2.3125 6.625 -2.3125 6.625 -5 7 C-5.99 6.34 -6.98 5.68 -8 5 C-6.865625 4.54625 -5.73125 4.0925 -4.5625 3.625 C-0.95278308 2.42904194 -0.95278308 2.42904194 0 0 Z " fill="#232222" transform="translate(183,168)"/>
<path d="M0 0 C1.2380014 3.57644848 0.74926071 6.33694766 0 10 C-0.33 9.01 -0.66 8.02 -1 7 C-1.66 7 -2.32 7 -3 7 C-3.33 7.99 -3.66 8.98 -4 10 C-3.38461538 3.47692308 -3.38461538 3.47692308 -1.4375 1.0625 C-0.7259375 0.5365625 -0.7259375 0.5365625 0 0 Z " fill="#555554" transform="translate(149,128)"/>
<path d="M0 0 C1.98 0.495 1.98 0.495 4 1 C3.1875 3.9375 3.1875 3.9375 2 7 C1.01 7.33 0.02 7.66 -1 8 C-1.125 2.25 -1.125 2.25 0 0 Z " fill="#282828" transform="translate(120,92)"/>
<path d="M0 0 C2 1 2 1 3.125 3.1875 C4.08328236 6.26769331 4.14915816 8.79309948 4 12 C3.34 12 2.68 12 2 12 C2 10.35 2 8.7 2 7 C1.34 7 0.68 7 0 7 C0 4.69 0 2.38 0 0 Z " fill="#F7F7F6" transform="translate(125,75)"/>
<path d="M0 0 C2.76223278 2.76223278 2.57856291 5.20706617 3 9 C2.01 9 1.02 9 0 9 C-1.36623674 6.26752652 -1.128426 4.01801098 -1 1 C-0.67 0.67 -0.34 0.34 0 0 Z " fill="#C4C4C3" transform="translate(58,211)"/>
<path d="M0 0 C0.33 0 0.66 0 1 0 C1 1.98 1 3.96 1 6 C2.32 6 3.64 6 5 6 C5.33 6.99 5.66 7.98 6 9 C1.56909529 7.79157144 -0.98112756 6.48331435 -4 3 C-3.34 3 -2.68 3 -2 3 C-1.34 2.01 -0.68 1.02 0 0 Z " fill="#9D9D9B" transform="translate(49,56)"/>
<path d="M0 0 C0.99 0.33 1.98 0.66 3 1 C3 2.32 3 3.64 3 5 C1.68 5 0.36 5 -1 5 C-3.75041666 7.41666771 -3.75041666 7.41666771 -6 10 C-6.66 9.67 -7.32 9.34 -8 9 C-7.50628906 8.51789062 -7.01257813 8.03578125 -6.50390625 7.5390625 C-5.86324219 6.90742187 -5.22257812 6.27578125 -4.5625 5.625 C-3.92441406 4.99851562 -3.28632812 4.37203125 -2.62890625 3.7265625 C-0.92117824 2.08276939 -0.92117824 2.08276939 0 0 Z " fill="#A2A1A0" transform="translate(82,47)"/>
<path d="M0 0 C3.875 1.875 3.875 1.875 5 3 C5.04092937 5.33297433 5.04241723 7.66705225 5 10 C3.02 10.99 3.02 10.99 1 12 C1.391875 11.13375 1.78375 10.2675 2.1875 9.375 C3.36045503 5.94529009 3.36045503 5.94529009 1.625 2.625 C1.08875 1.75875 0.5525 0.8925 0 0 Z " fill="#4A4949" transform="translate(125,134)"/>
<path d="M0 0 C1.98 0.66 3.96 1.32 6 2 C6 5 6 5 5 8 C4.34 7.01 3.68 6.02 3 5 C2.01 4.67 1.02 4.34 0 4 C0 2.68 0 1.36 0 0 Z " fill="#1B1B1B" transform="translate(164,130)"/>
<path d="M0 0 C0.33 0 0.66 0 1 0 C1.06058594 0.90363281 1.12117188 1.80726562 1.18359375 2.73828125 C1.26738281 3.91777344 1.35117187 5.09726562 1.4375 6.3125 C1.55931641 8.07013672 1.55931641 8.07013672 1.68359375 9.86328125 C1.8867371 13.02590958 1.8867371 13.02590958 3 16 C2.01 15.67 1.02 15.34 0 15 C-1.1875 12.4375 -1.1875 12.4375 -2 10 C-1.34 10 -0.68 10 0 10 C0 6.7 0 3.4 0 0 Z " fill="#A8A8A7" transform="translate(42,43)"/>
<path d="M0 0 C1.32 0 2.64 0 4 0 C4.33 2.31 4.66 4.62 5 7 C3.68 6.67 2.36 6.34 1 6 C0.67 4.02 0.34 2.04 0 0 Z " fill="#949493" transform="translate(165,164)"/>
<path d="M0 0 C-0.33 1.32 -0.66 2.64 -1 4 C-1.99 4 -2.98 4 -4 4 C-4.33 3.34 -4.66 2.68 -5 2 C-5.99 2.33 -6.98 2.66 -8 3 C-8 2.01 -8 1.02 -8 0 C-4.71303767 -0.79953138 -3.28976808 -1.09658936 0 0 Z " fill="#2A2A2A" transform="translate(194,167)"/>
<path d="M0 0 C1.65 0.33 3.3 0.66 5 1 C5 1.66 5 2.32 5 3 C5.66 3 6.32 3 7 3 C7.33 4.32 7.66 5.64 8 7 C6.02 7.99 6.02 7.99 4 9 C4 6.69 4 4.38 4 2 C2.35 2 0.7 2 -1 2 C-0.67 1.34 -0.34 0.68 0 0 Z " fill="#1C1C1C" transform="translate(101,132)"/>
<path d="M0 0 C2.88437779 1.29299694 4.87219421 2.65941363 7 5 C5.02 5.99 5.02 5.99 3 7 C0 2.25 0 2.25 0 0 Z " fill="#F1F1F0" transform="translate(148,119)"/>
<path d="M0 0 C1.32 0 2.64 0 4 0 C4.33 0.99 4.66 1.98 5 3 C5.99 3.66 6.98 4.32 8 5 C8 5.66 8 6.32 8 7 C5.05043472 5.63055898 2.47531189 4.12169591 0 2 C0 1.34 0 0.68 0 0 Z " fill="#1B1B1B" transform="translate(148,114)"/>
<path d="M0 0 C2.49505962 2.49505962 2.35948376 3.67328888 2.625 7.125 C2.69976562 8.03507812 2.77453125 8.94515625 2.8515625 9.8828125 C2.92503906 10.93082031 2.92503906 10.93082031 3 12 C0.89366282 10.29171079 0.06198392 9.47851584 -0.29296875 6.73828125 C-0.25816406 5.93777344 -0.22335938 5.13726562 -0.1875 4.3125 C-0.16042969 3.50425781 -0.13335937 2.69601563 -0.10546875 1.86328125 C-0.07066406 1.24839844 -0.03585938 0.63351563 0 0 Z " fill="#F1F1F0" transform="translate(83,65)"/>
<path d="M0 0 C0.66 0 1.32 0 2 0 C2.36923077 6.4 2.36923077 6.4 0.5 9.4375 C0.005 9.953125 -0.49 10.46875 -1 11 C-3 8 -3 8 -3 5 C-1.68 5.33 -0.36 5.66 1 6 C0.67 4.02 0.34 2.04 0 0 Z " fill="#DDDDDC" transform="translate(123,65)"/>
<path d="M0 0 C0.66666667 2.66666667 1.33333333 5.33333333 2 8 C0.68 8 -0.64 8 -2 8 C-1.125 1.125 -1.125 1.125 0 0 Z " fill="#434343" transform="translate(132,80)"/>
<path d="M0 0 C3 0 3 0 5.1875 2 C5.785625 2.66 6.38375 3.32 7 4 C4.4791665 5.26041675 3.64903564 4.66225891 1 4 C0.01 4.495 0.01 4.495 -1 5 C-0.67 3.35 -0.34 1.7 0 0 Z " fill="#C7C7C5" transform="translate(104,139)"/>
<path d="M0 0 C2.97 0.495 2.97 0.495 6 1 C6 2.32 6 3.64 6 5 C3.03 4.505 3.03 4.505 0 4 C0 2.68 0 1.36 0 0 Z " fill="#494949" transform="translate(170,127)"/>
<path d="M0 0 C0.86625 0.5259375 0.86625 0.5259375 1.75 1.0625 C4.35801776 2.14917407 5.39417629 1.93065133 8 1 C8 2.65 8 4.3 8 6 C2.25 3.375 2.25 3.375 0 0 Z " fill="#ADADAC" transform="translate(165,123)"/>
<path d="M0 0 C0.33 0.99 0.66 1.98 1 3 C1.99 3.33 2.98 3.66 4 4 C3.34 4 2.68 4 2 4 C2.66 5.98 3.32 7.96 4 10 C3.01 9.67 2.02 9.34 1 9 C0.67 6.03 0.34 3.06 0 0 Z " fill="#B0B0AF" transform="translate(89,91)"/>
<path d="M0 0 C0.99 0.66 1.98 1.32 3 2 C1.66666667 4.66666667 0.33333333 7.33333333 -1 10 C-2.15837626 5.94568308 -1.83691257 3.78187881 0 0 Z " fill="#292A29" transform="translate(124,72)"/>
<path d="M0 0 C0.66 0 1.32 0 2 0 C2.1953125 2.01822917 2.390625 4.03645833 2.5859375 6.0546875 C2.86374749 8.22668245 2.86374749 8.22668245 5 10 C3.68 10.33 2.36 10.66 1 11 C-0.28317892 7.15046324 -0.06643637 4.05261865 0 0 Z " fill="#BBBBB9" transform="translate(85,69)"/>
<path d="M0 0 C2.97 0.495 2.97 0.495 6 1 C5.67 1.99 5.34 2.98 5 4 C3.35 3.67 1.7 3.34 0 3 C0 2.01 0 1.02 0 0 Z " fill="#9C9C9B" transform="translate(172,173)"/>
<path d="M0 0 C1.32 0.66 2.64 1.32 4 2 C3.34 3.65 2.68 5.3 2 7 C0.4375 5.75 0.4375 5.75 -1 4 C-0.6875 1.8125 -0.6875 1.8125 0 0 Z " fill="#1F1F1F" transform="translate(113,144)"/>
<path d="M0 0 C2 3 2 3 2 6 C1.34 6 0.68 6 0 6 C0 7.32 0 8.64 0 10 C-0.66 10 -1.32 10 -2 10 C-1.46274105 6.62294375 -0.88935377 3.303314 0 0 Z " fill="#4F4F4E" transform="translate(84,84)"/>
<path d="M0 0 C-0.66 1.98 -1.32 3.96 -2 6 C-2.99 6 -3.98 6 -5 6 C-4.625 3.5625 -4.625 3.5625 -4 1 C-2 0 -2 0 0 0 Z " fill="#2D2D2D" transform="translate(55,56)"/>
<path d="M0 0 C1.32 0.33 2.64 0.66 4 1 C-0.455 3.97 -0.455 3.97 -5 7 C-2.36363636 1.72727273 -2.36363636 1.72727273 0 0 Z " fill="#898988" transform="translate(154,54)"/>
<path d="M0 0 C0 0.66 0 1.32 0 2 C-0.99 2.66 -1.98 3.32 -3 4 C-3.33 4.66 -3.66 5.32 -4 6 C-5.65 5.67 -7.3 5.34 -9 5 C-2.87096774 0 -2.87096774 0 0 0 Z " fill="#878786" transform="translate(59,27)"/>
<path d="M0 0 C1.32 0 2.64 0 4 0 C4 0.99 4 1.98 4 3 C1.36 3.33 -1.28 3.66 -4 4 C-2.68 3.34 -1.36 2.68 0 2 C0 1.34 0 0.68 0 0 Z " fill="#4C4C4C" transform="translate(157,200)"/>
<path d="M0 0 C2.76276177 0.52268466 5.3260876 1.10869587 8 2 C8 2.99 8 3.98 8 5 C7.01 5 6.02 5 5 5 C5 4.34 5 3.68 5 3 C2.525 2.01 2.525 2.01 0 1 C0 0.67 0 0.34 0 0 Z " fill="#332D2D" transform="translate(98,31)"/>
<path d="M0 0 C0.99 0.99 1.98 1.98 3 3 C2.67 3.99 2.34 4.98 2 6 C1.34 6 0.68 6 0 6 C-0.33 6.99 -0.66 7.98 -1 9 C-1.09765625 2.84765625 -1.09765625 2.84765625 -1 1 C-0.67 0.67 -0.34 0.34 0 0 Z " fill="#E3E3E2" transform="translate(171,163)"/>
<path d="M0 0 C3.16115776 1.36983503 3.9927092 1.9890638 6 5 C5.01 5.99 4.02 6.98 3 8 C2.690625 7.05125 2.38125 6.1025 2.0625 5.125 C1.12605258 2.13919592 1.12605258 2.13919592 0 0 Z " fill="#494949" transform="translate(108,139)"/>
<path d="M0 0 C5.75 3.625 5.75 3.625 8 7 C4.66272214 5.82744291 2.22562513 4.81131596 0 2 C0 1.34 0 0.68 0 0 Z " fill="#515151" transform="translate(160,122)"/>
</svg>
